<?xml version="1.0" encoding="UTF-8"?>
<svg id="Capa_1" data-name="Capa 1" xmlns="http://www.w3.org/2000/svg" viewBox="0 0 205.757999407771422 34.171001434326172">
  <defs>
    <style>
      .cls-1 {
        fill: #006e63;
      }

      .cls-2 {
        fill: #fff;
      }

      .cls-3 {
        fill: #b7dff0;
      }
    </style>
  </defs>
  <polygon class="cls-3" points="205.758028024198211 11.764012922830261 193.993989938260711 11.764012922830261 193.993989938260711 -.000025163107239 183.350984567166961 -.000025163107239 183.350984567166961 11.764012922830261 171.587007516385711 11.764012922830261 171.587007516385711 22.406957258767761 183.350984567166961 22.406957258767761 183.350984567166961 34.170995344705261 193.993989938260711 34.170995344705261 193.993989938260711 22.406957258767761 205.758028024198211 22.406957258767761 205.758028024198211 11.764012922830261"/>
  <g>
    <path class="cls-1" d="M151.124591814997984,30.312101364135742c0,.253999948501587-.078994750976562.473999977111816-.23699951171875.664999961853027-.15899658203125.189000129699707-.3489990234375.340000152587891-.57000732421875.450000047683716-.220993041992188.110999822617487-.45098876953125.197999954223633-.68798828125.260999917984009-.23699951171875.064000129699707-.43499755859375.095000028610229-.593002319335938.095000028610229-.66400146484375,0-1.2340087890625-.355999946594238-1.7080078125-1.066999912261963-.474990844726562-.712000131607056-.8699951171875-1.503000020980835-1.186996459960938-2.372999906539917-.315994262695312-.869000434875488-.544998168945312-1.68400001525788-.686996459960938-2.444000244140625-.14300537109375-.758999824523926-.214004516601562-1.170000076293945-.214004516601562-1.232999801635742-.188995361328125.347999572753906-.386993408203125.933000564575195-.593002319335938,1.755000114440918-.20599365234375.822999954224542-.45098876953125,1.653999805450439-.735000610351562,2.490999698638916-.284988403320312.839000225067139-.6409912109375,1.583000183105469-1.0679931640625,2.230000019073486-.427001953125.64900016784668-.973007202148438.973000049591064-1.636993408203125.973000049591064-.317001342773438,0-.61700439453125-.189000129699707-.902008056640625-.569000005722046-.28399658203125-.379999876022339-.554000854492188-.869999885559082-.805999755859375-1.470999956130981-.253997802734375-.60099983215332-.498992919921875-1.281000137329102-.735992431640625-2.04099988937287-.23699951171875-.758000373841242-.474014282226562-1.50100040435882-.712005615234375-2.229999542237238-.23699951171875-.727001190185547-.466995239257812-1.415000915527344-.686996459960938-2.064001083374023-.222000122070312-.646999359130859-.444000244140625-1.161999702453613-.665008544921875-1.541999816894531-.19000244140625.475000381469727-.356002807617188,1.123000144958496-.498001098632812,1.946000099182129-.141998291015625.823000907897949-.261001586914062,1.684000015258789-.356002807617188,2.586000442504883-.094985961914062.901000022888184-.173995971679688,1.795000076293945-.23699951171875,2.680999755859375-.063995361328125.885999917984009-.094985961914062,1.660000085830688-.094985961914062,2.323999881744385,0,.444000124931335-.119003295898438.760000228881836-.356002807617188.949000120162964-.23699951171875.190999984741211-.482009887695312.285000085830688-.735000610351562.285000085830688-.3489990234375,0-.695999145507812-.229000091552734-1.04400634765625-.688000082969666-.3489990234375-.4579998254776-.695999145507812-1.050999999046326-1.04400634765625-1.778999924659729-.3489990234375-.728000164031982-.672988891601562-1.549000263214111-.972991943359375-2.467999935149237-.300994873046875-.916000366211847-.569000244140625-1.833000183106378-.805999755859375-2.75200080871673-.238006591796875-.915999412536621-.419998168945312-1.793998718261719-.546005249023438-2.632999420166016-.126998901367188-.838000297546387-.189987182617188-1.541999816894531-.189987182617188-2.111000061035156,0-.41100025177002.014984130859375-.790999412536621.047988891601562-1.138999938964844.029998779296875-.284999847412109.054000854492188-.552999496459961.070999145507812-.807000160217285.014999389648438-.252999305725098.024002075195312-.394999504089355.024002075195312-.427000999450684,0-.094997406005859-.024002075195312-.157999038696289-.071990966796875-.188999176025391-.047012329101562-.031999588012695-.070999145507812-.111000061035156-.070999145507812-.237998962402344,0-.095001220703125.118988037109375-.243999481201172.355987548828125-.451000213623047.23699951171875-.204999923706055.482009887695312-.308000564575195.735000610351562-.308000564575195.443008422851562,0,.736007690429688.094999313354492.878005981445312.284999847412109.141998291015625.189001083374023.214004516601562.411001205444336.214004516601562.663999557495117,0,.095001220703125-.009002685546875.23699951171875-.024002075195312.427000999450684-.016006469726562.189999580383301-.024002075195312.616999626159668-.024002075195312,1.281000137329102,0,.442999839782715.078994750976562,1.107999801635742.23699951171875,1.993000030517578.158004760742188.88599967956543.348007202148438,1.787999153137207.569992065429688,2.703999519349054.22100830078125.919000625609442.451004028320312,1.763999938963934.688003540039062,2.539000034331366.23699951171875.776000022888184.434005737304688,1.257999897003174.593002319335938,1.447000026702881.063003540039062-.125999927520752.102005004882812-.276000022889093.119003295898438-.449999809264227.014999389648438-.174000263215021.03900146484375-.309000015259699.070999145507812-.404000282288507l.522003173828125-3.889999389648438c.125991821289062-.981000900268555.386993408203125-2.017000198364258.782989501953125-3.108000755310059.395004272460938-1.092000007629395.814010620117188-1.937999725341797,1.257003784179688-2.539000511169434.158004760742188-.252998352050781.332000732421875-.379999160766602.522003173828125-.379999160766602s.362991333007812.142999649047852.522003173828125.427999496459961c.537994384765625.885000228881836.940994262695312,1.76300048828125,1.209991455078125,2.633000373840332s.505996704101562,1.723999977111816.712005615234375,2.562000274658203c.205001831054688.83899974822998.4429931640625,1.676999092102051.711990356445312,2.515000343322754.26800537109375.83899974822998.68701171875,1.683999538421631,1.257003784179688,2.538999557495117.253005981445312-.41100025177002.569000244140625-1.084000110625311.949005126953125-2.017000198363348.378997802734375-.933000564576105.766006469726562-1.875,1.162994384765625-2.823999404908136.395004272460938-.949000358581543.766006469726562-1.779000282287598,1.113998413085938-2.491000175476074.348007202148438-.711000442504883.61700439453125-1.067000389099121.8070068359375-1.067000389099121.095001220703125,0,.253005981445312.015999794006348.475006103515625.046999931335449.220993041992188.032000541687012.378997802734375.048000335693359.4739990234375.048000335693359.284988403320312,0,.521987915039062.324999809265137.711990356445312.972000122070312.19000244140625.648999214172363.356002807617188,1.407999992370605.498001098632812,2.277999877929688.141998291015625.870999336242676.285003662109375,1.739999771118164.427001953125,2.609999656677246.14300537109375.869999885559082.307998657226562,1.526000022888184.498001098632812,1.968999862670898.126007080078125.317000389099121.315994262695312.617000102996826.57000732421875.901000022888184.251998901367188.285000324248358.504989624023438.554000377655029.758987426757812.807000160218195.316009521484375.2849998474112.632003784179688.570000171660467.949005126953125.854000091551825"/>
    <path class="cls-1" d="M163.613788592341734,10.857902526855469c0,.253997802734375-.189987182617188.616998672485352-.569000244140625,1.090999603271484-.379989624023438.474998474121094-.83099365234375.965999603271484-1.352996826170966,1.472000122070312-.52099609375.506000518798828-1.059997558594659.972000122070312-1.612991333008722,1.398998260498047-.554000854491278.427001953125-.988998413085938.720001220703125-1.305007934570312.878002166748047-.25299072265625.126998901367188-.4739990234375.205999374389648-.66400146484375.23699951171875-.19000244140625.031999588012695-.3489990234375.047000885009766-.474990844726562.047000885009766-.253005981445312,0-.569000244140625-.141002655029297-.949005126953125-.426002502441406-.378997802734375-.284999847412109-.569000244140625-.552997589111328-.569000244140625-.806999206542969,0-.062999725341797.14300537109375-.149999618530273.427001953125-.26099967956543.285003662109375-.111000061035156.599990844726562-.26099967956543.949005126953125-.451000213623047.315994262695312-.190000534057617.735000610351562-.49799919128418,1.25799560546875-.92500114440918.522003173828125-.426998138427734,1.042999267578125-.854000091552734,1.56500244140625-1.280998229980469.522003173828125-.427000045776367.996994018554688-.798999786376953,1.423995971679688-1.115001678466797.427001953125-.315998077392578.718994140625-.474998474121094.876998901367188-.474998474121094.222000122070312,0,.443008422851562.063999176025391.664993286132812.189998626708984.22100830078125.12700080871582.332000732421875.269001007080078.332000732421875.427001953125M157.682788836482359,22.814901351928711c0-.125999450683594-.031997680664062-.243999481201172-.095001220702216-.355999946594238-.063995361329034-.109999656677246-.094985961914972-.213000297546387-.094985961914972-.307999610900879,0-.12600040435791.030990600585938-.237000465393066.094985961914972-.332000732421875.063003540038153-.094999313354492.095001220702216-.220999717712402.095001220702216-.378999710083008,0-.095999717712402-.031997680664062-.166999816894531-.095001220702216-.21399974822998-.063995361329034-.047999382019043-.094985961914972-.102999687194824-.094985961914972-.165999412536621-.284011840820312.062999725341797-.577011108398438.331999778747559-.878005981445312.805999755859375-.300994873046875.47499942779541-.584991455078125,1.028999328613281-.85400390625,1.660999298095703-.268997192382812.633000373840332-.483001708984375,1.27400016784668-.639999389648438,1.922000885009766-.15899658203125.64799976348877-.237991333007812,1.178999423980713-.237991333007812,1.58899974822998,0,.222000122070312.06298828125.585999488830566.19000244140625,1.092000007629395.125991821289062.505999565124512.267990112304688.837999820709229.426986694335938.995999813079834.538009643554688-1.10699987411499,1.0360107421875-2.182000160217285,1.495010375976562-3.226999759674072.457992553710938-1.043000221252441.68798828125-2.071000099183038.68798828125-3.084000587463379M174.336795794490172,24.902901649475098c0,.569999694824219-.259994506835028,1.27400016784668-.781997680664062,2.111999988556818-.522003173828125.837999820708319-1.227005004882812,1.653000354765936-2.11199951171875,2.444000244139716-.886001586914062.789999961853027-1.91400146484375,1.462999820709229-3.083999633789062,2.015999794005438-1.171005249023438.552999973298029-2.389007568359375.829999923707874-3.654006958007812.829999923707874-.569000244140625,0-1.169998168945312-.09499979019256-1.802993774414062-.283999919892267-.63299560546875-.190000057220459-1.249008178710938-.467000007629395-1.850006103515625-.830999851226807-.60198974609375-.363000392912909-1.138992309570312-.806000232696533-1.613998413085938-1.328000068664551-.4739990234375-.522000312805176-.821990966796875-1.116000175476074-1.042999267578125-1.780000209809259-.19000244140625.190000057221368-.419998168945312.506000041962579-.688003540039062.948999881745294-.269989013671875.443000316619873-.563003540039062.894999980926514-.87799072265625,1.353000164031982-.317001342773438.458000183105469-.66400146484375.854000091552734-1.04400634765625,1.185999870300293-.379989624023438.332000255584717-.7760009765625.498000144958496-1.186004638671875.498000144958496-.4119873046875,0-.751998901367188-.21399974822998-1.02099609375-.640999794006348-.268997192382812-.426000118255615-.48199462890625-.901000022888184-.639999389648438-1.423000335693359-.15899658203125-.521999835968018-.268997192382812-1.019999980926514-.332000732421875-1.494999885559082-.063995361328125-.473999977111816-.095001220703125-.741999626159668-.095001220703125-.805999755860284,0-.380000114439099.111007690429688-1.098999977110907.332000732421875-2.159000396727606.22100830078125-1.059999465941473.553009033203125-2.158999443054199.99700927734375-3.298000335693359.441986083984375-1.138999938964844,1.003997802734375-2.150999069213867,1.683990478515625-3.036998748779297.680007934570312-.885000228881836,1.47900390625-1.329000473022461,2.39599609375-1.329000473022461.348007202148438,0,.577011108398438.150999069213867.688003540039062.451999664306641.111007690429688.300000190734863.166000366210938.593000411987305.166000366210938.87700080871582v1.422999382019043c.158004760742188.127999305725098.324005126954034.21399974822998.499008178710938.26200008392334.172988891601562.046999931335449.332000732421875.111000061035156.4739990234375.189999580383301.141998291015625.079000473022461.25299072265625.197000503540039.332000732421875.355999946594238.078994750976562.157999992370605.119003295898438.41100025177002.119003295898438.758000373840332,0,.222000122070312-.017013549804688.420000076293945-.048004150389716.592999458312988-.031997680664972.175000190734863-.046997070313409.341000556945801-.046997070313409.499000549316406,0,.822999954223633.06298828125,1.628999710083008.189987182617188,2.420000076293945.126007080078125.790999889373779.379013061523438,1.49399995803833.759002685546875,2.111000061035156.378997802734375.616999626159668.9010009765625,1.122999668121338,1.56500244140625,1.518999576568604.664993286132812.394999980926514,1.550003051757812.593000411987305,2.658004760743097.593000411987305,1.390991210936591,0,2.569992065428778-.292000293731689,3.535003662108466-.878000259398505.9639892578125-.585000038146973,1.77099609375-1.233999729157404,2.418991088867188-1.945999622344971.649002075195312-.711000442505792,1.162994384765625-1.359000205994562,1.542999267578125-1.945000648499445.378997802734375-.585000038146973.69500732421875-.877999305725098.949005126953125-.877999305725098.410003662109375,0,.615997314453125.205999374389648.615997314453125.616999626159668"/>
    <path class="cls-1" d="M185.582691180232359,28.508901596069336c0,.539000034332275-.182998657226562,1.005000114440918-.546005249023438,1.400000095367432-.363998413085938.395999908448175-.822998046875.727999925613403-1.375991821289062.995999813079834-.554000854492188.269999980926514-1.162002563476562.483000040054321-1.826995849609375.641000032424927-.66400146484375.159000158309937-1.297012329101562.276999950408936-1.898010253905341.355999946594238-.600997924805597.078999996185303-1.130996704102472.126000165939331-1.588989257813409.142000198365167-.459014892578125.016999959944769-.75201416015625.023999929427191-.878005981445312.023999929427191-.695999145507812,0-1.233993530273438-.111000061036066-1.613006591796875-.332000017167047-.379989624023438-.220999956129162-.569992065429688-.617000102995917-.569992065429688-1.187000036238715,0-.189000129699707.0159912109375-.355000019073486.048004150390625-.496999740600586.030990600585938-.14300012588501.157989501953125-.214000225067139.378997802734375-.214000225067139.095993041992188,0,.25299072265625.023000240325928.474990844726562.071000099182129.22100830078125.046999931335449.395004272460938.070999622344971.522003173828125.070999622344971.126007080078125,0,.529006958007812-.023999691009521,1.210006713867188-.070999622344971.67999267578125-.047999858856201,1.406997680664062-.134000301361084,2.182998657226562-.261000156402588.774002075195312-.125999927520752,1.470001220703125-.308000087738037,2.086990356445312-.546000003814697.61700439453125-.236999988555908.925003051757812-.545000076293945.925003051757812-.924999713897705,0-.063000202178955-.324005126953125-.261000156402588-.972000122070312-.593000411987305-.649002075195312-.331999778747559-1.621002197265625-.892999649047852-2.917999267578125-1.684999465942383-1.01300048828125-.632000923156738-1.725006103515625-1.27299976348877-2.134994506835938-1.921000480651855-.412002563476562-.64799976348877-.61700439453125-1.526000022888184-.61700439453125-2.633999824523926,0-.695000648498535.149002075195312-1.263999938964844.449996948242188-1.708000183105469.301010131835938-.441999435424805.712005615234375-.789999961853027,1.2340087890625-1.043000221252441.521987915039062-.253999710083008,1.123001098632812-.434999465942383,1.802993774414062-.545999526977539.680007934570312-.111000061035156,1.399993896484375-.166999816894531,2.15899658203125-.166999816894531.063003540039062,0,.261001586914062.033000946044922.593002319335938.096000671386719s.688003540039062.164999008178711,1.068008422851562.307998657226562c.379989624023438.142000198364258.718994140625.317000389099121,1.019989013671875.522000312805176.300003051757812.206000328063965.45001220703125.435000419616699.45001220703125.687999725341797,0,.063000679016113-.055007934570312.159000396728516-.165008544921875.285000801086426-.110992431640625.125999450683594-.292999267578125.363999366760254-.546005249023438.711999893188477-.095001220703125-.032000541687012-.260986328125-.079000473022461-.498001098632812-.143000602722168-.23699951171875-.062999725341797-.506988525390625-.133999824523926-.806991577148438-.21299934387207-.300994873046875-.079000473022461-.608993530273438-.143000602722168-.925003051757812-.190000534057617-.317001342773438-.048000335693359-.569000244140625-.071000099182129-.759994506835938-.071000099182129-.822998046875,0-1.48699951171875.15000057220459-1.99200439453125.449999809265137-.507003784179688.301000595092773-.759002685546875.878000259399414-.759002685546875,1.732000350952148,0,.411999702453613.166000366210938.790999412536621.498001098632812,1.138999938964844s.751007080078125.671999931335449,1.257003784179688.973000526428223c.505996704101562.300999641418457,1.050994873046875.60099983215332,1.636993408203125.900999069213867.585006713867188.301000595092773,1.131011962891534.625,1.637008666992188.973000526428223.505996704101562.348000049591974.925994873046875.720000267028809,1.25799560546875,1.114999771118164.332000732421875.396000385284424.498001098632812.847000122070312.498001098632812,1.35200023651123"/>
    <path class="cls-1" d="M174.268695818905144,26.302001476287842c.350997924803778.11899995803833.722000122069403.192999839782715,1.113006591795966.223999977111816.3909912109375.031000137329102.763992309570312,0,1.117996215820312-.091000080107733.35400390625-.092000007630304.63299560546875-.300999641419367.834991455078125-.626999855042413.204010009765625-.326999664306641.152008056640625-.585000038146973-.154998779296875-.776000022888184-.224990844726562-.140000343322754-.4219970703125-.197999954223633-.590988159179688-.175999641418457-.170013427734375.021999359130859-.352005004882812.042999267577216-.548004150390625.062999725341797-.197006225585938.019000053405762-.419998168945312.015000343322754-.671005249023438-.013999938964844-.251998901367188-.027999877929688-.570999145507812-.163000106811523-.958999633789062-.404000282287598-.367996215820312-.227999687194824-.68499755859375-.559999465942383-.9530029296875-.994999885559082-.266998291015625-.435000419616699-.487991333007812-.876999855041504-.662994384765625-1.324999809265137-.173995971679688-.447999954223633-.319000244140625-.842000007629395-.432998657226562-1.182000160217285-.113998413085028-.340000152587891-.1820068359375-.515999794006348-.2030029296875-.527999877929688-.061004638671875-.039000511169434-.192001342772528-.043000221252441-.395004272460938-.012999534606934-.201995849609375.029998779296875-.354995727539062.125999450683594-.45599365234375.289999008178711-.190994262695312.307000160217285-.23199462890625.72700023651123-.125,1.260000228881836.108001708984375.534000396728516.292999267578125,1.065999984741211.556991577148438,1.597999572753906.264007568359375.532000541687012.5570068359375,1.018000602722168.878005981445312,1.458000183106378.320999145507812.440000534056708.593002319335938.730000495909735.818008422851562.870000839232489.203994750976562.125999450684503.48199462890625.24899959564209.832992553711847.36799955368042"/>
    <g>
      <polygon class="cls-2" points=".000032418729461 18.946202864236511 3.807649606229461 18.946202864236511 3.807649606229461 28.601476301736511 6.561555856229461 28.601476301736511 6.561555856229461 18.946202864236511 10.369173043729461 18.946202864236511 10.369173043729461 16.703038801736511 .000032418729461 16.703038801736511 .000032418729461 18.946202864236511"/>
      <path class="cls-2" d="M15.860383981229461,19.320226301736511c-2.78759765625,0-4.87841796875,1.9716796875-4.87841796875,4.708984375,0,2.7197265625,2.056640625,4.7080078125,5.21826171875,4.7080078125,1.64892578125,0,2.923828125-.509765625,3.77392578125-1.478515625l-1.4111328125-1.5302734375c-.62890625.595703125-1.32568359375.8837890625-2.29443359375.8837890625-1.39404296875,0-2.36279296875-.6962890625-2.61767578125-1.8349609375h6.91796875c.01708984375-.2216796875.05126953125-.5107421875.05126953125-.7138671875,0-2.94140625-2.07373046875-4.7431640625-4.759765625-4.7431640625ZM13.616731637479461,23.230382551736511c.18701171875-1.1728515625,1.0537109375-1.904296875,2.2607421875-1.904296875,1.18994140625,0,2.056640625.748046875,2.24365234375,1.904296875h-4.50439453125Z"/>
      <path class="cls-2" d="M31.551301949979461,19.320226301736511c-2.90625,0-5.03125,1.955078125-5.03125,4.708984375s2.125,4.7080078125,5.03125,4.7080078125c2.90673828125,0,5.0146484375-1.9541015625,5.0146484375-4.7080078125s-2.10791015625-4.708984375-5.0146484375-4.708984375ZM31.551301949979461,26.561437239236511c-1.32568359375,0-2.345703125-.951171875-2.345703125-2.5322265625s1.02001953125-2.533203125,2.345703125-2.533203125c1.326171875,0,2.3291015625.9521484375,2.3291015625,2.533203125s-1.0029296875,2.5322265625-2.3291015625,2.5322265625Z"/>
      <path class="cls-2" d="M42.448274606229461,17.943273176736511c.408203125,0,.78173828125.119140625,1.07080078125.3232421875l.697265625-1.9208984375c-.4931640625-.33984375-1.27490234375-.4931640625-2.02294921875-.4931640625-2.27783203125,0-3.53564453125,1.3427734375-3.53564453125,3.400390625v.4072265625h-1.4111328125v2.0400390625h1.4111328125v6.9013671875h2.65185546875v-6.9013671875h2.27783203125v-2.0400390625h-2.34619140625v-.390625c0-.9013671875.42529296875-1.326171875,1.20703125-1.326171875Z"/>
      <path class="cls-2" d="M47.446809762479461,20.662999739236511v-1.20703125h-2.533203125v9.1455078125h2.65185546875v-4.3173828125c0-1.7509765625.96923828125-2.5498046875,2.4306640625-2.5498046875.2041015625,0,.3740234375.0166015625.59521484375.0341796875v-2.4482421875c-1.4111328125,0-2.4990234375.458984375-3.14453125,1.3427734375Z"/>
      <path class="cls-2" d="M56.438936227323211,19.320226301736511c-2.78759765625,0-4.87835693359375,1.9716796875-4.87835693359375,4.708984375,0,2.7197265625,2.05657958984375,4.7080078125,5.21820068359375,4.7080078125,1.64892578125,0,2.923828125-.509765625,3.77392578125-1.478515625l-1.4111328125-1.5302734375c-.62890625.595703125-1.32568359375.8837890625-2.29443359375.8837890625-1.39404296875,0-2.36279296875-.6962890625-2.61767578125-1.8349609375h6.91796875c.01708984375-.2216796875.05126953125-.5107421875.05126953125-.7138671875,0-2.94140625-2.07373046875-4.7431640625-4.759765625-4.7431640625ZM54.195283883573211,23.230382551736511c.18701171875-1.1728515625,1.0537109375-1.904296875,2.2607421875-1.904296875,1.18994140625,0,2.056640625.748046875,2.24365234375,1.904296875h-4.50439453125Z"/>
      <path class="cls-2" d="M67.370088571073211,21.496007551736511c.8330078125,0,1.56396484375.3916015625,2.056640625,1.2578125l2.05712890625-1.1044921875c-.6630859375-1.49609375-2.17578125-2.3291015625-4.0966796875-2.3291015625-2.974609375,0-5.099609375,1.955078125-5.099609375,4.708984375s2.125,4.7080078125,5.099609375,4.7080078125c1.9208984375,0,3.43359375-.849609375,4.0966796875-2.3115234375l-2.05712890625-1.1220703125c-.49267578125.8837890625-1.2236328125,1.2578125-2.056640625,1.2578125-1.3427734375,0-2.39697265625-.9345703125-2.39697265625-2.5322265625s1.05419921875-2.533203125,2.39697265625-2.533203125Z"/>
      <path class="cls-2" d="M77.212862008573211,19.320226301736511c-2.78759765625,0-4.87841796875,1.9716796875-4.87841796875,4.708984375,0,2.7197265625,2.056640625,4.7080078125,5.21826171875,4.7080078125,1.64892578125,0,2.923828125-.509765625,3.77392578125-1.478515625l-1.4111328125-1.5302734375c-.62890625.595703125-1.32568359375.8837890625-2.29443359375.8837890625-1.39404296875,0-2.36279296875-.6962890625-2.61767578125-1.8349609375h6.91796875c.01708984375-.2216796875.05126953125-.5107421875.05126953125-.7138671875,0-2.94140625-2.07373046875-4.7431640625-4.759765625-4.7431640625ZM74.969209664823211,23.230382551736511c.18701171875-1.1728515625,1.0537109375-1.904296875,2.2607421875-1.904296875,1.18994140625,0,2.056640625.748046875,2.24365234375,1.904296875h-4.50439453125Z"/>
      <path class="cls-2" d="M95.453096383573211,19.320226301736511c-1.37646484375,0-2.56640625.5615234375-3.29736328125,1.49609375-.64599609375-1.0029296875-1.73388671875-1.49609375-3.0087890625-1.49609375-1.1728515625,0-2.19287109375.408203125-2.87255859375,1.1904296875v-1.0546875h-2.53271484375v9.1455078125h2.6513671875v-4.58984375c0-1.6318359375.8330078125-2.396484375,2.005859375-2.396484375,1.10498046875,0,1.73388671875.6796875,1.73388671875,2.1591796875v4.8271484375h2.65185546875v-4.58984375c0-1.6318359375.8330078125-2.396484375,2.0224609375-2.396484375,1.0712890625,0,1.73388671875.6796875,1.73388671875,2.1591796875v4.8271484375h2.65185546875v-5.2353515625c0-2.7880859375-1.56396484375-4.0458984375-3.73974609375-4.0458984375Z"/>
      <path class="cls-2" d="M105.925264352323211,19.320226301736511c-2.90625,0-5.03125,1.955078125-5.03125,4.708984375s2.125,4.7080078125,5.03125,4.7080078125c2.90673828125,0,5.0146484375-1.9541015625,5.0146484375-4.7080078125s-2.10791015625-4.708984375-5.0146484375-4.708984375ZM105.925264352323211,26.561437239236511c-1.32568359375,0-2.345703125-.951171875-2.345703125-2.5322265625s1.02001953125-2.533203125,2.345703125-2.533203125c1.326171875,0,2.3291015625.9521484375,2.3291015625,2.533203125s-1.0029296875,2.5322265625-2.3291015625,2.5322265625Z"/>
      <path class="cls-2" d="M114.579072946073211,22.175695051736511c0-.4755859375.509765625-.849609375,1.69970703125-.849609375.8330078125,0,1.73388671875.169921875,2.634765625.6796875l.8837890625-1.88671875c-.86669921875-.509765625-2.2607421875-.798828125-3.5185546875-.798828125-2.66845703125,0-4.232421875,1.2236328125-4.232421875,2.9580078125,0,3.654296875,5.5244140625,2.125,5.5244140625,3.6201171875,0,.5107421875-.458984375.8330078125-1.68310546875.8330078125-1.12158203125,0-2.36279296875-.3564453125-3.17822265625-.8837890625l-.88427734375,1.904296875c.85009765625.560546875,2.4140625.9853515625,3.9609375.9853515625,2.736328125,0,4.31689453125-1.20703125,4.31689453125-2.90625,0-3.603515625-5.52392578125-2.0908203125-5.52392578125-3.6552734375Z"/>
    </g>
  </g>
</svg>