<?xml version="1.0" encoding="UTF-8"?>
<svg id="Capa_1" data-name="Capa 1" xmlns="http://www.w3.org/2000/svg" viewBox="0 0 34.015748031497424 34.015748031498333">
  <defs>
    <style>
      .cls-1 {
        fill: #b1dff3;
      }

      .cls-2 {
        fill: #d0dbf1;
      }

      .cls-3 {
        fill: #1d3a69;
      }

      .cls-4 {
        fill: #afdef3;
      }

      .cls-5 {
        fill: #d58694;
      }

      .cls-6 {
        fill: #fff;
      }

      .cls-7 {
        fill: #eeeded;
      }

      .cls-8 {
        fill: #47c0f0;
      }

      .cls-9 {
        fill: #83d0f2;
      }

      .cls-10 {
        fill: #b5b2b2;
      }

      .cls-11 {
        fill: #dfe3f4;
      }

      .cls-12 {
        fill: #82cff1;
      }
    </style>
  </defs>
  <path class="cls-6" d="M0,17.007874015749621C0,7.614956225135757,7.614956225135757,0,17.007874015749621,0s17.007874015747802,7.614956225135757,17.007874015747802,17.007874015749621c0,9.392916740708642-7.614956225133938,17.007874015748712-17.007874015747802,17.007874015748712S0,26.400790756458264,0,17.007874015749621"/>
  <g>
    <path class="cls-7" d="M8.60482202496496,18.710820687340856c0-4.624683837962039,3.749024751137767-8.373710350532747,8.373709998242703-8.373710350532747,4.624502058441067,0,8.373525752724163,3.749026512570708,8.373525752724163,8.373710350532747,0,4.624685247104026-3.749023694283096,8.373710350530928-8.373525752724163,8.373710350530928-4.624685247104935,0-8.373710350531837-3.749025103426902-8.373710350531837-8.373710350530928"/>
    <path class="cls-5" d="M8.60482202496496,18.751861994303908c0-.123194378071275,3.571159829332828-1.108195609221184,8.209513769228579-1.06719234913453,4.63816793294427.041003260088473,8.537721981738287.943997971063254,8.537721981738287,1.06719234913453,0,4.624685247105845-3.749023694283096,8.373711759675643-8.373525752724163,8.373711759675643-4.624685247104935,0-8.373710350531837-3.749026512569799-8.373710350531837-8.373711759675643"/>
    <path class="cls-11" d="M18.07571940273192,27.019462423610094c.082744911413101-1.096003698908135.166228214069633-2.191825618295297.248051545577255-3.287832135491044.035645696169013-.476709047970871.048575997721855-.9543410849883-.108050311946499-1.414057270445483-.183588863055775-.53858313371984-.472274473102516-.983153843906621-1.089169352511817-1.09655890148133-.255441094544949-.000924398193092-.442910739042418-.123934178456693-.615418096933354-.305493874748208-.995159747266371-1.047613708139579-1.857335795963081-2.175571147021401-2.228397121803937-3.607728866839352-.414465766598369-1.599496339032157.01292748326523-3.002287506501489,1.008273237486719-4.266923418436818.124117367122381-.157733896527134.229766498394383-.34113957091904.417788527176526-.442355536468312.276310511064366-.056331924024562.560562955384739-.152193143944714.827637939384658-.158100273859418.526577230360999-.011822714694063,1.045950918707604.027331749008226,1.547594762445442-.192458012793395.109713101377565-.048020795148659.238446822890182.044328838952424.323962110594948.14591118183489.112852673288216.159765881579915.148498369459048.352962285611284.225519339624952.528426026747184.308261432752261.703886949596381.925159130449174,1.060727198358109,1.68833438731599.959697239761226.214807030077282-.028442154154618.404861043909477.001290775527195.57589443760844.133352894189557.439768348844154.339476781486155.928112695408345.382512026625591,1.447303195089262.239371221082365.087547272758457-.02419781367189.187838840114637-.07092501500847.265042998946228-.033802536358053.363488588205655.175280552469303.772965986505369.129105735418307,1.14569010177911.252670718253285.191161600692794.709796897799606.055038330210664,1.381180541422509-.243065995568031,2.031875138906798-.192824390125679.421300112994686-.46969010376597.796239401984167-.675444795442672,1.210888357250042-.681909946215455,1.151969245600412-1.175056654123182,2.356209263408346-1.27202264261723,3.720767547081778-.088288482284042,1.240254909597752-.249345139389334,2.479033036715919-.595101064696792,3.681425667281474-.124672569694667.433304607211539-.24971433501014.872520571768291-.569243279880538,1.217721294503463-.731962726420534.374570093369584-1.516751427618146.56887126597303-2.32517992162866.683203540029353"/>
    <path class="cls-2" d="M15.697457042189853,12.643210454270957c-.255069080640169.411695390307614-.594731869079624.759483300667853-.839088640170303,1.184292181193996-.803073748380484,1.397064407931794-.830408315678142,2.818695825156283-.213327429313722,4.278374119223372.446416688284444,1.055924837014572,1.148460478070774,1.932692567550475,1.935095157368778,2.750171990819581.156623491378923.162719446537267.31158701161803.321930125543986.546339060019818.364965370684331-.068154638714987.007203542014395-.136309277433611.014590272696296-.204461097862804.0219798216649-.408555818396053-.011636707738035-.676738389254751.219975768754921-.890804209804628.528978411033677-.309188649232965.446047492665457-.404491848294128.954156487178807-.389163184356221,1.485536078884252.03601771007925,1.257247772110532.148684376414167,2.509323987256721.26615340409262,3.761029597642846-.808614500963813-.112111463762631-1.592478803968334-.308630628372157-2.324996732961154-.680247156785299-.320267336110192-.317313771153749-.427207242910299-.742491847298879-.549295443266601-1.14938346712006-.317127764201359-1.057035242160055-.4903763316197-2.146575199435574-.556868180901802-3.243318698728217-.09271882972098-1.528940519642674-.517341703294733-2.937643044457218-1.332235348081667-4.231460910932583-.137600052958078-.273170939154625-.295149351677537-.535074366189292-.457499602593089-.793838221313308-.464518546801628-.740090666626202-.612463122832196-1.549257551877417-.525654241311713-2.407369630468565.031029341778776-.306046259035611.11673063643866-.598979027849055.29016239252087-.859591679358346.421483301661283-.725128380025126.913891618331036-1.376008984459986,1.725831698162438-1.711052600221592.140001233630755-.05781152479085.258761036835494-.166969423597038.387497576632086-.252298704348505.614493698742081-.238446822890182,1.246534053421783-.293118775767653,1.894275085947811-.177681733141071.110820688236345.019761829661547.224039738857755.032692131211661.320639350016791.098259582304308.215728609984581.423332098047467.559452550241986.734363907091392.917400385862493,1.032654239824296"/>
    <path class="cls-12" d="M23.730435064300764,14.489833940687276c-.349636706747333-.001107586859689-.70518054340755.046360824004296-1.021572734656729-.171585777985456-.102692748030677-.07073900805517-.216280994271074-.010712309544942-.326546479933313.022349017287524-.552804210798058.165306634162334-1.074765086768821.129288924083994-1.536882452897771-.256731870073054-.127998148560437-.106939906798289-.269106969051791-.156626309668354-.44050955836974-.12965811970389-.929589477886111.146280377454787-1.622211733649237-.274464532967613-1.920685255048738-1.160097185808809-.039526477608888-.117838223300168-.08607049028069-.233458454594256-.129291742370697-.35000590236632.024381002336668-.118576614538142-.030474139210128-.253406291208194.044328838950605-.358131024288014.270769758479219-.378634063475147.3346744201408-.809352892202696.349081504173228-1.258725963733923.004802361341717-.148867565078945.069262225577404-.282775661840788.21702220379666-.354991452376453.290345581188376-.214065820551696.490007135998894-.535998764381475.83927182883599-.682465148789561.925897521690786-.388421974827907,1.942112692431692.065015066806154,2.232830287526667,1.031729841629385.092535641053473.307711866754289.227548506391031.483544803510085.555205391468917.540615118772621.324886508791678.056703937931161.52436205664344.303275882742128.657528943880607.591223101547257.075174992067332.162536257873398.159765881579006.306415454652779.34668032350055.341694773492236.986848618393196.186545246301648,1.158803591997639,1.375822977505777.563519338631522,1.935647541653452-.032322935590855.030290950539893-.054116750305184.072032601867249-.080712926363049.108602696230264-.082375715794115.129288924085813-.203725524910624.167707814835012-.349267511124708.150530354512739"/>
    <path class="cls-8" d="M18.965323022201119,10.472272571363646c-.125041765313654.26726099095049-.229580491441084.536181953048072-.142033218682627.841303813887862.028811349771786.100477574310389.011267512118138.208341879302679-.052270772208431.293487971389368-.190054013834015.254330689399467-.31177301857133.540984314392517-.416125737743641.837056655119341-.161242664058591-.168815401693792-.334677238430231-.152559521276999-.522516078544868-.043773636379228-.309002642279665.178789319999851-.634996737928304.241586394800834-.976319497511213.101585161169169-.117285839014585-.048020795149569-.224778130097548-.028997356727814-.327840073747211.018285047181053-.26615340409262.121902193403002-.544679088878183.143696008116422-.830780329582922.123009780263601-.440506740080309-.192085998885887-.785338267198313-.472274473102516-.893943781717098-.970223542354688-.172507357890936-.38713119930344-.085329280749647-.72051202563307.209818661778627-1.010674418156668.309371837900471-.229397302776306.623729225810166-.436631595218387,1.038564188029341-.411512201641017.15588510013913.009421534021385.254330689398557-.112666666335826.358872233813599-.223484536286378.496286279822016-.525838839121207,1.287351306555138-.514388138335562,1.712346194033671.061503480987994.228103708961498.309002642277846.506260198124437.377709665282055.842228212082773.383436424819593"/>
    <path class="cls-9" d="M24.493520135974904,10.471534180122944c-.074619789493227.390639966833987-.302351484548126.62446761704723-.654575378921436.672122034863605-.278156489162939.037491674268495-.639613092316722-.154041940330899-.746739006070129-.432381618160434-.116913825104348-.303645078362933-.084035686937568-.603042997953708.149977970228065-.850725347910156.240475989656261-.254330689401286.574414836846699-.273540134774521.967453166063933-.068523834337611.024011806715862.129844126658099-.09567239468015.13630927743452-.163088642158982.181373689339125-.147021586977644.097890386683503-.189687636500821.231798483446255-.118024230250739.382512026625591.080346549029855.169739799886884.22570252829064.161983873584177.37826486785525.09512282868036.057994713455628-.025488589198176.111559079476137-.08625649723399.184885275157285-.037863688176913.006831528107796.004430347436937.011264693832345.016991453369883.011264693832345.025857784816253-.000183188665687.010895498213358-.006093136869822.021607807761029-.009418715735592.032506124260181"/>
    <path class="cls-8" d="M14.340877329506839,10.81132660977255c-.145541986217722.357023437428325-.439399153223349.361087407532978-.753573352465537.31620618429497-.065936646713453-.102140363742365-.15791708519464-.196335975943839-.192455194504873-.308078244086573-.066122653666753-.213327429310993-.0478376064857-.430349633109472.142216407346496-.582356770099068.184146883919311-.147207593934581.397105117610408-.161797866631787.595470260317597-.033802536358962.221272180857341.142774428209123.304017092270442.348898315506631.208341879306317.608031366249634"/>
    <path class="cls-1" d="M24.493520135974904,10.471534180122944c-.226071723911446.08828566399734-.466550531849862.252298704347595-.656976559594113-.040817253133355-.143326812494706-.22016177570913.000555202575924-.4502974697225.373093310894546-.638691512411242.238446822890182.166414221022023.377526476615458.374386904704807.283883248699567.679508765544597"/>
    <path class="cls-9" d="M21.794694519170662,15.673424368374981c-.002770376289845.291269979382378-.275386112873093.560193759767571-.570906069313423.563147324724923-.280926865456422.002770376292574-.550589037080499-.281851263648605-.551327428320292-.581801567526782-.000738391237974-.291269979382378.277234909257459-.56148735358056.568504888644384-.552990217751358.306232265986182.009049520114786.556684992234295.267630186570386.553728608989331.571644460553216"/>
    <path class="cls-4" d="M21.028562879058882,11.35539413033257c-.31288060542829.003877963150444-.546711073926417-.210187857400342-.552065819556447-.505152611267476-.004802361345355-.280005285550942.22145536951939-.507553791940154.515309718241042-.517896905867019.319714951825517-.011081505165748.564257729871315.220900166946194.565551323685213.536920344286955.000921579901842.273170939155534-.226626926483732.482434398362784-.528795222369808.486129172847541"/>
    <path class="cls-10" d="M32.808033773571879,14.580337596690697c-.21702220379666-.238816018510079-.418343729750632-.49166992542996-.778506739090517-.53082438913043-.469690103760513-.051163185350561-.781093926714675.194301172602536-1.041334564315548.532856374182302-.285176842513465.370875318885737-.556684992234295.752096569985952-.873626749482355,1.182443384808721-.159951888530486-.536365141715578-.283144857461593-1.001622079756089-.437000790838283-1.456538722156438-.381773635386708-1.128140627547509-.905211293835237-2.183513080276498-1.569019381537146-3.178672827542869-.545969864400831-.818402412317482-1.166559518300346-1.567728606012679-1.883379587736272-2.23024309990069-.763730459437284-.705921752935865-1.575484532311748-1.347383641637862-2.497870468183464-1.859184592347447-.655499777114528-.363857783825551-1.314136307850276-.707212528461241-2.012854518770837-.967269977398246-.877507530920411-.326732486886613-1.776806058267539-.572752047411996-2.709354737686226-.707395717126929-1.082890208692334-.156443121001757-2.166518808620822-.204463916151326-3.251260631983314-.090320467336824-.587711515729097.061875494893684-1.176719443557886.132800509903973-1.753718649741131.292749580149575-.478184421304832.132614502949764-.961543217859798.239554409748052-1.432896111056834.40338426143262-.918879986627871.319342937918009-1.789920957629874.738055863285808-2.605552993654783,1.257801565539921-.994236758215266.633517137161107-1.916439505423114,1.363264689860443-2.716742877510114,2.23892342439558-1.134422589659152,1.241362496456532-2.054224156192504,2.623098240453146-2.647107228884124,4.197661192861233-.543940477460637,1.444532818796688-.840198814130417,2.602226005646116-.930330459150355,4.49447192482603-.016994271485601.631115956490248.045436423230058,1.309886330795962.07664895367634,1.538174637566954.115253848454813.270215965054376.326180097097676.425916467385832.627237987833723.517527710248942.572013612138107.174171556467627,1.277380162498957-.267814784381699,1.24339725576101-.861806853077724-.057073133551967-.991649570591107.030290950542621-1.969262661914399.18857723135261-2.944474572566833.116730636440479-.719221250106784.350189091032007-1.403532376996736.615048901312548-2.079529556723173.37604669970824-.959328044142239.894312801194246-1.841821125071874,1.501419769250788-2.666133485593491.407262224583974-.552990217750448.895606571149983-1.043735744988226,1.390600666301907-1.523954969632541.567026697017354-.550033834505484,1.222525064989895-.987401002677871,1.879314208485084-1.40943950691144.483727992173954-.310848620377328,1.02268032151369-.544493081923065,1.56754259905756-.758558902474761,1.088064583942469-.427765263770198,2.210850465860858-.673046433055788,3.369837246522366-.777215963563322,1.37379662902822-.123564982835887,2.713787903410775.025674596150566,4.044546469011038.399503479995474.75339016379985.211664639878109,1.472605777333229.503306633168904,2.153038941070918.857007310019981,1.111335181132745.57755159046792,2.096893023996017,1.344238433151077,2.974766932251441,2.252220103279797.785341085484106.812678471067557,1.414241868254976,1.733587624460597,1.932324781075295,2.722468227904756.357575821715727.682648337455248.628531587150064,1.415718650733652.834286278826767,2.165414040047835.006279143823122.023273415478798-.012375098976918.053378359065391-.031398537399582.125596967887759-.318052162392632-.240664814895354-.618560487131617-.468951712525268-.92017358043995-.695947834628896-.68468032250712-.514940522622965-1.436221689918966-.130027315323787-1.605958671520057.525838839123026-.124858576647966.482617587027562.120791788256611.799192966941519.455838222305829,1.058142829019744,1.176902632223573.910013655178773,2.3674739572416,1.802294647462986,3.548257370905048,2.707321343489639.175832936753068.134829676667323.280740858501304.092903427531382.398209886179757-.07037122157999.43736998645727-.606736363293749.872705169578694-1.215135516020382,1.326325399875714-1.809315000813513.482803593986318-.632592738965286.941229003914486-1.284211734642668,1.462265481695795-1.887254732595466.110448674327927-.127998148559527.125041765311835-.298476339687113.178420124379045-.451405056583098-.023273415477888-.17121658236556-.046544012669983-.34243316473021-.06981742814969-.513649747095769"/>
    <path class="cls-10" d="M17.992512292221363,30.391368292918742c-.049500395916766-.431457219968252-.04913120029596-.422960084140868-.54689426259938-.406523833344181-.352776278656165.011822714692244-.706843332838616.006648339442108-1.059064408920676-.011264693832345-.176574146284111-.009052338402398-.242327604330058.051529562681026-.252115515682817.220716978280507-.028997356728723.495364699914717-.061689487940384.990726581542731-.102509559364989,1.485350071929133-.012005903356112.144620406310423.030846153116727.21129544426185.177867740098009.227365317724434.571641642265604.062797074800073,1.142547711577208.02068622785373,1.71363978784575-.003508767530548.132611684663061-.005726759536628.168629394740492-.084960085133389.157547889573834-.215728609984581-.034724116265352-.417050135936734-.05799753174324-.835210677020768-.08847167094973-1.296403644955717"/>
    <path class="cls-10" d="M9.736196284758989,27.424971673571235c-.037123887794223.031212530447192-.091242047245032.059288307269526-.12042400178143.103800334888547-.267259581809412.406893028962259-.632780155066939.730855139558116-.932731868084375,1.110410782939653-.133537491999959.168815401693792-.12226997988364.291825181955573.061504890130891.422962902426661.411879988116198.293857167008355.813786057926336.600458628615343,1.245981669133471.866240018800454.168446206072986.10361714622195.26282782522685.091797249816409.36237959220125-.079052955216866.248789936817047-.427579256816898.508107585372272-.848879369811584.764101064200077-1.27202264261814.043035245142164-.071294210629276.070555819391302-.138155255533093-.013668692792635-.199658736520178-.42296008413723-.309924222186055-.845552381801099-.620403646942577-1.269621461942734-.928851086648137-.021055423474536-.015331482223701-.054301348116496-.013851881458322-.097521191064516-.023825799764381"/>
    <path class="cls-10" d="M7.090712741573952,27.395252835326573c.049868182388309-.031029341780595.113405057572891-.05891911164872.162534848725045-.102692748028858.36256559915455-.323592914975961.721436423826162-.651618995675562,1.083816016025594-.975764294937107.121716186449703-.108788703184473.128919728467736-.199658736521087.018469644994184-.334860427095919-.272431138771935-.333197637663943-.531748787328979-.677661378303128-.784418096438458-1.026558284666862-.108233500610368-.149421358508334-.213142831500591-.169184597313688-.361825798770951-.07092501500847-.398395893134875.263197020848565-.799377564751921.522514669401062-1.199436247319682.78331050957604-.13242990514118.086438276755871-.175095954660719.184328663440283-.080714335506855.335597409191905.294964753868044.473198871295608.669719445048031.884341877315819,1.011598816348851,1.32096783596171.034353511504378.043959643330709.070369812436184.095489206011734.149975151942272.07092501500756"/>
    <path class="cls-10" d="M4.731787970400546,24.04161228519024c.056702528785536-.015330073079895.125595558742134-.023825799764381.185253061632466-.051715569634325.440323639484632-.205754691676702.878060003276914-.416866947271046,1.318383554695174-.623175432376229.147759978219256-.069262225577404.180821305049903-.15422371985369.113960260145177-.315281786101878-.165122036351022-.397657501895992-.314727992672488-.802149350187392-.456392015736128-1.208671774388677-.060766498889279-.17435615427712-.155701911471624-.223485945429275-.326178693454494-.172139571413027-.457316413931039.137784650768481-.915925012528533.270952947146725-1.373978408550101.405784032960582-.151822539182831.044696625427605-.220715569141248.126149352172433-.173802360850459.298288923587279.146650982218489.538029340291359.387498985781349,1.039487177074989.589560312117101,1.555907300463332.020317032232924.052084765254222.039895673227875.111742268141825.123194378073094.111003876902942"/>
    <path class="cls-10" d="M25.615863546809123,26.107397055367983c.027889769869944.04137245570746.043587629425019.079052955216866.071108203674157.103431139267741.398767907045112.354067054182451.782018324907767.725683582596503,1.207379589721313,1.050200895765556.132059300374749.100843951641764.201321525950334.076651774545098.300691513402853-.038046876843509.357575821712089-.412986165832081.670828441050617-.85792888992637.982967836953321-1.30490078078401.09290483667246-.13316970552296.076651774543279-.216836196842451-.06205868356119-.30032090864006-.41723332460424-.250821921868919-.828928714910944-.510877961661208-1.24579566218199-.762069079150024-.122823773308482-.074249184729524-.258025463885133-.104355537460833-.351851880464892.04525182800171-.243435191188837.387868181398517-.54301629944348.732885715468001-.82191117984803,1.093603927380173-.027889769869944.036200898744937-.053195170399704.074433782539927-.080529737695542.112849855002423"/>
    <path class="cls-10" d="M20.295453109762093,31.521414082596493c.535626750473966-.106387522513614,1.034317029254453-.304569476554207,1.541870821194607-.475047667681793.171582959699663-.057625517836641.228100890675705-.165489822828931.160132258912199-.331351659564461-.184144065631699-.449742267150214-.370692130221869-.898560136107335-.5579757677624-1.347011627731263-.068523834335792-.164199047303555-.202429112810933-.154039122042377-.338369194625557-.113035861955723-.420930917376609.127073750367344-.839643842744408.261165035795784-1.261496340026497.384913207298268-.104538726125611.03047413920649-.17786492180494.053195170399704-.145358797546578.188946426973416.126335359127552.529533613606873.248237552530554,1.060358002738212.367735746975086,1.591368398823761.03491012322047.154594324616482.134646488002545.133352894188647.23346127287914.101215965550182"/>
    <path class="cls-10" d="M28.149438895195999,21.528611842313694c-.120239403971937-.010343113926865-.141850030018759.086993479329067-.163274649110463.16567582978314-.120608599590923.442169529514103-.234196845833139.886555641891391-.44032355141826,1.299358619057784-.070000616813559.139818044964159-.007386730680082.220346373516804.113405057576529.272801743534728.465073749373914.202613710620426.933101063706999.398580490945278,1.396698030599509.604519780432383.14923676070066.066122653664934.2233013476216.02936655234771.282403647934188-.120793197401326.206865096824913-.52546964350222.390639966835806-1.058327426830147.543016299448936-1.602082117512509.023087408520951-.081820513222738.032692131209842-.146095779645293-.076465767595437-.175648338947212-.533225569803108-.143696008115512-1.065343552747436-.292009779765976-1.598016738265869-.438106968553257-.018285047181053-.004986959153939-.038049695127484-.003877963151353-.057442329169135-.005725350393732"/>
    <path class="cls-10" d="M24.299365514307283,27.39020810128568c-.02068622785373.010529120880165-.057811524793578.023273415479707-.087916468379262.045622432765413-.358131024289833.266891795332413-.688744292612682.569795664167941-1.079567448112357.794762619505491-.13298369856966.076465767591799-.214065820551696.189687636501731-.095858401631631.374753282037091.266519781420357.416864128983434.50921658137122.848879369812494.756157721800264,1.277749402154768.055965546693187.096965988492229.127073750367344.11340505757471.212219842451304.066861044903817.528240019795703-.289240812617209.985002640294624-.680616352402467,1.466695829130913-1.036163007353025.083116925321519-.061320292321398.083116925321519-.144248392402005.015331482223701-.224411752766173-.349819895411201-.414279759645069-.699270595205235-.828931533197647-1.050200895764647-1.242286894648714-.029921754919997-.035276500550935-.065753458044128-.071108203675976-.136861661718285-.056887126598667"/>
    <path class="cls-10" d="M14.418490139976711,29.901733170828265c-.009604722687072-.164568242924361-.06224469051449-.222376949426689-.173431756085847-.250821921868919-.443093927706286-.113035861956632-.891545419328395-.210187857401252-1.304531585163204-.420192526135907-.152376332607673-.077756543117175-.229580491441084.020500220898612-.281665256694396.149422767651231-.181376507627647.450480658390006-.360904218865471.901702526305598-.544865095833302,1.351075597835916-.056517930976042.137786059914106-.043218433802394.21258903807302.113774253199153.286284429373154.478742442161092.224964137051757.986479422766934.35536064799544,1.489786055939476.502382234976722.106756718130782.031029341780595.22459494143186.081451317601932.289424001282896-.076465767591799.211295444260031-.513649747097588.255993478833261-1.069776718471985.411509383355224-1.541684814240398"/>
    <path class="cls-3" d="M6.380580291455772,5.862975172224651l.810091107299741-.592885890979232c.193564190507459-.141847211730237.391561546741286-.230135694016099.594176666505518-.264859810279631.202801126719351-.035090493598545.394333332174938-.015511852603595.574970039418986.058366727363136.18045070028893.073878579965822.335968013952879.199844743474387.466364524898381.378078860901041.130582517896983.178420124380864.203908713579949.364965370684331.219607982277012.559455368527779.015883866510194.194301172604355-.023456604145395.382881222245487-.118022821108752.565362498443392-.094566216963358.182484094485517-.238631420699676.344648338450497-.432195611207135.486498368466528l-.809906685633905.592885890980142-1.305085202449845-1.782902013423154ZM8.227388551826152,6.729029184072715c.178234117425745-.130396510945502.28406784650906-.284066437367073.317682966771827-.461192967935858.033061326830648-.176943341903097-.012190501169243-.350561104940425-.136492466101117-.5201148978731-.124303374073861-.169736981597453-.275941315447199-.265598201519424-.454730635448868-.287206009278634-.178787910854226-.021610626046822-.357392633044583.032875319879167-.535626750472147.163274649109553l-.37697127404499.27575530849299.809166885252125,1.105608421597935.376971274043171-.276124504112886Z"/>
    <path class="cls-3" d="M10.804386307549066,5.139213661480426l-.917770990623467.458422591645103.036200898744937.510879370805014-.468767114714865.234013657164724-.105647722130016-2.416791164489041.451958850013398-.22551652133734,1.870818481798779,1.535774866038082-.480216406356703.239737598415559-.386575996732063-.336520398242101ZM10.487072536398045,4.864010737273929l-.691328661952866-.600458628615343.064090668614881.913339234045452.627237993337985-.312880605430109Z"/>
    <rect class="cls-3" x="11.461417933176978" y="2.991649016561661" width=".511319028655713" height="2.209726695678579" transform="translate(-.694972452562013 4.207574242499706) rotate(-19.78325785846889)"/>
    <polygon class="cls-3" points="12.234142846695249 2.750236173107623 12.730245937851578 2.626118805985243 13.165950316588351 4.365247183028259 14.240715403357171 4.095954207024988 14.341931368908263 4.500262866650701 12.771063190983114 4.893487202823053 12.234142846695249 2.750236173107623"/>
    <polygon class="cls-3" points="15.292855280698859 3.599059177176059 15.390931674335661 4.375719938165275 14.883561071063014 4.439810606778337 14.7847462861846 3.656684695011791 13.758004812851141 2.354740297473654 14.296587946575528 2.286771665708329 15.005277257512716 3.186811402581952 15.467766637546447 2.138825680533955 15.965898895468854 2.075845417068194 15.292855280698859 3.599059177176059"/>
    <path class="cls-3" d="M17.722999489818903,4.181841508638172c-.165120627212673-.111003876903851-.290162392526327-.255624283211546-.375677680231092-.433858400640929-.085515287706585-.178050928760968-.119315005778844-.372907303937609-.101585161170078-.584757950770836.017729844608766-.212033835499824.083483302652894-.398581900089084.19725755584841-.560007752814272.113777071484947-.161611859677578.261165035793965-.283328046127281.442172347800806-.365334566303318.181187682386735-.082192527127518.379741650334836-.114329455765983.595653448985104-.09604440858493.159396685960019.01311349021762.304014273981011.050977178393623.434044407595138.113588246241306.12984412665719.062613886133477.23770843165039.148315180793361.323776103641649.256917877024534l-.109341087472785.095489206013553c-.161611859677578-.188946426974326-.379741650331198-.294778746913835-.654572560633824-.317682966772736-.184516079536479-.015328663937908-.355732661902948.012561105931127-.513649747095769.083855316560403-.158103092146121.071294210628366-.286284429372245.177309719235382-.384544011676553.317866155439333-.098445589259427.14074244315907-.155146708901157.302168295883348-.170292184173377.484652390367955-.015331482221882.182298087532217.013851881460141.351110670938397.087547272758457.506260198128984.073509384348654.154960701946038.182481276198814.280740858501304.326546479933313.377340469661249.143882015068812.096413604204827.308081062374185.152376332608583.492594323623052.167704996545581.272615736583248.022718212906511.505521806888282-.046544012668164.698532203967261-.207786676727665l.091980438483006.11229747071593c-.102875936696364.092718829721889-.224039738861393.159765881579915-.363671776871342.200955148619869-.139634856299381.041003260088473-.288130407472636.055038330211573-.445311919713276.041741651328266-.216097805603567-.017915851563885-.406521015058388-.082375715795934-.571458453598098-.193196404032278"/>
    <path class="cls-3" d="M20.946037794044969,4.215734230186172l-1.24708925599225-.295150760820434-.41668375860354.540615118772621-.168812583409817-.040078861895381,1.497911177864808-1.916071718945204.156623491380742.03712529693712.480402413310003,2.38409903327647-.168998590361298-.039895673226965-.133352894188647-.670642434098227ZM20.918886415414818,4.070006237018788l-.27150814972083-1.374715390647907-.855710897920289,1.107823595315494,1.12721904764112.266891795332413Z"/>
    <path class="cls-3" d="M22.966741242596981,5.625416109795879l-.210926248642863-.88286227655135c-.076096571970993-.019578640994951-.144437217642917-.04155846266076-.204833111769403-.066122653664934l-.584941139439252-.236970040409687-.271694156675949.669904042856615-.149236760698841-.060581901081605.830408315678142-2.047759005416083.734177900134455.297735130159708c.257656268267965.104352719173221.434599610169244.24731033604985.531382409993967.428317648055781.096965988492229.181373689340035.101399154216779.380110845954732.013665874503204.596761035843883-.065753458045947.161797866631787-.16235025091737.280929683743125-.289976385571208.357395451334924-.127442945984512.076648956258396-.277418097923146.106015508606106-.449559078479069.088468852664846l.221086173898584.924234732256082-.169553792931765-.06852101604818ZM22.604360241250106,4.54492426348952c.218315797608739.08847167094973.404675036957997.10805031194468.558900165953673.057994713455628.154222310711702-.049866773247231.267444179618906-.16345783777524.339293592820468-.340770375298234.072032601867249-.177495726187772.070000616815378-.33781399205418-.005912766489928-.481140804548886-.075910565019512-.143326812496525-.223115340664663-.259133050744822-.441431138273401-.347787910362058l-.585127146392551-.237153229077194-.450666665343306,1.111704376753551.584943957725045.237153229077194Z"/>
    <polygon class="cls-3" points="24.936188502319055 6.572662156824663 24.86249311102074 6.697703922138317 23.549281201361737 5.922705950581076 24.672253090233426 4.0199337288077 25.944461739802136 4.770736704980663 25.870952355457121 4.895778470294317 24.73726815703958 4.226796007343182 24.294357417998981 4.977046599230562 25.30835741502051 5.575470424505511 25.236138806198142 5.697741813529319 24.222324816129913 5.099315169964939 23.761870239433847 5.879670705440731 24.936188502319055 6.572662156824663"/>
  </g>
</svg>