<?xml version="1.0" encoding="UTF-8"?>
<svg id="Capa_1" data-name="Capa 1" xmlns="http://www.w3.org/2000/svg" viewBox="0 0 34.015748031495605 34.015748031495605">
  <defs>
    <style>
      .cls-1 {
        fill: #d1dbf1;
      }

      .cls-2 {
        fill: #1d3a69;
      }

      .cls-3 {
        fill: #ebf0f9;
      }

      .cls-4 {
        fill: #ec7089;
      }

      .cls-5 {
        fill: #b21d1a;
      }

      .cls-6 {
        fill: #e7295c;
      }

      .cls-7 {
        fill: #f29bb1;
      }

      .cls-8 {
        fill: #e6edf9;
      }

      .cls-9 {
        fill: #fff;
      }

      .cls-10 {
        fill: #b5b2b2;
      }

      .cls-11 {
        fill: #dee5f5;
      }

      .cls-12 {
        fill: #e8475e;
      }

      .cls-13 {
        fill: #ececec;
      }
    </style>
  </defs>
  <path class="cls-9" d="M0,17.007874015747802C0,7.614956225133938,7.614956225133938,0,17.007874015747802,0c9.392917790612046,0,17.007874015747802,7.614956225133938,17.007874015747802,17.007874015747802,0,9.392916740707733-7.614956225135757,17.007874015747802-17.007874015747802,17.007874015747802C7.614956225133938,34.015748031495605,0,26.400790756455535,0,17.007874015747802"/>
  <g>
    <g>
      <g>
        <circle class="cls-13" cx="16.976660995356269" cy="18.553398131107315" r="7.570785637833296"/>
        <path class="cls-5" d="M9.405875357524565,18.590509825410663c0-.111335082911864,3.228717404368581-1.002015746185862,7.422338860620584-.964904051882513s7.719232415045553.853568968970649,7.719232415045553.964904051882513c0,4.181229451781292-3.389556186053596,7.570785637832159-7.570785637835797,7.570785637832159-4.181229451780382,0-7.57078563783034-3.389556186050868-7.57078563783034-7.570785637832159Z"/>
        <g>
          <path class="cls-1" d="M11.106867577833327,14.668628525741042c-.020641777276978-.181694701724155-.054633471536363-.363055723634716-.059181860769968-.545152300838708-.00986198987448-.394812781719338.052369084398379-.78150913843001.199505895252514-1.148884225207439.413242898022872-1.031795454600797,1.179340627482816-1.653082033252758,2.249757573645184-1.915525595902182.099167292903076-.02431366617202.208381093127173-.008712367346561.297295693582782-.074002535942782h.059790038478241c.069754892838318.0246031663346.139510241840981.024603184152511.209265134681118,0h.418530269362236c.059976152491799.032508322331523.12471098480637.007488722649214.186757655674228.015418710763697.354145769306342.000390667526517.691130275816249.089404247682978,1.014423542281293.221367913497488.390334452802563.159328660522988.789165831312857.273095344114154,1.210496934079856.302914698674613.127091693200782.065251281099336.13357375227497.076776463204624.045272689430931.19410226508171-.233740951822256.310571230565984-.447895228599009.63318247492407-.630326645830792.976822161733253-.377315595238542.710734692375809-.623303578871855,1.463876713284662-.709348921651326,2.264096097574111-.178095143230166,1.656279389481824.365458125603254,3.09265762472387,1.356909360009013,4.389172700938616.043669736891388.057106460232717.092810678323076.100739828294536.165307103536179.119138518020918.03575304898186.009072989008928.099170486038929.005197467912694.075243887691613.077820609601986-.051686780396267.035832148450936-.111107327826176.029656677095772-.169042612458725.031869957272647-.312299767259901-.019914047672501-.551788357674013.121779674704158-.733676942372767.357448397468943-.260025906638475.336909412895693-.389564451694241.723160559085954-.396065213401016,1.151569857323921-.011564157606699.762174867984868.054875807487406,1.519915877085623.113023663514468,2.27861025707989.030397253376577.396616887880555.084928202548326.791378123712093.096255612183086,1.189297799757696.010366276737841.364156661738889-.160048926554737.618213126434966-.490711942940834.763304315988535-.297327168746051.130463104504997-.630130952424224.059289633959452-.876631661913052-.191769870566532-.252715457749218-.257388245072434-.453883264450269-.554819892216074-.629909257790132-.867961631945036-.374712279888627-.666596927250794-.601222611139747-1.385101022194249-.745429038635848-2.133693320006387-.173495435794393-.900631690911723-.267719759514875-1.811158368129327-.357482364739553-2.722405775494735-.072102757589164-.731964414684626-.272126510515591-1.425705499001197-.604923223685546-2.081527510548767-.153162480050014-.301827644886544-.295988790045158-.609065327463213-.473641912498351-.897793017680669-.148258512699613-.281581513956553-.315867864805114-.552278178050074-.478942740610364-.825325882134166-.146957197144729-.246060921639582-.240712016338875-.512050031858962-.329153691054671-.781589422293109-.016089282584289-.049034282584216-.010472790514541-.09811805834488-.013367023049796-.147323172217511Z"/>
          <path class="cls-8" d="M17.202922998027134,19.529297871462404c-.24497758526195-.007147088578677-.326949403231993-.215424416470341-.439983558469976-.372356563725589-.485625282790352-.67422389438434-.861066965386271-1.404390589123977-1.065077572380687-2.214015958003984-.158462395836978-.628868072501064-.208522503282438-1.265541470039352-.144775261249379-1.914561704859807.077634175482672-.790406962644738.308802830961213-1.532048548034254.659798346929165-2.238720124205429.198969106859295-.400592193610464.440764507457061-.776805233820596.721137510858171-1.125393440136577.063644605626905-.079129612928227.002177716396545-.080747093313221-.031560009785608-.110202205451969.061716865893686-.059875683363316.140420284618813-.043496862681422.212831407578051-.042062871980306.302727668205989.005995345836709.598522133326696-.041083443044954.879692051375969-.146432180975353.489692421335349-.183477553755438.976822125718172-.369493867341589,1.509207641547619-.38048895427346h.687585442523414c.217272598787531.062019848422096.444994039600715.076805956688986.660250403267128.149097756380797.398802184152373.133934255508393.762403275100951.326062181841735,1.090309705774416.594707387925155.317538785451688.260149941588679.550190422914966.580985589684133.747377305653572.933637824525249.015062462391143.026937175222884.029346712764891.052003417093147.063188443833496.056765025729874.007764786034386.007057567508127.017493804747573.016669051414283.014992213476944.023968040713044-.06637336546919.193599977746999-.143653559403901.384042199520081-.166974374889833.590006576641827-.263258269102153-.006379602201378-.520002547804324-.06137883907104-.778242124864846-.104792110740163-.02442837631861-.004106793366191-.043921994360062-.022280140882685-.054571547570959-.046622345459582.109328296832246-.246667384128159.033621861086431-.49836665069779.014786028345043-.747341169577339-.007814051507012-.103278691470223-.010112194619069-.208296144423002-.031196904994431-.310445730010542-.0290803142816-.140886550223513-.102773251877807-.204857166836518-.219292483208847-.195154679345251-.115125200896728.009586395197402-.169942163513042.083338870854277-.166106755161309.236259675870315.006716526235323.267855253913694.054162826607353.532307680788108.071074568908443.79941688776853.004858123091253.07673107545088.062441250818665.134330870911981.079613005338615.207089035465287-.015256787315593.065431577674644-.069015454573673.087164556652169-.123405449752681.088755408798534-.204968090596594.005995744974825-.40223252083706.061890420627606-.603994706356389.086460932444425-.068024671158128-.006419516053938-.099955084317116-.059024377896094-.135193582797001-.107167327118077-.150030701266587-.204974969727118-.295664915172893-.413102335573058-.443858196736983-.619391839540185-.095419923778536-.132826802888303-.213666183655732-.165668263344742-.316188546541525-.090990242455518-.097352225131544.070912205866989-.107515509871519.188402053679056-.019064825963142.318265994228568.106515603221851.156387608258228.219785137942381.308109743247769.331873213623112.460624909475882.042121067603148.057316064985571.104819593672801.112270826419262.075119811681361.199100790945522-.299530430200321.146688884074138-.591007780118161.306701468469328-.850946103693786.518266329382641-.728509541586391.592936253460721-1.176841773185515,1.347190388356466-1.328949835256935,2.278621889117858-.121105481992345.74158844295107-.0192938191758,1.453035768661721.310731939185644,2.119839791791492.486476480697092.982908054998006,1.265815218510397,1.631897271051457,2.326765438987422,1.932861408236022.065891658621695.018692455688324.139019867916431.023044206071972.187323752457814.082841088085843.055687319319986.139346331655361.004581689045153.277606094186922-.013971323383885.412746646119558-.088077543561667.641536501402697-.182527667369868,1.282264690256852-.348312372301734,1.909922118576105-.215184290105753.814675953811275-.563342479721541,1.563083963659665-1.096124856308961,2.220926300410611-.193458216243016.238867304916312-.420667843523916.406159719961579-.748348930272186.393566101028227-.402227959217271-.015460117821931-.740041311702953-.344246263335663-.751376019925374-.746042372798911-.00901558167061-.319533430119918.048432522167786-.634796306044336.070284496681779-.952441240717235.034473971312764-.501131882443588.080159487166384-1.001368782258396.111360041457374-1.502901171706981.022297188421362-.358435524078232.024869940931239-.716249760518622.026172739013418-1.07462689633121.001359362140647-.374004207578764-.105182698465796-.71550439782186-.300479246732721-1.033311724857413-.132942880512928-.216336733114986-.311202698152556-.373072732289984-.549723313240975-.461368561584095-.045930930898976-.01700284526305-.096685316590083-.028560072491018-.123757606657819-.076916503806387Z"/>
          <path class="cls-9" d="M19.504193554430458,10.985063939121574c-.177510799976517.034206906241707-.355866411591705.064586537262585-.532338987326511.103502508403835-.276363797400336.060943849345676-.541455836910245.156887244169411-.803488855437536.263534208682358-.405577099103539.165068871311632-.829828549667582.222919154708507-1.265893678339125.201936100010244-.408964100408411.000570825121031-.789855091781646-.116755832052149-1.164606601585547-.268207750253168-.345522942941898-.139639356357293-.704098955578957-.233976019022521-1.076165497070178-.27163865240982-.010088930368511-.00630144232673-.013515617753001-.012711913615021-.010313361970475-.019247728661867.003224151550967-.006580408084119.006483883720648-.009878757043225.009813864808166-.009878757043225,1.614331038974342,0,3.228662077946865,0,4.842993116921207.000000071271643Z"/>
          <path class="cls-11" d="M14.063300052703198,10.985063867849931c-.069754892840137.046703705569598-.1395102418428.047496914998192-.209265134681118,0h.209265134681118Z"/>
          <path class="cls-3" d="M14.661200437509251,10.985063867849931c-.000069336594606.009718328300551.000093513164757.019432772132859.000494023221108.029134906813852-.060234340066017-.00796774590799-.126993162251892.024330968111826-.179864138664925-.029134906813852h.179370115443817Z"/>
          <path class="cls-1" d="M21.002478858010363,19.633974346068499c-.028854970352768.266246839670202-.057710853030585.53249276702627-.086557612468823.798739606698291-.5365968014994-.101979666611442-1.020770577464646-.326845648013659-1.449891099005981-.658228246692488-.473408357664084-.36558261265418-.852825490283067-.815753399762798-1.104756349746822-1.363128332019187-.17920589719688-.389363058256095-.283643227290668-.796870269899046-.327199379895319-1.227044900839246-.06583691920423-.650219018889402.056986468101968-1.26344222944681.317625456193127-1.849579215051563.248045273316166-.55781708046743.628880156788-1.019860072124175,1.118668372095271-1.386891899766852.25005512217831-.187382995986809.505983783596093-.367568725982892.813739723243998-.452815593053856.038828491786262-.013031302842137.064103504388186.012922737159897.092028817009123.031738811752803.172618008587961.116312161067071.283364968596288.075366249754552.34475704729266-.127896757791859.008386990721192-.027770918593887.009587608559741-.058141255389273.032675781529178-.079764300208808.213887878286187-.039071100611181.423740549358627-.103156098922227.645197064110107-.095726648343771.035607077206805.001194678642605.072268800477104-.029056600826152.108443342953251-.044771711150133.088940601677677-.039480046542849.178656678397601-.031851939017542.268698454643527-.004421770687259.281672608343797.046925918822126.563346129012643.093851837643342.845018737358259.140777756467287.103799615910248.035901028355511.213483718940552.041990057707153.320183611525863.063197998456417.083733970976027.3137926776526.111901049343942.631141793655843.061036272498313.953549933520662-.057224584557844.025585920237063-.107672429527156-.003353447898007-.156193447081023-.024385083457673-.866488448295058-.375582971529184-1.715382736243555-.341312937249313-2.546911857072701.106530986261532-.093701106143271.048540491201493-.18598446143551.099607415262653-.267034376423908.168433038928924-.010683309181331.008623216905107-.022094652584201.016301729927363-.033633721290244.023676441505813-.079798207025306.061226026034092-.160318062011356.121595614820762-.234481758576294.189795845429217-.053400124090331.050167836009678-.104953705245862.102200447238829-.155539311073881.155216079648199-.063359960669914.060617054678005-.106463600775896.138180390987145-.16732653179497.200802261483659-.016180971104404.021350946382881-.030578349602365.043948117302534-.045767624971631.066017969201312-.088074806593795.112404252725355-.159957694198965.234620927099968-.22080420338898.363592393894578-.05934299992623.113119965135411-.113333397373935.228520265717634-.153677258635071.349993402027394-.027366970585717.093375608355018-.058693425529782.185525519304065-.078371332940151.281045984086632-.040099358540829.148145169514464-.052542539922797.30027670659274-.066554005539729.452205253223838-.02889693724137.128226104098758-.027298546317979.256502841769361-.000929657737288.384811510526561.010204339303527.047686790901935.012461427850212.096092487317037.013219568751083.144579836075536-.0055706478106.101925383767593.032787997328342.196669010931146.049259999661444.294901793093231.022597342880545.10020064915625.04307900736967.201016655891181.081492391924257.296862817718647.028989081920372.071458569496826.050902182114442.145819218230827.087347684695487.214271248233672.0311020233421.06890271442262.066429929534934.135761383406134.100273485253638.203329378578019.09154528550971.199769975202798.230327949289858.366622653627019.371071196459525.53201699390047.068590311781008.073480719331201.140775178493641.143413439244796.212409001756896.213863442693764.060625726880971.071185330662047.139559963472493.120508817622067.212465565815364.177005850336172.102869045853367.074889336232445.211229367363558.141144507760146.32099557951733.205194609960927.055131714256277.038451409530353.116119633603375.065561810875806.177780847754548.091357563943347.076148000363901.030198593181922.150891022409269.063892271422446.229276040201512.088304952456383.033367322803315.011809938937404.067347727057495.021584499443634.101147491244774.032120844346537.058085818023756.028071070772967.133014954077225.024645321779644.170817994154277.090719854612871Z"/>
          <path class="cls-7" d="M20.2489625269518,14.397597041436711c.906083291889445-.508702970178092,1.824350665259772-.508078717516582,2.753183658069247-.065875419723852.40055110846879.230809268169651.750477381199744.519138047934575,1.010955800335068.905352701460288.537458034961674.796897639394956.654107728567396,1.652851815851136.349580502088429,2.564705913781836-.0285146736569.085384626887389-.053997696040824.169647104299656-.05293757603431.260229655255898-.113150020330067.19211290162275-.209597220466094.394728848590603-.353229796426604.567722786493505-.069281853060602.083446866337908-.132332536033573.17417310716246-.235770871804561.221544236507725-.140796161933395.11594267282544-.263290200426127.254105729793991-.422347431242088.347879108207053-.30464947784094.041988461152869-.469109488927643-.077775906088391-.560532523079019-.407772695785752-.010967041818731-.04527553801563-.012305420515986-.090805612373515-.002632965868543-.13648804361128.008823081396258-.035353182215658.019311153331728-.070465968992721.019727172884814-.107517884789559.002057289684672-.037429158733175.003357350795341-.0749399698052.015116289485377-.111081393599306.005234000407654-.014713842810124.012678560860877-.028186478826683.021771690036985-.04082616974847.223829468393888-.232373891211864.451929523494982-.45640236593681.595145167577357-.757607354715219.534497544926126-1.124142425943319-.24095286976808-2.507266001817698-1.479974056901483-2.642009696010064-.369387959448432-.040171126398491-.712585845732974.023592964535055-1.045173408720075.169256176621275-.341988145213691.149780040934274-.644890523386493-.024793573236821-.680929129652213-.400335490516227.000417844203184-.126585986854479-.020017291781187-.256986597672039.068047479251618-.36717642982785Z"/>
          <path class="cls-12" d="M22.941110824847783,13.378159143838275c-.121014249638392.051287704688548-.226939579497412.026133766380553-.320189997788475-.06319959501252-.064426466942678-.116879393937779-.038553882390261-.226639981111475.019393262449739-.338228622759743.043074445753518-.082949881846616.075458283734406-.171452008740744.112598064564736-.257469897414012.064145471274969-.139404149721486.126260110251678-.279803636899487.193001142126377-.417968176382601.072100932940884-.149260020451038.197035437024169-.203658154693585.326178489804079-.147127708378321.126783783989595.055497817917058.175496389498221.192869212118239.111642861767905.3386122519114-.10927720671134.249423036547341-.22421994288743.496359211964773-.33547506713694.744925127029092-.024984893701912.055822602636908-.063727627073604.099528043711871-.107148755787421.140456621006706Z"/>
          <path class="cls-12" d="M24.684763732022475,13.405181278552845c.00343854759376.093028471874277-.034198449589894.159193095971204-.103435598792203.209177556337636-.229673813284535.165804654681779-.457235597468753.334650516891088-.689858040577747.496208565679808-.123288672335548.085625478479415-.265053721917866.05859079941456-.343142234547486-.05200182054341-.077676142367636-.110009193459518-.052626473689088-.246720526570243.071741477448086-.338698465832749.223737323713067-.165467553681083.451145837532749-.325970736354066.677125652620816-.488402328327538.083318863742534-.059888569837312.172720188827952-.077201602761306.26573066601668-.026924288753435.08051255639657.043521609270101.123901753784594.112836690816948.121838077831853.200640781439688Z"/>
          <path class="cls-12" d="M20.753569614256776,13.319103519095734c.018452656833688.129199317876555-.015716598401923.235615352242348-.139950437971493.294768366787139-.147322924865875.070146202005162-.239061622974987-.025178114698974-.329508470889778-.118839962404309-.144693608292073-.206524311463909-.2896089112146-.412885774406277-.434002365043852-.619611479769446-.108232596208836-.154954472853206-.100677644599273-.291897648430677.020045573814059-.37909322384985.121886430983068-.088035933089486.256501600630145-.053530178998699.365937551645402.098149647305036.173660794445823.240699236733235.345099168636807.483002326123824.517478148445662.72462665193143Z"/>
          <path class="cls-12" d="M21.775908475963661,13.174183388914571c-.088917793586006.041500599828396-.178488810859562.043092364290715-.268708490202698.004409454410961-.076289410517347-.059141610582628-.107019205837787-.140438830831954-.115473708501668-.233516339724702-.023413872489982-.257766970519697-.048701657626225-.515367671332569-.071168538237544-.77321526783544-.015302403493479-.175622664267394.054567898279856-.279251685331474.195793764623886-.297178308214825.151783274874106-.01926675901268.254655057693526.063401388048078.275855633166429.242727259607818.03213021202464.27178391745565.052485975857053.544949766540412.07883570564627.81743240450578.009361352309497.09679930463426-.022460494345069.175842190459662-.095134366494676.239340797250406Z"/>
          <path class="cls-4" d="M22.764105452140939,18.638710786783122l-.000407808644013.147466862086731c-.045218406175991.171889578607079-.01355165453424.309895717115069.160105490616843.396403405788078.070927684810158.035333111247382.074977489202865.098875053075972.004759592144183.137572788100442-.081943079778284.045159673803937-.121701229296377.129850940042161-.194742767853313.180961655302781-.007719169854681.0056782587817-.01633424146894.007925294670713-.025844302519545.006741107669768-.107673341852205-.023075224838067-.206991624309012-.019611158546468-.274058355706075.086285083410985-.049549206236406.01997152362037-.099098412472813.039942134925695-.148636670824999.059908184644883-.039608528453755.001477040641475-.079230741759602.002958642870908-.118852042742219.004441157414476-.077185312278743-.041954705435273-.150390156753929-.054208030262998-.210896369251714.028269043484215l-.010131353412362.004086266240847-.010352135721405-.003488698842375c-.175529233147245.019047346862862-.351053904678338.019287286140752-.526574926914691-.000111302627374l-.010423296960653.003839028429866-.010410524431791-.003871871832416c-.061029886232063-.07403632016667-.130593647279966-.087275859283181-.210127280468441-.029497021680982-.059129516206667-.002169488976506-.11949523086696.004742221905872-.175034753763612-.023777708654961-.062049864001892-.019921346203773-.124101552650245-.039877360442915-.186152328973549-.059834286995283-.014985827210694-.051177314375309-.062464971233567-.020585512719663-.091517003480476-.036365853684401-.088955198851181-.001640345323722-.159685821767198-.051878885876249-.235582933146361-.088340532807706-.032004311366109-.08268143267378-.098174228680364-.100803690459543-.177555503831172-.093961315641536-.122599868025645-.049068038298174-.229267829285163-.123555042890075-.330303104730774-.207029278726623.003548938748281-.147710450631166-.125704505184331-.138632900037919-.212348788398231-.179859576795025-.079231654081013-.058619081228244-.148778993305314-.126896858750115-.206448791772345-.207018330928804-.018834008094927-.181372197787823-.15553474945591-.300035398840009-.238087261386681-.447508647143877-.032117439493959-.057378786753361-.101495086531941-.056912592951448-.14641516289521-.094404245369333-.042464101275982-.064211126088594-.081652960880092-.129996454545108-.099087464594049-.206233282456196.046799462952549-.102593655713463.010069315410874-.169621103275858-.089392201847659-.209937288023866-.048768257249321-.094628675265085-.075445511203725-.195278184213748-.082144703290396-.301373311198404.047192674415783-.068029627396754.067846768060917-.134409330144081-.016388980884585-.19040139560002-.040147711690224-.026686630268159-.019123214671708-.074111130134042-.039836609350459-.106874701559718-.002191401250457-.04853889464448-.004381890177683-.097077789290779-.006573291429959-.14561668393344-.020764484796018-.133266197393823-.020664129202487-.26653650020944-.00007663517863-.399810452288875-.007948163072797-.161857288650026.012534413735921-.319662066774072.067356850293436-.472572266109637.144506581957103-.053558460813292.071708633799062-.174764288345614.083900926192655-.269512477092576.022826336100479-.131429247830965.085531248438201-.245852913444651.152804164961708-.358328783029719.160271533508421-.068136824599605.235020941820039-.189961202818267.227966855854902-.363138060210076.005188384231587-.023025503578538.009290191066611-.046725665318263.03528593930605-.05683276524087.147907724282049.004884087143182.13863213039258-.125079067843217.180880923298901-.210839569183008.039102188862671-.05935440844496.087622294095127-.109267251951678.147832913748061-.147459563556367.129003467271104-.009890424720652.216343853380749-.069485456677285.241917195797214-.202771268875949.005976631806334-.006091538221881.013225042692284-.009367895365358.021746144975623-.009829299507146.135214566242212.006764827906409.187500743233613.097557895925092.215641364220573.212816103189652.033703970206261.333026365189653.323060167787844.495331145149976.622222931588112.349016082821436,1.11290431168527-.544303390199275,2.490423517645468.135991743362865,2.719157637633543,1.355030609503046.122300625893331.651796870520229-.049388637282391,1.229650021012276-.518027367243121,1.709303688897307-.07975259084742.081627250795464-.165552974742241.1573454266927-.248558911494911.235792797830072-.475551405763326-.032282780552123-.684494490222278-.336115241258995-.534348836183199-.776547504370683.151380940169474-.172799614459109.289163697301774-.351428476104957.346432073394681-.582960755215026.139568174390661-.564257351724336-.301847732109309-1.134555608096889-.882447724769008-1.14638835495316-.179330885526724-.003654740466118-.343007210654832.046401336753661-.511144798114401.088236528711604-.416485752211884-.020622461545827-.567640436132933-.201217365554839-.570333615354684-.694887410176307-.132316114209971.049700729890901-.223696269153152.144427935350905-.315611045716651.236841049651957-.355086374922394.357010485479805-.538738024950362.799329875562762-.535924419013099,1.291501440101456.005539628808037.968836939261564.6867260337076,1.719975968983817,1.572688941248998,1.870234519995392.397724730004484.067453955595738.770392492735482.00416563779072,1.132078616477884-.164511217759355.096820340480917-.045152831427913.180311633383099-.126469894564252.297946636457709-.121364570632977-.001162300244687.039625561048524-.002323688169781.079251122098867-.003485988419925.118876683148301-.019736296115298.0266565238162-.031916728303258.055541837192322-.026439137496709.089635566280776Z"/>
          <path class="cls-4" d="M22.733819958404638,19.501115498061154c.020873051305898-.044384204659764.030470695421172-.11373304191784.064456573618372-.129081857112396.212550411910343-.095985746271253.102974875388099-.158158300821924-.007824087066183-.248052508871297-.123189229065247-.099944288181177-.12099144154854-.188397948251804-.026765749342303-.337788886138696.062084532297376.288041171939767.266440453766336.391890175355911.534712853292149.412976549911036-.174706317273376.125860467045641-.359269378561294.233298524130078-.564579590502035.301946702211353Z"/>
          <path class="cls-4" d="M22.433917300179019,19.594141689141907c.059311068596799-.166307113070616.119369330213885-.185222174021874.274041933878834-.086296031211532-.08607043167649.045498143276745-.17436784522215.083964149872372-.274041933878834.086296031211532Z"/>
          <path class="cls-4" d="M21.177512699450745,19.657716474373046c.009119586557063-.068067032379986.058935191282217-.092983312200886.11540893352867-.08559902129673.05849362666595.007650687363821.090676753457956.053874122371781.09471743461836.115086007496757-.070964177753922-.003252408829212-.144370645741219.010881200593758-.21012636814703-.029486986200027Z"/>
          <path class="cls-4" d="M21.955532217360087,19.686760074685481c.065687298134435-.153057538474968.105436324420225-.158389116933904.210892719958792-.028276342018216-.066130687397163.040497735761164-.139815414080658.024663568115102-.210892719958792.028276342018216Z"/>
          <path class="cls-4" d="M21.408473801311629,19.687246339456578c.175480879999668.000031931082049.350962672318929.000064774481871.526509239616644.000104916412965-.175468107468987.041413701668716-.350992778998261.038663979307785-.526509239616644-.000104916412965Z"/>
          <path class="cls-4" d="M19.178067067072334,18.219616697625497c.094046876778521-.004640042446226.186056534996169-.005698329749976.19181512146497.124774810237795.001323781520114.029997883520991.024260508778752.039890589035167.043764162383013.055005395004628.118730703703477.092015800405534.175603131354364.210023045791786.148927702050059.362119002524196-.15886837983453-.158844819094156-.287882794989855-.338881385319837-.384506985898042-.541899207766619Z"/>
          <path class="cls-4" d="M19.376595977799298,15.195817996122969c.085934495464244.174135702183776-.029780066468447.358441910294459-.227979628381945.363138060210076.06099430561153-.130466753770634.126285655311221-.258228944860093.227979628381945-.363138060210076Z"/>
          <path class="cls-4" d="M20.21990045914572,14.780901632949281c-.051319113994396-.091739140378195-.131747736619218-.15398582065427-.215611257541241-.212799453413027.066269360582737-.078781735184748.160613654854387-.117300656143925.244685185554772-.170525665224886-.030409569742915.126218551328748-.029184319168053.254814143667318-.029073928013531.383325118637913Z"/>
          <path class="cls-4" d="M19.982512949949523,14.577914829266774c-.001152264690973.219600317819641-.020477102869336.235799868283721-.241908072563092.202774461984518.067633284344993-.083098589459041.155074026048169-.14257502025248.241908072563092-.202774461984518Z"/>
          <path class="cls-4" d="M18.851217107105185,17.204796718787293c.032507001667909.026930674970572.036903489024553.070313155955773.082512369697724.096466080984101.101462242881098.058182081556879.086590456121485.137181860422061-.02629042875742.200810472334524-.036191876624798-.095791422823822-.056697261523368-.194549699373056-.056221940940304-.297276553318625Z"/>
          <path class="cls-4" d="M19.76901828312657,18.968547921067511c.029033785776846-.000514546584782.058076694787815-.001795439149646.08709862035721-.001416827744833.159218712089569.002076432679132.177260823311371.028347502713586.12525290501253.181272755276041-.075462845350557-.054426986257567-.156142356960117-.102696747495429-.212351525369741-.179855927531207Z"/>
          <path class="cls-4" d="M19.592762840404248,14.928145661699091c.000364017110769.028993422897656.001421400145773.057997793594041.000978010883045.086978900216309-.002423131441901.158475330856163-.028943465740667.176439757862681-.181853460238926.123864318233245.057503755575453-.072671950631957.104619794808968-.154256778701892.180875449355881-.210843218449554Z"/>
          <path class="cls-4" d="M18.995824956982688,15.917284839362765c.010745347184638.026136047174987.02006564493422.05297001657982.032475070338478.078289996517015.062066285825495.126636392347791.031840093126448.176693381887162-.116386944415353.191222024418494.016768507501183-.093326343256194.038463562354082-.185116345289316.083911874076875-.269512020935508Z"/>
          <path class="cls-4" d="M18.989587400630626,17.803446127145435c.058191647558488-.000031018766094.127255455283375-.018780038085424.149542608145566.060189178170731.017246565055757.061106056394237.010127704119441.120047185398107-.060126685883006.149735337421589-.048615899209835-.061963634043423-.064850697408474-.13771784644814-.08941592226256-.20992451559232Z"/>
          <path class="cls-4" d="M20.311670176255575,19.355436776589158c.131536989871165-.080465415550862.167422325770531-.061479193901505.177559153125912.093951280160582-.063563408826667-.023044206073791-.126517385502666-.047243405014342-.177559153125912-.093951280160582Z"/>
          <path class="cls-4" d="M18.844567180496597,16.659369582564977c.000031931323974.133241108681432.000063862647949.266481761204886.000085758414571.399766661088506-.038952567792876-.13321875692418-.036815905956246-.266489515899593-.000085758414571-.399766661088506Z"/>
          <path class="cls-4" d="M20.724808613233108,19.537738625038401c.041911233180144-.016654340309287.092697550200683-.055690544805657.091524302068137.036330273333988-.030512662306137-.012086370878023-.061018938349662-.024208322104641-.091524302068137-.036330273333988Z"/>
          <path class="cls-4" d="M22.764105452140939,18.638710786783122c-.100813580815156-.062268803956613.001655867306908-.06449394424908.026460120940101-.0896442332878.001092963653718.032815117311657.005809676591525.066684872661426-.026460120940101.0896442332878Z"/>
          <path class="cls-12" d="M22.285691174967724,17.653522396340122c-.026059610889206.115583220065673-.046304071243867.232674043386396-.026670867691791.350571810775364.032860983215869.197322685809922.171094428198558.328830849027327.374229660714263.365865430814665.057220022939873.01043279696114.117131400456856.014510396194964.161431096783417.060079244012741.000012772530681.000005473900274-.000668733187922.000144602184264-.000659609950162.000151900721903-.358795882622871.231893556496289-.748843409655819.374927472022136-1.17883793719011.354158583656499-.948373139359319-.045807418619916-1.682588352648963-.695829377114023-1.832824326718764-1.604159652011731-.127118606747899-.768567470699054.149298105423441-1.403631541677896.776561624819806-1.87540735535913.035087965086859-.026390583515422.072526988053141-.084030292829084.126284742986172-.052251567222811.017565878311871.010383531868683.015255874994182.064851116214413.012109270946894.098221378202652-.039215316983245.415935192786492.099939574820382.587740838261197.512576233822983.629865690752013.00036949105197.067826180787051-.058993579992602.086995778076016-.099955084318935.119255750712-.325413962638777.256281604987635-.4567356441421.668248220376881-.335045362728124,1.056021110724032.112697507833218.359116568452009.471989694488002.640688959240833.857873376675343.662725055423834.171744002593186.009807403906962.334431368955848-.037053284276226.489308333106237-.11253608248262.051255251339171-.024979229669043.096189924881401-.075811232196429.163618848742772-.052561298719411Z"/>
          <path class="cls-6" d="M22.285691174967724,17.653522396340122c-.584120649376928.376274051383007-1.229947216759683.206565821869845-1.514891417482431-.398078419145349-.185499105285999-.393624945450028-.039670566453424-.9371384975193.318590694547311-1.188112700437159.040529975271056-.028392662386977.080339214911874-.057813961790998.120492400545118-.086735311673692.235490788461902-.096659948269007.479619456629734-.139625500544753.72739103287131-.069652182543905.393748823820715.111197713965339.639969449966884.374100000828548.715216986951418.776560732961116.073083505440081.390884346257735-.06843156747891.710829231189564-.366799697432725.96601788083899Z"/>
        </g>
      </g>
      <g>
        <g>
          <path class="cls-10" d="M31.592930340035309,14.387064628257576c-.20170832050826-.221915068747876-.388733016894548-.45693450642375-.723458614194897-.49339675353076-.436633350511329-.047562142817696-.725968487362479.180618680022235-.967910075802138.495241192234971-.265047095390401.344669384649933-.517427304392186.699080208950363-.812009091794607,1.099051339156176-.148535526768683-.498608090284506-.263052897400485-.930971534678065-.406082378653082-1.353687665648977-.354799106684368-1.048589730125968-.841233371424096-2.029487315756342-1.458153601264712-2.954283203273008-.507467572428141-.760720573367507-1.084352338046301-1.457049491697944-1.750564627280255-2.072877807107034-.709739290556172-.656063459501638-1.464144701581972-1.252166974873035-2.321345928623487-1.727915044457404-.609315920428344-.338171133547803-1.221427912803847-.657142253475286-1.87084913331455-.898925620457703-.815490706065248-.303611910681866-1.65124989751348-.532224613319158-2.517982538507567-.657404675775979-1.006577905078302-.14537766333433-2.0136562794778-.190068025607616-3.02182458270363-.083945628435686-.546127675428579.057486743353365-1.093606854708923.123443596367906-1.629876153247096.272118428956674-.444365583400213.123195703300553-.89358015471953.222609651407765-1.331740755014835.374862579533328-.8539110894435.296719322134777-1.663530489477125.685996403831268-2.421587944487328,1.169004909048454-.923970409567119.588722307259559-1.781160030323008,1.26703597568212-2.524847229147781,2.080763592738549-1.054394910972405,1.153699444687845-1.909165141940321,2.437880360049348-2.460215438359228,3.901307423412618-.505540773796383,1.342563997245634-.780921839788789,2.41860294523849-.864772841374361,4.177156504442792-.015762177816214.58660634599255.042369045253508,1.217471181874316.071243301885261,1.429630157774227.107172446663753.251076673926036.303222725957312.395829906267863.582957211147004.480956493411213.531684862775364.161799238862841,1.187318425436388-.248901190931065,1.155610861969762-.800877566617601-.052954385000703-.921787107228738.028305455060035-1.830228003510456.175367763011309-2.736675911723978.108443588591399-.66841345931789.325354343245635-1.304441602253064.571570395117305-1.93262510421664.349482965237257-.891651852157338.831234943576419-1.711786834241138,1.39550179795333-2.477959430325427.378468893981335-.513891246356252.832338759384584-.970113968412988,1.292305952169045-1.416349886060743.526961877341819-.511229143394303,1.13629024108559-.917631054725462,1.746620137895661-1.309914634908637.449600824818845-.288975950954409.950613295479343-.506039060184776,1.456889770377529-.705065467316672,1.011254139264565-.397541790812284,2.054767080928286-.625431786028457,3.132017017735052-.722316911651433,1.276725326191809-.114826017766063,2.522042281982067.023839964776016,3.758963026280981.371370143859167.700177929724305.196724255383742,1.368568145639074.467755188315095,2.001016893837004.796424203340393,1.03275967301488.536700542375002,1.94885775417788,1.249333597451368,2.764636717867688,2.093282234838625.729971457067222.755178506283301,1.314492366860577,1.611159312643395,1.795937284341562,2.530156571663611.332403833586795.634504009582088.584106540734865,1.315853779287863.775380790655618,2.012623124212951.005911260463108.02153272482974-.011484706996271.049463036072666-.029071304092213.116654937345629-.295664702180147-.22363906650935-.574992962807301-.435911031120668-.855365317807809-.646793711908686-.636342421386871-.478629370874842-1.334719536062039-.120886819562656-1.492411633587835.488673270137951-.11604757045825.448584412483797.112211338768248.742829967022772.423511111162952.983494053667528,1.09388459476213.845676132666995,2.200429612643347,1.674958095198235,3.297816386042541,2.516140714120411.163393870354412.125246958025855.260822344351254.086326348192415.370151030354464-.06538068691043.406340509967777-.563861681966046.810994259620202-1.129307288862037,1.232639217481847-1.681671309163903.448697622498003-.587804941779723.874747701840533-1.193407460831622,1.358938072287856-1.753902908246346.102763043665618-.118955423808075.116278916804731-.277391269199143.165961527109175-.419584250384105l-.064967077425536-.477357695774117Z"/>
          <path class="cls-10" d="M17.823441141881631,29.081789330627544c-.045954507913848-.401061806337566-.045689671558648-.393095420121426-.5083463746505-.377756258881163-.327732407497024.010862708724744-.65679151149925.006138519886008-.984288040563115-.010592600234304-.164114427960158-.008384968503378-.225155929021639.047983352782467-.234337355466778.205216003018904-.026889781522186.46044438131139-.057323208447997.920774240525134-.095195776699256,1.380421759193268-.011083507146395.134522863318125.028672297783487.196417355991798.165337586729947.211419875207866.531250663705578.058320509197983,1.061892536037703.019232385457144,1.592586227849097-.003351803198711.123284061277445-.005246486115539.156703253464002-.078982626537254.146541971620536-.200463542990292-.032425081490146-.387658281344557-.053910997832645-.776233280004817-.082298238819931-1.204893432115568Z"/>
          <path class="cls-10" d="M10.150043151988939,26.324826865488831c-.034482736818973.028950886508028-.084726687748116.055100953714827-.111869057882359.096424840399777-.248443569917072.378266477465331-.588219270504851.679370086750168-.866920324566308,1.031990234564546-.124110093936906.157029184957537-.113686016342399.27121049026664.057160070804457.393138443061616.3827487984654.273153133602136.756387825344063.558108827834076,1.158020073282387.805157842027256.156499022205026.09626606665006.244197214160522.085336244218524.336708420349169-.073568170815633.231276506970971-.397260007967816.472261661559969-.788875892255419.71020219773709-1.182245355247687.040065281822535-.066234312008419.065534514111278-.128246604966989-.012649225665882-.185514557809256-.39317663636939-.287994329820322-.78591727449566-.576588747074311-1.18002323977089-.863307505574085-.019534908255082-.014211740390238-.050409151926942-.012833936257266-.090628914287663-.022075770606534Z"/>
          <path class="cls-10" d="M7.691333706592559,26.297207840189913c.046432216904577-.028827986090619.105362909909672-.054722693430449.151030741601062-.095478320005896.337053964040024-.300787593034329.670496078884753-.605618992894051,1.007237969160997-.906761432368512.113152813293709-.10118933027934.119899906103456-.185638515514256.017264749330934-.311219732294376-.253186562084011-.309796504099722-.494301860553605-.629962050635186-.729042494589521-.954092939486145-.100590784430096-.138893485987865-.198175294573957-.157262819392599-.336221726207441-.066026215831698-.370276835523327.244715541686674-.743031040849019.485679654600062-1.114802638614492.728133933739628-.123132560498561.08030098979998-.162808912084074.171185378731025-.075099090023286.311869846878835.274203974617194.439816981309377.622535569804313.821891866823535.940280618237011,1.227736604593701.031965758433216.040826840969203.065435045260529.088655199286222.139351871104736.065838254774462Z"/>
          <path class="cls-10" d="M24.908553144956386,25.100277576322696c.025944555653041.038522164281858.040543544535467.073418338615738.066029853904183.096054062794792.370635499253694.329196480769497.72685716779597.674504799892929,1.122129673167365.976209072246093.122784008099188.093717686735545.187139330451828.071165051068419.279531260981457-.035494664939506.332381452579284-.383707330738616.623509319388177-.797380803641317.91348569800175-1.212701158799973.086435009598063-.12379758464067.071346946671838-.201583791666053-.057618415086836-.279098317691023-.387774141716363-.233068689682113-.770357830171633-.474767081552272-1.157806271245136-.70838622633255-.114196769241971-.06885788204454-.239741951902033-.096978494465475-.327012054989609.042060534630764-.22626471984222.360482903772208-.504681308821091.68117826470916-.763892420945922,1.016553897580707-.02597931184755.033613242758292-.049476728261652.069145675074651-.074847323787253.104802800510697Z"/>
          <path class="cls-10" d="M19.963785722393368,30.132040463455269c.497738999263674-.098944457981816.961310473216145-.282985052860568,1.432956589558671-.441528952788758.159451523610187-.053598528801558.211969913330904-.153852281173386.148859439708758-.308005567297187-.171124749425871-.417996413646506-.344422388758176-.835108543496062-.518483424346414-1.251894212718071-.063678374330266-.152475180717374-.188278258954597-.143063237415845-.314641081527952-.104946189695511-.391154882936462.117996429660707-.780305875699923.24272184919937-1.172349656480947.357621137826754-.097124350970262.028463201600971-.165307519109774.049461176707155-.135167336820814.175648430108595.11755984411684.492184389290742.230728402604655.985439576164026.341912685251373,1.479111545248998.032347493486668.143629355439771.125027574826163.123878948563288.216912784657325.09399380931518Z"/>
          <path class="cls-10" d="M23.685005545392414,26.292519639433522c-.019282367191408.009823826411775-.053784700463439.021714102723308-.081674338320227.042484057620641-.332948587116334.247980613018626-.64013496811458.529563978757324-1.003404133436561.738557925797977-.123641120937464.071131304394839-.198967514657852.176375191700572-.089017596954363.348380313934285.247590547784057.387331313465438.47328564277268.788798789113571.702802150504795,1.187443050668662.051928638746176.090193334391188.118044443950566.105433250832903.197127271920181.062126420481036.490913923487824-.268829704892596.915438427042318-.632515444429373,1.363122105432922-.962972858410467.077241076676728-.057015087844775.077332084958471-.134097433588977.014362061374413-.208637910287507-.325216239631118-.384970231089028-.649887188603316-.770403750438163-.97610526202152-1.154522131078011-.027783905949036-.032715964726776-.061177232802947-.066043456535226-.12721225849964-.052858868726616Z"/>
          <path class="cls-10" d="M14.50174642517959,28.626726327782308c-.008952722506365-.152951153737376-.057784000846368-.206752215888628-.161137641021924-.233108724445628-.411910627703037-.105035561486147-.828723030712354-.195319794384886-1.212416555788877-.390595159674376-.141722780745113-.072126569985812-.213504545099568.019060117961089-.261785386925112.138954250063762-.168583483611656.418633731223963-.335497941257927.837950354030909-.506474838353824,1.255605759263744-.052425309128012.128059996422962-.040059018956526.197579478616717.105772525199427.266123277380757.44486175595739.209091581029497.916844711784506.330369259878353,1.384584538347553.466852673907852.099172964226454.028938459251549.208716776583969.075703289102421.269040585766561-.070987887929732.196343355873978-.477442903773408.237800962599067-.994259740647976.382416772776196-1.432844188566378Z"/>
        </g>
        <g>
          <path class="cls-2" d="M3.971718708609842,14.853427037219262l-1.39505660076793-.252569951947407,1.0231827332791.894634930820757-.044486205793874.242363160142304-1.243687952477558.475289852387505,1.364628806326436.250355270706677-.092824031140481.50456216096245-2.323682074109456-.426374284112171.081654334446284-.444958348435648,1.603429218386736-.604800559733121-1.286633510455431-1.121302741299587.081076591515739-.441491890841462,2.324837559976004.41982653087689-.092438869185571.504465870472814Z"/>
          <path class="cls-2" d="M4.347251614668494,12.30221053823243l-.418478464034706,1.014131427338725.38843583155176.386606312264121-.21376488498754.517946538895558-1.782914689385507-1.874775815636895.206061645889349-.499169893592807,2.587518013238878-.075684324144277-.218964571380639.530368011942301-.547892880891595.000577742933274ZM3.897767613261749,12.302980862141339l-.979274270415772.001348066842183.693484099858324.691365709105412.285790170557448-.692713775947595Z"/>
          <path class="cls-2" d="M3.204090932427789,10.46893592323886l.273464988002161-.473460333100775,2.045980304605109,1.18167687773348-.27346498800398.473460333102594-2.04598030460329-1.181676877735299Z"/>
          <path class="cls-2" d="M5.219643442593224,7.584939495190156l1.861102566235786,1.455045575247823-.276546283641437.353578674628807-1.855325136913962.044486205794783,1.12968001381887.883368943640562-.332394767106962.425411379222169-1.861102566235786-1.455238156226187.278472093417804-.356082227335719,1.853399327137595-.041790072109507-1.13006517577378-.883561524616198.332779929061871-.425218798246533Z"/>
          <path class="cls-2" d="M6.499729199813373,6.968776657786293l-.562336454204342.504851032428633-.297345029206554-.33133557173187,1.531211351835736-1.374739307643722.297730191163282.331431862218778-.562529035179978.504754741939905,1.280085757220149,1.426062138139969-.406731024409964.365133533276094-1.28008575721833-1.426158428627787Z"/>
          <path class="cls-2" d="M10.216734645893666,6.051609752601507l.238030088148662.368792571848644-1.537181362138654.992754938839425-1.282204147970333-1.985509877678851,1.500590976416788-.968682316657578.238030088150481.368599990872099-1.0437888978704.673937130643026.278472093417804.431285099036359.921692558153154-.595460382325655.230904591982835.357430294176083-.92188513912879.595267801350019.29676728627237.459498212236213,1.080571864566082-.697913462339784Z"/>
          <path class="cls-2" d="M11.836725828339695,3.242431034297624l.908597051688048,2.180016664921823-.414049101553246.172552555809489-1.638478956285326-.870466018149273.551551919466874,1.323416477149294-.498206988708262.207698584198624-.908404470708774-2.179824083944368.417130397192523-.173900622651672,1.635397660646049.871717794502729-.551744500440691-1.323416477150204.498206988702805-.207794874686442Z"/>
          <path class="cls-2" d="M14.604499636488981,4.485926405799546l-1.074987016218074.219927476267003-.10322340392122.538263832017947-.54924094773196.112274709862504.557907091717425-2.526469843382984.5292125260803-.108423090313408,1.509449701381527,2.103273145401545-.562529035179978.115163424524326-.306588916128021-.454009654376932ZM14.352603717961756,4.113474795379261l-.548663204801414-.811343658067017-.185648062275504.961749401468296.734311267076919-.150405743401279Z"/>
          <path class="cls-2" d="M17.762442504987121,2.45458225548191l.018487773835659,2.362390850582415-.448906258474381.003466457594186-1.189187535856036-1.425195523740513.011169696694196,1.434343120169615-.539997060815949.004236781504915-.018295192860023-2.362487141070233.452372716068567-.003466457595096,1.185528497284395,1.425195523740513-.011169696694196-1.434343120169615.539997060817768-.004140491016187Z"/>
          <path class="cls-2" d="M18.298299074787792,3.677760333861443c.127488607082341-.700705886511969.756843241442766-1.104163034305202,1.4809477167164-.972052483763036.401723918994321.072988190459.7106238068518.280301612702715.881250552885831.585927623942553l-.403264566815778.256036409540684c-.123636987531427-.207987455663897-.302352134620378-.336631548610967-.534989955400306-.378999363653747-.434847847120182-.07924707222719-.799596218441366.169952712614759-.879324743113102.608363307816944-.080113686624827.438410595202186.173322879720217.80017396137282.608170726840399.879517324088738.232637820779928.04236781504369.44563238185583-.015021316241473.634746901729159-.169182388703121l.287330818380724.381695497338114c-.268072720631608.229075072697015-.630124958270244.314003283759121-1.03531533486057.240244769389392-.720638017679448-.131243936143619-1.167425885403645-.730844809485461-1.039552116362756-1.431550695996521Z"/>
          <path class="cls-2" d="M22.423768774073324,5.553884216339611l-.150598324376915.412027001289061-1.717822319002153-.627525115074604.810765915133743-2.218821731879871,1.676609989823191.612600089320949-.150598324378734.412027001289061-1.166270399537098-.42608541264417-.176019013404584.481837605621877,1.029923067490017.37630322996938-.1455947351551.399316656776136-1.030304713254736-.376206939480653-.187573872051871.513420885924461,1.20748272871424.441106728888371Z"/>
          <path class="cls-2" d="M23.970579185086535,5.506027843440279c.382465821247024-.572735826985991,1.100792867198834-.706387025347794,1.685083552829383-.316410545978215.277701769507985.185648062277323.467971775244223.442358505240009.517272505476285.739318372492562l-.151753810245282.03244989470295c-.057774293238253-.278086931461075-.218001666491546-.482319058063695-.448328515540197-.636094968571342-.502636351187903-.335476062746238-1.128909689907232-.217809085514091-1.458993485286555.276257412177074-.329698633422595.494162788178983-.197973244836248,1.118125155168855.304277944396745,1.453601217916912.230326849050471.153679620017101.482222767575877.22040892870973.7614651849035.167160288439845l.027731660755308.152620424642009c-.293108247704367.068269956512268-.604704269244394-.006066300788916-.882791200707288-.191521782089694-.583909072875031-.389976479370489-.73604449587765-1.104451905770475-.353963836581897-1.677380313732101Z"/>
          <path class="cls-2" d="M26.86083449490252,8.436821449013223l-.994103005681609-.94355049909791-.67557406895321.275775959733437-.134806684227442-.12787376903816,2.414965457432118-.965986182972301.125177635351065.118437301141967-.838112413932322,2.462532958864358-.134806684227442-.127777478549433.237259764238843-.691558290081957ZM26.914372006638587,8.287186029522672l.48800019689952-1.416818251222139-1.38658303775992.564165973488343.898582840860399.852652277733796Z"/>
          <path class="cls-2" d="M27.928888595932222,10.844276248321876l.30004116289274-.92255917255261c-.052382025873158-.053922673690977-.101682756103401-.109482285690319-.149831659262418-.17467094656331l-.401335098245909-.542693194500316-.621266233307324.459305631257848-.102453080011401-.138465722798173,1.900003923683471-1.404011616219577.503406675097722.681255207788126c.352808350718988.477600824116053.326617337781499.941913560787725-.074721419257912,1.238680847063733-.301581810710559.222527319463552-.630895282180063.214150046943359-.923618367929521-.005873719811461l-.313906993271303.966467635414119-.116318910388145-.157434949078379ZM28.201198098069653,9.656918231751661c.300811486802559.407116186364874.65130886579027.483763415396425.977155879663769.243037193563396.328157985604776-.242844612585031.355115626913175-.598349096988386.054307835645886-1.005368992864533l-.401338757039412-.542693194500316-1.031078553356565.762139218323682.400953595086321.542885775477771Z"/>
          <path class="cls-2" d="M29.140608106152285,12.821216272503989l-.139428627686357.067981085045176-.714475426402714-1.464578333631835,2.122627533637569-1.03531533486057.692136033016141,1.419129222951597-.139428627688176.067981085046085-.617029451803319-1.264390407556675-.836956928069412.408175381739966.551937081419965,1.131028080661963-.13673249400199.066440437224628-.551551919463236-1.130931790171417-.870080856193454.424544764824532.638983683234983,1.30993580872655Z"/>
        </g>
      </g>
    </g>
    <g>
      <path class="cls-2" d="M24.942223232386823,21.178556661130642c0-.8772063523611.348186407258254-1.374643017156814.815965601526841-1.374643017156814.47066790892859,0,.816158182500658.497436664795714.816158182500658,1.374643017156814,0,.877206352358371-.345490273572068,1.374835598132449-.816158182500658,1.374835598132449-.467779194268587,0-.815965601526841-.497629245774078-.815965601526841-1.374835598132449ZM26.130833025310494,21.178556661130642c0-.603741364358939-.152331553177646-.854289216042162-.37264419139683-.854289216042162-.217616504538455,0-.369948057714282.250547851683223-.369948057714282.854289216042162,0,.603933945335484.152331553175827.854481797017797.369948057714282.854481797017797.220312638219184,0,.37264419139683-.250547851682313.37264419139683-.854481797017797Z"/>
      <path class="cls-2" d="M26.740544399970531,22.165919332599515c0-.220120057243548.117089234297964-.364555790343729.264028520105057-.364555790343729.146746704829638,0,.263835939129422.144435733100181.263835939129422.364555790343729,0,.216461018674636-.117089234299783.372259029444649-.263835939129422.372259029444649-.146939285807093,0-.264028520105057-.155798010770013-.264028520105057-.372259029444649Z"/>
      <path class="cls-2" d="M27.431717528097579,21.178556661130642c0-.8772063523611.348186407260073-1.374643017156814.815965601526841-1.374643017156814.470667908926771,0,.816158182502477.497436664795714.816158182502477,1.374643017156814,0,.877206352358371-.345490273575706,1.374835598132449-.816158182502477,1.374835598132449-.467779194266768,0-.815965601526841-.497629245774078-.815965601526841-1.374835598132449ZM28.620327321019431,21.178556661130642c0-.603741364358939-.152331553175827-.854289216042162-.372644191395011-.854289216042162-.217616504538455,0-.369948057716101.250547851683223-.369948057716101.854289216042162,0,.603933945335484.152331553177646.854481797017797.369948057716101.854481797017797.220312638219184,0,.372644191395011-.250547851682313.372644191395011-.854481797017797Z"/>
      <path class="cls-2" d="M30.718111908563515,21.672334287353806c0,.470860489906045-.24765913702322.881057971909286-.79170039836572.881057971909286-.263835939127603,0-.541345127658133-.102645660987946-.726222866027456-.284827265673812l.174093203630036-.470860489904226c.144243152122726.151753810243463.342794139891339.239185574012481.541345127659952.239185574012481.220312638222822,0,.356274808313174-.129221835879434.356274808313174-.345682854552251,0-.208757779573716-.097831136554305-.345490273574796-.443321410130011-.345490273574796h-.487037292012246l.098023717529941-1.496161613937147h1.161455875100728v.493585045245709h-.794203951070813l-.030042632484765.505139903895724h.155220267839468c.562914197133068,0,.786115550017712.353193512673897.786115550017712.824054002579032Z"/>
      <path class="cls-2" d="M30.8380898575233,20.55209074143113c0-.448135934564561.195854854084246-.732963200237464.473364042614776-.732963200237464.277509188526892,0,.470475327949316.280975646123807.470475327949316.732963200237464,0,.451794973136202-.192966139422424.732963200237464-.470475327949316.732963200237464-.27750918853053,0-.473364042614776-.284827265672902-.473364042614776-.732963200237464ZM31.51000488790487,20.55209074143113c0-.284827265671993-.078958200761917-.421559759673983-.198550987766794-.421559759673983-.117089234301602,0-.198550987768613.140584113550176-.198550987768613.421559759673983s.081461753467011.421559759673983.198550987768613.421559759673983c.119592787004876,0,.198550987766794-.13673249400108.198550987766794-.421559759673983ZM32.445755857414042,19.84955533563334h.323728623121497l-1.300306759852901,2.65819523197024h-.323728623121497l1.300306759852901-2.65819523197024ZM32.133004350009287,21.805215161805791c0-.448135934563652.195854854082427-.732963200237464.470475327951135-.732963200237464.277509188528711,0,.473364042611138.284827265673812.473364042611138.732963200237464,0,.44813593456638-.195854854082427.732963200238373-.473364042611138.732963200238373-.274620473868708,0-.470475327951135-.284827265671993-.470475327951135-.732963200238373ZM32.802030665729035,21.805215161805791c0-.280975646123807-.078765619784463-.421559759673983-.198550987768613-.421559759673983-.116896653322328,0-.198550987768613.136732494000171-.198550987768613.421559759673983,0,.284827265672902.081654334446284.421559759673983.198550987768613.421559759673983.11978536798415,0,.198550987768613-.140584113551085.198550987768613-.421559759673983Z"/>
    </g>
    <g>
      <path class="cls-2" d="M1.67961991480297,22.012432293559868c0-.676729554817939.372451610419375-1.161070713145818.873643604276367-1.161070713145818.278183221951622,0,.510339590286094.14116185648345.662093400529557.39767971846868l-.239089283522844.307936982968386c-.108037928359408-.173130298741853-.243711226983578-.263065615219602-.404612633659781-.263065615219602-.301196648755649,0-.51496153374319.295226638457279-.51496153374319.718519626928355,0,.42348556944853.21376488498754.718519626926536.51496153374319.718519626926536.160901406676203,0,.296574705300372-.089742735498476.404612633659781-.26614691085706l.239089283522844.307936982967476c-.151753810243463.259791738603781-.383910178577935.400953595086321-.664404372259014.400953595086321-.498881022127534,0-.87133263254691-.484341158328789-.87133263254691-1.161263294123273Z"/>
      <path class="cls-2" d="M4.940882477707419,20.889877775906825v2.245301616282632h-.372355319928829v-.920537072289335h-.731133680952553v.920537072289335h-.372355319930648v-2.245301616282632h.372355319930648v.8852947534142h.731133680952553v-.8852947534142h.372355319928829Z"/>
      <path class="cls-2" d="M6.335265045056076,23.135179392189457l-.388435831549941-.779375215806795-.381695497339024.779375215806795h-.427529769975081l.595364091836018-1.142005196375976-.565514040328708-1.103296419906656h.423004117004893l.370140638689918.728148675801094.363207723503365-.728148675801094h.402301661926685l-.560892096871612,1.084038322158449.599986035296752,1.161263294124183h-.429937032193266Z"/>
    </g>
  </g>
</svg>