<?xml version="1.0" encoding="UTF-8"?>
<svg id="Capa_1" data-name="Capa 1" xmlns="http://www.w3.org/2000/svg" viewBox="0 0 34.015748031495605 34.015748031496514">
  <defs>
    <style>
      .cls-1 {
        fill: #d1dbf1;
      }

      .cls-2 {
        fill: #1d3a69;
      }

      .cls-3 {
        fill: #e8edf9;
      }

      .cls-4 {
        fill: #84cff0;
      }

      .cls-5 {
        fill: #0ba347;
      }

      .cls-6 {
        fill: #a18dc2;
      }

      .cls-7 {
        fill: #6d8879;
      }

      .cls-8 {
        fill: #32badb;
      }

      .cls-9 {
        fill: #e43439;
      }

      .cls-10 {
        fill: #46bfef;
      }

      .cls-11 {
        fill: #aedef2;
      }

      .cls-12 {
        fill: #d9a7cd;
      }

      .cls-13 {
        fill: #f29cb2;
      }

      .cls-14 {
        fill: #879da2;
      }

      .cls-15 {
        fill: #fff;
      }

      .cls-16 {
        fill: #646787;
      }

      .cls-17 {
        fill: #cae3d4;
      }

      .cls-18 {
        fill: #eeeded;
      }

      .cls-19 {
        fill: #6a4695;
      }

      .cls-20 {
        fill: #b5b2b2;
      }

      .cls-21 {
        fill: #a1559c;
      }

      .cls-22 {
        fill: #ee728b;
      }

      .cls-23 {
        fill: #f0869f;
      }

      .cls-24 {
        fill: #e8465e;
      }
    </style>
  </defs>
  <g>
    <path class="cls-15" d="M0,17.007874015748712C0,7.614956225134847,7.614956225135757,0,17.007874015747802,0c9.392917790613865,0,17.007874015747802,7.614956225134847,17.007874015747802,17.007874015748712,0,9.392916740707733-7.614956225133938,17.007874015747802-17.007874015747802,17.007874015747802C7.614956225135757,34.015748031496514,0,26.400790756456445,0,17.007874015748712"/>
    <path class="cls-18" d="M9.487155104945487,18.704697923422827c0-4.360682161874138,3.53500378685203-7.895686998628662,7.8956869986323-7.895686998628662,4.360683211778451,0,7.895688048534794,3.535004836754524,7.895688048534794,7.895686998628662,0,4.360682161877776-3.535004836756343,7.8956869986323-7.895688048534794,7.8956869986323-4.36068321178027,0-7.8956869986323-3.535004836754524-7.8956869986323-7.8956869986323"/>
    <path class="cls-19" d="M9.487155104945487,18.743449892853278c0-.115594468548807,3.366565532734967-1.044758765292499,7.741561040566012-1.006226225872524,4.372792808511804.038531489517482,8.049814006601082.890631757323717,8.049814006601082,1.006226225872524,0,4.360682161877776-3.535004836756343,7.8956869986323-7.895688048534794,7.8956869986323-4.36068321178027,0-7.8956869986323-3.535004836754524-7.8956869986323-7.8956869986323"/>
    <path class="cls-4" d="M22.226821483753156,10.317787978580782c.200363745485447.058347384150693.407335588926799.085869576691039.604396335338606.15963165645735.329170210330631.122200466696086.635221526952591.28623542198693.923659648255125.488801866791619.168438254118882.118897467622446.323664511939569.246601532904606.451370677028535.407333489117264-.029724891857768.029724891858677-.06825638137343.017615295125324-.103484871815454.019815894634121-.22128203968532.009908997224557-.332473209406089.128806464847003-.328069910576232.350088504532323,0,.041834488591121.016512895561391.084769276934821-.024219193464887.11669686811365-.060550083471753.002200599508797-.095778573913776-.039633889082324-.135412462994282-.074862379522528-.814669078044972-.722193503207563-1.75043832303345-.939072244062118-2.80400263608135-.68476231344539-.091375275083919.022018593954272-.179447551094199.066053682054189-.278529124081615.060550083468115-.037431189761264-.018715594880632-.071559380450708-.042936888151416-.107888170647129-.063853082541755-.238897334809735-.143118760897778-.288438121304353-.341279807063984-.147522059725816-.582377741386154.220181739929103-.124403166017146.474489570737205-.139815761824138.708981506910277-.220181739929103.068256381375249-.023118893710489.155228357629312.033027890931407.217979040609862-.038531489517482h.063853082547212c.011009296977136.012109596733353.025321593027911.01651289556321.041834488589302.01651289556321h.077062979033144c.015412595805174.001100299756217.029724891857768-.004403298829857.040734188834904-.01651289556321h.255410230372945c.018715594880632.020916194393067.044035088099918.015412595806993.06825638137343.01651289556321h.149722659236431c.024219193464887-.001100299756217.049540786494617.005505698391062.069356681129648-.01651289556321h.063853082545393c.01100719716851.012109596733353.023118893710489.025319493219286.035228490442023.037431189761264.049540786494617.027522192540346.107888170647129-.006605998147279.157428957139928.024219193466706"/>
    <path class="cls-17" d="M21.970090473712844,10.256246785405892c-.012109596731534.027522192539436-.036330890005047.030825191613985-.061650383226151.030825191613985-.012109596731534-.005503598586984-.015412595805174-.012109596734263-.012109596731534-.019815894637759.002200599510616-.007706297903496.006603898338653-.011009296976226.009906897412293-.011009296976226h.063853082545393Z"/>
    <path class="cls-6" d="M21.906237391167451,10.256246785405892c.001100299756217.011009296976226.001100299756217.020916194392157.001100299756217.030825191613985-.022016494145646,0-.045137487664761-.002202699318332-.068256381375249-.003302999074549-.007706297903496-.006605998147279-.009906897412293-.01320989648957-.006603898338653-.018715594880632.00330299907364-.005503598586074.006603898338653-.008806597658804.009906897414112-.008806597658804h.063853082543574Z"/>
    <path class="cls-16" d="M21.842386408432503,10.256246785405892c-.001100299756217.008806597658804-.001100299756217.018715594879723-.003302999075459.027522192539436-.017613195315789-.001100299756217-.036328790196421-.002200599512435-.055044385078872-.004403298829857-.013211996294558-.002202699317422-.018715594878813-.006605998147279-.015412595805174-.012109596733353.002200599510616-.007706297903496.006603898338653-.011009296976226.009906897414112-.011009296976226h.063853082545393Z"/>
    <path class="cls-5" d="M21.746937504483867,10.282998348154251c-.027522192540346.004403298829857-.053944085324474.008806597660623-.06495338230161-.026421892784128h.06495338230161c.007706297901677.0055056983947.011009296977136.011009296977136.007706297901677.017615295124415-.002202699317422.005503598586074-.005503598584255.008806597659714-.007706297901677.008806597659714"/>
    <path class="cls-16" d="M21.395198550320856,10.283330117928017c-.018715594880632,0-.035228490443842.001100299756217-.053944085324474.001100299756217-.022018593954272-.002200599512435-.025321593027911-.012109596733353-.009908997222738-.028622492292925h.064953382299791c.006605998149098.006605998147279.008808697468339.012109596729715.006605998149098.018715594876994-.002202699317422.005503598586074-.005503598584255.008806597659714-.007706297901677.008806597659714"/>
    <path class="cls-9" d="M21.746937504483867,10.282998348154251v-.026421892784128h.031925491368384c.001102399563024.007706297903496.00330299907364.015412595806993.005505698391062.023118893710489-.013211996294558.001100299756217-.025321593027911.002202699317422-.037431189759445.00330299907364"/>
    <path class="cls-21" d="M21.395198550320856,10.283330117928017c0-.008806597659714,0-.018715594880632.001100299752579-.027522192536708h.031927591178828c-.012111696541979.008806597656076-.022018593954272.018715594876994-.033027890931407.027522192536708"/>
    <path class="cls-8" d="M21.331786427599582,10.256246785405892c.004403298829857.008806597658804.007706297903496.018715594879723.009908997222738.027522192539436-.014312296050775.001100299756217-.02862459210337.00220269932106-.042936888154145.003302999074549-.007706297903496-.007706297904406-.008806597659714-.014312296051685-.006603898338653-.020916194390338.003300899265014-.006605998150917.005503598582436-.009908997223647.007706297903496-.009908997223647h.031925491366565Z"/>
    <path class="cls-14" d="M21.299860936233017,10.256246785405892c0,.009908997223647-.001100299756217.020916194392157-.001100299756217.030825191613985l-.030825191612166-.030825191613985h.031925491368384Z"/>
    <path class="cls-7" d="M16.991470310238583,26.598623707516708c.011009296977136-.026421892788676.020917244295561-.026421892788676.031926541272696,0h-.031926541272696Z"/>
    <path class="cls-1" d="M17.660709787920496,20.846947949718015c-.678157365200605-.001101349657802-1.072280957832845.336876508235036-1.239618912193691,1.073382307492466-.064952332397297.286234372080798-.071558330546395.577974442556297-.057246034493801.869714513028157.034127140783312.715587505060284.081466277863001,1.428973360703822.14862130957772,2.142359216347359.017614245220102.194860146902101.033026841027095.390821643462914.056146784641896.584580965653004.060549033565621.491003516207456-.20146614505029.846595619322215-.659441770321791.891732582033001-.176145601924873.004403823780194-.352290153945432.006605473195123-.486600217374871-.138713887211452-.089173625668991-.005504648487658-.138714412163608-.066054207007255-.191557147825733-.126604290479008-.586782090118504-.680359014614623-.936870594649008-1.477413847437674-1.147143337355374-2.338320712908171-.204767044315304-.84769696897547-.332473209406089-1.70970518410104-.389719243898071-2.579419697129197-.073761029863817-1.129528042230959-.394124642534734-2.177588756694604-.974300734504141-3.148586492123286-.042935838249832-.073761029863817-.099081572987416-.136512762750499-.147521009823322-.206969743634545-.06825638137343-.22128203968532-.202566444804688-.408435888683016-.321463912427134-.602195735827991-.227888037832599-.369903349263041-.407335588928618-.759623643066334-.478893919471375-1.191179475362333-.145319360406575-.876319461271123.061650383226151-1.666769345853936.626413879388565-2.352631959051905.541645652358056-.657240120908682,1.247325210099007-1.000722627290088,2.090617830343035-1.089895203054766.591186438850855-.06275068298055,1.152647985843942.049540786495527,1.701998886201181.246601532905515.214676041536222.077065078839041.433756431804795.139815761823229.642927824854269.234494035978969.074862379522528.144219060653995-.011008247074642.256510530130072-.085870626595351.363298401018255-.233391636418673.330270510085938-.438159730636471.677056015542803-.586781040212372,1.054666712614562-.136512762750499.343482506381406-.230089687249347.699074609496165-.239997634567771,1.066776309343368-.013210946390245.500911463522243.131007064357618.965493086941024.415040836927801,1.380533923865187.137613062503078.200364795390669.28733572173951.394123592632241.487700517129269.541645652359875.068256381375249.049540786494617.134310063431258.105686521230382.179447551094199.179446501188067.015412595806993.055045434983185-.017614245221921.09247662474445-.049540786492798.128806464847003-.037430139856951.039632839176193-.075962679276927.075961629372614-.11229251937948.115594468549716-.383114295653286.383115345556689-.765128291552173.765129341455577-1.147142287451061,1.148243637110681-.142016361332935.143117710991646-.259813529200983.301648017790285-.245501233150208.515223759572109.015412595806993.217979040611681.121099117037375.385315945070033.331371859745559.464581623418781.210272742708185.078164328693674.410637538097944.053944085323565.579075792213189-.101283222401435.206969743634545-.191558197729137.398527941364591-.396326291948753.598891686851857-.593388088264874.06825638137343-.068255331468208.131008114260112-.138713362259296.20476914412211-.20036479538976.034128190687625-.028623542199057.069356681129648-.093576924497029.129906764601401-.033026841025276.013210946392064.058348434055915-.02532159302973.100182922644308-.045137487664761.148622359480214-.181649200509128.452472026685427-.182750550167839.889530407661368.10788817064531,1.303470944832952.064953382299791.092475574841956.13320976367504.179447551094199.257611879787873.194860146901192.026422942686622.00330299907364.048439436834087.02091724429647.04733913707787.053944085323565"/>
    <path class="cls-10" d="M17.944742510586366,13.192579365321762c.129906764601401-.549351950263372.354491803360361-1.053566412858345.704578208082239-1.499431391493999.155228357629312-.194860146901192.320363612672736-.38091369614267.511920760498469-.542745952112455.298345018718464-.197062846218614.585680740457974-.412839187509235.910447651960567-.568067545141275.06825638137343-.033025791121872.144219060652176-.024219193462159.20476914412211-.067153981809497-.007706297901677.040732089026278-.016512895561391.081466277861182-.024219193464887.121098067134881-.042936888154145.217979040608043.002200599510616.314860014088481.19926344572923.424948784243497.035228490443842.019817994444566.081466277863001.030827291421701.080365978108603.084771376742538-.018715594880632.042934788347338-.060550083471753.056144684836909-.099081572987416.072659680205106-.492104865863439.211373042465311-.901641054300853.527333356305462-1.226407965803446.954482740060485-.432655082147903.574673543287645-.639624825780629,1.229710964875267-.602195735827991,1.940895171104785.055046484887498,1.034850817977713.540545352601839,1.840713298366609,1.412461515044924,2.404375444868492.413939487267271.266419527350081.873016462199303.401829890535737,1.36622162781714.433756431808433.832284373171206.053944085320836,1.558881175207716-.191557147827552,2.185296104500594-.739807748428575.035228490442023-.031925491369293.070459080694491-.067156081619032.123300766452303-.067156081619032.058347384152512.012111696541979.070459080694491.060550083471753.070459080694491.107890270453936.004403298828038.205868393972196.106787870890912.332472159501776.304951016865743.386417294728744.025319493219286.007706297903496.045137487664761.026420842877997.055044385077053.051741386003414.007706297903496.068256381375249-.038531489515663.106787870889093-.082568677424206.145319360406575-.461277574442647.395224942290952-.99081363006735.660543119978684-1.580897669355181.805862480388896-.722193503206654.168438254117063-1.433377709436172.133209763672312-2.132452318934156-.115594468549716-.733202800181971-.275226125008885-1.342002434350434-.719991853794454-1.799979109526248-1.359617729477577-.204769144123929-.28623542198693-.35228910404112-.603296035584208-.489902166544198-.926960547520139-.206969743634545-.606599034657847-.270822826179938-1.225307666049048-.166237654608267-1.859428893247241.011009296978955-.068256381371611.024221293275332-.135410363182018.074862379522528-.188254148750275"/>
    <path class="cls-3" d="M20.315542014453968,17.478291007523694c.710083906473301.256510530129162,1.433377709434353.277427774424723,2.165480209863745.123301816358435.049538686685992.13210841401451-.07706507884177.203666744560905-.107890270453936.309353265791287-.249904531978245.462379974003852-.497608464447694.925861297670053-.688065312519029,1.419066463287891-.202566444806507.526232006646751-.284032722667689,1.076684256663611-.343482506383225,1.633742504825932-.123300766452303,1.188976776044001-.227885938023974,2.382356850914221-.627515229049095,3.522894190122315-.216876641046838.618707581485069-.528433656061679,1.183472127551795-.959988438451546,1.679980292243272-.046237787420978.053944085324474-.095778573913776.099081048037078-.171741253192522.102384047109808-.15082295899083.132107889061444-.322564212183352.182750025214773-.519627058401966.138713887213271-.428251783318046-.081467327768223-.662743719491118-.365500575387159-.630818228122735-.79485318341267.049540786494617-.703477908326022.124403166017146-1.405855516895826.166237654606448-2.109333425221848.033025791124601-.521827657913491.102382472254249-1.048060714463645-.013211996296377-1.569889422280539-.049540786492798-.224583988856466-.137613062504897-.432655082149722-.265317127785238-.625313579635986-.159631656459169-.241097934318532-.37210499867615-.404032589853159-.659442820224285-.461279674247635-.299445318474682-.089172575769226-.555955848600206-.466783272837347-.575771743237055-.81797207712134-.016513945465704-.320362562769333.042934788345519-.618707581486888.193758797240662-.900539704643052-.016513945463885-.070458030790178.04073313893241-.104585171571671.078164328693674-.144218010746954.104585171571671-.108989520304021.214676041536222-.213575741782734.320363612672736-.323665561843882.252107231297487-.24880528212725.503112063031949-.499811163764207.75301869481882-.753018694817001.11119116971895-.112292519380389.228988337586998-.21908039027312.358895102190218-.311555965111438.249904531978245-.145319360405665.502011763275732-.097981273233017.754118994573219-.011009296977136.064953382299791.022017544051778.128806464847003.052843785568257.194860146901192.073759979957686.145319360408394.046238837323472.282932422911472.027523242443749.404030490044534-.071558330542757.0539461851331-.044036138006049.102384572062874-.093576924500667.173943952511763-.108989520307659"/>
    <path class="cls-4" d="M24.780039768014831,15.935042908037758c-.182750550169658.215776341290621-.324766911502593.464582673324912-.539442953038815.653937121831405-.044037187908543.038531489517482-.08476927693664.078164328693674-.126603765527761.117797167869867-.165135255043424-.063853082545393-.336876508232308-.117797167869867-.385316994970708-.322566311991977-.01651289556321-.073759979957686.027522192538527-.158529256897054-.036330890006866-.223482639195026-.009906897414112-.015412595806993-.012109596733353-.029724891860496-.005503598584255-.046237787419159.200363745483628-.219079340368808.394123592630422-.443664379127767.53393935445456-.711184206230428.124401066206701-.236694635492313.213575741780005-.485498867714341.273023425686915-.745312396917143.072659680203287-.285135122230713.066053682056008-.577974442552659.100181872743633-.866412563857011.038531489517482-.059447683910548.070459080694491-.01651289556321.102384572061055.007706297903496.223484739004562.170640953434486.328069910576232.164034955288116.518526758647567-.028622492296563.028622492294744-.028624592101551.052843785568257-.072659680201468.103484871817273-.034128190687625.020916194391248.628615528803493-.089172575764678,1.233011864143919-.350088504530504,1.805482708114141-.060550083471753.131007064355799-.129906764599582.259813529199164-.188254148752094.393023292876023"/>
    <path class="cls-11" d="M25.318382421297429,13.736975767064905c-.018715594880632.008806597659714-.042934788345519.011009296977136-.055044385078872.025321593027911-.214678141344848.281830023348448-.42054548541455.282932422913291-.64513052417351.005503598586074-.060550083469934-.023118893710489-.064953382299791-.078163278787542-.070459080692672-.131007064355799-.071557280640263-.612102633243921-.317060613599097-1.149344986770302-.711184206229518-1.621631858189176-.038531489517482-.045137487662032-.097979173424392-.086971976256791-.07926357854376-.162934655531899-.129906764599582-.310454615449999.164034955289026-.59008403928965.449167977709294-.478892869566153.341279807063984.279629423836013.552654949335192.652834722265652.757421993648677,1.03484871816454.223484739004562.417244586151355.287335721741329.871916162443085.354491803360361,1.328792537864501"/>
    <path class="cls-12" d="M22.226821483753156,10.317787978580782c-.052843785568257-.005503598586074-.11119116971895.023118893710489-.157428957139928-.024219193466706.053944085322655-.002202699317422.111191169720769-.025321593027911.157428957139928.024219193466706"/>
    <path class="cls-3" d="M17.944742510586366,13.192579365321762c-.142016361332935.700174909252382-.081466277861182,1.387139922016104.134310063429439,2.064195937557088-.004403298828038.045137487664761-.028622492292925.080365978108603-.057247084396295.112291469476077-.15963165645735.170640953433576-.154125958064469.364400800582189-.073759979957686.5636642463096.080365978106784.1959604466565.125503465771544.394123592632241.103484871815454.605496635096642-.007706297903496.074862379522528-.033027890931407.145319360406575-.060550083469934.213575741782734-.023118893710489.068256381370702-.072659680203287.116695818206608-.121100166943506.165135255038876-.239995534755508.239997634565952-.478892869567062.479995269131905-.719990803887413.718890504133014-.04403613800423.044037187913091-.080365978106784.103485921721585-.15632865738371.095779623818089-.368803049506823-.307152666278853-.70567955774095-.64072617543934-.896135355907973-1.093198202128406-.159631656459169-.383115345557599-.24550228305452-.772835639356344-.20036479538976-1.20108742267621.080365978106784-.754118994576856.401829890532099-1.395946519674908.831183023512494-1.997039855941694.067155031714719-.093577974403161.104585171571671-.194860146897554.103484871815454-.310454615449999.28843707140004.062750682984188.575772793141368.132107364112017.875219161516725.069356681131467.075962679278746-.016514995371836.158529256896145-.0055056983947.237794935246711-.006605998147279"/>
    <path class="cls-13" d="M16.993232049731887,17.731608778533882c.330271559989342-.31155596510871.655038471491935-.629716878462204.958887088794654-.967694736355043.238897334809735-.206970793537039.633020927440157-.18054890075382.843293670148341.056145734735765.220181739929103.248804232225666.201466145048471.667148068227107-.017615295126234.813568778293302-.356692402869157.350087454625282-.714487205303158.700174909251473-1.072279907928532,1.050262363877664-.241097934320351.123301816354797-.477792569810845.1155955184513-.682560664030461-.059448733813042-.198163145974831-.170639903531992-.289538421058751-.390820593554963-.193759847144975-.656138771246333.029724891857768-.051742435909546.067155031714719-.097980223326886.097980223326886-.147521009821503.022018593954272-.029724891858677.044036138006049-.059448733813042.066054731960321-.08917362567081"/>
    <path class="cls-22" d="M16.86574636455407,17.94925709927702c-.070458030788359.393023292877842.082567627521712.682560664031371.401829890533918.756321693895188.147521009821503.034128190683987.292840370229897-.001101349662349.437059430882073-.02201859395791-.140916061578537.148622359483852-.284033772572002.296143369305355-.426050133904937.443664379126858-.290638720813149.287336771645641-.579075792215008.575773843044772-.873017512101796.858706265953515-.28733572173951.276326424766012-.732101450525079.217979040611681-.923658598350812-.122200466696086-.115595518454938-.206970793537039-.105686521232201-.419445185660152.033026841027095-.613203982901723.069356681127829-.097980223327795.159631656459169-.182750550168748.245502283052701-.269721476518498.355592103114759-.355592103114759.713385855644447-.70898255681459,1.070079308419736-1.064574659928439.031925491368384-.008807647563117.04403613800423,0,.035228490442023.033026841027095"/>
    <path class="cls-23" d="M16.86574636455407,17.94925709927702c-.011009296978955-.011009296976226-.023118893710489-.022018593953362-.035228490442023-.033026841027095.022017544049959-.042935838250742.055044385077053-.073761029864727.096878873668174-.095778573912867-.004403298829857.050641086247197-.022017544049959.094677224253246-.061650383226151.128805414939961"/>
    <path class="cls-1" d="M19.190747990922318,12.137582982745698c.057247084396295.059449783715536.129906764599582.034128190687625.19596044665559.033027890931407.601093336264967-.014312296050775,1.1988857732631.006603898338653,1.785666813477292.160731956213567.009908997220919.066053682054189-.045135387856135.092475574839227-.083668977182242.124401066204882-.23559223592747.199263445731049-.301645917981659.448067677956715-.222382339439719.742009397843503.015412595806993.060550083471753.045137487664761.119999867187289.02532159302973.186053549245116-.060550083471753.044037187908543-.110090869966371-.003302999077277-.162934655532808-.02201859395791-.198163145974831-.070456980884046-.405132889609376-.012109596729715-.509718061181047.144219060653995-.126603765525942.190456848071335-.11669686811365.386417294729654.042934788345519.55155254976853.28733572173951.297244718964066.58237984119296.586783140024636.876321561081568.878522160594002.143116661087333.142016361332935.312655214958795.161832255969784.498708764202092.101284272306657.051743485813859-.016514995371836.102384572062874-.066055781865543.160731956213567-.012111696541979.033027890933226.056146784641896.041834488591121.118897467621537.052843785568257.18165025041526.095778573913776.552654949333373.495405765128453.899438354979793,1.059070011440781.90934735220435.222382339439719.002200599508797.444764678881256.016512895559572.667147018320975-.015412595806993.042934788345519-.006605998150917.084771376743447-.006605998150917.117797167868048.029724891857768-.001100299756217.009906897412293-.002200599510616.019815894633211-.002200599510616.029722792050052-.419445185660152.402932290095123-.913750651034206.67155241695491-1.48291849593079.78494628599492-1.151547686087724.228987287682685-2.32951516515277-.170640953434486-3.078130561143553-1.19668307394295-.412839187512873-.564764546067636-.603293935773763-1.203289072095686-.570268144650981-1.896860083005777.030825191613985-.630818228124554.22128203968532-1.21539866882722.629717928368336-1.714107433028403"/>
    <path class="cls-24" d="M18.778238473374586,17.634068465126802c.091375275083919-.15963165645735.161832255969784-.322565262084936.123300766452303-.513021060254687-.070456980884046-.357794802433091-.467883572589926-.562562896651798-.803659781067836-.415041886830295-.047338087175376.020917244295561-.08807227601028.060550083471753-.145319360408394.058348434056825.106787870890912-.273024475591228.074862379522528-.539442953038815-.03632879019824-.803659781067836-.134312163238064-.321463912427134-.101284272304838-.460179374495056.162932555726002-.703477908326022.137613062503078.298345018716645.271923125932517.597790337189508.464582673323093.867512863614138.453571276539151.630817178217512,1.041454716316366,1.084390554565289,1.771354517426516,1.353010681424166-.234491936173072.274125825253577-.383114295655105.312657314771059-.707881207155879.17504425226798-.275226125007975-.114494168796227-.549351950259734-.155227307728637-.828981374097566-.01871559488427"/>
    <path class="cls-3" d="M23.694657053840274,16.130123534851009c-.24770393246763.04513748766567-.496508164691477.033027890932317-.745312396915324.030825191611257-.347885805211263-.005503598582436-.652836822078825-.116694768301386-.895035056153574-.377610697069031-.203666744559087-.219079340363351-.245501233148389-.495405765126634-.277428824325398-.77613758852749-.007706297903496-.082566577617399.058349483959319-.119997767378663.104587271380296-.166235554799641.317060613597278-.320363612670917.630818228122735-.642927824854269.955585139623508-.954484839868201.170638853627679-.162934655530989.32036151286411-.33247320940518.379811296579646-.565864845823853.110090869964552.033027890935045.187153848997696.117797167868957.26421682803084.191557147827552.363298401018255.344582806137623.718890504133014.697974309743586.985310031481276,1.128426692572248.013209896487751.020918294198054.037431189761264.03523059024883.056146784641896.052843785568257-.131009164164425.562561846749304-.38421669521631,1.054666712610924-.827881074343168,1.436680708508902"/>
    <path class="cls-19" d="M23.217084963940579,13.320283430600284c0,.173943952511763-.070456980882227.312657314771059-.194860146899373.435958081223362-.418342786095309.413939487265452-.831181973608182.833384672925604-1.245123560684078,1.250627159269243-.290638720813149.172841552946011-.476690170247821.150825058800365-.712284505983916-.083668977183152-.252107231299306-.251004831734463-.503114162842394-.50311206303013-.755221394138061-.755219294329436-.247701832660823-.247703932469449-.285133022422087-.478894969375688-.114492068987602-.704580307890865.154125958068107-.202566444804688.398526891462097-.226785638267756.686962912957824-.070456980884046.165135255043424.066053682054189.256510530127343.216878740855464.377610697069031.331372909651691.222382339439719.211373042460764.178347251339801.217979040611681.40072959077952-.003302999077277.230088637343215-.228988337585179.45687427561279-.460179374495056.688065312519029-.686965012761902.071559380448889-.070456980884046.144216960843551-.143116661090062.258711129637959-.129906764600491.378713096633874-.01320989648957.505316862157997.073759979957686.609902033729668.416142186582874"/>
    <path class="cls-3" d="M22.607735179897645,12.904032053965238c-.112291469475167.050641086247197-.204769144123929.125503465770635-.290638720814968.213575741781824-.256510530127343.260913828955381-.516324059328326.516324059328326-.77283458945567.77613758852749-.057247084396295.058347384154331-.095778573913776.083668977182242-.164034955287207.009906897415931-.161832255969784-.175042152459355-.331372909649872-.341279807063984-.497608464449513-.510818360937265-.055046484885679-.175044252264343-.113393869038191-.346785505455045-.083668977180423-.537242353526381.037431189761264-.239995534757327.202566444804688-.383114295655105.373205298430548-.524030357231823.503114162842394.128806464843365.990815729875976.297244718960428,1.435580408757232.572470843970223"/>
    <path class="cls-20" d="M32.625746070230889,14.611315108742019c-.210272742708185-.231188937101251-.405132889607557-.475589870493422-.754118994575038-.51412345981953-.454673676102175-.049538686685992-.757421993648677.188256248562539-1.009529224946164.516326159136952-.276328524572818.358893002379773-.539445052847441.728797401545307-.845496369469402,1.146039887888037-.155226257820686-.520727358158183-.275226125007975-.97099773543232-.423846384679564-1.412459415238118-.369904399165534-1.092097902372188-.877421860835966-2.114837023807922-1.520349685692054-3.079230860897951-.52843365605986-.793750783846917-1.130629391887851-1.519247286127211-1.825300702555978-2.1610748112289-.738706398768045-.683662013689172-1.525853284276309-1.305671544345387-2.419788040673666-1.801079409280646-.635221526952591-.35228910404112-1.273746052977003-.68476231344539-1.950802068520716-.936869544744695-.84989966829562-.317060613597278-1.720713431177501-.555957948410651-2.624557184795776-.685862613201607-1.049161014218043-.151925358553854-2.099424428002749-.198163145974831-3.149686791879503-.086974076060869-.570269194557113.059449783715536-1.140537339206276.127706165087147-1.69979618688194.282932422909653-.463482373568695.128806464843365-.931365946158621.232291336662456-1.388240221771412.390822693362679-.890631757323717.309354315698329-1.733925427472059.715587505060284-2.524375312053962,1.218701667902678-.963291437527005.614303232752718-1.857226193924362,1.321084140152379-2.632261382890647,2.169881408884976-1.099804200275685,1.202188772338559-1.990435957599402,2.540888207615353-2.565107401082059,4.066741491889843-.527333356303643,1.399249518748547-.814671177853597,2.522172612734721-.901641054300853,4.355178563291702-.015412595806993.611002333486795.044035088101737,1.269342754148965.074860279715722,1.490624793834286.112293569283793.260914878861513.315960313842879.411737837854162.607699334410427.500911463521334.553755249089591.168438254116154,1.237417262780582-.259813529202802,1.204389371849174-.834486022587953-.055044385077053-.962190087866475.029724891857768-1.908967579926866.182750550169658-2.853543422574148.113393869036372-.696874009987368.339079207551549-1.359617729478487.59669003743511-2.014655151066108.363298401018255-.930265646402404.866412563857011-1.784566513721074,1.454296003636045-2.583822995959054.394123592628603-.536139953965176.867512863613229-1.010631624511007,1.347506032934689-1.47631249778351.549351950259734-.532839054700162,1.184573477212325-.956687539186532,1.819795004164916-1.366223727625766.46898597215295-.30054561822908.991916029630374-.526233056549245,1.519249385935836-.734303099940007,1.054666712610924-.415039787021669,2.142359216346449-.651734422511254,3.265282310332623-.753018694817001,1.330993137375117-.119997767378663,2.63006078338185.025321593027911,3.919219432165846.386417294725106.72989980111015.205869443878328,1.425671411530857.488801866791619,2.086214531513178.830081673856512,1.076685306565196.56036124723596,2.03116804662568,1.303470944832952,2.88106771492312,2.183093405178624.761825292478534.787146885508264,1.370624926646997,1.679981342148494,1.872638789733173,2.637767081287166.34678340564642.661643419734901.608799634166644,1.371727326208202.809163379652091,2.098324128244712.005503598584255.022018593954272-.013209896487751.05174348581204-.030825191612166.122200466696086-.308254015941202-.233391636418673-.599993036510568-.455773975857483-.891732057079935-.674853316224471-.663846119054142-.498710864008899-1.391543220845051-.126603765525942-1.555578176134077.509718061181047-.121100166941687.466783272833709.11669686811365.773936989022332.441461679805798,1.024941820753156,1.139435989549384.881825159667642,2.294286674710747,1.746035024207231,3.438125963088169,2.623455835138884.169538553873281.129906764599582.270822826178119.089173625669901.385316994972527-.068255331468208.423848484490009-.587883439778125.845494269658957-1.177968528970268,1.285855649710356-1.753741322111637.467883572589926-.612102633239374.911547951714965-1.244023260926042,1.415762414311757-1.828601601820992.106787870889093-.123302866260929.121100166941687-.288438121305262.172843652753727-.437060480784567-.022018593956091-.165135255043424-.044037187908543-.331372909651691-.067156081619032-.497608464447694"/>
    <path class="cls-2" d="M2.26135626472751,18.225597688852758c-.669788577655709-.052680000492728-1.125631847200566-.599906944353279-1.071876744659676-1.282596746619674.025264898195019-.325755921396194.153739593266437-.609582862809475.38219877906522-.792350211449957l.100522041750082.113960817387124c-.210182450933644.180617144535063-.306404084481983.413914289561944-.32736857447162.683764904315467-.046229388184656.587005719742592.35155837061393,1.06435103030617.929963273951216,1.110580418488098.577329801286396.045154286133766,1.044999193389231-.364459595224616,1.091228581573887-.95254041701628.020964489991457-.268775512704451-.041928979981094-.514973882342019-.219858369391659-.72676898635109l.115573470464369-.096759184572875c.198356328373848.217170614264433.28275183936239.517124086440163.257486941167372.842880007835447-.05375510254089.682689802267305-.588080821793483,1.152509398471011-1.257869399449191,1.09982939798374Z"/>
    <path class="cls-2" d="M2.698922799407228,15.633526644343874l-1.284746950719637-.328981227548866.041391428956558-.162340409670833,1.278296338414293.326831023445266c.559053066423076.14298857275935.889109396022832-.059130612794434,1.007908172636235-.524649800794577.118798776617041-.465519188004691-.074719592530528-.796650619653519-.633772658951784-.93963919241196l-1.278296338416112-.325755921393466.041928979981094-.163415511723542,1.284746950719637.327906125497975c.63861061818352.163415511719904.875670620387609.588080821794392.734294700705505,1.142833480010268-.141913470706641.554752658219513-.553140005142268.810626946313278-1.191750623325788.647211434589735Z"/>
    <path class="cls-2" d="M2.229640754228967,12.574861309783046l.06181836792166-.155889797366399,2.144828591370242.842880007837266-.06181836792166.156964899418199-2.144828591370242-.843955109889066Z"/>
  </g>
  <path class="cls-2" d="M2.67795830941759,11.462130687193167l.440791840832389-.798800823751662c.353171023692994-.639685720234411,1.013283682890687-.839654701684594,1.60136450468417-.514973882338381.588080821795302.324680819343484.769773068381255.989093886746559.41660204469008,1.628779606977332l-.440791840832389.7988008237553-2.01796654937425-1.113805724642589ZM4.998028535070262,11.71585477118515c.315004900887288-.570879188981053.153739593266437-1.137457969758543-.359084084971983-1.420209809122753-.5128236782366-.283826941413281-1.078327356965019-.118261225587048-1.393332257852308.452617963394005l-.353708574715711.639685720230773,1.752416342822471.967591845732386.35370857471753-.639685720234411Z"/>
  <path class="cls-2" d="M6.393510997022531,8.842106989363856l-.838579599632794,1.040698785189306.321455513192632.635385312027211-.113423266360769.140838368656659-1.130469806428664-2.271690633365324.105360000979999-.131162450196825,2.460908594308421.621408985366543-.113960817385305.140838368658478-.69129061867352-.176316736336048ZM6.244071811961476,8.802328213486362l-1.41590940091919-.363384493175545.657424904069558,1.304098787633848.758484496849633-.940714294458303Z"/>
  <path class="cls-2" d="M5.932829768251395,6.904773093800031l.688065312519029-.59883184229966c.550989801040487-.479495514660812,1.239055113559516-.441866942885099,1.679846954393724.065581225098867.441329391858744.506373065931257.383811432138828,1.194438378453924-.167178368901659,1.673933893115645l-.688065312520848.59883184229966-1.512668585490246-1.739515118214513ZM8.023903257078928,7.939021266684904c.491859188246963-.427890616225341.535400821305302-1.014896335967023.150514287113765-1.456763278853032-.384348983165182-.441866942881461-.972429804958665-.480570616708974-1.464288993205628-.052680000488181l-.551527352066842.479495514660812,1.313774706093682,1.509443279341212.551527352065023-.479495514660812Z"/>
  <path class="cls-2" d="M8.671652242694108,6.103822065947497c-.33758204395599-.578404903335468-.148364083013803-1.267545317907206.446167351085023-1.614803280321212.591306127947973-.345107758308586,1.284746950721456-.175241634278791,1.623404096726517.405313473158458.338657146006881.579480005387268.146213878910203,1.267545317906297-.445092249035952,1.613728178268502-.594531434098826.346182860361296-1.287434705845953.172016328127938-1.624479198775589-.404238371105748ZM10.593934709544556,4.981415524897784c-.294577961922187-.503147759776766-.892334702173684-.653662046890531-1.398707768104941-.359084084968345-.508523270034857.297803268073039-.673013883810199.893409804222756-.378435921886194,1.39655756400316.293502859871296.503147759781314.892334702173684.652586944845098,1.400857972208541.35585877882113.506373065931257-.295653063974896.66978857765389-.890184498075541.376285717782594-1.393332257855945Z"/>
  <path class="cls-2" d="M11.748056761092812,3.258026937449358l.509598372083929-.15911510352089.555290209244049,1.78681960844915,1.104129806182755-.342957554210443.129012246097773.414989391614654-1.613728178268502.502072657727695-.684302455340003-2.201809000060166Z"/>
  <path class="cls-2" d="M13.886972291182246,3.789127350549279c-.094608980471094-.678389394062833.36284694214919-1.253568991247448,1.083702867217653-1.354628584023885.717093067891255-.099984490723728,1.319150216346316.324680819347122,1.413759196817409,1.006295519560808.095684082521984.681614700213686-.367147350350933,1.25464409329652-1.084240418242189,1.354628584023885-.720855925070282.101059592776437-1.31861266532178-.327906125497975-1.413221645792873-1.006295519560808ZM15.850108635962897,3.514976327592194c-.060743265870769-.433266126477974-.409076330332027-.686990210469958-.816540007590447-.630009801774577-.407463677256601.056980408691743-.67301388380838.396712656750424-.612270617937611.82997878322567.060205714846234.433266126477974.40853877930931.686990210469958.816002456565911.630009801774577.40746367725842-.056980408691743.67301388380838-.396712656747695.612808168962147-.82997878322567Z"/>
  <path class="cls-2" d="M16.765558032229819,3.439719184037131c.029565306398581-.694515924824373.58485551564263-1.168635929232551,1.300873481482995-1.137457969758543.398862860851295.017201632810611.725156333272025.175241634278791.931038376003926.448317555186804l-.355321227792956.301028574226621c-.147288980962912-.183842450688644-.338119594980526-.284902043465991-.568191433854736-.294577961921277-.431115922376193-.018276734863321-.749346129416153.270925716802594-.767622864279474.70526694532964-.018814285889675.434341228530684.27361347193073.749346129417972.704729394306923.767622864281293.230071838872391.009675918459834.428965718272593-.073106939453282.591306127946154-.24727347168664l.328443676522511.330056329599756c-.228459185796964.256949390142836-.567116331802026.388111840345118-.969204498805993.37091020752996-.712792659689512-.031177959474007-1.225616337926112-.550452250015951-1.19605103152935-1.243893072787614Z"/>
  <path class="cls-2" d="M20.728921742549574,4.559975520981425l-1.046074295440121-.223621226567047-.302103676278421.440791840832389-.535400821305302-.115035919436195,1.487941238323401-2.038393488339352.5149738823402.110735511232633.525724902845468,2.469509410715546-.548302045912351-.117186123541615-.096759184572875-.526800004896359ZM20.650439292840019,4.129934700657031l-.173091430180648-.939639192408322-.541851433610645.785899599140976.714942863791293.153739593267346Z"/>
  <path class="cls-2" d="M22.324373185952936,3.134390201606038l.497772249525951.191368165044878-.67193878175749,1.745965730518947,1.0783273569632.414989391611016-.155889797366399.405313473157548-1.576099606489151-.606357556658622.827828579123889-2.151279203673766Z"/>
  <path class="cls-2" d="M24.34072708225176,3.980495515593248l.474120004408178.242973063483078-1.054675111847246,2.049144508848258-.474120004408178-.242973063483078,1.054675111847246-2.049144508848258Z"/>
  <path class="cls-2" d="M25.982945464866134,7.168173096252758l-.241897961432187.360159187021054-1.673933893114736-1.122406541049713.192443267094859-.287052247563224,1.899705323785383-.562278372574838-1.027797560576801-.689140414571739.241897961434006-.361234289073764,1.610502872115831,1.081552663115872-.192443267096678.2859771455187-1.896480017630893.564428576675709,1.088003275421215.729994292501942Z"/>
  <path class="cls-2" d="M27.378965477844758,8.371212291110169l-.778373884786561-.734294700705505-.4875587800434.219320818367123-.397787758800405-.376285717786232,2.329208593082512-.970817151878691.382736330089756.362309391121926-.831591436302915,2.383501246647938-.407463677256601-.383811432140647.190830614017614-.499922453625913ZM27.53431772418844,7.961598409751787l.340269799080488-.892334702173684-.871370212182228.390262044442352.53110041310174.502072657731333Z"/>
  <path class="cls-2" d="M29.529169579469453,8.005677593832843l.619796332292026.842880007839995c.446704902113197.607432658707694.387036738293318,1.293347767124942-.175241634282429,1.707262056686886-.562278372573928.412839187512873-1.235292256382309.26555020654996-1.681459607469151-.341882452156824l-.620333883318381-.842880007837266,1.857238792777935-1.365379604532791ZM28.629846713964071,9.933335570939562c.270388165779877.367684901379107.668713475606637.448317555186804,1.024034703399593.187067756841316s.397787758800405-.665488169453056.127399593020527-1.033173070832163l-.289202451667734-.393487350596843-1.151434296420121.846105313990847.289202451667734.393487350596843Z"/>
  <g>
    <path class="cls-2" d="M30.1693928507284,10.874049865397865c.618721230241135-.292427757820406,1.305173889684738-.026877551266807,1.616415933394819.630009801778215.309629390632836.654737148943241.084395510988543,1.355703686072957-.538088576431619,1.650281647995143-.621946536393807.294577961922187-1.306786542761984.024727347168664-1.616415933394819-.630009801774577-.311242043710081-.656887353045022-.08117020483769-1.356778788124757.538088576431619-1.650281647998781ZM31.01764836881739,12.666244984103287c.395637554698624-.187067756840406.533250617203521-.595606536149717.358008982921092-.967591845732386-.17631673633332-.370910207530869-.579480005388177-.522499596692796-.975117560086801-.33543183985239-.39617510572316.188142858893116-.534325719252593.595606536149717-.358008982919273.966516743679676.175241634282429.371985309582669.578942454361822.524649800798215.975117560084982.3365069419051Z"/>
    <g>
      <path class="cls-2" d="M25.574944236581359,22.13681894970523c0-.77622368068478.307479186534692-1.215940419468097.720855925070282-1.215940419468097.41552694263919,0,.720855925068463.439716738783318.720855925068463,1.215940419468097,0,.776223680685689-.305328982429273,1.215940419468097-.720855925068463,1.215940419468097-.41337673853559,0-.720855925070282-.439716738782408-.720855925070282-1.215940419468097ZM26.624781389200507,22.13681894970523c0-.534325719254412-.134387756352226-.755796741719678-.328981227548866-.755796741719678-.192443267094859,0-.326831023445266.221471022465266-.326831023445266.755796741719678s.134387756350407.755796741718768.326831023445266.755796741718768c.19459347119664,0,.328981227548866-.221471022464357.328981227548866-.755796741718768Z"/>
      <path class="cls-2" d="M27.663329970284394,23.010876917015594c0,.087083266113041-.009675918456196.150514287113765-.065043674074332.3354318398533l-.137075511476723.483795922863465h-.237597553230444l.105897552004535-.534325719253502c-.079557551760445-.043004082031985-.130087348146844-.147288980960184-.130087348146844-.284902043463262,0-.195668573247531.101059592774618-.322530615245341.233297145025062-.322530615245341.134387756352226,0,.230609389898746.131162450201373.230609389898746.322530615245341Z"/>
    </g>
    <g>
      <path class="cls-2" d="M29.088377738635245,22.868963446309863v.444017146982333h-1.270770624058059v-.352633472666639l.648824087664252-.856856334496115c.148901634038339-.197818777349312.175241634282429-.319305309090851.175241634282429-.433266126477974,0-.184917552738625-.091383674318422-.292427757820406-.268775512702632-.292427757820406-.144063674808422,0-.266625308600851.077407347660483-.348333064463077.235447349128663l-.2838269414151-.255874288092855c.130087348148663-.26555020654996.365534697277326-.436491432629737.668175924580282-.436491432629737.374673064707167,0,.624634291521943.268775512701723.624634291521943.695591026873444,0,.227921634774248-.04569183716012.436491432628827-.281139186286964.742895517112629l-.387036738293318.509598372086657h.723006129170244Z"/>
      <path class="cls-2" d="M29.251793250357878,22.13681894970523c0-.77622368068478.307479186534692-1.215940419468097.720855925070282-1.215940419468097.41552694263919,0,.720855925070282.439716738783318.720855925070282,1.215940419468097,0,.776223680685689-.305328982431092,1.215940419468097-.720855925070282,1.215940419468097-.41337673853559,0-.720855925070282-.439716738782408-.720855925070282-1.215940419468097ZM30.301630402977025,22.13681894970523c0-.534325719254412-.134387756352226-.755796741719678-.328981227548866-.755796741719678-.192443267094859,0-.326831023445266.221471022465266-.326831023445266.755796741719678s.134387756350407.755796741718768.326831023445266.755796741718768c.19459347119664,0,.328981227548866-.221471022464357.328981227548866-.755796741718768Z"/>
      <path class="cls-2" d="M30.857458163247429,21.583141393534788c0-.396712656747695.172553879154293-.649361638686969.417677146739152-.649361638686969.245123267586678,0,.41552694263919.249423675784783.41552694263919.649361638686969,0,.399937962903095-.170403675052512.648286536641535-.41552694263919.648286536641535-.245123267584859,0-.417677146739152-.252648981942912-.417677146739152-.648286536641535ZM31.45037694426901,21.583141393534788c0-.252648981939274-.069344082276075-.373060411631741-.175241634282429-.373060411631741-.103209796876399,0-.17524163428061.123636735847867-.17524163428061.373060411631741,0,.248348573739349.072031837404211.371985309582669.17524163428061.371985309582669.105897552006354,0,.175241634282429-.120411429688829.175241634282429-.371985309582669ZM32.277130421343827,20.961732408167336h.285439594490526l-1.148208990267449,2.351248185124859h-.285439594490526l1.148208990267449-2.351248185124859ZM32.000829194284961,22.691571607924743c0-.396712656751333.173091430180648-.648286536641535.41552694263919-.648286536641535.245123267584859,0,.417677146740971.251573879890202.417677146740971.648286536641535,0,.396712656747695-.172553879156112.648286536637897-.417677146740971.648286536637897-.242435512458542,0-.41552694263919-.251573879890202-.41552694263919-.648286536637897ZM32.59159777120658,22.691571607924743c0-.248348573739349-.06988163330243-.373060411630831-.175241634282429-.373060411630831-.103209796878218,0-.175241634282429.12041142968792-.175241634282429.373060411630831,0,.251573879891112.072031837404211.373060411631741.175241634282429.373060411631741.105360000979999,0,.175241634282429-.124711837896029.175241634282429-.373060411631741Z"/>
    </g>
    <g>
      <path class="cls-2" d="M2.40326973543597,22.307760175784097c0-.708492251483221.38918694239328-1.215940419467188.912761641138786-1.215940419467188.290815104744979,0,.533250617201702.147288980961093.691828169698056.416064493662816l-.249423675788421.322530615241703c-.112885715336233-.180617144535063-.254799186042874-.275226125006157-.423052656995424-.275226125006157-.314467349862753,0-.538088576431619.309629390633745-.538088576431619.752571435568825,0,.444017146983242.223621226568866.752571435567916.538088576431619.752571435567916.16825347095255,0,.31016694165919-.093533878421113.423052656995424-.278451431159738l.249423675788421.322530615245341c-.158577552496354.272000818851666-.401013064953077.42036490186365-.693978373799837.42036490186365-.521424494643725,0-.910611437037005-.507448167981238-.910611437037005-1.217015521517169Z"/>
      <path class="cls-2" d="M5.815106093687064,21.131598532197131v2.352323287173931h-.389186942395099v-.964366539577895h-.763860007100448v.964366539577895h-.389186942395099v-2.352323287173931h.389186942395099v.927813069851254h.763860007100448v-.927813069851254h.389186942395099Z"/>
      <path class="cls-2" d="M7.27724488279091,23.483921819371062l-.406388575207529-.816002456565911-.398325309824941.816002456565911h-.447242453137733l.622484087420162-1.195513480502996-.590768576921619-1.156809806670935h.44186694288328l.386499187266963.763322456074093.379511023937084-.763322456074093h.420364901867288l-.585930617693521,1.136382867706743.626784495623724,1.215940419467188h-.448855106213159Z"/>
    </g>
  </g>
  <path class="cls-2" d="M8.565217139663218,26.846841034313911l.433266126476155.28167673731059-1.213790215364497,1.8749779766149-.433266126477974-.28060163525879,1.213790215366316-1.8760530786667Z"/>
  <path class="cls-2" d="M11.165889000576499,28.290703088551709l-1.004682866483563,1.995389406307368-.379511023935265-.191368165043968-.384348983165182-1.712637566942249-.61012041383583,1.211640011263626-.455843269544857-.230071838876029,1.004682866483563-1.994314304254658.381661228038865.191368165043968.382736330087937,1.711562464894087.609582862811294-1.211640011264535.455843269543038.230071838872391Z"/>
  <path class="cls-2" d="M11.84911635386743,28.977693299021666l-.676239189961052-.23222204297781.136537960454007-.398862860849476,1.841649813040931.632160005876358-.136537960452188.397787758800405-.676239189962871-.2311469409251-.588618372819838,1.713712668994958-.489171433117008-.167715919927105.588618372818019-1.71371266899223Z"/>
  <path class="cls-2" d="M14.626104951115849,31.148324339607825l-.085470613039433.405313473158458-1.692210627978056-.356933880870201.461218779797491-2.185682469302265,1.652431852096925.349408166515786-.086008164063969.405313473158458-1.149284092318339-.241897961434006-.099984490725546.474120004408178,1.014896335966114.213945308110851-.082782857911297.393487350595933-1.014896335966114-.215020410162651-.106972654055426.507448167983966,1.189062868197652.250498777837493Z"/>
  <path class="cls-2" d="M17.326223751728321,29.553947998255353l-.153739593264618,2.228686551334249-.423590208019959-.029027755372226-1.018121642118786-1.429885727578949-.093533878422022,1.353553481971176-.509598372083929-.03547836767757.153739593264618-2.228686551330611.42681551417445.029027755369498,1.01543388699065,1.429885727578949.092996327395667-1.353553481972085.509598372083929.03547836767757Z"/>
  <path class="cls-2" d="M17.665955999786092,31.556863118917136l.153739593266437-.398862860849476c.195131022221176.126862041994173.481108167736238.206419593756436.74880857838798.191368165043968.305866533457447-.018276734863321.424665310072669-.126862041997811.416602044691899-.264475104500889-.023652245117773-.417139595713707-1.304636338660202-.056980408690833-1.351403277871214-.885884089868341-.021502041015992-.379511023937084.266087757576315-.711717557638622.900397967554454-.747195925312553.280601635262428-.016126530765177.571416740007407.035478367673932.785899599144614.153739593264618l-.137075511478542.399937962902186c-.21394530811267-.105360000979999-.430578371349839-.150514287113765-.62839714869915-.139763266604859-.305866533457447.017201632810611-.417139595716435.13868816455124-.409076330335665.279526533209719.023652245119592.410688983411092,1.304098787635667.05375510254089,1.350865726846678.871907763208583.020964489989638.37413551368445-.269850614755342.709567353535931-.907386130886152.746120823263482-.35370857471753.020426938965102-.71655551686672-.064506123046158-.922975110621337-.206419593756436Z"/>
  <path class="cls-2" d="M19.672633977625082,29.386232078331886l.512286127212064-.07310693945783.313929798838217,2.21148491852-.511748576187529.073106939453282-.314467349862753-2.211484918515453Z"/>
  <path class="cls-2" d="M22.687757679128481,28.758372480654543l-.411764085461982,2.399627777413116-.496159596448706.120411429688829-1.464826544231983-1.942709405816458.542926535659717-.132237552249535,1.036935928008461,1.390106951702364.29296530884676-1.713712668996777.499922453627732-.121486531741539Z"/>
  <path class="cls-2" d="M23.000612375913988,29.830249225314219c-.252648981941093-.614958373065747.039778775879313-1.265395113805425.692365720722592-1.533095524457167.649899189716962-.26662530860267,1.316462461219999-.011826122557977,1.569648994185627.606357556658622.252648981939274.61710857716389-.043541633058339,1.266470215854497-.693440822773482,1.533095524457167-.652586944843279.267700410651742-1.317000012244534.007525714354415-1.568573892134737-.606357556658622ZM24.777756065906942,29.101330034865896c-.161265307622671-.392412248548681-.548302045915989-.547226943866008-.917062049344167-.395637554699533-.369835105479069.151589389162837-.537551025405264.533250617201702-.376285717782594.925662865745835.160727756596316.393487350600481.54830204591417.548302045918717.91813715139142.396712656751333.368760003429998-.151589389162837.536475923356193-.533250617201702.375210615735341-.926737967797635Z"/>
</svg>