<?xml version="1.0" encoding="UTF-8"?>
<svg id="Capa_1" data-name="Capa 1" xmlns="http://www.w3.org/2000/svg" viewBox="0 0 34.015748031499243 34.015748031499243">
  <defs>
    <style>
      .cls-1 {
        fill: #d0dbf1;
      }

      .cls-2 {
        fill: #1d3a69;
      }

      .cls-3 {
        fill: #a18dc2;
      }

      .cls-4 {
        fill: #afdef3;
      }

      .cls-5 {
        fill: #e33338;
      }

      .cls-6 {
        fill: #d9a5cc;
      }

      .cls-7 {
        fill: #646887;
      }

      .cls-8 {
        fill: #e9465f;
      }

      .cls-9 {
        fill: #09a349;
      }

      .cls-10 {
        fill: #a0559c;
      }

      .cls-11 {
        fill: #fff;
      }

      .cls-12 {
        fill: #eeeded;
      }

      .cls-13 {
        fill: #6b8777;
      }

      .cls-14 {
        fill: #34bbdb;
      }

      .cls-15 {
        fill: #47c0f0;
      }

      .cls-16 {
        fill: #6a4695;
      }

      .cls-17 {
        fill: #b5b2b2;
      }

      .cls-18 {
        fill: #f0869f;
      }

      .cls-19 {
        fill: #ee718a;
      }

      .cls-20 {
        fill: #82cff1;
      }

      .cls-21 {
        fill: #f29cb3;
      }

      .cls-22 {
        fill: #cbe4d5;
      }

      .cls-23 {
        fill: #859da2;
      }

      .cls-24 {
        fill: #e7effa;
      }
    </style>
  </defs>
  <path class="cls-11" d="M0,17.007874015749621C0,7.614956225135757,7.614956225137576,0,17.00787401575144,0s17.007874015747802,7.614956225135757,17.007874015747802,17.007874015749621c0,9.392916740709552-7.614956225133938,17.007874015749621-17.007874015747802,17.007874015749621S0,26.400790756459173,0,17.007874015749621"/>
  <g>
    <path class="cls-2" d="M3.755091721615827,25.178045291768285c-.043484547546541-.179055413265814-.03873393565118-.35482108355427.014251835682444-.527298404823341.053168379947238-.172659929881775.152196613391425-.324124714855316.297449917554331-.454397142839298.145070695549293-.130453642637804.30621931292626-.21285612840984.483447246089781-.247204669397433.177227933163522-.034349934944657.352445777605681-.020280707875827.525837535906248.042022284672385.173390364341685.062486995122526.327779675066267.169188972248776.463166538211226.319740714150612.114193112198336.126982685004805.194950726479874.261821722308923.242455451461865.404701114483942.047503331023108.142695389603432.060659515018415.286487824851065.039646978724704.431558520401268l-.3964781509967-.037273066736816c.02521392838571-.201892641746781-.027771842947914-.376014834504531-.159505139845351-.52254779292798-.081488048741448-.090806663914009-.174120798799777-.153840090922131-.277717035523892-.189285677554835-.103778845334091-.035445586632704-.209019953545067-.041110635557743-.315904539285839-.016992358858261-.107067194354386.024300885314005-.20591281918496.077102654074224-.296536874482626.158590702815673-.090805269954217.081489442699421-.15384009092304.17412219275684-.189285677553926.277718429479137-.035445586632704.103778845336819-.041109241597951.209018559588003-.016809750244647.316085753944208.024118276700392.106885979699655.07692004546152.205731604526591.158409488160032.296354265868104.131731902938554.14653295842345.299825223501102.217424131688858.504824999610719.212492305138767l-.005482440308697.398123022487198c-.14781121872511.006760700611267-.290506608329451-.021377753523666-.427903560193954-.084593789146311s-.263283985183079-.158225485584808-.377294488764164-.285209564550314c-.134108602846027-.149456090214699-.223087786655014-.3137118419545-.266572334201555-.492583252646909"/>
    <polygon class="cls-2" points="7.561925143818371 26.236387668949646 6.280952198496379 27.733137086554052 5.934536687043874 27.4366029999901 6.459825003146761 26.822881931958364 5.779964767705678 26.241138280844098 5.254676451600972 26.85467534630061 4.908259546189583 26.558319686474533 6.189232491511575 25.061567480952363 6.535649396922963 25.358104355434989 6.030641788694993 25.948072363995379 6.710500630179013 26.530000017683051 7.215508238405164 25.939848006549255 7.561925143818371 26.236387668949646"/>
    <polygon class="cls-2" points="7.84837672573849 26.431848584382351 8.227679909261497 26.684718302704823 7.341176420175543 28.014839450538602 8.163001610766514 28.562601171854112 7.957088791581555 28.871745010530503 6.755776414895081 28.070932356236881 7.84837672573849 26.431848584382351"/>
    <path class="cls-2" d="M8.653319680219283,29.144163608313647c-.107067194356205-.152560436661588-.16717888353196-.318826277120024-.18069889079743-.498978736032768-.01333879260892-.179968456338429.023386448283418-.356281952469544.110172934759248-.52894327631202.086969095093082-.172661323841567.206643253641232-.307133749956847.359206478220585-.403785283494472.152561830620471-.096470318879256.321932017526706-.14708217822681.508295957248265-.152198007349398.186179937147244-.004931826550092.370533788152898.038551327038476.553242767666234.130455036597596s.32723184921997.21395317405495.43338600050447.365967178831852c.106154151282681.152198007349398.166447055113167.318463847808744.18069889079743.498978736031859.014067833108129.180333673567475-.022108187982667.35682838435423-.108894674460316.529489708195797-.086969095093082.172661323842476-.207009864829161.306949747385261-.360484738521336.403238851610695-.153292265076743.095921099077714-.322663845941861.146716960995946-.508113348631014.152198007349398-.185632111304585.005297043778228-.369620745079374-.037820892578566-.552147115980915-.129721814221739-.182708979516974-.091900921641354-.327597066449016-.2141343887115-.434664260805221-.366694825372178M9.580019367829664,29.233873226580727c.107797628812477-.005665048924129.207192473442774-.039097758921343.297997743396991-.100490496316525.090624055301305-.061571164132147.16352531728262-.14671417307909.218337174761473-.255610241497379.054813251439555-.108896068418289.079844571211652-.21815456614695.075093959316291-.32778106902424-.004933220508974-.109442500302976-.037090458123203-.209202562161408-.096835536109211-.299093395084128-.05974647194671-.089893620842304-.141599737915385-.160968796680208-.245561191866727-.213219951680912-.103961453947704-.052256730834415-.209750388004977-.07564178515895-.317548016817454-.070160738806408-.107797628812477.005665048925039-.207192473442774.039281761495658-.29799774339881.100671710972165-.090624055299486.061389949476506-.16352531728262.14653295842345-.218337174763292.255607453580524-.054813251435917.10889606841738-.079844571208014.21815456614695-.075093959316291.327597066449925.004933220510793.109626502875471.037090458123203.209202562160499.09683553611103.299093395084128.05974647194671.089893620841394.141599737915385.161150011335849.245561191866727.213403954254318.103961453951342.052256730834415.209750388006796.075641785158041.317548016819273.069976736233912"/>
    <path class="cls-2" d="M11.702310624843449,30.540662290528417l-.181429325255522-.642221951476131-.021195144907324-.007307132498681-.375467008661872-.128810165108007-.177958367621613.519258049950622-.431193303171312-.147993827338723.639116211073997-1.863447030894349.806476309258869.276622777791999c.164986186198803.056639337583874.298912180429397.133195559774322.401596768038871.230031095884442.10268179968989.096654321452661.169552795519849.206827256212819.200431772831507.330521592198238.031060191964571.123691548066745.022838622437121.254695804466792-.024667496503753.393188408017522-.047503331023108.138308600978235-.121684247267694.246290232365936-.222539960810536.32376089158879-.101036928204849.077470659221035-.221806738436499.121865461921516-.362493433281998.133011557200007l.212489517220092.742344442646754-.463166538209407-.158955920044718v-.000002787917765ZM12.082893462627908,29.07515427954786c-.048236553398965-.079112742792859-.137031734637276-.140870697415266-.266572334201555-.185265500118476l-.351532734535795-.120404593006242-.222721175468905.649529083974812.351348731963299.120588595580557c.129540599566099.044400378536011.237887448181937.049697422314239.324675328618468.016077921826763.086969095091263-.033800715143116.148175041995273-.101951365232708.183439413973247-.204998382151643.03581080386175-.104691888408524.029599323050206-.196595597967644-.018637230348759-.275524338188006"/>
    <polygon class="cls-2" points="14.764641756035417 29.238863599402976 14.378030046058484 31.170461280386917 13.931124038286725 31.081116879347974 14.089530738528993 30.289072226466487 13.211980647391101 30.113491952711229 13.053389944576338 30.905533817674041 12.606299934232084 30.816005414060783 12.99309564678515 28.884407733077751 13.44000165455509 28.973752134117603 13.287622432550052 29.735464241571208 14.165172523689762 29.911050091161997 14.3175517456948 29.149335195791537 14.764641756035417 29.238863599402976"/>
    <polygon class="cls-2" points="16.515194844419966 30.981211845763937 16.489066479001849 31.346261799647436 14.9676495648946 31.237552521720318 15.107787039936738 29.272697769561091 16.592846718294822 29.378669312230159 16.566718352878524 29.743538051457108 15.533683299330733 29.669725140360242 15.503353541820616 30.096533048866149 16.415618785134939 30.161577958550879 16.390404856747409 30.515300602499337 15.478139613433086 30.450258480733282 15.445615764634567 30.905020840803445 16.515194844419966 30.981211845763937"/>
    <polygon class="cls-2" points="18.18499031851934 31.295323753920457 17.679800101675937 30.633003703180293 17.243125752152991 31.336799606708155 16.720212741996875 31.359819443802735 17.40445697814539 30.326784390254033 16.670150102450862 29.390035653012092 17.187582066257164 29.367378245226973 17.66828878916931 29.985665922579756 18.084499822200087 29.327915269076584 18.576536642965948 29.306169510406107 17.932120600196868 30.286588191726878 18.710643851853092 31.272303916825877 18.18499031851934 31.295323753920457"/>
    <rect class="cls-2" x="18.832339977722839" y="29.227371144665842" width=".455944449265051" height="1.969998512559265" transform="translate(-3.705713315695249 2.684368137674507) rotate(-7.344287152500653)"/>
    <path class="cls-2" d="M19.526458291709787,29.175973750161575l.872071832704023-.201164995206454c.20828812513173-.04805255082465.401593980122925-.050793074000467.580098779626496-.00822156952654.178142370194109.042752719127748.328330288826692.126069641931281.450379753321613.249945192571431.121865461922425.12405676529761.204998382150734.282103824144542.249395972770799.473946022300879.044216375961696.192026200730652.038735329608244.370352573498167-.016808356285765.535335971777386-.055178468666782.164804971544072-.153840090921221.305488878468168-.295441222795489.42187329403896-.141598343956503.116384415570792-.316634973745749.198789689259684-.52492309887748.246658237512747l-.872069044786258.20116220728778-.44270461567794-1.919539936590809v.000005575834621ZM20.735079194850186,30.534779784016791c.192026200729742-.04421358804484.332712895573422-.133192771855647.422422513842321-.26638833162815.089528403612348-.133379562346818.113281463081876-.291421045360039.071075175839724-.474130024874285-.04220628724579-.182892982086742-.13264633997278-.314443670372384-.271688163325962-.395198496736157-.13886060870027-.080573611709951-.30439322678285-.098661622255349-.496238212856042-.054448034209599l-.405979374785602.093729795704348.274612689074274,1.18998367279255.405795372211287-.093545793130943v-.000002787917765Z"/>
    <rect class="cls-2" x="21.977753134473971" y="28.502050313133168" width=".455897041951971" height="1.969914820111626" transform="translate(-8.26450807494065 8.650906133297717) rotate(-18.6527380869694)"/>
    <polygon class="cls-2" points="24.108763589560112 27.635080442457365 24.917616598724635 29.431475262867934 24.576316916396536 29.585131351214841 23.189737645632704 28.897781374661463 23.680860029367977 29.988370202824626 23.270130042688834 30.173273273630002 22.461277033520673 28.376878453221252 22.805317239028227 28.222121137350769 24.189337201269154 28.910569553509049 23.698217605453465 27.819980725345886 24.108763589560112 27.635080442457365"/>
    <polygon class="cls-2" points="26.545186270153863 28.034572332573589 26.736300821770783 28.346640696998293 25.435776209073083 29.143433173855556 24.406396115729876 27.46379077416259 25.675857748545241 26.685997956964457 25.866969512242576 26.997882318815755 24.983938374751233 27.539067342092494 25.207389984676411 27.903752078746948 25.987376893166584 27.425785879010618 26.172642393285059 27.728169017073014 25.392658272714471 28.205954002154613 25.630910938123634 28.594759803425404 26.545186270153863 28.034572332573589"/>
    <path class="cls-2" d="M26.493935977636283,26.096487166920269l.670360405612882-.593073748965253c.160235574305261-.141599737916295.328692718137972-.236425185306871.505739436646763-.283929910289771.177043930589207-.047687333597423.348790817401095-.046225070721448.515237872514263.004568003279928.166265840458436.050610465387763.314808887602339.149821307443744.445261136279441.297449917554331.130455036598505.147444607539001.210847433649178.306952535302116.240811973932068.478150202310644.029964540279252.171381669581933.010778090130771.342030116788919-.058102994416913.511948129535995s-.183439413971428.325589765649966-.343674988276689.467372112179874l-.670357617696936.592889746391847-1.30527522459488-1.475374451997595ZM28.204641357215223,26.713495190011599c.147628610111497-.130452248679831.228935444196395-.275708340761412.243917714335112-.435578697836718.015163484795266-.159870357077125-.039465764068154-.31023949036171-.163709319856935-.450742182632894-.124240767867377-.140502692269365-.266753548856286-.213038737023453-.427354340390593-.217606740303381-.160419576877757-.004385394665405-.314624885026205.058648032341807-.462072280481152.189103068939403l-.312065576508758.276073557989548.809399441050118.914824551834499.311884361852208-.276073557990458Z"/>
    <path class="cls-2" d="M29.709578889332988,24.236052481185652l.271872165900277-.315720536715162.605677925241253.521633355900121c-.008768001414865.133743385615162-.042568716557071.267851988460279-.101767362661121.402691025764398-.059014643529736.134839037303209-.135205648490228.256158067340948-.228205009738303.364320913383381-.133376774429053.154937136567241-.286486430890363.265841899744373-.45914775473284.33253028695799-.172477321268161.066872389788841-.347695165713958.084777791718807-.525653533335571.054265425595077-.177958367619794-.030694974738253-.340750462526557-.109625108916589-.48856307521055-.236790402535917-.147812612683992-.127349296190914-.250310409801386-.276805386407432-.306949747384351-.448185662030482-.056642125502549-.171381669581933-.064314475224819-.348060382941185-.022657407784209-.530038927998248.041657067442429-.182161153671586.129724602140413-.351166123347866.26456224548383-.507748131403787.112548240709657-.130820253825732.236791796494799-.230578921726192.372727879444938-.299277397658443.135752080374004-.068515867317728.27698520710328-.103048410878728.423336950872908-.103231019492341l.013702615877264.397940413871765c-.204086733036092.009866441017039-.37108300795262.09025883807044-.500804822175269.240993188586799-.08203726854299.095192058578505-.135021645919551.19696081519578-.158958707959755.305306269853645-.023750271553581.108164240001315-.017173573516629.21395317405586.019916884604754.31773201939086.036906455550707.103594842763414.102316582462663.19586376955067.196227592823561.276621383834026.09245292936248.079660568636427.192575420531284.129905816796054.300557051916257.151282176359928.107981631388611.021012536293711.213769171485183.012606964193765.317365408203841-.025761754230189.103596236724115-.038368718423044.195865163512281-.104509279794001.276622777793818-.19823907549835.085689440833448-.099576059284118.141417129301772-.20755769067182.167361492145574-.323760891586971l-.437223569326306-.3765626603481Z"/>
    <path class="cls-12" d="M10.217855924642208,16.888903606586609c0-3.857535888874736,3.127063794087007-6.98459828900377,6.984599682962653-6.98459828900377,3.85753310095788,0,6.98459828900377,3.127062400129034,6.98459828900377,6.98459828900377,0,3.857534494917672-3.12706518804589,6.984598289005589-6.98459828900377,6.984598289005589-3.857535888875645,0-6.984599682962653-3.127063794087917-6.984599682962653-6.984598289005589"/>
    <path class="cls-16" d="M10.217855924642208,16.923144812740247c0-.102681799690799,2.9787047495156-.924506990279042,6.847749162981927-.890157055333475,3.868863198807958.034165932373071,7.121448808984496.787475255642676,7.121448808984496.890157055333475,0,3.857534494916763-3.12706518804589,6.98459828900377-6.98459828900377,6.98459828900377-3.857535888875645,0-6.984599682962653-3.127063794087007-6.984599682962653-6.98459828900377"/>
    <path class="cls-20" d="M21.487290078515798,9.469878029788561c.176862715932657.051707511033783.360118127333408.07564178515986.534424322664563.14068669484368.292151479816312.108893280500524.562013556998863.253600152779654.816709361462927.433019389316541.149089479029499.104691888407615.286486430892182.218338568721265.400314325859654.360118127332498-.02685879987439.026128365418117-.06029429778755.015896707172033-.092084924215669.017357576087306-.194950726476236.008770789330811-.29379635130681.114742331999878-.290506608325813.310423492936934.000730434456273.035994806434246.014982270140536.074546133471813-.021193750952079.102865802262386-.053168379947238.002010088718635-.084961794291303-.034899154748018-.119858161120646-.065775344141002-.719873825357354-.639116211073087-1.548275713981639-.831507629030966-2.479727407446262-.606229932960559-.08148804873781.019732882034987-.159321137272855.059017431447501-.246474234938432.053352382521552-.033251495342483-.016443139055809-.063765255421458-.03763689000516-.095555881849577-.056639337581146-.21175908276382-.126069641934009-.255975458725516-.301287486377987-.130636251249598-.514875443203891.19458550924719-.110172934761067.419681990662866-.123510333412924.62687446410564-.194217504104017.060475512445919-.020647319065574.137212949292007.028319668791482.19312185241688-.034533937518063h.056458122928234c.009682438443633.010962092703267.022289402635579.015166272713032.036541238319842.01461705291149h.027405231758166c.013521401224352,0,.027224017105254,0,.040745418327788-.00018121465564.014433050340813.000911649111913.026674797305532-.003654960208223.03636002366693-.014435838255849h.225826915871949c.016992358858261.018453227772625.039646978726523.013521401224352.060659515018415.01461705291149h.132099908085365c.02137496560681-.001279654261452.044213588047569.00420139209109.061389949480144-.01461705291149h.056455335006831c.010231658246994.010962092703267.020647319064665.022108187980848.030878977311659.033070280684115.044032373391019.023937062044752.096105101651119-.005481046350724.139772257813092.021377753523666"/>
    <path class="cls-22" d="M21.260203023806753,9.415449511004226c-.010415660821309.024848711157574-.032339846227842.027040014531849-.054994466092467.027589234333391-.010050443592263-.005665048925039-.013521401226171-.011511312505718-.010780878050355-.017906795888848.003105740406681-.006392695466275.006030266153175-.009682438444543.009317221216406-.009682438444543h.056458122926415Z"/>
    <path class="cls-3" d="M21.203744900880338,9.415449511004226c.000914437030588.009136006560766.001460868914364.018453227773534.001460868914364.027589234333391-.020098099263123-.000914437030588-.040377413182796-.002010088717725-.060659515018415-.002924525748313-.007125917840312-.006392695466275-.009133218642091-.012057744391313-.00602747823541-.017357576088216.003105740403043-.004931826549182.00602747823541-.007307132496862.008768001413046-.007307132496862h.056458122926415Z"/>
    <path class="cls-7" d="M21.147286777953923,9.415449511004226c-.000549219803361.008221569528359-.001460868918002.016443139056719-.002740523177636.024664708585078-.016261924400169-.001460868916183-.032705063456888-.002921737832366-.048966987857057-.004201392092909-.012057744390404-.002010088718635-.016808356283946-.005665048925039-.014249047764679-.011146095277581.002921737832366-.006211480808815.006211480807906-.009317221214587.009498435871137-.009317221214587h.056458122928234Z"/>
    <path class="cls-9" d="M21.062913234311054,9.439091053764059c-.023934274124258.00402017743636-.047687333595604.007675137642764-.056823340155461-.023569056897031h.056458122926415c.007125917842131.005115829122587.009501223790721.010231658245175.007307132496862.015528702024312-.002375305944952.005299831696902-.004566609321046.008040354872719-.006941915267817.008040354872719"/>
    <path class="cls-7" d="M20.751686821055046,9.439364269705948c-.015896707171123.000365217229046-.03160941176975.000549219803361-.047503331023108.000914437031497-.019732882034077-.002559308520176-.022473405209894-.010780878048536-.008589574674261-.024848711156665h.056458122928234c.006576698038771.005481046350724.008586786754677.010778090129861.006395483382221.016077921826763-.002375305946771.005297043778228-.004569397236992.007856352298404-.006760700613086.007856352298404"/>
    <path class="cls-5" d="M21.062913234311054,9.439091053764059c-.000184002572496-.007856352299314-.000184002572496-.015712704598627-.000365217229046-.023569056897031h.028319668792392c.001095651687137.006760700612176.002740523175817.013702615880902.004566609321046.020279313917854-.010778090130771.001098439606722-.021558968179306.00219409129204-.032521060884392.003289742979177"/>
    <path class="cls-10" d="M20.751686821055046,9.439364269705948c.000184002576134-.008040354872719.000365217230865-.015896707171123.000365217230865-.023934274125168h.028138454134023c-.009501223787083.008037566954044-.019002447577805.015893919252449-.028503671364888.023934274125168"/>
    <path class="cls-14" d="M20.695577187852905,9.415449511004226c.003836174861135.007856352299314.006760700609448.016261924400169.008586786754677.024848711157574-.012788178848496.000549219802451-.025579145614756.001279654260543-.038367324463252.001826086145229-.005481046351633-.006211480810634-.007125917842131-.012241746964719-.004750611895361-.018088010545398.002191303374275-.005662261008183.004385394664496-.008586786757405.006211480809725-.008586786757405h.028319668794211Z"/>
    <path class="cls-23" d="M20.667346732428996,9.415449511004226c0,.008952003985542-.000549219803361.017906795890667-.001460868916183.026858799876209-.008954791903307-.008952003985542-.017906795888848-.017906795890667-.026858799876209-.026858799876209h.028319668792392Z"/>
    <path class="cls-13" d="M16.856148824943375,23.87184029659511c.009317221216406-.023203839667985.01881844500349-.023203839667985.028319668794211,0h-.028319668794211Z"/>
    <path class="cls-1" d="M17.4481436497299,18.783907078812263c-.600380881462115-.001460868915274-.948625266977615.298728177857811-1.096803096892472.94899048420757-.057550986693968.253416150206249-.062850818390871.511401697651308-.050609071427971.769935070939027.030145754937621.632539513035226.072352042181592,1.264347197651659.131366685711328,1.894692619393936.016261924401988.172842538497207.029418108397294.345867685608937.050427856771421.517979789648962.053168379949057.43338600050447-.178504799503571.748193494147017-.583753739831081.787657864257199-.156399399440488.004568003279928-.311884361852208.006578091997653-.430462868713221-.121865461922425-.078566310909082-.004385394666315-.122963901527328-.058102994416913-.169920800668478-.112549634666721-.518162398262575-.60111270987818-.82894832050988-1.306185479749729-1.014032605969987-2.068082983734712-.181978545057063-.749654363060472-.294345571110171-1.512647518733502-.344773427879772-2.28185354917423-.065410126915594-.999599555636451-.348609602748184-1.926481851861354-.861656171888171-2.78539750057007-.038732541692298-.06504490968473-.088064746780219-.121135027465243-.130636251253236-.182708979514246-.061024732245642-.195681160937966-.179238021881247-.361581784167356-.284660344745134-.532960665831524-.201527424518645-.327597066449925-.360302129907723-.672186491759021-.423518165529458-1.053135940730499-.129175382337053-.776329160363275.054994466094286-1.474644017540413.554703636584236-2.082150816841931.477966199736329-.580832002001443,1.102649360473151-.884494794326201,1.8486487633254-.96360753711906.523462229961297-.055543685894918,1.019335225588293.043483153587658,1.505338992277757.218154566147859.189834897357287.068150650088683.384239191953384.124059553212646.568409040382903.207192473442774.066870995829959.128444947879871-.008952003987361.226741352904355-.07546057050422.321020368411155-.206643253641232.292881914274403-.38679292463712.599285229775887-.519258049951532.933277779608943-.120223378349692.303844006978579-.203172296005505.617919672203243-.21175908276382.943871867164489-.011876529733854.443984269938483.115837983687015.85434903938949.367062830520808,1.220862650105119.121684247264056.177774365048208.253965370007791.349156034628322.431558520400358.479611071227737.059561075413512.043485941503604.118213289631967.092999361245347.158406700240448.158590702813854.013156183995306.048782985283651-.015528702024312.081488048739629-.043483153587658.114558329425563-.033254283258429.033984717716521-.067785432858727.066870995829049-.099941276514073.101951365232708-.338377944497552.338561947071867-.677121106225968.676937103652563-1.014949830921978,1.015864267952566-.125704424701325.126066854014425-.229297873507676.266572334204284-.216325692083046.455492794526435.013337398651856.193305854990285.106517974552844.340569247872736.293063128929134.410545984106648.185268288034422.069795521577362.362496221197944.048417768054605.511585700223804-.089160398465538.182708979516974-.168825148979522.35317621206741-.350435688889775.530038928000067-.525288316105616.059929080562142-.059382648675637.116387203488557-.122963901527328.181064108026476-.177046718506972.030694974737344-.025760360270397.061208734819957-.082583700426767.115107549228924-.029050103248665.011511312506627.051523508458558-.023022625013255.088797969153347-.040196198528065.131550688283824-.160235574303442.400133111204013-.161515228563076.78692882375708.095739884423892,1.152712000014617.057918991842598.082218483197721.117482855172057.159137134700359.227837004591493.17247732126998.023203839666166.002740523175817.042571504473017.01899965965822.041841070014925.047868548251245"/>
    <path class="cls-15" d="M17.699460497849941,12.01287723121095c.115107549227105-.485641337380912.313710447995618-.931998125347491.623768723702597-1.325919755741779.13666651740823-.173388970381893.28319947583077-.337644722122604.452387054123392-.480341505684009.264197028252966-.174852627215841.517981183607844-.365233956455995.806112485988706-.503180128123859.060294297789369-.029050103248665.127346508274059-.021012536293711.180880105452161-.059198646103141-.007307132495043.035994806435156-.014614264995544.071986824951637-.021740182837675.107981631387702-.037820892577656.192575420531284.002191303374275.277353212249182.176129493560438.37528440004553.0314281971132.017722793316352.072170827525042.02704001453094.07125917841222.075276567929905-.017357576087306.038002107236025-.054082816981463.049513419742652-.088248749352715.064314475226638-.434848263379536.186910371606245-.797709701808344.466270884657206-1.084196132698708.843749375996595-.382226315314256.508845177048897-.56658016631809,1.087848304985528-.53296345374838,1.71673285781344.048966987857057.915736200947322.477419767852552,1.62866811103504,1.249366321470006,2.126916412608807.366513610717448.236242576691438.771943765699689.356281952470454,1.208802117796949.384601621262846.73668218163948.047687333594695,1.378904133116521-.170286017896615,1.933061337815161-.65519413290167.031790626428119-.027773236906796.061936381362102-.058468211645049.108528063272388-.059379860758781.052437945490965.010778090130771.062485601163644.053714811833743.063400038194231.095371879276172.003654960206404.182527764858605.094460230164259.294345571109261.268398420344965.342763339163866.022838622442578.00639548338313.040196198528065.022654619865534.04933220508974.045677244878789.007125917838493.06029429778846-.033619500489294.09446023016153-.072536044755907.127714513420869-.408719897961419.350435688889775-.877003659254115.584118957061946-1.398818229808967.713113124742449-.638934996417447.148724261797724-1.268184766471677.118394504288517-1.886834873133921-.101770150576158-.648801437435395-.244464146220707-1.186331500503002-.637106122355362-1.592126872716108-1.203321071444407-.181613327828018-.253234935551518-.311519144621343-.534059105436427-.432472957429127-.819815101869608-.183988633776607-.536250408808883-.2398975369033-1.083830915469662-.147628610113316-1.644930035436118.010047655672679-.060475512445009.021012536293711-.120039375777196.066140561371867-.166447055114077"/>
    <path class="cls-24" d="M19.796613100257673,15.804013282362575c.627788901139866.227106570133401,1.267270329441089.245743800480341,1.915703761729674.108346848615838.043301938931108.117480067257929-.067785432860546.180880105452161-.095190664622351.273698252043687-.221625523779949.409631547074241-.440878529532711.819815101868699-.608970456136376,1.255940231591012-.179603239108474.466092457918421-.25159006406102.952645444413065-.303297575093893,1.444863479831838-.110354149415798,1.052221503700821-.202804290858694,2.108279182261867-.556348508072915,3.116832135841832-.191476980928201.54648346101294-.466638889804017,1.047104280616622-.848134770660181,1.486337938661563-.041473064869933.047687333596514-.085508226176898.087151703706695-.152195219432542.090624055298576-.133379562346818.116203200914242-.285574781777541.160966008762443-.459878189190931.122597290339399-.378939360254662-.072353436139565-.58594783112494-.323213065743403-.558542599364955-.703613294913339.044581593190742-.622305066869558.109807717532021-1.243152052742516.147993827340542-1.86564112218548.028319668790573-.462253495138611.090624055299486-.927064904839426-.011692527161358-1.388586571561063-.043851158734469-.198789689259684-.122233467071055-.383140752346662-.234962922433624-.553607984897099-.141235914643403-.213403954253408-.3286955060521-.357561606730087-.583026093290755-.407989463503327-.265111465287191-.078931528137218-.492218035420592-.412193643512182-.509210394278853-.723163568332893-.015712704598627-.283564693059816.037639677926563-.548126938546375.171016452353797-.797522911313536-.01461705291149-.062304386508004.035445586632704-.091173275103756.068881084545865-.126253644506505.092818146591526-.097019538682616.189834897357287-.189834897355468.283199475832589-.286486430893092.223635612499493-.220348657437171.445079921624711-.44270461567703.665791008374072-.665793796291837.099210842055982-.100122491169714.202991081350774-.194217504103108.318095842661933-.275889555417052.22052987209463-.128626162533692.443984269937573-.086969095091263.667435879862751-.010231658246084.057918991844417.019732882034077.113097460511199.047138113794972.171381669582843.065410126912866.129905816793325.040926632984338.251224846831974.024664708583259.358657258417225-.063400038194231.047140901713647-.038551327037567.090077623415709-.083314134884859.153293659037445-.096470318881074"/>
    <path class="cls-20" d="M23.745938394064069,14.438923281835741c-.161696443219626.190749334388784-.286854436038993.411460421138145-.477235765278238.578640698627169-.038370112382836.03361671257062-.074911350702678.06942751643237-.112367026053107.104326671179479-.145434518819457-.05664212549982-.297632526169764-.104145456522929-.339838813415554-.285574781777541-.015163484795266-.065775344141912.024118276700392-.139956260386498-.032705063455069-.198421684113782-.008768001413046-.012425749537215-.010412872903544-.025763148188162-.004750611893542-.0398309812972.176862715932657-.194950726478964.348793605317042-.393191195937106.472303938728146-.628884552827003.109807717532021-.209748994047004.188920460323061-.430097651483266.241723623043072-.660493964596753.064314475226638-.25159006406102.058284209073463-.511036480421353.088432751928849-.766097502117191.034347147025983-.052072728262829.06230159858751-.014435838256759.090805269952398.007307132496862.197691249655691.150369133287313.289594959216629.145437306738131.457686885820294-.02539514304226.025395143040441-.025944362842893.047138113794063-.064130472653233.0922661388704-.029964540280162.018453227774444.555799288270464-.078747525563813,1.090223610933208-.310055487789214,1.596328264807198-.053168379949057.116568418143288-.114923546654609.230031095882623-.166265840458436.348060382941185"/>
    <path class="cls-4" d="M24.222226267296719,12.494442632800201c-.01626192439835.007307132495953-.038370112379198.010231658246084-.04805255082465.022838622439849-.190749334387874.248665538311798-.372543876870623.250494412373882-.57060034375354.00402017743545-.05444803420869-.020098099264032-.058100206500967-.068699869891134-.063581252848962-.115288763883655-.06321882354132-.542280674962967-.279363300969635-1.017141134294434-.628338120945045-1.434631821587573-.033981929798756-.040561415754382-.086785092516948-.076737436845178-.070525956034544-.144157652475769-.114558329427382-.274612689075184.145437306735403-.521633355898302.397576590601602-.423518165528549.302383138061487.247385884053074.488747077784865.576993039219815.669627183237026.91500576648923.198056466882917.369619351121401.255061021696747.771762551044048.313894450568114,1.175731837111016"/>
    <path class="cls-6" d="M21.487290078515798,9.469878029788561c-.046956899139332-.005115829122587-.09866162225444.02101253629462-.139772257813092-.021377753523666.048052550826469-.002375305945861.098845624828755-.022473405209894.139772257813092.021377753523666"/>
    <path class="cls-24" d="M17.699460497849941,12.01287723121095c-.125155204901603.619567331611506-.072536044755907,1.227620562800439.118759721517563,1.826540575345462-.004201392092.039465764069064-.02539514304226.070344741380723-.051158291231332.098115190370663-.140683906925915.151283570317901-.135752080377642.32303045712888-.064130472652323.499343953259995.070160738805498.172661323842476.110906157135105.34842560017114.090989272526713.535703976924196-.006941915267817.066140561370958-.029234105822979.127895728078329-.053168379949057.18910167498052-.020828533719396.059563863332187-.064860907110415.102319370378609-.107797628812477.145621309310627-.211943085336316.212673519795317-.42388617067445.425344251672868-.637290124926949.636556902552911-.038551327039386.038002107235116-.070891173265409.090805269955126-.137943383750098.084228571915446-.325770980305606-.271688163324143-.624499158162507-.566764168892405-.791679435651531-.966894492177744-.141963561187367-.339473596185599-.218154566147859-.684063021493785-.177774365047298-1.063002381748447.07089117326359-.666705445405569.354821083552451-1.234381263410796.735402527379847-1.766611494784229.059198646104051-.082951705573578.092084924215669-.172477321268161.091170487183263-.274428686499959.255063809614512.055359683321512.508845177049807.116933635373243.773772639760864.061205946902191.067604218205815-.014251835681534.14050548018713-.004385394664496.210847433652816-.005481046351633"/>
    <path class="cls-21" d="M16.857701695149444,16.028106113377362c.292335482388808-.275708340761412.579552347737263-.556532510644502.848318773230858-.855444691075718.211575080189505-.183620628627068.559454248477778-.160782006188128.745634185626841.048966987857966.195499946281416.220164654864675.178872804650382.589602791330435-.01479826756804.720239042583671-.3164537590892.309509055906346-.632904730262453.619018111809055-.949355701433888.928711170287897-.21230830256718.108344060698073-.422425301760086.102132579887439-.603489409784743-.053168379949057-.175583061674843-.150553135860719-.25579145615302-.344954642537232-.171197667008528-.580101567543352.025944362845621-.045496030223148.058833428875005-.086422663207486.086787880438351-.130639039169182.019364876885447-.026125577501261.038732541690479-.052435157574109.058100206499148-.078563522992226"/>
    <path class="cls-19" d="M16.744969451865472,16.220664806402056c-.062120383932779.347145945911507.073082476639684.603851839096933.355551518014181.669080751355068.129905816795144.029964540281071.258534767246601-.001095651687137.386976927207797-.019183662232535-.125885639359694.130817465907967-.25177127871757.261637719734608-.37765970599321.392639188215981-.257071110414472.253053720895878-.511948129535085.508479959819852-.771762551044958.758609154965598-.254330587236836.245013366023159-.648249429714269.193487069645926-.816890576119476-.107432411582522-.102500585036978-.183258199318516-.094095012931575-.370899005382853.028319668788754-.542280674964786.062120383936417-.086969095091263.14159834396014-.162245663022986.217605346348137-.238436667984388.31480888760052-.314990102256161.63144386134627-.628335333024552.947345612716163-.942229783594485.026858799878028-.007672349724999.038554114955332.000365217229046.030513760082613.02923410582207"/>
    <path class="cls-18" d="M16.744969451865472,16.220664806402056c-.010231658243356-.009682438442724-.020279313916035-.019548879458853-.030513760082613-.02923410582207.019002447575986-.03763689000607.047871336171738-.065410126912866.085143008947853-.084775003800132-.004020177437269.044762807847292-.019914096688808.08386335468731-.05462924886524.114009109622202"/>
    <path class="cls-1" d="M18.801705610241697,11.079652422040454c.050243854200744.052619160147515.115107549228924.029964540281071.172661323844295.028684886020528.532230231372523-.01242296161945,1.061354722340184.00639548338313,1.58006634040612.142512780988.009136006559856.05864942629978-.039830981299019.082037268542081-.07308526455563.109991720105427-.209564991473599.176678713358342-.26693755143242.3964781509967-.197688461737926.657020219044171.014249047764679.052987165293416.040558627835708.106155545242473.023019837093671.164255751740711-.054082816979644.039281761495658-.097749973141617-.003286955058684-.143792435246723-.019548879460672-.176313496134753-.061939169279867-.359387692875316-.010962092703267-.451656619663481.127346508274968-.112183023478792.168641146405207-.103412234147982.342032904705775.038186109806702.48838186055491.254149372582106.262552156767015.515240660433847.518892832722486.774503074220775.7765131629385.127530510846555.126618861733732.277169209675776.143427218019497.441790178647352.090074835497944.045861247452194-.01479826756713.090808057873801-.05883064095633.142147563758044-.011327309932312.02905289116643.049881424887644.03727446069388.105790328012517.046775684482782.161334013908345.084409786571996.488928292440505.437951215866633.79551282259763.936564734671265.80373439212417.196595597964915.003105740404862.394102845046291.015347487368672.590333225787617-.013153396077541.03763689000516-.005481046352543.075457782584635-.006211480809725.104326671178569.025944362843802-.000914437030588.008770789330811-.001460868918002.017722793316352-.002010088719544.026493582647163-.371083007954439.35682838435423-.808487791933658.594534617880527-1.312033137288381.694841111623646-1.018052783407256.202441861548323-2.060407846091039-.151283570317901-2.723277116632744-1.058982204310269-.364687524572219-.499159950688409-.533144668403111-1.064644465319361-.503545345351085-1.677816313547737.027040014529121-.558174594218144.195681160934328-1.075241340793582.556713725298323-1.516301084983752"/>
    <path class="cls-8" d="M18.436781112661265,15.941831209813245c.080392397052492-.14068669484368.143062000788632-.285209564550314.109261285646426-.453666708383935-.063218823539501-.316269756515794-.414203732232636-.497333864541361-.710921821369993-.366878827944674-.042387501900521.018637230347849-.078382308334767.053349594604697-.128991379764557.051339505887881.095006662046217-.241904837700531.066505778600913-.477416979934787-.031793414342246-.711284250681274-.119124938746609-.283929910288862-.089344401039853-.406528594588053.143792435248542-.621942637559187.121684247265875.264197028254785.240627971355934.52912449096857.41164442371155.767195941723003.401044760317745.558539811446281.921217247299865.959587359680881,1.566728941754263,1.197290805289413-.207192473442774.241723623044891-.338743161724778.275892343335727-.627058466679955.154938530526124-.242819274733847-.101770150576158-.485457334809325-.137946171667863-.73266200420403-.016992358857351"/>
    <path class="cls-24" d="M22.785804602497592,14.611400603104812c-.218338568720355.039281761495658-.439049655471536.029780537707666-.659030307762805.026858799875299-.30823218956175-.003836174862045-.577910264169986-.102681799690799-.792225867535308-.333627332603101-.180152458911834-.194401506677423-.217424131689768-.43868443824249-.24574380048216-.686803544670511-.006395483382221-.072717259409728.052253942918469-.106152757322889.093361790559356-.147628610111497.280093735425908-.282650256029228.557993379561594-.567675818003408.845213032827814-.843200156193234.150369133289132-.144341655050994.282834258603543-.294526785763992.336002638550781-.501172827322989.097016750765761.029783325624521.164986186200622.104691888407615.233502053517441.169736798092345.32138558564111.305307663813437.636375687896361.617192025664735.871519824986535.998138686719358.011695315077304.018821232920345.033254283256611.03142819711411.050062639544194.046956899139332-.116019198343565.497517867115675-.340569247875464.932363342576537-.732662004205849,1.270741287074998"/>
    <path class="cls-16" d="M22.363306814875614,12.125882690434992c.000184002574315.154389310722763-.062304386508913.27680399244764-.172293318693846.385516058292524-.369987356267302.366148393487492-.735221312725116.737231401441932-1.102284143244106,1.106485535334286-.25615946130165.152928441808399-.420961644924319.133925994231504-.629614987283276-.074180916242767-.22290517804322-.222171955666454-.44526113628126-.445077133707855-.667801097095435-.667801097093616-.219253005749124-.219066215259772-.252504501089788-.423702168101045-.101404933344384-.623035501327649.135936082948319-.179238021880337.352994997409041-.201711427091141.608056019103969-.06266960373614.145618521391953.058284209070735.226194921018759.191660983499787.33362733260401.293247131503449.197326032426645.186729156951515.157676265784175.192756635187834.35482108355427-.003654960207314.202988293433009-.202076644320186.404334503296923-.406160589440333.608421236334834-.607141582074291.063216035621736-.062304386508004.127711725503104-.127165293618418.229481876080172-.115107549227105.334722984291147-.011143307359816.446356787966579.06504490968382.53899093198379.368342484778623"/>
    <path class="cls-24" d="M21.824279639960878,11.757612691518261c-.099210842055982.044946810419788-.181429325255522.111452589019791-.257801544872564.189285677553926-.225829703789714.230580315684165-.456772448786069.456226016901383-.682967369808466.686438327439646-.050609071424333.051523508460377-.084777791715169.073082476638774-.144888086933861.008221569528359-.143062000790451-.154205308150267-.293431134075945-.301287486377078-.440694526958396-.451291402435345-.048233765483019-.154754527951809-.100306493743119-.307498967185893-.073631696443044-.475590893788649.033435497914979-.211577868109998.178872804652201-.338559159154102.330156374971921-.463714364055704.445077133708764.114193112196517.876270436878258.263101376567647,1.26982685004441.506651085757767"/>
    <path class="cls-17" d="M30.686250609160197,13.267958784127586c-.185998722494332-.204633164924417-.358476043760675-.421326862155183-.667251877290255-.454946362643568-.402508417151694-.043848370815795-.669445968582295.166449843032751-.892535149198011.456591234130428-.244464146220707.317911840089437-.477235765280057.64477847208218-.748923928606018,1.013670176662345-.136847732061142-.459880977110515-.242454057501163-.858550431479671-.374369963012214-1.2484518844376-.327231849221789-.967078494752059-.775782728482227-1.871671388339564-1.344738200747088-2.724372768320791-.468099758718381-.701604600155406-.999967560779623-1.343823763713772-1.614416275351687-1.911683584294224-.65446369843994-.605134281273422-1.350219247096902-1.154722088733251-2.140800243143531-1.593590529547328-.561832342342313-.311881573935352-1.126402419942679-.606043142472117-1.725322432488611-.828948320511699-.752029669009062-.279912520772086-1.522696568366882-.490757166504409-2.322048353744322-.606229932960559-.928343165140177-.134107208887144-1.857054335427165-.175399059100528-2.786858369483525-.077467871304179-.503548133270669.052987165293416-1.008557135457522.113827894967471-1.502966474248751.251040844258569-.409815549648556.113462677739335-.824197708618158.205185172644633-1.228166994686035.345687864913089-.787478043557712.273514249470281-1.534209274832392.632536725116552-2.233254566463074,1.077981863970308-.852153554140386.543011109421968-1.642553335532284,1.168424704614154-2.328442443169479,1.918993504707942-.972376932490079,1.063914030859451-1.760584016547,2.248232654727872-2.268879973795265,3.597721467368501-.466089670000656,1.23821743827375-.720055040008447,2.230509861412429-.79752569923221,3.852236057178743-.014433050337175.541001020703334.039100546840928,1.122747459735365.065775344142821,1.31842862067333.098845624826936.231491964796987.279728518198681.365052741800355.537530063069426.443616264790762.490391949275363.149092266944535,1.094975616786542-.229665878654487,1.065741510963562-.738692270358115-.048782985282742-.849960856806319.026128365419936-1.687863969220416.161697837182146-2.523759780834553.100123885127687-.616458803288879.300190440728329-1.202955854215361.527115796206999-1.782324199383766.322298628710996-.822190407815469.766646721920551-1.578605471489027,1.287001817516284-2.285141898193615.34897342601289-.47394602229997.767559764994076-.894726452571376,1.191811152897571-1.306186873707702.486005160650166-.471389501698468,1.047834715074714-.846308684515861,1.610762709104165-1.208071683338858.414566161542098-.266388331629059.876638442025069-.466638889803107,1.343458546483816-.650078303775445.932728559806492-.366697613290853,1.89505644266319-.576811824565993,2.888444517488097-.666156225605846,1.177376708599695-.105971542668158,2.325887316525041.021924185408352,3.466538784232398.342395334017056.645692909110949.181432113173287,1.262154500318502.431377305744718,1.845359020348042.734490878266115.952464229758334.494958558595499,1.797309257441157,1.152162780214894,2.549522929022714,1.930502029296804.673282143445249.696488771030999,1.212273075430858,1.485790112818904,1.65625734537025,2.333378451593489.306584530153486.585033394092534.53880971732724,1.213368727117086.715123213460174,1.855955895824081.005481046349814.019916884606573-.01059687547604.045677244878789-.02685879987439.107616414157746-.272602600358368-.206278036412186-.530222930574382-.401959197347423-.788754909905037-.596544706599161-.586862268153709-.441243746761756-1.230910305775978-.111452589019791-1.376347612515019.450742182632894-.107067194354386.413654512428366.103415022065747.684977458525282.39063188741784.906968199535186,1.008735562192669.779984120570589,2.02916643946628,1.544620753773415,3.041191744639946,2.320403482252914.150734350516359.11547276645706.240627971357753.079661962597129.341299682329918-.060294297789369.374737968162663-.519988484406895.748012279491377-1.041440625650466,1.136815292844403-1.55083223458405.413835727084006-.542099460307327.806661705792067-1.100639271754517,1.25320249633296-1.617524803675224.094825447389667-.109623714958616.107248409009117-.25579145615302.15310965646313-.386976927208707-.019916884610211-.14671417307909-.040014983871515-.293431134077764-.059929080562142-.440145307155944"/>
    <path class="cls-17" d="M17.987884531596137,26.819575461472596c-.042387501898702-.369803353692987-.042206287243971-.362496221196125-.468830193176473-.348425600170231-.302201923408575.010050443590444-.605680713157199.005662261006364-.907698633993277-.009682438443633-.151283570317901-.007672349724089-.20755769067182.044216375962606-.216144477428315.189285677553016-.024667496503753.424616605132542-.05280316272183.849049207692588-.087702317468938,1.272932590449273-.010231658246994.124059553213556.026312367990613.181248110598972.152379222005038.194950726479874.490026732046317.053898814406239.979320241714959.017722793315443,1.468797753961553-.003105740405772.113646680310922-.004750611893542.144522869704815-.072717259408819.135021645915913-.18471906823288-.029780537704937-.357561606730087-.049694634397383-.715853647918266-.0758229998155-1.111236147229647"/>
    <path class="cls-17" d="M10.91140065450054,24.27708923692262c-.031792020385183.026676191260776-.078199699722973.050793074001376-.10323101949507.088979183809897-.229116658849307.348790817401095-.542461889617698.626509246879323-.79935178537562.951731007382477-.114558329427382.144705478321157-.104874497024866.250129195146656.052620554104578.362493433280179.352993603450159.251955281291885.697583028759254.514691440629576,1.06793420829672.742528445221069.144340261093021.088795181237401.225280483989991.078747525563813.310604707590755-.067785432859637.213221345640704-.366516398634303.435396089225833-.727547569040325.654828915672624-1.090407613507523.037090458121384-.061024732247461.060478300363684-.118211895674904-.011511312506627-.171015058394005-.362676041895611-.26565929113076-.724805651903807-.531683799488746-1.088396130831825-.796246044972577-.017905401928147-.012972181421901-.046407679334152-.011693921120241-.083498137455535-.020280707877646"/>
    <path class="cls-17" d="M8.643946700647575,24.251618820101612c.042754113088449-.026676191262595.097200753338257-.050427856774149.139224431968614-.088066140739102.31096992482162-.277351818291208.618470285966396-.558541205405163.928892384941719-.836258240925417.104326671180388-.09318196986078.110539545950814-.171199060966501.015895313215879-.287035650693724-.233502053517441-.28557478177936-.4558580117573-.580832002001443-.672186491759931-.879744182429931-.092815358671942-.128078336691942-.182891588128768-.145070695550203-.310056881748096-.06102473224928-.341482290943532.22582830983265-.685341281794535.44800305341596-1.028103226999519.671638665915452-.113645286352039.073996913669362-.150186524671881.157860268357581-.069246301774911.287583476537293.252868324359952.405614157555647.574071301387448.757877326549533.867135824277284,1.132247289564475.029416714436593.037638283965862.060294297789369.081670657355062.128444947878961.060659515020234"/>
    <path class="cls-17" d="M24.521849366761671,23.147801322079431c.023934274126077.035445586632704.037455675352248.067785432859637.060840729673146.088613966580851.341848902133279.303478789751352.670360405614701.621941243600304,1.034863927614424.90020749892301.113281463081876.086421269249513.172661323840657.065591341568506.25780433278851-.032705063455978.306584530153486-.353908040482565.574985738419855-.73540392133873.842469721734233-1.118362065069959.0796619625944-.114193112197427.065775344142821-.185814719920018-.053168379949057-.257436327642608-.357561606730087-.214866217128474-.710372601566633-.437771395168966-1.067750205724224-.653185438141008-.105241108209157-.063582646809664-.221079091896172-.089527009653466-.301652703605214.03873393565209-.208653342358957.332531680917782-.465359235544383.628154118369821-.704342335411638.937480565659826-.023937062045661.031060191967299-.045677244877879.063765255422368-.06906508712018.096652927493778"/>
    <path class="cls-17" d="M19.961724742755905,27.788134340566103c.458963752158525-.091173275102847.886504883043017-.260907285276517,1.321534361079102-.407259029047054.147079390306317-.049332205085193.195497158360013-.141779558611233.137212949290188-.283929910287952-.15786026835849-.385516058294343-.317546622860391-.77011767955446-.478147414392879-1.154538086160755-.058649426302509-.14068669484459-.173572972955299-.131915905513779-.290141391100406-.096835536109211-.360670135052715.108896068418289-.719692610698985.223819615072898-1.081090392292026.329791157741056-.089709618268898.026309580072848-.152563224579353.045677244878789-.124789987672557.162061660448671.108528063272388.453847923037756.212854734450957.908794285680415.315355319486116,1.36410586555121.029780537706756.132462337397556.115288763883655.114193112197427.200066555602461.086603877864036"/>
    <path class="cls-17" d="M23.393475888949979,24.247289183791509c-.017722793316352.009136006558947-.049513419742652.020098099262214-.075276567929905.039099152881136-.307133749958666.228752835580963-.590333225789436.488381860555819-.925421427307811.681139889703445-.114009109624021.065592735527389-.183439413975066.162793488864736-.082034480627044.321385585638382.228386224393034.357193601583276.43649034695045.727362172508037.648068215057719,1.094974222828569.047868548253973.083132920230128.108893280503253.097200753339166.181794542484568.057372559958822.452752271352438-.247935103855525.844298595799046-.583388522603855,1.257038671194096-.888148360572814.071256390496274-.052620554105488.071437605152823-.123694335985419.013337398651856-.192392811917671-.300007832114716-.355003692168793-.599285229774978-.710372601565723-.900207498920281-1.064645859277334-.025579145616575-.030147148895594-.056458122928234-.06102473224928-.117298852603199-.048782985284561"/>
    <path class="cls-17" d="M14.924584598973524,26.399912986232266c-.00822156952745-.141051912072726-.053352382521552-.19074654646829-.148543047142084-.215048825741178-.379851009367485-.09683553611103-.764271415971962-.179968456339338-1.118178062495645-.360118127332498-.130636251251417-.066505778600003-.196960815197599.017541578659802-.241358405815845.128079730649006-.155484962409901.38606249017721-.309509055905437.772858202730276-.467188109605559,1.158009043794664-.0482337654812.118029287058562-.036906455548888.182162547629559.097565970565483.245378583252204.410364769450098.19275942310469.845578250058679.304758444010076,1.276955555804307.43046286871413.091354489757578.02685879987439.192391417960607.069976736233002.248119106427112-.065410126915594.181064108026476-.44032930972935.219250217833178-.916834640550405.35262699226223-1.321350358502059"/>
    <polygon class="cls-2" points="4.562465740400512 9.515756004748255 4.833971295109222 9.088217661782437 6.333464023809938 10.04049510105051 6.921787160878011 9.113796807399012 7.270030152434629 9.335238328607375 6.410201460654207 10.689296538484996 4.562465740400512 9.515756004748255"/>
    <path class="cls-2" d="M7.479997998027102,8.917000479350463c-.194401506676513.070891173264499-.390266670186975.088067534697075-.587226091423872.050611859346645-.197143423811212-.037271672777933-.375832225890917-.127530510848374-.536069194155061-.270408509064509-.160418182918875-.142512780988-.270591117679942-.309693058478842-.330337589626652-.501172827322989-.059927686601441-.19147698092911-.065591341568506-.387707361666799-.017540184699101-.589234786185443.048235159440082-.201346209862095.147812612682173-.386979715125563.299094789043011-.556713725301051.150918353087036-.169555583436704.323395674357016-.28959495921481.51724935519087-.359936912676858.193853680833854-.070160738808227.389536235728883-.086971883010847.587226091423872-.05042785677324.197873858271123.036541238318932.376929271536937.126069641931281.537164845844018.268947640148326.160418182917056.142877998217045.270044685792527.310239490362619.329241937937695.502630908321407.059014643529736.192210203304057.065044909682911.388621798697386.017540184702739.589237574103208-.047322116370196.200612987486238-.146898175657043.385516058292524-.297816528744079.555252856384868-.151282176360837.169736798093254-.323942106242612.290141391100406-.51852761549344.361213779019636M7.842492825266163,7.948095898454994c.025031319770278-.11729885260138.01754018470092-.233686056089937-.02229079659628-.348790817401095-.039829587338318-.114923546654609-.110538151988294-.217608134262264-.211576474150206-.307682969759298-.101220930773707-.090074835497035-.211393865534774-.148359044569588-.330337589626652-.174668624642436-.118761115476445-.026128365418117-.235146925004301-.020463316493078-.34879221135634.017904007971083-.113645286353858.038551327039386-.213586562867931.105790328012517-.299460006273875.202441861549232-.085873443405944.096470318881074-.141417129303591.203356298581639-.166447055114986.320655151182109-.025031319772097.11748006725702-.01754018470092.233502053516531.022473405209894.348609602744546.039829587338318.115288763885474.110355543374681.217786561000139.211576474150206.307864184415848.10140353938732.090256050151766.211393865534774.148175041995273.330154981011219.174852627215841.118761115476445.026309580073757.23514692500612.020279313918763.348973426014709-.018088010545398.113645286353858-.03818610980943.213587956826814-.105606325440021.299460006273875-.202260646893592.085873443405944-.096470318881074.141417129299953-.20353751323546.166265840458436-.32083636583684"/>
    <path class="cls-2" d="M9.164995987770453,7.20923914094692c-.201710033130439.034349934945567-.396112933765835.015531489942987-.583389916560918-.056639337582055-.18709437418147-.072170827525952-.347329948484912-.193671072218422-.480524114300351-.364687524571309-.133378168387935-.170832449780391-.212308302565361-.356100737815723-.23679179649298-.555068853812372-.024299491356942-.199154906488729.004750611891723-.392276758905609.087335706279191-.579555135658666.082766309042199-.187275588836201.212856128408021-.35025168631546.390266670186975-.488563075212369.149456090215608-.116749632798928.305488878468168-.195862375592696.467369324263927-.2375222309538.161697837176689-.041473064868114.322116020095564-.045128025075428.481254548754805-.010596875474221l-.071804216337114.436674349523855c-.221990741010814-.043667156161064-.419134164823845.001644871489589-.591611486090187.136120085523544-.106884585740772.083498137456445-.183987239815906.181245322681207-.231309356184283.293612348732495-.047322116368377.112001808823152-.061755166705552.228386224392125-.043301938932927.348790817399276.018635836389876.120404593007152.069611519005775.233867270746487.152927047849516.340753250446141.083315528843741.106883191782799.181064108024657.184169848430429.293248525462332.23112674756976.112183023480611.047687333595604.228568833008467.061939169278958.348790817402914.043483153587658.120405986965125-.018634442430994.234232487970075-.069611519005775.341118467671549-.152925653890634.172475927311098-.134656428688686.263830417068675-.315720536715162.274246077888165-.543195111994464l.441240958842172.036909243465743c-.004201392090181.164252963822946-.046407679334152.320105931379658-.127165293617509.467734541490245-.080573611709042.147444607539001-.195681160937966.279544515624366-.345137251151755.396112933768563-.176130887517502.137212949291097-.364868739226949.223086392697041-.566762774933522.257436327642608"/>
    <path class="cls-2" d="M11.522068952561312,5.24931900325555l-.895274278413126.481074728059866.051158291231332.505006214268178-.457320274630547.24556258582561-.176496104744729-2.389833786603958.440693132999513-.236975799068205,1.898163577028754,1.465145581670185-.468283761294515.25159006406102-.392640582176682-.321569588212697ZM11.199405106621271,4.986036412032263l-.702333640654615-.574071301390177.090806663914918.90258280487069.611526976739697-.328511503480513Z"/>
    <polygon class="cls-2" points="11.667596866627719 3.296689270553543 12.145747068938363 3.129692995636105 12.731329682834257 4.806594872152345 13.767470476786912 4.444650658674618 13.903590562307727 4.834368109059142 12.389296778126663 5.363127382799576 11.667596866627719 3.296689270553543"/>
    <rect class="cls-2" x="13.723644348641479" y="2.628727410216577" width=".506623900556962" height="2.188851735530775" transform="translate(-.482252651662138 3.337855683033924) rotate(-13.38956173724333)"/>
    <polygon class="cls-2" points="16.469152382311222 4.007190116338279 16.525061285436095 4.416094016873103 14.629090405740499 4.675356430660941 14.584508812549757 4.349953455501236 15.578080889947159 2.752891968319091 14.413127142968733 2.91221589351062 14.35721823984386 2.503495995547382 16.181932729043183 2.253916020204088 16.226514322235744 2.579137780708152 15.236050773160969 4.175647260170081 16.469152382311222 4.007190116338279"/>
    <polygon class="cls-2" points="18.321676351350106 4.076054473378463 18.310530256072525 4.482399065392201 16.616454806044203 4.436905823086818 16.675104232343074 2.24896467823055 18.328802269192238 2.293181054192246 18.317840176487152 2.699525646207803 17.167503482420216 2.66883067146955 17.154715303569901 3.143872345455748 18.170757998261251 3.171096362561002 18.160161122785212 3.565017992955291 17.144299642750411 3.537793975850946 17.130597026871328 4.044079844378757 18.321676351350106 4.076054473378463"/>
    <path class="cls-2" d="M18.904939417652713,2.343882126908284l.974569629823236.197326032426645c.23295283371408.047138113794063.429913648911679.133192771855647.590695655098898.258531979328836.160603579452072.124789987672557.274247471847048.278083646709092.340753250444322.459512971963704.066324563946182.181429325254612.07801709110754.379485792138439.034531149603936.59416940065239-.043483153587658.214499605938727-.131001468482282.39245797356034-.262733371420836.533693888205562-.131734690858138.141598343956503-.29599044259885.238617882639119-.492767255222134.291055828130993-.196776812625103.052803162719101-.411644423709731.055543685895827-.64459725742563.00822156952745l-.974569629823236-.19696081519669.434117828921444-2.145550855038891ZM19.503310210397103,4.274018938976042c.214499605939636.043301938931108.397757805256333.018272013117894.549771810034144-.075276567930814.151830002203496-.093729795704348.248484323657976-.242819274731119.28977617387136-.447271224998076.041291850213383-.204267947693552.010231658243356-.379120574910303-.093364578477122-.524373879074119-.103412234147982-.145253304163816-.262370942111374-.239897536899662-.476870548049192-.28319947583168l-.453666708383025-.091719706985714-.269128854804876,1.329937145260374.45348270580871.091903709560029Z"/>
    <path class="cls-2" d="M21.884774667831152,5.30122724436751c-.1156539811127-.159321137273764-.182708979515155-.336367855778917-.201346209863914-.531499796913522-.01881844500349-.194950726479874.016445926972665-.387526147012068.105241108210976-.578640698628078.088613966581761-.190930549042605.213587956828633-.34184890213146.374369963015852-.453666708382116.160968796679299-.11108458387389.339657598759004-.174119404838166.536069194153242-.188736457750565.196230380739507-.014251835682444.391911541677473.023569056897031.586497050926482.114193112196517.143789647330777.066686993254734.265292679941922.151280782401045.364868739228768.253781367435295.099392056708894.102500585035159.170651235122932.219069003178447.21358516890723.349158822546997l-.134288423543694.051704723115108c-.085873443404125-.230761530339805-.252688503664103-.403604068837922-.500442392863988-.518708830148171-.166263052540671-.077286656648539-.335088201520193-.109810505448877-.506285868528721-.097384755911662-.171381669581024.012241746963809-.326682629418428.06705221048469-.466089670000656.164436966395442-.139407040582228.097019538683526-.247388671970839.228021007163989-.323760891587881.39245797356125-.076372219617042.164439754315026-.106885979697836.331252026657239-.091354489755759.500623607520538.015712704596808.169187578290803.073815699013721.323576889013566.174852627214932.462437497712926.101036928201211.138676606125955.234597705202759.246839452167478.401047548233691.324126108816017.245741012566214.114193112196517.486003766693102.129356596991784.72042025724113.045128025076338l.047138113795882.135752080375823c-.127165293619328.051342293803827-.262736159342239.072170827525952-.406525806671198.062853606310455-.143976437821038-.009501223787993-.286854436038993-.047140901711828-.428636782567992-.112916245854649-.194766723907378-.09044005272608-.349886469088233-.215595257627683-.465359235544383-.375100397473943"/>
    <path class="cls-2" d="M24.724455715459044,6.366256442340273l-1.053498370039961-.708181298192358-.574620521190809.355735520584858-.14269399564364-.095923886994569,2.056752885880996-1.254663365250053.13246512531623.088979183810807-.38588127552066,2.378506476671646-.142696783561405-.096286316308579.110172934759248-.668166314321752ZM24.750218863646296,6.221549570060233l.227471787366085-1.369402909327619-1.179933229204835.729191046568303.95246144183875.640211862759315Z"/>
    <path class="cls-2" d="M25.969288882621186,8.288553629615308l.120039375779015-.890887489789748c-.063400038194231-.044946810420697-.118578506861013-.089712406186663-.165716620656895-.133925994231504l-.456042014329796-.42790634811081-.490207946701048.522001361044204-.116021986259511-.10907728307393,1.497847857208399-1.596147050151558.572245215245857.53716484584038c.200796990058734.188190025866788.313345230766572.383689972149114.338193941925056.585582613894985.024848711154846.202076644321096-.042022284673294.387342144437753-.200247770259011.555983290843869-.118397292206282.126069641931281-.250313197719152.201892641746781-.395382499309562.227290572706806-.145253304164726.025029925813215-.294161568535856-.001279654260543-.447090010344255-.078931528138128l-.125336419554515.933096564952393-.132281122743734-.124243555786961ZM26.019897954050975,7.161239560559807c.17010201532139.15968635450281.33545341874742.243917714335112.495688993052681.253050932977203.160419576877757.008954791904216.305488878468168-.055724900551468.435394695263312-.194217504103108.129724602138594-.138311388896.185084285461926-.287219653268039.166084625801886-.446540790541803-.019186450148482-.15950513984626-.113827894965652-.31901027969252-.283929910288862-.478880636767826l-.456042014327977-.42790634811081-.813238403830837.866406783779894.456042014329796.42808756276645Z"/>
    <polygon class="cls-2" points="27.334362155641429 9.766799636924588 27.220718263246454 9.854864383704808 26.296027270396735 8.660863321392753 28.026827961319214 7.32069172996853 28.922650065574999 8.477605122075147 28.808822170609346 8.565669868855366 28.010750039491541 7.534826118679121 27.328331889488254 8.063038960533049 28.042359451259472 8.985354647437816 27.931090864814905 9.071409305498491 27.216879300465735 8.149093618594634 26.50742113592969 8.698684213971319 27.334362155641429 9.766799636924588"/>
    <path class="cls-2" d="M26.108732166134359,20.855023317089945c-.114377114767194-.10085571354557-.203905518379543-.246840846126361-.26858242291928-.437954003783489-.064679692453865-.191113157657128-.097019538681707-.419135558780908-.097019538681707-.684244236149425,0-.264930250629732.032339846227842-.49313247245118.097019538681707-.68424702406719.064676904539738-.191111763697336.154205308152086-.337098290237918.26858242291928-.437951215865723.114193112198336-.10085571354557.244464146222526-.151283570317901.39063188741784-.151283570317901.146348955850044,0,.276438775219503.05042785677233.390813102070751.151283570317901.114193112196517.100852925627805.203721515810685.246839452168388.268398420346784.437951215865723.064679692455684.19111455161601.097019538683526.419316773437458.097019538683526.68424702406719,0,.265108677368517-.032339846227842.493131078492297-.097019538683526.684244236149425-.0646769045361.191113157657128-.154205308150267.337098290237918-.268398420346784.437954003783489-.114374326851248.100854319586688-.244464146220707.151282176359928-.390813102070751.151282176359928-.146167741195313,0-.276438775219503-.05042785677324-.39063188741784-.151282176359928M26.752780203758448,20.330830652672375c.061208734819957-.12899277372253.091903709560938-.328327500908017.091903709560938-.598005575515344,0-.269678074606418-.030694974740982-.469014195751697-.091903709560938-.5980083634322-.061389949476506-.128991379763647-.145802523966267-.193487069645016-.253416150206249-.193487069645016-.105790328012517,0-.189469680128241.064495689881369-.250859629602928.193487069645016-.061208734821776.128994167680503-.091903709560938.328330288825782-.091903709560938.5980083634322,0,.269678074607327.030694974739163.469012801792815.091903709560938.598005575515344.061389949474687.12899277372253.145069301590411.193488463603899.250859629602928.193488463603899.107613626239981,0,.192026200729742-.064495689881369.253416150206249-.193488463603899"/>
    <path class="cls-2" d="M27.480053162898912,20.893665251454877c-.047138113795882-.065592735527389-.070525956038182-.14781121872511-.070525956038182-.246291626324819,0-.100673104931047.0233878422423-.182161153669767.070525956038182-.244464146219798.046956899137513-.062121777891662.105057105636661-.09318196986078.173938190182525-.09318196986078.068881084547684,0,.126800076390282.031060191969118.17394097810211.09318196986078.046954111221567.06230299255003.070523168118598.14379104128875.070523168118598.244464146219798,0,.098480407599709-.023569056897031.18069889079743-.070523168118598.246291626324819-.047140901711828.065775344143731-.105059893554426.098480407599709-.17394097810211.098480407599709-.068881084545865,0-.126981291045013-.032705063455978-.173938190182525-.098480407599709"/>
    <path class="cls-2" d="M29.426069954626655,20.499708772088525v.464446192470859h-1.333592105467687v-.369438136464851l.680773278518245-.897100364558355c.072170827525042-.096105101652029.120953812805965-.178872804651292.146167741193494-.247935103855525.02521392838571-.06906508712018.037820892579475-.137764957011314.037820892579475-.205912819182231,0-.0984804075988-.023937062043842-.174122192758659-.071805610295996-.22674414082303-.048052550826469-.052803162720011-.118213289631967-.079293957447589-.210482216420132-.079293957447589-.077467871304179,0-.14726339288427.020644531147809-.209383776817049.061571164132147-.062120383936417.041110635558653-.114193112196517.102684587608564-.156215396867992.18471906823288l-.297451311515033-.267302768659647c.068881084547684-.143062000789541.163890534513484-.255061021695838.284844347321268-.33600263855169.120953812809603-.080938828937178.259630418933739-.121319030037739.415845815801731-.121319030037739.131185471056597,0,.245743800480341.029964540281071.34422420808005.089712406185754.098296405025394.059745077987827.174668624642436.144157652477588.229297873507676.253234935550608.054632036781186.10907728307393.08203726854299.237519443036035.08203726854299.385148053147532,0,.133744779574954-.020279313919673.259265201704693-.060475512447738.376382839649523-.040380201098742.117480067257929-.118578506861013.251040844260388-.234600493120524.401044760318655l-.405795372211287.534789539892699h.758790369618509Z"/>
    <path class="cls-2" d="M29.955523419894234,20.855023317089945c-.114377114769013-.10085571354557-.203905518383181-.246840846126361-.26858242291928-.437954003783489-.064679692455684-.191113157657128-.097019538683526-.419135558780908-.097019538683526-.684244236149425,0-.264930250629732.032339846227842-.49313247245118.097019538683526-.68424702406719.0646769045361-.191111763697336.154205308150267-.337098290237918.26858242291928-.437951215865723.114193112196517-.10085571354557.244464146220707-.151283570317901.390631887416021-.151283570317901.146348955851863,0,.276438775217684.05042785677233.390813102070751.151283570317901.114193112198336.100852925627805.203721515810685.246839452168388.268398420348603.437951215865723.064679692455684.19111455161601.097019538679888.419316773437458.097019538679888.68424702406719,0,.265108677368517-.032339846224204.493131078492297-.097019538679888.684244236149425-.064676904537919.191113157657128-.154205308150267.337098290237918-.268398420348603.437954003783489-.114374326853067.100854319586688-.244464146218888.151282176359928-.390813102070751.151282176359928-.146167741195313,0-.276438775219503-.05042785677324-.390631887416021-.151282176359928M30.599571457516504,20.330830652672375c.061208734823595-.12899277372253.091903709560938-.328327500908017.091903709560938-.598005575515344,0-.269678074606418-.030694974737344-.469014195751697-.091903709560938-.5980083634322-.061389949476506-.128991379763647-.145802523966267-.193487069645016-.253416150206249-.193487069645016-.105790328014336,0-.189469680126422.064495689881369-.250859629604747.193487069645016-.061208734819957.128994167680503-.091903709559119.328330288825782-.091903709559119.5980083634322,0,.269678074607327.030694974739163.469012801792815.091903709559119.598005575515344.061389949478325.12899277372253.145069301590411.193488463603899.250859629604747.193488463603899.107613626239981,0,.192026200729742-.064495689881369.253416150206249-.193488463603899"/>
    <path class="cls-2" d="M31.39364571454098,19.64660314403045c-.081672051312125-.123145116183878-.122233467069236-.287766085152725-.122233467069236-.494228124139227,0-.206278036412186.040561415757111-.371080220036674.122233467069236-.494228124136498.08148804873781-.123145116182968.186910371607155-.18471906823288.316266968598939-.18471906823288.129543387483864,0,.234416490546209.061573952049912.315174104829566.18471906823288.080757614283357.123147904099824.120953812807784.287950087724312.120953812807784.494228124136498,0,.206462038986501-.040196198524427.371083007955349-.120953812807784.494228124139227s-.185630717345703.184719068231971-.315174104829566.184719068231971c-.129356596991784,0-.234778919861128-.061573952049912-.316266968598939-.184719068231971M31.844753114401101,19.444345285054624c.032889066029384-.065594129487181.049148202513607-.162976097481078.049148202513607-.2919702651634,0-.128991379761828-.016259136484223-.2263761356744-.049148202513607-.291967477242906-.032705063455069-.065594129487181-.077651873876675-.0984804075988-.134840431261182-.0984804075988-.055359683323331,0-.099941276514073.03343549791407-.133557989085602.100306493743119-.033619500487475.066689781173409-.050427856771421.16352531728262-.050427856771421.290141391098587,0,.126618861734642.016808356283946.223454397844762.050427856771421.290141391100406.033616712571529.06687099582814.078198305762271.100309281659975.133557989085602.100309281659975.057188557384507,0,.102135367806113-.032705063455069.134840431261182-.098480407596981M32.761038535150874,18.501566281658597h.30019183469085l-1.205149945506491,2.462551046011868h-.29982382954222l1.204781940357861-2.462551046011868ZM32.6817417897837,20.909488078805225c-.066321776026598-.054995860052259-.118029287057652-.13429121145964-.154935742608359-.237522230951981-.037090458119565-.103048410878728-.055543685894008-.222722569426878-.055543685894008-.358657258418134,0-.136118691562842.018453227774444-.255610241498289.055543685894008-.35884126098972.036906455550707-.103231019492341.088613966581761-.182343762286109.154935742608359-.237522230952891.066324563944363-.054994466093376.141601131876087-.082583700427676.225645701219037-.082583700427676.129359384909549,0,.234781707777074.061573952050821.316269756516704.18471906823379.081488048739629.122963901526418.122414681725786.287766085151816.122414681725786.494228124136498,0,.206460645026709-.040926632986157.371081613996466-.122414681725786.494226730178525-.081488048739629.123146510141851-.186910371607155.184536459619267-.316269756516704.184536459619267-.08404456934295,0-.159321137274674-.027406625719777-.225645701219037-.082583700427676M33.042227922265738,20.603449980534606c.032705063455069-.066870995829049.049148202511788-.163523923323737.049148202511788-.290141391099496s-.016443139056719-.22345300388497-.049148202511788-.290325393671992c-.032705063458707-.066689781174318-.077833088533225-.100306493743119-.134840431263001-.100306493743119-.055543685895827,0-.100122491168804.033070280685024-.133557989083783.09848040759789-.033619500489294.065773950183029-.05042785677324.163158706094691-.05042785677324.292151479817221,0,.128991379763647.016808356283946.226193527061696.05042785677324.291968871204517.033435497914979.065592735526479.078014303187956.09848040759789.133557989083783.09848040759789.057007342729776,0,.102135367804294-.033436891874771.134840431263001-.100307887702911"/>
    <path class="cls-2" d="M3.065109950679471,21.012316244179601c-.122779898954832-.092084924215669-.219250217834997-.219799437636539-.289410956642314-.383140752345753-.070343347420931-.163523923324647-.105423716824589-.348060382942094-.105423716824589-.554155810739758,0-.205912819183141.035080369403659-.390631887416021.105423716824589-.553973202125235.070160738807317-.163344102626979.166631057687482-.291055828130084.289410956642314-.383140752346662.122779898951194-.092268926788165.260726070619057-.138311388896.414018335697619-.138311388896.129175382337053,0,.245926409095773.0317906264263.350253080272523.095190664620532.104144062566775.063400038195141.191844986076831.154389310722763.262918767955853.273333034814641l-.221444309125218.285209564549405c-.100854319587597-.162429665596392-.225644307258335-.243733711763525-.374735180243079-.243733711763525-.092268926791803,0-.174487409987705.028319668792392-.246839452171116.084593789146311-.072353436136837.056639337582055-.128810165106188.135386863146778-.169188972247866.236242576692348-.040561415755292.101036928200301-.060659515018415.215960474856729-.060659515018415.344589425308186,0,.128808771148215.020098099263123.243733711761706.060659515018415.344588031349303.040378807141678.101038322160093.09683553611103.179785847723906.169188972247866.23624397065123.072352042183411.056456728969351.154570525379313.084593789144492.246839452171116.084593789144492.149090872984743,0,.273880860655481-.082035874582289.374735180243079-.246474234937523l.221444309125218.285208170590522c-.071073781879022.12077120419508-.159139922618124.21285612840984-.264014419639352.276256166604981-.105058499595543.063400038194231-.222174743585128.095008056005099-.351350125920362.095008056005099-.151831396162379,0-.289045739415087-.046042462106016-.411825638366281-.138127386322594"/>
    <polygon class="cls-2" points="5.691021826825818 19.035352171150407 5.691021826825818 21.114762464817431 5.346067184289495 21.114762464817431 5.346067184289495 20.262242299491845 4.669130080636023 20.262242299491845 4.669130080636023 21.114762464817431 4.324358046713314 21.114762464817431 4.324358046713314 19.035352171150407 4.669130080636023 19.035352171150407 4.669130080636023 19.855167273020015 5.346067184289495 19.855167273020015 5.346067184289495 19.035352171150407 5.691021826825818 19.035352171150407"/>
    <polygon class="cls-2" points="6.98319523182181 21.114834950680233 6.623440927758566 20.392952430564947 6.270082107079361 21.114834950680233 5.87415178192532 21.114834950680233 6.425384460875648 20.057315009244121 5.901741016257802 19.0354246570123 6.293468555359141 19.0354246570123 6.636230500567763 19.709802452143776 6.972415747732157 19.0354246570123 7.34495962460278 19.0354246570123 6.825700180692365 20.039409607313246 7.381318254307189 21.114834950680233 6.98319523182181 21.114834950680233"/>
  </g>
</svg>