<?xml version="1.0" encoding="UTF-8"?>
<svg id="Capa_1" data-name="Capa 1" xmlns="http://www.w3.org/2000/svg" viewBox="0 0 34.015748031497424 34.015748031499243">
  <defs>
    <style>
      .cls-1 {
        fill: #aeddf1;
      }

      .cls-2 {
        fill: #d1dbf1;
      }

      .cls-3 {
        fill: #1d3a69;
      }

      .cls-4 {
        fill: #e23239;
      }

      .cls-5 {
        fill: #698678;
      }

      .cls-6 {
        fill: #ec7089;
      }

      .cls-7 {
        fill: #43bfef;
      }

      .cls-8 {
        fill: #81cef0;
      }

      .cls-9 {
        fill: #05a249;
      }

      .cls-10 {
        fill: #d58694;
      }

      .cls-11 {
        fill: #f29bb1;
      }

      .cls-12 {
        fill: #e6edf9;
      }

      .cls-13 {
        fill: #839ca1;
      }

      .cls-14 {
        fill: #fff;
      }

      .cls-15 {
        fill: #cae3d4;
      }

      .cls-16 {
        fill: #32bada;
      }

      .cls-17 {
        fill: #636786;
      }

      .cls-18 {
        fill: #6a4695;
      }

      .cls-19 {
        fill: #b5b2b2;
      }

      .cls-20 {
        fill: #9f8bc1;
      }

      .cls-21 {
        fill: #e8475e;
      }

      .cls-22 {
        fill: #9e539a;
      }

      .cls-23 {
        fill: #ececec;
      }

      .cls-24 {
        fill: #ef849f;
      }

      .cls-25 {
        fill: #d8a5cc;
      }
    </style>
  </defs>
  <path class="cls-14" d="M0,17.007874015750531C0,7.614956225136666,7.614956225135757,0,17.007874015749621,0s17.007874015747802,7.614956225136666,17.007874015747802,17.007874015750531c0,9.392916740707733-7.614956225133938,17.007874015748712-17.007874015747802,17.007874015748712S0,26.400790756458264,0,17.007874015750531"/>
  <g>
    <circle class="cls-23" cx="16.86038823587478" cy="18.126931767505766" r="7.995594073898133"/>
    <path class="cls-10" d="M8.864794161980171,18.166125856103463c0-.117582265790588,3.409885707986177-1.058240392135303,7.838817719504732-1.019046303535106,4.428932011522193.039194088598379,8.152370428288123.901464037744518,8.152370428288123,1.019046303535106,0,4.415844672605999-3.579749401293157,7.995594073898246-7.995594073900065,7.995594073898246-4.415844672601452,0-7.995594073892789-3.579749401292247-7.995594073892789-7.995594073898246Z"/>
    <path class="cls-8" d="M21.765402552991873,9.634071367632714c.202382034454786.059244944050079.41214909392329.08650167775977.611876148761439.16104723888202.33424832320452.124754064258013.643293078785064.290384898725279.934885189766646.495614931435739.170529182823884.120023674193362.327834752462877.250030574737139.45821476547826.412417489465042-.030838002447126.029843272523067-.069069906137884.018116236640708-.105422021146296.019765229688346-.223249069620579.010126005919119-.33640130258209.131351531444125-.332478994288977.355450599284268.000719961039067.041181425197465.017131127748144.085208824488291-.024323834406459.117645186051959-.060853474058604.002224550064057-.097380154958955-.039938083944435-.137275859024157-.07536208948477-.823955959795057-.731599119149905-1.772407977043258-.951773105130997-2.838580527986778-.693954570740061-.093372043082127.022578961247746-.182393746246817.067537633496613-.282266149895804.06120021807692-.038003094159649-.018921190358014-.07285808470624-.043185764283407-.109241759646466-.064862366055422-.242444414432612-.144444220618425-.293137561602634-.344939532405078-.149665106395332-.589383979816375.222884157863518-.126087074283532.480396469230982-.141438405526969.717611796771962-.222416560737656.069253348265192-.023641207948458.157036323938883.032460797767271.221089186505196-.039476832264882h.064634748881872c.01120870851264.012540281426482.025480703310677.017371225204442.041955976143072.016637927124975.010425627599034.000004122794962.020846323965088.00003786803245.031266034069631.00004269207966.015594553367919-.0000394400804.031189106732199-.000030404619793.046768866377533-.000069074087151.016436809155493.000925161978557.030420819539358-.004319432581724.04159599562081-.016611545117485h.258538995538402c.019410346872974.021058206256384.045216512018669.015525956489.069438762880964.016671152197887.012542115808174-.000030890107155.025054644176635-.000009474711078.037590842497593.000006199601557.018903415402747-.000032516109968.037785133346915-.000039536410441.056673755032534-.000012021598195.018928071602204-.000027950213735.037847266974495-.000028200661291.056760544857752-.000009705900084.024462895375109-.001321497034951.050698078403002.004858813074861.070392464707766-.016655624301166.02154458754012,0,.043090161332657,0,.064634748880053-.000000107885171.011762979886043.012626987187105.023525959773906.02525407840858.035288939663587.037881281371483.050423901462636.027288721941659.110128396594519-.006227652849702.160036490355196.024434332728561Z"/>
    <path class="cls-15" d="M21.505442374093036,9.571755861417842c-.01200855564457.028377905492562-.037003038693001.030884473719198-.062904869897466.031582997791702-.011533184102518-.006407599184058-.015622168311893-.013216920030573-.012306402533795-.020446122082831.003402555594221-.007418391913234.006915570969795-.011136875708871.010576523540294-.011136875708871h.064634748890967Z"/>
    <path class="cls-20" d="M21.440807625202069,9.571755861417842c.001059230355168.010506674375392.001626322953598.021039846350504.001716071526971.031591266492796-.023147240550315-.00115014306175-.046307302318382-.002292036682775-.069468350337047-.003433938018134-.008233198297603-.007245804952618-.010509458677916-.013828129558533-.006849492352558-.019760841031712.003449895501035-.005592511870418.006763688781575-.008396487442951.009967022282581-.008396487442951h.064634748880053Z"/>
    <path class="cls-17" d="M21.376172876322016,9.571755861417842c-.000720947287846.009430521927243-.001762425177731.018825634087989-.003120488669083.028171303578347-.018700248316236-.001617193614948-.037403455376989-.003220354330551-.056106662435923-.004823491927709-.01385086690243-.002257802109852-.019231835987739-.006451809374994-.016264215757474-.012639517391108.003414390575927-.007121824539354.006997429552939-.01070829425953.01085661797697-.01070829425953h.06463474888551Z"/>
    <path class="cls-9" d="M21.27958566475354,9.59882909240423c-.027307234602631.00452189243606-.054485270720761.008734641060073-.064999660637113-.027073230986389h.064634748881872c.008111889792417.005907997844588.010863521707506.011885609211276.008274620709926.0179410796718-.002600735973829.006085597661695-.005231059385551.009132151314589-.007909708954685.009132151314589Z"/>
    <path class="cls-17" d="M20.923322313708923,9.599133042269386c-.01814203194408.000336412028446-.036285050144215.000672816346196-.054427082086477.00100922067395-.022469688170531-.002830465464285-.025739100288774-.012291850527617-.009800346366319-.028386401525495h.064634748878234c.007456034874849.006196126984833.009876287467705.012315369703174.007275551490238.01836419360643-.002581997259767.006006709791109-.005138352074937.009012983394314-.007682871915677.009012987245114Z"/>
    <path class="cls-4" d="M21.27958566475354,9.598829084698082c-.00016273091569-.009023856771819-.000284039420876-.018048264531899-.000364911755241-.02707322328024h.032317374438207c.00134820101448.007897510303337.003107667447694.015702365698417.005342505412045.023381194699141-.012388261120577.001208424679135-.024841614609613.002450224706081-.037294968095011.003692028581099Z"/>
    <path class="cls-22" d="M20.923322313708923,9.599132996032495c.000241630759774-.009124109945333.000377732985726-.018249834331073.000407320425438-.027377134614653.010772786896268,0,.021544587541939,0,.032317374443664-.000000042385182-.010907902873441.009125681998739-.021816791992023.018251410230732-.032724694869103.027377176999835Z"/>
    <path class="cls-16" d="M20.859094885256127,9.571755861417842c.004421349776749.009064125263649.007668078189454.018531463321779.009769772679647.028394215563821-.014565896708518.000742090795939-.029161380845835.001491984074164-.043757851237388.002241861936454-.006338615890854-.007174037569712-.008202624610931-.01410318906801-.00559597114443-.020790163200218.00255635481335-.006563143996573.004976607400749-.009845914300058.007266675253049-.009845914300058h.032317374449121Z"/>
    <path class="cls-13" d="M20.826777510807005,9.571755861417842c-.00001380746653.01025043714435-.000567092600249.020471648710554-.001664786619585.030649644179903-.010221474265563-.010226000943476-.02043703104755-.020438022919734-.030652587820441-.030649844543404.010772786896268.000000200363502.021544587545577.000000200363502.032317374440026.000000200363502Z"/>
    <path class="cls-5" d="M16.463931961163325,26.12058946371144c.010772293773698-.026551574642326.021545080668147-.026551574642326.032317374441845,0h-.032317374441845Z"/>
    <path class="cls-2" d="M17.141618466426735,20.296219755156017c-.687284670793815-.001615702478375-1.086022764422523.341929201518724-1.255454253219796,1.08629161810768-.066066287852664.290248422790683-.072031115752907.585529393831166-.057956370555985.881514645441712.034431397030858.724066510510056.0827028122294,1.447184116402241.150318988817162,2.168950371617029.018519764929806.197685834024014.033581251251235.395820474294851.05773693037554.592827673822285.060845584070194.496247529383254-.20430472492626.856513671707944-.668264385001748.901637933730854-.178950754485413.005362001626963-.357000571419121.007540931281255-.49281727653397-.139508708221001-.089998088682478-.005010847728954-.140745479486213-.066352304144857-.194490571086135-.128715657853718-.593108835584644-.688239935634556-.948949579356849-1.495397743601643-1.160711818538402-2.367581164722651-.208313823040953-.857981416083021-.337083293072283-1.731399794171011-.394685107472469-2.611986249111396-.074849319413261-1.144253711476267-.399126182221153-2.20542204382582-.986414428674834-3.188593276186111-.044466470417319-.074440680403313-.100857172275937-.138664360651092-.149482403952788-.209254678037723-.069880108867437-.223925217070246-.205195553433441-.413782587908827-.325880995174884-.609992786457951-.230681681108763-.37504123841336-.412458775794221-.769571518056182-.484942825944017-1.205583331239723-.147730087819582-.888636855289406.06302075403255-1.688196521507962.635105494451636-2.383509347624567.547143761328698-.664999170129704,1.262167643355497-1.012601331880433,2.116201208384155-1.103188433387004.599125441500291-.063549237903317,1.166894114117895.049951395106291,1.723288388551737.249753769784547.217163426343177.077984030354855.439702397410656.142027941509696.650657392596258.237283121141445.076435206197857.146897735843595-.010398998905657.25954933594403-.086479155817869.367401421798604-.236464792815241.335213383259543-.442816475468135.68597987562589-.594329317485972,1.06848387411992-.137779831749867.347832729800757-.232646040560212.707344285799081-.242550436094461,1.080342222820036-.01349877636676.508328308435011.132706572047027.978113531235977.420206246955786,1.397696569943946.139402209713808.203447322523061.29074738957388.399588967154159.494177312526517.548932943625914.067982567717991.049907747469661.135305828642231.106588030471357.181198906801001.181524863704908.015046692602482.055798452717681-.017698713470963.09336748084479-.049835604531836.131253139315959-.03795131613515.038923337957385-.077414057333954.076505682315656-.114358414264643.116585559436317-.387312903683778.387668476051658-.775055811493075.774911819160479-1.161885946779876,1.163066090982284-.143820600749677.144311428219225-.262500753749919.305061001597096-.247589177120972.521360951272982.015254790927429.221290083268286.122013178113775.389735450738954.335453025130846.469999762050065.212213940760194.079801695639617.414947572624442.055406363740076.585651321338446-.102216361745377.209186159401725-.193157329708811.404242343718579-.401019722004094.60672694796267-.601196184087712.068768114248087-.067984775204422.133201668537367-.140826521715098.207271852035774-.202766715255166.035127194991219-.029375601618085.07016760015722-.094573832565402.131890451821164-.033270845256084.013119564011504.058992868139285-.026405803933812.101748814141501-.046029180377445.150719000432218-.183564915747411.458084202880855-.184885994942306.900780763128751.109648093824944,1.319516001909506.06626156495804.094203937313978.13443595791432.182180811298167.260657949358574.197447128286512.026563603612885.003213649983081.048822234708496.021763650456705.047967157695894.054775075841462Z"/>
    <path class="cls-7" d="M17.429307007831085,12.545147530237045c.131870233739392-.55588401526893.359100786534327-1.06691749100537.714108643876898-1.51775421284583.156373565279864-.198583939705713.324046573896339-.386585915937758.517864030724013-.549914399041882.30229092927766-.200232624509226.592872136063306-.418161962782506.922727710680192-.576109024756079.069130067262449-.033101279106631.145741811849803-.024024234484386.207122928582976-.067732568294559-.008317029372847.041245262950724-.016787913444205.082447094033341-.02491262445983.123717355740155-.043376173258366.220367903573788.002419266342258.317517193508138.201636430965664.429583434364758.035842224790031.020161757399364.082545998799105.03082398814422.081441401038319.086216542463262-.019872897182722.043465035203553-.061886075705843.056605255910654-.101028286306246.073445538865599-.497600579332357.214088654188345-.913016126633011.53383215476515-1.241052073684841.965951930071242-.43758541607167.582483429702734-.6484748257717,1.245220567041542-.610055534958519,1.965153128182465.055942945269635,1.048321130328077.546601324933363,1.864556661062124,1.430248958635275,2.434730469844908.419419714175092.270629671626921.88355985763701.407923447058238,1.383782870398136.4402952002456.84329431056176.054574346014306,1.578485977925084-.19484701123838,2.212682891404256-.749877801449657.036424111114684-.031877079936748.071037470901501-.066939204618393.124268234163537-.0681154715312.06007828312795.01235450153672.071574976056581.061603342255694.07255037532741.109209354849554.004281302564777.209070716799033.1081795705486.336979016610712.307361230246897.392498814897408.026022153460872.007253399363435.04591773435277.025880831244649.056463684206392.052292338884399.008197693372495.06903034579318-.038526791840923.107940367523952-.083068710237058.146142656329175-.467803068524518.401225876964418-1.003948192166717.668651762482114-1.601331426580145.816225173661223-.731412365026699.170246017574755-1.451581502858971.135559706472122-2.159874242288424-.116520951067287-.742810433152044-.279721697008426-1.357967829013432-.729289431521465-1.822547839074105-1.377369592661125-.207851765859232-.289948561038727-.356742667574508-.611441296277007-.495185257985213-.938548548308972-.210554085373587-.613886057319178-.274630617888761-1.240735710364788-.168930474810622-1.882892368877037.01142272432844-.06940344681243.024008235046495-.137588951841281.075727080135039-.190626999566121Z"/>
    <path class="cls-12" d="M19.83000328658818,16.885024007336142c.718610865998926.259986058941649,1.450719522110376.28128660053153,2.192925385239505.124048072920232.049546140746315.134379494012137-.077585171362443.207016071952239-.108879806624827.313310158992863-.253719201566128.468906844866069-.504746932334456.938399603815924-.69715010953405,1.437666464877111-.205633694102289.533598072719542-.287937075892842,1.090617913020651-.347100120878167,1.654049271087388-.126486305913204,1.204566365885512-.232201242713927,2.413462972228444-.636859783086038,3.567905078622971-.219290270153579.625610257342487-.53431563360391,1.198694402000001-.970974962805485,1.701461951758574-.047480937431828.054671505168699-.097981766237353.099797739964743-.174325251366099.103879410813533-.152514376868567.13299361978352-.32681595827853.184236442529254-.526471017017684.140354042177933-.433643382822993-.082809190666012-.670555932230855-.370033349842743-.639350059282151-.805585506527677.051034388974585-.712307786935526.125865955924382-1.423024531080046.16956167353419-2.135706158815992.032435724200695-.529023208198851.103631981022772-1.061071666391399-.013374509117057-1.589543484059504-.050351905363641-.227419494250171-.140108363280888-.438549787836564-.269140175279972-.633714415796021-.16153854606091-.244333078112504-.376253611744687-.409279729660739-.667242138952133-.466925192683448-.30368055270992-.090416209894101-.563455316987529-.472035665535259-.583107294622096-.827878846986096-.017928016135556-.324631912982113.043174485541385-.627414359806608.195882660133066-.913001115984116-.016786927193607-.0714351581546.040586077673652-.104456447413213.078817488241839-.144455440775346.106189322084902-.111095820653645.217255147406831-.217469805069413.324145691820377-.327973793310775.25599743444036-.252205435544056.509503606435828-.506901005948748.762326308564298-.76224266006102.113535883436271-.114667529239341.232248582617103-.222370670609962.364069503959399-.315732726324313.252442010401865-.147364297056811.508200772826967-.099665564054703.764040407584616-.011839114142276.066176254507809.02271748701969.12943124243975.054027394229706.196145988355056.07501475783738.148695624613538.046777447218119.2875721641376.028250626849513.410556303409976-.072573942342387.054012857923226-.044279914454819.103211839372307-.09554443772231.175503817723438-.110516811279012Z"/>
    <path class="cls-8" d="M24.350963129238153,15.322326534541389c-.185019138423741.218338319127724-.32843143250102.470957050969446-.546227536933657.662352692876084-.043952142090347.038624462586995-.085842039616182.079596033872804-.12863829905109.119500827244337-.166585177070374-.064873709509811-.340820679866738-.119193074394389-.389064973252971-.326961266699982-.0174565895868-.075173566200647.027581411548454-.160291889648761-.037485313956495-.227081656585142-.010064660835269-.014247378856453-.01181031978922-.029451553446961-.005424364000646-.045640142603588.202470796777561-.22317309671871.399282502530696-.45012898891946.540637483281898-.719978921345501.125789028581494-.240132547589383.216213176392557-.49227879989121.27672836738202-.756028419760696.073530705842131-.287910684774033.066679240990197-.584910189174479.101229480902475-.876963947407603.039358198910122-.05964585656784.071376740208507-.016507932066816.103962374103503.008292311840705.226321232141345.172243698552847.33143653015577.16646075612789.523919593440951-.029100892743372.029134752147002-.0296004979391.054012857930502-.073345050660464.105586724559544-.034300633652492.021083023477331.636261514527177-.090164764591464,1.248130409720034-.35485203015196,1.827530885764645-.060950126357056.133420232313256-.13156055187028.263291442947775-.190371506323572.398379163072605Z"/>
    <path class="cls-1" d="M24.896186665713685,13.096416732301805c-.01866474338749.008434105020569-.044016248211847.011736283267965-.055006995915392.026060353744469-.218459849334977.284729585571768-.426552259710661.286742555552337-.653262073559745.00473465927189-.062331859806363-.022978879668699-.066522427552627-.078759084215562-.072720009980912-.132014383746537-.072258445921761-.620859569278764-.319866854877546-1.164344448985503-.719239105970701-1.642234816625205-.038874937392393-.046518027348611-.099447330767362-.087939391263717-.080708618776043-.164978462538784-.131155203944218-.31436645654685.166445129854765-.597255566627609.455104139287869-.484837123840407.346013275584482.283034232325008.559410713940451.660491133349751.766574078697886,1.04730872701748.226580615360945.423074603321766.291941242776375.883438347365882.359258586217038,1.345961046717093Z"/>
    <path class="cls-25" d="M21.765402552991873,9.634071367632714c-.053713038538262-.00589597625094-.112929340919436.024156934408893-.160065091547949-.024475691643602.055032638361808-.00267955205527.113127576760235-.025649138102381.160065091547949.024475691643602Z"/>
    <path class="cls-12" d="M17.429307007831085,12.545147530237045c-.143204195750513.709235190347499-.083083503961461,1.405246871898271.135943437973765,2.090924666401406-.004710320443337.045176047357927-.028974979968552.080536554211903-.058581158662491.112374671847647-.160941866017311.173076456071612-.155320252424644.3696180807774-.073315703773915.571459071503341.080322009560405.197699150250628.126795987785954.399052372436927.104178362420498.613281895068212-.007996498779903.075754055158541-.033620208052525.14640207620414-.061034943686536.216488349660722-.023838600391173.068213123873647-.074083004719796.117241507025028-.123370748488014.166681706892632-.242658430248412.243413271909048-.485200483231893.486949349045972-.729534548834636.728672939428179-.044114379885286.04364320141849-.081144540388777.104055480956049-.157873648488021.096509124549812-.372918121007388-.310993628309916-.714772388782876-.648780989348779-.906309147108914-1.106841025738504-.162496685994483-.388609982778689-.249654873559848-.783151605874082-.203522630266889-1.216838997276682.081194345917538-.763310917552189.406325792610005-1.413044510484724.841886441545284-2.022269887582297.067889367279349-.094957290651109.105512755961172-.197521107338616.104310026525127-.314202592949187.292009293891169.063395361477887.582542667641974.133904548503779.885870636697291.070000457754759.077453014127968-.016317559306117.160744616418015-.00490998962232.24135362414745-.00624037956004Z"/>
    <path class="cls-11" d="M16.465718056291735,17.141539955588996c.33463493241652-.315610414290859.663380978026908-.637062707652149.971168267409666-.979305087153989.242180099972757-.210065488441614.640264311177816-.18406777029395.853584822192715.056148620222302.223707674942489.251912971692036.204571505009881.674952311668676-.017125210260929.824392954098585-.362198591505148.354380862207108-.724396196759699.708761724416945-1.086594788261209,1.063142586625872-.243138239900873.123993821623117-.483591419624645.116969757314109-.690967320822892-.060888704620993-.200865185030125-.172275509546125-.292861905281825-.394860226211676-.195891536370254-.664000946136184.02962590365496-.052014670842254.067254223569762-.098907032190255.099325036018854-.149507716769222.022166910026499-.029994066491781.044333820058455-.059988132973558.066500730094049-.089981706266371Z"/>
    <path class="cls-6" d="M16.336648766866347,17.361972868249723c-.071088262669946.397333099291245.08359832541646.691305627517067.407068930478999.765913993765935.148557549891848.034264137319042.295889193519542-.001294140201026.442974275149027-.02196684624505-.144059272766754.149812510462652-.288177227294.299626007309598-.432295181810332.44943161305946-.294272733051912.289756215499438-.586066531745018.582095779470365-.883524352706445.86855154290879-.291090603874181.28032437967795-.742020448507901.221325593212896-.935059262534196-.12315144682907-.117474957945888-.209633943966764-.107859533081864-.424509550311086.032373097450545-.620701007505886.07113017820302-.099512674021753.162034135673821-.185732792138879.249105533419424-.272855454675664.360407565141941-.36061729622088.722764449446913-.719284997842806,1.084405317706114-1.078668816685422.030742829510928-.008808439019049.04420758032029.000444367501586.034951642846863.033446422206907Z"/>
    <path class="cls-24" d="M16.336648766866347,17.361972868249723c-.011649561371087-.011147656614412-.02329912273126-.022295313234281-.034950163475514-.033444449432864.021743809640611-.043157405650163.054839826878379-.074897870935274.097518722806853-.097003304607824-.00460429879422.051277346304232-.022870597984365.096003601029224-.062568559331339.130447754040688Z"/>
    <path class="cls-2" d="M18.691085083217331,11.476841945634078c.057462753433356.060314503889458.131800210132496.034277823443517.197754558841552.032741031951446.609245825347898-.014196703207745,1.214883955517507.007351051716796,1.808621031081202.163314303787956.010605124734866.067135988890186-.045643557408766.093930954610187-.083536191790699.125868450771122-.239970904451184.202256753000256-.305736879790857.453800076032167-.2263468745914.75203133163086.016176439681658.060762940240238.046287577351904.121535497751211.026234196782752.188119602927145-.061815065851988.04487741858884-.111843481863616-.003828909090771-.164612681071958-.022401103280572-.20169461959631-.070987831489219-.411364040519402-.01262403187684-.516862002757989.145840082016548-.128423296982874.192898649625022-.118390196086693.391515386710125.043605969043711.558896935423036.291062495807637.300738405640914.589809836028508.593994816652412.886677387561576.889044973053387.145880872818452.144988089940853.317205957773695.164106742720833.505765726515165.103028158533562.052344126315802-.016955012130893.103779918223154-.067233148045489.162679634991946-.01295027949709.033204011393536.057147830607391.042566463651383.121142668993343.05353551389635.184640861347361.096697671346192.559739803416051.5012773118724.910788155963019,1.07218373249998.920058224264722.225069683432594.003655551510747.451087151186584.017608986938285.675730775479678-.015063614388055.04296392159813-.006249257046875.086304589924111-.007069931323713.119341925408662.029774595301205-.000899458176718.010113922673554-.00166478662868.020238202416294-.002302889084604.030361988963705-.424750384610888.408525636532431-.925555283689391.680657082901234-1.501981734363653.795296006906938-1.165386140930423.231770448845964-2.358461194442498-.173147969155252-3.117307033813631-1.212086089833974-.417446231933354-.571527132226038-.610398749260639-1.218820156262154-.576388973253415-1.92064560484414.030964242183472-.638981231043545.223940429470531-1.231052592364904.637207928624775-1.735869855035162Z"/>
    <path class="cls-21" d="M18.273345935633188,17.042776442755894c.092095838181194-.160984826764434.163751686570322-.326545504432033.125170651082954-.519409877098042-.072423149336828-.362046571489373-.474301456597459-.569341791060651-.813939625113562-.41997611406623-.048442529232489.021304487139787-.089784072864859.061174263762041-.147691624149957.058845403229498.108793016810523-.276831582077648.076080156917669-.54648029148666-.0363245000608-.814266208385561-.136404015793232-.324959886770557-.102287724999769-.465410101715861.164670869704423-.711887092731558.139142826488751.302318351577014.275413698800548.605687205682443.471099109343413.878210741016119.459067869995124.639327453001897,1.054583150696999,1.098462651601039,1.793616254013614,1.370669556597022-.237328746057756.27663134544855-.387930788054291.315714971349735-.717793266403532.177346033706272-.278048953457983-.116633892417667-.555804991261539-.157990647961014-.838807868416552-.019532442267518Z"/>
    <path class="cls-12" d="M23.251857785107859,15.519785499476711c-.250033592792533.044900845286975-.502611705416712.034109767698283-.75441758586021.030837427670122-.3527749918685-.004585714785208-.661651099040682-.117598579246987-.906836296662732-.382026833615782-.206294480269207-.222484105155672-.248896448847518-.502180156092436-.281446577817405-.78614134592317-.007311056417166-.08331964611898.059979658328302-.121580624971102.106960568022259-.168989360093292.32067755072967-.323603604168056.638819457855789-.649961201810584.967536902275242-.965252519790738.172240323099686-.165204098647337.32370040085334-.337188377327038.384557819901602-.573719624709156.111156067010597.034067599638547.189039085271361.119707475398172.267469471167715.194234218093698.367746236499443.349444979920008.728419102351836.70644568692569.99762535624177,1.142677957688647.013260104353321.021488448379387.037932084303975.035932611515818.057286215045679.053663910486648-.132779554398439.569573592087181-.389893421575835,1.067432385205393-.838735872313919,1.454716170193024Z"/>
    <path class="cls-18" d="M22.768212614966615,12.674493243014695c.000306723128233.176641753141666-.071269239178946.316772378586393-.197141112585086.441295397016802-.423683264278225.4191453293206-.841715327518614.844006033535152-1.26191220511646,1.266673012289175-.293168135292944.175091645422071-.481927126125811.153240206494047-.720669165570143-.084833257506034-.255213367279794-.25449632015625-.50976989339506-.509649574286414-.764615390171457-.764516282893055-.250880779824001-.25090340423958-.288961787571679-.485108503658012-.115972902241992-.713282337637793.155615140572991-.205258822890755.404072709059619-.230847190286113.695947873220575-.071676083258353.166826807828329.066605559096388.259039023268997.219393013799163.381989630101089.335653558606282.225964210367238.213667035245635.180419277758119.22065731578914.406173417301034-.004131730004701.23244681846154-.231453078715276.462864924791575-.464952171385448.696582030677746-.695113822469466.072330442024395-.071229989584026.146124476075784-.14561321291967.262554011143948-.131635857600486.383254986290922-.012890109863292.511090479465565.074445119146731.617063813240748.42156740345763Z"/>
    <path class="cls-12" d="M22.151148801725867,12.252925839557065c-.113673958156141.051409522209724-.207663392493487.127563557434769-.29504792397347.216720150689071-.258642551576486.263886234515667-.522933345440833.522231191512219-.781893468873022.785811399353406-.057929248738219.05896302992096-.097033981912318.083678197921472-.165958909587061.009339362012724-.163588955647356-.176441269915813-.335717832722366-.344963822195496-.504397800543302-.516664761110405-.055175644321935-.177157140533382-.114733188504033-.351841161386801-.084328148936038-.544341557120788.038265436127404-.242277940072199.204761850873183-.387666996468397.377939109570434-.530895371380211.509534180124319.13074169747324,1.003182863722031.301304098788023,1.45368714234246.580030777556203Z"/>
    <g>
      <path class="cls-3" d="M5.751836030007325,9.322935682013849l-.05050729089271-.15075026919385c.247849101106112-.015200201645712.557600841131716-.170231895978759.775363296645082-.426977807622279.324136494724371-.382628675181877.301038672816503-.693003403170223.093618426832109-.869140960745426-.573625579167128-.486264186904918-1.241516576168578.999038668907815-1.946249382315727.401661769564271-.270324950386566-.229216447660292-.331913543230257-.638279838512972.066261000012673-1.108043532842203.178389907136079-.210306278984717.429244140847004-.373332369947093.660709938267246-.430576585367817l.067948424315546.146859847020096c-.243494028192799.06600230521417-.45975442506824.21584737532703-.605661632042029.387838428004216-.314966477117196.37141588670147-.284143958187997.684089682916238-.073911033932745.862263331005124.573726753733354.48627809682057,1.246943388729051-.994272175847982,1.940808659834147-.40632708805515.270297130555264.229418796786376.322326101222643.644280889699985-.078275320875036,1.116700448073061-.240914518684804.284179692993348-.579043969091799.467163767641978-.850105085848554.476492420159957Z"/>
      <path class="cls-3" d="M6.413526241087311,7.093935684381904c-.469472686805602-.554002017210223-.397779797591284-1.327400088268405.172874039137241-1.810768063654905.56766164023793-.481099094534329,1.342788219131762-.429476693644574,1.814543696704277.12741634548911.471769387491804.556791864571096.395091124801183,1.32971069886662-.17267169000479,1.810795883487117-.570552662167756.48338188530397-1.345301178866066.426760201013167-1.814746045836728-.127444165321322ZM8.258980505779618,5.530645958284367c-.40923238668438-.483043049080152-1.077966491335246-.530965370749982-1.563956202004192-.119045495041973-.488737828287412.413913052700082-.551501185922461,1.081122182414219-.142223264338099,1.564583839669467.409333561254243.483056958998532,1.078168840464059.530993190584013,1.566704319622659.117052318052629.485989710670765-.411919875709827.548882062703342-1.079317444634398.139475146719633-1.562590662680122Z"/>
      <path class="cls-3" d="M8.19414619960844,4.09995691079348l.153149877402029-.099452949086299,1.36526510468866,2.101099601525675-.153076522672563.099669208129853-1.365338459418126-2.10131586056923Z"/>
      <path class="cls-3" d="M10.957209833275556,2.602415126193591l1.096673570329585,2.252924700204858-.135041448755146.065965225174295-2.488004646158515-1.209435304347608.952647326424994,1.956850298278368-.163969510000243.07992520132575-1.096963184105334-2.253067604517128.138442148654576-.067456334495546,2.484663391074719,1.21124384727591-.952734591070111-1.956965382755698.164286943605475-.079984646143203Z"/>
      <path class="cls-3" d="M13.627869596701203,1.758907996971175l.57280693217217-.091299950433495.320037341223724,2.008346453400918,1.24098123622025-.197841644364416.074357390782097.466649086853067-1.813788168392421.289141594795183-.394394732005821-2.474995540251257Z"/>
      <path class="cls-3" d="M15.690965713911282,2.678174357774878c.002015536110775-.744756605034127.583634507293027-1.294741754947609,1.374901979177594-1.292705602545539.78777369375166.002167356144128,1.37012740731916.551739178951721,1.368031350788442,1.300075129442121-.001900568175188.748453989434893-.587112049617645,1.294669352426354-1.375003782311978,1.292697484641394-.791361157111169-.002146073436961-1.370055004801543-.555216721275428-1.367929547654057-1.300067011537976ZM17.846579884571838,2.683890996425362c.001396423996994-.476180856244355-.334293092601001-.803026556071927-.781916634619847-.804092343973025-.447717227234534-.001175708938717-.785075637970294.323737816285757-.786472061965469.79991867253193-.001286502958465.476087171015934.334488580963807.80314459501642.782095887167088.804413989181739.44763165992299.000963984767623.785193676918425-.323933304645834.786292809418228-.800240317740645Z"/>
      <path class="cls-3" d="M18.653339429980406,2.725478979250511c.138775756988252-.742047216083847.807825208697977-1.166627816501205,1.574619362569138-1.023419897497661.425589539619978.079527483380843.751979849426789.300722377663988.931591562279209.625572191237552l-.42901809785144.26924785128449c-.129710609178801-.220878985754098-.318761898868615-.357972668234652-.56505900519187-.404147368873055-.46080223462377-.086330954554796-.848413445695769.176281037122862-.93524025111401.640731948715256-.086794333792568.464043699060312.179929714093305.848909296559214.640748184529002.935036644847969.246101617960448.046056661695729.472149756951694-.013575437159489.673633266142133-.176284957748067l.3026245746114.406169432682873c-.285420616923147.241459960953762-.669481033537522.329779506028899-1.09870301430783.249552565523118-.763247280036012-.142720186048791-1.2338705355196-.780403076181756-1.095196581665732-1.522458410172476Z"/>
      <path class="cls-3" d="M22.561898936688522,4.491129251171515l-1.091712273924713-.403421496475858-.394430458203715.426501211922186-.557491094705256-.206121849684678,1.91710095894814-1.963754634921315.537381464599093.198781057356427.182097728495137,2.739907946814128-.571035958257198-.210992600736972-.021910366951488-.580899634273919ZM22.54333009912807,4.0147906472248l-.040156678536732-1.038156733239703-.705407375504365.762329169406257.745564054041097.275827563833445Z"/>
      <path class="cls-3" d="M24.347930657635516,3.135518899816816l.506048493127309.283365422860697-.993667603108406,1.774297539705913,1.096416754025995.614229891217292-.230786973150316.411991167243286-1.602473365057449-.897493510945424,1.224462694162867-2.186390510081765Z"/>
      <path class="cls-3" d="M26.217283819030854,4.247617756073851l.474389043900374.333500398608521-1.44038935226672,2.049715014693902-.474413397612807-.333194989210824,1.440413705979154-2.050020424091599Z"/>
      <path class="cls-3" d="M25.556279967400769,6.506190982064254l.43551069181558-.199063808193387c.057554573695597.254671055097788.224329871010923.542639614780455.450338340182498.740462369531997.258803782107861.225948058456197.43929437225961.23142740691128.540528133115004.115637298536967.308447852650716-.352933954788568-1.000148364733832-1.068604927188971-.387982993712285-1.769112813361971.280277571149782-.320859381688024.77199875628321-.361457848953251,1.308154678241408.107080005254829.23713572851193.207315894929707.430064773630875.47565048778506.508828846441247.739286797067507l-.424382115221306.213679576630057c-.088029253005516-.252798223532409-.226075649381528-.459076795890724-.393303113660295-.605187518785897-.258608293748694-.225830019513523-.442987804884979-.215944554202906-.546704771817531-.097278945767357-.303701282564361.3473703251193,1.002403610833426,1.066018600714415.397256291813392,1.758172924478458-.275335512702441.315413790964158-.772016309354512.356538826961696-1.311047731371218-.114482233331728-.299020193449905-.261221959281102-.52313830913954-.613799077053045-.577196255826493-.889193652059475Z"/>
      <path class="cls-3" d="M28.657843593438884,9.338133747041866l-.3547601679129.301601488601591-1.257215819214252-1.478210661825869,1.909052423961839-1.623851091355391,1.227049176024593,1.44281608754136-.354352955388094.301633960219988-.853684803329088-1.003856404393446-.414581566392371.352871661639256.754044311031976.886391404133974-.343759946199498.292131162739679-.753840704765025-.886375168321138-.441817630136939.375800188606263.88386768231976,1.039047372413734ZM29.797102342348808,7.212976079224063l-.283068049411668-.332792196099035.706043775526268.033966586878705.389649366434242.458289550051632-.812625092548842-.159463940831301Z"/>
    </g>
    <g>
      <path class="cls-19" d="M32.594432678215526,13.821803573418038c-.215627188321378-.237228301733012-.415557510112194-.488465238406206-.773380822611216-.527443560189568-.466763202721268-.050844164980845-.77606388939239.193082258740105-1.034700639331277.529415274248095-.283336650691126.368453270170903-.553132337443458.747320187304467-.868041719395478,1.17489129590831-.15878520986189-.533014504845596-.281204843226078-.995213156893442-.434104063302584-1.447098783361071-.37928199291855-1.1209475872638-.899282618289362-2.169531938580803-1.558773383174412-3.158143298241157-.542485334908633-.813214040533239-1.159177991306933-1.557593084606196-1.871362210516963-2.215916587590073-.758714798057554-.70133507022274-1.565177898932234-1.338572664798448-2.481530233548256-1.847149694895052-.651361720661953-.361506607728188-1.305712456010951-.702488306304986-1.999946940033624-.960955916722924-.87176358220313-.324562628230524-1.76519427513449-.568950733583733-2.691735738211719-.702768837033545-1.076036739324991-.155409438294555-2.152608482807409-.203183655724388-3.230345365582252-.089738290346759-.583813175471732.061453611843717-1.169071115218685.131961812645386-1.742345637221661.290895941116105-.475028997771005.13169681373347-.955241587515047.237970814008804-1.423637427777066.400729944234627-.912835161312614.317194417115388-1.778322288446361.733333535178645-2.588689442331088,1.249672006743822-.987728919666552.629347046731709-1.904068847097733,1.35446769990449-2.699074126332562,2.224346531276751-1.127153354183974,1.233310389939106-2.040906942014772,2.606106114831164-2.629982423572073,4.1705168549679-.540425577675705,1.43520752704535-.834809293852231,2.585498463432486-.924446427634393,4.465400881529604-.016849845735123.627085073716444.045292718103155,1.301482691161254.076159440686752,1.528281681574299.114567873459237.268402201327262.324146587840005.423144119808057.623184130590744.514144860830129.568373737589354.17296418343085,1.269249245982792-.266076599285952,1.235353704429144-.856142064147207-.056608498438436-.985394958703182.030258670904004-1.95652275215798.187469002588841-2.92552003155015.115926730437423-.714537280868171.347805395751493-1.394454498989035.611011568154936-2.065985757259114.373599011525585-.953180222575611.88859424966904-1.829908558728675,1.491798296792695-2.648950838402016.404585112148197-.549352273983459.889774234199649-1.037056611387015,1.381481429261839-1.514085005683228.56332484289851-.546506472800502,1.2146998655262-.980952118105961,1.86714553193633-1.400305197860689.480625496640641-.308916715177475,1.016210295952988-.54095824828255,1.5574223417334-.753718457983268,1.081035656701715-.424974132823991,2.196556132088517-.668589660386715,3.348141621485411-.772160336970046,1.36482566333143-.122749578667936,2.696075623982324.025485039793239,4.018349993191805.396996513297381.748493656215942.210299198148277,1.463006089777991.500032600650229,2.139096917291681.851381396863871,1.104025178221491.573735523791584,2.083338540038312,1.335543770372169,2.955410271060828,2.237729021360792.780343083726621.807289543512525,1.405198815868062,1.722337242404137,1.919865804436995,2.704749839628676.355341335660341.678287912054657.624412769580886,1.406654172465096.828885885039199,2.151504034741265.00631916655766.023018588919513-.012277208355954.052876229234244-.031077367293619.124704702713643-.316067023188225-.239071263832557-.614670309871144-.465991039736764-.914389738592945-.69142566438768-.680253183332752-.511657155379908-1.426821759394443-.129228605647768-1.595395388500037.522394133169655-.124055424512335.479538946843604.119954473937469.794088894213019.452735464210491,1.051359988439799,1.169368020695401.904031951949946,2.352270096082066,1.790538455255046,3.525381962992469,2.689766818875796.174668852348987.133889615142834.278820371022448.092283291493004.395693274955192-.069892276400424.434380006949141-.602770915819747.86695685880477-1.207235055197089,1.317697395943469-1.797714914059725.47965996891071-.628366378507963.93510960261483-1.275758454813513,1.452711493928291-1.874930849312477.109854199930851-.127163934074815.12430273490645-.296532633306924.177413690071262-.448537630698411l-.069450125818548-.51029772842594Z"/>
      <path class="cls-19" d="M17.874780891581395,29.530536672124072c-.049125595347505-.42873704676731-.048842483980479-.420220940650324-.54342477881255-.403823301720877-.350347558147405.011612289139521-.702113361399824.006562108001162-1.05220876434214-.011323541833008-.175439131977328-.008963572637185-.2406927973243.051294440509992-.250507787426614.219376918200396-.028745308922225.49221731194757-.061278792227313.984312199207125-.101764754268515,1.475677661068403-.011848323738377.143805603596775.030650827588033.209971121181297.176746694736721.226008888132128.567909576642705.062344911642867,1.135168352309847.020559514802699,1.702482523260187-.003583094134228.131791268851885-.005608519501038.16751654993277-.084432816868684.156654089585572-.214296515015121-.034662571855733-.414408612511579-.057631122268504-.829797200348366-.087977222732661-1.288037014697693Z"/>
      <path class="cls-19" d="M9.67188063827416,26.583330215026763c-.036862215532892.030948640300267-.090573246598069.058903190970341-.119588573985311.103078629414085-.265587400168442.404368727897236-.628809297964835.726249969578021-.926742097744864,1.103202644732846-.132674301834413.167864972308962-.121530911532318.289925350179146.06110439728036.420266932384038.409160351126047.292002045474874.808582311552527.596621086411687,1.237929163196895.8607176996411.167298225707782.10290889949647.261048024940465.091224865469485.359942960103581-.07864473702557.247235725308201-.424672905573061.50485004274924-.84331221512366.759209648113028-1.263826108956891.04282998364215-.070804805832267.070056718433989-.13709625249794-.013522084551369-.198315976213962-.42030776122192-.307867357344549-.840149438166918-.616376211119132-1.261450656564193-.922879976444165-.020882913164314-.015192420489257-.053887631745965-.013719541084356-.096882755848128-.023599107531481Z"/>
      <path class="cls-19" d="M7.04350812859775,26.553805340919098c.049636268615359-.03081725913944.112633469747379-.058498828859229.161452606804232-.102066794445818.360312348015214-.32154341875048.716763611450006-.647409686916944,1.076742351078792-.96933243825697.120960914840907-.108171892567043.128173590292135-.19844848761204.018456102085111-.332695427011458-.270657682161982-.331173989059607-.528411124052582-.673432535564643-.779350018257901-1.019930052540985-.107532044108666-.148477820766857-.211850366193175-.168114728661749-.359422681671276-.070582349995675-.395827761303735.261602119626332-.794303843131274.519193943412574-1.191729512629536.778378762239299-.131629313771555.085842153691374-.174043529081246.182998013187898-.08028129719969.333390402702207.29312539969942.470166519728082.665493590968254.878606454589317,1.005164613074157,1.312456478616696.034171553243141.043644094122101.06995038574496.094772844785439.14896783671611.070381418692705Z"/>
      <path class="cls-19" d="M4.69985508006539,23.221865009536486c.056397650481813-.015256724518622.124691964741942-.023671193769587.183970387726731-.051375784311858.437504134521078-.204463421051514.872551994296373-.414176767402751,1.309845573901839-.619099377297971.146940041558992-.068857283204125.179786296788734-.153255208636438.11326584069684-.313365161102411-.164095047144656-.394974185794126-.312645197151141-.796858002826411-.45345021038338-1.200844148812394-.060338432447679-.173112903437868-.154616387086207-.221893921710034-.3239889248689-.170873370640038-.454300147819595.136845391960378-.909984741496373.269088677441687-1.365120900914917.403159589560346-.150742987285412.044403866712855-.219283071057362.125277123171145-.172683950031569.296267616683508.145681008592874.534561596039566.384998547078794,1.032766740566331.585696877464216,1.545916257553472.020191223142319.051621860782689.03977151376057.110874592523032.12246530640914.110214378367345Z"/>
      <path class="cls-19" d="M25.448800526857667,25.274280992309286c.027734857807445.041180383390383.043341248843717.078484565669896.070586239111435.102682266327975.396211174602286.351912659691152.77701389315007.721048953957506,1.199562148658515,1.043572307410614.131256709537411.100184668809561.200052866173792.076075790182585.298820295069163-.037943971678033.355317410245334-.410185026848012.666534534069797-.85240400729981.976520711346893-1.29638351299036.092399451070378-.132340227855821.076270237474091-.21549406637314-.061594369581144-.298357476559431-.414532467815661-.249151577458179-.823516315533197-.507528349065069-1.237700607756778-.757268365729942-.122076908897725-.073609415128885-.256285327646765-.10367048833632-.34957749777459.044962918724195-.241878100179747.385358000007727-.539506805384008.7281829207177-.816604761219423,1.086701124451793-.027772012350397.035932722097641-.05289086625271.073917067291404-.080012157854071.11203471004319Z"/>
      <path class="cls-19" d="M20.162819792307346,30.65326030705728c.532085442273456-.105772113024614,1.027645631655105-.302512415601996,1.531837653537877-.471996625675274.170454464259819-.057297091334476.226596881599107-.164468846512136.159131474390961-.329259468796408-.182933200167099-.446840225396045-.368189230344797-.892735147062012-.554261334880721-1.338281080705201-.068072495861998-.16299671933939-.201270386356555-.152935305580286-.336352866195739-.112187993789121-.418146496836926.126138764601819-.8341508252106.259470852533013-1.253247558224757.382298758114302-.103826409662361.030427302730459-.176714552299018.052874241562677-.144494548947478.187769037098406.12567205250707.526147536840654.246649799044462,1.05343976156837.365506344925961,1.581177528544686.034579629895234.153540488535327.133655093428388.132427206289321.231880835393895.100479845208611Z"/>
      <path class="cls-19" d="M27.96597531392581,20.7251295729302c-.119549090299188-.010308285971405-.140855173322052.086371663633145-.162199020098342.164602776286301-.119859837324839.439319470825467-.232731070671434.880842488279995-.437570006713941,1.290933361132375-.069431131832971.13900261157869-.007181109922385.218889694783684.112783138167288.271116300631547.462107899307739.201184764195204.927004147913976.396026116886787,1.387648009062104.600471402581206.148233905083544.065791587334388.221894777283524.029196765601228.280565400713385-.1199114547926.205445792827959-.522122183801002.388011381763135-1.051466846604853.53956234420184-1.591660692907681.022839284654765-.081413075276032.032469009704073-.145260270130166-.076022117260436-.174501780707942-.529856135482987-.142797282738684-1.058468764949794-.29020678622237-1.587680490712955-.435407550671698-.018097442292856-.00496545772603-.037875681438891-.003805209593338-.057087257358944-.005642361551509Z"/>
      <path class="cls-19" d="M24.140822115259652,26.54879363121654c-.020612945521862.010501718832529-.057496109760905.023212482785311-.087310270026137.045415666889312-.355923679864645.265092496963916-.684307434465154.566106502128605-1.072643961793801.789522061103526-.132172967387305.076039714818762-.212697253360602.188545948815772-.09516024968616.372420271847659.264675515312774.414059082238964.505944683714915.843229791489648.751298961169596,1.269382470968594.05551197063869.096417118790669.126190092107208.112708664544698.210730024804434.066413449548236.524789402637907-.287380278885394.978608188308499-.676162126104828,1.457184245975441-1.029422729611724.082571091481441-.06094940978528.082668379782262-.143350817125793.015353114360551-.223034953930437-.34765776230779-.411535073545565-.694732606210891-.823565404522924-1.043461333772939-1.234189845745277-.029701132334594-.034973527462171-.065398763248595-.070600780387394-.135990531030984-.056506391069888Z"/>
      <path class="cls-19" d="M14.323872875482266,29.044072080265323c-.009570504462317-.163505536843331-.061771381571816-.221019137327858-.17225693207547-.249194374819126-.440334490243913-.112283532672336-.88590900244526-.208797822415363-1.296079270974587-.417548149910544-.151502350796363-.077103658639317-.228237410516158.020375359994432-.279849868280508.148542777857074-.180216574481165.447521521030467-.358648951991199.895773056525286-.541424097285926,1.342248742253105-.056042913727651.136896767047801-.042823288615182.211213435989521.113071350515384.28448709454824.47555940867278.223519930182192.980111513625161.353166366330697,1.480127692482711.499067808299515.106016387324416.030935355502152.223119262387627.080927188992064.287605711586366-.075886401910793.20989201469456-.510388816204795.254210400518787-1.062868560860807.408805414032031-1.531717496317469Z"/>
    </g>
  </g>
</svg>