<?xml version="1.0" encoding="UTF-8"?>
<svg id="Capa_1" data-name="Capa 1" xmlns="http://www.w3.org/2000/svg" viewBox="0 0 34.015748031495605 34.015748031497424">
  <defs>
    <style>
      .cls-1 {
        fill: #d1dbf1;
      }

      .cls-2 {
        fill: #1d3a69;
      }

      .cls-3 {
        fill: #e8edf9;
      }

      .cls-4 {
        fill: #b21d1a;
      }

      .cls-5 {
        fill: #f29cb2;
      }

      .cls-6 {
        fill: #edf2fa;
      }

      .cls-7 {
        fill: #e72c5d;
      }

      .cls-8 {
        fill: #fff;
      }

      .cls-9 {
        fill: #eeeded;
      }

      .cls-10 {
        fill: #b5b2b2;
      }

      .cls-11 {
        fill: #ee728b;
      }

      .cls-12 {
        fill: #e1e9f5;
      }

      .cls-13 {
        fill: #e8465e;
      }
    </style>
  </defs>
  <g>
    <path class="cls-8" d="M0,17.007874015747802C0,7.614956225133938,7.614956225135757,0,17.007874015747802,0c9.392917790613865,0,17.007874015747802,7.614956225133938,17.007874015747802,17.007874015747802,0,9.392916740707733-7.614956225133938,17.007874015749621-17.007874015747802,17.007874015749621C7.614956225135757,34.015748031497424,0,26.400790756455535,0,17.007874015747802"/>
    <path class="cls-9" d="M9.786160513496725,17.186330457139775c0-3.942339375780648,3.195925629202975-7.138265004983623,7.138265004983623-7.138265004983623,3.941239076024431,0,7.137164705227406,3.195925629202975,7.137164705227406,7.138265004983623,0,3.942339375778829-3.195925629202975,7.138265004981804-7.137164705227406,7.138265004981804-3.942339375780648,0-7.138265004983623-3.195925629202975-7.138265004983623-7.138265004981804"/>
    <path class="cls-4" d="M9.786160513496725,17.221339517573142c0-.105686521232201,3.044001320553434-.944575842646373,6.997348943405086-.90934735220435,3.953348672755965.035228490442023,7.278080766805942.803660830972149,7.278080766805942.90934735220435,0,3.942339375778829-3.195925629202975,7.138265004981804-7.137164705227406,7.138265004981804-3.942339375780648,0-7.138265004983623-3.195925629202975-7.138265004983623-7.138265004981804"/>
    <path class="cls-1" d="M11.389847406595436,13.523840985109928c-.01981589463503-.170640953436305-.051742435907727-.342382206627008-.056145734737584-.51412345981953-.008807647562207-.37210499867615.050641086249016-.736503699448804.188254148753913-1.083289204905668.389720293800565-.973200434749742,1.111913797009038-1.557778775642873,2.121443021955201-1.805482708112322.093576924498848-.02311889370867.195961496559903-.00880869746652.280730773496543-.069356681129648h.055045434983185c.066053682054189.023118893710489.13210841401451.023118893710489.198162096070519,0h.394124642534734c.057246034493801.029722792049142.117796117963735.006603898340472.17614455202056.014310196243969.333573509160487,0,.651735472418295.083668977180423.956685439379726.20807214319575.367702749750606.150822958992649.744211047256613.257610829883561,1.140537339206276.286235421985111.121100166943506.06165038322797.126603765527761.071557280640263.042934788345519.182750550169658-.220179640120477.292839320323765-.421645785168948.59669003743511-.594487338115869.921456948935884-.355592103114759.669349717640216-.586783140020998,1.379431524304891-.668249417883999,2.134652918444772-.168438254117063,1.561081774716513.344582806137623,2.915194855706432,1.279250701465571,4.137198472775708.041834488591121.053945135226968.088073325914593.095778573913776.156328657385529.112293569283793.033026841027095.008806597657895.093576924498848.005503598584255.070458030788359.073759979957686-.049540786492798.033026841028914-.104586221475984.027522192540346-.15963165645735.029724891857768-.295042019644825-.018715594880632-.519627058403785.115594468550626-.691368311594488.336876508234127-.245501233150208.318160913353495-.367701699846293.68145931437175-.373205298432367,1.086592203981127-.011009296977136.717790204376797.051741386005233,1.432277409679955.105685471327888,2.14786491473933.02862459210337.373207398240993.080365978106784.745312396917143.091375275083919,1.120720394666932.009908997222738.343482506381406-.15082295899083.583480140947358-.463480273760069.719991853791726-.279629423837832.122200466697905-.59338703836147.056145734737584-.825678375023926-.180547850848598-.238896284905422-.243300633639592-.428251783318046-.524031407136135-.59338703836147-.81907342678096-.353391503604144-.628616578707806-.566966195481655-1.3056725942497-.703478958230335-2.01135215199065-.162933605628496-.848797268732596-.252106181393174-1.70750353468793-.336876508234127-2.567310100399482-.067155031714719-.689165612273428-.256510530127343-1.344204083765362-.570268144650981-1.961811365496033-.144219060652176-.284032722667689-.278529124081615-.57357114372644-.445866028539967-.846594569415174-.140916061578537-.265319227593864-.298346068620958-.520729457966809-.452472026687246-.777239988094152-.138714412163608-.232291336660637-.226786688173888-.4832961683951-.3093543156956-.737606099011828-.015412595805174-.046237787420978-.009907947316606-.092475574840137-.013210946392064-.138713362259296"/>
    <path class="cls-3" d="M17.137010150558126,18.106466626408292c-.231189987001926-.006604948244785-.30825296603507-.202566444804688-.415040836925982-.351188804286721-.456875325517103-.635221526950772-.811367128877464-1.323286839469802-1.004025626363727-2.087313781363264-.148621309575901-.592286738607072-.19596044665559-1.193382174678845-.136511712844367-1.805484807920948.073761029863817-.744209997354119.290638720814968-1.443284606850284.62201163046484-2.110433724978066.187152799093383-.377608597262224.416141136682199-.732100400620766.680359014615533-1.060170311196998.059448733813042-.074862379522528.002201649414928-.077062979033144-.029724891857768-.104585171571671.058348434056825-.056146784641896.132108414016329-.040734188834904.20036479538976-.039633889080505.2851340723264.006605998149098.563662146503702-.038531489515663.828981374097566-.137613062503078.462379974005671-.17284155294692.921456948937703-.34898610496748,1.423468712215254-.358895102190218h.647333223492751c.205867344069702.058347384152512.42054548541455.072659680205106.623109830410613.140916061578537.376510397312813.126603765527761.718892603939821.307151616376359,1.028246919635421.560361247238689.299445318472863.245501233150208.518524658838942.54824955069671.704578208082239.88072276010098.014312296050775.024221293273513.027522192538527.0484404867384.05944768390691.052843785568257.006605998147279.006603898338653.016514995370017.015412595806993.013211996296377.022018593954272-.061650383226151.182748450359213-.134310063429439.362198101263857-.156328657385529.557056148354604-.248804232223847-.005503598584255-.491002466298596-.058347384150693-.734303099938188-.099081572987416-.023118893710489-.004403298828038-.040734188834904-.020916194389429-.050641086249016-.044035088099918.10238247225243-.232291336662456.031925491368384-.468985972154769.013209896487751-.704580307890865-.007706297903496-.096878873668174-.008806597659714-.19596044665559-.029724891857768-.292839320323765-.027522192540346-.132107364110198-.096878873669993-.192657447581951-.206969743634545-.183850849924056-.10788817064531.008806597657895-.15963165645735.079265678352385-.15632865738371.223482639195936.006605998147279.252107231297487.05174348581204.500913563329959.067156081619032.75301869481882.004403298829857.072659680203287.05944768390691.126603765527761.074860279713903.195962546466035-.01431019624215.060547983661309-.064953382299791.081466277861182-.116694768305024.08256657761558-.192657447581951.006605998149098-.377610697069031.058349483961138-.569167844896583.082568677426025-.063853082543574-.006605998147279-.093577974403161-.056146784641896-.126603765525942-.101284272306657-.142016361332935-.193757747336349-.278529124081615-.389718193991939-.418344885903934-.584580440701757-.090272875520895-.12440106620852-.201464045241664-.155226257820686-.298345018718464-.085869576691039-.091375275083919.067156081619032-.101282172498031.177244851774958-.018713495072006.300545618227261.101282172498031.147522059725816.208070043388943.290638720814968.312655214960614.434857781467144.040734188834904.053944085322655.10018397255044.104587271380296.071559380448889.187153848997696-.281832123157074.137613062503078-.557058248165049.288438121304353-.802559481313438.4888018667898-.686965012764631.559260947482471-1.109711097689797,1.269342754147146-1.252829858587575,2.14786491473933-.113391769229565.699074609496165-.017613195315789,1.370625976549491.293941719888608,1.999242555257297.457976675175814.925861297671872,1.19338007487022,1.537963930912156,2.19300240240409,1.820896353823628.062750682982369.018715594880632.131007064355799.022017544051778.177244851774958.079264628448072.051743485813859.131008114260112.003302999075459.260914878859694-.01431019624215.388619994046167-.082568677426025.604396335338606-.171743352999329,1.208792670677212-.328069910576232,1.801079409284284-.202566444802869.768431290625813-.531738754943945,1.473009498708052-1.033750518219676,2.092819479756145-.181648150604815.225685338515177-.396324192141037.383115345559418-.705678507836637.371004698921752-.378710996825248-.014311246146463-.696874009987368-.323665561842063-.707883306964504-.702376558667311-.007706297903496-.301648017790285.045137487664761-.598892736754351.066055781864634-.898338055225395.033025791122782-.472288971228409.075962679276927-.943475542891974.105685471326069-1.416864813874781.020918294199873-.337977857894657.023118893710489-.674854366128784.024221293273513-1.012832224021622.001100299756217-.35228910404112-.099081572987416-.674854366126965-.284034822474496-.974299684599828-.124401066206701-.203667794465218-.292839320323765-.351188804286721-.517424359082725-.434857781467144-.042934788345519-.015412595806993-.091375275083919-.027522192538527-.116695818209337-.072659680203287"/>
    <path class="cls-8" d="M19.306672129436265,10.05103878126647c-.167337954362665.033027890931407-.335776208479729.060550083469934-.502011763277551.097981273231198-.260915928765826.057247084398114-.510820460744071.14751995991719-.757421993648677.247701832660823-.382013995898888.155228357629312-.781643286924009.210272742706366-1.193381124776351.190456848071335-.385316994972527.001102399563024-.745312396915324-.110090869964552-1.097602550860756-.253207531053704-.325867211256991-.131007064355799-.663845069149829-.220181739929103-1.015032823532238-.255410230371126-.009908997220919-.006605998149098-.013211996296377-.012109596733353-.009908997220919-.018715594880632.00330299907364-.005503598584255.006605998147279-.008806597657895.008807647562207-.008806597657895h4.566551605754285Z"/>
    <path class="cls-12" d="M14.177117717108558,10.05103878126647c-.066054731960321.044037187908543-.132108414016329.045137487662942-.198163145974831,0h.198163145974831Z"/>
    <path class="cls-6" d="M14.740780913516573,10.05103878126647c0,.008806597657895,0,.018715594880632.001101349658711.027522192538527-.057247084396295-.007706297903496-.119998817282976.02311889370867-.169539603775775-.027522192538527h.168438254117063Z"/>
    <path class="cls-1" d="M20.719242834533361,18.20510723956977c-.027522192538527.251005881638775-.055044385078872.502012813181864-.081466277863001.753018694820639-.506417161914214-.096879923574306-.963291437527005-.308252966036889-1.367324027380164-.620910280806129-.44586707844428-.344582806135804-.803659781069655-.768431290625813-1.041454716314547-1.284755349954139-.168438254117063-.366601400091895-.266419527350081-.750815995501398-.308254015941202-1.157051284673798-.062752782789175-.612102633242102.053944085322655-1.191177375550978.299445318472863-1.743832324886171.234494035981697-.525130656986221.59338703836147-.961088738207764,1.054666712612743-1.306773943908411.235594335736096-.177244851776777.476692270056446-.346783405648239.767330990871415-.427151483563648.036328790196421-.012109596733353.05944768390691.01211169654016.086971976254063.029724891857768.161832255969784.108990570210153.266417427541455.070459080692672.324766911502593-.121100166941687.007706297901677-.025319493221104.008806597657895-.053944085324474.030825191612166-.074860279713903.201464045239845-.03632879019824.399627191216496-.097981273233017.607699334412246-.090272875520895.034128190687625.001100299754398.068254281566624-.027524292347152.102382472254249-.041836588399747.083668977180423-.037429089952639.168438254117063-.030825191612166.253209630860511-.004403298828038.266417427541455.044037187908543.531736655135319.08807227601028.797053782920557.133209763673221.097981273233017.033027890933226.20146614505029.03963178927188.301648017792104.058349483961138.079265678352385.296142319399223.105687571136514.595587637872086.058347384152512.900538654737829-.055044385078872.023118893710489-.101282172498031-.004403298829857-.14751995991719-.024219193464887-.81797207712043-.353391503604144-1.618330958923252-.32146601223576-2.402174845356058.101282172498031-.086969876447256.045137487664761-.173941852701319.093577974403161-.251004831734463.158529256894326-.011009296977136.007708397712122-.020918294199873.015414695615618-.031927591177009.022018593954272-.074860279713903.057247084398114-.150822958992649.114494168794408-.22128203968532.178347251339801-.050641086249016.0484404867384-.09907947317879.097981273233017-.146419660162792.147522059725816-.05944768390691.057247084398114-.100181872741814.129906764601401-.157428957139928.189354448508311-.015412595805174.01981589463503-.028624592101551.040734188834904-.042934788345519.061650383226151-.083668977180423.106787870890912-.150825058799455.22128203968532-.209172442951967.342382206627008-.055044385077053.106787870890912-.106787870890912.21577634129244-.144219060652176.330270510086848-.025319493219286.08807227601028-.055044385077053.175044252264343-.073759979957686.265319227593864-.038531489517482.139813662013694-.049540786494617.282932422911472-.062750682982369.426049083998805-.027524292347152.121100166941687-.026421892784128.241097934320351-.001102399563024.363298401018255.009908997220919.045137487664761.012109596731534.090274975329521.013211996296377.135412462994282-.005505698392881.096878873668174.029724891857768.186051449432853.046237787419159.278527024272989.020916194391248.094678274157559.040732089026278.189356548316937.075962679276927.279630473740326.027522192540346.068256381375249.048438386929774.137613062504897.082566577617399.202566444804688.029724891857768.064953382299791.062752782790994.127705115186473.094678274159378.191557147827552.085869576691039.188255198656407.216878740855464.345684155796334.350088504530504.500912513425646.063850982734948.070456980884046.132107364110198.135410363185656.19926344572923.202565394900375.058347384152512.067156081619032.132107364110198.113393869038191.201464045239845.166236604702135.096880973478619.070458030788359.199265545539674.13320976367504.302750417356947.193759847144975.051741386003414.036329840102553.108988470399709.06165038322797.167335854552221.08587062659717.071559380448889.028623542197238.142018461141561.060549033565621.215778441101065.083668977180423.031925491368384.011008247072823.063853082545393.01981589463503.094678274157559.029723841953455.056144684833271.026421892784128.126603765527761.0242202433692.161832255969784.085870626595351"/>
    <path class="cls-5" d="M20.008829258093101,13.268321564684811c.854302967127296-.478892869567062,1.719613131421283-.478892869567062,2.595932592694226-.061650383226151.376510397314632.216878740855464.706780907399661.4888018667898.952282140549869.853200567562453.507517461670432.750818095310024.617608331634983,1.557780875453318.330272609895474,2.417586391258737-.027524292348971.081467327767314-.051743485813859.159630606554856-.049540786494617.24550228305452-.106787870890912.180547850850417-.198163145974831.37210499867615-.333575608967294.535039654208958-.06495338230161.079264628448072-.12440106620852.164033905384713-.222382339441538.209171393047654-.133209763673221.10898952030584-.24770393246763.238896284907241-.397426591704061.32806886067192-.288436021495727.039632839176193-.442564079370641-.073759979957686-.528433656061679-.385315945068214-.011009296977136-.041834488591121-.012109596731534-.084770326840953-.00330299907364-.127705115186473.007706297903496-.034128190685806.017615295126234-.066053682054189.018715594880632-.101283222402344.002202699319241-.035228490442023.00330299907364-.071558330542757.014312296050775-.105686521230382.004403298829857-.013210946392064.012109596733353-.026421892784128.020916194391248-.038531489517482.211373042462583-.217979040609862.426051183807431-.429353132976757.560361247238689-.71338690554694.504214462594973-1.060170311196998-.226787738078201-2.363641256031769-1.39484621992051-2.491347421122555-.348986104965661-.037429089952639-.671552416957638.022018593954272-.985310031481276.160734056022193-.322564212183352.140913961769911-.607699334414065-.024221293273513-.64182752509987-.378713096632055,0-.118897467624265-.019815894636849-.242198234076568.063853082543574-.345683105893841"/>
    <path class="cls-13" d="M22.546855426460752,12.307232826477048c-.114494168794408.0484404867384-.214676041536222.025321593027911-.301648017792104-.059449783715536-.060550083469934-.110088770157745-.036328790196421-.213573641973198.018715594880632-.319261213109712.03963178927188-.078165378596168.070456980885865-.160731956213567.105687571136514-.242198234074749.060547983661309-.132109463920642.118897467622446-.264218927839465.181648150604815-.394125692440866.06825638137343-.140913961768092.186053549241478-.191557147825733.307153716184985-.138713362259296.119997767378663.051743485813859.166235554797822.181650250413441.105685471326069.319263312918338-.103484871817273.234491936173072-.211373042462583.467883572589926-.317060613597278.702375508761179-.023118893710489.052843785568257-.059447683908729.093577974403161-.100181872743633.132109463920642"/>
    <path class="cls-13" d="M24.190724258709452,12.33266360955713c.00330299907364.08807227601028-.033027890933226.149722659236431-.097981273233017.197062846220433-.21577634129244.156326557575085-.430452382828662.315958214034254-.650634122757765.467883572589926-.115594468550626.081466277861182-.249904531980064.055044385078872-.322564212183352-.049540786494617-.07376207976813-.102384572061055-.049540786492798-.232291336660637.067153981810407-.318160913353495.211375142271208-.15632865738371.42605118380925-.308254015939383.638524526026231-.461279674249454.078165378596168-.056146784641896.162934655532808-.072659680203287.249906631786871-.02532159302973.077062979033144.040734188836723.117797167868048.106787870890912.115594468550626.189356548316937"/>
    <path class="cls-13" d="M20.484530418447321,12.251527001661088c.017615295126234.122200466696086-.015412595806993.222382339439719-.132109463918823.277428824325398-.138713362259296.066053682056008-.225685338515177-.02311889370867-.310454615449999-.111193269527575-.136510662940054-.194858047092566-.273023425688734-.389718193993758-.409536188437414-.58457834089495-.102384572062874-.145319360406575-.094678274159378-.275226125007975.018715594880632-.356694502677783.115594468548807-.083668977180423.242198234074749-.050641086249016.345683105892022.092475574838318.164034955287207.225685338515177.324766911500774.454673676102175.487701567033582.682561713936593"/>
    <path class="cls-13" d="M21.448372005852434,12.114905048860237c-.083668977180423.039631789270061-.168438254117063.040734188834904-.253207531053704.00330299907364-.072659680203287-.055046484887498-.101284272304838-.131007064355799-.108990570208334-.219079340366079-.022018593956091-.243300633639592-.046237787420978-.486601267279184-.067153981810407-.728799501355752-.014312296052594-.166237654606448.051741386003414-.264216828029021.184951149678454-.280731823400856.143118760895959-.017613195315789.239997634565952.059449783717355.259813529200983.228988337588817.029724891857768.256510530127343.049540786492798.514123459817711.073759979957686.770633989945054.008808697468339.091375275083919-.020916194389429.166235554797822-.089172575764678.225685338515177"/>
    <path class="cls-11" d="M22.379956332115398,17.266806675203043c0,.046237787419159,0,.092475574838318-.001100299754398.139814711918007-.041834488591121.161833305872278-.012109596733353.290638720813149.151923258747047.373206348334861.066055781862815.033027890933226.070459080692672.09247662474445.004405398636663.128806464847003-.077065078839951.042934788345519-.115596568357432.123300766452303-.183850849922237.171741253190703-.006605998149098.005504648488568-.015414695615618.007706297903496-.024221293273513.005504648488568-.101282172498031-.022018593954272-.195960446657409-.017615295126234-.258711129637959.082567627521712-.046239887229603.017614245220102-.092477674648762.036329840100734-.139815761822319.055045434981366-.037431189761264.002201649414928-.074862379522528.003301949169327-.112291469475167.005503598584255-.072659680205106-.040733138930591-.140916061578537-.051742435907727-.199265545539674.026421892784128l-.008806597657895.00330299907364-.009906897414112-.00330299907364c-.16513735485205.017614245221921-.330272609895474.018715594880632-.496508164693296,0l-.009908997220919.00330299907364-.009908997222738-.00330299907364c-.057247084396295-.070458030788359-.122198366889279-.082567627521712-.197060746411807-.027522192538527-.056146784641896-.002201649414928-.113393869038191.004403298829857-.165135255043424-.023118893710489-.059449783715536-.018715594880632-.117797167868048-.037431189761264-.176144552018741-.056146784641896-.014312296052594-.048439436834087-.059449783717355-.01981589463503-.085871676501483-.034127140781493-.084769276934821-.002202699319241-.15082295899083-.048440486740219-.222382339439719-.083668977182242-.029724891857768-.078164328691855-.092475574838318-.094678274157559-.167337954360846-.08807227601028-.115594468548807-.046237787419159-.216876641046838-.116695818207518-.311554915206216-.194860146901192.003302999075459-.139814711918007-.118897467622446-.131008114260112-.200365845294073-.169539603775775-.074860279713903-.056145734737584-.139813662013694-.119998817282976-.194860146901192-.195961496559903-.017613195315789-.170639903531992-.146419660160973-.282932422911472-.223482639194117-.421645785170767-.030825191613985-.053944085322655-.096878873668174-.053944085322655-.138715462067921-.089173625668991-.040732089026278-.06054903356744-.077062979033144-.122200466697905-.093575874594535-.194860146901192.044037187910362-.095778573913776.008806597657895-.159630606554856-.083668977180423-.19706179631612-.046237787420978-.090274975329521-.071557280640263-.184951149678454-.078163278787542-.28403272266587.045137487662942-.064953382299791.063850982734948-.126603765525942-.015412595806993-.179447551094199-.037431189761264-.02532159302973-.017615295126234-.070459080694491-.037431189761264-.101284272306657-.001100299756217-.046237787419159-.004403298829857-.091375275083919-.006605998149098-.137613062504897-.01981589463503-.124401066206701-.01981589463503-.251004831732644,0-.376508297504188-.007706297903496-.15302565831189.012109596733353-.301648017792104.063853082545393-.44586707844428.13651276274868-.049540786494617.067153981810407-.164034955287207.079265678352385-.253207531053704.022016494145646-.124403166015327.080365978106784-.232291336662456.144216960843551-.337978907797151.150825058799455-.064951282491165.221282039683501-.179445451285574.214678141344848-.342380106818382.005503598584255-.022018593954272.008806597657895-.045137487664761.033025791122782-.053944085322655.139815761824138.004403298828038.131007064355799-.117797167868048.170640953436305-.199263445731049.03632879019824-.056146784641896.082566577617399-.102384572061055.139813662013694-.138715462067921.121100166943506-.009906897412293.203668844369531-.066053682054189.227888037834418-.191557147825733.005503598584255-.005503598584255.012109596731534-.007706297903496.020916194389429-.008806597659714.126605865336387.006605998149098.17614455202056.091375275085738.202568544613314.200363745485447.031925491368384.314860014088481.304948917057118.467885672398552.586781040214191.330272609895474,1.049161014218043-.514123459817711,2.348228660224777.12770406528216,2.564007101324023,1.277049052050643.115594468550626.614305332561344-.047340186982183,1.158151584428197-.488801866787981,1.61172391087166-.074862379522528.075962679276927-.156328657385529.147521009821503-.234494035981697.22128203968532-.448067677954896-.029724891857768-.645128424364884-.315959263938566-.503112063031949-.732101450525079.142016361332935-.162934655532808.271923125934336-.331372909649872.325867211256991-.549351950259734.132109463918823-.531736655135319-.28403272266587-1.070079308419736-.832284373173025-1.081088605396872-.168438254117063-.003300899265014-.322564212181533.044037187910362-.481093469075859.083668977182242-.391922993121625-.019815894636849-.536142053773801-.189354448508311-.538342653284417-.655037421587622-.124403166015327.046237787419159-.210272742706366.13651276274868-.297244718962247.223482639194117-.334675908723511.335776208479729-.507517461670432.753018694820639-.50531476235119,1.217601368145552.005503598584255.912649301373676.647331123684125,1.620531558433868,1.48291849593079,1.762547919766803.37540799774979.06385203264108.726596802034692.004403298828038,1.066776309344277-.154127007970601.091375275083919-.042934788345519.17063885362586-.119997767378663.280729723592231-.115594468548807,0,.038531489515663-.002200599510616.074861329618216-.002200599510616.11229251937948-.018715594880632.025320543123598-.030825191613985.052842735663944-.02532159302973.08476927693664"/>
    <path class="cls-11" d="M22.351443029874645,18.079825303615507c.01981589463503-.041834488591121.028622492292925-.10788817064531.060550083469934-.122200466697905.200363745485447-.090273925423389.096878873668174-.148622359480214-.006605998147279-.233391636416854-.116694768305024-.094678274157559-.114494168794408-.177245901679271-.026421892784128-.318160913353495.058347384152512.271923125934336.252107231297487.36880199960251.50531476235119.388618944141854-.165135255043424.118897467624265-.339077107744743.22128203968532-.532836954889717.2851340723264"/>
    <path class="cls-11" d="M22.068731086876141,18.167566859756334c.056146784641896-.15632865738371.113393869038191-.175044252264343.258713229444766-.081467327765495-.081468377669808.042935838249832-.165137354850231.079265678350566-.258713229444766.081467327765495"/>
    <path class="cls-11" d="M20.884157609663816,18.227456553393495c.008806597657895-.06385203264108.055044385077053-.08807227601028.108990570208334-.081467327765495.055044385078872.007706297903496.085869576692858.051742435907727.089172575766497.108989520304021-.067156081619032-.002201649413109-.13651276274868.009908997222738-.198163145974831-.027522192538527"/>
    <path class="cls-11" d="M21.617801369673543,18.254868505975537c.061650383226151-.144218010746044.099081572987416-.148622359480214.19926344572923-.026421892782309-.06275068298055.037431189761264-.132107364110198.02311889370867-.19926344572923.026421892782309"/>
    <path class="cls-11" d="M21.102027460221507,18.255309465801474h.496508164693296c-.165135255043424.039632839176193-.330272609895474.036329840102553-.496508164693296,0"/>
    <path class="cls-11" d="M18.99918874328614,16.871691972868575c.08807227601028-.004403298829857.17614455202056-.005504648488568.180547850848598.117797167868048.001102399564843.028623542197238.023118893710489.037430139856951.041834488591121.051742435907727.111191169720769.085870626595351.165135255043424.198162096070519.139815761822319.341279807063984-.149722659236431-.149722659236431-.270822826178119-.319262263014025-.362198101262038-.510819410839758"/>
    <path class="cls-11" d="M19.186342592283836,14.020899299679513c.081466277861182.164034955287207-.027522192538527.337976807988525-.214676041536222.342382206627008.057247084396295-.123302866260929.118897467622446-.243300633639592.214676041536222-.342382206627008"/>
    <path class="cls-11" d="M19.981416255606746,13.629637746296794c-.0484404867384-.085869576691039-.124403166015327-.145319360406575-.202566444804688-.200363745485447.061650383226151-.074862379522528.150822958992649-.11119116971895.230088637343215-.160731956213567-.028622492292925.118897467624265-.027522192538527.239995534757327-.027522192538527.361095701699014"/>
    <path class="cls-11" d="M19.757601846638863,13.43830107838221c-.001100299756217.206969743634545-.018715594880632.222382339441538-.227888037834418.190456848073154.063853082545393-.078165378597987.146421759971417-.13320976367504.227888037834418-.190456848073154"/>
    <path class="cls-11" d="M18.691046017207555,15.914895243628052c.030825191612166.025321593027911.035228490442023.067156081619032.078163278787542.091375275083919.095780673722402.055044385078872.081468377669808.128806464845184-.025319493221104.189354448508311-.034128190685806-.090272875520895-.053944085322655-.183850849924056-.052843785566438-.280729723592231"/>
    <path class="cls-11" d="M19.556358281310168,17.577702250477159c.027522192540346-.001101349658711.055044385078872-.001101349658711.081466277863001-.001101349658711.150825058799455.002202699319241.167337954360846.026421892784128.118897467622446.170640953436305-.071557280640263-.051742435909546-.14751995991719-.096879923572487-.200363745485447-.169539603777594"/>
    <path class="cls-11" d="M19.39012062670372,13.768573688277684c0,.027522192538527.001100299754398.055044385078872.001100299754398.081466277861182-.002200599508797.149722659236431-.027522192538527.167337954362665-.171741253190703.117797167868048.053944085322655-.069356681127829.099081572987416-.146419660160973.170640953436305-.19926344572923"/>
    <path class="cls-11" d="M18.827449589904063,14.701037834383897c.009908997220919.025321593027911.018715594880632.049540786492798.029724891857768.073759979957686.05944768390691.118897467624265.030825191612166.166237654606448-.108990570210153.180549950659042.015412595806993-.088074375818906.036330890006866-.175044252266161.079265678352385-.254309930616728"/>
    <path class="cls-11" d="M18.821502931685245,16.479330119729639c.053944085322655,0,.119997767378663-.017614245220102.140916061578537.057247084398114.016512895561391.057247084396295.009906897412293.11229251937948-.057247084398114.140916061576718-.045137487664761-.058348434055006-.060550083469934-.129906764599582-.083668977180423-.198163145974831"/>
    <path class="cls-11" d="M20.06794727203669,17.942431671119266c.124403166015327-.075962679276927.157428957139928-.058348434055006.167337954360846.08807227601028-.059449783715536-.020917244293742-.118897467622446-.04403613800423-.167337954360846-.08807227601028"/>
    <path class="cls-11" d="M18.684771788832222,15.40066259375817v.377610697069031c-.036330890006866-.126603765525942-.035228490442023-.252107231297487,0-.377610697069031"/>
    <path class="cls-11" d="M20.457447085926106,18.114393404224757c.039631789270061-.015412595806993.086971976254063-.051742435909546.085869576691039.034128190685806-.028622492294744-.011009296977136-.057247084398114-.02311889370867-.085869576691039-.034128190685806"/>
    <path class="cls-11" d="M22.379956332115398,17.266806675203043c-.095778573913776-.059448733813042.001100299756217-.060550083471753.02532159302973-.08476927693664,0,.030825191612166.005503598584255.06275068298055-.02532159302973.08476927693664"/>
    <path class="cls-13" d="M21.9290266149128,16.337973098326984c-.024219193464887.10898952030584-.044037187908543.219080390270392-.025321593027911.330271559989342.031927591177009.186052499338984.161834355776591.310454615449999.353391503604144.345684155798153.053944085322655.008806597657895.110090869964552.013210946392064.151925358555673.056145734737584h-.001102399564843c-.337976807988525.219080390270392-.705678507836637.353390453699831-1.110811397444195.333574559062981-.895035056153574-.042935838249832-1.586403367746243-.655038471491935-1.728419729079178-1.51154308803234-.119999867187289-.72439410271727.140913961768092-1.323286839471621.732100400618947-1.768051518351058.033027890933226-.02532159302973.068256381375249-.079265678352385.118897467624265-.049540786494617.016512895561391.009906897414112.014312296050775.060550083471753.011009296977136.092475574840137-.03632879019824.391922993121625.094678274157559.553755249089591.484398567959943.59338703836147,0,.064953382299791-.056146784641896.082568677426025-.094678274157559.113393869038191-.307151616376359.241097934320351-.430454482637288.629717928368336-.315960313842879.995216928895388.106787870889093.339079207553368.445867078442461.603296035584208.809165479460717.625314629538479.161832255969784.008806597659714.314857914279855-.036329840100734.461279674251273-.106787870890912.048438386929774-.024219193464887.090272875519076-.07155938044707.154125958064469-.049540786492798"/>
    <path class="cls-7" d="M21.9290266149128,16.337973098326984c-.550452250015951.354490753454229-1.159251884182595.194860146901192-1.427874110851917-.375407997751608-.175042152455717-.371004698919933-.037429089952639-.882925459420221.300547718037706-1.119620094910715.037431189761264-.027522192538527.075962679276927-.055046484887498.113393869038191-.082568677426025.222382339439719-.090272875520895.452470976782934-.131007064355799.68476231344539-.066053682056008.37210499867615.105687571136514.604396335338606.353389403795518.674853316224471.73320280018379.069358780938273.36880199960251-.06495338230161.669349717640216-.345683105893841.910447651960567"/>
    <path class="cls-10" d="M30.703675684057089,13.258412567463893c-.190456848071335-.209172442953786-.366601400091895-.430454482637288-.682561713934774-.464582673324912-.410636488193632-.046237787419159-.68476231344539.169540653680087-.912648251469363.465682973079311-.24990663178869.324766911500774-.487701567035401.659442820226104-.765130391360799,1.037053517295135-.139813662015513-.470086271909167-.247701832660823-.877421860835966-.382011896090262-1.277049052052462-.334675908723511-.987512730800518-.793752883655543-1.91227267881186-1.375030325285479-2.785289141009343-.478892869567062-.716689904622399-1.022741221242541-1.372827625966238-1.650256450291636-1.954105067594355-.669349717638397-.617608331634983-1.380533923867915-1.180170178382468-2.188599103574234-1.628237856337364-.574671443480838-.319263312916519-1.151543486472292-.619811030954224-1.764748519277418-.847696968978198-.768431290625813-.286235421985111-1.555578176134077-.502011763277551-2.373550253254507-.619808931145599-.94897914147441-.137613062503078-1.899060682515483-.179447551094199-2.849141173650423-.079265678350566-.515222709669615.053944085322655-1.030446469241724.116694768303205-1.535761231592915.256510530127343-.419445185660152.115596568357432-.843292620245848.210272742706366-1.256132857661214.353391503604144-.804760080824053.279629423836013-1.567687772865611.646230823927908-2.283275277924986,1.1020047997863-.870815862688687.554855548843989-1.67887894258638,1.194480374624618-2.380156251401786,1.961811365496033-.99411662914099,1.087694603544151-1.799979109528067,2.298687873731978-2.318503768367009,3.678121497845495-.477792569812664,1.266041854882133-.737606099013647,2.279974378658153-.815771477609815,3.937937126853285-.015412595806993.553754199187097.039633889080505,1.148242587207278.067156081619032,1.347506032936508.101282172498031.237794935246711.285135122230713.373207398240993.549351950261553.453573376347777.500911463521334.153025658310071,1.119620094910715-.234494035981697,1.089895203052947-.75412004447935-.050641086249016-.869714513028157.026421892784128-1.726218079666069.164034955287207-2.580521046791546.102384572062874-.630818228122735.308251916132576-1.22970886506846.539442953038815-1.821995603673713.329170210330631-.841090970830919.783843886432805-1.613925560286589,1.315580541568124-2.336121163301868.357794802434-.484396468151317.784944186189023-.914850950788605,1.21870166789995-1.335396436203155.497608464447694-.482195868642521,1.071179608172315-.865310164295806,1.646953451217996-1.235214563461341.42384848448819-.273023425688734.896135355907973-.476692270058265,1.373927925720636-.664946418810359.952282140549869-.374307697995391,1.936490822372434-.588983739531614,2.951524695807166-.680359014615533,1.204390421753487-.108988470401528,2.377953552082545.022018593954272,3.543813534222863.350088504530504.660541020171877.184951149678454,1.291359248294611.441461679805798,1.888049285729721.750815995499579.972100134995344.50531476235119,1.836309999534933,1.176867179308829,2.605841589916963,1.972820662474987.688065312519029.712286605792542,1.23851756253498,1.519249385935836,1.693191238637155,2.385659849986041.31265731476924.597792436999953.550452250015951,1.240720261854221.731000100864549,1.897960382761084.005503598586074.01981589463503-.011009296977136.046237787419159-.027522192538527.108988470401528-.278529124081615-.210272742708185-.541645652356237-.410636488193632-.805862480387077-.608799634168463-.599993036510568-.451370677028535-1.259433756926228-.114494168794408-1.406955816652044.46017727468643-.110090869964552.423848484490009.104585171571671.700177009061008.398526891460278.928062947084982,1.031547818900435.797055882729182,2.075205234536043,1.578697069844566,3.108955752755719,2.371348603839579.154125958066288.117797167868048.246601532906425.081467327765495.34898610496748-.061650383226151.383114295653286-.531736655135319.764027991797775-1.064574659929349,1.162554883258053-1.585302018087532.422748184733791-.553755249089591.824578075267709-1.125125793305415,1.280352051124282-1.653559449365275.096878873669993-.111191169720769.110090869966371-.262014128711598.157428957139928-.395223892386639-.020916194391248-.150825058799455-.040734188834904-.300547718035887-.061650383226151-.450270377272318"/>
    <path class="cls-10" d="M17.722030501181507,27.112305682554506c-.042934788345519-.377610172115965-.042934788345519-.369903874212469-.478893919471375-.355592103114759-.309353265789468.009907947318425-.61980893114378.005504648488568-.928061897180669-.009907947318425-.155227307724999-.008807647562207-.212474392121294.044036138006049-.221282039683501.192657972536836-.025320543125417.433756431804795-.053944085324474.867512863613229-.090273925425208,1.302370120127307-.009907947318425.125502940820297.027522192538527.183850849924056.15632865738371.198162621021766.500911463523153.055045434983185,1.000721577385775.018715594880632,1.501633040907109-.002201649414928.116696868111831-.005504648488568.147522059725816-.074861329616397.137613062503078-.189355498408986-.029724891857768-.36550057538625-.050641086249016-.732101450525079-.077062979033144-1.13613351542881"/>
    <path class="cls-10" d="M10.487656202416474,24.513070090786641c-.033026841027095.027522192538527-.079264628446253.051742435909546-.105686521230382.091375275083919-.234492986077385.356692402870976-.554856598750121.639625350733695-.816871777366032.972098560137965-.116695818207518.148621834528967-.106787870889093.256510530127343.053945135228787.371004698921752.359995401942797.257611354834808.712284505983916.526232531597998,1.090995502809164.75962416801849.147522059725816.090273925423389.230089687247528.080365978104965.318161963257808-.070458030790178.217979040609862-.37320634833668.44476572878375-.743110747504033.669349717638397-1.114115446423966.038531489515663-.062751207933616.061650383226151-.119998292331729-.012109596733353-.175043727313096-.371004698919933-.270822301226872-.740909098087286-.543846776819919-1.111913797007219-.813568253339326-.018715594880632-.013210946392064-.048439436835906-.012109596733353-.08587062659717-.020917244295561"/>
    <path class="cls-10" d="M8.169702058976327,24.486978917871966c.04403613800423-.027522192538527.099081572987416-.051742435907727.142016886284182-.090273925425208.318161438306561-.282932422909653.633019877537663-.570269194555294.95008049113676-.854301917221164.106787870889093-.095778573913776.11229251937948-.175044252266161.016513945465704-.293941719888608-.238896284907241-.291740070473679-.466784322739841-.594488388020181-.688065837472095-.899439404885925-.094677749206312-.131007064355799-.186053024290231-.14862130957772-.317060613599097-.061650383226151-.348986629918727.230088637343215-.700174909250563.456875325515284-1.051363713537285.685863663104101-.115594993501873.075962679276927-.151924833602607.161833305874097-.069357206080895.293941719888608.257611879786054.415040836925982.586782615069751.775036238870598.886228458493861,1.158151584428197.029724366906521.038531489515663.061650383226151.082567627521712.131007589308865.061650383226151"/>
    <path class="cls-10" d="M24.401767631206894,23.358552225301537c.024219193464887.036329840102553.037431189761264.069356681129648.061650383226151.091375275083919.350088504530504.3093543156956.685864713008414.635221526952591,1.057969711686383.919255299522774.116694768303205.089172575764678.177244851774958.067155031714719.264216828029021-.033027890931407.31265731476924-.362197051359544.587883439777215-.751917345160109.86090686546595-1.143839288377421.081466277863001-.116695818209337.067156081619032-.189355498412624-.053944085322655-.263116528274622-.365499000528871-.219079340366079-.726596802036511-.448067677954896-1.092097902372188-.667148068225288-.107888170647129-.064953382299791-.225685338515177-.091374225179607-.308251916132576.039632839176193-.212475442025607.340179507307766-.475591970300229.64182752509987-.719992903696038.958888138697148-.024219193464887.030825191613985-.046237787419159.06495338230161-.070456980884046.097980223328705"/>
    <path class="cls-10" d="M19.739877361460458,28.10245944774033c.468985972154769-.093576924497029.90604435313071-.266419002397015,1.350809032010147-.416141661633446.150825058801274-.050641611200263.200365845294073-.145319360406575.139815761824138-.290639245766215-.160731956215386-.394123592632241-.323666611746376-.787146360555198-.487701567035401-1.18016965343304-.060547983661309-.144218010747863-.178345151529356-.135410888136903-.297242619153621-.09908104803435-.368804099411136.11119116971895-.735405499503031.228987812635751-1.104207499105542.337977332941591-.092475574838318.026421892784128-.15632865738371.046238312372225-.128806464845184.165135779994671.111191169720769.463480798713135.217979040609862.929163771794265.322564212183352,1.394846219922329.030825191612166.13541141308815.118899567431072.115594993498235.20476914412211.088072276008461"/>
    <path class="cls-10" d="M23.248239825519704,24.482575619042109c-.017615295124415.008807647564026-.050641086249016.020917244295561-.077062979033144.039632839176193-.313757614523638.234491936173072-.603296035582389.499810113862623-.945678242209397.69687243512999-.116694768305024.067155031714719-.188254148753913.166236604703954-.08476927693664.328069385624985.233391636416854.365500050431365.446967378198678.74421157220786.662745819299744,1.119620094910715.049540786494617.084769276938459.111191169720769.100181872745452.186051449434672.058347384154331.463482373568695-.253207531055523.863109564783372-.596690037436929,1.285857749517163-.907144652886927.072659680205106-.053944610275721.072659680205106-.126604290479008.013209896487751-.197062321267367-.306051316620142-.363298401018255-.612102633242102-.726597326989577-.920356649181485-1.088794378347302-.026421892784128-.030825191613985-.058347384152512-.061650383226151-.119997767378663-.049540786494617"/>
    <path class="cls-10" d="M14.590507054497721,26.683283269447202c-.008807647562207-.144218535700929-.055045434983185-.194860146901192-.15192430865136-.219079865319145-.387518644387455-.10018239769488-.780541937263479-.184952199582767-1.142738988621204-.368803049506823-.134311113333752-.06825638137343-.20146614505029.017614245221921-.246602582808919.131007589308865-.159631656459169.395224417339705-.317060613599097.790449359630657-.477792569812664,1.183472127553614-.049540786494617.12109964199044-.037431189761264.187153848997696.099080523083103.251006406590022.419445185660152.19706179631612.865311214200119.31155596510871,1.305673644154012.440361905002646.093576924498848.026421892784128.19706179631612.071558855495823.254308880712415-.0671550317129.183850849924056-.450270377274137.223483689100249-.936870069697761.359995401944616-1.350810081916279"/>
    <path class="cls-2" d="M3.244684452400179,15.527840639168062c-.639685720234411-.101059592776437-1.03586082595757-.662262863301294-.932113478054816-1.313774706093682.048917143312792-.311779594734617.194055920172104-.574104495131905.427890616223522-.733219598652795l.08708326611486.117186123537977c-.215020410161742.158040001469999-.32629347242073.375210615733522-.367147350350933.632160005878177-.088695919192105.562278372573928.258024492193726,1.050374703643683.809551844260568,1.138533071809434.551527352066842.08708326611486,1.033710621855789-.270925716804413,1.122406541047894-.83212898732927.040853877930203-.256949390142836-.002687755128136-.498847351575023-.156427348392754-.714942863789474l.118261225588867-.084933062013079c.173628981205184.223621226568866.233834696051417.519274290541944.184917552738625.82997878322567-.103747347902754.652586944843279-.654737148943241,1.06220082620348-1.294422869175833.961141233427043Z"/>
  </g>
  <path class="cls-2" d="M3.871468948022084,13.052955718198064l-1.206264501010082-.427890616223522.054292653565426-.151589389162837,1.199813888706558.425740412119922c.523574698745506.185992654791335.857931436547005.020426938966921,1.012746131864333-.416064493663725s-.002150204101781-.771923272483036-.525724902847287-.957915927272552l-1.199813888704739-.42466531007085.054292653565426-.153739593266437,1.206264501010082.427890616223522c.598831842302388.21179510400907.789662456321821.640760822283482.604744903583196,1.161110214876317-.184380001715908.521424494643725-.601519597430524.729994292501942-1.200351439732913.517124086440163Z"/>
  <path class="cls-2" d="M3.691926905537912,10.077073241551261l.073644490479637-.144063674808422,1.978187773493119,1.010595927762552-.073644490479637.144063674808422-1.978187773493119-1.010595927762552Z"/>
  <path class="cls-2" d="M4.233778339146738,9.041749966620046l.503147759778585-.721393476094818c.403163269054858-.578404903337287,1.054675111847246-.703116741231497,1.585775524948986-.333281635752428.532175515150811.37091020752996.639685720232592,1.02672245852591.236522451177734,1.604052259812306l-.503147759780404.721393476094818-1.822297976124901-1.270770624059878ZM6.431286931005161,9.518020175128186c.359621635996518-.516048984389272.262324900399108-1.075102050810528-.201044083501984-1.398707768104941-.463368983899272-.322530615243522-1.021884499295993-.220395920416195-1.381506135292511.294577961922187l-.403163269054858.578404903337287,1.582550218796314,1.104129806182755.403163269053039-.578404903337287Z"/>
  <path class="cls-2" d="M8.08318123207755,6.909822599858671l-.919749804468665.90308572268259.236522451177734.643986128436154-.124174286867856.122561633792429-.827828579125708-2.300718388736641.11557347046255-.113960817387124,2.286204511050528.868682457055911-.12471183789421.122561633794248-.641835924334373-.246198369637568ZM7.944493067523581,6.85499239526871l-1.315387359169108-.506373065933076.484333473890729,1.322375522498987.831053885278379-.816002456565911Z"/>
  <path class="cls-2" d="M7.860097556535038,5.009042174024216l.731069394551014-.488096331067936c.586468168718056-.39133714649688,1.240130215612226-.270925716804413,1.599214300582389.266625308600851.360159187022873.539701229507045.221471022468904,1.189062868197652-.364997146249152,1.581475116743604l-.731069394552833.488096331069755-1.234217154331418-1.848100425346274ZM9.734000431099048,6.25401034886454c.522499596694615-.349408166513967.635922863055384-.905235926784371.321455513192632-1.376130625039877-.313392247810043-.468744494153725-.870832661157692-.578404903335468-1.393332257852308-.228996736823319l-.585930617691702.39133714649688,1.071876744659676,1.605127361861378.585930617691702-.391337146495061Z"/>
  <path class="cls-2" d="M10.601607786104069,4.568250333191827c-.244048165533968-.596681638200607.029027755372226-1.229916746129675.642911026387083-1.480415523968986.611195515884901-.250498777839312,1.251418787143848.006450612305343,1.496542054728707.605282454607732.245123267584859.599906944353279-.032253061523079,1.230991848178746-.642911026385264,1.481490626018058-.614420822039392.251573879890202-1.252493889194739-.009675918456196-1.496542054730526-.606357556656803ZM12.587858824979776,3.755473182776768c-.212332655035425-.519274290541944-.763322456075912-.743970619161701-1.286359603796882-.53002531104903-.525724902847287.215020410161742-.762247354025021.762247354025021-.550452250015951,1.281521644566965.21287020606178.520349392592834.764397558128621.743970619161701,1.290660012000444.528950208999959.523037147719151-.213945308110851.75902204787235-.76009714992324.546151841812389-1.280446542517893Z"/>
  <g>
    <path class="cls-2" d="M13.858091898013299,2.307310720334499l.505835514906721-.094608980471094.406926126233884,2.184607367249555-.50583551490854.094608980471094-.406926126232065-2.184607367249555Z"/>
    <path class="cls-2" d="M17.157580091956333,1.982629900989195l.097834286623765,2.220085734925306-.421977554944533.01827673486514-1.165948174104415-1.299798379432104.059130612793524,1.348177971718542-.507448167982147.022577143066883-.097834286625584-2.220085734927125.425202861097205-.018276734863321,1.163260418978098,1.298723277381214-.059668163819879-1.347102869667651.507448167983966-.022577143066883Z"/>
    <path class="cls-2" d="M18.376208266550748,2.518030722292679l-.705266945333278-.092458776369313.054292653567245-.414989391612835,1.920132262748666.251573879890202-.054292653565426.414989391612835-.705266945333278-.092458776369313-.234372247075953,1.788969812550931-.509598372085748-.067731429202468.234372247077772-1.787894710500041Z"/>
  </g>
  <path class="cls-2" d="M21.296185436554879,4.603728700867578l-.116648572511622.396712656749514-1.651356750047853-.485946126966155.626784495623724-2.131927366759555,1.611577974166721.473044902357287-.116111021487086.395637554698624-1.120256336946113-.328981227548866-.136537960454007.463368983899272.989093886746559.290277553720443-.112348164309878.383811432138828-.989093886746559-.291352655769515-.145138776859312.49454694337328,1.160035112825426.340807350106843Z"/>
  <path class="cls-2" d="M24.307008729854715,4.041450328293649l-.999307356230929,1.984638385798462-.377360819833484-.189217960942187-.382736330089756-1.702961648486962-.606357556658622,1.205189398961011-.453693065441257-.228996736823319.99930735622911-1.984638385798462.379511023937084.191368165043968.381123677012511,1.701886546436072.606895107683158-1.205189398961011.452617963392186.227921634772429Z"/>
  <path class="cls-2" d="M23.654421785011436,5.994910754618104l.37198530958085-.205344491703727c.067731429200649.221471022467085.235447349128663.464444085950163.448317555188623.624634291520124.244048165533968.183842450689554.403700820079393.17631673633332.485946126966155.066656327151577.248886124763885-.332206533701537-.956840825221661-.878358375513926-.461756330822027-1.53954613676251.226308981695183-.302103676278421.659575108171339-.37091020752996,1.163797970002634.007525714354415.224696328619757.166640817877123.413914289563763.39133714649688.500460004654087.61925878126749l-.360696738047409.218245716316233c-.095684082523803-.218245716316233-.2311469409251-.39133714649688-.389186942395099-.509598372085748-.242973063483078-.181692246585953-.406926126232065-.161265307620852-.490784086196072-.049454694337328-.245660818609394.327906125497975.959528580349797.876208171412145.47035714723097,1.528795116255424-.222546124517976.297803268074858-.659037557146803.367684901377288-1.16756082718166-.012901224610687-.281676737313319-.21072000195818-.50368531080494-.508523270033038-.570879188981053-.748271027365263Z"/>
  <path class="cls-2" d="M26.722763038027551,5.877724631080127l.373060411631741.35478367676842-1.532020422406276,1.610502872115831-.373060411631741-.355858778819311,1.532020422406276-1.60942777006494Z"/>
  <path class="cls-2" d="M28.963275711919778,8.396688736133001l-2.333509001286075.649361638688788-.319305309090851-.395637554698624,1.125094296174211-2.143753489317533.349408166513967.432191024425265-.809551844262387,1.523419606000971,1.665870627733966-.464444085950163.321993064217168.398862860851295Z"/>
  <path class="cls-2" d="M28.165549990217187,9.196564661935554c.582167760514494-.311779594734617,1.25679429740012-.089233470216641,1.587925729048948.528950208999959.330056329599756.614958373063928.147288980962912,1.299798379432104-.437566534679718,1.613728178268502-.584855515640811.313929798838217-1.257869399449191.088158368167569-1.587925729048948-.526800004898178-.331131431650647-.61925878126749-.144063674808422-1.303023685582957.437566534679718-1.615878382370283ZM29.069710814950668,10.881249575559195c.37198530958085-.199968981451093.484871024917084-.599906944353279.297803268074858-.949315110867246-.187067756840406-.349408166513967-.58378041358992-.476270208509959-.955765723170771-.276301227058866-.371985309582669.199968981451093-.484871024917084.599906944353279-.297265717050323.949315110867246.187067756840406.349408166513967.583242862565385.476270208509959.955228172146235.276301227058866Z"/>
  <g>
    <g>
      <path class="cls-2" d="M25.376197719386255,19.661608024538509c0-.826753477074817.328981227548866-1.295497971228542.7713857214585-1.295497971228542.444554698009597,0,.770848170432146.468744494153725.770848170432146,1.295497971228542s-.326293472422549,1.295497971228542-.770848170432146,1.295497971228542c-.442404493909635,0-.7713857214585-.468744494153725-.7713857214585-1.295497971228542ZM26.49967936248504,19.661608024538509c0-.568728984879272-.144063674808422-.805251436057006-.352095921640284-.805251436057006-.205882042731901,0-.349408166513967.236522451177734-.349408166513967.805251436057006s.143526123782067.805251436058825.349408166513967.805251436058825c.208032246831863,0,.352095921640284-.236522451179553.352095921640284-.805251436058825Z"/>
      <path class="cls-2" d="M27.603809168669613,20.591571298491544c0,.093533878420203-.01021346948437.161265307620852-.069344082277894.358008982919273l-.146213878910203.516048984391091h-.254799186042874l.113423266360769-.569804086931981c-.084933062014898-.046229388184656-.139225715580324-.156964899417289-.139225715580324-.304253880378383,0-.207494695807327.108047756106316-.342957554208624.249423675788421-.342957554208624.144063674808422,0,.246735920662104.139763266604859.246735920662104.342957554208624Z"/>
    </g>
    <path class="cls-2" d="M29.30988767573217,19.661608024538509c0-.826753477074817.328981227548866-1.295497971228542.7713857214585-1.295497971228542.444554698009597,0,.770848170432146.468744494153725.770848170432146,1.295497971228542s-.326293472422549,1.295497971228542-.770848170432146,1.295497971228542c-.442404493909635,0-.7713857214585-.468744494153725-.7713857214585-1.295497971228542ZM30.433369318830955,19.661608024538509c0-.568728984879272-.144063674808422-.805251436057006-.352095921640284-.805251436057006-.205882042731901,0-.349408166513967.236522451177734-.349408166513967.805251436057006s.143526123782067.805251436058825.349408166513967.805251436058825c.208032246831863,0,.352095921640284-.236522451179553.352095921640284-.805251436058825Z"/>
    <path class="cls-2" d="M29.178027346570161,20.44213211342867v.471969800306397h-1.359466543251983v-.375210615733522l.693978373799837-.912761641138786c.159115103519071-.210720001959999.187605307866761-.339732248057771.187605307866761-.46121877979931,0-.196743675298421-.097834286625584-.311779594734617-.288127349618662-.311779594734617-.154277144290973,0-.284902043464172.082782857911297-.372522860605386.250498777839312l-.303178778329311-.272000818855304c.138688164553969-.282751839364209.390799595470526-.465519188002872.714405312764939-.465519188002872.401013064951258,0,.668175924578463.287052247567772.668175924578463.740745313010848,0,.244048165533968-.048917143310973.465519188001053-.300491023201175.791275109397247l-.413914289563763.544001637710608h.773535925560282Z"/>
    <path class="cls-2" d="M30.93946837405565,19.071376998643245c0-.422515105969069.184917552740444-.69021551662081.447242453137733-.69021551662081.262324900399108,0,.444554698011416.26447510449907.444554698011416.69021551662081s-.182229797612308.69021551662081-.444554698011416.69021551662081c-.262324900397289,0-.447242453137733-.267700410651742-.447242453137733-.69021551662081ZM31.574316135060144,19.071376998643245c0-.268775512702632-.074719592530528-.396712656749514-.187605307866761-.396712656749514-.110735511232633,0-.187605307866761.132237552250444-.187605307866761.396712656749514s.076869796634128.396712656749514.187605307866761.396712656749514c.112885715336233,0,.187605307866761-.127937144046882.187605307866761-.396712656749514ZM32.458587571853059,18.409114135343771h.305866533455628l-1.228841644076965,2.504987778391296h-.305866533455628l1.228841644076965-2.504987778391296ZM32.162934507879982,20.251839050433773c0-.421440003918178.184917552740444-.69021551662081.444554698011416-.69021551662081.262324900397289,0,.447242453137733.268775512702632.447242453137733.69021551662081,0,.422515105969069-.184917552740444.69129061867352-.447242453137733.69129061867352-.259637145270972,0-.444554698011416-.268775512704451-.444554698011416-.69129061867352ZM32.795094513758158,20.251839050433773c0-.26447510449907-.074182041505992-.396712656749514-.187605307866761-.396712656749514-.110197960208097,0-.187605307866761.129012246097773-.187605307866761.396712656749514,0,.268775512704451.077407347658664.397787758800405.187605307866761.397787758800405.113423266360769,0,.187605307866761-.132237552248625.187605307866761-.397787758800405Z"/>
    <g>
      <path class="cls-2" d="M1.405722394485565,20.252914152484664c0-.754721639668787.41660204469008-1.295497971226723.976730213162227-1.295497971226723.311242043710081,0,.570879188981053.15804000146818.740207761984493.444017146985061l-.267162859627206.344032656259515c-.120948980715184-.19351836914575-.27253836987984-.293502859871296-.452080412365831-.293502859871296-.337044492929635,0-.575717148209151.328981227547047-.575717148209151.800951027853444s.238672655279515.802026129906153.575717148209151.802026129906153c.179542042485991,0,.331131431650647-.101059592776437.452080412365831-.297803268074858l.267162859627206.344032656259515c-.16932857300344.290277553720443-.428965718274412.447242453137733-.742357966086274.447242453137733-.557977964370366,0-.974580009060446-.540776331557936-.974580009060446-1.295497971228542Z"/>
      <path class="cls-2" d="M4.532656709272487,21.505408041681221l-.434341228528865-.869757559106802-.426277963146276.869757559106802h-.47842041261174l.666025720478501-1.27399593021255-.632160005878177-1.230991848178746h.472507351332752l.413914289561944.81277715041324.405851024181175-.81277715041324h.449930208265869l-.626784495623724,1.209489807162754.670326128680244,1.295497971228542h-.480570616711702Z"/>
    </g>
    <path class="cls-2" d="M6.79305877110346,19.000420263289925v2.504987778391296h-.416064493663725v-1.02672245852591h-.817615109643157v1.02672245852591h-.416064493663725v-2.504987778391296h.416064493663725v.988018784695669h.817615109643157v-.988018784695669h.416064493663725Z"/>
  </g>
  <path class="cls-2" d="M5.506161616282043,26.061690533022556c.430578371349839-.512823678238419,1.133695112581336-.54830204591417,1.662645321581294-.104284898929109.294577961922187.24834857373753.44993020826405.561203270523038.447780004162269.891259600122794l-.448855106213159.020426938965102c-.004837959229917-.226846532721538-.09030857226935-.416064493663725-.260174696297327-.559053066421257-.319305309090851-.267700410653561-.733219598652795-.234372247077772-1.002532662381782.08708326611486-.269850614753523.32038041114356-.232222042975991.734294700705505.08708326611486,1.001995111357246.169866124029795.14298857275935.370372656505424.195668573247531.597756740251498.15804000146818l.056442857669026.445092249035952c-.326831023447085.062355918948015-.661725312274939-.036553469726641-.958453478298907-.285977145515062-.526800004898178-.442942044934171-.612808168963966-1.141758377962105-.181692246587772-1.654582056198706Z"/>
  <path class="cls-2" d="M8.048240415426335,26.696000743000695l.433266126477974.277376329111576-.97296735598502,1.519119197797409.93748898830745.600982046402351-.226308981695183.352633472666639-1.370755114785425-.879433477562998,1.199276337680203-1.870677568414976Z"/>
  <path class="cls-2" d="M8.934124505296495,28.595706066787898c.277376329107938-.599906944353279.949315110865427-.827828579127527,1.585775524947167-.534325719254412.634310209978139.292427757820406.90093551857899.950390212918137.622484087420162,1.552447361373197-.277376329109757.602057148451422-.950927763944492.827828579123889-1.585237973922631.535400821303483-.63646041407992-.294577961922187-.899322865503564-.954690621121699-.623021638444698-1.553522463422269ZM10.670414317357427,29.396657094641341c.17739183838421-.383811432140647.02634000024409-.770848170432146-.333819186776964-.93748898830745-.360159187022873-.165565715826233-.752033884544289-.029027755372226-.92942572292668.35478367676842-.17631673633332.382736330087937-.026877551270445.770848170432146.333281635750609.93748898830745.360159187022873.165565715822595.753646537619716.027952653319517.929963273953035-.35478367676842Z"/>
  <path class="cls-2" d="M12.623337192657345,31.202828540006522l-.241897961434006-.712792659691331-.024727347168664-.007525714354415-.430040820323484-.12256163379061-.169866124029795.595606536149717-.49562204542417-.140838368657569.609045311784939-2.137302877014008.925662865749473.263400002448179c.570879188981053.163415511724452.844492660913602.561203270524857.707954700459595,1.040698785185668-.091383674318422.32038041114356-.320917962166277.508523270033038-.633235107927248.54830204591417l.283826941413281.824603272973036-.531100413099921-.151589389162837ZM12.652902499054107,29.335376277746036l-.402088167003967-.113960817387124-.21179510400907.745045721210772.402088167002148.113960817387124c.303178778329311.086008164063969.49454694337328-.010751020508906.560665719498502-.241897961430368.067193878176113-.235447349128663-.045691837158301-.416064493667363-.348870615487613-.503147759780404Z"/>
  <path class="cls-2" d="M16.033560897831194,29.521368932533733l-.280064084236074,2.203959204165585-.509598372083929-.064506123049796.114498368409841-.904160824731662-1.001995111355427-.126862041994173-.11449836841166.904160824731662-.510673474136638-.065581225098867.280064084237893-2.203959204165585.510673474134819.064506123049796-.110197960208097.869757559106802,1.001995111357246.126862041994173.110197960208097-.868682457054092.509598372083929.064506123046158Z"/>
  <path class="cls-2" d="M18.189140509708523,31.310338745084664l.006988163331698.412839187512873-1.721238383350283.027952653323155-.036015918702105-2.222235939028906,1.679846954393724-.026877551270445.006988163329879.412839187509235-1.168635929232551.018276734866959.007525714356234.482720820811664,1.032097968778544-.016126530761539.006988163329879.399937962902186-1.032097968778544.016126530761539.00806326538077.51389878028931,1.209489807162754-.01935183691603Z"/>
  <path class="cls-2" d="M20.137762976806698,31.472679154760044l-.643448577411618-.684840006368177-.409076330333846.839654701685504-.584317964616275.086008164063969.648824087664252-1.236367358433199-.931038376002107-.967591845732386.577329801286396-.084933062014898.610657964860366.63753551613263.391337146495061-.785899599144614.549914698991415-.080632653811335-.61012041383583,1.175086541537894.986943682644778,1.015971438017004-.587005719742592.086008164067607Z"/>
  <path class="cls-2" d="M20.501147469980424,29.12788158193689l.498847351576842-.12363673584332.534325719252593,2.156654713930038-.499922453627732.12363673584332-.533250617201702-2.156654713930038Z"/>
  <path class="cls-2" d="M21.43111074393164,28.917161579980529l.946089804714575-.351558370617568c.681614700215505-.253724083991983,1.300873481482995-.016126530761539,1.535245728560767.614958373065747.234372247075953.631084903827286-.079557551760445,1.214865317415388-.76117225197595,1.468589401407371l-.946089804714575.351558370617568-.774073476584817-2.083547774473118ZM22.980332799152166,30.262114245544581c.413914289561944-.153739593264618.5929187810234-.502072657727695.445092249035952-.900935518580809-.148364083011984-.397787758800405-.510673474134819-.544001637710608-.924587763698582-.39026204444599l-.440791840832389.163415511724452.479495514662631,1.291197563026799.440791840832389-.163415511724452Z"/>
  <path class="cls-2" d="M23.764082194194998,27.97752238756766l.45906857569571-.232222042974172,1.000920009306355,1.984638385798462-.459068575697529.23222204297781-1.000920009304537-1.9846383858021Z"/>
  <path class="cls-2" d="M26.310998952567388,26.467004006177376l1.210564909213645,1.864226956109633-.353708574715711.230071838872391-1.664257974656721-.52895020899814.734832251728221,1.132082459505909-.426277963146276.277376329107938-1.210564909213645-1.864226956105995.356933880870201-.23222204297781,1.661570219528585.530025311050849-.73483225173004-1.132082459505909.425740412121741-.276301227058866Z"/>
  <path class="cls-2" d="M28.890706323491031,26.540110945634297l-.769773068381255.686990210469958.170403675052512.487021229015227-.393487350596843.350483268564858-.740745313009029-2.316844919499999.378973472910729-.338657146005062,2.221160836978015.996619601102793-.402625718028503.359084084971983-.463906534925627-.224696328619757ZM28.510120197503056,26.357343596995634l-.829978783227489-.401013064953077.304253880380202.870832661159511.525724902847287-.469819596206435Z"/>
</svg>