<?xml version="1.0" encoding="UTF-8"?>
<svg id="Capa_1" data-name="Capa 1" xmlns="http://www.w3.org/2000/svg" viewBox="0 0 34.015748031499243 34.015748031499243">
  <defs>
    <style>
      .cls-1 {
        fill: #d0dbf1;
      }

      .cls-2 {
        fill: #1d3a69;
      }

      .cls-3 {
        fill: #b21d1a;
      }

      .cls-4 {
        fill: #dfe6f6;
      }

      .cls-5 {
        fill: #e9465f;
      }

      .cls-6 {
        fill: #e72c5c;
      }

      .cls-7 {
        fill: #fff;
      }

      .cls-8 {
        fill: #eeeded;
      }

      .cls-9 {
        fill: #b5b2b2;
      }

      .cls-10 {
        fill: #ecf1fa;
      }

      .cls-11 {
        fill: #ee718a;
      }

      .cls-12 {
        fill: #f29cb3;
      }

      .cls-13 {
        fill: #e7effa;
      }
    </style>
  </defs>
  <path class="cls-7" d="M0,17.007874015749621C0,7.614956225135757,7.614956225137576,0,17.00787401575144,0s17.007874015747802,7.614956225135757,17.007874015747802,17.007874015749621c0,9.392916740709552-7.614956225133938,17.007874015749621-17.007874015747802,17.007874015749621S0,26.400790756459173,0,17.007874015749621"/>
  <g>
    <path class="cls-8" d="M10.054895462995773,17.269121939196339c0-3.913533804607141,3.172465864990954-7.086001077788751,7.085999669596276-7.086001077788751,3.91353380460896,0,7.08600107779057,3.17246727318161,7.08600107779057,7.086001077788751,0,3.913533804605322-3.17246727318161,7.085999669598095-7.08600107779057,7.085999669598095-3.913533804605322,0-7.085999669596276-3.172465864992773-7.085999669596276-7.085999669598095"/>
    <path class="cls-3" d="M10.054895462995773,17.303859212828684c0-.10428504686206,3.022037191472918-.937821896523019,6.947013962089841-.903124052258136,3.925162651925348.034700660646195,7.224986785297006.798839005396076,7.224986785297006.903124052258136,0,3.913533804605322-3.17246727318161,7.085999669596276-7.08600107779057,7.085999669596276-3.913533804605322,0-7.085999669596276-3.172465864990954-7.085999669596276-7.085999669596276"/>
    <path class="cls-1" d="M11.646961829737847,13.633114561016555c-.019380942800126-.169994089432294-.051127217191606-.339802297556162-.055372915263433-.510162516839046-.009227880416802-.369520775859201.048912131600446-.731471112967483.186789592213245-1.075331819094572.386685224872053-.965695643650179,1.10375616919373-1.547290094258642,2.105625442040036-1.792957590952938.092842080852279-.022702867092448.195096515235491-.008122449908115.278154479939985-.069215439982145h.056110807729056c.065154215029906.023071813327988.130494311366419.023071813327988.195834407704751,0h.391665999026372c.056110807729056.030456370765023.116834851569365.007012794822003.174793206850154.014397352259039.33149396634326.00036894623554.646931730563665.08361279224664.949450743839407.207277373716352.365456734520194.149135953506629.738666972714782.255634677769194,1.133101476681986.283505608518681.118868280433162.06109299007403.124957301479299.0718008799995.042268283010344.1816229367505-.218720339722495.290704284649109-.419167983540319.592668470382705-.589899965438235.914195255651066-.35327587604479.665207242851466-.583439181777067,1.370283210004345-.663914522841878,2.119100428717502-.166670756949316,1.550241664126588.342015974958485,2.894681739475345,1.270056571711393,4.108258557225781.040792498073642.053342302784586.086750243421193.094134800860047.15467296339375.111483722992489.033407940636607.008491396138197.092842080854098.004799117421499.070325095068256.072721837392237-.04836012044143.033593821945033-.103916100628339.027870930747667-.158182177190611.029901543224696-.292180069583992-.018641642138391-.516437419195427.113883281703238-.686617389936146.334634233902761-.243453819293791.31525188291198-.364718842052753.676836090171491-.370807863100708,1.077731377803502-.010707889923651.713378665599521.05149475523649,1.422514449515802.105760831796943,2.132757072127788.028608823215109.371179625719378.079551567292583.740697585189992.090256640834923,1.113169930915319.009598234841178.340723254950717-.14987384597589.578455591241436-.459405654073635.714302439377207-.278340361248411.122188796534829-.589716900514759.055557388381203-.820435033791-.179406442965046-.236624089395264-.240869787467091-.424890874735866-.519391805448322-.589531019206333-.812497057000655-.350690436023797-.623861325424514-.56276692715619-1.296267244408227-.697691409710387-1.996911632182673-.162426467069963-.842950611380729-.250652495426039-1.695314984488505-.33463423390458-2.548234185138426-.067553773737018-.684955723692838-.254710903993328-1.334289829350382-.56627332456992-1.948185381894291-.143229997383969-.2823987698157-.277047641237004-.569965603286619-.443163570642355-.840183514628734-.13879982619801-.263571246368883-.295687875188378-.516992246737573-.448331634297574-.772626924508586-.137508514380897-.230166122115406-.225365596503252-.479156951298137-.308054614970388-.731471112963845-.015135244728299-.04595774534755-.009782707958948-.091732425767987-.012551212903418-.137876052423962"/>
    <path class="cls-13" d="M17.352639290480511,18.182525791093212c-.229242348343178-.006643848588283-.306025410689472-.201554482517167-.411786242482776-.348476758621473-.454606536653955-.631061409749236-.806037681528323-1.31453853212588-.99688709050497-2.072218909594085-.148398061039188-.588607245430467-.19509369885418-1.184599048301607-.135476493713213-1.792033817180709.07253595608563-.739773811414125.28904261840762-1.43395882371442.617585014879296-2.095287906538942.186236172865392-.375054969361372.412524134952037-.727040941777886.674805477694463-1.053366844465927.059617205140967-.074014557403643.002030612477029-.075493158721656-.029532596990975-.103178208160898.057772473972364-.055924926422449.131418085144105-.040606616765217.199340805114844-.03931389675563.283322543593385.005537009885302.560184303523783-.03839012298522.82320353873547-.137138159956521.458481880295949-.171655755675602.914381136955853-.345708253680641,1.412731741555035-.35604438098926h.643428149533065c.203399213685771.057955538899478.416582543522964.071798063620008.617953961111198.13953771866727.373396119503013.125326247713019.713564546909765.305101636911786,1.020513731373285.556675089728742.297165068313916.243453819293791.514961634260544.543759155167209.699536140880809.873777336575586.014028406028956.025285490730312.027501984513947.048729066671513.059248258907246.053156421477979.007198676130429.006646664971413.01624208343128.015504190962019.014028406028956.022333920858728-.062202645160141.181251174135468-.134555536320477.359550778397534-.156334629637058.552247734925913-.246408205548505-.005905956120841-.486724573662286-.057403527738643-.728516726716407-.098010144507498-.022702867092448-.003875343641994-.040975562997119-.020855319542534-.050942744073836-.043558186634982.102254434385031-.230904014584667.031380144544528-.466604330205882.013845341103661-.699538957265759-.007384557440673-.096714608112961-.009598234841178-.194910633927066-.02934953206568-.290518403340684-.027130221898915-.131972912684432-.096162596955764-.191773182750694-.205246761237504-.182729775449843-.107605562965546.009043407299032-.158917253274922.078075782355882-.155410855861192.221119898431425.006274902352743.250652495426039.050756862765411.498167539673886.066629999961151.748265207554141.004430171187778.071798063620008.058327301516329.12569519394674.074386320020494.193803795227723-.014214287335562.061278871386094-.064602203869072.081582179769612-.115544947944727.083057964702675-.191773182750694.005537009887121-.376347689370959.057955538897659-.565166485870577.080844287300351-.063678430093205-.005905956119022-.093579973317901-.055187033953189-.126618967720788-.100223821908003-.140461492443137-.191773182748875-.276675878620154-.38668381667776-.415475704819983-.57974971943986-.089335683438549-.124216592628727-.19989563265699-.155041909627471-.29587516468564-.085088577177885-.091177598227659.06626105372743-.100592768143542.176268991788675-.017903749674588.297902960781357.099671810750806.146367448560341.20580158877965.28830754232149.310638646798907.430982712165132.039499778067693.053711249020125.098196025815923.105206004252977.070325095068256.186419237787049-.280370973725439.137324041264947-.55317150870178.287014822313722-.796439446687145.485062907420797-.681818272516466.555016239870383-1.101541083597112,1.26101316441418-1.243847307207034,2.132757072127788-.113328454161092.694001947376819-.018089630983013,1.359944266312596.290887349576224,1.983992881238009.455347245500889.920104028156857,1.184784929606394,1.527538797035959,2.177796676462094,1.809199674386036.061647817621633.017534803439048.130125365136337.021593212009975.175159336706201.077520954813735.052235464083424.130308430057994.004430171187778.259878967648547-.012918750944664.386314870445858-.082505953543659.60041915767215-.170915046823211,1.200101831071152-.326142837762745,1.787603645991112-.201371417590053.762476678510211-.527145309120897,1.462936593165068-1.025864859950161,2.07867687687758-.181068109208354.223519457142174-.393699427884712.380223033012953-.700459914654857.36841112077127-.376347689370959-.014581825376808-.692526162443755-.322267494118933-.703231235984276-.698244829063697-.008488579758705-.299195680789126.045405734186716-.594145663510062.065709042570234-.891495204939929.032301101933626-.469003888912994.075121396102986-.937269885360365.104285046860241-1.406642720508898.020858135927483-.335556599486154.023257694638232-.67037389831421.02454759826287-1.005931905991019.001292720009587-.349952543558175-.098376274356269-.669634597657932-.281291931116357-.966985547278455-.124402473937153-.202478256294853-.291256295809944-.349214651090733-.514406806718398-.431903669559688-.043006175475966-.015873137197559-.090628403451774-.026764092048325-.115913894178448-.071983944926615"/>
    <path class="cls-7" d="M19.506550218797202,10.185447194147855c-.16611592940535.031932155699906-.333155632586568.060540978916833-.498167539670249.096900489419568-.258772128951023.057034581506741-.506842000739198.146739211182648-.752140551203411.2465912704738-.379668205470807.154489898468455-.776688149459005.208755975028907-1.184782113223264.189004677804405-.382808473033947.000554827543965-.739221800255109-.109267229207035-1.090098117587331-.251021441656121-.323374332820094-.130677376293534-.658932340498723-.218903404649609-1.007223217813589-.25415889283795-.009412353530934-.005905956119022-.012552621092254-.011997793550108-.009598234839359-.018086814596245.002954386254714-.006091837429267.006091837431086-.009229288607457.009229288609276-.009229288607457h4.532780485727926Z"/>
    <path class="cls-4" d="M14.414067031117156,10.185447194147855c-.065340096338332.043744067945227-.130494311368238.044481960410849-.195834407704751,0h.195834407704751Z"/>
    <path class="cls-10" d="M14.973676792413244,10.185447194147855c0,.009043407299032,0,.018272695906489.000554827542146.027316103203702-.056479753960957-.007567622364149-.118868280433162.022702867096086-.168518304497411-.027316103203702h.167963476955265Z"/>
    <path class="cls-1" d="M20.908892321756866,18.28049932261456c-.026947156969982.249176710489337-.054080195252027.498350604599182-.081027352225647.747527315088519-.502228764622487-.095424704488323-.955359516343378-.305839529379227-1.356992696441012-.615926165019118-.443163570642355-.342201856266911-.798284177855749-.763583517209554-1.033987309858276-1.275962527835873-.167777595648658-.364349895819032-.265601858845912-.745865648841573-.306391540538243-1.148422602718711-.0614647526927-.608541607580264.053339486403274-1.182568435822759.297348133239211-1.731123892028336.232193918207486-.522163126775922.588607245430467-.954618807492807,1.047091942109546-1.298113383769305.234038649379727-.175345218012808.473617125024248-.344046587437333.761552904732525-.423784036034704.036362326889503-.012180858479041.059988967755999.011997793550108.086198232263996.029718478297582.161502693292277.108898282973314.265232912612191.070505343608602.322636440349015-.11978923782226.007936568599689-.026026199580883.009043407299032-.054449141487567.030639435693956-.07456938494397.200078697580466-.036545391816617.396648181369528-.096531543189485.603925555084061-.089701813294596.033224875709493.001106838702981.067556590121967-.027133038280226.101333476990476-.041899336776623.083241029629789-.03691433804488.167222768106512-.029715661916271.251573452820594-.004061224952238.263574062750195.043929949253652.527331190427503.087857082124174.790902436796387.131787031376007.097086370729812.033593821943214.199892816273859.039313896757449.29974769194996.05906519398377.078261663662488.293655854517056.104653993092143.590820922829153.057034581504922.892602043641091-.053525367709881.02380970579361-.100778649450149-.00313745118001-.146184383638683-.022888748404512-.811019863873298-.351614209799664-1.605428698083415-.319498989172644-2.383778513787547.099668994365857-.087671200813929.045405734188535-.174052498003221.093211027087818-.249914602956778.157627349648465-.009967181076718.008122449906296-.020672254617239.015321126038543-.031560393083055.02215085593707-.074569384945789.057400711355513-.150059727284315.11388046531647-.219461048574885.177744776719919-.05001897029797.046881519123417-.098193209430974.095607769411799-.145629556096537.145260609862817-.059248258907246.05666281888989-.099483113057431.129384656283946-.156517694562353.187895022721932-.015135244728299.019934362149797-.028608823216928.041161444309182-.04282029416936.061833698926421-.082505953545478.105206004254796-.149690781048776.219644113502-.206725362555517.340354308715177-.055555980186909.105760831796943-.105943896720419.213738157379339-.143782008542985.327435557772333-.025657253348982.087488135888634-.055003969029713.17368636815263-.073276664936202.263202300136982-.037652230514141.138616761272715-.049281077832347.280922984880817-.062385710083618.423229208490739-.026947156975439.119975119136143-.025471372038737.239947421883699-.000923773775867.360105605941499.009598234841178.044667841719274.011811912241683.089887694599383.012366739783829.135293428787918-.005168063655219.095424704486504.030825317000563.184019679078119.046143626654157.276123867461138.021227082159385.093763038245015.04042073546043.188080904030357.076228234805967.277785533706265.027133038282045.066815881273214.047805292897465.136400267487261.081768061076218.200630708741301.029160834374125.064416322562465.062199828777011.126987913956327.093948919553441.190297397817631.085640588336901.186974065329196.215582888544304.343122813659647.347184038613705.497795777055217.064230441252221.068846493746605.131787031376007.134372471393363.198971858881123.20026457889071.056662818888071.0666328163461.130494311368238.112776443002076.198785977572697.165746983167992.09634847826419.069953332451405.197679138871536.13197291268807.300488400800532.191959064062758.051494755232852.035990564270833.10871240166307.061278871380637.166298994328827.085457523411606.071246052459173.028239876983207.14120220129189.059803086449392.214661931151568.082689018467136.031191446852972.011074019776061.062940537629402.020303308385337.094686812020882.03008460815181.054263260177322.02621208088749.124402473935334.023071813326169.159841027048969.08490551225259"/>
    <path class="cls-12" d="M20.20361357499678,13.379454168052689c.848120083230242-.476202565043423,1.707500067541332-.4754646725778,2.57684441654601-.061647817616176.374871904437896.215951834778025.702490527133705.48580079988642.946313292661216.847382190760982.502966657091747.745865648845211.612233886298782,1.546918331641791.327066611538612,2.40038954344891-.02657821073808.079920513528123-.050387916533509.158920069658052-.049466959140773.243639700604035-.105943896720419.179775389200586-.196203353936653.369517959472432-.330573008948704.531389599000249-.064968333721481.078075782355882-.123847646393187.16297847822716-.220750952201342.207277373712714-.131784214991058.108529336739593-.246405389161737.23791680940667-.39535827774489.32559082660373-.284981393453563.03931389675563-.438916464379872-.072724653779005-.524559869101722-.38151575302436-.0103361273068-.042454164318769-.011442966009781-.085091393562834-.002399558712568-.127911687732194.008122449908115-.033038994402887.018086814601702-.065892107495529.018458577218553-.100592768139904.001844731166784-.035069606879915.003137451178191-.070139213761649.014025589644007-.103916100628339.004984998729924-.01384252472053.011997793550108-.026392329429655.020489189691943-.038207058058106.209491051116856-.217427619714726.422860262258837-.427104552138189.557044035962463-.709134375721987.500198152149096-1.052074124454521-.225550069621022-2.346681110813734-1.385229757041088-2.472745250994194-.345708253677003-.037652230514141-.667051974020069.021964974626826-.978245448361122.158365242115906-.320053816716609.140275611132893-.603559425235289-.023254878253283-.637336312103798-.37468602312947.000368946233721-.118496517814492-.018827523450454-.240499433039076.063678430093205-.343677641201793"/>
    <path class="cls-5" d="M22.723369898751116,12.425297247449635c-.113328454159273.04798835782276-.212445437366114.024547598259232-.299747691948141-.05906519398377-.060172032683113-.109450294130511-.035993380655782-.212259556057688.018272695906489-.316727667845043.040234854152004-.077520954813735.070505343610421-.160395854592934.105391885565041-.240871195657746.059986151372868-.130494311368238.118127571580771-.261909580125575.180513281664389-.391297052790833.067553773740656-.139723599973877.18438862531184-.190480462742926.305284701837081-.137692987498667.118682399124737.052049582776817.164271198236747.180513281664389.104653993095781.316913549155288-.102437499308508.233486638217073-.210045878657183.464573717727035-.314145044210818.697322463478486-.023254878253283.052235464083424-.059617205142786.093027962158885-.100223821909822.131418085142286"/>
    <path class="cls-5" d="M24.35535990927383,12.450582738178127c.003137451176372.087119189656732-.031932155703544.148952888581334-.096900489423206.195834407704751-.214844996078682.155224974552766-.427845260988761.313221270433132-.645641826935389.464387836418609-.115359066636302.080106394834729-.248069871789994.054818087721287-.321160655415952-.04872625029202-.072721837395875-.102992326850654-.049281077834166-.230904014581029.067184827505116-.316916365536599.209493867498168-.154856028320864.422305434714872-.305101636911786.633829914691887-.457189160288181.077889901047456-.056110807729056.161685758217573-.07216982623504.24862188294901-.025102425801379.0753044610301.040606616767036.115911077797136.105574950484879.114066346628533.187711957794818"/>
    <path class="cls-5" d="M20.675904183412058,12.370017272840414c.017348922132442.120896076525241-.014766298496397.220567887276047-.131049138908566.275937986152712-.137876052423962.065525977646757-.223702522069289-.023623824485185-.308422153015272-.111297841682244-.135293428786099-.193248967685577-.270955803807738-.386497935371153-.40606335128723-.579932784365155-.101333476992295-.145074728552572-.094317865785342-.273169481208242.018641642142029-.354751660977854.114066346628533-.082505953543659.240130486808994-.050204851606395.342570802500632.091732425767987.162609531993439.225367004695727.323005386584555.452206977941387.484322198568407.678311875104555"/>
    <path class="cls-5" d="M21.63279299597707,12.234371796121195c-.08324384601292.038761885598433-.167039703183036.04042073546043-.251576269201905.004061224954057-.071243236076043-.055372915263433-.100037940599577-.131418085144105-.107974509197447-.218537274799019-.021964974628645-.241237325508337-.045591615498779-.482291586091378-.0666328163461-.72371760929127-.014394535881365-.164271198236747.051128625382262-.261354752585248.183284602991989-.278151663556855.14193727737802-.017903749672769.238285755640391.059431323832541.258217301405239.227211735862511.030087424534941.254341957761426.049098012908871.510162516842684.073645611169923.765059302144437.008860342375556.090625587065006-.020855319540715.164640144468649-.088963920821698.224074284686139"/>
    <path class="cls-11" d="M22.557696141549968,17.348969226750341c-.000185881306606.045957745345731-.000185881306606.092101372001707-.000368946231902.138061933734207-.042268283010344.160764800823017-.01273568601755.289966392179849.149873845974071.370993744405496.066263870114199.033038994402887.070139213758011.092473134616739.004430171185959.128832645123111-.076783062346294.042268283010344-.113883281701419.121450904069206-.182360829216123.169256196966671-.007195859749118.005351128578695-.015132428346988.007381741053905-.024178652030969.006274902354562-.100775833067019-.021596028393105-.193617913917478-.018272695906489-.256372570236636.080844287300351-.046512572887877.018641642142029-.092842080852279.03728328428042-.139168772431731.056110807729056-.037100219355125.001292720011406-.07420043871025.002768504946289-.111300658067194.004061224954057-.072167009850091-.039313896759268-.140644557366613-.05075967915036-.197310192639634.02657821073808l-.009595418456229.003692278720337-.009598234841178-.003140267559502c-.164271198238566.017720684745655-.328542396475314.01790374967095-.492813594710242-.000183064925295l-.009784116149604.003692278718518-.009781299766473-.003692278718518c-.057034581504922-.06940132129057-.122188796534829-.081768061078037-.196572300172193-.027687865824191-.055372915261614-.002027796092079-.111852669226209.004430171187778-.163902252003027-.022148039552121-.058141420206084-.018641642138391-.116096959103743-.037469165587027-.174238379311646-.056110807729056-.014028406025318-.047805292897465-.058510366439805-.019193653301045-.085643404718212-.033959951795623-.08324384601292-.001478601316194-.14950489974035-.048543185366725-.220565070891098-.082691834850266-.029901543226515-.07733507350531-.091918307078231-.094315049404031-.1661187457903-.088040147049469-.114804239094155-.045774680420436-.214659114768438-.115544947946546-.309162861865843-.193617913917478.003323332488435-.138247815040813-.117572744036806-.129756418900797-.198785977572697-.168332423190805-.074197622327119-.055003969027894-.139168772429912-.118865464048213-.193248967681939-.193803795227723-.017534803442686-.169808208123868-.145443674789931-.280922984882636-.222781564678371-.41879903730478-.03008460815181-.053711249020125-.095055758254603-.053342302788224-.137138159956521-.088411909664501-.03968284298935-.060172032684932-.076414116112574-.121633968994502-.092656199543853-.1930659027621.043744067947046-.09597671564552.009412353534572-.158734188347808-.083612792243002-.196569483789062-.045774680422255-.088411909664501-.070691224918846-.182729775451662-.076966127273408-.282032639965109.044110197795817-.063675613711894.063492548786598-.12569519394674-.015321126036724-.178113722957278-.03765223051596-.025102425803198-.017903749672769-.06939850490744-.03728328428042-.100037940599577-.002030612477029-.045405734188535-.004061224952238-.090997349685495-.006091837431086-.136400267487261-.019565415916077-.124588355245578-.019379534607651-.249359775416451-.000183064925295-.374134011970455-.007384557438854-.151535512217379.011811912241683-.299195680789126.063123602551059-.442239796866488.135293428789737-.050204851608214.067184827506935-.163719187077731.078444728591421-.252314161669347.021410147082861-.123109753925746.08010357844978-.230163305732276.143044116077363-.335372126370203.150059727282496-.0638614950185.220013059730263-.177744776719919.213369211145618-.339985362479638.004982182343156-.02141014708468.008674461063492-.043744067945227.033036178016118-.053156421477979.138430879964289.004613236109435.129756418900797-.117020732881429.169256196964852-.197310192639634.036731273123223-.055558796568221.082137007311758-.102254434383212.138430879966108-.138061933730569.120713011599946-.009229288607457.202478256294853-.064971150104611.226473843396889-.189742570275484.00553700988894-.005722891195546.012366739785648-.008677277446623.020303308383518-.009229288607457.126616151335838.006274902356381.175528282936284.091363479534266.201923428750888.199154923808237.031377328161398.311748301883199.302333131967316.463652760334298.582332343074086.326697665304891,1.041554932224244-.509424624375242,2.330991038543289.127356860190048,2.544915077231053,1.26821184054279.114618357787549.610203273823572-.046143626655976,1.151005226356574-.484693961187077,1.599891688194475-.074752449871085.076414116116212-.15504190962929.147291222339845-.232748745751451.220750952199523-.445008301812777-.030270489458417-.640656828207284-.314699871752964-.500195335764147-.726855060469461.141751396065956-.161685758215754.270769922499312-.328911342705396.324295290209193-.545601069952681.130680192674845-.528069082896764-.2823987698157-1.061858240605943-.825969227293172-1.072932260380185-.167780412031789-.00350639741373-.320974774107526.043375121709687-.478419058828877.082505953543659-.389821267859588-.019196469684175-.531203717693643-.188266785340602-.533789157712818-.650440944356887-.123847646393187.046512572887877-.209307986187923.135293428786099-.295317520760364.221671909590441-.332420556500438.334265287669041-.504259377101334.748265207554141-.50167393708216,1.208780516712068.005168063651581.906813514595342.642873321990919,1.609858869269374,1.4719800004641,1.750503426635987.372289280798213.063123602552878.721134985655226.003875343645632,1.059644563203619-.153935070926309.090625587066825-.042268283012163.168698553039576-.118310636506067.278889556022477-.113514335469517-.001106838701162.037100219353306-.002213677402324.07420043871025-.003320516101667.111114776756949-.018458577216734.025102425805017-.029901543226515.052049582778636-.024733479573115.083981738478542"/>
    <path class="cls-11" d="M22.529346425613767,18.156150359964158c.019565415917896-.041530390542903.028608823216928-.106498724262565.060355097606589-.120896076523422.198971858884761-.089704629677726.096348478266009-.148029114809106-.007381741053905-.232010853285828-.115176001712825-.09357997331972-.113145389235797-.176452056712151-.025102425805017-.316175656689666.058141420209722.269480018876493.249545656726696.366749454529781.500567098382817.386497935372972-.163533305765668.117758625347051-.33629590014425.218351393488774-.528438029130484.282584651125944"/>
    <path class="cls-11" d="M22.248662833324488,18.243213221951009c.055555980186909-.155596737171436.111666787917784-.17331460553396.25655845154688-.080844287300351-.080658405991926.042637229242246-.163347424460881.078630609899847-.25655845154688.080844287300351"/>
    <path class="cls-11" d="M21.072701633107499,18.302720588137163c.008491396140016-.063678430095024.05518703395137-.087119189654913.107977325578759-.08010639483291.054818087721287.007198676130429.084902695871278.05039073291664.08877803951691.107791444270333-.066446935039494-.003137451174553-.135293428786099.010153062383324-.196755365095669-.027685049437423"/>
    <path class="cls-11" d="M21.80090292487148,18.329909954089089c.06146193630957-.143229997385788.098748036974939-.148212179732582.197310192639634-.026395145814604-.061833698926421.037838111822566-.13086325760014.023071813326169-.197310192639634.026395145814604"/>
    <path class="cls-11" d="M21.288875962178281,18.330352126291473c.164271198236747,0,.328542396471676,0,.492813594710242.000185881308425-.164271198238566.038759069215303-.328542396473495.036176445579258-.492813594710242-.000185881308425"/>
    <path class="cls-11" d="M19.201302129944452,16.956711787197492c.08804296343078-.004430171185959.174052498003221-.005353944961826.17959232427711.116834851573003.001106838697524.028056812056093.022700050707499.03728610066355.040975562998938.051497571617801.111111960373819.086012350955571.164271198236747.196572300172193.139351837357026.338878523782114-.148767007274728-.148767007274728-.269477202491544-.31728249538719-.359919724633073-.507210946972918"/>
    <path class="cls-11" d="M19.387113028904423,14.126556209237606c.080475341066631.162978478228979-.027870930749486.335555191297317-.213369211143799.3398022975598.057034581504922-.122005731613172.118127571584409-.241609088127007.213369211143799-.3398022975598"/>
    <path class="cls-11" d="M20.176427025429803,13.738210726314719c-.04798835782276-.085826469647145-.123295635235991-.144153771161655-.201740363825593-.199154923806418.062016763849897-.073831492476529.150242792207791-.109822056749181.228873402107638-.159657962123674-.028425758291633.118127571580771-.027318919590471.238471636948816-.027133038282045.358812885930092"/>
    <path class="cls-11" d="M19.954236901281547,13.548211865145277c-.001106838701162.205615707473044-.019196469684175.220750952201342-.226473843396889.189742570275484.063309483861303-.077706836122161.145260609860998-.133448697619315.226473843396889-.189742570275484"/>
    <path class="cls-11" d="M18.895386558213431,16.006872382444271c.030453554383712.025285490726674.03451477933595.065892107495529.077152008580015.090256640833104.095055758254603.054449141485748.081027352225647.128463698887572-.024547598261051.187897839105062-.033776886870328-.089518748365663-.052973356552684-.18199188298604-.052604410318963-.278154479938166"/>
    <path class="cls-11" d="M19.75441449459322,17.657689916411982c.027133038282045-.000554827542146.054449141487567-.001661666243308.081582179767793-.001292720009587.148950072198204.001847547551733.165932864478236.02657821073808.117203797804905.169625143200392-.070691224917027-.050942744077474-.146181567253734-.096162596955764-.198785977572697-.168332423190805"/>
    <path class="cls-11" d="M19.589442016875182,13.87601636915133c.000368946231902.027133038280226.001292720007768.054266076562271.000923773775867.081396298459367-.002216493787273.148398061039188-.027133038282045.165194972012614-.170179970742538.115913894180267.053711249020125-.067922719974376.097827079582203-.14433683608695.169256196966671-.197310192639634"/>
    <path class="cls-11" d="M19.030736314671231,14.801823573820002c.00996718107308.024547598261051.018827523446816.049650024066068.030453554381893.073276664936202.057958355282608.118496517814492.029718478299401.16537803693609-.109081347898609.179037496729507.01587313719574-.087488135888634.036176445579258-.173317421917091.078627793516716-.252314161665709"/>
    <path class="cls-11" d="M19.024883869833502,16.567186239606599c.054449141485748,0,.119051345358457-.017534803440867.139906664899172.056293872654351.016242083429461.057220462813348.009598234841178.112407496766536-.056293872654351.140278427516023-.045405734188535-.058141420206084-.060540978916833-.129018526431537-.083612792244821-.196572300170374"/>
    <path class="cls-11" d="M20.26230982274501,18.019806420146779c.123112570312514-.07530727741505.156703575870779-.057586592663938.16611592940535.087857082120536-.059431323832541-.021410147082861-.118310636507886-.044113014178947-.16611592940535-.087857082120536"/>
    <path class="cls-11" d="M18.889167983526931,15.496377532354018v.374131195583686c-.036362326889503-.12458553885881-.034331714410655-.249359775414632,0-.374131195583686"/>
    <path class="cls-11" d="M20.648993639424589,18.190425746706751c.039313896759268-.015504190963838.086750243421193-.052049582776817.08564340472185.033962768178753-.028608823216928-.011259901084486-.057034581504922-.022702867094267-.08564340472185-.033962768178753"/>
    <path class="cls-11" d="M22.557696141549968,17.348969226750341c-.094317865785342-.05832448512956.001475784938521-.060355097606589.024733479573115-.083981738478542.001106838699343.030825317000563.005537009885302.062571591395681-.024733479573115.083981738478542"/>
    <path class="cls-5" d="M22.109919334798178,16.426871199102607c-.024364533337575.108160390507692-.043375121711506.217796565948447-.024916544496591.328173450239774.030639435690318.184574506620265.160024091974265.307687076930961.350135608479832.342384921192206.053711249020125.009784116151422.109638991825705.013659459793416.151166565985477.056296689041119h-.000552011159016c-.33592695391053.217058673479187-.701014742198822.351059382255698-1.103385814765716.331493966339622-.887619861292478-.042820294167541-1.574792078772589-.65117883682251-1.715436636139202-1.50132671614665-.119051345358457-.719473319413737.139723599973877-1.31380345603975.726855060467642-1.755305360440616.032853113094461-.024733479569477.067739655049081-.078627793513078.118127571580771-.048912131598627.016427964739705.009598234841178.01421147095607.060726860227078.011257084701356.091918307076412-.03654539181116.389269256700572.09357997331972.550031241142278.479894843767397.589531019206333.000368946231902.063495365171548-.055187033955008.081396298461186-.09357997331972.111666787917784-.30454680936964.239764356958403-.42747349837191.625338518551871-.313590216670491.988398510746265.105391885563222.336110018835825.441684969324342.599498200279413.802897413967003.620170454896652.160764800824836.009226472224327.313038205507837-.034700660646195.457929869138752-.105208820636108.04798835782276-.023440759561709.090073575909628-.071060171152567.153197178462506-.049281077834166"/>
    <path class="cls-6" d="M22.109919334798178,16.426871199102607c-.546710725038793.352169037343629-1.151191107666818.193248967685577-1.417902621595204-.372655410650623-.173683551767681-.36841112077127-.037097402971995-.877097852677252.298274723396389-1.111877210905732.037835295441255-.02657821073808.075121396106624-.054266076560452.112773626620765-.081213233534072.220382005965803-.090442522141529.44888646183972-.130677376289896.680711433811666-.065154215028087.368594185700204.103916100628339.598943372742724.3501384248666.669451532734456.726669179159217.068477547514703.366011562065978-.064047376328745.66539030777858-.343308694968073.904230890959298"/>
    <path class="cls-9" d="M30.821152510987304,13.369579927633822c-.188818796497799-.207646319948253-.363795068276886-.427659379680335-.677205036403393-.461805212784384-.408645974921455-.044481960412668-.679418713805717.169070315658246-.905889740817656.463466879027692-.248069871791813.322636440350834-.484325014955175.6543162880007-.759894054872348,1.028816429819926-.13916877243355-.466787395129359-.246222324238261-.871374961483525-.38022303301841-1.267102185460317-.332048793881768-.981382899541131-.78721015807605-1.89945631521914-1.364743383732275-2.765111201886612-.474909845033835-.711902880666457-1.01479084017592-1.363636545031113-1.638467692482664-1.940062931987995-.664286285460548-.614078617463747-1.370283210006164-1.172049243585207-2.172628612810513-1.617240610323279-.570334549525796-.316544602919748-1.143254539067129-.615188272549858-1.751058254179952-.841476234638321-.763214570975833-.284060436062646-1.545439730323778-.498164723290756-2.356831356815746-.615185456170366-.942066186398733-.136217202563785-1.884690016720924-.177930658030164-2.82823480443767-.078630609899847-.511086290614912.053711249020125-1.023651182551475.115544947948365-1.52550818455893.254713720380096-.415844651051884.115359066636302-.836308170983102.208384212413876-1.246429930843078.350876317332222-.799210768012927.277599652397839-1.557072802215771.641949548215052-2.266576124171479,1.094156526156439-.864732521085898.550955014918145-1.667077923893885,1.185891768311194-2.363107667362783,1.94744748942685-.986919909428252,1.079759173893763-1.786865753523671,2.281709960710941-2.302751161560082,3.651435526788191-.47306511386887,1.256582993226402-.730916285423518,2.263806211038172-.80936101401312,3.909658460963328-.014766298496397.549107467362774.039685659372481,1.139562260344974.0666328163461,1.338165172992376.100406886833298.234962423153775.283874554752401.370441733250118.545786951261107.450176365464358.497612712129921.151352447293903,1.111137910245816-.232931810676746,1.081606721449134-.749555111178779-.049650024067887-.86288638172482.026392329429655-1.713037077430272.164086725118977-2.561526106892416.101515133725115-.625524399862115.30454680936964-1.22096137518929.534895996410341-1.808830728152316.327066611536793-.834646504741613.777982277661067-1.60210536559498,1.306234425481307-2.319362191225082.354198241628183-.481001682464921.778904643248097-.907923169677815,1.209517000990672-1.325615368281433.493182540940325-.478416242447565,1.063517090464302-.858825156772582,1.634775413764146-1.225943557536084.420831057974283-.270586857574017.88964906558067-.473617125024248,1.363637953223588-.660039179196247.946496357586511-.372100583110296,1.923080139706144-.58528391294567,2.931410196215438-.675909500012494,1.194935175608407-.107608379348676,2.360523635534264.022148039550302,3.51817552686407.347552984845606.655423126700043.184019679078119,1.280947526562159.437809625680529,1.872878104479241.745310821303065.966616601042915.502411829549601,1.824149037804091,1.169463803571489,2.587732555013645,1.959259401668533.683110992524234.706920698319664,1.230190663794929,1.507973381118063,1.680921856803252,2.368091257900232.311007593034446.593958374007343.546707908652024,1.231663632343043.725562340458055,1.883766242945057.005537009890759.020117427075093-.010705073540521.046329507964401-.027133038278407.109267229205216-.276675878620154-.209305169804793-.538219328896957-.40809396376244-.800497855256253-.605404156400255-.5956228566356-.447962688063853-1.249387133477285-.113142572852666-1.396861420742425.457375041594787-.108715218048019.419908692390891.105022939327682.695294667386406.396282051520757.920475790771889,1.023834247474952.791637512884336,2.059483223574716,1.567773651187963,3.086637987154973,2.354983809264013.153014113533573.117206614189854.244194528142543.080844287300351.346446146146263-.061092990077668.380408914323198-.527697320278094.759156162403087-1.057059123182626,1.153776547680536-1.574051369920198.419905876005942-.550031241140459.818773367545873-1.116859393252525,1.271904119264946-1.641605143664492.096162596953945-.111297841682244.108898282975133-.259512837796137.155224974552766-.39258977280042-.020117427075093-.148952888581334-.040420735458611-.297902960779538-.060724043842129-.446855849360873"/>
    <path class="cls-9" d="M17.933422622649232,27.12329562769628c-.043006175477785-.375423915593274-.042820294167541-.367859109612255-.475833618811521-.353644822274873-.306763303153275.0103361273068-.614633445009531.005905956120841-.9212108668562-.009781299766473-.153566124694407-.007936568599689-.210783771124625.0448537230277-.21927516726646.191959064057301-.025285490730312.430979895783821-.053711249018306.861962607948954-.089149802131942,1.292021546340038-.010336127308619.126064140178642.026764092046506.183836614154643.154672963395569.197862203796831.497243765896201.054635022797811.993935520633386.018086814599883,1.490624458989259-.003137451176372.115359066636302-.00479911741968.146736394792242-.073828676097037.137140976337832-.18752607649003-.030270489458417-.362874110882331-.050390732918459-.72648611423574-.076968943656539-1.127750348101472"/>
    <path class="cls-9" d="M10.751406808036336,24.542889894262771c-.032301101935445.027133038280226-.079367094174813.051496163423508-.104653993095781.090256640831285-.232564272633681.354013768510413-.550586068680786.635859118976441-.8113888101052.965878708575474-.116282840415806.146920867915469-.10650013245322.253788538411754.05334089459393.368043582733662.358259466580421.255634677769194.7080289452133.522343375316268,1.084006280158064.753619152515967.146367448563979.090073575907809.228503047681443.079737448597371.315068817988504-.068846493748424.216506662318352-.371917518185001.442056731937555-.738481091404537.664838296615926-1.106709147252332.03746775739819-.061832290735765.061278871382456-.119973710941849-.011997793551927-.173500486844205-.367857701421599-.26966308379815-.735529521532953-.539695113830021-1.104309588541582-.808066885812877-.018272695906489-.01328910536904-.047250465355319-.011997793550108-.084904104061934-.02067225461542"/>
    <path class="cls-9" d="M8.450149737902393,24.517031269495419c.043375121711506-.026948565162456.098562155664695-.051127217189787.14138385802471-.089334275246074.315437764220405-.281476404234127.627553604146669-.566828152113885.942622422131535-.848673502581732.105945304914712-.094686812020882.112221615461749-.173869433076106.01624208343128-.291259112191256-.236993035630803-.289966392181668-.462727578367776-.589714084131629-.682371691866138-.893155462990762-.09413339267121-.129940892016748-.185496872203657-.14710534103142-.314699871751145-.061647817617995-.346446146146263.229056467032933-.695476324121046.454422063534366-1.043399663392847.681449326282745-.115174593520351.075121396101167-.15227340468482.16020997328269-.070322278681488.291812531540927.256742924662831.411784834292121.582701289307806.7693064084051.880050830737673,1.149160495187971.029901543226515.038207058058106.061278871382456.083057964704494.130494311366419.061647817616176"/>
    <path class="cls-9" d="M24.564814347402717,23.396755603103884c.024364533337575.035991972465126.03802117674968.068662020634292.061833698926421.089887694599383.346815092379984.308054614974026.680339671198453.631244474674531,1.050226576904606.913643244493869.1149901204044.08785849031301.175162153089332.066631408153626.261726515202099-.033222059328182.311010409415758-.358998767240337.583443406349033-.746236003267768.854948404934476-1.134949024235539.080844287300351-.115912485985973.066815881271395-.188635731570685-.05389431394542-.26117309584879-.363059992194394-.218166920371004-.721132169273915-.444454882461287-1.083823215232769-.663176630376256-.106867670498104-.064416322562465-.224257349611435-.090625587065006-.306022594304522.039499778065874-.211707544900491.337401330656576-.47232722139961.637519377030912-.714857266917534.951481356314616-.024364533337575.031377328161398-.046329507964401.064600795680235-.070139213758011.098008736315023"/>
    <path class="cls-9" d="M19.93670209784068,28.106286682193968c.465866437736622-.092656199543853.899800719773339-.264863966376652,1.34111955924709-.413262027419478.149319018431925-.050204851606395.198417031338977-.14396788985141.139351837357026-.288304725936541-.160024091976084-.391111171484226-.322267494118933-.781673148192567-.485245972344273-1.171677480971994-.059617205140967-.142675169845461-.176268991788675-.134000708778331-.294396563371265-.098193209432793-.366194626985816.110376884291327-.730361457879553.227211735862511-1.09729397733463.334634233900942-.090997349681857.026764092048325-.154858844702176.04632950796622-.126618967720788.164457079546992.110005121674476.460695557698273.215951834779844.922317705557361.320051000333478,1.384308799648352.030270489456598.134552719935527.117020732881429.116096959103743.203033083833361.088042963432599"/>
    <path class="cls-9" d="M23.41962213651459,24.512637711295611c-.018089630979375.009229288607457-.050387916533509.020303308383518-.076414116112574.039682842992988-.311745485500069.23219532639996-.599129254047511.495767980961318-.939114616528968.691416507355825-.115728012871841.066446935037675-.186236172865392.165010498894844-.083426910938215.325958364644976.231824971977403.362506572842904.442977689335748.738296618288587.65782268541443,1.111506856481355.048543185366725.084350684710444.110559949216622.098562155662876.184574506618446.058141420204265.459405654075454-.251762150508512.856794544295553-.592116459225508,1.275779462908758-.901276504706402.072352891162154-.053526775900536.072352891162154-.125510720827151.01347357848681-.195279580160786-.304363744446164-.360474552175219-.608358542654969-.721132169273915-.913643244490231-1.080684355862104-.026026199580883-.030639435695775-.057217646432036-.061832290735765-.119051345358457-.049465550950117"/>
    <path class="cls-9" d="M14.824447898252402,26.697373956612864c-.00830551483341-.143229997383969-.054080195253846-.193434848994002-.150797619751756-.218168328563479-.385576977978417-.098376274358088-.775767192068088-.182912840376957-1.134763142923475-.365642615830438-.132710805151874-.067370708809904-.199895632658809.017903749674588-.24511548553528.130125365134518-.157810414575579.39185188033116-.313961979287342.784255771826793-.473988887644737,1.175186694767035-.049095196523922.119789237824079-.037466349205715.184946269235297.098933918281546.248990829182731.41639947859403.195834407702932.858270329230436.309345926789319,1.296082771292276.437071733211269.092656199543853.027133038282045.195279580160786.070877106225453.251759334125381-.066446935037675.183650732844399-.446853032979561.222595683369946-.930623220387133.357889112156045-1.34111674286396"/>
    <rect class="cls-2" x="4.637367759691236" y="9.769215604826744" width=".511749725780549" height="2.211270805733415" transform="translate(-7.025382328589719 10.484227050033134) rotate(-63.897029878357287)"/>
    <polygon class="cls-2" points="5.480752161538476 7.798032729309853 7.313577068602171 9.034867241694883 7.07842876414179 9.38352706524347 5.348966538356763 9.545953532309795 6.461581641728117 10.296987244808406 6.178812517484403 10.715972163421611 4.346357964846902 9.478768704806498 4.582982054243985 9.127892387470638 6.310784021978179 8.968051360421669 5.197984445487236 8.216831766614632 5.480752161538476 7.798032729309853"/>
    <polygon class="cls-2" points="6.631463075822467 7.140669114402044 6.140309739164877 7.650093738773649 5.840191692792359 7.360682174135945 7.177618973319113 5.973418988232879 7.477737019691631 6.262833369257351 6.986585091224697 6.772443874935561 8.27842075625631 8.017766967079297 7.923115675928784 8.38599220654396 6.631463075822467 7.140669114402044"/>
    <polygon class="cls-2" points="10.039779932949386 6.032318015590135 10.287294977197234 6.359936638287763 8.920704045911407 7.39152438943529 7.588630710348298 5.626437729228201 8.922550185272485 4.619769338960396 9.169880756402563 4.947756907891744 8.242024632765606 5.64785069269783 8.531067251171407 6.031211176888974 9.350762984300673 5.412702388233811 9.59034145995065 5.730353829854721 8.770830199939155 6.349048499820128 9.079253761145083 6.757325528509682 10.039779932949386 6.032318015590135"/>
    <polygon class="cls-2" points="11.367497731489493 3.303273420327969 12.358661930795279 5.279695862818699 11.983238015200186 5.4679626481593 10.39571306678954 4.76215160492211 10.99761082578334 5.962437909111031 10.545955858997331 6.188911752506101 9.554607186575595 4.212303428706946 9.933169961541353 4.022374977126674 11.517371577461745 4.729850502986665 10.915659699778189 3.529747263724857 11.367497731489493 3.303273420327969"/>
    <path class="cls-2" d="M12.971892816840409,5.048701723964768c-.170177154357589.000923773775867-.313224086818082-.02104120084914-.429504110848939-.065892107497348l.057586592665757-.41880185368791c.110559949216622.039868724299595.234410411994759.061647817616176.371548571949461.065157031411218.137138159954702.003506397411911.268370363790382-.013290513559696.393513546576287-.050204851608214.139537718665451-.041161444309182.236438208086838-.092287253308314.290887349576224-.153197178460687.054451957870697-.06109299007403.071614998691075-.126064140178642.051128625382262-.194724752620459-.014766298494578-.050390732914821-.046881519121598-.086381297187472-.095979532030469-.108163206889003-.049281077832347-.021779093318401-.107605562961908-.033591005560083-.175162153085694-.035807499345538-.067736838664132-.002027796093898-.15744146833822.000368946233721-.269477202489725.007015611205134-.173131540610484.009229288607457-.316730484228174.009967181074899-.430982712166951.001844731168603-.114249411552009-.00793656859787-.221119898431425-.043375121711506-.319682054097939-.106498724262565-.098748036974939-.063123602552878-.168884434348001-.165563918246335-.210600706201149-.306763303156913-.036359510502734-.123295635232353-.035807499343719-.244746539301559.001478601318013-.364349895817213.037097402973814-.119420291592178.114252227936959-.228504455872098.231087079509962-.326697665304891.117020732877791-.098376274356269.272614653666096-.17608311047843.466604330205882-.233117691985171.13529342878428-.039865907916464.272245707430557-.062754656319157.411045533628567-.068477547514703.138985707510074-.005905956120841.265973621464582.007198676130429.380594795633442.039316713142398l-.041713455466379.417323252369897c-.228504455873917-.053342302786405-.44094989324185-.051128625384081-.636784300944782.006826913513578-.137321224881816.04042355184356-.232376983136419.092473134618558-.284981393455382.156151564711763-.0524185290069.063861495020319-.068108601280983.132155977609727-.046698454196303.204691933695358.02141014708468.0729077187043.075307277413231.115728012871841.161502693292277.128832645126749.086198232263996.01310463225127.212076491136031.013659459793416.377823474305842.002216493781816.17294847568337-.009229288607457.316547419304698-.009784116149604.430796830858526-.001847547551733.114252227933321.00830833121654.220382005963984.042637229245884.318761096707021.103733035704863.09801014450386.060909925148735.167963476955265.162240585759719.209676932423463.303808916902199.035807499345538.121081957831848.03451477933595.241609088127007-.003692278722156.361581390872743-.038207058056287.119972302749375-.116280024029038.229056467032933-.23440759560981.327618622699447-.118130387965721.098564972047825-.274093254985928.17608592686156-.468082931522076.233486638217073-.167591714340233.049466959144411-.336478965071365.074569384945789-.506287173195233.07493833117951"/>
    <rect class="cls-2" x="14.462541156320658" y="2.407952585411929" width=".511646748469467" height="2.211312311151783" transform="translate(-.381526389819307 2.529233288305887) rotate(-9.696633435287243)"/>
    <polygon class="cls-2" points="17.626622706509806 2.175911733143948 16.76004404606465 4.424027871908038 16.255049592879004 4.444700126527096 15.212204757030122 2.273921877651446 15.764449675572905 2.2515879567909 16.500717089575119 3.802567513384929 17.11848798576284 2.196583987763006 17.626622706509806 2.175911733143948"/>
    <polygon class="cls-2" points="19.55996574755045 4.237867741399896 19.506992390999585 4.645037931388288 17.809276439609675 4.424103914263469 18.094812660605385 2.231357874376044 19.751738930302963 2.447126644230593 19.698765573752098 2.854296834218985 18.545912799843791 2.704054042011194 18.4840819173005 3.180439671979912 19.50201020865461 3.312781530899883 19.450512637038628 3.707401916177332 18.432584345682699 3.574876992332065 18.366506356878745 4.082456885538704 19.55996574755045 4.237867741399896"/>
    <path class="cls-2" d="M21.129218000054607,4.990304012862907c-.126802032647902-.153011297150442-.206170535013371-.327066611536793-.237730928098244-.522346191701217-.031749090774611-.195279580160786-.009229288605638-.392034945258274.067736838665951-.590268911671956.076783062346294-.198417031338977.192511075216316-.359181832165632.347555801228737-.481922639859476.154856028322683-.123112570308876.330941955184244-.198233966413682.527883201588338-.225921832237873.196941246405913-.027499168128998.396648181371347-.00202779609026.598757491430661.076231051190916.149135953506629.057955538897659.277416587474363.135293428786099.384470139277255.232193918207486.10705355180653.096717424497911.186605119099113.209122104881317.238285755640391.337771685080952l-.131787031376007.060540978918652c-.101885488151311-.226656908322184-.281474996043471-.38982126785595-.538588275130678-.489862024840477-.172762594374944-.06662999996297-.345339307445101-.088411909664501-.516992246737573-.06459938748776-.171838820599078.023623824485185-.324852934136288.089332867057237-.4588536429128.196569483789062-.134369655012051.107053551804711-.234407595611628.246225140617753-.300671465725827.417140187446421-.066261053729249.170731981897916-.085826469647145.341092201182619-.058879312673525.510717344381192.026764092046506.169625143200392.095793650722044.321160655415952.206722546172387.454423471726841.110931711831654.133262816310889.252868989209674.233300756910467.425628767201488.300485584415583.255268547922242.098931101902053.498353420982312.098193209430974.729071554254915-.00203061247521l.05666281888989.13363176254461c-.124957301479299.059988967757818-.260064848958791.089887694599383-.405877469978805.090073575907809-.145629556094718,0-.292182885967122-.028608823215109-.439474108306968-.085457523413424-.202292374984609-.078444728589602-.366932519453258-.19435862276805-.493920433409585-.34736991992213"/>
    <path class="cls-2" d="M24.200574290538498,5.966741343043395l-1.100617309821246-.658008566722856-.56073913106593.389821267857769-.148950072198204-.089149802131942,2.007799770650308-1.376003284816761.138247815040813.082505953543659-.261726515203918,2.420140840675231-.149321834815055-.089149802133761.075307277413231-.680156606271339ZM24.218846986446806,5.819450120701731l.156148748328633-1.393538088255809-1.15119110766318.798470059164174.995042359334548.595068029091635Z"/>
    <path class="cls-2" d="M25.667076425168489,7.94264557097631l.083612792244821-.904413955884593c-.065894923882297-.04282029416936-.123481516546235-.085826469645326-.172948475687008-.128463698889391l-.478416242445746-.412524134952037-.472327221401429.54763168242971-.122002915226403-.105391885561403,1.444663897258579-1.673906245598118.60023468455438.51791602051162c.210231759967428.181622936752319.332234675193831.373948130662029.366011562064159.57661226826167.033593821943214.202847202528574-.026023383197753.392589772802239-.1788516154229.569779721981831-.114066346628533.132341858918153-.243822765527511.21447604984678-.389452321624049.245853378006359-.145443674788112.031563209466185-.29697918700731.011628847316388-.454606536652136-.060538162535522l-.087119189656732.947234250053953-.138798418005535-.119789237824079ZM25.670582822578581,6.802345418162076c.178668550495786.154120952234734.349031586165438.232193918209305.511272171925157.234410411994759.161871639525998.00239955870893.305840937569883-.069032375058669.430798239049182-.214107103611241.125326247713019-.145074728552572.175159336704382-.297719895856062.148950072198204-.457743987830327-.025840318272458-.160026908357395-.128094752657489-.317285311772139-.306763303153275-.471403447621924l-.47823036113914-.412710016262281-.784258588211742.909030008380796.478231769331614.412524134950218Z"/>
    <polygon class="cls-2" points="27.195667141424565 9.495619127061218 27.08363140727306 9.588092261679776 26.112766291777007 8.411058019362827 27.818420219960899 7.003863287693093 28.759193686346407 8.144349321815753 28.646977703652738 8.236819640051181 27.808821985119721 7.220738896250623 27.136416066132369 7.775569254810762 27.886159875006342 8.684230316956018 27.776337818257161 8.774855904022843 27.026594009385008 7.866011776952291 26.327242341621968 8.442807110137437 27.195667141424565 9.495619127061218"/>
    <path class="cls-2" d="M25.901540348448179,20.860093937613783c-.115544947948365-.101885488151311-.205987470089894-.249176710491156-.271324750043277-.442425678174914-.065525977644938-.193064494569626-.09801014450386-.423413681612146-.09801014450386-.691232034239874,0-.267818352631366.032484166858922-.498167539673886.09801014450386-.691230626051038.065337279953383-.192880021450037.155779802094912-.340540190021784.271324750043277-.442425678174914.115359066638121-.101885488151311.246774335395457-.152828232225147.394620385277449-.152828232225147.147657352188617,0,.279259910448673.050942744073836.3948048583934.152828232225147.115359066638121.10188548815313.205615707473044.249545656724877.271138868734852.442425678174914.065340096336513.193063086377151.098010144505679.423412273419672.098010144505679.691230626051038,0,.267818352627728-.032670048169166.498167539670249-.098010144505679.691232034239874-.065523161261808.193248967683758-.155779802096731.340540190023603-.271138868734852.442425678174914-.115542131561597.101884079960655-.247146098014127.152826824034491-.394803450202744.152826824034491-.147846049880172,0-.279261318639328-.050942744073836-.394620385279268-.152826824034491M26.552162949537887,20.330549069780318c.061833698926421-.130309838246831.09284208085046-.331681255840522.09284208085046-.604112844581323,0-.272431588744439-.031008381924039-.473803006336311-.09284208085046-.604111436396124-.062016763851716-.130311246441124-.147474287263321-.195465461471031-.256003624006553-.195465461471031-.107053551804711,0-.191404236515154.065154215029906-.253421000365051.195465461471031-.062016763853535.130308430059813-.093027962160704.331679847651685-.093027962160704.604111436396124,0,.272431588740801.031011198307169.473803006334492.093027962160704.604112844581323.062016763849897.130309838252288.146367448560341.195648526398145.253421000365051.195648526398145.108529336743231,0,.193986860154837-.065338688145857.256003624006553-.195648526398145"/>
    <path class="cls-2" d="M27.286861637951006,20.899223361255281c-.04761941158722-.066262461921724-.071429117384469-.149320426624399-.071429117384469-.248806356064961,0-.101701015033541.023809705797248-.184205560386545.071429117384469-.247144689821653.047436346665563-.062571591395681.105946713105368-.093948919553441.175714164246529-.093948919553441.069584386215865,0,.128094752657489.03137732815776.175531099321233.093948919553441.04761941158722.062939129435108.07142911738265.145443674788112.07142911738265.247144689821653,0,.099485929440561-.023809705795429.182543894143237-.07142911738265.248806356064961-.047436346663744.066262461919905-.105946713105368.099485929440561-.175531099321233.099485929440561-.069767451141161,0-.128277817580965-.033223467520656-.175714164246529-.099485929440561"/>
    <path class="cls-2" d="M29.252657865637957,20.501243030505066v.469003888916632h-1.347208580295046v-.373025765078637l.687724228637308-.906445976552277c.072907718702481-.096900489421387.122188796534829-.180513281666208.147660168573566-.250466614115794.025471372038737-.069770267524291.038207058056287-.139168772429912.038207058056287-.207829384871729,0-.099485929440561-.02418146841228-.175900045554954-.07253877247058-.229242348341359-.048543185364906-.05315923785929-.119234410278295-.079920513524485-.212631318674539-.079920513524485-.078072965972751,0-.148581125962664.020672254617239-.211521663592066.06219982877883-.062754656319157.041530390541084-.115359066638121.103733035699406-.157810414571941.186605119095475l-.300488400800532-.270215094958985c.069584386215865-.14433965247008.165563918246335-.257668106631172.287752714782982-.339250286397146.12218879653301-.081765244694907.262281342742426-.122740807692026.420274822237843-.122740807692026.132341858918153,0,.248069871789994.030270489454779.347555801232375.090625587063187.099300048130317.060355097610227.176637938020576.145629556096537.23163909066534.256006440389683.055189850338138.110191002982901.08287489977738.239761540573454.08287489977738.389080559005379,0,.135110363862623-.020486373308813.261729331585229-.061092990075849.380225849399721-.040792498075461.118679582737968-.119789237824079.253604065295804-.236995852012114.405139577509544l-.409752813624436.540249941373986h.766352022154024Z"/>
    <path class="cls-2" d="M29.787534147364568,20.860093937613783c-.11535906663994-.101885488151311-.205987470089894-.249176710491156-.271141685116163-.442425678174914-.065523161263627-.193064494569626-.098007328124368-.423413681612146-.098007328124368-.691232034239874,0-.267818352631366.032484166860741-.498167539673886.098007328124368-.691230626051038.065154215026269-.192880021450037.155782618476223-.340540190021784.271141685116163-.442425678174914.115542131561597-.101885488151311.246960216702064-.152828232225147.39462038527563-.152828232225147.147843233497042,0,.279261318641147.050942744073836.394803450200925.152828232225147.11535906663994.10188548815313.205801588781469.249545656724877.271324750045096.442425678174914.065154215029906.193063086377151.098010144505679.423412273419672.098010144505679.691230626051038,0,.267818352627728-.032855929475772.498167539670249-.098010144505679.691232034239874-.065523161263627.193248967683758-.155965683405157.340540190023603-.271324750045096.442425678174914-.115542131559778.101884079960655-.246960216703883.152826824034491-.394803450200925.152826824034491-.147660168573566,0-.279078253714033-.050942744073836-.39462038527563-.152826824034491M30.438160973029881,20.330549069780318c.062016763851716-.130309838246831.093025145777574-.331681255840522.093025145777574-.604112844581323,0-.272431588744439-.031008381925858-.473803006336311-.093025145777574-.604111436396124-.062016763853535-.130311246441124-.147291222341664-.195465461471031-.256003624004734-.195465461471031-.106870486883054,0-.191404236520611.065154215029906-.253421000370508.195465461471031-.061833698926421.130308430059813-.09284208085046.331679847651685-.09284208085046.604111436396124,0,.272431588740801.031008381924039.473803006334492.09284208085046.604112844581323.062016763849897.130309838252288.146550513487455.195648526398145.253421000370508.195648526398145.10871240166307,0,.193986860151199-.065338688145857.256003624004734-.195648526398145"/>
    <path class="cls-2" d="M31.240343025596303,19.639353648526594c-.082505953545478-.124402473933515-.123481516546235-.29070428464729-.123481516546235-.49927156198828,0-.208387028798825.040975563000757-.375057785744502.123481516546235-.499274378373229.082320072233415-.124405290320283.188818796497799-.186605119095475.31968205409612-.186605119095475.130677376293534,0,.236624089398902.062199828775192.318392150473301.186605119095475.081396298459367.124216592628727.122185980153517.290887349574405.122185980153517.499274378373229,0,.20856727734099-.04078968169415.374869088054766-.122185980153517.49927156198828-.081768061074399.124588355245578-.187714774179767.186605119097294-.318392150473301.186605119097294-.130863257598321,0-.237361981862705-.062016763851716-.31968205409612-.186605119097294M31.696056400947782,19.435030661064957c.033224875711312-.066261053729249.049835905374493-.164640144468649.049835905374493-.294948574526643,0-.130125365134518-.016611029663181-.228690337182343-.049835905374493-.294951390909773-.032853113092642-.066261053732887-.078444728589602-.09948592944238-.136031321255359-.09948592944238-.056110807729056,0-.101147595683869.033776886870328-.134924482552378.101330660605527-.03414583310223.06737070881718-.051125809000951.165194972014433-.051125809000951.293106659746627,0,.127908871347245.016979975898721.225550069621022.051125809000951.29310384335804.033776886868509.06773683866777.078813674823323.101330660609165.134924482552378.101330660609165.057586592665757,0,.103178208162717-.033038994401068.136031321255359-.099485929440561M32.621883320300185,18.482625530976293h.303071024434757l-1.217269096468954,2.487696022604723h-.303071024434757l1.217269096468954-2.487696022604723ZM32.541591044158849,20.915134519626008c-.06699894619851-.055557388379384-.119234410281933-.13566237501982-.156517694564172-.23976294876411-.03728328428042-.10428504686206-.056110807729056-.225181123385482-.056110807729056-.362503756457954,0-.137508514380897.018827523448635-.258221525984482.056110807729056-.362503756459773.037283284282239-.10428504686206.089518748365663-.184205560384726.156517694564172-.23994742188188.067187643890065-.055555980188728.143046932458674-.083612792244821.227949628329952-.083612792244821.13086325760014,0,.237178916939229.062202645160141.319498989174463.18678818402077.082320072235234.124405290318464.123664581469711.29070710103224.123664581469711.499275786565704,0,.208384212413876-.041344509234477.374870496245421-.123664581469711.499272970178936-.082320072235234.124403882129627-.188635731574323.186605119097294-.319498989174463.186605119097294-.084902695871278,0-.160761984439887-.027870930749486-.227949628329952-.083611384054166M32.905757875050767,20.605971657761984c.033222059330001-.067369300622886.049835905376312-.165379445128565.049835905376312-.29310384335804,0-.127910279541538-.016613846046312-.225734542738792-.049835905376312-.293288316477629-.033038994401068-.067556590123786-.078627793513078-.101333476994114-.136217202561966-.101333476994114-.055924926418811,0-.100961714375444.033224875713131-.134921666171067.099485929440561-.033962768176934.066446935039494-.050942744073836.164826025778893-.050942744073836.295135864031181,0,.130308430056175.016979975896902.228503047679624.050942744073836.294949982717299.033959951795623.066262461921724.078996739752256.099485929440561.134921666171067.099485929440561.057589409048887,0,.103178208160898-.033778295059165.136217202561966-.10133206879982"/>
    <path class="cls-2" d="M3.222243567794067,21.454035413322345c-.124033527701613-.093209618893525-.221488844665146-.222043672209111-.292365950890598-.38723723602925-.071061579341404-.165009090704189-.106500132456858-.351614209799664-.106500132456858-.559629475981637,0-.208201147490399.035438553115455-.394806266585874.106500132456858-.559629475981637.070877106225453-.165194972012614.168332423188986-.294213498444151.292365950890598-.387238644221725.124033527705251-.093025145777574.263572654561358-.139537718665451.418430091072878-.139537718665451.130309838252288,0,.248252936715289.031932155701725.353644822276692.095979532030469.105391885565041.064230441252221.193803795229542.156148748330452.265603267038387.276121051079826l-.223703930261763.288121661013065c-.101885488149492-.164085316926503-.227949628329952-.246036442929835-.37856277496212-.246036442929835-.093211027085999,0-.176268991790494.028422941906683-.249359775416451.085457523413424-.073092191818432.057031765123611-.130125365132699.136586148799324-.170916455015686.238468820563867-.040975563002576.102071369459736-.061278871384275.218168328565298-.061278871384275.348293693697997,0,.129939483824273.020303308381699.246037851120491.061278871384275.348106404195278.040791089882987.102069961269081.097824263197253.181437055445713.170916455015686.238656110066586.073090783625958.056848700196497.156148748330452.085457523411606.249359775416451.085457523411606.150613146632168,0,.276677286812628-.082873491583086.37856277496212-.249175302296862l.223703930261763.28830472593836c-.071799471808845.122004323418878-.160580327708885.215029469196452-.266710105739548.278892372405608-.105946713103549.064047376328745-.22425875780209.096162596955764-.35475306916851.096162596955764-.153380243384163,0-.292181477774648-.046512572887877-.416215005479899-.139537718665451"/>
    <polygon class="cls-2" points="5.874966987597873 19.456699915428544 5.874966987597873 21.557527648239557 5.526490228974581 21.557527648239557 5.526490228974581 20.696302932758044 4.842641343982905 20.696302932758044 4.842641343982905 21.557527648239557 4.494533531593333 21.557527648239557 4.494533531593333 19.456699915428544 4.842641343982905 19.456699915428544 4.842641343982905 20.28507010962494 5.526490228974581 20.28507010962494 5.526490228974581 19.456699915428544 5.874966987597873 19.456699915428544"/>
    <polygon class="cls-2" points="7.180314252291282 21.55748962706457 6.816886722055642 20.828236416073196 6.459919975486628 21.55748962706457 6.059947053438009 21.55748962706457 6.616808024473357 20.489172010984475 6.087817984185676 19.456663302442394 6.483545208164287 19.456663302442394 6.829806881192781 20.138112628725139 7.169424705632991 19.456663302442394 7.545772395002132 19.456663302442394 7.021211117709754 20.471083788193937 7.58250225993288 21.55748962706457 7.180314252291282 21.55748962706457"/>
    <path class="cls-2" d="M3.569040353682794,25.500425066829848c-.043928541061177-.180697754783978-.039129423641498-.35825946658224.014397352260858-.532682319009837.053711249020125-.174238379309827.153750597810358-.327249676462088.300486992608057-.459036707839914.146551921679929-.131785623183532.309531808099564-.214844996076863.488567896640234-.249728721648353.178853023615375-.034516187528425.355859907869672-.020487781499469.531022060957184.042635821053409.175345218010989.063125010743533.331126428298376.170731981897916.468080115137127.323005386582736.11517459352217.12827922577344.196756773289962.264496428337225.244746539305197.408648791306405.04798835782276.14415236296918.061463344498407.289412972833816.040236262340841.435964894511926l-.40071081451606-.037469165588845c.025471372036918-.204138514343867-.028055403865437-.380038559898821-.160949273942606-.527883201588338-.082504545351185-.091733833958642-.17608311047843-.155410855861192-.280737103574211-.191402828326318-.104653993095781-.035807499347356-.21115412555082-.041344509232658-.319130042940742-.016981384089377s-.207830793062385.077889901049275-.299380153905076.160025500166739c-.091916898883937.082321480427709-.155410855863011.175900045554954-.191402828326318.280738511766685-.035807499345538.104838466211731-.041344509234477.211152717358345-.016981384087558.319128634748267.024364533335756.108161798698347.077891309238112.207832201258498.160211381473346.299564627024665.132892461884694.148029114805468.302702078201037.219461048573066.509794978795981.214476049841323l-.005538418075957.402371072570531c-.149135953508448.006829729896708-.293472789597217-.021596028393105-.432272615793408-.085457523413424-.13879982619801-.064047376326926-.265787740154337-.1598438434321-.380962333674688-.28830472593836-.135477901905688-.150797619749937-.225550069621022-.316729076039337-.269478610682199-.497612712129921"/>
    <polygon class="cls-2" points="7.414816196749598 26.569848113416811 6.120764037932531 28.081699654563636 5.770811494376176 27.782318092466085 6.301463200907165 27.162516583799516 5.614476864737298 26.574464165911195 5.08400963132226 27.194634620811485 4.73405567957343 26.895069993786819 6.027923365272727 25.383035387716518 6.377877317021557 25.682415541621594 5.867711983797562 26.27877488253398 6.554698319967429 26.866461170571711 7.064862244998949 26.270286302777095 7.414816196749598 26.569848113416811"/>
    <polygon class="cls-2" points="7.704117922432488 26.767400515034751 8.0872939335095 27.02285212787865 7.191738911809807 28.366554310759966 8.022139718481412 28.920094765693648 7.813939979183488 29.232209197429256 6.600546226358347 28.423403010958282 7.704117922432488 26.767400515034751"/>
    <path class="cls-2" d="M8.517464119047872,29.50720651150732c-.108160390505873-.154120952236553-.169070315658246-.322081612810507-.182728367262825-.503890430869433-.013474986673828-.181806001675795.023625232679478-.359919724631254.111482314801833-.534341168868195.087857082124174-.174421444236941.208568685533464-.310455581873612.362689637770018-.407910898838963.154119544044079-.097455316965352.32521906398506-.148767007272909.513485849325662-.153749189619703.188080904028538-.005168063651581.374317076893931.038759069215303.558891583512377.131784214994696.184574506620265.092839264469148.330573008948704.216134899705139.437811033873004.369701024397727.107236616731825.153752006002833.16814654188056.321715482958098.182543894145056.503890430865795.014397352259039.182174947911335-.022333920862366.360657617102333-.11000652986877.535079061337456-.087857082124174.174424260620071-.209123513073791.31008381925858-.364165422703081.407170189986573-.154858844702176.097086370731631-.325958364644976.148214996117531-.513301376209711.153935070929947-.187527484678867.005353944963645-.37321023819095-.038207058056287-.557784744813034-.131049138908566-.184574506618446-.093025145777574-.330941955182425-.21650666232199-.438917872570528-.370624798175413M9.45344128439865,29.598017979880751c.10908416428174-.005722891193727.209307986189742-.039682842991169.301040411957729-.101699606841066.091733833960461-.062016763849897.165194972012614-.148212179732582.220566479083573-.258217301407058.055372915261614-.110007938057606.080659814182582-.220382005963984.075860696762902-.330941955182425-.00479911741968-.110745830525047-.037469165588845-.211521663592066-.097824263197253-.302333131969135-.060356505800883-.090811468373431-.143045524269837-.162612348374751-.248068463597519-.21539700723406-.104838466211731-.052790291629208-.211892018014623-.076414116114393-.320790300989756-.070691224918846-.108898282973314.005722891197365-.20930798619338.039496961682744-.301040411961367.101516541919409-.091549360840872.062199828775192-.165010498893025.148212179730763-.220382005965803.258403182711845-.055557388379384.109822056751-.080844287298532.220198941042327-.075860696762902.330941955184244.00479911741968.110562765601571.037284692472895.211338598666771.097639790081303.302150067042021.060356505800883.09081146837525.143045524269837.162612348378389.248068463599338.215397007237698.105022939325863.052790291627389.211892018016442.076414116114393.320790300989756.070877106225453"/>
    <path class="cls-2" d="M11.597311805671779,30.91807380721184l-.183097313492908-.648779278115398-.021596028391286-.007195859747299-.379116194317248-.130125365134518-.179959862314718.524373987795116-.435595948280024-.149319018433744.645457353819438-1.882476339320419.814896615709586.279261318641147c.166670756947497.057217646432036.301964185735415.134738601243953.405694405053509.23237979951773.103730219319914.097641198270139.171283993058751.208939039957841.20266413760146.33389634143532.031191446852972.125140366404594.022885932019562.257296344014321-.025102425803198.397203008913493-.047991174207709.139906664900991-.12292668900227.248990829180912-.224812177153581.327249676462088-.101885488151311.078075782357701-.22388981156837.12292668900227-.36619603518011.134372471395181l.214660522960912.749924057414319-.467897050211832-.160764800823017ZM11.98178053675656,29.437602410605905c-.048727658480857-.079920513522666-.138615353082059-.142306223608102-.26929413756443-.187159946635802l-.355122015400411-.121633968994502-.224995242080695.656161019169303.354936134095624.121819850301108c.130863257598321.0448537230277.2403163681156.050204851608214.328173450237955.016242083429461.087672609006404-.033962768176934.14950489974035-.102992326852473.185127925969937-.206905611095863.036362326887684-.105760831796943.030086016342466-.198602912649221-.01882611525798-.278523426173706"/>
    <polygon class="cls-2" points="14.69109495767043 29.603073388196208 14.300535797347038 31.554396221265051 13.849066711871274 31.464136764050636 14.009090803845538 30.664007855028103 13.122580597635533 30.486632024540086 12.962370624352843 31.286577868637323 12.510715657568653 31.1963212278024 12.901460699202289 29.244998394733557 13.352929784674416 29.335255035566661 13.198994713748107 30.104747325282005 14.085504919958112 30.282123155770023 14.239439990888059 29.512816747364923 14.69109495767043 29.603073388196208"/>
    <polygon class="cls-2" points="16.459521848664735 31.363194764360742 16.433126702850132 31.731791766440438 14.896175552285058 31.622152774616552 15.037743883427538 29.637053054675562 16.537780695947731 29.744292487790517 16.511571431437915 30.112886673487083 15.467988703125229 30.038320104926242 15.437163386124666 30.469300000710064 16.358929080523012 30.535192108207411 16.333271827175849 30.892346144277326 15.411692014085929 30.826822983013699 15.379021965918582 31.286042755778908 16.459521848664735 31.363194764360742"/>
    <polygon class="cls-2" points="18.146273619237036 31.680254765453356 17.635925221087746 31.011172178956258 17.1947922629206 31.722154102229979 16.666540115100361 31.745408980483262 17.35777074114776 30.70182625216512 16.616152198566851 29.755512959505722 17.138681455189726 29.732441146179553 17.624296373769539 30.357227653572409 18.044574012392331 29.692575238263089 18.541817778286713 29.670793328561558 17.890822006389499 30.661219635399902 18.677480153310171 31.656999887201891 18.146273619237036 31.680254765453356"/>
    <rect class="cls-2" x="18.800336607097833" y="29.591344757994353" width=".460578673099267" height="1.990135393317949" transform="translate(-3.74268549282041 2.674593508715002) rotate(-7.321527500901939)"/>
    <path class="cls-2" d="M19.501435666426914,29.539358345116852l.880790131399408-.203218965141787c.210783771124625-.048543185366725.405880286361935-.051128625384081.586207686717898-.008305514831591.180147151817437.043006175479604.331682664034815.127173795262934.454978299270806.252497226592823.123295635234172.125326247709381.207091492404288.28479832852463.251942399050677.478785188681286.044667841721093.193986860151199.039130831832153.374134011968636-.016979975896902.540801952531183-.055741861497154.166487692020382-.155410855861192.308424969396583-.298457788321684.426180778362323-.142861051152067.117572744038625-.319682054099758.200633525122612-.530282760300906.249362591797762l-.880973196321065.20303308383518-.447224795598231-1.93913915821031v.00000281638313ZM20.722397041616205,30.912041113833766c.193986860153018-.044667841721093.336110018839463-.134555536320477.42673560590265-.269111072640953.090442522143348-.134741417628902.114438109247203-.294396563369446.071800880003138-.479156951299956-.042454164320588-.184574506618446-.134000708778331-.317468376693796-.274279136294354-.399050556463408-.140461492441318-.081396298459367-.307501195622535-.099668994365857-.501488055775553-.055001152644763l-.410124576239468.094500930712456.277416587472544,1.202319733047261.409938694931043-.094500930710637Z"/>
    <rect class="cls-2" x="21.977869311503675" y="28.858741406149534" width=".460523757648662" height="1.99011569604113" transform="translate(-8.381691966206777 8.670949112439047) rotate(-18.652738086693539)"/>
    <polygon class="cls-2" points="24.130713898743124 27.982805165649552 24.947825600045689 29.797355968614283 24.603041120144553 29.95258375955018 23.202118474448071 29.25821568232459 23.698255401641291 30.359939830846997 23.283331707982143 30.546913896178012 22.466220006679578 28.732177211906674 22.813775807908314 28.575659517342501 24.211927132277197 29.271137249652384 23.715976086390583 28.169593349672141 24.130713898743124 27.982805165649552"/>
    <polygon class="cls-2" points="26.592014775536882 28.386395732255551 26.785083494680293 28.701464550244054 25.47127863044625 29.506578457994692 24.431388180850263 27.8097834639957 25.713625611040698 27.024051907234025 25.906874578726274 27.33912072522071 25.014827362627329 27.885831450259502 25.240560497173647 28.254239754647642 26.028325482793662 27.771393341012299 26.215485429433102 28.076863924157806 25.427720443811268 28.559527272866035 25.668405758160588 28.95230292697488 26.592014775536882 28.386395732255551"/>
    <path class="cls-2" d="M26.54014825768536,26.428521991250818l.677205036403393-.598943372735448c.161871639525998-.143045524269837.332048793885406-.238839174991881.510903225691436-.287013414123066.178851615424719-.04798835782276.352352102267105-.046512572887877.520498644149484.004799117421499.167963476957084.051127217191606.317837322929336.151351039099609.449807419228819.300486992608057.131787031377826.148952888579515.212814383601653.309900754329647.243270754370315.483032294940131.030270489458417.172945659303878.01070507354234.34533930744692-.058879312673525.517178128047817-.069584386215865.171469874365357-.185312399087707.328914159088527-.347184038613705.471958275167708l-.677019155094968.599129254045693-1.318602573461249-1.490621642606129v-.000005632766261ZM28.26832057984393,27.052012962252775c.149135953508448-.131970096301302.231272960818387-.278709307482131.246408205548505-.440212000776228.015318309653594-.161502693290458-.039868724301414-.313221270433132-.165563918248154-.455161364192463-.1253262477112-.141940093759331-.26929413756443-.215213942310584-.431351658398853-.219829994804968-.162240585759719-.004430171189597-.31802038785645.059065193981951-.46715634136126.191035290281434l-.315068817986685.278706491099001.817663712461581.924165253107276.315068817984866-.278709307482131v.00000563276808Z"/>
    <path class="cls-2" d="M29.788717028419342,24.548907097530901l.27446220121783-.318944161632317.61186494006688.526959427812471c-.00867446106713.134924482552378-.043006175477785.270771330689968-.102623380618752.406802651947146-.059803086449392.136031321251721-.136586148795686.25877353713804-.230718133276241.368040766345075-.134738601243953.156519102754828-.289228499714227.268371771981037-.463835825259594.336110018837644-.174238379309827.067370708813542-.351245263565943.085460339796555-.531020652766529.054635022794173-.179592324271653-.031008381924039-.344232468742121-.110743014140098-.493551487174045-.239209529414438-.149321834816874-.128832645123111-.252683107903067-.279630264874868-.309900754333285-.452760397291058-.057403527738643-.173131540612303-.064971150104611-.351614209801483-.022888748402693-.535450823954307.041899336776623-.183836614152824.131049138908566-.354936134093805.267080460162106-.51274795685822.113697400394813-.132155977609727.239206713033127-.232933218869221.376530754296255-.302333131967316.137324041266766-.069399913098096.279816146183293-.104285046860241.427659379680335-.10446951997983l.01384252472053.402003534525647c-.205984653704945.010151654192669-.374686023127651.091180414608971-.505918226961512.24345381929561-.08287489977738.09616400514642-.136400267487261.199156331997074-.160578919514592.308423561204108-.023809705797248.109084164283558-.017165857207146.21613771608645.020117427073274.32097618230182.03728328428042.104652584903306.103361273084374.197863611987486.198233966413682.279445791757098.093394092013114.080473932872337.194724752620459.131232203832042.303808916904018.152826824034491.108898282973314.021411555273517.215951834778025.01273568601755.320605827873806-.026024791388409.104470928168666-.038760477407777.197679138871536-.105391885563222.279447199949573-.200263170700055.086381297187472-.100592768141723.142675169841823-.209676932423463.169070315656427-.327066611538612l-.441687785707472-.380407506130723Z"/>
  </g>
</svg>