<?xml version="1.0" encoding="UTF-8"?>
<svg id="Capa_1" data-name="Capa 1" xmlns="http://www.w3.org/2000/svg" viewBox="0 0 34.015748031495605 34.015748031495605">
  <defs>
    <style>
      .cls-1 {
        fill: #eb5c94;
      }

      .cls-2 {
        fill: #d0dbf1;
      }

      .cls-3 {
        fill: #1d3a69;
      }

      .cls-4 {
        fill: #c47db3;
      }

      .cls-5 {
        fill: #6e4696;
      }

      .cls-6 {
        fill: #d56f6f;
      }

      .cls-7 {
        fill: #b0dbd3;
      }

      .cls-8 {
        fill: #8c60a5;
      }

      .cls-9 {
        fill: #84a47c;
      }

      .cls-10 {
        fill: #7d3667;
      }

      .cls-11 {
        fill: #b1d7b3;
      }

      .cls-12 {
        fill: #61ac42;
      }

      .cls-13 {
        fill: #4ab58f;
      }

      .cls-14 {
        fill: #fff;
      }

      .cls-15 {
        fill: #b69f51;
      }

      .cls-16 {
        fill: #da7cb1;
      }

      .cls-17 {
        fill: #613e91;
      }

      .cls-18 {
        fill: #de8cbb;
      }

      .cls-19 {
        fill: #b5b2b2;
      }

      .cls-20 {
        fill: #bbc7e7;
      }

      .cls-21 {
        fill: #ededed;
      }

      .cls-22 {
        fill: #d8ece9;
      }

      .cls-23 {
        fill: #edf2fb;
      }
    </style>
  </defs>
  <path class="cls-14" d="M0,17.007874015747802C0,7.614956225133938,7.614956225133938,0,17.007874015747802,0s17.007874015747802,7.614956225133938,17.007874015747802,17.007874015747802c0,9.392916740707733-7.614956225133938,17.007874015747802-17.007874015747802,17.007874015747802S0,26.400790756455535,0,17.007874015747802"/>
  <g>
    <g>
      <path class="cls-21" d="M9.239597192796282,18.352424667291416c0-4.282500108483873,3.471652171603637-7.753709163511303,7.753702239820996-7.753709163511303,4.282507032177818,0,7.75370223981372,3.47120905502743,7.75370223981372,7.753709163511303s-3.471195207635901,7.753709163511303-7.75370223981372,7.753709163511303c-4.282050068217359,0-7.753702239820996-3.47120905502743-7.753702239820996-7.753709163511303"/>
      <path class="cls-16" d="M9.239597192796282,18.390449608112249c0-.113894806356257,3.306937433415442-1.026382606902189,7.601699408289278-.988274581724909,4.295205091442767.038121872570628,7.905705071345437.874379775368652,7.905705071345437.988274581724909,0,4.282500108483873-3.471195207635901,7.753709163513122-7.75370223981372,7.753709163513122-4.282050068217359,0-7.753702239820996-3.471209055029249-7.753702239820996-7.753709163513122"/>
      <path class="cls-2" d="M17.194903625406369,20.064114747317944c-.651589071490889.012711906656477-1.049071560122684.367994465515949-1.192004349322815,1.066318487939498-.063524914792652.311275544319869-.063524914792652.624808213678989-.040385921303823.940625702858597.027680938346748.378878516312398.039478917071392.758670960551171.068066859650571,1.137092512897652.036750980678335.489145305731654.077586942254129.978290611463308.127956833817734,1.466535836661933.032665999773599.316717569716275-.127049829581665.614824243417388-.421535410048818.743244964893165-.289493595337262.126135901649832-.608482137486135.045821023006283-.818567858405004-.195566729498751-.675185028940177-.774110803602525-1.032281596271787-1.692954557478515-1.226941321536287-2.686214200635732-.163350769988028-.832172921902384-.259091644289583-1.673886697493799-.335778506003408-2.517871445514174-.062160946588847-.684698187840695-.240037631701853-1.338101267794627-.540872241799661-1.95792442003949-.253192654923623-.522268269476626-.537244224866299-1.026396454293717-.838985839192901-1.521440749387693-.165164778449252-.270425735356184-.300384569829475-.553120260792639-.388862486568541-.85803985178427-.011347938456311-.039021953107294-.010890974492213-.086213868009509-.064888882992818-.095740874301555-.054904912722122-.045377906437352-.034936972206197-.111166869959561-.044920942465978-.168342755117919-.081675384994014-.457379386491084-.045827946702047-.907959703079541.094833870069124-1.348542202020326.144746797668631-.452851289019236.405202410154743-.831729805329815.748236950021237-1.162973290167429.361638512189529-.349383569500787.786351898899738-.579444154636803,1.259157281045191-.726905041306964.152459795495815-.047648878866312.316717569719913-.041292925538073.474626314309717-.065345846953278h.138847808302671c.007256033866724.007712997829003.016332999894075.012254942688742.026316970150219.013611987191325h.030851991312375c.010440934227518-.001357044502583.019060936287133-.006342105934891.026316970150219-.013611987191325h.278152580576716c.007262957558851.007269881256434.015882959622104.011797978724644.025866929878248.013168870618756.009527006299322.000443116572569.019510976559104.000900080536667.029488023115846.000900080536667h.029044906546915c.009983970259782,0,.019961016820162-.000456963964098.02949494681161-.000900080536667.009977046564018-.001370891894112.018603972323035-.005898989362322.025409965917788-.013168870618756h.139297848574643c.064431919021445.034036891674987.136126795605378.016796887550299.202829687063058.019067859981078.397482488628157.011341014760546.748686990285933.184668831312592,1.113960443104588.308090643960895.254549699428026.085756904041773.51454834795004.143846717131964.783173922231072.159715829358902.068059935954807.00408498089746.1438397934362-.005442025396405.170606803851115.083942895576911-.021775025288662.146117689562743-.150188823063218.21826260641501-.231867669906933.319902470080706-.6443261139284.804505830947164-1.038637549590931,1.710180714202579-1.149804419546854,2.737934213000699-.098461887002486.911587720009265.078043906210951,1.777340569622538.424713386706571,2.614969364316494.225511716580513.545407262961817.524989282177557,1.049978564351477.867573781775718,1.530953908291849.052176976329065.07351580874456.161079797555431.07760078964202.180590774110897.176512716909201"/>
      <path class="cls-10" d="M14.637650194572416,12.136800819398559l-.013161946928449.002727936394876-.013155023221771-.002727936394876c-.019967940519564-.007256033864905-.019967940519564-.015425995656187-.000907004232431-.023595957451107h.02768093834311c.019054012591369.00816996179492.019054012591369.016339923586202-.00045696396046.023595957451107"/>
      <path class="cls-18" d="M14.637650194572416,12.136800819398559c.00045696396046-.007712997829003.00045696396046-.015882959622104.00045696396046-.023595957451107h.027674014650984c.00816996179492.004998908827474.01044093422388.010440934225699.00816996179492.015882959622104-.002721012700931.004985061434127-.004991985129891.007712997829003-.007712997830822.007712997829003h-.028587942575541"/>
      <path class="cls-4" d="M14.666238137147957,12.136939293326577c0-.008169961791282,0-.015882959622104-.000456963964098-.024052921415205h.028137902314484c-.009076966027351.008169961793101-.018603972323035.015882959623923-.027680938350386.024052921415205"/>
      <path class="cls-17" d="M14.582018293715009,12.136579261112274c-.017696968086966.002270972430779-.024953001953691-.007712997827184-.027223974379012-.023595957451107h.02768093834311c.009070042327949.005442025398224.01179105502888.010884050796449.008620002063253.015882959623923-.003177976661391.004985061432308-.00589898936596.007712997827184-.009076966027351.007712997827184"/>
      <path class="cls-6" d="M14.27646172265122,12.113066388019433c-.002721012700931.015425995656187-.009983970259782.025409965915969-.02722397438265.023595957451107-.019510976551828-.007256033863086-.019510976551828-.015425995658006-.000456963964098-.023595957451107h.027680938346748Z"/>
      <path class="cls-18" d="M14.248649234070399,12.113066388019433c0,.007712997829003.000456963964098.015882959620285.000456963964098.023595957451107-.009533929987811.000456963964098-.019517900247592.000456963964098-.029044906543277.000456963964098-.007256033863086-.005455872789753-.009527006292046-.010897898187977-.006805993594753-.016339923586202.00227097242896-.004985061434127.004991985126253-.007712997829003.007712997827184-.007712997829003h.027680938346748Z"/>
      <path class="cls-8" d="M14.220788279619228,12.113066388019433c0,.008169961793101-.000456963967736.016339923588021-.000907004236069.024052921415205-.009076966027351-.007712997827184-.018153932047426-.015882959622104-.026773934114317-.024052921415205h.027680938350386Z"/>
      <path class="cls-1" d="M14.582018293715009,12.136579261112274c.000456963964098-.007712997827184.000456963964098-.015425995656187.000456963964098-.023595957451107h.027674014650984c0,.00816996179492.000456963964098.015882959623923.000907004232431.023595957451107h-.029037982847512"/>
      <path class="cls-23" d="M22.26257860439182,14.673130839608348c.268168610316934.061260866055818.398846456831961.158815748824054.378428476040426.318074614220677-.024502961678081.189667740136429-.012248018989339.384791353064429-.073051921084698.5699171483393-.169706723314448.674271101011982-.594870150289353,1.219678363973799-.916579705139156,1.817276450663485-.365723493083351.680170090368847-.701501999086759,1.369867187037016-.823102879570797,2.143521026671806-.082585851076146.526353250374086-.110716829694866,1.059048606681245-.180597697810299,1.587215865520193-.126142825349234.960593643378161-.25228565069483,1.921187286756322-.642055141499441,2.821890955970957-.205550699753076.475976435114717-.472812305841217.913401728477766-.816753849940142,1.302264215048126-.212806733623438.240487671968367-.542686250260886.306733599458312-.837171830728039.168785871688669-.279052661109745-.130220882547292-.421078446081083-.416086460951192-.391133459004777-.732804030671105.058989893630496-.618009143778181.108445857262268-1.23647525152046.154730767932051-1.855384475835308.030851991312375-.406559454659146.057625925426692-.814032837242848.052633940296801-1.221963183794287-.004991985129891-.387491594676248-.097104842501722-.752315007222933-.315353601519746-1.078559583234892-.158815748825873-.237773582968657-.369358433712478-.401117429260921-.657488060853211-.449209424697983-.119336831747205-.011797978724644-.189217699869914-.083942895575092-.257277635821083-.179240653307716-.573995205544634-.804491983555636-1.009142602782958-1.674343661457897-1.203345364083361-2.647635364095549-.210542684886605-1.054063545250756-.093476825564721-2.07727509918368.347119520763954-3.062821744513712.250014678262232-.559476214119059.590328205427795-1.055877553713799,1.004150617649429-1.503729933909199.257277635821083-.030851991316013.514555271645804-.060346938125804.764569949915312-.130677846513208.112980878424423-.031308955278291.226418720812944-.065345846951459.332600529338379-.113894806352619.08122188287598-.037207944640613.159715829358902-.025409965915969.205093735792616.026310046452636.164714738188195.1869536511349.422899378245347.283151489400552.515919239845971.538608193064647.020417980787897.054447948763482.078493946482922.036294016710599.122964848687843.040378997608059.141568820999964.012254942688742.285858654704498-.026767010420372.425163426974905.023152840878538-.061253942356416.093469901868957-.157901820897678.060346938125804-.240944635934284.061703982624749-.256820671856985.005898989362322-.256820671856985.003171052969265-.256820671856985.260912576453848,0,.134762827408849-.004991985133529.269068690853601.000907004232431.403374554298352.007712997827184.170156763582781-.072601880820002.279966589039759-.215534670020133.357110414717681-.285408614439802.153816839998399-.566275284014409.315360525217329-.853047866650741.466449428819033-.202372723098961.107095736455449-.300841533793573.264083629421293-.29584954866732.491416278162433.002727936396695.129777765976542-.004078057198058.259541684559736.001820932164264.389319450536277.006799069895351.154273803960677.056261957230163.288579667405429.194652801568736.378421552344662.135219791376585.087584759901802.199201670126058.214177625519369.193302680767374.377078355237245-.002270972432598.059889974161706-.004084980893822.120693876253426.009076966027351.180140733844382.013155023225409.059433010195789.046277986970381.100725935735682.112523914460326.103896988701308.068516899918905.002727936396695.11480181058505-.028581018883415.137940804066602-.093469901868957.075779857485031-.214620742091938-.018603972315759-.573088201310384-.202372723091685-.711022081688498-.132948818943987-.099368891233098-.167428827189724-.220519731450622-.181047738074994-.380249408202872-.024953001957329-.296749629200349.066252851182071-.487774413839361.353018510122638-.611196226487664.244572652867646-.10526788059542.475990282506245-.247300589262522.707857952416816-.383420461172136.068516899918905-.040392845001406.12840687408243-.089841884939233.186489763473219-.143389753166048.074415889281227-.068516899918905.153823763692344-.0712448363156.242758644399146-.024052921413386.199194746433932.106638772489532.32715158024439.25002852565558.304919590995269.495958223022171-.011347938456311.128863838046527-.002270972432598.259541684559736-.000907004236069.389319450534458.001357044504402.107981969598768.05308398057241.156544776395094.161986801795138.163800810258181.152459795492177.009983970259782.27361063571152-.027680938346748.385691433602915-.14293278920195.206000740021409-.21234976965934.40428848222291-.434240393004075.636156152129843-.620737080176696.041292925539892-.049449039936007.078043906214589-.102539944198725.127956833814096-.144746797664993.142482748935436-.121593956791912.296756552899751-.121593956791912.434697356973629.004084980893822.047641955163272.043563897968852.101182899696141.084399859544646.135219791369309.137947727771461.085756904041773.13657683587553.211442765426909.157001740355554.3584605355245.156544776391456.124778857149067,0,.26045561248975-.04402086193295.371622482445673.056261957230163"/>
      <path class="cls-20" d="M20.869925532389971,14.505466606740811c-.227782689013111.224147748383984-.45556537802986.4478523801954-.68380503100343.672000128577565-.100275895467348.098011846732334-.36481648885092.15110275099687-.491866318428947.095297757730805-.07667993801806-.03357992770907-.105724844561337-.09665480222975-.104360876364808-.179240653305897.002270972432598-.162443765755597.001363968196529-.324430567547097,0-.486874333302694-.001363968196529-.169699799618684-.181954742311063-.387948558640346-.343941544102563-.420171441848652-.033122963737696-.006799069898989-.054454872457427.007712997830822-.072151840544393.029037982847512-.174234820788115.205093735796254-.430605452376767.28359460597494-.65022510329436.41791431681122-.14610384216212.089384920975135-.299020601625671.167428827189724-.453294405586348.242301680435048-.109809825458797.053534020835286-.161536761526804.129763918583194-.148374814605631.253185731231497.006349029634293.059446857590956.008163038099156.121607804183441-.00045696396046.18059769780848-.024045997717622.168342755119738.03130895528011.284051569937219.179683769878466.380235560811343.132948818943987.085770751436939.187403691405052.240501519363534.20464369552792.396132367826795.011797978724644.109809825456978.009076966023713.222333739917303.002270972425322.333057493302476-.007262957558851.115251850857021-.078957834139146.171056844123086-.19375272103207.175598788982825-.122057844451774.004541944863377-.176962757177535-.065345846951459-.190574744370679-.175155672410256-.006805993594753-.054904912727579-.005898989362322-.11162383392184-.00227097242896-.166514899257891.010434010528115-.153373723427649-.041292925539892-.270439582747713-.180140733842563-.346212516531523-.124328816884372-.068516899918905-.186032799512759-.188767659601581-.199194746433932-.318988542148873-.021781948984426-.215991633982412-.021324985020328-.434697356968172.001363968200167-.651589071487251.01724000411923-.166071782687141.121150840215705-.278152580576716.259998648522014-.355739522823569.299020601629309-.16744267458489.598948207491048-.333057493306114.902053790021455-.492330206096085.132948818940349-.069873944419669.201922682823351-.158801901428888.191938712567207-.317617650252942-.011797978724644-.198294665895446-.000456963964098-.398389492864226-.003628016933362-.597598086689686-.001363968200167-.08212888711023.029037982847512-.117522823284162.113437842392159-.115694967425952.148374814598355.002714089001529.296749629196711-.001370891894112.444674403530371-.002270972430779.176505793213437.020411057090314.299020601629309.106167961133906.373893454874633.272696707785144.077136901982158.171527655478712.187396767709288.324430567545278.315353601519746.463735339815685.135219791372947.146560806135312.299477565593406.20373669129367.495494335365947.167442674583071.034943895905599-.006812917292336.06307487452068.006799069898989.091662817099859.022225065555176.005442025398224.017696968088785.006805993598391-.006799069898989.006805993598391.011341014760546.001357044497126.169713647012031-.004541944865196.34077049113148.145653801897424.464649267745699.010890974492213.00861307836567.003628016937.034480008245737-.010890974488575.04854895940116"/>
      <path class="cls-2" d="M20.869925532389971,14.505466606740811c-.004991985129891-.012711906654658-.00635595332642-.029037982847512-.015425995661644-.037207944642432-.212813657315564-.195109765534653-.221433659378818-.226875684777042-.126142825345596-.487331297264973.258634680329124-.001357044502583.517276284350373-.000900080534848.776367928639957-.004084980895641.255006663392123-.002714089003348.438325373899715.132505702369599.57762322247072.323987450974528.079864838378853.10979597806363.140661816774809.238216699537588.180140733849839.37252256298234-.161079797562707,0-.322616559082235-.002270972430779-.484153320609039.000913927930014-.10436087636117.001814008463043-.186039723204885-.028137902312665-.246843625292968-.11979379571676-.037657984910766-.057175885160177-.091198929443635-.103910836096475-.139754812542378-.152916759459913-.160622833591333-.162900729721514-.272703631479089-.162443765757416-.430155412108434.000913927928195-.031758995544806.033122963743153-.061253942352778.068516899918905-.091655893400457.102996908164641"/>
      <path class="cls-16" d="M22.565684186922226,17.665538591378208h-.03947891707503c-.004078057198058-.004985061432308-.008620002059615-.004985061432308-.013155023225409,0h-.117979787253716c-.120693876247969-.009070042329768-.208271712457645-.077143825677922-.288579667405429-.160629757288916-.070787872347864-.074415889283046-.146567729829258-.143832869740436-.216441674248927-.219162686949858-.037207944642432-.040378997608059-.071237912623474-.040378997608059-.114344846620952-.014969031693909-.249107674033439.144746797668631-.518183288582804.240487671970186-.795878905191785.310818580355772-.153823763695982.039021953105475-.311275544321688.061703982626568-.471448337648326.065788963524028-.215984710284829.004998908825655-.431519380301324.009083889723115-.64659708635736-.008613078363851-.186946727437316-.015882959622104-.367994465515949-.062174793985832-.547221271426679-.118893715181912-.137490763805545-.043550050573685-.269075614553003-.100725935732044-.401574393225019-.155173884497344-.063067950824916-.025866929881886-.121150840219343-.059903821555054-.180140733842563-.093026785300026-.042193006072921-.023595957449288-.0725949571206-.021324985020328-.109802901763032.013611987189506-.096197838265653.088941804404385-.196473733733001.174241744483879-.282237561470538.273167519146227-.064881959289778.074415889281227-.147467810369562.093926865833055-.236402691076364.107081889060282h-.144746797664993c-.176505793217075-.01044093422388-.287222622904665-.10935286149288-.336228546271741-.27133966328438-.044920942473254-.149288742530189-.014975955389673-.286322542367998.094376906105026-.406559454655508.067609895682835-.074872853248962.142482748935436-.141575744703005.209635680650536-.215991633984231.05943993389883-.065788963524028.061710906331427-.072601880816364-.001363968192891-.139761736234504-.084392935848882-.089384920975135-.158808825130109-.186025875813357-.230953741978738-.284951650475705-.254106582859094-.349383569497149-.425170350674307-.736432047600829-.517733248310833-1.156603489447662-.072144916852267-.328072431871988-.0930198616079-.66203000571295-.055354952997732-.995987579553912.030851991312375-.277238652644883.092562897636526-.548135199358512.197830778233765-.809947856347208.081221882879618-.201465718862892.178783689341799-.392947467466001.290400599566055-.577630146170122.039478917071392-.064888882987361.088484840438468-.12432189318497.135219791376585-.184668831312592.101189823391906-.130677846511389.204643695524283-.259998648522014.32533757177589-.373893454876452.270439582749532-.255013587089707.57763014617376-.45420833352.916129664870823-.608939101448414.197830778237403-.090298848903331.402931437729421-.155173884500982.613924162887997-.201922682828808.258634680321848-.057619001732746.52271830974496-.078487022785339.7863518988961-.068960016489655.210535761194478.007712997827184.419264437612583.045377906433714.626172181877337.093012937904859.28178059750644.06488888298918.539515197295259.182868670239259.790436879789922.321716478545568.20464369552792.112980878422604.389769490804611.251828686728913.564011235284852.409273543658855.172427736015379.155644695856608.328065508176223.325344495477111.461464367384906.514555271647623.106631848797406.151102750995051.200558714630461.309918499819105.278609544540814.479618299439608.096647878533986.211449689120855.172420812319615.429255331569948.222333739915484.655217088420613.034486931945139.155187731890692.063981878756749.311732508283967.065338923253876.472362265572883.001363968203805.130677846511389.012254942696018.260441765094583.002270972436236.392033539537806-.019510976551828.255913667626373-.058082889390789.507299237784537-.138390844342211.750957962722168-.093926865836693.284951650472067-.214170701819967.558119169614656-.384784429366846.807219919950512-.093926865840331.136590683267059-.191938712570845.270439582747713-.311275544321688.387062325497027-.046277986970381.045364059040367-.040835961572157.061247018662471,0,.108895897526963.073058844776824.084399859541008.163350769988028.150188823066856.235952650808031.235488763144531.162443765751959.190581668066443.124328816877096.397946376291657-.007712997830822.56764617591034-.055811916961829.072144916852267-.14156882100724.088027876474371-.225968680544611.102096827629794"/>
      <path class="cls-16" d="M22.067060340768876,10.945606542560199c.077593865942617.024496037987774.158815748822235.033579927707251.237766659269255.056261957230163.118879867786745.034036891674987.229596697477973.083499779006161.334864578075212.144746797666812.211906653086771.122964848684205.379792444240593.28995055930136.510470290751982.499586239959172.174698708444339.279966589039759.240037631701853.58261520760243.20918564038584.905688730646943-.011797978724644.129320802010625-.040385921303823.259541684557917-.101646787359641.398389492864226-.486874333302694-.883449817702058-1.212872370379046-1.451095993612398-2.189348973373853-1.722435656894959.09256982133229-.059903821555054.16516477845289-.117979787250079.254099659159692-.152916759459913.140211776502838-.055361876695315.281780597510078-.104367800060572.432883348497853-.118879867788564.00771299783446-.000913927930014.015425995658006-.006812917292336.023138993488828-.01044093422388h.065338923257514c.00454194485792.004985061432308.009076966023713.004985061432308.013161946924811,0h.105267880597239c.003177976661391.003628016931543.007262957558851.005442025396405.011797978721006.00635595332642h.028587942579179c.004535021169431-.000913927930014.008620002063253-.002727936394876.011797978728282-.00635595332642h.052633940296801Z"/>
      <path class="cls-16" d="M18.747140976536684,10.945606542560199c.08303589134448.035850900139849.174691784748575.034480008247556.259548608257319.063974955059166.13794080407024.047648878864493.271339663282561.102096827627975.39022645476507.186953651133081.011341014760546.00816996179492.029944987083582.016783040158771.024496037989593.034480008247556-.004985061434127.017240004121049-.024045997721259.014525915119521-.039021953107294.018153932052883-.191024784639012.047191914898576-.372979526950076.120693876251607-.552663296828541.199651710394392-.142932789203769.063061027129152-.280423553002038.137033799841447-.408380386819772.22279070388322-.162893806023931.109809825456978-.321709554849804.226418720812944-.465549348282366.362538592722558-.187853731669748.177426644841034-.353925514355069.372536410377506-.499122352295672.585800107965042-.054454872461065.080314878645368-.112080797887756.157444856929942-.152916759459913.246386661332508-.010434010528115.022682029521093-.02768093834311.052633940296801-.051276895796036.051720012368605-.02540996591415-.001357044500764-.024045997717622-.035837052746501-.031758995548444-.058532929662761-.076229897746089-.22097669541472-.092562897640164-.446938452263566-.057625925426692-.677442153973971.03539393617757-.234588682606045.124328816880734-.44376739929794.264533669687808-.63706315636955.119336831750843-.164257774220459.266354601852072-.290864487227736.435604361202422-.394775323322392.154730767924775-.09482694637336.320345586649637-.161529837827402.502300328957062-.18285482284773.026773934114317-.003184900358974.056718921197898-.00227097242896.079864838378853-.021781948982607h.026316970150219c.005442025394586.00635595332642.013155023225409.00635595332642.020868021052593.00635595332642h.044920942469616c.004991985129891-.000456963962279.009076966023713-.002727936394876.012704982957075-.00635595332642h.196930697697098Z"/>
      <path class="cls-14" d="M18.104171907109048,17.665538591378208c.188303771941719-.048091995437062.282230637778412-.215991633982412.418357433387428-.3303295569076.006355953322782-.005442025398224.011797978724644-.012254942690561.017246927814995-.01905401258955.07667993801806-.098011846732334.153366799731884-.118436751215995.269068690853601-.04174988950399.172427736011741.11343784239034.371622482449311.177412797449506.568096216182312.236859655038643.198294665893627.060346938127623.402481397453812.097554882770055.610296145947359.116151931391869.137490763801907.011797978726463.274974603911687.012254942690561.412008403753134.009083889723115.16607178268896-.00408498089746.331693525105948-.029951910777527.494137290861545-.066245927489945.328515548444557-.073515808746379.64296214573551-.185139642668219.931098696564732-.363009404080003.025860006186122-.015882959622104.02903798285115.000913927928195.039928957339725.011354862152075.080314878647187.079400950715353.163350769991666.156530928999928.240030708006088.239573744040172.08303589134448.089841884939233.176055752945103.163357693685612.290857563533791.207364708225214h-4.29112703424471Z"/>
      <path class="cls-9" d="M18.497894828577046,10.956642914678014c-.008620002059615-.003628016933362-.017696968083328-.007256033863086-.026316970146581-.010884050798268h.026316970146581c.009076966027351.003628016935181.009076966027351.007256033864905,0,.010884050798268"/>
      <path class="cls-7" d="M18.497894828577046,10.956642914678014v-.010884050798268h.013161946924811c.009070042327949.003628016935181.009070042327949.007256033864905,0,.010884050798268h-.013161946924811"/>
      <path class="cls-13" d="M18.510959843750243,10.956545982928219v-.010884050796449h.013161946924811c.009070042327949.003628016929724.009527006292046.007256033863086,0,.010884050796449h-.013161946924811"/>
      <polygon class="cls-12" points="18.524211798727265 10.956587525106443 18.524211798727265 10.945703474309994 18.537373745648438 10.945703474309994 18.5410017625818 10.953416472140816 18.53691678168434 10.95704448907054 18.530567752053685 10.957944569607207 18.524211798727265 10.956587525106443"/>
      <path class="cls-5" d="M18.537055255614177,10.956906015140703v-.011341014760546h.013161946921173c-.004084980893822.003628016933362-.008626925751742.007712997829003-.013161946921173.011341014760546"/>
      <path class="cls-22" d="M21.857106170076804,10.945606542560199c-.004535021165793.011341014760546-.008620002063253.011341014760546-.013161946924811,0h.013161946924811Z"/>
      <path class="cls-5" d="M21.975355981490793,10.956906015140703c-.004535021169431-.003628016931543-.009076966027351-.007712997827184-.013161946924811-.011341014760546h.013161946924811c.009076966020075.003628016933362.009076966020075.007256033864905,0,.011341014760546"/>
      <path class="cls-12" d="M21.975355981490793,10.956906015140703v-.011341014760546h.013161946921173c.009070042327949.003628016933362.009070042327949.007256033864905-.000456963967736.010884050796449l-.006349029630655.001370891894112-.006355953322782-.000913927930014Z"/>
      <path class="cls-13" d="M21.988192514678303,10.956587525106443v-.010884050796449h.013161946924811c.003628016929724.002257125037431.004985061426851.004985061434127.003628016929724.007256033863086-.000907004236069.002270972432598-.002270972432598.003628016933362-.003628016929724.003628016933362h-.013161946924811"/>
      <path class="cls-7" d="M22.001402927473464,10.956642914678014v-.010884050798268h.013161946928449c-.004541944865196.003628016935181-.008626925759017.007256033864905-.013161946928449.010884050798268"/>
      <path class="cls-15" d="M22.513188720547987,17.665538591378208c.004535021165793-.01044093422388.008620002063253-.01044093422388.013161946924811,0h-.013161946924811Z"/>
      <path class="cls-14" d="M20.036160160301733,16.820653762821166c-.243665648631577-.015882959622104-.47553331853851-.079857914679451-.699687990618258-.174241744480241-.229139733513875-.096640954838222-.431062416340865-.233674754679669-.619823152246681-.397489412327559-.229139733510237-.198737782469834-.403381477990479-.436497518043325-.538601269363426-.702852119891759-.11661581905355-.230503701714042-.187396767709288-.477347327008829-.220519731450622-.734174922563398-.012704982960713-.095740874303374-.013161946924811-.095740874303374.083035891340842-.095740874303374.058982969927456-.000456963962279.11842982752205,0,.177412797449506-.001814008464862.11480181058505-.002727936398514.203279727327754-.08621386800769.201465718859254-.187853731671566-.002264048729558-.112523914462145-.093019861600624-.206007663724449-.206000740025047-.208721752729616-.067609895690111-.001814008464862-.135669831644918-.001370891892293-.203279727327754,0-.042656893740059.000443116574388-.06307487452068.000443116574388-.055811916961829-.059903821551416.037207944638794-.311718660894257.13158485074382-.602583148121994.284501610207371-.876636900407902.161986801787862-.290407523265458.37887851630876-.532252239738227.643869149960665-.72918986113109.20691466795688-.154273803962496.432883348505129-.273610635715158.683805030999793-.344841624637411.142932789200131-.040835961572157.285408614439802-.077143825677922.43379035273756-.090298848903331.05172693606437-.004541944861558.058982969927456.013611987191325.05762592543033.05671892119426-.002270972432598.072144916850448-.002270972432598.144289833700896.000450040264695.216434750553162.004541944861558.120707723646774.115251850853383.209178716693714.231867669906933.1887676596034.101189823395543-.018153932052883.160629757290735-.097554882768236.162900729719695-.220076614879872.001357044500764-.070330908385586.000907004232431-.140204852807074,0-.210078797226743-.000456963964098-.029951910779346.003628016929724-.036307864105765.039928957343363-.033122963744972.231410705942835.021768101589259.456922422523348.073958925317129.667922071374051.167428827186086.371622482449311.164257774224097.687883088201488.404288482230186.935633717734163.730990022206242.197837701929529.26091257645021.332600529338379.551306252324139.412915407981927.867123741505566.024502961685357.097554882768236.050362967864203.197380737967251.047641955170548.302191654596754-.000907004236069.038578836534725-.016332999894075.033122963744972-.036300940406363.033579927710889-.069873944423307.000913927926376-.139754812542378-.000900080538486-.209635680661449.000913927926376-.112073874188354.002714089005167-.201915759127587.076673014322296-.214163778124203.173784780519782-.016339923582564.129320802010625.081214959180215.232317710175266.213256773891771.22733264874114.06307487452068-.002727936394876.126599789313332,0,.190124704102345-.003641864324891.05535495300137-.002714089001529.073508885052433.029951910779346.063524914792652.073515808748198-.036300940406363.161529837823764-.059439933895192.326244576011959-.118429827518412.482332388439318-.061710906324151.162900729719695-.12251480841951.32624457601014-.222333739919122.469634329178007-.069423904151336.100282819164931-.124328816884372.211906653086771-.221433659378818.291307603802125-.025409965921426.020881868447759-.029494946815248.055361876693496-.054447948765301.078957834144603-.139304772270407.13067784650957-.2858655784039.249557714299954-.444681327226135.356196486789486-.211442765430547.141118780735269-.439232378135785.240030708006088-.685619039468293.297206593164447-.094833870065486.021781948984426-.191024784639012.03810802517728-.286315618672234.056261957230163-.05172693606437.009983970257963-.082578927380382-.001357044500764-.07667993801806-.06488888298918.004991985133529-.056261957228344-.00454194485792-.114337922925188.002264048736834-.170156763582781.014518991425575-.110709905995463-.076229897749727-.2164347505568-.185582759240788-.230046737746306-.090748889171664-.010897898187977-.203279727331392.059889974163525-.2146207420883.180140733842563-.007262957562489.07577293378381-.000907004239707.151088903603522-.003634940629127.226875684778861-.000907004236069.020411057090314.008620002063253.044463978505519-.016332999894075.058075965696844"/>
      <path class="cls-11" d="M20.036160160301733,16.820653762821166c.023138993488828-.061703982628387.00589898936596-.125692785079082.011341014764184-.188310695637483.002727936396695-.032209035813139-.007256033866724-.065331999558111.008626925759017-.096640954838222.000907004232431.07985791468127.002264048733196.159715829360721.0018140084685.239573744040172,0,.017240004124687.009070042324311.041749889502171-.021781948991702.045377906435533"/>
      <path class="cls-16" d="M21.456985753104163,14.214851372582416c.094376906105026.028581018883415.176962757177535.070787872349683.22506167631218.165614818723043.048098919134645.09438382980079.046284910666145.186953651136719.001357044504402.27769561660898-.046277986974019.093483749264124-.124778857152705.151559714962787-.230503701714042.153830687393565-.22914665720964.004985061432308-.458286390723515.004985061432308-.687433047929517.00452809746821-.046284910669783,0-.075772933785629.012711906652839-.109352861494699.050376815259369-.256370631588652.288579667407248-.720105971406156.222333739917303-.878914796536264-.11979379571676-.058082889394427-.125235821114984-.061710906320513-.248200669799189-.032672923476639-.377064507843897.006805993598391-.029494946813429.001363968196529-.050819931831938-.017240004122868-.076686861713824-.212356693351467-.297206593164447-.420178365544416-.59714112272377-.634349067368021-.892990671387452-.102089903928572-.140204852805255-.039021953100018-.384777505672901.138847808309947-.443310435332023.1438397934362-.047191914900395.271803550942423-.007256033864905.372079446413409.129320802010625.182404782575759.24820066979737.350297497425345.505928345890425.539058233327523.749143954255487.01587603592634.020424904483662.025860006186122.044920942469616.038564989143197.067602971990709.029951910775708.05219082372605.063524914789014.083499779004342.134312787140516.088027876472552.14156882100724.009540853689032.253649618894997.088941804402566.348026525000023.191938712569026.012254942685104.012711906652839.019967940515926.028594866274943.038571912835323.032679847172403.180133810146799.010427086830532.360274543993.002714089001529.540415277831926.004071133502293.071237912619836.000456963964098.142932789203769.007269881258253.214170701823605-.004985061432308"/>
      <path class="cls-12" d="M21.456985753104163,14.214851372582416c-.016789963858173.013155023227228-.037207944642432.011797978726463-.05671892119426.011797978726463h-.655674052384711c-.014518991425575,0-.03130895528011.004084980893822-.042193006076559-.010884050796449.251378646462399-.000456963964098.503207333193131-.000456963964098.754585979655531-.000913927930014"/>
      <path class="cls-19" d="M32.398974040528628,14.256047366368875c-.210085720922507-.230960665674502-.404745446190645-.475533318540329-.75277197118703-.513641343717609-.454658373793791-.049462887331174-.755499907583726.188296848242317-1.007328594314458.515455352186109-.275881608147756.358924423184362-.538601269367064.727818969235159-.845341792522959,1.143905430184532-.154723844229011-.519083369114014-.273610635715158-.968749757774276-.422442414277612-1.408889140142492-.369351510013075-1.09127148988955-.875736819871236-2.112212071393515-1.517798885062803-3.074619723236538-.528167258842586-.791807771687672-1.128479434533801-1.516441840563857-1.821811471829278-2.15713301386495-.738703020033427-.682898026765542-1.523697874425125-1.303178142976321-2.415767694186798-1.798679402034395-.634349067368021-.351654541929747-1.271412223733932-.683798107304028-1.947047292942443-.935183677462192-.848969809452683-.316260605753996-1.718814563660999-.554020341329306-2.620868353675178-.684255071268126-1.047714515621919-.15154586756762-2.095429031240201-.197837701933167-3.144950631623942-.087570912510273-.568096216182312.059889974163525-1.138006440829486.12840687408243-1.69612561044778.283137642010843-.462371371613699.128406874078792-.930191692332301.231874593604516-1.386207110623218.390233378462653-.888448726524075.30900457189091-1.731062582650338.714193134654124-2.52013549424737,1.216507311006353-.961500647608773.613010234950707-1.853577391069848,1.319047255203259-2.627674347273569,2.165746092228801-1.097627443217789,1.200624351380611-1.986979712128232,2.537382422066003-2.560521415554831,4.06016636856657-.526353250377724,1.397561972775293-.81266886904632,2.517414481548258-.900239781556593,4.347402838862763-.0163364617365.610739262523566.044463978505519,1.267327242836473.074412427435163,1.487846974288914.111623833923659.261355693022779.315357063373085.412001480055551.606664667167934.500486320490381.553577224760375.168342755119738,1.235568247291667-.259098567985347,1.202895323815028-.833543813794677-.055354952994094-.959222751484049.029041444700852-1.904390399206022.182408244429098-2.848201002423593.112984340274124-.695596086030491.338499518704339-1.357169127777524.594866688446928-2.011015324304026.363459444346518-.927927643595467.864852769071149-1.781882514484096,1.452459961805289-2.579132311568173.393854471698432-.534966328739756.866209813579189-1.00958571935189,1.34492110877909-1.474234987097589.548128275666386-.531795275772311,1.182473881181068-.954694654015839,1.817726490931818-1.363068117139846.467820320714964-.300834610094171.989174662259757-.526810214338184,1.515984876601578-.733717958597481,1.05269957704877-.413815488520413,2.138529041538277-.651132107521335,3.259745518513228-.751858043257016,1.329038149160624-.119336831754481,2.624953334576276.024953001950053,3.912248517928674.386591514139582.728725973473047.204636771826699,1.424322059498081.486874333299056,2.082717124580086.829001868933119,1.074481526036834.558576133582392,2.028269175818423,1.299993242617347,2.877238985274744,2.178457998885278.759577964785421.785894934930184,1.368060102267918,1.676614633888676,1.869003386724216,2.633123296369376.345755552567425.660202149852921.608025173522037,1.369424070464447.806769879687636,2.09451510330473.006349029630655.022682029521093-.011797978728282.051733859763772-.029951910782984.12160780418526-.307640603688924-.232774674143002-.598498167222715-.453751369557722-.890255811293173-.673371020475315-.662480045979464-.497758384095505-1.389392010980373-.125692785077263-1.553192821240373.50865628228712-.120700799947372.46690639278313.11661581905355.773196875670692.440589422636549,1.02366851790066,1.138463404786307.880278764732793,2.290081832805299,1.743303677947551,3.432180178224371,2.618597381249856.170156763582781.130677846511389.271339663282561.089841884937414.385234469635179-.068059935954807.422892454549583-.586700188501709.84397782432643-1.175228232859808,1.282753238498117-1.750130442636873.467363356747228-.611653190451761.910680715776834-1.241917276918684,1.414345012930426-1.8254325650596.107081889062101-.12387877661422.121150840219343-.288593514800596.172877776283713-.436511365434853-.022688953216857-.165614818723043-.044920942469616-.331243484837614-.067609895686473-.496858303562476"/>
      <path class="cls-19" d="M18.068417938722632,29.549551168343896c-.047641955170548-.417457352847123-.047641955170548-.409287391052203-.529074263071379-.39294746746782-.341220531401632.010884050796449-.683348067039333.006355953328239-1.024568598433689-.011341014760546-.170613727550517-.008626925757198-.234138642343169.049906003901924-.243665648638853.213706814161924-.028130978611443.479161335471872-.059896897859289.958322670943744-.098918850962946,1.436583925880768-.011797978728282.140204852808893.02949494681161.204636771830337.171970772051282.220062767488344.552670220520667.06080390209172,1.104883477077237.019967940519564,1.657553697601543-.003628016933362.127956833814096-.005442025396405.162900729719695-.082128887108411.152459795495815-.208264788760061-.034029967981041-.403845365655798-.056261957230163-.808133847878707-.085756904041773-1.254172219609245"/>
      <path class="cls-19" d="M10.082349522852383,26.680260586577788c-.035847438291967.029951910777527-.088027876470733.057175885160177-.11661581905355.100282819164931-.258181178207451.393847548002668-.612110154415859.7069371007874-.902057251871156,1.074031485766682-.129317340157286.163343846292264-.118426365668711.282223714079009.059443395744893.409273543658855.398392954713927.284051569939038.787258903128532.580801199137568,1.205162834397925.838085758658053.162897267869994.099825855199015.25409965916333.088484840438468.350297497425345-.076686861713824.240941174088221-.413372371947844.491866318432585-.820831907141837.739159983997524-1.230576262158138.041746427654289-.068973863883002.068513438072841-.133405782908085-.01315848507511-.192838793105693-.408830427084467-.299934529559323-.817660854172573-.600312175689396-1.227851787611144-.898432696785676-.020417980787897-.014969031690271-.052633940300439-.013611987189506-.094380367954727-.02313899348519"/>
      <path class="cls-19" d="M7.523465561507692,26.651541093766355c.048098919134645-.029951910777527.109806363609096-.057175885160177.156998278507672-.099368891233098.350750999543379-.31308955278655.697870520310971-.630264086468742,1.048618058001011-.943810603221209.117522823285981-.10526788059542.124782319002406-.193295757067972.017696968090604-.323973603579361-.263176625187043-.322159595116318-.514555271649442-.655674052384711-.758670960549352-.992802679193119-.104817840328906-.144746797668631-.206004201874748-.163814657651528-.349843995310948-.068516899922543-.385234469638817.254556623127428-.773189951974928.505471381928146-1.160241891928308.757757032622976-.127956833814096.083499779006161-.16924975935035.177869761411785-.078043906214589.324430567547097.28540861444344.457836350453363.647957592707826.855325762780922.978287149617245,1.277768177058533.033576465863007.042649970040657.068063397804508.092112857371831.145200299786666.068516899920724"/>
      <path class="cls-19" d="M25.442244649939312,25.4058019364129c.026773934114317.039935881039128.042199929772323.076229897749727.068516899918905.099825855199015.386141473871248.342584499598161.756856952088128.701952039355092,1.167958351601555,1.015955520071657.127956833817734.097554882768236.194659725268139.074402041889698.290850639841665-.036764828068044.346212516527885-.39930342079424.64886805878632-.829901949473424.951066637080658-1.262328334010817.089841884939233-.128420721473958.073958925317129-.209635680657811-.060353861819749-.290407523265458-.403381477994117-.242301680436867-.801320930590009-.494130367165781-1.204709332283528-.736889011566745-.118879867783107-.07168795288635-.249564637990261-.101182899699779-.340313527165563.043563897967033-.235495686843933.375250499380854-.525439322445891.708751109254081-.794971900955716,1.058148526146397-.02722397438265.034936972209834-.051726936068007.071687952888169-.078043906218227.108895897526963"/>
      <path class="cls-19" d="M20.295971869027198,30.642595124518266c.518183288575528-.102996908164641,1.000522600712429-.294478656767751,1.491481914912583-.459650358918225.165614818724862-.055804993266065.220519731450622-.160172793324818.154730767928413-.320345586651456-.177876685109368-.435154320930451-.358467459220265-.869394713936344-.539515197295259-1.303178142974502-.066245927489945-.158358784859956-.196016769768903-.148831778564272-.327608544212126-.108895897526963-.407009494923841.122507884720108-.812211905078584.252285650693011-1.220135327937896.372079446409771-.101189823395543.029481099420082-.171970772047644.051263048404508-.140661816771171.18285482284773.122514808415872.512284299216844.240030708009726,1.025482526361884.355739522827207,1.539123870083131.034029967977403.149745706494286.130227806243056.129320802010625.225968680548249.098011846730515"/>
      <path class="cls-19" d="M24.168831477936692,26.646639116690494c-.019967940519564.01044093422388-.055811916958191.022682029521093-.084849899805704.044007014541421-.346669480495621.258184640057152-.666565026880562.551320099717486-1.044536538956891.768654930809134-.128413797778194.074415889281227-.20691466795688.183782598167454-.092562897636526.363009404081822.257727676093054.402931437725783.492773322665016.820831907141837.731446986166702,1.235561323592265.053990984801203.093926865836693.122964848684205.109809825456978.205093735796254.064888882987361.510920331016678-.279966589041578.952873721849755-.658388141388059,1.418880034096219-1.002343532878513.080314878643549-.059433010197608.080314878643549-.139747888842976.014975955389673-.217334831093467-.338499518700701-.400674312686533-.676548997136706-.801777894554107-1.015948596374074-1.201538279310626-.029044906546915-.034036891673168-.063981878753111-.068516899920724-.132498778675654-.054904912729398"/>
      <path class="cls-19" d="M14.61137476660042,29.075970332196448c-.009527006299322-.159272712789971-.060346938127623-.215077706056036-.167885791153822-.242758644400965-.428341403643572-.10935286149288-.862131756377494-.203279727329573-1.261428253477789-.406559454657327-.147924774330022-.074872853245324-.222340663611249.019967940519564-.272710555174854.144746797668631-.175598788981006.435597437504839-.348933529228816.872108802937873-.527253330910753,1.306806159907865-.054454872457427.133405782908085-.041292925536254.205550699760352.110259865723492.276781688680785.462828335588711.217805642449093.95423769005356.343941544098925,1.441112023356254.485974252766027.103003831860406.030395027348277.217348678484996.078943986751256.279966589041578-.073958925317129.204186731560185-.496858303562476.247293665564939-1.034552568693471.397939452595892-1.491031874647888"/>
    </g>
    <g>
      <path class="cls-3" d="M25.101017066182976,21.57790634808407c0-.775390625.306640625-1.21484375.71875-1.21484375.4140625,0,.71875.439453125.71875,1.21484375s-.3046875,1.21484375-.71875,1.21484375c-.412109375,0-.71875-.439453125-.71875-1.21484375ZM26.147892066182976,21.57790634808407c0-.533203125-.134765625-.7548828125-.328125-.7548828125-.1923828125,0-.326171875.2216796875-.326171875.7548828125,0,.5341796875.1337890625.755859375.326171875.755859375.193359375,0,.328125-.2216796875.328125-.755859375Z"/>
      <path class="cls-3" d="M26.690860816182976,22.45095322308407c0-.1953125.103515625-.322265625.232421875-.322265625.1298828125,0,.232421875.126953125.232421875.322265625,0,.19140625-.1025390625.3291015625-.232421875.3291015625-.12890625,0-.232421875-.1376953125-.232421875-.3291015625Z"/>
      <path class="cls-3" d="M28.609806128682976,22.30935166058407v.443359375h-1.267578125v-.3525390625l.646484375-.85546875c.1484375-.1982421875.1748046875-.3193359375.1748046875-.43359375,0-.1845703125-.0908203125-.2919921875-.267578125-.2919921875-.14453125,0-.2666015625.0771484375-.34765625.2353515625l-.283203125-.2548828125c.1298828125-.265625.3642578125-.4365234375.666015625-.4365234375.3740234375,0,.623046875.2685546875.623046875.6943359375,0,.228515625-.044921875.4365234375-.2802734375.7421875l-.3857421875.509765625h.7216796875Z"/>
      <path class="cls-3" d="M28.768985816182976,21.57790634808407c0-.775390625.306640625-1.21484375.71875-1.21484375.4140625,0,.71875.439453125.71875,1.21484375s-.3046875,1.21484375-.71875,1.21484375c-.412109375,0-.71875-.439453125-.71875-1.21484375ZM29.815860816182976,21.57790634808407c0-.533203125-.134765625-.7548828125-.328125-.7548828125-.1923828125,0-.326171875.2216796875-.326171875.7548828125,0,.5341796875.1337890625.755859375.326171875.755859375.193359375,0,.328125-.2216796875.328125-.755859375Z"/>
      <path class="cls-3" d="M30.366642066182976,21.02419541058407c0-.396484375.1728515625-.6484375.4169921875-.6484375s.4140625.2490234375.4140625.6484375-.169921875.6474609375-.4140625.6474609375-.4169921875-.2509765625-.4169921875-.6474609375ZM30.958438941182976,21.02419541058407c0-.251953125-.0693359375-.373046875-.1748046875-.373046875-.1025390625,0-.1748046875.125-.1748046875.373046875s.072265625.3720703125.1748046875.3720703125c.10546875,0,.1748046875-.1201171875.1748046875-.3720703125ZM31.782657691182976,20.40310166058407h.28515625l-1.1455078125,2.349609375h-.28515625l1.1455078125-2.349609375ZM31.507267066182976,22.13161728558407c0-.3955078125.1728515625-.6474609375.4140625-.6474609375.2451171875,0,.4169921875.251953125.4169921875.6474609375,0,.396484375-.171875.6484375-.4169921875.6484375-.2412109375,0-.4140625-.251953125-.4140625-.6484375ZM32.096134253682976,22.13161728558407c0-.248046875-.0693359375-.3720703125-.1748046875-.3720703125-.1025390625,0-.1748046875.1201171875-.1748046875.3720703125s.072265625.373046875.1748046875.373046875c.10546875,0,.1748046875-.1240234375.1748046875-.373046875Z"/>
    </g>
    <g>
      <path class="cls-3" d="M2.632267066182976,21.86989853558407c0-.708984375.3876953125-1.2158203125.91015625-1.2158203125.290030654949078,0,.53125.1474609375.689453125.416015625l-.2490234375.322265625c-.1123046875-.1806640625-.25390625-.2744140625-.421875-.2744140625-.3134765625,0-.5361328125.30859375-.5361328125.751953125,0,.4423828125.22265625.751953125.5361328125.751953125.16796875,0,.3095703125-.0947265625.421875-.279296875l.2490234375.322265625c-.158203125.2724609375-.399422470050922.419921875-.6923828125.419921875-.51953125,0-.9072265625-.5068359375-.9072265625-1.21484375Z"/>
      <path class="cls-3" d="M6.036563941182976,20.69411728558407v2.3505859375h-.388671875v-.9638671875h-.76171875v.9638671875h-.3876953125v-2.3505859375h.3876953125v.9267578125h.76171875v-.9267578125h.388671875Z"/>
      <path class="cls-3" d="M7.495548316182976,23.04470322308407l-.404296875-.81640625-.3974609375.81640625h-.4462890625l.62109375-1.1953125-.58984375-1.1552734375h.44140625l.3857421875.7626953125.3779296875-.7626953125h.4189453125l-.583984375,1.134765625.625,1.2158203125h-.4482421875Z"/>
    </g>
    <rect class="cls-3" x="3.277544391676599" y="10.307083092599317" width=".571152228140023" height="2.46794904636433" transform="translate(-8.36852641713922 9.662856258937968) rotate(-63.897029878430871)"/>
    <polygon class="cls-3" points="4.218826538060966 8.107090723853617 6.264400725453015 9.487493588774669 6.001957051776117 9.876624886852369 4.071743601763956 10.057905372017558 5.313508009912766 10.896117014728588 4.997915822510549 11.363736551717011 2.95275497926923 9.982921914299368 3.216845742941587 9.59131683792657 5.145206216711813 9.41292190355307 3.90323592230925 8.574502802941424 4.218826538060966 8.107090723853617"/>
    <polygon class="cls-3" points="5.503108814200459 7.373422146347366 4.954943747452489 7.941979381694182 4.619988822700179 7.618973717666449 6.112660987955678 6.070680832039216 6.447615912707988 6.393689639373406 5.899452417606881 6.962454332619018 7.341240817884682 8.352331108320868 6.944692899878646 8.763298922043759 5.503108814200459 7.373422146347366"/>
    <polygon class="cls-3" points="9.307053729246036 6.136416696694141 9.583299639889447 6.502064389127554 8.058078587409909 7.653396012590747 6.571381838344678 5.683422941667231 8.060139021557916 4.559903250039497 8.336179045953031 4.925962714969501 7.30061993236086 5.707321463114567 7.623213823893821 6.135181379195274 8.538057585970819 5.44487778943585 8.805445672935093 5.799401337792006 7.890807797110028 6.489912385453863 8.235032318043523 6.945581090072665 9.307053729246036 6.136416696694141"/>
    <polygon class="cls-3" points="10.788889362516784 3.090592101667426 11.895105179286475 5.296432231927611 11.476103086884905 5.506552508531968 9.704302603491669 4.718812858302044 10.37606700089782 6.058425099417946 9.871985166293598 6.311187404417069 8.765563463271974 4.105139816258088 9.188068765221033 3.893164991763115 10.956160152816665 4.682762333186474 10.284603213311129 3.343354406668368 10.788889362516784 3.090592101667426"/>
    <path class="cls-3" d="M12.579518222002662,5.038624927990895c-.189930850947349.001031002897435-.34958227836978-.023483605640649-.479359768161885-.073540682325984l.064271086148437-.467415222388809c.123393444406247.044496576294478.261620128680079.068803726935585.414676909515038.072720280626527.153056780834959.003913410389941.299522058388902-.014833239863947.439191518056759-.056032492866507.155734873729671-.045939351690322.263883305768104-.102999704153262.324652754028648-.170979886093846.060772591559726-.06818449653656.079927871009204-.14069731926611.057063495762122-.217327866985215-.016480329859405-.056239950763484-.05232339707436-.096408200868609-.107120572445638-.120718494812536-.055001489969072-.024307150642926-.120096121110691-.037490157208595-.195494494635568-.039963935503692-.075599544818033-.002263177093482-.175716841480607.00041177249841-.300757375884132.007829964080884-.193228174241085.010300599074981-.353495688757903.0111241440718-.481010001456525.002058862495687-.127511169395802-.008857823679136-.246786888814313-.048409986686238-.356789868752458-.118860803617281-.110210437840578-.070450816932862-.188488075551504-.184782123060359-.235046657644489-.34237154468974-.040580022601716-.13760745386935-.039963935501873-.27315604524847.001650233296459-.406642630832721.041403567603993-.133282270982818.127514312698622-.255028625393606.257911032889751-.364619832833341.130604178086287-.109795522039349.304259013773844-.196522354230183.52076647906506-.260177353282415.150997918337453-.044493432993477.303847241273616-.070039044434452.458758570004647-.076426233119491.155118786635285-.006591503281015.296847108798829.008034278682317.424773193992223.043880489200092l-.046555438784708.465764989092349c-.255028625397244-.059534130758038-.492134145533782-.05706349576576-.710700473315228.007619362881087-.153261095434573.045115806695321-.259350664982776.103207162053877-.318061250745814.174277209383945-.058503127856966.071274361931501-.076014460619263.147496280449559-.052119082474746.228452011057016.023895378142697.081370646410505.084048739301579.129161402694081.180249482271392.14378718466287.096203886272633.014625781965151.236693747639947.015245012362357.421680185298101.00247377829146.193023859641471-.0103005990768.353291374163746-.010919829475824.480802543559548-.002062005796688.127514312693165.009272739480366.245963343812036.047586441687599.355762009156024.115774081526979.109386892840121.067980181936946.187460215953251.181073027270031.234015654743416.339074221396004.039963935505511.135136818877072.038521160107848.269654407360576-.004120868292375.40355276543778-.042642028398404.133898358080842-.129777489790285.255644712495268-.261616985377259.365647692433413-.131842638887974.110006123240964-.305909247072123.196525497533003-.5224167123597.260589125779006-.18704530015566.055208947873325-.375536519006346.083225194304759-.565055597457103.083636966803169"/>
    <rect class="cls-3" x="14.243196925826316" y="2.091344883736506" width=".571037297506495" height="2.467995369618375" transform="translate(-.352525888161285 2.494600747752096) rotate(-9.696633435042891)"/>
    <polygon class="cls-3" points="17.774556370433857 1.832369366768035 16.807387639628359 4.34144065120563 16.243774817568919 4.364512484351508 15.079879417933626 1.941756259609974 15.696227409569474 1.916829878569843 16.517958722417461 3.64784288145529 17.207438767180065 1.85544119991755 17.774556370433857 1.832369366768035"/>
    <polygon class="cls-3" points="19.93231656066564 4.133671564140968 19.873194202406012 4.588104951260902 17.978412047110396 4.341525520350842 18.297092528253415 1.89425154375931 20.14635024765812 2.135066159689814 20.08722788940031 2.589499546809748 18.800555132454974 2.421816984009638 18.731547090917957 2.953500149244064 19.867633702020612 3.101203887594238 19.81015843376008 3.541630723149865 18.674071822653787 3.393722670198258 18.600323682430826 3.960221043054844 19.93231656066564 4.133671564140968"/>
    <path class="cls-3" d="M21.683723303805891,4.973448571006884c-.141520864264749-.170772428193231-.230102244353475-.365031605331751-.265326081169405-.582978702715991-.035434438015727-.217947097382421-.010300599073162-.4375412847603.075599544819852-.65878570543282.085695829297038-.221448735275771.21485723198748-.400874672550344.387899123878015-.537862896024308.172831290692557-.137403139273374.36935678822374-.221244420674338.589158433502234-.252146217902919.219801645278494-.030691196023326.44269001264729-.002263177089844.66825961620998.085079742202652.166447245306699.064682858645028.309618342869726.150997918339272.429098376882393.259146350379524.119480034018125.107944117446095.208265728710103.233396424346211.26594531156843.376979294407647l-.14708450794933.067568409440355c-.113712075730291-.252966619600556-.314147840354053-.435070649764384-.601106122572673-.546723863002626-.192816401740856-.074364227320984-.385425345584736-.098674521264911-.57700328653118-.07209790692832-.191785398841603.026366013134975-.362560970337654.099702380863164-.512116113279262.219386729477264-.149966915445475.119480034018125-.261616985379078.274806278546748-.335572583506291.465560674496373-.073952454822575.190550081346373-.095788970473222.380685246895155-.065713861542463.570000010746298.029870794329327.189314763851144.106913114545023.358440102047098.23071833144968.507171699993705.123808360207477.148731597946608.282221326833678.26038166788021.475034585271715.335365125602038.284899419726571.11041475244383.556200917082606.109591207439735.81370017746849-.002266320390845l.063240083249184.149143370445017c-.139462001769061.066952322342331-.290252462211356.100321611262189-.452990611722271.100529069159165-.16253383491312,0-.326098672725493-.031929656823195-.490487055536505-.095377197971175-.225773918164123-.087550377193111-.409525038327047-.216919237784168-.551253360490591-.387691665981038"/>
    <path class="cls-3" d="M25.111594195283033,6.063228064142095l-1.228373943680708-.734388393559129-.62582818901501.435070649768022-.166239787404265-.09949806626355,2.240859652476502-1.535725966152313.154295241636646.092083017982077-.292107010109248,2.701064141183451-.166654703203676-.09949806626355.08404873929976-.759107316695008ZM25.131987935536017,5.898839681327445l.174274066084763-1.55529616140484-1.284818209045625.891154270186234,1.110544142960862.664141891218605Z"/>
    <path class="cls-3" d="M26.748323869129308,8.268489826921723l.093318335480944-1.009395843402672c-.073543825630622-.047790756289032-.13781491177906-.095788970471403-.193023859645109-.143375412159003l-.533949485630728-.460408803308383-.527153667750099.611199263747039-.136164678477144-.117625486120232,1.612356513871418-1.868208684260026.669908277855939.578034289424977c.23463488514426.202705228319246.370799563619585.417355002409749.408497178730613.643543836371464.037493300511414.226393148563147-.029044106029687.438160515159325-.199612219623305.635918186888375-.127306854798007.147703738350174-.272125042354673.239371840534659-.434658877267793.274391362750976-.162326377016143.035226980115112-.331451715215735.012978691969693-.507376014593319-.067565266139354l-.097231745872705,1.057186599688066-.154909757078713-.133694043481228ZM26.75223727951925,6.995826764843514c.199407905023691.172010888989462.389546213875292.259146350383162.570619241145323.26162012867826.180661254769802.002678092892893.341342113439168-.077045463518516.48080411520823-.238960068032611.13987377426929-.161914604514095.195491351336386-.332278403511737.166239787404265-.51087765248667-.028839791433711-.178602392275934-.142963639660593-.354114919162384-.342371544684283-.526122664847207l-.533742027731932-.460616261210816-.875293170725854,1.0145477145943s.533745171036571.460408803304745.533743599384252.460408803304745Z"/>
    <polygon class="cls-3" points="28.454349196594194 10.001728287283186 28.329308662192489 10.104935449337063 27.245748191115126 8.791274305556726 29.149389741745836 7.220736275086892 30.199365607748405 8.493606795063897 30.074123902044448 8.596810813818593 29.138677370172445 7.462786208514444 28.388220419248682 8.0820197509438 29.224992429864869 9.096155693034234 29.102422530457261 9.197300849293242 28.265650519842893 8.182960592605014 27.485120031647966 8.826708743572453 28.454349196594194 10.001728287283186"/>
  </g>
</svg>