<?xml version="1.0" encoding="UTF-8"?>
<svg id="Capa_1" data-name="Capa 1" xmlns="http://www.w3.org/2000/svg" viewBox="0 0 34.015748031497424 34.015746981593111">
  <defs>
    <style>
      .cls-1 {
        fill: #6a8778;
      }

      .cls-2 {
        fill: #1d3a69;
      }

      .cls-3 {
        fill: #32bad9;
      }

      .cls-4 {
        fill: #0ba347;
      }

      .cls-5 {
        fill: #d0d9f0;
      }

      .cls-6 {
        fill: #81cdf1;
      }

      .cls-7 {
        fill: #839da2;
      }

      .cls-8 {
        fill: #a7bbd1;
      }

      .cls-9 {
        fill: #626785;
      }

      .cls-10 {
        fill: #addbf2;
      }

      .cls-11 {
        fill: #43bfef;
      }

      .cls-12 {
        fill: #fff;
      }

      .cls-13 {
        fill: #9e8cc2;
      }

      .cls-14 {
        fill: #cae3d4;
      }

      .cls-15 {
        fill: #eeeded;
      }

      .cls-16 {
        fill: #d9a4cb;
      }

      .cls-17 {
        fill: #e8475d;
      }

      .cls-18 {
        fill: #6a4695;
      }

      .cls-19 {
        fill: #f29ab1;
      }

      .cls-20 {
        fill: #b5b2b2;
      }

      .cls-21 {
        fill: #ef839f;
      }

      .cls-22 {
        fill: #e13139;
      }

      .cls-23 {
        fill: #e5edf9;
      }

      .cls-24 {
        fill: #9f539a;
      }

      .cls-25 {
        fill: #ee7088;
      }
    </style>
  </defs>
  <g>
    <path class="cls-12" d="M0,17.007872965845308C0,7.614956225137576,7.614956225135757,0,17.007874015749621,0s17.007874015747802,7.614956225137576,17.007874015747802,17.007872965845308-7.614956225133938,17.007874015747802-17.007874015747802,17.007874015747802C7.614955257258771,34.015746981593111,0,26.400791945992751,0,17.007872965845308"/>
    <path class="cls-20" d="M33.138876320537747,13.935862042431836c-.21907934036426-.241097934318532-.421645785168948-.49540786493526-.784944186187204-.535039654208958-.473389270984626-.051741386003414-.787146885508264.195960446657409-1.049163114028488.537242353530019-.28733572173951.373205298430548-.561461546993087.757421993646858-.880722760099161,1.191177375549159-.160731956213567-.540543252791394-.285135122230713-1.009529224946164-.440361380053218-1.467505900120159-.38421669521631-1.137233290231961-.911550051521772-2.200706600498961-1.580899769160169-3.203631927106471-.550452250015951-.824575975460903-1.17576687955443-1.579797369598964-1.897958282952459-2.248046787484782-.769533690192475-.711184206229518-1.588606067067303-1.357415030157426-2.517769313908502-1.873739089485753-.660543119978684-.366601400091895-1.324389239034645-.712286605794361-2.028967447113246-.97430073450596-.884025759176438-.329170210330631-1.790070112307149-.576874142800079-2.730242656125483-.713384805738315-1.090997602615971-.157431056948553-2.183094455085666-.205869443878328-3.276292657214071-.090274975329521-.59228568870094.06165038322797-1.186775126625434.133207663864596-1.768052568255371.295042019643006-.481095568884484.133209763676859-.96879503611126.24109793432217-1.443284606848465.406233189365594-.926962647332402.321463912427134-1.804382408357924.744212097160926-2.626759884118655,1.267142154636531-1.001822927042667.638524526024412-1.930986173883866,1.373927925720636-2.737948954025342,2.256853385140857-1.142738988623023,1.250627159268333-2.069699536143162,2.643272779678227-2.667491973141296,4.230776447180688-.548249550698529,1.455396303390444-.846594569415174,2.622354485476535-.937969844500913,4.529121465893695-.016512895559572.63632182670699.046237787420978,1.3199838403998.077062979034963,1.550072477741196.11669686811365.27302552549736.329170210330631.429353132978576.633020927441976.521829757723026.575771743235236.175043202361849,1.286955949464755-.26972252642372,1.252829858585756-.868614213275578-.057247084398114-.999621277627739.030825191613985-1.983829959452123.190454748262709-2.966938341516652.11669686811365-.725494402471668.352291203849745-1.41466211455554.61980893114378-2.09612142892729.378713096633874-.966594436602463.900540754548274-1.856123794361338,1.512643387788557-2.687307867778145.410638588004076-.55705824816323.902741354057071-1.051363713537285,1.401452218069608-1.535762281499046.57136844440538-.553753149280965,1.231911564387701-.995216928895388,1.893554984122602-1.420165713137976.487701567035401-.313757614527276,1.031547818900435-.549351950263372,1.579797369598964-.765130391362618,1.09760360076325-.430452382828662,2.228230892844294-.678156315298111,3.396291474495229-.782741486869782,1.384939322506398-.124403166017146,2.735746254707919.025319493219286,4.0766504891144.402930190288316.759622593159293.213575741781824,1.484018795683369.506417161916033,2.169881408884976.86310956478701,1.119620094912534.582379841191141,2.113736724051705,1.35521443064863,2.997762483228144,2.270065381435415.791550184338121.819072376874828,1.425671411532676,1.74713532395981,1.947501169255702,2.743454652420041.361095701697195.688065312519029.634121227194555,1.426771711288893.8410909708291,2.183093405183172.006603898338653.023118893710489-.012109596733353.052843785568257-.03192759117519.126603765525942-.320361512865929-.243300633639592-.623109830412432-.473389270980988-.926960547523777-.701277308813587-.690268011836451-.519627058405604-1.447690005486947-.132107364112017-1.618330958921433.529536055622884-.126601665717317.486599167470558.121100166939868.805862480388896.459079074738838,1.066776309344277,1.185673776966723.917053650107846,2.38565984998786,1.81539170533506,3.57573692578444,2.728041006710555.177244851773139.13541141308815.282932422909653.093576924497029.401829890532099-.070458030790178.440361380053218-.612102633243921.879622460346582-1.225306616142916,1.336498835767998-1.824198302994773.486599167470558-.637424226268195.948979141478048-1.293561947612034,1.47410979846245-1.901261282026098.111193269531213-.129906764599582.125503465773363-.301648017790285.179447551094199-.455776075665199-.023118893706851-.171741253190703-.047338087173557-.344582806137623-.070456980884046-.517424359084544"/>
    <path class="cls-20" d="M18.207420178847315,29.620936104078282c-.049540786494617-.434857256514078-.049540786494617-.426050133904937-.551552549772168-.409536713388661-.354491803358542.012110121682781-.712285555888229.006605473194213-1.066777359246771-.011008772027708-.178346201435488-.009907947318425-.244400933395809.051742435909546-.254308880714234.222382864394604-.029723841951636.498709551629872-.062751732886682.998520190445561-.103484871815454,1.496128917369788-.012109596733353.146420447588753.030825191613985.213575741781824.179447551094199.230089162294462.575772793141368.062751732886682,1.151545586279099.020917244295561,1.727319429322961-.004403823782923.133209763676859-.005504386012035.169538553873281-.084769276934821.158529256896145-.216877953425865-.035228490443842-.420545485416369-.058347384150693-.842192058014916-.089172575764678-1.306773681433697"/>
    <path class="cls-20" d="M9.886452626198661,26.63131982867344c-.037431189761264.03192601631963-.091375275085738.059448733813042-.121099117041013.104585696524737-.269721476517589.410637538097944-.638524526024412.736505274304363-.940172543814697,1.119620094912534-.134310588382505.169539603775775-.123301816358435.293941719886789.061650383224332.426050133904937.415040836927801.296143369301717.820173726537178.604396335336787,1.256131807756901.873017512101796.169539603775775.104585696524737.264216828029021.092475574838318.365500050433184-.080365978108603.249905581884377-.430453957684222.511920760498469-.855403266879875.769532640286343-1.281453400784812.044036138006049-.071558330542757.071558330542757-.138713887212361-.013210946392064-.201465095145977-.427150433661154-.312657314767421-.853200567562453-.625314104585414-1.280352051126101-.935769244988478-.020917244295561-.015412595803355-.053944085324474-.014311771097709-.097980223326886-.024219718416134"/>
    <path class="cls-20" d="M7.220392197630645,26.60137498185577c.050641611200263-.030825191613985.114494168796227-.059448733813042.164034955287207-.103484871815454.365500050433184-.325867736210057.726596802036511-.657240120908682,1.09209737742276-.983107857115101.12219994174302-.110090345013305.129906239646516-.201465620099043.018715069927566-.33797733294341-.275226125006157-.33577620847791-.536140478914604-.682561713936593-.790449359628838-1.033749468315364-.108989520304021-.150824008895142-.214676566487469-.170639903531992-.364399225723901-.072659680205106-.401830415488803.266418477447587-.805862480388896.527333356305462-1.209894545288989.79044883467941-.133209238723794.086971976252244-.17614455202056.184952199582767-.080365978108603.337977857892838.297244718964066.4766917451052.674854891080031.890631757323717,1.019437697217654,1.330993662326364.034128190687625.044036138006049.070458030790178.09687939862124.150824008895142.071558855495823"/>
    <path class="cls-20" d="M25.890412305443533,25.303518925466051c.028622492292925.041834488591121.044037187908543.079265153399319.071559380448889.104585696524737.401829890532099.35669345277347.788247185260843.731000625815796,1.216498968580709,1.057969186731498.133209763673221.101283222404163.203666744557268.077063503984391.30384861730272-.038531489517482.359997501749604-.416141661633446.675955715785676-.864209864539589.990815729874157-1.314480241810088.093575874594535-.134310063429439.077062979031325-.219079340367898-.062752782789175-.302748317546502-.420545485416369-.253208580958017-.835585272438038-.515223759575747-1.256130757854407-.768431290627632-.123302866260929-.074861329620035-.259813529199164-.105686521230382-.354491803358542.045136437758629-.245501233148389.390821643461095-.547149250942311.738707448672358-.827881074343168,1.103107199352962-.028622492292925.036329315149487-.053944085320836.074861329616397-.081466277861182.113392819133878"/>
    <path class="cls-20" d="M20.528456316498705,30.759711703791254c.539442953035177-.106787870889093,1.042557115877571-.30715240380232,1.553375476814836-.478893394520128.173943952508125-.058347909103759.230090737150022-.166236604702135.161834355774772-.333574034109915-.184953249485261-.453572851394711-.373207398239174-.90604435313071-.562561846745666-1.357415555110492-.068256381375249-.166236604702135-.203668844369531-.155227307724999-.341281906872609-.114494168796227-.423848484490009.128806464847003-.845494269658957.263116528276441-1.270443053905183.388619469096739-.105687571132876.030825716563413-.179447551094199.052843260615191-.146419660162792.190456323118269.12660376552958.53283800479403.249904531981883,1.067877659002988.369902299360547,1.602917313211947.03523059024883.156328394910815.135412462990644.134310325905972.235594335736096.102384047109808"/>
    <path class="cls-20" d="M24.563711177035657,26.596311293193139c-.020916194389429.011009296977136-.058347384150693.023118893710489-.088072276008461.04623778741734-.361095701700833.268621176765009-.694671310666308.573571668679506-1.088794903298549.800357831900328-.134310063429439.077062979034963-.215776341290621.191557147827552-.096878873668174.377610172115965.268620126858877.420545485416369.514121360007266.855402741930448.762925592232932,1.288058349029598.056146784641896.097980748279952.127706165090785.114493643843161.213575741781824.067155031716538.532839054696524-.291739545522432.993016329386592-.685863138154673,1.478515197100933-1.043657415633788.083668977178604-.061650908181036.083668977178604-.145319360406575.015412595806993-.226786163220822-.353389403797337-.417243011295795-.704578208082239-.835586847293598-1.059070011440781-1.251728508927044-.029724891857768-.035229015396908-.066053682057827-.071558855499461-.137613062506716-.057247084398114"/>
    <path class="cls-20" d="M14.605479740383089,29.127510458547476c-.009907947318425-.166236604702135-.062751732886682-.224584513809532-.175044252264343-.253208056004951-.446966328294366-.113393344086944-.898338055227214-.211373567417468-1.314479191907594-.422747134831297-.15412700797242-.078164328693674-.231189987003745.019815894636849-.284033772572002.150824008895142-.182750550167839.453572326445283-.363298401018255.908246002545638-.54935090035724,1.360717766758171-.056146784641896.138713887212361-.042935838249832.214676304010936.115594468552445.288436808921688.482195868640702.226786425697355.994116629139171.358895102188399,1.500532741149073.50641611201354.107889220551442.031926278796163.226786688173888.082567889996426.291740070475498-.077063241511496.213575741781824-.517425146510504.257611879784235-1.07778534384488.415040836924163-1.553376264240796"/>
    <g>
      <rect class="cls-2" x="3.82655430733222" y="9.319591044325572" width=".54878115504723" height="2.371283629013231" transform="translate(-7.137161514161154 9.565748462321991) rotate(-63.897029878408887)"/>
      <polygon class="cls-2" points="4.730968013640449 7.205768680107212 6.696420497206418 8.532103484243635 6.444256301254427 8.905993163216408 4.589646068820002 9.080173196376563 5.782772651587948 9.885553497455476 5.479541679889735 10.334857162901244 3.514486350477455 9.008126714705213 3.768233122678794 8.631860151175715 5.621062956835885 8.460452646631893 4.427738552034498 7.654873013430915 4.730968013640449 7.205768680107212"/>
      <polygon class="cls-2" points="5.964947110951471 6.500836668028569 5.438252748806917 7.047124471790084 5.116417445646221 6.73677039688846 6.550624150266231 5.249121542057765 6.872459453426927 5.559478637147549 6.345766601370997 6.10596577303113 7.731082572589003 7.441403410781277 7.350066770228295 7.836274305773259 5.964947110951471 6.500836668028569"/>
      <polygon class="cls-2" points="9.619897895287068 5.312282643348226 9.885323717775464 5.663608530052443 8.419843011155535 6.769844428359647 6.99137767571483 4.87703189255808 8.421822741558572 3.797518579447569 8.687050742017163 4.149240110211394 7.692052738897473 4.899994349076223 8.00201116973949 5.311095711160306 8.881022038831361 4.647830153122413 9.13793698371046 4.988467609780855 8.259123936652031 5.651932499942632 8.58986576148709 6.089753427044343 9.619897895287068 5.312282643348226"/>
      <polygon class="cls-2" points="11.04369251667049 2.385757879934317 12.106579718627472 4.505198958675464 11.703989234152687 4.707089177101807 10.001587198608831 3.950203965363471 10.647039713307095 5.237345845891468 10.162701917177401 5.480207876109489 9.099616893186976 3.360567465246277 9.505573372376602 3.156895338453978 11.204411591172175 3.915565478742792 10.559158408597796 2.628619910154157 11.04369251667049 2.385757879934317"/>
      <path class="cls-2" d="M12.764185452451784,4.257489533649277c-.182491578649206.000990620246739-.335889727915855-.022563792264918-.460584051492333-.070660217365003l.061753695696098-.449107353508225c.118560330522087.042753720166729.251372907829136.066108800559959.398434711732989.069871949424851.147061803905672.003760128680369.287790282636706-.014252246783144.421989124250103-.053837794270294.149635000401759-.044139984474896.253547440073817-.098965378807407.31193665115461-.16428289124633.058392231261678-.065513824374648.076797230602097-.135186441679252.054828414515214-.208815499603588-.015834823030673-.054037126388721-.050273977527468-.09263205363095-.102924839613479-.115990154208703-.052847174023555-.02335508039323-.115392157838869-.036021730742505-.187837303761626-.038398615299229-.072638437675778-.002174532250137-.168834308049554.000395644061427-.288977214820989.007523277543442-.185659751330604.009897141917463-.339649856594406.010688430040318-.462169647920746.001978220312594-.122516771143637-.008510877609297-.237120661045992-.046513848848917-.342815009093101-.114205225656406-.105893680172812-.067691376809307-.181105314341039-.177544517782735-.225840275004884-.328961426557726-.038990571300019-.1322176011181-.03839861529741-.262456981929063.001585596432051-.390715122248366.039781859428331-.128061828376303.12251979132634-.245039582650861.247809091088129-.350338286636543.125488631880216-.105495015926863.292341699438111-.188824903823843.500368931103367-.24998664352097.145083583591259-.042750699982207.291946055374865-.067295732746061.440789767650131-.073432745983155.149043044402788-.006333325172818.28522010632696.007719589486442.408135541712909.042161764167759l-.044731940472047.447521757076174c-.245039582654499-.057202278889235-.472858077966521-.054828414518852-.682863529937094.007320925240492-.147258115845034.043348696352041-.249192335211774.099164710929472-.305603325979973.167451063922272-.056211658638858.068482664933981-.073037101919908.141719098975955-.050077665588105.219503929642087.022959436331803.07818349491572.080756691408169.124102367575688.173189412917054.138155282240405.092435741695226.01405291465926.227422851252413.014647890842753.405163680972692.002376884551268.185463439389423-.009897141917463.339453544658681-.010492118102775.4619703158005-.001981240493478.122519791322702.008909541855246.23632937291768.045722560724244.341827409030884.111239405283413.1051023920445.065317512435286.180117714275184.173980701041728.224849654752688.325793253876327.038398615302867.129843736747716.037012350992882.259092497313759-.003959460804253.387746281689033s-.124694323576477.245631538657108-.251369887644614.351325886704217c-.126678584252659.105697368231631-.293927295871981.188827924008365-.50195452753178.250382287578759-.179719050034691.053046506151077-.360827384556615.079965403283495-.542923319144393.080361047344923"/>
      <rect class="cls-2" x="14.362700656856713" y="1.425649496535057" width=".548670726054389" height="2.371328137861755" transform="translate(-.230713405101733 2.502644248708681) rotate(-9.696633435197962)"/>
      <polygon class="cls-2" points="17.755742685618316 1.176817615420077 16.826456328904897 3.587612793537119 16.284919274070489 3.609780941744248 15.166611701592046 1.281920007468216 15.758818378020806 1.257969950889674 16.548363856065407 2.92118208300235 17.210838125980445 1.198985763632663 17.755742685618316 1.176817615420077"/>
      <polygon class="cls-2" points="19.828987034794409 3.387981672505703 19.77218039996842 3.824615667417675 17.951613677969362 3.587694338499205 18.257811980132828 1.236275971516079 20.034637381901121 1.467658283572746 19.977830747075132 1.904292278484718 18.741554800075392 1.743177559919786 18.675249687574251 2.254035588935949 19.766837695038703 2.395954020035788 19.711613636463881 2.819130076473812 18.620025628993972 2.677015333432792 18.549166079506904 3.221324916888989 19.828987034794409 3.387981672505703"/>
      <path class="cls-2" d="M21.511794118623584,4.194866025056399c-.135977729802107-.164083559122446-.221089526072319-.350733930699789-.254933704385621-.56014440648687-.03404653061807-.209410475785262-.009897141915644-.420403527818053.072638437675778-.632982176281075.082339267653879-.212774960406023.206441635225929-.385173085200222.372705766965737-.516795710136648.166061779438678-.132021289180557.354889703445224-.212578648464842.566082087601899-.24227007421905.211192384156675-.029489073443983.425350588686342-.00217453224468.64208500989298.081747311656727.159927786382468.062149339757525.297491112618445.145083583594896.412291314454706.248996023268774.114800201843536.103716127739972.200108310058567.224254678571015.255528680572752.362213648868419l-.141323454912708.064921868375677c-.109258164789935-.243058342161021-.301843197297785-.418029663444031-.577561805766891-.525309607926829-.185264107265539-.071451505487858-.37032888241265-.09480960606561-.554403037313023-.069273953056836-.184273487016981.025333300702187-.348360066325768.095797206129646-.492057385608859.210793719910725-.144092963351795.114800201841717-.251369887646433.264042578361114-.322428769259204.447325445138631-.07105586142643.183086554832698-.092037077451096.365774445423085-.063139960002445.54767406807332.02870080550565.181899622648416.102725507489595.344400605521514.221681482073109.48730663668357.118958994768036.142906031163875.271167191665882.250182955458513.456428278748717.322229437133501.273740388160149.106089992115812.534415461721437.105298703985682.781828908742682-.002177552429202l.060763075449358.143301675223483c-.133999509493151.064329912373069-.278883760965982.096392182314958-.435247730603805.096591514435204-.156167657698461,0-.31332593564548-.030679025814607-.471275501715354-.091641433384211-.216930733149638-.084121176027111-.393484630683815-.208422875721226-.529661692609807-.37250643484731"/>
      <path class="cls-2" d="M24.805401066992999,5.241960686556922l-1.180260600292968-.705623634146832-.601315550404252.418029663449488-.159728454258584-.095600894192103,2.153088945115087-1.475574160474935.148251756276295.088476280890973-.280665669337395,2.595267997261544-.160127118502714-.095600894190284.080756691404531-.729374358597852ZM24.824996018707679,5.084011120481591l.167448043741388-1.494377824063122-1.234494038624689.856249254793511,1.067045994883301.638128569269611Z"/>
      <path class="cls-2" d="M26.378022789645911,7.36084605150063l.089663213078893-.969859504264605c-.070663237553163-.045918872665425-.13241693324926-.092037077447458-.185463439393061-.137759638171701l-.513035581452641-.442375364089457-.506505944338642.58725961556047-.130831336813571-.113018293470304,1.549203218399271-1.795034089172987.64366909623277.555393657556124c.225444630939819.194765605123393.356275967751571.401007908229076.392497030621598.618337305621026.036024750928846.217525709333131-.027906497198273.420998504003364-.191793744381357.611010340015127-.122320459204275.141918431099839-.261466361685962.229996047746681-.417634019384423.263643914120621-.155968325580034.033847198494186-.31846930845677.012470338411731-.487502948624751-.064918848192974l-.0934233417629,1.015778376926392-.148842202181186-.128457472437731ZM26.38178291832628,6.13803106315936c.191597432440176.16527351149125.374288343215085.248996023272412.548269044256813.251372907827317.173585056978482.002573196494268.32797231639961-.074027722168466.461971825890942-.229600403681616.134395153556397-.155572681514968.187834283580742-.319263616760509.159728454258584-.490867433245512-.027710185262549-.171606836669525-.137363994112093-.340244832785174-.328961426552269-.505515324088265l-.512836249330576-.442574696213342-.84100940794815.974809585315597.512837759424656.442375364085819Z"/>
      <polygon class="cls-2" points="28.017225971598236 9.026196473658274 27.897083064828621 9.125361184589565 26.855963836740557 7.863153940519624 28.68504294644481 6.354131245792814 29.693893022007614 7.57714556625433 29.573556823477702 7.676307257004737 28.674750160465919 6.586700490035582 27.953687347348023 7.181679695080675 28.757684404301472 8.156093636329388 28.639915361904059 8.253277106769019 27.835918304952429 7.278666853580944 27.085959884487238 7.897200471137694 28.017225971598236 9.026196473658274"/>
    </g>
  </g>
  <g>
    <path class="cls-15" d="M8.670834002410629,18.085328902201582c0-4.710769616500329,3.819038084377098-8.529809275732987,8.529807700877427-8.529809275732987,4.710771716308955,0,8.528706876168144,3.819039659232658,8.528706876168144,8.529809275732987s-3.817935159859189,8.529808225826855-8.528706876168144,8.529808225826855c-4.710769616500329,0-8.529807700877427-3.819038609326526-8.529807700877427-8.529808225826855"/>
    <path class="cls-8" d="M8.670834002410629,18.127162340886571c0-.125503465769725,3.637387833961839-1.12842669256861,8.362470796419075-1.08659325388362,4.723980562892393.041834488591121,8.696043780626496.961089788113895,8.696043780626496,1.08659325388362,0,4.710770666406461-3.817935159859189,8.529808225830493-8.528706876168144,8.529808225830493-4.710769616500329,0-8.529807700877427-3.819037559424032-8.529807700877427-8.529808225830493"/>
    <path class="cls-6" d="M22.432690927633303,9.025435520776227c.215776341290621.06275068298055.439261080293363.092475574838318.652836822075187.171741253190703.356692402870976.133209763673221.685862613201607.309354315693781.997419628216448.528433656061679.181648150602996.128806464843365.34898610496748.26751982710266.488801866787981.44036138004958-.033027890931407.03192759117519-.073762079766311.019817994445475-.112293569283793.020918294198054-.23889523500111.011009296977136-.358895102188399.139813662015513-.355592103114759.378710996825248.001100299756217.044035088099918.018715594880632.091375275085738-.025319493219286.126603765525942-.06495338230161.00220269932106-.103486971624079-.0429347883437-.146421759971417-.081466277861182-.879622460346582-.779440587604768-1.891354384610167-1.015034923340863-3.028587674842129-.739808798331069-.099081572985597.024221293271694-.193759847144975.072659680201468-.300547718034068.064953382297972-.040732089026278-.019815894633211-.078163278787542-.045137487664761-.116694768305024-.068256381371611-.258713229446585-.154125958066288-.312657314771059-.368801999604329-.15963165645735-.629715828559711.237794935244892-.134312163238064.511920760498469-.150825058801274.765128291550354-.236694635492313.073762079766311-.025321593027911.168438254117063.034128190687625.235594335736096-.041834488591121h.069356681131467c.012109596729715.01320989648957.027522192536708.017613195319427.045137487664761.017613195319427h.082566577613761c.017615295128053.001102399561205.033027890935045-.004403298829857.045137487664761-.017613195319427h.275226125009794c.020918294198054.022016494145646.0484404867384.01651289556321.074862379522528.017613195319427h.160731956213567c.026421892784128-.002200599512435.053944085324474.005505698391062.074860279713903-.017613195319427h.069358780936454c.012109596733353.01320989648957.025319493222923.026421892784128.037429089952639.039631789273699.053944085324474.029724891857768.117797167869867-.006605998150917.170640953438124.026421892784128"/>
    <path class="cls-14" d="M22.155482583219055,8.958940878892463c-.012109596733353.029724891861406-.038531489517482.033027890935045-.066053682054189.034128190687625-.012109596733353-.007706297903496-.016514995371836-.014312296050775-.013211996298196-.022018593954272s.007706297903496-.012109596733353.011009296977136-.012109596733353h.068256381375249Z"/>
    <path class="cls-13" d="M22.086455572052728,8.958940878892463c.001100299756217.011009296980774.00220269932106.02201859395791.00220269932106.034128190687625-.025321593027911-.001100299752579-.049540786494617-.00330299907364-.074862379522528-.004403298826219-.008806597659714-.007706297903496-.011009296977136-.014312296054413-.006605998150917-.020918294201692.003302999077277-.005503598582436.006605998150917-.008806597659714.009908997224557-.008806597659714h.069356681127829Z"/>
    <path class="cls-9" d="M22.017539850750836,8.958940878892463c-.001100299756217.009908997224557-.00220269932106.019815894636849-.00330299907364.029724891861406-.019815894636849-.001102399564843-.039631789273699-.003302999077277-.05944768390691-.004403298829857-.015412595806993-.00330299907364-.020918294201692-.007706297903496-.017615295128053-.014312296050775.00330299907364-.007706297903496.007706297903496-.011009296980774.011009296977136-.011009296980774h.069356681131467Z"/>
    <path class="cls-4" d="M21.913614019109446,8.987893041154166c-.028622492296563.004403298829857-.057247084398114.008806597656076-.068256381375249-.028622492296563h.068256381375249c.007706297899858.005503598586074.011009296977136.012109596733353.008806597656076.018713495072006-.00330299907364.006605998150917-.005503598582436.009908997224557-.008806597656076.009908997224557"/>
    <path class="cls-9" d="M21.53446206245826,8.988113521067135c-.019815894636849,0-.038531489517482.001100299752579-.058347384154331.001100299752579-.024221293271694-.00330299907364-.027522192536708-.013209896485932-.009908997220919-.029722792049142h.068256381375249c.008806597656076.006603898342291.011009296977136.012109596733353.007706297903496.018713495072006-.00220269932106.006605998150917-.005503598586074.009908997224557-.007706297903496.009908997224557"/>
    <path class="cls-22" d="M21.914493838949056,8.987893041154166v-.028622492296563h.034128190687625c.001100299756217.007706297903496.00330299907364.01651289556321.005503598586074.024219193466706-.01320989648957.002200599508797-.026421892784128.00330299907364-.039631789273699.004403298829857"/>
    <path class="cls-24" d="M21.53446206245826,8.988113521067135v-.028622492296563h.035228490440204c-.012109596729715.008806597659714-.024219193463068.018713495072006-.035228490440204.028622492296563"/>
    <path class="cls-3" d="M21.465987300978668,8.958940878892463c.004403298829857.009908997224557.007706297903496.019815894636849.009908997220919.029724891861406-.015412595803355.001100299752579-.029724891857768.002200599508797-.046239887225966.00330299907364-.006603898338653-.007706297903496-.007706297903496-.015412595806993-.005503598586074-.022018593954272.00330299907364-.007706297903496.005503598586074-.011009296980774.007706297903496-.011009296980774h.034128190687625Z"/>
    <path class="cls-7" d="M21.431418150465106,8.958940878892463c0,.011009296980774,0,.02201859395791-.002202699317422.033027890935045l-.031925491370203-.033027890935045h.034128190687625Z"/>
    <path class="cls-1" d="M16.77734441857865,26.612714473751112c.011009296977136-.028623542199057.023118893710489-.028623542199057.034128190687625,0h-.034128190687625Z"/>
    <path class="cls-5" d="M17.500198311621716,20.399429371740553c-.73320280018379-.002201649414928-1.158151584430016.364399750676967-1.338699435280432,1.159251884182595-.071559380445251.309354315693781-.077064028933819.624213279879768-.062751732883044.940172543818335.037430139855132.771734289697633.088072276008461,1.543468579398905.160731956213567,2.313000169782754.019815894633211.211374092366896.036329840102553.422748184733791.061650383224332.633020927438338.06495338230161.52953500572039-.217979040608043.913750651034206-.713385855644447.962190087870113-.190456848071335.005504648488568-.38091369614267.007706822856562-.525131706890534-.149722659236431-.095778573911957-.004403823782923-.150824008895142-.070458030790178-.208071093293256-.136512237797433-.631918527877133-.734303099940007-1.011730874361092-1.595210490355385-1.237416212876269-2.525475086855295-.222383389344031-.915952300449135-.35999645184711-1.847317196705262-.421646835071442-2.78638944076738-.079264628449891-1.220902267410565-.426049084002443-2.353733308711526-1.052464013293502-3.401795073081303-.047339137079689-.079264628446253-.106787870892731-.14862130957772-.158531356704771-.223482639194117-.074860279713903-.238897334809735-.21907934036426-.441463779614423-.347885805211263-.650635172663897-.246601532904606-.399628241120809-.44036138004958-.821274026289757-.517424359084544-1.285856699614669-.157428957139928-.947878841718193.067155031716538-1.801079409284284.677056015541893-2.54308880712415.583480140950996-.708983606720722,1.346405733183929-1.079988305642473,2.2579557847057-1.176867179310648.63852452602805-.067156081619032,1.245122510779765.053944085324474,1.838509549139417.266419527350081.231189987003745.083668977182242.468985972154769.151925358553854.693569961011235.253207531051885.081467327763676.156328657387348-.011009296977136.277426724518591-.092475574841956.391920893314818-.252107231295668.357794802432181-.472287921322277.732102500427573-.634121227194555,1.140538389110588-.146419660162792.369904399165534-.247703932469449.754118994573219-.258712179544091,1.151545586279099-.014312296050775.542745952112455.142016361332935,1.043657415633788.449169027615426,1.491725093590503.148622359480214.216878740855464.309354315693781.426051183807431.526232006646751.585681790362287.072659680201468.052843785568257.145319360406575.113392819133878.193758797238843.192658497486264.016513945469342.060550083468115-.0187145449745.100181872741814-.052842735662125.140916061576718-.040733138928772.04073313893241-.082567627519893.081466277861182-.122200466696086.124402116111014-.412839187512873.412839187512873-.826779724684457.825678375025745-1.239618912197329,1.240719211949909-.153025658310071.153025658310071-.279629423836013.324766911500774-.264216828029021.555956898504519.016513945465704.235593285833602.129906764599582.41614113668038.357793752529687.500911463521334.226786688173888.08587062659717.442564079370641.059448733813042.625313579632348-.108989520304021.222383389344031-.205869443878328.430454482637288-.427151483563648.647332173590257-.640727225345472.072659680205106-.072659680201468.142016361332935-.150822958992649.22128203968532-.216877690949332.037430139855132-.030825191613985.073761029863817-.100181872745452.139814711918007-.035228490443842.014312296050775.062751732886682-.027522192540346.108989520304021-.048439436835906.160731956213567-.195961496559903.488800816885487-.197061796312482.961089788113895.116695818211156,1.408056116408261.07045803078654.100182922647946.143117710991646.193759847144975.278529124079796.210272742708185.027522192540346.00330299907364.051742435909546.023119943612983.050641086250835.058348434056825"/>
    <path class="cls-11" d="M17.807129448085107,12.130865694736713c.140916061576718-.593387038363289.383114295651467-1.138335689793166.761825292476715-1.61943125867765.166237654608267-.211373042464402.345685205702466-.41173678794803.552654949337011-.58678104021601.322564212179714-.213575741781824.631918527877133-.445867078440642.984207631918252-.614305332557706.073762079766311-.035228490443842.155228357627493-.025321593031549.221282039681682-.071559380448889-.008806597656076.044037187908543-.018715594880632.088074375817087-.027522192536708.131009164164425-.046237787420978.23559223592747.00330299907364.339077107742924.215776341290621.459076974930213.038531489517482.020916194389429.088074375820725.033025791122782.086971976255882.091375275085738-.022016494145646.04623778741734-.066053682054189.060550083468115-.10788817064531.078163278787542-.53063635538274.228988337588817-.97430073450596.570268144649162-1.324387139226019,1.030447519144218-.466785372645973.622009530656214-.691368311596307,1.328790438055876-.650636222570029,2.097221728683508.059449783719174,1.1174194954001.583480140950996,1.988235358090606,1.525855384086753,2.59703499225725.446965278388234.288436021495727.942373143327131.434855681658519,1.476312497779873.470086271907348.899438354983431.057247084398114,1.683282241414418-.20807214319575,2.360338256959949-.800358881802822.038531489513844-.034128190687625.075962679275108-.071557280640263.132109463917004-.072659680201468.06495338230161.013211996294558.077062979034963.066055781862815.078163278787542.11669686811365.004403298829857.2223823394379.114494168796227.358895102188399.328069910578051.418342786095309.027522192536708.007706297903496.0484404867384.027522192536708.059449783715536.056146784641896.008806597659714.073759979957686-.040734188834904.114494168792589-.088074375820725.155228357627493-.499809063956491.428250733413734-1.071179608170496.713384805741953-1.708601734633703.870814812784374-.780542987169611.181649200509128-1.548974277793604.145319360406575-2.30419357212304-.124402116111014-.792652583902964-.298345018716645-1.448790305243165-.777239988092333-1.944198170182062-1.468606199880014-.22128203968532-.309354315693781-.380911596334045-.652836822075187-.528433656061679-1.001822927042667-.22458503875896-.655039521396247-.292840370228078-1.323288939278427-.179447551094199-2.008051252727455.012109596733353-.074860279713903.025321593027911-.147519959915371.080365978108603-.203666744557268"/>
    <path class="cls-23" d="M20.36805403024664,16.760499753243494c.76622859131021.277427774424723,1.547871878232399.300546668135212,2.339422062566882.132108414018148.052843785568257.143117710991646-.082568677426025.221282039681682-.116696868110012.334674858819199-.269720426615095.499811163765116-.53834055347761,1.00072262728645-.743109697599721,1.53356063208048-.21907934036426.569167844896583-.307151616376359,1.163655183012452-.369904399165534,1.764749569181731-.135410363185656,1.284755349955958-.247703932469449,2.573915048644267-.679256615054328,3.805826613031968-.234494035979878.667148068223469-.570270244457788,1.278150401711173-1.035951117730292,1.81539170533506-.050643186055822.058348434056825-.104587271380296.105686521230382-.186053549241478.110090869962733-.162934655530989.142016361336573-.34898610496748.19706179631612-.561461546993087.149722659236431-.463480273760069-.088072276008461-.715587505059375-.394123592628603-.682561713936593-.858705741000449.055046484889317-.760725517677201.134312163238064-1.518147511324059.180549950659042-2.278872504048195.035228490443842-.563662146505521.11119116971895-1.131729691645887-.014312296050775-1.695391838147771-.052843785568257-.242200333883375-.148622359480214-.467885672398552-.28623542198693-.675955715789314-.172841552943282-.260914878857875-.401829890532099-.437059430878435-.712284505982097-.498709814106405-.323666611748195-.095779623818089-.601094386169279-.503113112936262-.62201163046484-.882925459420221-.018715594880632-.345684155796334.046237787420978-.669350767544529.209172442951967-.97319938484361-.017615295124415-.077064028937457.042934788347338-.112292519381299.08366792727611-.15412700797242.113392819133878-.118897467622446.232291336662456-.232291336662456.345684155796334-.350087454626191.273023425688734-.269721476517589.543846251868672-.540544302697526.813568778292392-.813568778288754.121100166943506-.122200466699724.247703932469449-.236694635492313.388619994046167-.336876508234127.268620126858877-.157430007046059.541643552547612-.105686521230382.814669078044972-.012110646635847.070456980887684.0242202433692.138713362259296.057247084394476.20917034314698.079265678348747.158531356701133.050641086250835.307153716181347.030825191613985.438160780537146-.077062979031325.057247084398114-.047339137079689.110090869966371-.101283222404163.187153848997696-.117797167869867"/>
    <path class="cls-6" d="M25.190896736121431,15.093510977381811c-.197062846222252.233391636418673-.350088504532323.502011763277551-.582377741386154.706780907399661-.047340186982183.040734188838542-.0913752750821.084769276938459-.137613062503078.12770406528216-.177246951581765-.069356681127829-.363298401018255-.12770406528216-.415041886830295-.348986104963842-.018715594880632-.080365978108603.029724891857768-.171741253194341-.039631789270061-.242198234078387-.011009296977136-.015412595806993-.013211996298196-.03192759117519-.006605998150917-.049540786490979.216878740859102-.237797035057156.426049084002443-.479995269131905.576874142800079-.767330990871415.134310063429439-.256510530129162.231188937101251-.52513065698804.295042019643006-.806962780145113.079265678352385-.307151616376359.071559380448889-.623111930217419.108990570210153-.934668945232261.041834488591121-.063850982736767.07596057947012-.018715594880632.110088770157745.007706297903496.242200333883375.183850849924056.353391503605962.178347251337982.55926094748429-.030825191613985.030825191610347-.030825191613985.057247084394476-.078163278787542.112291469475167-.036328790196421.023118893706851.679258714859316-.095778573915595,1.330993137373298-.377610697072669,1.949701768764498-.066053682054189.142016361332935-.140916061576718.280729723592231-.203666744557268.424948784242588"/>
    <path class="cls-10" d="M25.772503847712869,12.718969614426896c-.019815894633211.008806597656076-.047338087173557.012109596733353-.058347384150693.027522192536708-.233391636418673.303850717111345-.455776075665199.30605131662378-.696874009987368.0055056983947-.067153981810407-.024221293275332-.071557280640263-.084771376743447-.078163278787542-.140916061576718-.077062979031325-.662745819299744-.341279807063984-1.241820561612258-.767330990871415-1.751538622789667-.040732089026278-.049540786494617-.105685471327888-.094678274159378-.085869576691039-.17614455202056-.139815761824138-.335776208481548.177244851776777-.637424226271833.485498867714341-.517426458893169.368801999604329.301648017790285.596690037436929.704578208082239.817972077122249,1.117417395591474.241097934318532.45137277683898.311554915206216.942375243139395.383114295651467,1.435580408757232"/>
    <path class="cls-16" d="M22.432690927633303,9.025435520776227c-.057247084398114-.006605998150917-.119997767378663.025321593027911-.170640953438124-.026421892784128.058349483962957-.002200599512435.121100166943506-.027522192540346.170640953438124.026421892784128"/>
    <path class="cls-23" d="M17.807129448085107,12.130865694736713c-.153025658310071.756321693894279-.089172575764678,1.499431391490361.145319360406575,2.230431492356729-.005503598586074.0484404867384-.030825191613985.085871676499664-.06275068298055.119999867187289-.171741253190703.184951149676635-.166237654608267.394123592632241-.078165378596168.609899933922861.085871676499664.210272742708185.135412462990644.424950884051214.11119116971895.653937121831405-.008806597659714.080368077917228-.036328790196421.15632865738371-.06495338230161.231191036906239-.025319493219286.072659680205106-.07926357854376.124403166017146-.132107364108379.177244851776777-.258713229446585.259814579105296-.517425408990675.519627058401966-.778340287852188.777239988092333-.047339137076051.047338087177195-.085870626593533.111191169722588-.168438254117063.103484871819091-.397426591702242-.331372909651691-.761826342379209-.692468611348886-.966594436598825-1.181270478140505-.17284155294692-.413941587074078-.266418477447587-.835587372243026-.21687769095297-1.297967346250516.08587062659717-.813568778288754.433756431808433-1.507137689393858.898338055227214-2.156671512399043.071558330546395-.101284272306657.112292519381299-.211373042460764.11119116971895-.33577620847791.311555965112348.068256381375249.620910280806129.143118760897778.944575842648192.074862379522528.082567627523531-.017615295124415.171742303096835-.005505698391062.257611879787873-.006605998147279"/>
    <path class="cls-19" d="M16.779215348125945,17.034074378716468c.35669345277347-.336876508234127.707881207155879-.679258714862954,1.035952167636424-1.044757715390006.258711129634321-.223484739002743.683659913880547-.195962546466035.910447651956929.060550083471753.23889523500111.268620126858877.217979040611681.719990803885594-.017615295124415.878521110687871l-1.159251884182595,1.135032690715889c-.259813529202802.13210841401451-.516325109234458.124402116114652-.737606099013647-.066054731960321-.213575741781824-.182750550167839-.312657314771059-.420545485412731-.209172442951967-.707881207152241.031926541272696-.055045434983185.071559380448889-.105687571136514.106787870889093-.159631656460988.023118893710489-.031926541272696.047339137079689-.063852032639261.070458030790178-.095778573911957"/>
    <path class="cls-25" d="M16.641493095570695,17.269227754626627c-.075962679278746.423848484490009.089173625667172.737606099013647.433756431804795.8168707274599.158530306798639.036329840102553.315959263938566-.001100299756217.473389270984626-.023118893710489-.154127007968782.159631656460988-.308254015941202.319262263015844-.461279674251273.478893919473194-.313757614523638.309354315693781-.625313579632348.622010580558708-.942374193233263.926961597426271-.310454615449999.299446368375357-.791550184334483.236694635488675-.99741962821281-.131008114261931-.125502415867231-.223483689100249-.115594468548807-.453572326441645.034128190687625-.662743719491118.075962679275108-.105687571132876.172842602849414-.198163145974831.265318177687732-.290638720813149.385316994972527-.385316994972527.771734289701271-.767330990871415,1.157050234771305-1.150445286526519.033027890931407-.009908997220919.047339137079689,0,.037431189761264.035228490443842"/>
    <path class="cls-21" d="M16.641493095570695,17.269227754626627c-.012109596733353-.012109596733353-.025320543125417-.0242202433692-.037431189761264-.035228490443842.023119943612983-.046238837323472.058348434056825-.080365978104965.104586221474165-.103485921717947-.005504648488568.053945135226968-.025320543121779.102384572059236-.0671550317129.138714412161789"/>
    <path class="cls-5" d="M19.153096321248086,10.991209225274361c.06165038322797.06495338230161.140916061576718.036330890008685.211373042464402.035228490443842.649533823001548-.015412595806993,1.295764646929456.007706297903496,1.928785574371432.173943952511763.011009296977136.071557280636625-.0484404867384.100181872741814-.089172575764678.134310063429439-.255410230372945.215776341290621-.325869311065617.484398567958124-.241100034127157.802559481311619.017615295124415.06495338230161.049540786490979.129906764599582.027524292345333.200363745487266-.066055781862815.047340186982183-.118897467622446-.004403298829857-.175044252264343-.024219193466706-.215778441099246-.074862379522528-.439261080297001-.013211996294558-.551552549772168.15632865738371-.136512762746861.204767044317123-.126605865334568.41724248634273.046237787420978.595589737680712.310454615449999.321463912427134.629715828559711.634119127389567.945676142400771.948979141478048.156328657387348.15412595806265.339079207555187.175044252264343.540543252795032.108988470401528.055046484885679-.017613195319427.110090869962733-.071557280640263.172843652755546-.01320989648957.035228490440204.060550083471753.045137487664761.128806464847003.057247084394476.197062846218614.103484871819091.596690037436929.535039654208958.97099773543232,1.14383928837924.980904632844613.239997634565952.004403298829857.481095568884484.018715594880632.721091103641811-.015412595806993.045137487664761-.006605998147279.091375275085738-.007706297899858.126605865334568.031925491370203,0,.009908997220919-.001100299752579.020918294198054-.002202699317422.03192759117519-.452470976782934.435958081223362-.987510630991892.726596802036511-1.601815963553236.848797268736234-1.244021161121054.246601532904606-2.516666914343659-.184953249488899-3.325832393806195-1.293564047424297-.444764678879437-.609899933922861-.650634122757765-1.300167945759313-.614305332557706-2.048783341750095.033027890931407-.68145931437175.238897334809735-1.313377842248883.679258714859316-1.851720495535119"/>
    <path class="cls-17" d="M18.707561012577571,16.928827767405892c.097981273233017-.171741253190703.175044252264343-.347885805211263.133209763676859-.553755249089591-.077062979034963-.386417294728744-.50531476235119-.607699334414065-.867512863616867-.448067677953077-.05174348581204.022018593954272-.095778573911957.064953382297972-.158531356701133.06275068298055.11669686811365-.296142319399223.081468377669808-.583478041138733-.038531489517482-.868613163369446-.145319360406575-.346785505455045-.108988470401528-.496508164691477.17614455202056-.759624692967918.148622359480214.322566311991977.293941719886789.646230823927908.502013863086177.936869544744695.489902166544198.681461414176738,1.12512369349497,1.171363580724574,1.913370878759451,1.462002301537723-.253207531055523.295042019643006-.41393948726909.336876508234127-.765128291553992.189355498412624-.297244718964066-.124402116111014-.593387038359651-.168438254117063-.895035056153574-.020917244295561"/>
    <path class="cls-23" d="M24.01843285564064,15.304113390055136c-.266419527350081.0484404867384-.536139953965176.036330890005047-.804762180632679.033027890931407-.376508297504188-.004405398638482-.705678507834818-.125503465769725-.967694736355043-.407335588926799-.220179640120477-.237794935244892-.265317127785238-.536139953965176-.299445318472863-.838888271511678-.008806597659714-.089174675573304.063853082545393-.129906764599582.113393869036372-.180549950659042.342380106820201-.344582806133985.68145931437175-.693568911101465,1.032648118656653-1.029345119583013.183850849924056-.176144552016922.344582806137623-.359995401940978.409536188439233-.612102633240283.118897467622446.036328790196421.202566444804688.12770406528216.28623542198693.206969743634545.39192089331118.373207398239174.77613758852749.754118994573219,1.063473310267,1.218701667898131.014312296054413.023118893710489.040734188838542.038531489517482.06165038322797.057247084398114-.142016361332935.607699334410427-.416142186586512,1.139435989545746-.895035056153574,1.552275177058618"/>
    <path class="cls-18" d="M23.502549756138251,12.268919717065728c0,.188254148753913-.075962679278746.337976807990344-.210272742708185.471186571663566-.452470976782934.446967378200497-.898338055227214.899440454792057-1.346405733180291,1.350811131818773-.312657314771059.187153848997696-.51412345981953.162932555726002-.768431290627632-.090274975329521-.271923125932517-.271923125932517-.543846251865034-.543846251865034-.815771477609815-.815769377801189-.26751982710266-.26751982710266-.308251916128938-.517426458889531-.123300766452303-.760724992720498.165135255043424-.219081440176524.430454482637288-.246603632716869.742009397843503-.077065078843589.178347251337982.071559380448889.276326424762374.234494035979878.407335588926799.358895102188399.24109793432217.227888037832599.19265744758377.234494035983516.433755381902301-.004403298829857.247703932469449-.247703932465811.493205165617837-.496508164691477.743111797408346-.742009397839865.077062979031325-.075962679278746.155226257818867-.155228357631131.279629423836013-.140916061580356.408435888683016-.013209896485932.544946551621251.080365978108603.658340420661261.450270377274137"/>
    <path class="cls-23" d="M22.844318525529161,11.8191994896697c-.121100166943506.055044385077053-.22128203968532.136512762750499-.314857914279855.231188937097613-.276328524570999.281832123157074-.558158547919447.557058248166868-.834487072490447.837790071567724-.06165038322797.063850982733129-.103484871815454.090272875517257-.17614455202056.009906897412293-.175044252264343-.187153848997696-.358895102188399-.367701699848112-.538342653282598-.550452250015951-.05944768390691-.189354448506492-.122200466699724-.375407997751608-.090272875520895-.581277441629936.040732089026278-.257610829881742.21907934036426-.412839187509235.402930190288316-.565864845822944.543846251868672.139815761824138,1.070079308417917.321463912430772,1.551174877306039.6187086313912"/>
  </g>
</svg>