<?xml version="1.0" encoding="UTF-8"?>
<svg id="Capa_1" data-name="Capa 1" xmlns="http://www.w3.org/2000/svg" viewBox="0 0 34.015748031497424 34.015746981593111">
  <defs>
    <style>
      .cls-1 {
        fill: #6a8778;
      }

      .cls-2 {
        fill: #1d3a69;
      }

      .cls-3 {
        fill: #32bad9;
      }

      .cls-4 {
        fill: #0ba347;
      }

      .cls-5 {
        fill: #d0d9f0;
      }

      .cls-6 {
        fill: #81cdf1;
      }

      .cls-7 {
        fill: #839da2;
      }

      .cls-8 {
        fill: #a7bbd1;
      }

      .cls-9 {
        fill: #626785;
      }

      .cls-10 {
        fill: #addbf2;
      }

      .cls-11 {
        fill: #43bfef;
      }

      .cls-12 {
        fill: #fff;
      }

      .cls-13 {
        fill: #9e8cc2;
      }

      .cls-14 {
        fill: #cae3d4;
      }

      .cls-15 {
        fill: #eeeded;
      }

      .cls-16 {
        fill: #d9a4cb;
      }

      .cls-17 {
        fill: #e8475d;
      }

      .cls-18 {
        fill: #6a4695;
      }

      .cls-19 {
        fill: #f29ab1;
      }

      .cls-20 {
        fill: #b5b2b2;
      }

      .cls-21 {
        fill: #ef839f;
      }

      .cls-22 {
        fill: #e13139;
      }

      .cls-23 {
        fill: #e5edf9;
      }

      .cls-24 {
        fill: #9f539a;
      }

      .cls-25 {
        fill: #ee7088;
      }
    </style>
  </defs>
  <g>
    <path class="cls-12" d="M0,17.007872965845308C0,7.614956225137576,7.614956225135757,0,17.007874015749621,0s17.007874015747802,7.614956225137576,17.007874015747802,17.007872965845308-7.614956225133938,17.007874015747802-17.007874015747802,17.007874015747802S0,26.400789706553041,0,17.007872965845308"/>
    <path class="cls-20" d="M33.138876320537747,13.68611420090383c-.21907934036426-.241097934318532-.421645785168948-.49540786493526-.784944186187204-.535039654208958-.473389270984626-.051741386003414-.787146885508264.195960446657409-1.049163114028488.537242353530019-.28733572173951.373205298430548-.561461546993087.757421993646858-.880722760099161,1.191177375549159-.160731956213567-.540543252791394-.285135122230713-1.009529224946164-.440361380053218-1.467505900120159-.38421669521631-1.137233290231961-.911550051521772-2.200706600498961-1.580899769160169-3.203631927106471-.550452250015951-.824575975460903-1.17576687955443-1.579797369598964-1.897958282952459-2.248046787484782-.769533690192475-.711184206229518-1.588606067067303-1.357415030157426-2.517769313908502-1.873739089485753-.660543119978684-.366601400091895-1.324389239034645-.712286605794361-2.028967447113246-.97430073450596-.884025759176438-.329170210330631-1.790070112307149-.576874142800079-2.730242656125483-.713384805738315-1.090997602615971-.157431056948553-2.183094455085666-.205869443878328-3.276292657214071-.090274975329521-.59228568870094.06165038322797-1.186775126625434.133207663864596-1.768052568255371.295042019643006-.481095568884484.133209763676859-.96879503611126.24109793432217-1.443284606848465.406233189365594-.926962647332402.321463912427134-1.804382408357924.744212097160926-2.626759884118655,1.267142154636531-1.001822927042667.638524526024412-1.930986173883866,1.373927925720636-2.737948954025342,2.256853385140857-1.142738988623023,1.250627159268333-2.069699536143162,2.643272779678227-2.667491973141296,4.230776447180688-.548249550698529,1.455396303390444-.846594569415174,2.622354485476535-.937969844500913,4.529121465893695-.016512895559572.63632182670699.046237787420978,1.3199838403998.077062979034963,1.550072477741196.11669686811365.27302552549736.329170210330631.429353132978576.633020927441976.521829757723026.575771743235236.175043202361849,1.286955949464755-.26972252642372,1.252829858585756-.868614213275578-.057247084398114-.999621277627739.030825191613985-1.983829959452123.190454748262709-2.966938341516652.11669686811365-.725494402471668.352291203849745-1.41466211455554.61980893114378-2.09612142892729.378713096633874-.966594436602463.900540754548274-1.856123794361338,1.512643387788557-2.687307867778145.410638588004076-.55705824816323.902741354057071-1.051363713537285,1.401452218069608-1.535762281499046.57136844440538-.553753149280965,1.231911564387701-.995216928895388,1.893554984122602-1.420165713137976.487701567035401-.313757614527276,1.031547818900435-.549351950263372,1.579797369598964-.765130391362618,1.09760360076325-.430452382828662,2.228230892844294-.678156315298111,3.396291474495229-.782741486869782,1.384939322506398-.124403166017146,2.735746254707919.025319493219286,4.0766504891144.402930190288316.759622593159293.213575741781824,1.484018795683369.506417161916033,2.169881408884976.86310956478701,1.119620094912534.582379841191141,2.113736724051705,1.35521443064863,2.997762483228144,2.270065381435415.791550184338121.819072376874828,1.425671411532676,1.74713532395981,1.947501169255702,2.743454652420041.361095701697195.688065312519029.634121227194555,1.426771711288893.8410909708291,2.183093405183172.006603898338653.023118893710489-.012109596733353.052843785568257-.03192759117519.126603765525942-.320361512865929-.243300633639592-.623109830412432-.473389270980988-.926960547523777-.701277308813587-.690268011836451-.519627058405604-1.447690005486947-.132107364112017-1.618330958921433.529536055622884-.126601665717317.486599167470558.121100166939868.805862480388896.459079074738838,1.066776309344277,1.185673776966723.917053650107846,2.38565984998786,1.81539170533506,3.57573692578444,2.728041006710555.177244851773139.13541141308815.282932422909653.093576924497029.401829890532099-.070458030790178.440361380053218-.612102633243921.879622460346582-1.225306616142916,1.336498835767998-1.824198302994773.486599167470558-.637424226268195.948979141478048-1.293561947612034,1.47410979846245-1.901261282026098.111193269531213-.129906764599582.125503465773363-.301648017790285.179447551094199-.455776075665199-.023118893706851-.171741253190703-.047338087173557-.344582806137623-.070456980884046-.517424359084544"/>
    <path class="cls-20" d="M18.207420178847315,29.620936104078282c-.049540786494617-.434857256514078-.049540786494617-.426050133904937-.551552549772168-.409536713388661-.354491803358542.012110121682781-.712285555888229.006605473194213-1.066777359246771-.011008772027708-.178346201435488-.009907947318425-.244400933395809.051742435909546-.254308880714234.222382864394604-.029723841951636.498709551629872-.062751732886682.998520190445561-.103484871815454,1.496128917369788-.012109596733353.146420447588753.030825191613985.213575741781824.179447551094199.230089162294462.575772793141368.062751732886682,1.151545586279099.020917244295561,1.727319429322961-.004403823782923.133209763676859-.005504386012035.169538553873281-.084769276934821.158529256896145-.216877953425865-.035228490443842-.420545485416369-.058347384150693-.842192058014916-.089172575764678-1.306773681433697"/>
    <path class="cls-20" d="M9.886452626198661,26.63131982867344c-.037431189761264.03192601631963-.091375275085738.059448733813042-.121099117041013.104585696524737-.269721476517589.410637538097944-.638524526024412.736505274304363-.940172543814697,1.119620094912534-.134310588382505.169539603775775-.123301816358435.293941719886789.061650383224332.426050133904937.415040836927801.296143369301717.820173726537178.604396335336787,1.256131807756901.873017512101796.169539603775775.104585696524737.264216828029021.092475574838318.365500050433184-.080365978108603.249905581884377-.430453957684222.511920760498469-.855403266879875.769532640286343-1.281453400784812.044036138006049-.071558330542757.071558330542757-.138713887212361-.013210946392064-.201465095145977-.427150433661154-.312657314767421-.853200567562453-.625314104585414-1.280352051126101-.935769244988478-.020917244295561-.015412595803355-.053944085324474-.014311771097709-.097980223326886-.024219718416134"/>
    <path class="cls-20" d="M7.220392197630645,26.60137498185577c.050641611200263-.030825191613985.114494168796227-.059448733813042.164034955287207-.103484871815454.365500050433184-.325867736210057.726596802036511-.657240120908682,1.09209737742276-.983107857115101.12219994174302-.110090345013305.129906239646516-.201465620099043.018715069927566-.33797733294341-.275226125006157-.33577620847791-.536140478914604-.682561713936593-.790449359628838-1.033749468315364-.108989520304021-.150824008895142-.214676566487469-.170639903531992-.364399225723901-.072659680205106-.401830415488803.266418477447587-.805862480388896.527333356305462-1.209894545288989.79044883467941-.133209238723794.086971976252244-.17614455202056.184952199582767-.080365978108603.337977857892838.297244718964066.4766917451052.674854891080031.890631757323717,1.019437697217654,1.330993662326364.034128190687625.044036138006049.070458030790178.09687939862124.150824008895142.071558855495823"/>
    <path class="cls-20" d="M25.890412305443533,25.303518925466051c.028622492292925.041834488591121.044037187908543.079265153399319.071559380448889.104585696524737.401829890532099.35669345277347.788247185260843.731000625815796,1.216498968580709,1.057969186731498.133209763673221.101283222404163.203666744557268.077063503984391.30384861730272-.038531489517482.359997501749604-.416141661633446.675955715785676-.864209864539589.990815729874157-1.314480241810088.093575874594535-.134310063429439.077062979031325-.219079340367898-.062752782789175-.302748317546502-.420545485416369-.253208580958017-.835585272438038-.515223759575747-1.256130757854407-.768431290627632-.123302866260929-.074861329620035-.259813529199164-.105686521230382-.354491803358542.045136437758629-.245501233148389.390821643461095-.547149250942311.738707448672358-.827881074343168,1.103107199352962-.028622492292925.036329315149487-.053944085320836.074861329616397-.081466277861182.113392819133878"/>
    <path class="cls-20" d="M20.528456316498705,30.759711703791254c.539442953035177-.106787870889093,1.042557115877571-.30715240380232,1.553375476814836-.478893394520128.173943952508125-.058347909103759.230090737150022-.166236604702135.161834355774772-.333574034109915-.184953249485261-.453572851394711-.373207398239174-.90604435313071-.562561846745666-1.357415555110492-.068256381375249-.166236604702135-.203668844369531-.155227307724999-.341281906872609-.114494168796227-.423848484490009.128806464847003-.845494269658957.263116528276441-1.270443053905183.388619469096739-.105687571132876.030825716563413-.179447551094199.052843260615191-.146419660162792.190456323118269.12660376552958.53283800479403.249904531981883,1.067877659002988.369902299360547,1.602917313211947.03523059024883.156328394910815.135412462990644.134310325905972.235594335736096.102384047109808"/>
    <path class="cls-20" d="M24.563711177035657,26.596311293193139c-.020916194389429.011009296977136-.058347384150693.023118893710489-.088072276008461.04623778741734-.361095701700833.268621176765009-.694671310666308.573571668679506-1.088794903298549.800357831900328-.134310063429439.077062979034963-.215776341290621.191557147827552-.096878873668174.377610172115965.268620126858877.420545485416369.514121360007266.855402741930448.762925592232932,1.288058349029598.056146784641896.097980748279952.127706165090785.114493643843161.213575741781824.067155031716538.532839054696524-.291739545522432.993016329386592-.685863138154673,1.478515197100933-1.043657415633788.083668977178604-.061650908181036.083668977178604-.145319360406575.015412595806993-.226786163220822-.353389403797337-.417243011295795-.704578208082239-.835586847293598-1.059070011440781-1.251728508927044-.029724891857768-.035229015396908-.066053682057827-.071558855499461-.137613062506716-.057247084398114"/>
    <path class="cls-20" d="M14.605479740383089,29.127510458547476c-.009907947318425-.166236604702135-.062751732886682-.224584513809532-.175044252264343-.253208056004951-.446966328294366-.113393344086944-.898338055227214-.211373567417468-1.314479191907594-.422747134831297-.15412700797242-.078164328693674-.231189987003745.019815894636849-.284033772572002.150824008895142-.182750550167839.453572326445283-.363298401018255.908246002545638-.54935090035724,1.360717766758171-.056146784641896.138713887212361-.042935838249832.214676304010936.115594468552445.288436808921688.482195868640702.226786425697355.994116629139171.358895102188399,1.500532741149073.50641611201354.107889220551442.031926278796163.226786688173888.082567889996426.291740070475498-.077063241511496.213575741781824-.517425146510504.257611879784235-1.07778534384488.415040836924163-1.553376264240796"/>
    <path class="cls-2" d="M4.425305874212427,10.728974616649793c-.172842077899986.102384572062874-.35779401500622.154125958066288-.557057723213802.154125958066288-.199263708203944.001102399564843-.391921943213674-.052843785568257-.576873880323546-.160731956213567-.184951937106234-.10788817064531-.326968823392235-.248804232222028-.423848222009838-.421645785168948-.097980485807057-.173943952511763-.144218535702748-.361097801509459-.140915799102004-.561461546993087.003302736597107-.200363745487266.060549820993401-.39522389238482.170640166006706-.583480140947358.080365978104965-.138713362259296.178346726384916-.254307830808102.290638720813149-.344582806137623.114494168796227-.091375275085738.238896284907241-.154125958066288.374307697995391-.183850849924056l.039632314223127.140916061576718c-.242198759027815.063853082545393-.432655344622617.217979040611681-.572470319017157.457976675177633-.093576924497029.160731956213567-.143117448515113.329170210330631-.146420185115858.503114162842394-.003302736597107.175042152455717.037430664811836.337976807986706.123301291405369.487699467223138.084769801887887.150825058801274.206970268587611.271923125936155.366601400091895.364398700774473.159631131507922.093577974403161.325867473733524.139815761824138.49870955163351.139815761824138.172842077896348,0,.334675121295732-.044037187912181.485498867714341-.133209763676859.149722921712964-.090272875520895.27192338840905-.214676041534403.365500312909717-.376508297504188.138713887208723-.237797035057156.177245376726205-.479995269131905.113393344086944-.725496502280293l.142016361332935-.034128190687625c.039632839176193.133209763673221.048439961785334.271923125932517.025321068074845.417242486339092s-.073760504910751.28623542198693-.154126483015716.423848484490009c-.110090869966371.188254148753913-.252107231299306.333573509160487-.423848484490009.435958081219724"/>
    <path class="cls-2" d="M5.371973651270309,9.040957306635391c-.224584513809532.019815894633211-.460178324592562-.070456980887684-.704578733035305-.266419527350081l-.99741962821281-.803659781071474.101283222400525-.127704065278522.994116629139171.801457081746776c.212474917076179.171741253194341.410637538097944.251006931543088.595589212731284.238897334813373.183851374873484-.012109596733353.350087979575619-.110090869966371.49981063881205-.296144419207849.147521534774569-.183850849924056.208071093293256-.366601400091895.180548375803482-.549349850451108-.027522192540346-.182750550171477-.147521009821503-.358895102192037-.359995401944616-.53063635538274l-.993015804433526-.800356781994196.101283222400525-.126605865334568.997419103263383.804762180632679c.245501758101454.195960446657409.382013995898888.408435888683016.410637538097944.631918527877133.028623542199057.225685338515177-.046237787420978.446967378200497-.223483689100249.667149118129601-.17614455202056.21907934036426-.377610172115965.339077107742924-.602194685921859.356692402870976"/>
  </g>
  <rect class="cls-2" x="6.113690268959694" y="5.636477604862852" width=".16230915117346" height="2.226777871781954" transform="translate(-2.958448356508327 6.357406935805332) rotate(-45.000000000910262)"/>
  <path class="cls-2" d="M8.012493056796302,6.411117003164691c.159631131507922-.129906764599582.275226125009794-.275226125006157.346784455552552-.437060480784567.070458030790178-.161832255969784.093576924500667-.326967511013208.068256381375249-.494305465374055-.026421892784128-.166235554799641-.097980223326886-.323666611744557-.215777391196752-.471186571663566-.118897467622446-.146421759971417-.256510530125524-.251006931543088-.415040836927801-.311557015014841-.157429482089356-.060550083471753-.323666086791491-.073759979957686-.496508164691477-.038531489513844-.173942902605631.035228490440204-.340179507307766.116696868110012-.500911463521334.244400933392171l-.550452250015951.443664379126858,1.213197019409563,1.507137689393858.550452250015951-.442561979562015ZM6.030864746759107,5.334431696599495l.686964487813384-.552654949333373c.180548375803482-.145319360410213.369903874212469-.236694635492313.569167319943517-.275226125009794.199263970684115-.036328790196421.390821643461095-.020916194389429.57357114372644.047340186982183.183851374877122.068256381375249.342381681675761.186051449436491.476692270058265.35449180336218.134310063429439.165135255043424.215776866243687.345683105890203.24329958373346.540543252791394.028623542199057.193759847148613.002201649414928.384214595411322-.077062979031325.571368444409018-.079265678352385.186053549241478-.210272742708185.351188804284902-.389720293802384.496508164691477l-.686964487813384.552654949333373-1.395947044627974-1.735025727226457Z"/>
  <path class="cls-2" d="M10.059514659054912,4.306298166633496l-1.15264693593781-.816871777366032.142016361332935,1.403652817578404,1.010630574604875-.586781040212372ZM10.179513476339707,4.394370442641957l-1.116317095838895.648433523248968.070458030790178.68476231344539-.151925358557492.088072276008461-.233391636415035-2.440706334873539.139814711918007-.081466277861182,2.004747203747684,1.410258815725683-.150824008895142.088072276012099-.562561846749304-.39742659170588Z"/>
  <g>
    <path class="cls-2" d="M11.817549040037193,4.186627969411347c.191557147827552-.074860279713903.345684155796334-.178345151532994.46237997400749-.311554915206216.116695818207518-.133209763676859.187153848997696-.28403272266587.213575741781824-.450270377274137.025320543121779-.167337954360846.004403298826219-.339077107742924-.06495338230161-.515223759572109-.068256381375249-.17614455202056-.168438254117063-.315958214036073-.300547718037706-.421645785172586-.13210841401451-.105687571132876-.286234372080798-.168438254117063-.462378924101358-.187153848997696-.176145601923054-.018715594880632-.358895102188399.008806597659714-.551553599674662.083668977182242l-.658340420661261.257610829881742.703477908326022,1.80108150909291.658340420661261-.25651262993415ZM10.25206291658651,2.563895811465045l.821275076192251-.320363612670917c.214676041538041-.084769276938459.422747134831297-.114494168796227.624212229977275-.090272875520895.202566444804688.023118893710489.379812346483959.095778573911957.535039654208958.216876641046838.153025658310071.119999867187289.269721476517589.280731823400856.347885805211263.481095568884484.077064028937457.199263445731049.101283222400525.396326291953301.069357731033961.588983739533433-.031926541272696.193759847144975-.11339386904001.366601400091895-.24550228305452.520729457966809-.133209763676859.154125958066288-.306051316620142.273023425688734-.521828707816894.357792702623556l-.821275076195889.320363612674555-.809164429556404-2.075205234537862Z"/>
    <path class="cls-2" d="M14.67516714138219,3.261758831347834c.131008114261931-.113391769231384.223483689100249-.252107231299306.278529124083434-.416142186586512.055045434979547-.162932555726002.064953382297972-.335774108669284.026421892784128-.517424359084544-.036329840102553-.180547850850417-.112292519381299-.334675908721692-.227886987930106-.464582673324912-.114494168792589-.12770406528216-.255410230372945-.21907934036426-.419445185660152-.271923125932517-.164034955287207-.052841685759631-.337977857892838-.060547983663128-.520727358158183-.023118893710489-.182750550167839.037431189761264-.340179507307766.112293569283793-.47118762156606.22678773808002-.131007064355799.113391769227746-.224583988856466.253207531051885-.279629423839651.416142186582874-.055045434979547.164032855478581-.063852032639261.336876508234127-.027522192536708.517424359084544.037430139855132.180547850850417.113392819133878.33577620847791.228987287682685.464580573516287.114494168792589.128806464847003.255410230372945.219081440172886.42164683507508.271925225741143.165135255043424.052841685759631.339078157649055.060547983663128.521828707816894.023118893710489.182750550167839-.037431189761264.339078157649055-.11339386904001.468984922248637-.226787738076382M13.627106426918544,3.608544336802879c-.191557147827552-.061650383224332-.354490753456048-.165135255043424-.487700517129269-.312657314767421-.133209763673221-.148622359483852-.22128203968532-.326967511013208-.264216828029021-.533937254647753-.041834488591121-.20807214319575-.030826241520117-.406235289170581.031925491366565-.595589737680712.063853082545393-.188256248558901.172842602849414-.348988204772468.325868261159485-.481095568884484.15192430865136-.132109463920642.335775158575416-.219079340367898.54935090035724-.263116528276441.213575741781824-.044035088099918.416142186586512-.036328790196421.608800684072776.024219193466706.191557147827552.060550083471753.354490753456048.16513735485205.487700517129269.312657314767421.13210841401451.147522059727635.220180690026609.326969610821834.264216828032659.537242353530019.042935838249832.209170343143342.031926541272696.408435888683016-.031925491370203.596690037433291-.063853082545393.188254148753913-.172842602849414.34898610496748-.324766911500774.478892869567062-.153026708216203.132109463920642-.33577620847791.219079340367898-.550452250015951.263116528276441-.213575741781824.044035088099918-.416142186586512.035228490443842-.608800684072776-.026421892784128"/>
  </g>
  <rect class="cls-2" x="16.19197843712027" y="1.11452794922626" width=".515143866501603" height="2.226964927417407" transform="translate(-.080602134951413 .709525662171062) rotate(-2.464943708190767)"/>
  <polygon class="cls-2" points="19.264067011054067 1.215507858876663 19.097831456258064 3.436032453821099 18.675083271524272 3.405207262207114 17.669957345404327 1.972929852527159 17.568674123003802 3.32153828502851 17.060056361578972 3.284107095267245 17.227393266037325 1.063582500322809 17.652342050279913 1.094407691936794 18.655267376887423 2.525584801860532 18.756549549385454 1.178076669115399 19.264067011054067 1.215507858876663"/>
  <polygon class="cls-2" points="20.231432077447607 1.819465334199776 19.534560167268864 1.67194327447578 19.62153004371612 1.261306786280329 21.519490426477205 1.663136676816066 21.432518450221323 2.073775264816504 20.73564654004258 1.926253205092507 20.361338842047189 3.694304723441746 19.857124379452216 3.587518952361279 20.231432077447607 1.819465334199776"/>
  <polygon class="cls-2" points="22.872831827769915 4.048025897012849 22.736319065023054 4.437746190811595 21.109183608246894 3.867478046162432 21.844587007943119 1.765850918840442 23.432090675445579 2.321806767442467 23.295580012503706 2.712629460806056 22.191372513398164 2.325109766516107 22.031740856940814 2.781986141937523 23.007141891199353 3.124366248754086 22.875034527090975 3.501976945826755 21.898531093267593 3.160697138762771 21.728992539394312 3.646196006477112 22.872831827769915 4.048025897012849"/>
  <polygon class="cls-2" points="25.755440802275189 3.490858458797447 24.713986085958823 5.459275822442578 24.340778687719649 5.262212976220326 23.990690183190964 3.547005243439344 23.358771655310193 4.74258591781836 22.908501278039694 4.504790982573468 23.949958094161047 2.536373618928337 24.326466391668873 2.735637064655748 24.673251897123919 4.448646297740197 25.305170425001052 3.253063523548917 25.755440802275189 3.490858458797447"/>
  <path class="cls-2" d="M25.164474843337302,5.745070284599933c-.104585171571671-.136512762746861-.173943952511763-.264216828029021-.209172442951967-.385316994972527l.369904399165534-.209172442951967c.036330890005047.11339386904001.093577974403161.225687438323803.175044252264343.336878608042753.081466277861182.112291469475167.175044252264343.206969743634545.280729723592231.285133022422087.117797167869867.085871676499664.217979040611681.132109463920642.300547718037706.138713362259296.082566577617399.005505698391062.144219060650357-.020916194393067.187153848997696-.078163278787542.031925491366565-.042934788347338.040732089026278-.090274975329521.027522192536708-.143116661089152-.012109596729715-.052843785568257-.038531489513844-.106787870892731-.078163278787542-.16183435577841-.039633889078686-.056144684833271-.0968809734768-.126603765525942-.170640953434486-.211373042460764-.11339386904001-.133209763676859-.201466145048471-.247703932469449-.265317127785238-.343482506385044-.062752782789175-.096878873668174-.10018397255044-.204767044313485-.110090869966371-.321463912427134-.009908997220919-.117797167866229.029724891857768-.236694635488675.116694768305024-.356692402867338.077062979034963-.103484871819091.173943952511763-.177246951585403.292841420134209-.22128203968532.117797167866229-.042934788347338.252107231299306-.0484404867384.402930190288316-.014312296050775.149724759045057.034128190683987.307153716184985.11119116971895.472288971228409.231191036906239.11339386904001.083666877369978.215776341290621.179447551094199.304951016867562.286233322174667.090272875517257.107890270453936.15742895713629.217979040611681.201464045239845.328069910578051l-.358895102188399.2223823394379c-.097979173424392-.214676041534403-.228986237780191-.383114295651467-.395223892388458-.50531476235119-.115594468548807-.085869576691039-.215776341290621-.129906764599582-.299445318472863-.132107364108379-.082568677426025-.003302999077277-.146421759971417.02642189278049-.191557147827552.086969876443618-.04623778741734.061652483036596-.047340186982183.132109463920642-.004405398634844.208072143199388.041834488587483.077062979031325.117797167866229.178347251337982.228988337585179.303848617299082.11339386904001.132109463920642.201466145052109.247703932469449.265319227593864.343482506385044.062750682984188.0968809734768.100181872745452.202566444804688.111191169722588.318160913353495.011009296977136.115596568357432-.027522192540346.234494035979878-.114494168796227.353391503602325-.074862379522528.103484871819091-.172841552943282.17504425226798-.291739020569366.219079340367898-.119999867187289.0429347883437-.255410230369307.04623778741734-.406235289170581.012109596733353-.150822958992649-.034128190687625-.308251916132576-.111191169722588-.472286871419783-.231188937101251-.142016361332935-.104585171571671-.265319227593864-.223484739002743-.369904399165534-.358895102188399"/>
  <rect class="cls-2" x="26.236595662493663" y="5.829422232008771" width="2.226571050601436" height=".516278898542503" transform="translate(4.655845422364152 22.520916447949894) rotate(-48.457687737743996)"/>
  <polygon class="cls-2" points="30.133516729458279 7.350739397104917 27.841432754068592 8.146692880269256 27.497952347492173 7.772385182273865 28.486563278240283 5.557366285724129 28.863073675556734 5.968002773919579 28.150787069762373 7.543396844688687 29.786731224003233 6.973128700035886 30.133516729458279 7.350739397104917"/>
  <g>
    <path class="cls-2" d="M29.65418290006528,9.739702246166416c.108990570210153.053944085320836.22458503875896.077062979031325.348988204776106.067153981810407.123300766452303-.009906897412293.243298533830966-.052843785568257.356692402870976-.129906764599582.115594468548807-.075962679278746.201466145048471-.169538553873281.257610829881742-.279629423839651.056146784641896-.110090869962733.080365978104965-.226785638267756.071559380448889-.347885805211263-.007706297903496-.122200466696086-.049540786494617-.236694635488675-.122200466699724-.346785505455045-.072659680201468-.108988470401528-.164034955287207-.191557147827552-.273023425688734-.245501233148389-.108990570210153-.056146784641896-.225687438320165-.07816327879118-.348988204772468-.068256381375249-.123300766452303.009908997220919-.242198234078387.052843785568257-.357792702627194.128806464843365-.114494168792589.077062979034963-.199263445731049.169538553873281-.255410230372945.280729723592231-.057247084394476.110090869966371-.081466277861182.225685338515177-.072659680201468.347885805211263s.0484404867384.237797035057156.122200466696086.346785505458683c.072659680205106.108990570210153.164034955287207.191557147827552.273023425688734.246603632713231M28.79327603459933,9.133103211508569c-.019815894633211-.209172442951967.014312296050775-.406233189365594.101282172498031-.590084039286012.086971976255882-.184953249488899.22128203968532-.33797890779897.40293229010058-.459076974933851.181648150602996-.121100166939868.375407997747971-.187153848997696.579074742308876-.195962546462397.203668844365893-.009906897415931.398528991267085.035228490440204.584580440703576.134310063429439.186053549241478.097981273233017.342382206625189.244400933392171.471188671472191.437060480784567.12770406528216.192657447580132.202566444804688.393023292876023.221279939876695.601093336263148.018715594880632.209172442951967-.014310196245788.406233189365594-.101282172498031.591186438850855-.086971976255882.186051449436491-.22128203968532.339077107746562-.401829890535737.46017727468643-.182750550167839.121100166943506-.375407997751608.186053549245116-.580177141873719.194860146901192-.204767044313485.008806597659714-.399627191214677-.036330890005047-.584580440703576-.134310063429439-.184951149676635-.099081572985597-.342380106816563-.243300633639592-.470086271907348-.435958081219724-.12770406528216-.191557147827552-.202566444804688-.393023292876023-.222382339441538-.603296035584208"/>
    <path class="cls-15" d="M8.670834002410629,18.085328902201582c0-4.710769616500329,3.819038084377098-8.529809275732987,8.529807700877427-8.529809275732987,4.710771716308955,0,8.528706876168144,3.819039659232658,8.528706876168144,8.529809275732987s-3.817935159859189,8.529808225826855-8.528706876168144,8.529808225826855c-4.710769616500329,0-8.529807700877427-3.819038609326526-8.529807700877427-8.529808225826855"/>
    <path class="cls-8" d="M8.670834002410629,18.127162340886571c0-.125503465769725,3.637387833961839-1.12842669256861,8.362470796419075-1.08659325388362,4.723980562892393.041834488591121,8.696043780626496.961089788113895,8.696043780626496,1.08659325388362,0,4.710770666406461-3.817935159859189,8.529808225830493-8.528706876168144,8.529808225830493-4.710769616500329,0-8.529807700877427-3.819037559424032-8.529807700877427-8.529808225830493"/>
    <path class="cls-6" d="M22.432690927633303,9.025435520776227c.215776341290621.06275068298055.439261080293363.092475574838318.652836822075187.171741253190703.356692402870976.133209763673221.685862613201607.309354315693781.997419628216448.528433656061679.181648150602996.128806464843365.34898610496748.26751982710266.488801866787981.44036138004958-.033027890931407.03192759117519-.073762079766311.019817994445475-.112293569283793.020918294198054-.23889523500111.011009296977136-.358895102188399.139813662015513-.355592103114759.378710996825248.001100299756217.044035088099918.018715594880632.091375275085738-.025319493219286.126603765525942-.06495338230161.00220269932106-.103486971624079-.0429347883437-.146421759971417-.081466277861182-.879622460346582-.779440587604768-1.891354384610167-1.015034923340863-3.028587674842129-.739808798331069-.099081572985597.024221293271694-.193759847144975.072659680201468-.300547718034068.064953382297972-.040732089026278-.019815894633211-.078163278787542-.045137487664761-.116694768305024-.068256381371611-.258713229446585-.154125958066288-.312657314771059-.368801999604329-.15963165645735-.629715828559711.237794935244892-.134312163238064.511920760498469-.150825058801274.765128291550354-.236694635492313.073762079766311-.025321593027911.168438254117063.034128190687625.235594335736096-.041834488591121h.069356681131467c.012109596729715.01320989648957.027522192536708.017613195319427.045137487664761.017613195319427h.082566577613761c.017615295128053.001102399561205.033027890935045-.004403298829857.045137487664761-.017613195319427h.275226125009794c.020918294198054.022016494145646.0484404867384.01651289556321.074862379522528.017613195319427h.160731956213567c.026421892784128-.002200599512435.053944085324474.005505698391062.074860279713903-.017613195319427h.069358780936454c.012109596733353.01320989648957.025319493222923.026421892784128.037429089952639.039631789273699.053944085324474.029724891857768.117797167869867-.006605998150917.170640953438124.026421892784128"/>
    <path class="cls-14" d="M22.155482583219055,8.958940878892463c-.012109596733353.029724891861406-.038531489517482.033027890935045-.066053682054189.034128190687625-.012109596733353-.007706297903496-.016514995371836-.014312296050775-.013211996298196-.022018593954272s.007706297903496-.012109596733353.011009296977136-.012109596733353h.068256381375249Z"/>
    <path class="cls-13" d="M22.086455572052728,8.958940878892463c.001100299756217.011009296980774.00220269932106.02201859395791.00220269932106.034128190687625-.025321593027911-.001100299752579-.049540786494617-.00330299907364-.074862379522528-.004403298826219-.008806597659714-.007706297903496-.011009296977136-.014312296054413-.006605998150917-.020918294201692.003302999077277-.005503598582436.006605998150917-.008806597659714.009908997224557-.008806597659714h.069356681127829Z"/>
    <path class="cls-9" d="M22.017539850750836,8.958940878892463c-.001100299756217.009908997224557-.00220269932106.019815894636849-.00330299907364.029724891861406-.019815894636849-.001102399564843-.039631789273699-.003302999077277-.05944768390691-.004403298829857-.015412595806993-.00330299907364-.020918294201692-.007706297903496-.017615295128053-.014312296050775.00330299907364-.007706297903496.007706297903496-.011009296980774.011009296977136-.011009296980774h.069356681131467Z"/>
    <path class="cls-4" d="M21.913614019109446,8.987893041154166c-.028622492296563.004403298829857-.057247084398114.008806597656076-.068256381375249-.028622492296563h.068256381375249c.007706297899858.005503598586074.011009296977136.012109596733353.008806597656076.018713495072006-.00330299907364.006605998150917-.005503598582436.009908997224557-.008806597656076.009908997224557"/>
    <path class="cls-9" d="M21.53446206245826,8.988113521067135c-.019815894636849,0-.038531489517482.001100299752579-.058347384154331.001100299752579-.024221293271694-.00330299907364-.027522192536708-.013209896485932-.009908997220919-.029722792049142h.068256381375249c.008806597656076.006603898342291.011009296977136.012109596733353.007706297903496.018713495072006-.00220269932106.006605998150917-.005503598586074.009908997224557-.007706297903496.009908997224557"/>
    <path class="cls-22" d="M21.914493838949056,8.987893041154166v-.028622492296563h.034128190687625c.001100299756217.007706297903496.00330299907364.01651289556321.005503598586074.024219193466706-.01320989648957.002200599508797-.026421892784128.00330299907364-.039631789273699.004403298829857"/>
    <path class="cls-24" d="M21.53446206245826,8.988113521067135v-.028622492296563h.035228490440204c-.012109596729715.008806597659714-.024219193463068.018713495072006-.035228490440204.028622492296563"/>
    <path class="cls-3" d="M21.465987300978668,8.958940878892463c.004403298829857.009908997224557.007706297903496.019815894636849.009908997220919.029724891861406-.015412595803355.001100299752579-.029724891857768.002200599508797-.046239887225966.00330299907364-.006603898338653-.007706297903496-.007706297903496-.015412595806993-.005503598586074-.022018593954272.00330299907364-.007706297903496.005503598586074-.011009296980774.007706297903496-.011009296980774h.034128190687625Z"/>
    <path class="cls-7" d="M21.431418150465106,8.958940878892463c0,.011009296980774,0,.02201859395791-.002202699317422.033027890935045l-.031925491370203-.033027890935045h.034128190687625Z"/>
    <path class="cls-1" d="M16.77734441857865,26.612714473751112c.011009296977136-.028623542199057.023118893710489-.028623542199057.034128190687625,0h-.034128190687625Z"/>
    <path class="cls-5" d="M17.500198311621716,20.399429371740553c-.73320280018379-.002201649414928-1.158151584430016.364399750676967-1.338699435280432,1.159251884182595-.071559380445251.309354315693781-.077064028933819.624213279879768-.062751732883044.940172543818335.037430139855132.771734289697633.088072276008461,1.543468579398905.160731956213567,2.313000169782754.019815894633211.211374092366896.036329840102553.422748184733791.061650383224332.633020927438338.06495338230161.52953500572039-.217979040608043.913750651034206-.713385855644447.962190087870113-.190456848071335.005504648488568-.38091369614267.007706822856562-.525131706890534-.149722659236431-.095778573911957-.004403823782923-.150824008895142-.070458030790178-.208071093293256-.136512237797433-.631918527877133-.734303099940007-1.011730874361092-1.595210490355385-1.237416212876269-2.525475086855295-.222383389344031-.915952300449135-.35999645184711-1.847317196705262-.421646835071442-2.78638944076738-.079264628449891-1.220902267410565-.426049084002443-2.353733308711526-1.052464013293502-3.401795073081303-.047339137079689-.079264628446253-.106787870892731-.14862130957772-.158531356704771-.223482639194117-.074860279713903-.238897334809735-.21907934036426-.441463779614423-.347885805211263-.650635172663897-.246601532904606-.399628241120809-.44036138004958-.821274026289757-.517424359084544-1.285856699614669-.157428957139928-.947878841718193.067155031716538-1.801079409284284.677056015541893-2.54308880712415.583480140950996-.708983606720722,1.346405733183929-1.079988305642473,2.2579557847057-1.176867179310648.63852452602805-.067156081619032,1.245122510779765.053944085324474,1.838509549139417.266419527350081.231189987003745.083668977182242.468985972154769.151925358553854.693569961011235.253207531051885.081467327763676.156328657387348-.011009296977136.277426724518591-.092475574841956.391920893314818-.252107231295668.357794802432181-.472287921322277.732102500427573-.634121227194555,1.140538389110588-.146419660162792.369904399165534-.247703932469449.754118994573219-.258712179544091,1.151545586279099-.014312296050775.542745952112455.142016361332935,1.043657415633788.449169027615426,1.491725093590503.148622359480214.216878740855464.309354315693781.426051183807431.526232006646751.585681790362287.072659680201468.052843785568257.145319360406575.113392819133878.193758797238843.192658497486264.016513945469342.060550083468115-.0187145449745.100181872741814-.052842735662125.140916061576718-.040733138928772.04073313893241-.082567627519893.081466277861182-.122200466696086.124402116111014-.412839187512873.412839187512873-.826779724684457.825678375025745-1.239618912197329,1.240719211949909-.153025658310071.153025658310071-.279629423836013.324766911500774-.264216828029021.555956898504519.016513945465704.235593285833602.129906764599582.41614113668038.357793752529687.500911463521334.226786688173888.08587062659717.442564079370641.059448733813042.625313579632348-.108989520304021.222383389344031-.205869443878328.430454482637288-.427151483563648.647332173590257-.640727225345472.072659680205106-.072659680201468.142016361332935-.150822958992649.22128203968532-.216877690949332.037430139855132-.030825191613985.073761029863817-.100181872745452.139814711918007-.035228490443842.014312296050775.062751732886682-.027522192540346.108989520304021-.048439436835906.160731956213567-.195961496559903.488800816885487-.197061796312482.961089788113895.116695818211156,1.408056116408261.07045803078654.100182922647946.143117710991646.193759847144975.278529124079796.210272742708185.027522192540346.00330299907364.051742435909546.023119943612983.050641086250835.058348434056825"/>
    <path class="cls-11" d="M17.807129448085107,12.130865694736713c.140916061576718-.593387038363289.383114295651467-1.138335689793166.761825292476715-1.61943125867765.166237654608267-.211373042464402.345685205702466-.41173678794803.552654949337011-.58678104021601.322564212179714-.213575741781824.631918527877133-.445867078440642.984207631918252-.614305332557706.073762079766311-.035228490443842.155228357627493-.025321593031549.221282039681682-.071559380448889-.008806597656076.044037187908543-.018715594880632.088074375817087-.027522192536708.131009164164425-.046237787420978.23559223592747.00330299907364.339077107742924.215776341290621.459076974930213.038531489517482.020916194389429.088074375820725.033025791122782.086971976255882.091375275085738-.022016494145646.04623778741734-.066053682054189.060550083468115-.10788817064531.078163278787542-.53063635538274.228988337588817-.97430073450596.570268144649162-1.324387139226019,1.030447519144218-.466785372645973.622009530656214-.691368311596307,1.328790438055876-.650636222570029,2.097221728683508.059449783719174,1.1174194954001.583480140950996,1.988235358090606,1.525855384086753,2.59703499225725.446965278388234.288436021495727.942373143327131.434855681658519,1.476312497779873.470086271907348.899438354983431.057247084398114,1.683282241414418-.20807214319575,2.360338256959949-.800358881802822.038531489513844-.034128190687625.075962679275108-.071557280640263.132109463917004-.072659680201468.06495338230161.013211996294558.077062979034963.066055781862815.078163278787542.11669686811365.004403298829857.2223823394379.114494168796227.358895102188399.328069910578051.418342786095309.027522192536708.007706297903496.0484404867384.027522192536708.059449783715536.056146784641896.008806597659714.073759979957686-.040734188834904.114494168792589-.088074375820725.155228357627493-.499809063956491.428250733413734-1.071179608170496.713384805741953-1.708601734633703.870814812784374-.780542987169611.181649200509128-1.548974277793604.145319360406575-2.30419357212304-.124402116111014-.792652583902964-.298345018716645-1.448790305243165-.777239988092333-1.944198170182062-1.468606199880014-.22128203968532-.309354315693781-.380911596334045-.652836822075187-.528433656061679-1.001822927042667-.22458503875896-.655039521396247-.292840370228078-1.323288939278427-.179447551094199-2.008051252727455.012109596733353-.074860279713903.025321593027911-.147519959915371.080365978108603-.203666744557268"/>
    <path class="cls-23" d="M20.36805403024664,16.760499753243494c.76622859131021.277427774424723,1.547871878232399.300546668135212,2.339422062566882.132108414018148.052843785568257.143117710991646-.082568677426025.221282039681682-.116696868110012.334674858819199-.269720426615095.499811163765116-.53834055347761,1.00072262728645-.743109697599721,1.53356063208048-.21907934036426.569167844896583-.307151616376359,1.163655183012452-.369904399165534,1.764749569181731-.135410363185656,1.284755349955958-.247703932469449,2.573915048644267-.679256615054328,3.805826613031968-.234494035979878.667148068223469-.570270244457788,1.278150401711173-1.035951117730292,1.81539170533506-.050643186055822.058348434056825-.104587271380296.105686521230382-.186053549241478.110090869962733-.162934655530989.142016361336573-.34898610496748.19706179631612-.561461546993087.149722659236431-.463480273760069-.088072276008461-.715587505059375-.394123592628603-.682561713936593-.858705741000449.055046484889317-.760725517677201.134312163238064-1.518147511324059.180549950659042-2.278872504048195.035228490443842-.563662146505521.11119116971895-1.131729691645887-.014312296050775-1.695391838147771-.052843785568257-.242200333883375-.148622359480214-.467885672398552-.28623542198693-.675955715789314-.172841552943282-.260914878857875-.401829890532099-.437059430878435-.712284505982097-.498709814106405-.323666611748195-.095779623818089-.601094386169279-.503113112936262-.62201163046484-.882925459420221-.018715594880632-.345684155796334.046237787420978-.669350767544529.209172442951967-.97319938484361-.017615295124415-.077064028937457.042934788347338-.112292519381299.08366792727611-.15412700797242.113392819133878-.118897467622446.232291336662456-.232291336662456.345684155796334-.350087454626191.273023425688734-.269721476517589.543846251868672-.540544302697526.813568778292392-.813568778288754.121100166943506-.122200466699724.247703932469449-.236694635492313.388619994046167-.336876508234127.268620126858877-.157430007046059.541643552547612-.105686521230382.814669078044972-.012110646635847.070456980887684.0242202433692.138713362259296.057247084394476.20917034314698.079265678348747.158531356701133.050641086250835.307153716181347.030825191613985.438160780537146-.077062979031325.057247084398114-.047339137079689.110090869966371-.101283222404163.187153848997696-.117797167869867"/>
    <path class="cls-6" d="M25.190896736121431,15.093510977381811c-.197062846222252.233391636418673-.350088504532323.502011763277551-.582377741386154.706780907399661-.047340186982183.040734188838542-.0913752750821.084769276938459-.137613062503078.12770406528216-.177246951581765-.069356681127829-.363298401018255-.12770406528216-.415041886830295-.348986104963842-.018715594880632-.080365978108603.029724891857768-.171741253194341-.039631789270061-.242198234078387-.011009296977136-.015412595806993-.013211996298196-.03192759117519-.006605998150917-.049540786490979.216878740859102-.237797035057156.426049084002443-.479995269131905.576874142800079-.767330990871415.134310063429439-.256510530129162.231188937101251-.52513065698804.295042019643006-.806962780145113.079265678352385-.307151616376359.071559380448889-.623111930217419.108990570210153-.934668945232261.041834488591121-.063850982736767.07596057947012-.018715594880632.110088770157745.007706297903496.242200333883375.183850849924056.353391503605962.178347251337982.55926094748429-.030825191613985.030825191610347-.030825191613985.057247084394476-.078163278787542.112291469475167-.036328790196421.023118893706851.679258714859316-.095778573915595,1.330993137373298-.377610697072669,1.949701768764498-.066053682054189.142016361332935-.140916061576718.280729723592231-.203666744557268.424948784242588"/>
    <path class="cls-10" d="M25.772503847712869,12.718969614426896c-.019815894633211.008806597656076-.047338087173557.012109596733353-.058347384150693.027522192536708-.233391636418673.303850717111345-.455776075665199.30605131662378-.696874009987368.0055056983947-.067153981810407-.024221293275332-.071557280640263-.084771376743447-.078163278787542-.140916061576718-.077062979031325-.662745819299744-.341279807063984-1.241820561612258-.767330990871415-1.751538622789667-.040732089026278-.049540786494617-.105685471327888-.094678274159378-.085869576691039-.17614455202056-.139815761824138-.335776208481548.177244851776777-.637424226271833.485498867714341-.517426458893169.368801999604329.301648017790285.596690037436929.704578208082239.817972077122249,1.117417395591474.241097934318532.45137277683898.311554915206216.942375243139395.383114295651467,1.435580408757232"/>
    <path class="cls-16" d="M22.432690927633303,9.025435520776227c-.057247084398114-.006605998150917-.119997767378663.025321593027911-.170640953438124-.026421892784128.058349483962957-.002200599512435.121100166943506-.027522192540346.170640953438124.026421892784128"/>
    <path class="cls-23" d="M17.807129448085107,12.130865694736713c-.153025658310071.756321693894279-.089172575764678,1.499431391490361.145319360406575,2.230431492356729-.005503598586074.0484404867384-.030825191613985.085871676499664-.06275068298055.119999867187289-.171741253190703.184951149676635-.166237654608267.394123592632241-.078165378596168.609899933922861.085871676499664.210272742708185.135412462990644.424950884051214.11119116971895.653937121831405-.008806597659714.080368077917228-.036328790196421.15632865738371-.06495338230161.231191036906239-.025319493219286.072659680205106-.07926357854376.124403166017146-.132107364108379.177244851776777-.258713229446585.259814579105296-.517425408990675.519627058401966-.778340287852188.777239988092333-.047339137076051.047338087177195-.085870626593533.111191169722588-.168438254117063.103484871819091-.397426591702242-.331372909651691-.761826342379209-.692468611348886-.966594436598825-1.181270478140505-.17284155294692-.413941587074078-.266418477447587-.835587372243026-.21687769095297-1.297967346250516.08587062659717-.813568778288754.433756431808433-1.507137689393858.898338055227214-2.156671512399043.071558330546395-.101284272306657.112292519381299-.211373042460764.11119116971895-.33577620847791.311555965112348.068256381375249.620910280806129.143118760897778.944575842648192.074862379522528.082567627523531-.017615295124415.171742303096835-.005505698391062.257611879787873-.006605998147279"/>
    <path class="cls-19" d="M16.779215348125945,17.034074378716468c.35669345277347-.336876508234127.707881207155879-.679258714862954,1.035952167636424-1.044757715390006.258711129634321-.223484739002743.683659913880547-.195962546466035.910447651956929.060550083471753.23889523500111.268620126858877.217979040611681.719990803885594-.017615295124415.878521110687871l-1.159251884182595,1.135032690715889c-.259813529202802.13210841401451-.516325109234458.124402116114652-.737606099013647-.066054731960321-.213575741781824-.182750550167839-.312657314771059-.420545485412731-.209172442951967-.707881207152241.031926541272696-.055045434983185.071559380448889-.105687571136514.106787870889093-.159631656460988.023118893710489-.031926541272696.047339137079689-.063852032639261.070458030790178-.095778573911957"/>
    <path class="cls-25" d="M16.641493095570695,17.269227754626627c-.075962679278746.423848484490009.089173625667172.737606099013647.433756431804795.8168707274599.158530306798639.036329840102553.315959263938566-.001100299756217.473389270984626-.023118893710489-.154127007968782.159631656460988-.308254015941202.319262263015844-.461279674251273.478893919473194-.313757614523638.309354315693781-.625313579632348.622010580558708-.942374193233263.926961597426271-.310454615449999.299446368375357-.791550184334483.236694635488675-.99741962821281-.131008114261931-.125502415867231-.223483689100249-.115594468548807-.453572326441645.034128190687625-.662743719491118.075962679275108-.105687571132876.172842602849414-.198163145974831.265318177687732-.290638720813149.385316994972527-.385316994972527.771734289701271-.767330990871415,1.157050234771305-1.150445286526519.033027890931407-.009908997220919.047339137079689,0,.037431189761264.035228490443842"/>
    <path class="cls-21" d="M16.641493095570695,17.269227754626627c-.012109596733353-.012109596733353-.025320543125417-.0242202433692-.037431189761264-.035228490443842.023119943612983-.046238837323472.058348434056825-.080365978104965.104586221474165-.103485921717947-.005504648488568.053945135226968-.025320543121779.102384572059236-.0671550317129.138714412161789"/>
    <path class="cls-5" d="M19.153096321248086,10.991209225274361c.06165038322797.06495338230161.140916061576718.036330890008685.211373042464402.035228490443842.649533823001548-.015412595806993,1.295764646929456.007706297903496,1.928785574371432.173943952511763.011009296977136.071557280636625-.0484404867384.100181872741814-.089172575764678.134310063429439-.255410230372945.215776341290621-.325869311065617.484398567958124-.241100034127157.802559481311619.017615295124415.06495338230161.049540786490979.129906764599582.027524292345333.200363745487266-.066055781862815.047340186982183-.118897467622446-.004403298829857-.175044252264343-.024219193466706-.215778441099246-.074862379522528-.439261080297001-.013211996294558-.551552549772168.15632865738371-.136512762746861.204767044317123-.126605865334568.41724248634273.046237787420978.595589737680712.310454615449999.321463912427134.629715828559711.634119127389567.945676142400771.948979141478048.156328657387348.15412595806265.339079207555187.175044252264343.540543252795032.108988470401528.055046484885679-.017613195319427.110090869962733-.071557280640263.172843652755546-.01320989648957.035228490440204.060550083471753.045137487664761.128806464847003.057247084394476.197062846218614.103484871819091.596690037436929.535039654208958.97099773543232,1.14383928837924.980904632844613.239997634565952.004403298829857.481095568884484.018715594880632.721091103641811-.015412595806993.045137487664761-.006605998147279.091375275085738-.007706297899858.126605865334568.031925491370203,0,.009908997220919-.001100299752579.020918294198054-.002202699317422.03192759117519-.452470976782934.435958081223362-.987510630991892.726596802036511-1.601815963553236.848797268736234-1.244021161121054.246601532904606-2.516666914343659-.184953249488899-3.325832393806195-1.293564047424297-.444764678879437-.609899933922861-.650634122757765-1.300167945759313-.614305332557706-2.048783341750095.033027890931407-.68145931437175.238897334809735-1.313377842248883.679258714859316-1.851720495535119"/>
    <path class="cls-17" d="M18.707561012577571,16.928827767405892c.097981273233017-.171741253190703.175044252264343-.347885805211263.133209763676859-.553755249089591-.077062979034963-.386417294728744-.50531476235119-.607699334414065-.867512863616867-.448067677953077-.05174348581204.022018593954272-.095778573911957.064953382297972-.158531356701133.06275068298055.11669686811365-.296142319399223.081468377669808-.583478041138733-.038531489517482-.868613163369446-.145319360406575-.346785505455045-.108988470401528-.496508164691477.17614455202056-.759624692967918.148622359480214.322566311991977.293941719886789.646230823927908.502013863086177.936869544744695.489902166544198.681461414176738,1.12512369349497,1.171363580724574,1.913370878759451,1.462002301537723-.253207531055523.295042019643006-.41393948726909.336876508234127-.765128291553992.189355498412624-.297244718964066-.124402116111014-.593387038359651-.168438254117063-.895035056153574-.020917244295561"/>
    <path class="cls-23" d="M24.01843285564064,15.304113390055136c-.266419527350081.0484404867384-.536139953965176.036330890005047-.804762180632679.033027890931407-.376508297504188-.004405398638482-.705678507834818-.125503465769725-.967694736355043-.407335588926799-.220179640120477-.237794935244892-.265317127785238-.536139953965176-.299445318472863-.838888271511678-.008806597659714-.089174675573304.063853082545393-.129906764599582.113393869036372-.180549950659042.342380106820201-.344582806133985.68145931437175-.693568911101465,1.032648118656653-1.029345119583013.183850849924056-.176144552016922.344582806137623-.359995401940978.409536188439233-.612102633240283.118897467622446.036328790196421.202566444804688.12770406528216.28623542198693.206969743634545.39192089331118.373207398239174.77613758852749.754118994573219,1.063473310267,1.218701667898131.014312296054413.023118893710489.040734188838542.038531489517482.06165038322797.057247084398114-.142016361332935.607699334410427-.416142186586512,1.139435989545746-.895035056153574,1.552275177058618"/>
    <path class="cls-18" d="M23.502549756138251,12.268919717065728c0,.188254148753913-.075962679278746.337976807990344-.210272742708185.471186571663566-.452470976782934.446967378200497-.898338055227214.899440454792057-1.346405733180291,1.350811131818773-.312657314771059.187153848997696-.51412345981953.162932555726002-.768431290627632-.090274975329521-.271923125932517-.271923125932517-.543846251865034-.543846251865034-.815771477609815-.815769377801189-.26751982710266-.26751982710266-.308251916128938-.517426458889531-.123300766452303-.760724992720498.165135255043424-.219081440176524.430454482637288-.246603632716869.742009397843503-.077065078843589.178347251337982.071559380448889.276326424762374.234494035979878.407335588926799.358895102188399.24109793432217.227888037832599.19265744758377.234494035983516.433755381902301-.004403298829857.247703932469449-.247703932465811.493205165617837-.496508164691477.743111797408346-.742009397839865.077062979031325-.075962679278746.155226257818867-.155228357631131.279629423836013-.140916061580356.408435888683016-.013209896485932.544946551621251.080365978108603.658340420661261.450270377274137"/>
    <path class="cls-23" d="M22.844318525529161,11.8191994896697c-.121100166943506.055044385077053-.22128203968532.136512762750499-.314857914279855.231188937097613-.276328524570999.281832123157074-.558158547919447.557058248166868-.834487072490447.837790071567724-.06165038322797.063850982733129-.103484871815454.090272875517257-.17614455202056.009906897412293-.175044252264343-.187153848997696-.358895102188399-.367701699848112-.538342653282598-.550452250015951-.05944768390691-.189354448506492-.122200466699724-.375407997751608-.090272875520895-.581277441629936.040732089026278-.257610829881742.21907934036426-.412839187509235.402930190288316-.565864845822944.543846251868672.139815761824138,1.070079308417917.321463912430772,1.551174877306039.6187086313912"/>
  </g>
</svg>