<?xml version="1.0" encoding="UTF-8"?>
<svg id="Capa_1" data-name="Capa 1" xmlns="http://www.w3.org/2000/svg" viewBox="0 0 79.617963797090852 42.62939453125">
  <defs>
    <style>
      .cls-1 {
        fill: #fff;
      }
    </style>
  </defs>
  <path class="cls-1" d="M67.222967154024445,20.183001300532851h-5.513999938964844v13.890998840332031h5.513999938964844v-10.549999237060547h3.442001342773438c2.498001098632812,0,3.332000732421875,1.187000274658203,3.332000732421875,2.369998931884766v8.180000305175781h5.620994567871094v-8.838998794555664c0-3.554000854492188-2.189994812011719-5.052000045776367-6.557998657226562-5.052000045776367h-5.836997985839844ZM40.150968557833039,20.183001300532851h-5.625v13.890998840332031h5.625v-7.541000366210938h.103000640869141l5.620998382568359,7.541000366210938h6.458999633789062l-6.76300048828125-7.968999862670898,6.450000762939453-5.921998977661133h-6.243000030517578l-5.523998260498047,5.71099853515625h-.103000640869141v-5.71099853515625ZM53.379968649385773,20.183001300532851h6.033000946044922v13.890999794006348h-6.033000946044922v-13.890999794006348Z"/>
  <g>
    <path class="cls-1" d="M29.91497802734375,27.14239501953125V0H0v27.1519775390625h.00048828125v.00042724609375C.00048828125,35.69940185546875,6.697509765625,42.62939453125,14.95849609375,42.62939453125c8.260009765625,0,14.95697021484375-6.92999267578125,14.95697021484375-15.47698974609375,0-.00335693359375-.00048828125-.00665283203125-.00048828125-.010009765625ZM15.1585693359375,39.30987548828125c-6.4840087890625,0-11.75201416015625-5.4329833984375-11.75201416015625-12.1619873046875,0-6.719970703125,5.26800537109375-12.15301513671875,11.75201416015625-12.15301513671875,6.4930419921875,0,11.7550048828125,5.43304443359375,11.7550048828125,12.15301513671875,0,6.72900390625-5.261962890625,12.1619873046875-11.7550048828125,12.1619873046875Z"/>
    <polygon class="cls-1" points="18.53155517578125 26.31787109375 18.95855712890625 25.78192138671875 22.3975830078125 21.37091064453125 18.95855712890625 21.37091064453125 18.6435546875 21.37091064453125 16.03961181640625 25.56787109375 15.41558837890625 26.53192138671875 16.03961181640625 27.723876953125 18.7425537109375 32.8939208984375 22.49859619140625 32.8939208984375 18.95855712890625 27.07391357421875 18.53155517578125 26.31787109375"/>
    <polygon class="cls-1" points="13.01556396484375 30.30987548828125 15.0025634765625 26.53192138671875 12.1845703125 22.221923828125 11.66461181640625 21.37091064453125 8.0225830078125 21.37091064453125 11.76556396484375 26.31787109375 7.81158447265625 32.8939208984375 12.1845703125 32.8939208984375 16.03961181640625 32.8939208984375 16.55859375 32.8939208984375 16.55859375 30.30987548828125 16.03961181640625 30.30987548828125 13.01556396484375 30.30987548828125"/>
  </g>
</svg>