<?xml version="1.0" encoding="UTF-8"?>
<svg id="Capa_1" data-name="Capa 1" xmlns="http://www.w3.org/2000/svg" viewBox="0 0 205.451847064021422 35.035186057361898">
  <defs>
    <style>
      .cls-1 {
        fill: #006e63;
      }

      .cls-2 {
        fill: #fff;
      }

      .cls-3 {
        fill: #b7dff0;
      }
    </style>
  </defs>
  <polygon class="cls-3" points="205.451875680448211 11.763989819735798 193.687837594510711 11.763989819735798 193.687837594510711 .000012768954548 183.044832223416961 .000012768954548 183.044832223416961 11.763989819735798 171.280855172635711 11.763989819735798 171.280855172635711 22.406995190829548 183.044832223416961 22.406995190829548 183.044832223416961 34.170972241610798 193.687837594510711 34.170972241610798 193.687837594510711 22.406995190829548 205.451875680448211 22.406995190829548 205.451875680448211 11.763989819735798"/>
  <g>
    <polygon class="cls-2" points="13.615755074979461 28.133801831454548 10.896028512479461 19.703137768954548 8.346223824979461 19.703137768954548 5.541536324979461 28.065442456454548 2.855501168729461 19.703137768954548 .000032418729461 19.703137768954548 3.909700387479461 31.601575268954548 6.850130074979461 31.601575268954548 9.552766793729461 23.543958081454548 12.170930856229461 31.601575268954548 15.128450387479461 31.601575268954548 19.021028512479461 19.703137768954548 16.386262887479461 19.703137768954548 13.615755074979461 28.133801831454548"/>
    <path class="cls-2" d="M24.479036324979461,22.320325268954548c-2.78759765625,0-4.87841796875,1.9716796875-4.87841796875,4.708984375,0,2.7197265625,2.056640625,4.7080078125,5.21826171875,4.7080078125,1.64892578125,0,2.923828125-.509765625,3.77392578125-1.478515625l-1.4111328125-1.5302734375c-.62890625.595703125-1.32568359375.8837890625-2.29443359375.8837890625-1.39404296875,0-2.36279296875-.6962890625-2.61767578125-1.8349609375h6.91796875c.01708984375-.2216796875.05126953125-.5107421875.05126953125-.7138671875,0-2.94140625-2.07373046875-4.7431640625-4.759765625-4.7431640625ZM22.235383981229461,26.230481518954548c.18701171875-1.1728515625,1.0537109375-1.904296875,2.2607421875-1.904296875,1.18994140625,0,2.056640625.748046875,2.24365234375,1.904296875h-4.50439453125Z"/>
    <path class="cls-2" d="M39.490266793729461,22.320325268954548c-2.90673828125,0-5.03173828125,1.955078125-5.03173828125,4.708984375s2.125,4.7080078125,5.03173828125,4.7080078125c2.90625,0,5.01416015625-1.9541015625,5.01416015625-4.7080078125s-2.10791015625-4.708984375-5.01416015625-4.708984375ZM39.490266793729461,29.561536206454548c-1.326171875,0-2.34619140625-.951171875-2.34619140625-2.5322265625s1.02001953125-2.533203125,2.34619140625-2.533203125c1.32568359375,0,2.32861328125.9521484375,2.32861328125,2.533203125s-1.0029296875,2.5322265625-2.32861328125,2.5322265625Z"/>
    <path class="cls-2" d="M55.079072946073211,22.269544018954548c0-.9013671875.42529296875-1.326171875,1.20703125-1.326171875.408203125,0,.7822265625.119140625,1.07080078125.3232421875l.697265625-1.9208984375c-.4931640625-.33984375-1.27490234375-.4931640625-2.02294921875-.4931640625-2.27783203125,0-3.53558349609375,1.3427734375-3.53558349609375,3.400390625v.4072265625h-3.65576171875v-.390625c0-.9013671875.42529296875-1.326171875,1.20703125-1.326171875.408203125,0,.7822265625.119140625,1.07080078125.3232421875l.697265625-1.9208984375c-.4931640625-.33984375-1.27490234375-.4931640625-2.02294921875-.4931640625-2.27783203125,0-3.53564453125,1.3427734375-3.53564453125,3.400390625v.4072265625h-1.41064453125v2.0400390625h1.41064453125v6.9013671875h2.65185546875v-6.9013671875h3.58740234375v6.9013671875h2.65179443359375v-6.9013671875h2.27783203125v-2.0400390625h-2.34619140625v-.390625Z"/>
    <path class="cls-2" d="M62.609834664823211,22.320325268954548c-2.78759765625,0-4.87841796875,1.9716796875-4.87841796875,4.708984375,0,2.7197265625,2.056640625,4.7080078125,5.21826171875,4.7080078125,1.64892578125,0,2.923828125-.509765625,3.77392578125-1.478515625l-1.4111328125-1.5302734375c-.62890625.595703125-1.32568359375.8837890625-2.29443359375.8837890625-1.39404296875,0-2.36279296875-.6962890625-2.61767578125-1.8349609375h6.91796875c.01708984375-.2216796875.05126953125-.5107421875.05126953125-.7138671875,0-2.94140625-2.07373046875-4.7431640625-4.759765625-4.7431640625ZM60.366182321073211,26.230481518954548c.18701171875-1.1728515625,1.0537109375-1.904296875,2.2607421875-1.904296875,1.18994140625,0,2.056640625.748046875,2.24365234375,1.904296875h-4.50439453125Z"/>
    <path class="cls-2" d="M71.331026071073211,23.663098706454548v-1.20703125h-2.533203125v9.1455078125h2.65185546875v-4.3173828125c0-1.7509765625.96923828125-2.5498046875,2.4306640625-2.5498046875.2041015625,0,.3740234375.0166015625.59521484375.0341796875v-2.4482421875c-1.4111328125,0-2.4990234375.458984375-3.14453125,1.3427734375Z"/>
    <path class="cls-2" d="M84.199678414823211,28.661145581454548l-2.56689453125-6.205078125h-2.736328125l3.96044921875,9.2138671875-.0341796875.0849609375c-.35693359375.8154296875-.7646484375,1.138671875-1.49560546875,1.138671875-.52734375,0-1.087890625-.220703125-1.49609375-.578125l-.96875,1.88671875c.5947265625.52734375,1.61474609375.8330078125,2.5498046875.8330078125,1.64892578125,0,2.90673828125-.6630859375,3.79052734375-2.873046875l4.13037109375-9.7060546875h-2.5498046875l-2.58349609375,6.205078125Z"/>
    <path class="cls-2" d="M94.433565133573211,22.320325268954548c-2.90673828125,0-5.03173828125,1.955078125-5.03173828125,4.708984375s2.125,4.7080078125,5.03173828125,4.7080078125c2.90625,0,5.01416015625-1.9541015625,5.01416015625-4.7080078125s-2.10791015625-4.708984375-5.01416015625-4.708984375ZM94.433565133573211,29.561536206454548c-1.326171875,0-2.34619140625-.951171875-2.34619140625-2.5322265625s1.02001953125-2.533203125,2.34619140625-2.533203125c1.32568359375,0,2.32861328125.9521484375,2.32861328125,2.533203125s-1.0029296875,2.5322265625-2.32861328125,2.5322265625Z"/>
    <path class="cls-2" d="M107.437959664823211,22.456067456454548v4.521484375c0,1.68359375-.8837890625,2.46484375-2.10791015625,2.46484375-1.1728515625,0-1.8525390625-.6796875-1.8525390625-2.208984375v-4.77734375h-2.65185546875v5.16796875c0,2.8212890625,1.61474609375,4.11328125,3.90966796875,4.11328125,1.1220703125,0,2.1416015625-.4248046875,2.8388671875-1.2236328125v1.087890625h2.515625v-9.1455078125h-2.65185546875Z"/>
  </g>
  <g>
    <path class="cls-1" d="M124.633905991395295,34.85376006633669c-.140008910442702-.169135790672954-.36769855051898-.234592769544179-.52160549569453-.384821163866945-1.994083540346764-1.946422678172894-4.031963174660632-9.803093695883945-4.05985513410269-12.590760917129955-.010172106358368-1.016653115377267.376908486874527-2.143202712855782.016351599873815-3.095561225639358.343685554378681-.829305703203318,2.082560106277015-1.138726183420658,2.301085534598315-.166913677197044.155522716475389.691630818586418-.034039139936795,1.960556598329276.014621827618612,2.745086136019381.027992311874186.451302072186081.132662744743357.980858985550185.203532200155678,1.435351433214237.368028885657623,2.360203674246804,1.058678255973064,4.8163616934944,1.874443176198838,7.055378403074428.238715758088802.070519983579288.191542295600811-.244326347507013.229212238580658-.415617889881105.746949743321238-3.396505635289941.451999870261716-6.409909982536192,2.25954013145747-9.645857485891611.356255619524745-.637786337217221.888089490284983-1.710556680783156,1.606640129479274-.798326477367482,1.57380226200803,1.998008044664857,2.028777245117453,6.195246705802674,2.9845927783972,8.662529442131017.296560663462515.765523241425399.679258394602584,1.387633697846468,1.039248866223716,2.111154090737728.18374479450722.135794328801239.543955766970612-.733295676223861.618688781960373-.89010850118666.791931590068998-1.661715773570904,1.371758528555802-3.4389454163138,2.12870674095393-5.11882046070059.25397800178871-.563646627384514.937995544174555-2.208682504373428,1.310935353652894-2.571405265133762.267264288611841-.259942323546966.959083841271422-.190697244784133,1.321080181473008-.111872318338101.768956594038173.16744077282965,1.107895157912935,2.46286527600023,1.243168807704933,3.157064311348222.57629810454273,2.957453937735409.215321898971524,4.712482208568872,2.486642971374749,7.003692242677062.52335843158653.527941251661105,1.423697794292821.820409205767646.566972111811992,1.682653563730128-.749823660224138.754653716721805-2.170733108278.926674373306014-3.027273506999336.256330052397971-1.597344845305997-1.250111550112706-2.41567096210747-4.809096110177052-2.766055631867857-6.726085406462516-.025712802096677-.140677291699831.057386353870243-.150032403897058-.168515525034309-.130509237416845-.745506207273138,2.033675447682072-1.03794067837589,4.361559502460295-2.177571047981473,6.235281212355403-.618477010471906,1.016868128910573-1.81477581877698,2.110732631367682-2.870360001361405.915864269253689-1.393992574325239-1.577929691989084-2.486532345976229-6.562265354422379-3.330387149761009-8.748482801386672-.148519178188508-.384776168970347-.296640082664453-.89276660192445-.605248200650749-1.162610950737871-.651581368343614,2.513191084086429-.922558843805746,5.129516882609096-1.122940923494752,7.71927899077491-.06281820888762.811870090044977.028627570902245,1.883595713321483-.092828656706843,2.667002711605164-.071261305423832.459643827853142-.418291952613799.682631643931018-.771812075559865.91108691901718h-.691010082300636Z"/>
    <path class="cls-1" d="M177.150672246199974,22.607658248611187c-.219837648432076-.003678946631226-.969600131593324.461422161501105-1.299680005406117.556522219545514-.561961969950062.161908132551616-1.479716053405355.323191850056901-1.637112844367948-.470282065902211-.348384788399926-1.756288934600889,3.172510221233097-1.972238529455353,3.7317977455441-3.302265269078816.245526742344737-.583880595247138.05147046993261-1.250071058499998-.600066494125713-1.420002418886725-2.32197232159524-.605607873626468-3.780500490660415,2.955506904571848-4.168246374869341,4.722267687965541-.592240245105131,2.698537578395189-.194065737539859,5.494304561634635,2.447134916954383,6.913777805213613,2.633568256307626,1.415371326904278,4.786132498520601.136581021121856,7.142320973225651-1.092605808211374.165001452904107-.176249595584522-.130608998701064-.825490533767152-.163828391431707-1.131682521339826-.032196696650317-.296765525501542-.047321657365501-.822968665497683-.012863276574535-1.112542973984091.037202900926786-.312638146719109.229404682910172-.415425198343655.261376930026017-.558541124068142.152736877153075-.101111492263954.553098245702131-.153394467912221.653617842608583-.005488082650118.170644864190763,1.160393295143876.233927591376414,2.958959569801664,1.472057694898467,3.531892123639409.402963598598944.186467450384953,1.96485139656761.182679573546011,1.377275589540659.963526628023828-.655332249896674.870890616866745-2.190370435344448-.008389976233957-2.895519923714346-.435206821432075-.095381377702324.319853862813034-.440082356603853.565479159202368-.693807463619123.774724756593059-2.699863717362859,2.226561663732355-7.566496639736215,2.880591795397777-10.017080494051697-.045681733245146-2.242510356936691-2.677810303715887-1.956827307567437-5.795171600853791-1.557338384474861-9.009534399581753.045402820318486-.01095009850178.076872419384017-.039886246031529.086376260287579-.086240153646941.010932242794297-.053320776047258-.014966686479966-.131358861781337,0-.172480307290243,1.274124356164975-3.500697055305864,3.697343568219367-7.897954260040933,7.905440660806562-4.400257508722461,2.871821682536392,2.38700798683476.127471453088219,4.420113393930478-2.031854961256613,5.780099967058959Z"/>
    <path class="cls-1" d="M150.911591896248865,21.984987882236965c.070838846671904.04950792380987.320642801914801.041386452881852.460346802430649.100209030768383.422034530854944.177698268986205,1.059151464738534.471088168380447,1.253303967443571.905122239078992.819877179596006,1.832861409318866.81828996116019,5.926976392434881-.017799601320803,7.754681850229645-1.580918900353936,3.455914572034999-5.200871801176618,3.127399099729701-6.593939837470316-.290959265924357-1.136800252052126-2.789519643292806-.737596083021344-6.849746651161695,1.253548308788595-9.180544561300849.887738957162583-1.039171299989903,1.772730001483069-1.154962957169118,2.891003626471502-.304366053744161.347856458658498.264591438051866.701118695593323.97922279017439.753536733656802,1.015856760892348ZM150.282169109828828,23.557801386015853c-.634188005791657.115538298236061-1.102684724643041-.243753164842929-1.725352643381484.210786695999559-1.186528786825875.866151303798688-.961139917641049,4.488217047091894-.577007527430396,5.757128175573598.570419861869595,1.884277736226977,1.886114030654426,1.792248008718161,2.547477593932854.004807537909073.687220436127973-1.857322792040577.60222233616696-4.186736611147353-.245117423120973-5.97272240948223Z"/>
    <path class="cls-1" d="M158.81461043994932,20.468870789436551c.856212318347389-.191977860040424.838791941185264,1.035760596303589,1.367677903283038,1.105754971118586.482711157837912.063883460952638,1.494803162822791-.520015963593323,2.006700459724925-.667211627856886,1.13899448723987-.327516967083284,4.391755534611548-.350905165132644,5.434586981388748.216707098727056.873223223417881.475294653064338.435390517824089,1.210829217811806-.287257511248754,1.559145592329514-1.685141352336359.812238188964329-2.863657326413886.019086753673037-4.557121512412778.279506948605558-1.032318465839126.158749490145055-1.872052704864473.526780241869346-2.217283240452161,1.580778299745361-.379059193819558,1.157277856145811-.180207335073646,4.064161447287916.029601694508528,5.326353743228537.197628349314982,1.188914416412445,1.078479005956979,2.624325950564526-.253448652747466,3.418441852845717-.641732580397729.382610905162437-1.036482186022113-.058436295423235-1.362413836730411-.597763280398794-1.003603516683143-1.660687010866241-1.833938410929477-6.808668267171015-1.690412179319537-8.745096341039243.060039968035198-.810047601420592.600269261629364-3.26829655536676,1.529369894005868-3.476617257305406Z"/>
  </g>
</svg>