<?xml version="1.0" encoding="UTF-8"?>
<svg id="Capa_1" data-name="Capa 1" xmlns="http://www.w3.org/2000/svg" viewBox="0 0 242.415225970271422 43.658828211162472">
  <defs>
    <style>
      .cls-1 {
        fill: #006e63;
      }

      .cls-2 {
        fill: #fff;
      }

      .cls-3 {
        fill: #b7dff0;
      }
    </style>
  </defs>
  <polygon class="cls-3" points="242.415254586698211 11.763995774992509 230.651216500760711 11.763995774992509 230.651216500760711 -.000042310944991 220.008211129666961 -.000042310944991 220.008211129666961 11.763995774992509 208.244234078885711 11.763995774992509 208.244234078885711 22.407001146086259 220.008211129666961 22.407001146086259 220.008211129666961 34.170978196867509 230.651216500760711 34.170978196867509 230.651216500760711 22.407001146086259 242.415254586698211 22.407001146086259 242.415254586698211 11.763995774992509"/>
  <g>
    <polygon class="cls-2" points="8.193391793729461 23.926593431242509 2.277864449979461 16.702960618742509 .000032418729461 16.702960618742509 .000032418729461 28.601398118742509 2.719758981229461 28.601398118742509 2.719758981229461 21.376788743742509 8.652376168729461 28.601398118742509 10.913118356229461 28.601398118742509 10.913118356229461 16.702960618742509 8.193391793729461 16.702960618742509 8.193391793729461 23.926593431242509"/>
    <path class="cls-2" d="M17.900911324979461,19.320148118742509c-2.90673828125,0-5.03173828125,1.955078125-5.03173828125,4.708984375s2.125,4.7080078125,5.03173828125,4.7080078125c2.90625,0,5.01416015625-1.9541015625,5.01416015625-4.7080078125s-2.10791015625-4.708984375-5.01416015625-4.708984375ZM17.900911324979461,26.561359056242509c-1.326171875,0-2.34619140625-.951171875-2.34619140625-2.5322265625s1.02001953125-2.533203125,2.34619140625-2.533203125c1.32568359375,0,2.32861328125.9521484375,2.32861328125,2.533203125s-1.0029296875,2.5322265625-2.32861328125,2.5322265625Z"/>
    <path class="cls-2" d="M31.245637887479461,23.977374681242509c0,1.68359375-.8837890625,2.46484375-2.10791015625,2.46484375-1.1728515625,0-1.8525390625-.6796875-1.8525390625-2.208984375v-4.77734375h-2.65185546875v5.16796875c0,2.8212890625,1.61474609375,4.11328125,3.90966796875,4.11328125,1.1220703125,0,2.1416015625-.4248046875,2.8388671875-1.2236328125v1.087890625h2.515625v-9.1455078125h-2.65185546875v4.521484375Z"/>
    <path class="cls-2" d="M38.232942574979461,22.175616868742509c0-.4755859375.509765625-.849609375,1.69970703125-.849609375.8330078125,0,1.73388671875.169921875,2.634765625.6796875l.8837890625-1.88671875c-.86669921875-.509765625-2.2607421875-.798828125-3.5185546875-.798828125-2.66845703125,0-4.232421875,1.2236328125-4.232421875,2.9580078125,0,3.654296875,5.5244140625,2.125,5.5244140625,3.6201171875,0,.5107421875-.458984375.8330078125-1.68310546875.8330078125-1.12158203125,0-2.3623046875-.3564453125-3.1787109375-.8837890625l-.8837890625,1.904296875c.85009765625.560546875,2.4140625.9853515625,3.9609375.9853515625,2.736328125,0,4.3173828125-1.20703125,4.3173828125-2.90625,0-3.603515625-5.5244140625-2.0908203125-5.5244140625-3.6552734375Z"/>
    <polygon class="cls-2" points="54.110322946073211 25.677569993742509 51.577669137479461 19.455890306242509 48.841341012479461 19.455890306242509 52.682649606229461 28.601398118742509 55.419404977323211 28.601398118742509 59.277803414823211 19.455890306242509 56.727998727323211 19.455890306242509 54.110322946073211 25.677569993742509"/>
    <path class="cls-2" d="M64.718233102323211,19.320148118742509c-2.90673828125,0-5.03173828125,1.955078125-5.03173828125,4.708984375s2.125,4.7080078125,5.03173828125,4.7080078125c2.90625,0,5.01416015625-1.9541015625,5.01416015625-4.7080078125s-2.10791015625-4.708984375-5.01416015625-4.708984375ZM64.718233102323211,26.561359056242509c-1.326171875,0-2.34619140625-.951171875-2.34619140625-2.5322265625s1.02001953125-2.533203125,2.34619140625-2.533203125c1.32568359375,0,2.32861328125.9521484375,2.32861328125,2.533203125s-1.0029296875,2.5322265625-2.32861328125,2.5322265625Z"/>
    <path class="cls-2" d="M78.062959664823211,23.977374681242509c0,1.68359375-.8837890625,2.46484375-2.10791015625,2.46484375-1.1728515625,0-1.8525390625-.6796875-1.8525390625-2.208984375v-4.77734375h-2.65185546875v5.16796875c0,2.8212890625,1.61474609375,4.11328125,3.90966796875,4.11328125,1.1220703125,0,2.1416015625-.4248046875,2.8388671875-1.2236328125v1.087890625h2.515625v-9.1455078125h-2.65185546875v4.521484375Z"/>
    <path class="cls-2" d="M85.050264352323211,22.175616868742509c0-.4755859375.509765625-.849609375,1.69970703125-.849609375.8330078125,0,1.73388671875.169921875,2.634765625.6796875l.8837890625-1.88671875c-.86669921875-.509765625-2.2607421875-.798828125-3.5185546875-.798828125-2.66845703125,0-4.232421875,1.2236328125-4.232421875,2.9580078125,0,3.654296875,5.5244140625,2.125,5.5244140625,3.6201171875,0,.5107421875-.458984375.8330078125-1.68310546875.8330078125-1.12158203125,0-2.3623046875-.3564453125-3.1787109375-.8837890625l-.8837890625,1.904296875c.85009765625.560546875,2.4140625.9853515625,3.9609375.9853515625,2.736328125,0,4.3173828125-1.20703125,4.3173828125-2.90625,0-3.603515625-5.5244140625-2.0908203125-5.5244140625-3.6552734375Z"/>
    <path class="cls-2" d="M101.369600289823211,19.320148118742509c-2.90625,0-5.03125,1.955078125-5.03125,4.708984375s2.125,4.7080078125,5.03125,4.7080078125c2.90673828125,0,5.0146484375-1.9541015625,5.0146484375-4.7080078125s-2.10791015625-4.708984375-5.0146484375-4.708984375ZM101.369600289823211,26.561359056242509c-1.32568359375,0-2.345703125-.951171875-2.345703125-2.5322265625s1.02001953125-2.533203125,2.345703125-2.533203125c1.326171875,0,2.3291015625.9521484375,2.3291015625,2.533203125s-1.0029296875,2.5322265625-2.3291015625,2.5322265625Z"/>
    <path class="cls-2" d="M111.059541696073211,19.269366868742509c0-.9013671875.42529296875-1.326171875,1.20703125-1.326171875.408203125,0,.78173828125.119140625,1.07080078125.3232421875l.697265625-1.9208984375c-.4931640625-.33984375-1.27490234375-.4931640625-2.02294921875-.4931640625-2.27783203125,0-3.53564453125,1.3427734375-3.53564453125,3.400390625v.4072265625h-1.4111328125v2.0400390625h1.4111328125v6.9013671875h2.65185546875v-6.9013671875h2.27783203125v-2.0400390625h-2.34619140625v-.390625Z"/>
    <path class="cls-2" d="M118.845674508573211,17.943194993742509c.408203125,0,.78173828125.119140625,1.07080078125.3232421875l.697265625-1.9208984375c-.4931640625-.33984375-1.27490234375-.4931640625-2.02294921875-.4931640625-2.27783203125,0-3.53564453125,1.3427734375-3.53564453125,3.400390625v.4072265625h-1.4111328125v2.0400390625h1.4111328125v6.9013671875h2.65185546875v-6.9013671875h2.27783203125v-2.0400390625h-2.34619140625v-.390625c0-.9013671875.42529296875-1.326171875,1.20703125-1.326171875Z"/>
    <path class="cls-2" d="M123.843721383573211,20.662921556242509v-1.20703125h-2.53271484375v9.1455078125h2.6513671875v-4.3173828125c0-1.7509765625.96923828125-2.5498046875,2.4306640625-2.5498046875.2041015625,0,.3740234375.0166015625.59521484375.0341796875v-2.4482421875c-1.4111328125,0-2.4990234375.458984375-3.14453125,1.3427734375Z"/>
    <path class="cls-2" d="M132.989717477323211,19.320148118742509c-2.90673828125,0-5.03173828125,1.955078125-5.03173828125,4.708984375s2.125,4.7080078125,5.03173828125,4.7080078125c2.90625,0,5.01416015625-1.9541015625,5.01416015625-4.7080078125s-2.10791015625-4.708984375-5.01416015625-4.708984375ZM132.989717477323211,26.561359056242509c-1.326171875,0-2.34619140625-.951171875-2.34619140625-2.5322265625s1.02001953125-2.533203125,2.34619140625-2.533203125c1.32568359375,0,2.32861328125.9521484375,2.32861328125,2.533203125s-1.0029296875,2.5322265625-2.32861328125,2.5322265625Z"/>
    <path class="cls-2" d="M145.331514352323211,19.320148118742509c-1.2412109375,0-2.3115234375.4248046875-3.025390625,1.20703125v-1.0712890625h-2.533203125v9.1455078125h2.65234375v-4.521484375c0-1.6826171875.91796875-2.46484375,2.1923828125-2.46484375,1.1728515625,0,1.8525390625.6796875,1.8525390625,2.1591796875v4.8271484375h2.65234375v-5.2353515625c0-2.7880859375-1.6318359375-4.0458984375-3.791015625-4.0458984375Z"/>
    <path class="cls-2" d="M153.390108102323211,22.175616868742509c0-.4755859375.509765625-.849609375,1.7001953125-.849609375.83203125,0,1.7333984375.169921875,2.634765625.6796875l.8837890625-1.88671875c-.8671875-.509765625-2.2607421875-.798828125-3.5185546875-.798828125-2.6689453125,0-4.2333984375,1.2236328125-4.2333984375,2.9580078125,0,3.654296875,5.5244140625,2.125,5.5244140625,3.6201171875,0,.5107421875-.458984375.8330078125-1.6826171875.8330078125-1.1220703125,0-2.3623046875-.3564453125-3.1787109375-.8837890625l-.8837890625,1.904296875c.849609375.560546875,2.4140625.9853515625,3.9609375.9853515625,2.736328125,0,4.3173828125-1.20703125,4.3173828125-2.90625,0-3.603515625-5.5244140625-2.0908203125-5.5244140625-3.6552734375Z"/>
  </g>
  <g>
    <path class="cls-1" d="M168.90379278081673,43.207755416018699c-.917352722011856.993675566298407-2.423295376267561.216042668833325-2.426962355104479-1.074894888928611-.002406411374977-.847162463891436.915262041191454-3.326717840955098,1.143732541859208-4.415350572209718.772058688515244-3.678760961740409,1.090119942850833-7.763169552667023,2.271910758707236-11.287824652175914.718866417606478-2.143997186887646,1.782497799656994-5.245085575666963,4.211584789572953-2.472876049891056.682033038538066-3.848971004033956,3.436086540899851-4.488097101188032,4.749929278192212-.524178285935704.708257242788022,2.13684189974083.036949231129256,5.782435854363939-1.161490846725428,7.693414611161643-1.129858591675656,1.801621797174448-3.750242178986809,3.846562044163875-5.938111451469013,3.542401384409459l-.221563306480675.164752966273227c-.878706456867803,1.517977124205572-1.728645454040816,7.399260473262984-2.629029408552015,8.374555487296675ZM172.665576259929367,32.169874348131998c2.722126496184501-1.138766101437795,4.246006937708444-4.574654508642197,3.497736202189117-7.389910847277861l-3.244252738109935,6.30981411787252-.253483464079181,1.080096729405341Z"/>
    <path class="cls-1" d="M197.318259494255472,20.11455348351592c1.013960225191113,1.250437809887444-1.463928691784531,3.834905344883737-2.037098452092323,5.137700618270173-.478590498387348,1.087819843905891-.871440455608536,2.450266083214956-.988100929520442,3.633076118811005,1.340220127243811-1.271067026817036,2.786275118804042-2.519768570882661,4.017172058100186-3.898666813292948.671998560168504-.752798714447636,2.364078375047029-3.350576151071436,2.865815463313993-3.713079669112631.573660563870362-.414468010096243,1.776950156219755-.263186169580877,2.069222231290041.429000562500732.837313930060191,1.98300707596718-2.17331170354737,4.722134421137525-.39601593079351,7.377481377745426,1.08421973413715,1.619865199405467,3.691858664975371.48801103934602,3.587074104485509,2.352234577469062-.06718113804709,1.195220538971626-1.624377954049123,1.027166823318112-2.545649814990611.920398841182759-2.333787081519404-.270467109647143-4.448051805768046-2.342499406611751-4.555561035082064-4.701442874136774-.749253519905324.012104260853448-3.967368830395571,5.583574775144371-6.575546213602138,5.128762469517824-2.005062603661827-.349641535720366-1.547060597493328-3.150983547624492-1.326896029300769-4.588241115694473.350920353990659-2.290845155981515,1.34900065038164-4.689317235282942,2.646528664863581-6.60203024866496.656640046072425-.96796673922654,1.963819271717512-3.047843378662947,3.239055883328547-1.475193844595196Z"/>
    <path class="cls-1" d="M185.179021958750127,10.855599472499307c1.144499059956615-.16223650851498,1.840026076729373.802569105977454,1.693830420722406,1.892920170208527-.098786102019403.736762872515101-1.49989262400959,2.249972120876919-1.889689796829771,3.263441210214296-1.02800180579834,2.672795306376429-2.494959814358481,11.515349778595919-1.033199335490281,13.84008981712941,1.476922855224984,2.348853827290441,4.197253850452398-1.869267296217004,5.717107913604195-.361433579095319,1.642823044709075,1.629830151548958-3.35348790585158,4.490700543223284-4.747595983781139,4.490381515834088-2.161305082510808-.00049459258662-3.736761807394942-2.452472537577705-4.018470895770406-4.374784722336699-.654798162523548-4.468178480234201-.006471579302342-11.186451348998162,1.64508571667011-15.40795533810342.436278383858735-1.115160183851913,1.306826004118193-3.154679190009119,2.632931960874885-3.342659073850882Z"/>
    <path class="cls-1" d="M212.416021168282896,22.724943174493092c1.41770423127673,1.801978219591547,5.457469382898125,2.239035100663386,4.693453388052149,5.604246788827368-.574963398748878,2.532503982629351-8.570891800683967,5.845400635624173-10.226876681568683,2.685414665922508-.522057472935558-.996201299240056.08050787416505-2.309134893079317,1.300619530031327-2.135575253068964.662653804150978.094261828537128.615475344651713.765947763622535.875574887149924.831400693998148,1.358410379787529.341838125354116,4.488173370064032-.989083481825219,5.004661562923502-2.463182400231744-1.495365569759088-.836567199956335-5.140318526684496-3.046726122818654-5.148862092299169-4.932998522126582-.00142511269587-.314640381307981.560749282592951-1.636355151404132.8209163439642-1.953675250801098,1.368062821586136-1.668596432777122,4.033858713821246-2.119796871133076,6.075568237951302-1.94471837637866.936533297584901.080308603202866,3.736798366502626.737884135487548,2.799613763407251,2.161982519835874-.847284402932928,1.287490581165912-5.923552330192251-.548123525411938-6.384443164417462,2.00932125032341.024307530447913.097281312777341.158256261271163.097722859289206.18977422480566.13778388369974Z"/>
  </g>
</svg>