<?xml version="1.0" encoding="UTF-8"?>
<svg id="Capa_1" data-name="Capa 1" xmlns="http://www.w3.org/2000/svg" viewBox="0 0 34.015748031497424 34.015748031498333">
  <defs>
    <style>
      .cls-1 {
        fill: #aeddf1;
      }

      .cls-2 {
        fill: #d1dbf1;
      }

      .cls-3 {
        fill: #1d3a69;
      }

      .cls-4 {
        fill: #b0def2;
      }

      .cls-5 {
        fill: #43bfef;
      }

      .cls-6 {
        fill: #81cef0;
      }

      .cls-7 {
        fill: #d58694;
      }

      .cls-8 {
        fill: #fff;
      }

      .cls-9 {
        fill: #b5b2b2;
      }

      .cls-10 {
        fill: #dfe3f4;
      }

      .cls-11 {
        fill: #82cff1;
      }

      .cls-12 {
        fill: #ececec;
      }
    </style>
  </defs>
  <path class="cls-8" d="M0,17.007874015749621C0,7.614956225135757,7.614956225135757,0,17.007874015749621,0s17.007874015747802,7.614956225135757,17.007874015747802,17.007874015749621c0,9.392916740708642-7.614956225133938,17.007874015748712-17.007874015747802,17.007874015748712S0,26.400790756458264,0,17.007874015749621"/>
  <g>
    <g>
      <circle class="cls-12" cx="17.007299344205421" cy="18.815282986370448" r="8.358378593456678"/>
      <path class="cls-7" d="M8.648920750751131,18.85625543045262c0-.122917332251745,3.564602635442498-1.106255990309364,8.194488817111051-1.065283546223327s8.522268369799349.942366213971582,8.522268369799349,1.065283546223327c0,4.616205030222773-3.742173563237884,8.358378593457019-8.358378593457019,8.358378593457019s-8.358378593453381-3.742173563234246-8.358378593453381-8.358378593457019Z"/>
      <g>
        <path class="cls-10" d="M18.102585870990879,27.108796511472065c.082635002590905-1.093932343229426.165845041499779-2.187823183560795.247635135130622-3.281817781136851.035576479847805-.475843174404872.048462898443177-.952622239148695-.107894043789202-1.411532231241836-.183184358667859-.537645139548658-.471443630000067-.981414874514485-1.087229679866141-1.094616103470798-.254897823077044-.000871560853739-.442057094351185-.123667222213044-.614176674745977-.304840859651449-.993513810441073-1.045776530884723-1.85403749744728-2.171577911776694-2.224467279040255-3.601164422357215-.41371631518814-1.596641899750466.013030177678957-2.996891568220235,1.006515443896205-4.259204540022438.123939529237759-.157476001568284.229277567728786-.340573038927687.417072077680132-.441532209988509.275729914999829-.056217750245196.559496844838577-.151829791710043.826028773661164-.157826182265126.525597208265026-.011825472556666,1.044099361002736.027271294761704,1.544780577709389-.192090715318045.109580747794098-.048010811592576.238074377848534.04420006739474.323396689158471.145590090418409.112626156747865.159604322043378.148265952870133.352293457268388.225023959721511.527550337834327.307711898871275.702577914887115.923594480100292,1.058812850483264,1.685398236144465.957988304443461.21432766140606-.028365933695568.404013874769589.001249756012839.574840142435278.133124695054903.43891152112883.33883069539479.92631500391326.381798126723879,1.444598144629708.238878747783929.087372305401004-.024093469758554.187456650155582-.07083558964132.26457068129821-.033680120370263.362866600835332.17483718251151.77150982936837.128706192796926,1.143696378050663.252110390395501.19076362798296.70844824039159.054803867529699,1.378609538757701-.242610314155172,2.028247135363017-.192545825382695.420571690227007-.468945232129045.794813176831667-.67421866643781,1.208564384584861-.680729862879161,1.149908857883929-1.172925660981491,2.35197181352396-1.269794369425654,3.71411559635726-.088033493375406,1.23787373102914-.248832954464888,2.474426632335053-.593978264547331,3.674631295727522-.124409211430248.432619981464086-.249259560836435.871057631632539-.568289503065898,1.215508856964334-.730521365099776.373929696081177-1.513958527209979.567919428367532-2.32089744444238.681995330895006Z"/>
        <path class="cls-2" d="M15.728657414676491,12.758715132663383c-.254658051620936.410916300444114-.593624835186347.758024748807657-.837488500161271,1.182216269906348-.801674843782166,1.394484397176711-.828982841108882,2.813512051761791-.212992829807263,4.270568811627527.445569590570813,1.05394689510922,1.146380053865869,1.929027195111303,1.93157502104259,2.745014631622325.156336182801169.162467243819265.310971648978011.3213963655935.545349290632657.364317624950672-.068043196499275.007336674758335-.136083279085142.014675424667985-.204121804712486.022016249720764-.407781193038318-.01162392410879-.67554208034926.219507789009185-.889267718175688.527958363198195-.308549023038722.445299116749993-.403637610028454.952535083063594-.388397590613749,1.482841472706241.036063288573132,1.254973962505574.148444484002539,2.50479845296104.26561072894583,3.754170561831415-.807092018058029-.111856535066181-1.589506259064365-.307980553870948-2.320720470270317-.678970807214682-.319546852133499-.316727289585288-.426291861260324-.741078856232889-.548189181188718-1.147328933993776-.316570987288287-1.055045165542651-.489630451056655-2.142631715695643-.555939975331057-3.237406567746802-.092437607281681-1.526147671442232-.516284266721414-2.932230572198932-1.329726076623047-4.223676762524519-.13732728816467-.272718654308846-.294603094840568-.534205068105621-.456668102919139-.792419497197443-.4636627346772-.73874120551227-.611409961195022-1.546378777770769-.524666666635312-2.40304579837084.030926626144719-.305428644438507.116421889490084-.597815522027304.289615381352633-.857898100305647.420667092646909-.723804312585344.912181721816523-1.373604289278774,1.722596027777399-1.708019595129372.139766521651836-.057673983174936.258378920652831-.166572658592486.386762785201427-.251809753780435.613484347624762-.238017173563094,1.244255594850983-.292520075949142,1.890829442150789-.177335008478622.110677364889852.019716729791071.223732203949112.032674582973414.320108394827912.097959808518681.215406632976737.422672125947429.55843759472009.733085268416289.915731844506809,1.03084703065997Z"/>
        <path class="cls-6" d="M23.747000177008886,14.601987483938501c-.349030438141199-.001083744419702-.703935796072983.046277806217404-1.019738684304684-.171275196305942-.102450920219781-.070577234105258-.215901226496499-.010663132021364-.325846302355785.022230508435314-.551869828821509.1651109784043-1.072890100893346.129132116280744-1.534078570546626-.256165742302983-.127817910477461-.106784880948908-.268677935302549-.156350754246887-.439775113580254-.129416411132297-.927835632450297.146062704667202-1.619274249309456-.273975932717804-1.917119189245568-1.158066771234189-.039610037858438-.117577190743759-.085929524751919-.232895845664643-.129141324387092-.349260892403436.024334208417713-.118443044947526-.030372089773664-.252965609483908.044323467320282-.357487804320044.270106184358156-.377962999572446.333936253749926-.80793496645947.348435680360126-1.256461192908318.004802695028047-.148595808098435.069004358287202-.282297328583809.216511553851888-.354352130701955.289828684535678-.21373869166473.48921370541575-.534993525891878.837701284357536-.681167672318225.924274351564236-.38768760678613,1.938615583052524.064815172800991,2.228840772773765,1.029780211642901.092361835348129.307090187014182.227199548397039.482628768500035.554239518201939.539685266368906.324215648823156.056563650961834.523357784330074.302740683325283.656233730878739.5900320426299.075086872420798.162344032087276.159465667460609.305947430663764.346088826354389.341209070833429.985033062706862.186117410745283,1.156642998997995,1.373341783452815.562496583035681,1.931996986844752-.032303755095199.030373895771845-.053985945834938.072034504607473-.080614071699529.108440846575832-.082116016743385.129053779563037-.203362528418438.167418020739206-.348558161014807.150278880296355Z"/>
        <path class="cls-5" d="M18.990571694121172,10.591731851064651c-.124879412607697.2667290079753-.229219441314854.535168454125596-.141733996995754.839865350598302.028767385530955.100192015935136.011190372846613.207944303497243-.052264988762545.292870256650531-.189643656525732.253816289188762-.311182876219391.540029870116996-.415272753747558.835565520681484-.161004979487188-.168546640166824-.334109595018163-.152356100331417-.521627485513818-.043789448095595-.308341947686131.178520305298662-.633897617968614.241239484486869-.974588991510245.101464209446931-.117087359094512-.048037269688393-.224348240148174-.028927260385899-.327097577233872.018155183261115-.265697399581768.121750566513583-.543804269764223.143453469357155-.82932952365627.122891118026928-.439706607443441-.191831840992563-.784018426256807-.471463581109674-.892333367570245-.968397360918971-.172135149972746-.386482636618894-.085161425697152-.719223819328363.209417017314991-1.008906134638892.308809553936953-.228908260213757.622531827910279-.4357561090319,1.036674230481367-.410798082034489.155630881032266.00937907127809.253887357639542-.112488481533546.35820091806454-.223025289294128.495390155989298-.524944095680439,1.284970034594153-.513389021194598,1.709171420860002.061289598902476.227738255707663.308524112138002.505370772827519.377129958594196.840785098269407.382815077414307Z"/>
        <path class="cls-11" d="M24.508697021965418,10.591005680051239c-.074483810869424.389915574751285-.301850472707883.623392590687217-.65330146083943.670857898566283-.277783023017037.037516155401136-.638505174320017-.153689770014353-.745460891705079-.431499922009607-.116728220886216-.303189822496279-.083929353291751-.602019571029814.149673442490894-.849177530869383.240003967224766-.253932043367968.573382830176342-.273064968431754.965720561345734-.068518041892276.023950158893058.129700381744442-.095473674486129.136172012903444-.162793404715558.18102876638477-.146721450986661.097764128840936-.189254417138727.231405145880672-.117860648007991.381962614378608.080330705428423.169407760448848.225383097933445.161638028888774.377609950792248.094850787530959.057985250772617-.02543952545966.111302742840053-.085997052154198.184597038143693-.037788388464833.00673436035504.004428424046637.011203866477445.017044721347702.011153005863889.025826864223745-.000063316274463.010836666014256-.005961071445199.021639481227794-.0093375933684.032456952151733Z"/>
        <path class="cls-5" d="M14.374538224741627,10.930178514961881c-.145279189320718.356454900955214-.438576775261026.360471992374187-.752200441918831.315647306362735-.065799620684629-.102010231946224-.157575002020167-.195939071512839-.192166446729971-.307573695769861-.065990607477943-.212966283834248-.047599824980352-.429561412443036.142071337795642-.581305150487424.183715281185869-.146978621743983.396239985755528-.16137130792049.594339478693655-.033673765237836.220929161390814.142414146007468.303390822706206.348210933935661.207956072159504.606905305132386Z"/>
        <path class="cls-4" d="M24.508697021965418,10.591005680051239c-.225650894628416.088120055076615-.465689114924317.251802361077353-.65585175729575-.040713434887039-.142901715151311-.219817050448.000634200705463-.449581761865375.372538421090212-.637648836086555.237874049311358.16624919538117.37682732013127.373787613504646.283313336205538.678362270973594Z"/>
        <path class="cls-11" d="M21.814778499598106,15.783414679998714c-.002836776642653.290802504458043-.274823765710607.55912185159832-.569775878533619.562090346365949-.280473445645839.002823234623975-.549718113501513-.281236605298545-.55042808613689-.580714252977486-.000689213207806-.290688890280762.276753355090477-.560529837410286.56749960660818-.551951188429484.30556744934438.009015985763654.555663615366939.267198250113324.552704358062329.570575095041022Z"/>
        <path class="cls-1" d="M21.05005077729038,11.47324925052726c-.312238493430414.003822287189905-.54576344133784-.209866665845766-.550983400995392-.504185762722955-.00495839078576-.279523248948863.221020502896863-.50663890821852.514344038128911-.51693162688116.319152422893239-.011198908491679.563166074778565.220513002167536.564389843411846.535938786817496.001057693154507.272680782913085-.226069197222387.481485752754452-.527750480545365.485178602786618Z"/>
      </g>
    </g>
    <g>
      <path class="cls-9" d="M32.808076046170754,14.692316537337319c-.216636333310817-.238338540910263-.417502338046688-.490751277809977-.777000279835192-.529912019901531-.468947675615709-.051082117973237-.779695903487664.19398589244156-1.039543085116748.531892961674203-.284662679034227.370177648137542-.555721021793943.750817679577267-.87210419389703,1.180389840304997-.159528331823822-.535509036833901-.282520894606932-.999870799474593-.43613568994806-1.453871271110984-.381057049802621-1.126193672664158-.903491301614849-2.179685446167241-1.566068513106075-3.172923551699569-.545024190807453-.817019919018094-1.164602996726899-1.56488269068177-1.880120270288899-2.226287177430095-.762265617624507-.704617350072112-1.572503002284066-1.34483724540496-2.493143907266131-1.855794439004057-.654410122970148-.3631984750009-1.311823249352528-.705775983346939-2.009306782156273-.965453233870903-.875843475194415-.326081596006588-1.773455464170183-.571613448745666-2.704333183201015-.706057826972938-1.08107263992315-.156136761492235-2.162682787855374-.20413456442202-3.245463527979155-.090158269604217-.586545447535173.061741217527015-1.174542420905709.132579399898532-1.750499893594679.292257347276063-.477252154967573.132313160778722-.959712161346033.239084528181593-1.430300115322098.402605378498265-.91710727114878.318678901329804-1.78664491717791.736765569286945-2.600804625993987,1.25552052824878-.992351535676789.632292419373698-1.912979975410053,1.360806669996236-2.711705915304265,2.234756573635423-1.132428482856994,1.239082338339358-2.050458478799555,2.618302809307352-2.642290860250796,4.190035062455536-.542954793820172,1.44192436317735-.838716239102723,2.597598713166008-.928772878722157,4.486299159598275-.016928703778831.630019860220273.045504690067901,1.307573689012315.076515870312505,1.535434108956906.115104056283599.269658335766508.325663608531613.425124453427088.626100660501834.516551082031583.571033752388757.173773663632346,1.275189389854859-.267321849803011,1.24113521563595-.860148847726123-.056873428775361-.990006651672047.030400282848859-1.965679367117446.188346365997859-2.939211597598842.116469272776158-.717881347657567.34943314073098-1.400980609108046.613871129928157-2.075654664037756.375347471794157-.957641149123447.892752910936906-1.838472613536396,1.498779980283871-2.661348048118271.406478588767641-.551923267468737.893938417857498-1.041910083227776,1.387946824828759-1.521170991983126.565961228636297-.549064147809077,1.220384715828914-.985543018379758,1.875883857461304-1.406858689513683.48287484570028-.310362459375028,1.020966206097-.543489957347447,1.564711148726929-.757245894451444,1.086094952461281-.426963030987281,2.20683611412278-.671718690235139,3.363811075687408-.775774082268981,1.371213109163364-.123324052247881,2.708693379832766.025604310931158,4.037156052885621.398854474934524.751996640377911.211283407904375,1.469853024436816.502372775834374,2.149107987601383.855365900303696,1.109192065985553.576420631990914,2.093088658621127,1.341794175616997,2.969241724784297,2.248201694378622.783995124647845.811067695084603,1.411775209873667,1.730397858588731,1.928850863225307,2.717408191194409.357004349178169.681462330160684.627335049581234,1.413237377608311.832765108467356,2.161573170927113.006348740540489.023126316955313-.012334666243987.053123692376175-.031222810781401.125288326359623-.317546231144661-.240190128160066-.617546994715667-.46817189887588-.918669123921063-.694661567765252-.68343679899408-.514051734005079-1.433499349750491-.129833401365431-1.60286191106934.524838961337991-.124636009504684.481783210800131.12051586630696.797805266147407.45485428666143,1.056280400731339,1.174840715915707.908262862368247,2.363278826505848,1.798918256201432,3.541880910011969,2.702355049227663.175486310474298.134516224597064.280125262963338.092715181471249.397545137373527-.070219375412307.436412925026161-.605591910966723.871014256112176-1.212884969851075,1.323864279349436-1.806128301158424.481904799255062-.631307161576842.939485957840589-1.281729062075101,1.459510249418599-1.883705610476682.110368322551949-.127759067037005.124884477321757-.297920419443471.178243994161676-.45063680709336l-.069775155550815-.512685944876466Z"/>
      <path class="cls-9" d="M18.019535623501724,30.47456721735125c-.049355505356289-.430743555532899-.049071069013735-.422187593655508-.545968031354278-.405713213033778-.351987200565418.011666635179608-.70539928368089.006592818964236-1.057133148942739-.011376536519492-.176260195052237-.009005522561893-.241819250504705.051534500810703-.251680175200818.22040361209929-.028879838266221.494520911226573-.061565579748276.988918824813481-.102241017917549,1.482583899255587-.011903774433449.144478620326481.030794274842265.210953795524802.177573877257601.227066619951074.570567419144936.062636688648126,1.140480991536606.02065573425989,1.710450218462938-.003599863177442.132408057943394-.005634767626361.168300534962327-.084827966270495.157387237808507-.215299432395113-.034824794258384-.4163480635616-.05790083852844-.83368068877553-.088388960113662-1.294065086180126Z"/>
      <path class="cls-9" d="M9.778245426043213,27.513567700752901c-.037034732369648.031093481337848-.090997133489509.059178860569773-.120148253919979.103561042061301-.266830361213579.406261191832527-.63175215391675.729648852278842-.93107929267353,1.108365683000557-.133295223564346.168650587969751-.122099681693726.291282213930572.061390368624416.422233800634785.411075240073842.293368628254939.812366513337111.599413300078595,1.243722727660497.864745897400098.168081188972792.103390517799198.262269741506316.0916518019676.361627509437312-.079012797950782.248392799683643-.426660393975908.507212763783173-.84725895442989.76276278360092-1.269740872301554.043030429906139-.07113617552568.070384587043009-.137737869163175-.01358536852058-.199244103951969-.422274820550228-.309308190499905-.844081375531459-.619260879661852-1.267354302686726-.92719909646803-.020980646137104-.015263521706402-.054139828296684-.013783749159302-.097336171522329-.023709552424407Z"/>
      <path class="cls-9" d="M7.137572014156831,27.483904648901444c.04986856859432-.03096148530949.11316059947967-.058772606024831.162208212306723-.102544471659712.361998626100103-.323048256491347.720118097566228-.650439593531701,1.081781553973997-.973868957906234.121527017396147-.108678141915334.128773448492211-.199377235509019.018542477479059-.334252456656941-.271924372356807-.33272389830563-.530884112013155-.676584230285698-.782997411592078-1.024703371310352-.108035298932009-.149172703680051-.212841835484141-.168901513196943-.36110479607305-.070912678585046-.397680253126964.262826429376219-.798021221038653.52162379454785-1.197306860642129.782021610046286-.132245344913827.086243898853354-.174858060667248.183854452166088-.080657017302656.334950684862633.294497239823613.472366920304921.668608131072688.882718372532509,1.009868828919934,1.318598834291151.034331477660089.043848350457665.070277756714859.095216385984713.1496650129302.070710806918214Z"/>
      <path class="cls-9" d="M4.782950563369013,24.136370686083865c.056661594036996-.015328126679378.125275528775092-.023781976027749.184831377458977-.051616225305224.439551673658571-.20542031910918.876635577087654-.416115133405583,1.315975710425846-.621996790382582.147627727597865-.06917953840275.180627704789003-.153972449943467.113795929953994-.314831724229407-.164863019384939-.396822682845595-.314108390815818-.800587334317242-.455572377873978-1.206464153732668-.060620819040196-.173923079656561-.155339998771524-.222932395298812-.325505207687456-.171673065740833-.456426293059849.13748583457982-.914243511240784.270348024620034-1.37150972847121.405046394670535-.151448471280673.044611678814363-.220309325746712.125863425772877-.173492118727154.297654162529398.146362802304793.53706336848245.386800357689935,1.037600135614412.588437965336198,1.553151215549406.02028571898154.05186345342554.039957646249604.11139349062978.123038449584783.110730186641376Z"/>
      <path class="cls-9" d="M25.629002013196441,26.198392068473368c.027864658193721.041373109447704.043544087848204.078851876985937.070916585904342.103162823980711.398065460811267.353559626849346.780650353310193.724423495667907,1.205176153762295,1.048456272999829.13187099687093.100653537592734.200989122633473.076431828321802.300218787559061-.038121551180666.356980311795269-.41210471132581.669653945835307-.856393296602619.981090872437562-1.302450646456236.092831884683619-.132959586109791.076627185637335-.216502588349613-.061882634016001-.299753803043131-.416472498507574-.250317618108966-.82737040912798-.509903604693136-1.243493102572756-.76081241592874-.122648234349981-.073953910519776-.257484754572943-.104155670910586-.351213536272553.045173347217315-.243010100624815.387161492874839-.542031721633975.731590849718486-.82042650843141,1.091786934858646-.027901986621146.036100888861256-.053138397894145.074263002510634-.08038661837054.112559037552273Z"/>
      <path class="cls-9" d="M20.318282649759567,31.602545249672403c.534575626199512-.106267131295681,1.032455059683343-.30392818738801,1.539006723029161-.474205591228383.171252198861112-.057565244314901.227657365247069-.165238568153654.159876216885095-.330800418000763-.183789335815163-.448931457861363-.369912372590989-.896913187924838-.556855302987969-1.344544296684944-.068391078224522-.163759551357543-.202212340869664-.153651049728069-.337927012826185-.112713038673974-.420103441350875.126729099722979-.838054688796547.260685187858144-1.259112813471802.384087933591218-.104312321955149.030569703883884-.17754158439493.053121695403206-.145170789970507.18864780468266.12626020339485.528609931106985.247804131253361,1.058369907295855.367216931148505,1.588577510884534.034741464127364.154259064966936.134280605310778.133046971603108.232966048193703.100950095429653Z"/>
      <path class="cls-9" d="M28.157957292103674,21.627950414722363c-.12010858544636-.010356529214732-.141514381906745.086775886924443-.162958118846291.165373124722464-.1204207867886.441375505820361-.233820262610607.884964870964723-.439617854135577,1.296974987643807-.069756072671225.139653150089543-.007214717843453.219914108456578.11331096835238.272385137179299.464270585176564.202126317992224.931342569250774.397879537025801,1.394142264498441.603281635900203.148927646465381.066099494937589.222933254879536.029333407785998.28187845948014-.120472645823611.206407288425908-.524565739232457.389827292576229-1.056387758998426.542087520372661-1.599109736929677.022946173538003-.081794092150631.032620966136164-.145940094762409-.076377904206311-.175318456933383-.532335886160581-.143465580481461-1.063422446635741-.29156496710948-1.595110907212074-.437445277698316-.018182139136115-.004988696293367-.03805294133781-.00382301814625-.05735442830337-.005668768060787Z"/>
      <path class="cls-9" d="M24.314902203481324,27.478869484169991c-.020709415044621.010550867350503-.057765194156673.023321118253079-.087718886039511.04562821426407-.357589418777934.266333141838004-.687510024206858.568755906158003-1.077663984047831.793217060054303-.1327915428501.07639558412211-.213692686123977.189428352381583-.095605603954027.374163215560657.265914208692266.415996897469086.508312527712405.847176145048252.754815074282305,1.275323238338387.055771769173589.096868355267361.126780667449566.113236146193231.211716250852987.066724267494465.527245440773186-.288725231584067.983188118882026-.679326595431121,1.464003934141147-1.03424047453791.082957527925828-.061234655780027.083055271539706-.144021705432351.015424967634317-.224078767602805-.349284816358704-.413461076297608-.697983986226973-.827419727857887-1.048344780007028-1.239965910035608-.029840134973711-.03513720515457-.065704832417396-.070931195235062-.136626972862359-.05677084353556Z"/>
      <path class="cls-9" d="M14.452009197299049,29.985825949204809c-.009615294853575-.164270750150536-.062060474429018-.222053516885353-.173063102305605-.250360615761565-.442395275571471-.112809024684793-.890055096642755-.209775005667325-1.302144980580124-.419502294135782-.152211388643991-.077464507249715-.229305571914665.020470717600801-.281159578313236.149237964777058-.181059996202748.44961594198503-.36032744530894.899965314937617-.543957986548776,1.348530527066032-.056305197096663.137537450107629-.043023703541621.212201924421606.113600529546602.285818507016302.47778504821872.224566013564072.984698479836879.354819200898419,1.487054757026272.50140346821172.106512548809405.031080134364856.224163470626081.081305931897077.288951719319812-.076241553702857.210874318812785-.512777458945493.255400116688179-1.067842833791474.410718641855055-1.538886003470907Z"/>
    </g>
    <g>
      <path class="cls-3" d="M5.265252966659318,10.420255841879225l-.052526015739204-.129719095275505c.216860810160142-.026649695081687.480870382429202-.179553730836233.658486314214315-.416772342738113.264377993087692-.352908495401607.227673240206059-.624698627210819.035915192349421-.76825360069688-.529620245961269-.396660007071659-1.037371886137407.943796887359895-1.688061899705644.456275711113449-.249780074425871-.186968501626325-.32575450153854-.543028598124693-.000756308836571-.976885879106703.145386820740896-.194259131378203.357057920562511-.350727391687542.557511636736308-.41315370456141l.06751749139039.125331342855134c-.210508019763438.070831929441738-.392590827254025.213692997167527-.511558452171812.372712779576432-.256849971823613.343307077194368-.213262458410099.615994192761718-.019019575776838.76146955591048.529708788370044.396676255817511,1.042430098097611-.939939859285005,1.683059732666152-.459939405622208.249780074425871.186968501625415.317489492181267.548650749279659-.009176954858049.985130659601055-.196586698692045.262292790714127-.48389996863807.440940241544922-.721391160268468.46380397894427Z"/>
      <path class="cls-3" d="M5.823655983998833,8.315530978463357c-.447368832376014-.45734784715296-.433170811966193-1.141174394717382.037613157313899-1.601911214528627.468702743546601-.458373024935099,1.152848190609802-.461872191873226,1.60249227544773-.00245936772626.449579089858162.459766993785706.430936048836884,1.143876110488236-.03776669470426,1.602249135423335-.470896059119696.460350152681713-1.155002403174876.45964637880661-1.602338738057369.002121446831552ZM7.346613753337806,6.825850319225538c-.390128662022107-.398701721775979-.980675301805604-.398527329274657-1.381602836650927-.006244454689295-.403418975140085.394388340912883-.416594241840357.984864766519422-.026377037409475,1.383582737041252.39000762212163.398862557850407.980554261903308.398688165349085,1.383793315213552.004266806313353.401107456673344-.392249856465241.41419418096666-.982742530816722.02418655884685-1.38160508866531Z"/>
      <path class="cls-3" d="M7.305879273017126,5.476812129016253l.127587145818325-.097764153494609,1.342058280202764,1.749846909197004-.127531100899432.097957487061649-1.342114325121656-1.750040242764044Z"/>
      <path class="cls-3" d="M9.751848687958045,3.878466000031949l1.126433883106074,1.896437257571051-.113801278079336.067528357892115-2.270739842379044-.879641669364901.978320515649102,1.647218528711164-.138109523322782.082287560020632-1.126489928028604-1.896630591137182.116581893038529-.069214659598401,2.267959227425308.881327971072096-.978409058059697-1.647234777457015.13825411065045-.082077977709559Z"/>
      <path class="cls-3" d="M15.273014829355816,4.699018730488206c-.10335508956814.203815746510372-.286090048964979.341252715936207-.52297271563657.393752513919935-.319929972947648.070656071357007-.570460245662616.003564302991435-.980425117024424-.273596905702107-.607074046276466.057097640243228-1.121431718333042-.296925326299061-1.250980335329587-.881587794087864-.141758153589763-.639920516534403.251630711973121-1.224062839043654.931566703378849-1.374831405902114.677025354463694-.150073678719309,1.282843907505594.2094657621019,1.425325580768913.85275504058427.111706194806175.504655746296521-.110279756358068.973260760699304-.536132891431407,1.222491650285519.129243844628945.087867837537488.230385880431641.107054301778589.338080543151591.083342230857852.132342019167481-.029267868470015.237557893175108-.107643279749936.315362402383471-.237708693624882l.280175829739164.215383363669389ZM13.84983086298962,4.365656218015829c.384580690137227-.08513308000056.611743327901422-.42930099950172.52106656448268-.838618248258172-.090725219930391-.408960440057854-.441933536934812-.625087352553237-.826538455330592-.539775868203833-.38451571621772.085323598476862-.611832530077663.429288885373353-.521155766653465.838606134129805.090700991675476.409138844407607.442022739107415.625099466682514.826627657501376.5397879823322Z"/>
      <path class="cls-3" d="M15.34703285024807,3.504435076577465l-.054842717854626-1.234432069529248.510186036119194-.022651540275547.054037747682742,1.215608198825066c.018620074300998.41879120435533.20888352163638.583808108734047.517533111571538.570125786877725.311755148642987-.013805654563839.483519458775845-.194885660771433.464923612729763-.613855269474698l-.053972773763235-1.215417680348764.50379651435469-.022429103115428.054931920029048,1.234444183655796c.028727918632285.648735803872114-.326778062129961,1.024168190635464-.953507348544008,1.052069122692956-.626705058166408.027722527707738-1.014179779343976-.314701597181738-1.043086102325105-.963461629307858Z"/>
      <path class="cls-3" d="M17.801963027062811,3.285294087612783c.083933373078253-.650151713991363.652545744707822-1.066232184889486,1.343308676423476-.976965288083193.687665083860338.088664497989157,1.135416811714094.632779388075505,1.051071558293188,1.285963976004496-.084369481674003.653362992281473-.655489416469209,1.065832418678838-1.343308676423476.976965288085012-.69067372954305-.089254782679745-1.134980703118345-.635990666362886-1.051071558293188-1.285963976006315ZM19.683838214134084,3.528325769875664c.053573136950945-.415891381644542-.203535365670177-.738249053004438-.594336707981711-.788596524437708-.390777114054799-.050525875784842-.721241144479791.196033617270587-.774879255350243.611734480439736-.053727313044874.415688749038964.203381189578067.738046420398859.594069101456626.788560182054425.390890544485956.050359585560727.721443777085369-.196187793366335.775146861875328-.611698138056454Z"/>
      <path class="cls-3" d="M21.251921466206113,3.190744914155403l-.677645502499217-.197229063964187.116197446424849-.399392103141508,1.845563565871998.537169806345446-.116197446424849.399392103140599-.677645502497398-.197229063963277-.500134018937388,1.71868288809037-.490094156524719-.142687450160338.499955614586725-1.718707116347105Z"/>
      <path class="cls-3" d="M22.94241310511643,3.311124130287681l.473020055860616.192151679165363-.829938612065234,2.04400573035673-.473020055860616-.192151679164454.829938612065234-2.04400573035764Z"/>
      <path class="cls-3" d="M24.095536470242223,3.77606025190471l.874627397373843.488709389290307c.629929600718242.35191216828207.849788195313522.972641211599694.52398487130813,1.556150496078772-.325909043591309.58294984317763-.969914130904726.721337022971056-1.599819503364415.369246450339233l-.874627397372024-.488709389290307,1.075834632054466-1.925396946418005ZM24.076697041622538,5.811934312881021c.382344299652686.213632640839933.760282187491612.125235402342696.966194943965093-.243076640489562.205961212983311-.368668851534494.083180350740804-.736922338232034-.299139720658786-.950733383419902l-.407010324108342-.227339014022618-.667055223308125,1.193810023911283.407010324110161.227339014020799Z"/>
      <path class="cls-3" d="M26.492201973827832,5.221506092157142l.411672861268016.301376859823904-1.302471707211225,1.778697229141471-.411672861268016-.301376859822994,1.302471707211225-1.778697229142381Z"/>
      <path class="cls-3" d="M27.520491921366556,8.422526885299703l-.275877941452563.302848440454-1.263533974388338-1.150383816507201,1.485622153946679-1.631543912652887,1.233143629900951,1.122636339105156-.275747993609912.303229477407513-.857986519673432-.781158232303824-.322653079134398.354275035630963.757721288104221.689958056874275-.26736075692861.293648522752846-.757721288102402-.689958056872456-.343828206727267.377745069009507.888222688065071.808703077102109Z"/>
      <path class="cls-3" d="M30.456506780574273,9.158296870708909l-1.721610845623218,1.377101116979247-.261546574529348-.327139362541857.358577756094746-1.694481950871705-1.045253973201397.835929714966369-.314865083382756-.393431067629535,1.721610845623218-1.377101116979247.263575092010797.329595182051889-.360606273576195,1.692026131361672,1.045278201456313-.836108119315213.314840855127841.39360947197838Z"/>
    </g>
  </g>
</svg>