<?xml version="1.0" encoding="UTF-8"?>
<svg id="Capa_1" data-name="Capa 1" xmlns="http://www.w3.org/2000/svg" viewBox="0 0 34.015748031497424 34.015748031498333">
  <defs>
    <style>
      .cls-1 {
        fill: #d1dbf1;
      }

      .cls-2 {
        fill: #1d3a69;
      }

      .cls-3 {
        fill: #84cff0;
      }

      .cls-4 {
        fill: #46bfef;
      }

      .cls-5 {
        fill: #83d0f3;
      }

      .cls-6 {
        fill: #aedef2;
      }

      .cls-7 {
        fill: #d58694;
      }

      .cls-8 {
        fill: #fff;
      }

      .cls-9 {
        fill: #b2dff2;
      }

      .cls-10 {
        fill: #eeeded;
      }

      .cls-11 {
        fill: #b5b2b2;
      }

      .cls-12 {
        fill: #dee3f4;
      }
    </style>
  </defs>
  <g>
    <path class="cls-8" d="M0,17.007874015749621C0,7.614956225135757,7.614956225135757,0,17.007874015749621,0s17.007874015747802,7.614956225135757,17.007874015747802,17.007874015749621c0,9.392916740708642-7.614956225133938,17.007874015748712-17.007874015747802,17.007874015748712S0,26.400790756458264,0,17.007874015749621"/>
    <path class="cls-10" d="M8.529587745915705,18.692698566648687c0-4.639212335860066,3.760689125367207-8.399902511129767,8.399901461227273-8.399902511129767,4.639212335863704,0,8.399902511133405,3.760690175269701,8.399902511133405,8.399902511129767,0,4.639212335864613-3.760690175269701,8.399901461228183-8.399902511133405,8.399901461228183-4.639212335860066,0-8.399901461227273-3.760689125363569-8.399901461227273-8.399901461228183"/>
    <path class="cls-7" d="M8.529587745915705,18.733872665407034c0-.123301816358435,3.582342923931719-1.111913797009038,8.234766206187487-1.071179608174134,4.653522532102215.041833438684989,8.565037766173191.947877791815699,8.565037766173191,1.071179608174134,0,4.639211285958481-3.760690175269701,8.399901461228183-8.399902511133405,8.399901461228183-4.639212335860066,0-8.399901461227273-3.760690175269701-8.399901461227273-8.399901461228183"/>
    <path class="cls-12" d="M18.030173227263731,27.027315925707626c.082568677424206-1.099803675322619.167337954362665-2.198506000986526.248804232223847-3.298310201265849.035228490442023-.477792569810845.049540786494617-.956685439377907-.108988470401528-1.41796511362918-.183852949732682-.540543252792304-.473389270982807-.986410331236584-1.092097902372188-1.100904500032811-.256510530129162,0-.444765728785569-.123300766452303-.616506981976272-.306051316620142-.998519927969028-1.050262363878574-1.863831142167328-2.181993105426955-2.235937190747791-3.618672764030634-.416141136684018-1.605120012533007.012110646635847-3.012075829185051,1.010630574604875-4.280318283577799.125503465769725-.158527157087519.231189987003745-.342380106820201.419445185658333-.443664379126858.277427774422904-.05724498458585.562561846749304-.153025658310071.830081673853783-.158529256892507.528433656061679-.012109596733353,1.050262363878574.027522192536708,1.553375476814836-.193759847144975.110090869962733-.048438386933412.238897334809735.045137487661123.324766911500774.147522059723997.11339386904001.15963165645735.148622359482033.353391503605962.225685338515177.529536055626522.309354315693781.705678507834818.928062947084982,1.063473310267,1.694291538391553.962191137772606.214678141346667-.027524292348971.4062352891724.002200599508797.577976542364922.134307963620813.44036138004958.340181607116392.930263546593778.383114295651467,1.450990904751961.239999734374578.08807227601028-.024221293275332.188254148753913-.071561480257515.266419527350081-.03413029049625.364398700770835.17614455202056.775037288774911.129906764599582,1.148244687014085.253207531051885.19265744758377.712286605794361.056144684833271,1.386039622262615-.243300633639592,2.038876444337802-.193759847144975.422747134831297-.471188671472191.799256482241617-.677056015541893,1.21429731916578-.68476231344539,1.15484963525887-1.17906987862807,2.363642305936082-1.275948752296244,3.733166932826862-.089172575764678,1.242921911271878-.249904531978245,2.485842772636715-.597792436998134,3.692433793898999-.12440106620852.434857781463506-.249904531981883.875219686469791-.5702681446528,1.22200466697177-.734303099940007.375407997751608-1.521449985444633.5702681446528-2.332816064417784.68476231344539"/>
    <path class="cls-1" d="M15.644403137319387,12.606016705211005c-.255410230371126.412839187512873-.596690037433291.761825292480353-.842192320487811,1.187876476287784-.805861430484583,1.401450118260982-.833384672927423,2.828222879452369-.21357469187933,4.29242683040502.446966328296185,1.05796866178207,1.152646935941448,1.937591122128651,1.941995470862821,2.757764848662191.156327607479398.164034955287207.31155596510871.322565262089483.547149250940492.366601400091895-.068256381375249.007706297903496-.136511712844367.014312296054413-.204768094219617.022018593954272-.410637538094306-.011009296977136-.679258714859316.220180690026609-.893934756395538.530635305476608-.310454615451818.448068727860118-.405132889611195.957786789041165-.390820593556782,1.490624793835195.036329840100734,1.260536156489252.149722659236431,2.516667964246153.26751982710266,3.772799772003054-.811367128875645-.112292519381299-1.597412664723379-.310454615449999-2.332817114322097-.68366201369281-.320362562768423-.318160913353495-.427150433659335-.744211047254794-.550452250015951-1.15264693593781-.318161963257808-1.060170311196998-.492103815959126-2.153368513325404-.558158547919447-3.253172713601998-.093576924497029-1.533559582177986-.518525708743255-2.947121396977309-1.336497785861866-4.24398634366662-.137613062503078-.274125825253577-.296143369301717-.537242353526381-.459076974930213-.797054832823051-.46568297308113-.742010447749635-.615405632317561-1.553376526720967-.527333356307281-2.414283392186917.030825191612166-.307153716184985.116694768303205-.601093336263148.290638720814968-.862009265027154.422747134827659-.727697101792728.917053650107846-1.380533923871553,1.730621378494106-1.71741043210568.142017411237248-.057247084394476.260914878861513-.167337954360846.389720293802384-.253207531051885.616506981976272-.238897334809735,1.250627159268333-.293941719886789,1.900160982269881-.177246951585403.111192219625082.019817994445475.22458503875896.033027890935045.321463912427134.097981273233017.216878740857283.424948784246226.561461546993087.736505799257429.920356649181485,1.035951117730292"/>
    <path class="cls-3" d="M23.702474641608205,14.458509930345826c-.350088504532323-.001100299756217-.707881207155879.04623778741734-1.024941820754975-.17284155294692-.103484871817273-.070459080692672-.216878740853645-.009908997224557-.326969610820015.023118893710489-.554855548845808.166235554796003-1.07888590607763.128806464843365-1.5423661798377-.257612929694005-.127706165090785-.106785771080467-.26972252642372-.157428957139928-.441463779614423-.129906764599582-.932466245914839.146421759971417-1.62713545677434-.275226125006157-1.926582875055828-1.163655183012452-.040732089024459-.118897467622446-.086969876445437-.234491936171253-.129906764597763-.351188804284902.024221293271694-.118897467622446-.030825191613985-.254307830808102.044037187908543-.358895102188399.271923125932517-.379811296581465.33577620847791-.812466378727549.350088504528685-1.262736756001686.005503598586074-.149722659236431.070456980884046-.28403272266587.217976940803055-.356692402870976.290638720813149-.214676041534403.49210486586162-.537242353526381.842193370393943-.684764413254015.92916324683938-.389720293798746,1.947499069445257.064955482110236,2.23924018982143,1.034850817977713.093575874596354.309354315693781.228986237780191.485498867714341.557056148358242.542745952112455.325869311065617.057247084398114.526233056549245.303850717111345.659442820226104.593387038359651.075962679275108.162934655534627.160731956211748.307153716184985.347885805209444.342382206628827.989713330311133.187153848997696,1.162554883258053,1.380533923867915.565864845821125,1.941995470861002-.033027890931407.029724891857768-.055044385077053.072659680205106-.081466277861182.108990570210153-.082568677426025.129906764599582-.20476914412211.168438254117063-.350088504528685.150822958992649"/>
    <path class="cls-4" d="M18.922457534028581,10.428317708561735c-.125503465771544.267519827106298-.230088637343215.537242353530019-.143116661089152.844393969906378.029722792049142.100181872741814.012109596733353.208070043387124-.05174348581204.293941719886789-.190456848071335.255410230372945-.31265731476924.542745952112455-.417242486340911.839990671076521-.161832255967965-.169540653681906-.335776208479729-.153025658310071-.524030357231823-.045137487664761-.310455665354311.180547850850417-.637424226271833.243298533830966-.979805382992708.103484871815454-.117797167868048-.0484404867384-.225685338515177-.029724891857768-.329170210330631.017613195315789-.266419527350081.122200466699724-.546048951186094.144219060653995-.833384672929242.123302866264567-.441462729708292-.192659547392395-.787146885504626-.473389270984626-.896136405812285-.973200434749742-.172841552945101-.388619994049805-.085870626593533-.722193503206654.210272742708185-1.013932523779658.310454615449999-.230088637341396.625313579635986-.437060480784567,1.041455766220679-.411738887756655.156327607479398.008806597659714.255409180468632-.114494168792589.361096751603327-.22458503875896.497608464447694-.527333356305462,1.290258948538394-.516324059328326,1.716310132345825.060550083471753.228988337588817.310454615449999.508617761426649.379813396390091.845494269660776.385316994972527"/>
    <path class="cls-5" d="M24.4679326031237,10.427658368635093c-.074862379522528.391922993119806-.30384861730272.626414929291059-.657240120905044.673753016468254-.278529124081615.037431189761264-.640727225345472-.154125958066288-.748615395990782-.432655082149722-.116694768305024-.304951016863924-.084769276934821-.605496635093004.150825058801274-.85430086731867.241097934318532-.254309930616728.575771743235236-.274125825249939.970997735428682-.068256381371611.023118893710489.129906764599582-.0968809734768.136510662938235-.164034955287207.181648150602996-.147522059725816.097981273233017-.190456848071335.232291336662456-.118897467622446.38421669521631.081466277861182.169538553873281.226785638267756.161832255969784.379811296577827.094678274159378.057247084398114-.025321593027911.112291469475167-.086971976255882.186053549243297-.037431189761264.005503598584255.004403298829857.011009296977136.01651289556321.011009296977136.025319493219286,0,.011009296977136-.006605998147279.022018593954272-.009908997222738.033027890935045"/>
    <path class="cls-4" d="M14.283574868131836,10.768497215869502c-.145319360408394.357794802435819-.440361380051399.362198101265676-.755220344233749.317060613600916-.067155031716538-.102384572062874-.158530306802277-.197062846222252-.193758797242481-.309354315697419-.066054731960321-.213575741781824-.0484404867384-.430454482637288.142016361332935-.583480140947358.184952199582767-.147519959915371.398526891460278-.162932555722364.59779138709564-.034128190687625.2223823394379.143118760897778.304949966961431.350088504532323.209171393047654.609902033731487"/>
    <path class="cls-9" d="M24.4679326031237,10.427658368635093c-.226785638267756.088072276008461-.467883572589926.253207531051885-.659440720417479-.040734188838542-.14311876089414-.221282039681682.001100299756217-.452470976782934.375407997751608-.640725125533208.238895235002929.166235554796003.377608597260405.375407997747971.28403272266587.68145931437175"/>
    <path class="cls-5" d="M21.760697550849727,15.645724966891066c-.003302999071821.292841420134209-.276326424764193.561461546993087-.573571143724621.564764546066726-.280729723592231.002200599512435-.551552549772168-.282932422909653-.551552549772168-.583480140947358-.001102399564843-.292841420130571.277426724518591-.563662146501883.569167844896583-.55485554884217.307151616376359.008806597656076.559258847675665.268620126858877.555955848600206.573571143722802"/>
    <path class="cls-6" d="M20.992157070171743,11.314216497094094c-.313757614523638.004403298826219-.548249550698529-.211373042464402-.553755249089591-.506415062107408-.005503598586074-.281832123157074.222382339439719-.509720160989673.517424359082725-.519627058401966.320363612672736-.012111696541979.565866945631569.221279939876695.566967245385968.538340553473972.001100299754398.274125825253577-.226787738076382.483298268205544-.530636355379102.487701567035401"/>
    <path class="cls-11" d="M32.808494520591921,14.549223765689021c-.217979040609862-.239997634565952-.419445185660152-.493205165617837-.780540887359166-.531736655135319-.471186571663566-.05174348581204-.783843886430986.193759847148613-1.044759815198631.533939354456379-.286233322176486.372104998674331-.558158547915809.754118994573219-.876319461271123,1.185673776966723-.160731956215386-.538342653282598-.28403272266587-1.004025626363727-.438158680732158-1.460899901976518-.383116395461911-1.131729691642249-.908247052449951-2.190801802891656-1.574293771014709-3.188219331299479-.548251650505335-.821275076192251-1.170261181159731-1.572093171504093-1.890254084857588-2.237039590312634-.765128291550354-.708981506912096-1.579797369598964-1.351909331766365-2.504557317608487-1.866032791585894-.657240120906863-.364398700772654-1.318883540641764-.708981506910277-2.019058449894146-.969897435674284-.880724859909606-.328069910574413-1.782365914210459-.57357114372644-2.71813305939213-.710083906473301-1.086592203981127-.156326557575085-2.173185457864747-.204767044317123-3.261980361163296-.089170475956053-.588984789435926.061650383224332-1.180169128478155.133207663864596-1.759245970595657.292839320321946-.478892869567062.133209763676859-.963291437527005.239997634565952-1.437781008266029.405132889609376-.920356649181485.319263312918338-1.794473411133367.739808798331069-2.612445488255617,1.261636456247288-.997419628214629.635221526950772-1.92327987598037,1.367324027378345-2.725839357295627,2.244743788407504-1.138335689791347,1.246223860438477-2.060895038292074,2.632263482697454-2.654282076651725,4.210960552543838-.547149250942311,1.449890604995744-.843291570341535,2.611345188499399-.933566545671056,4.509304521354352-.017615295124415.633019877539482.045137487664761,1.314479191907594.075962679278746,1.543467529496411.115594468548807.270822826179938.32696751100957.427151483563648.629717928366517.518526758649386.57357114372644.175044252264343,1.2814523508805-.268621176765009,1.247324160192875-.864209864539589-.057247084398114-.99521797880152.030825191613985-1.976123661548627.188254148753913-2.953727395128226.117797167869867-.721093203450437.351188804284902-1.408056116408261.617608331634983-2.086214531514997.377610697069031-.962189037963981.897235655662371-1.847317196701624,1.50603738963764-2.674095871479949.408435888683016-.554855548845808.898338055229033-1.046960414707428,1.394846219922329-1.529156283351767.569167844894764-.552654949333373,1.226405865993001-.990815729874157,1.885848686219106-1.413561814799323.485498867714341-.311557015014841,1.026042120507555-.546048951186094,1.572091071695468-.760724992724136,1.09099760261779-.429352083072445,2.217221595868978-.674855416029459,3.379777529031344-.780540887357347,1.378332274454806-.123302866260929,2.722535308314036.026421892784128,4.057933844327636.401829890535737.756321693896098.211373042460764,1.477412797537909.504214462594973,2.159974511470864.858704166144889,1.114114396519653.579076842117502,2.102727427078207,1.348608432501351,2.983452286985994,2.260158484023123.788247185262662.81466907804861,1.419065413385397,1.738328726303735,1.938692471787363,2.730242656125483.358893002379773.68476231344539.630818228122735,1.421268112702819.836687672001062,2.172084108202398.006603898340472.024221293275332-.01211169654016.053944085324474-.03192759117519.12660376552958-.318160913355314-.24109793432217-.619808931145599-.471186571667204-.92255724869392-.69797220993496-.686965012764631-.517426458893169-1.439983707581632-.131009164164425-1.610624661019756.527333356305462-.125501365962918.484396468153136.121100166941687.801457081750414.456876375421416,1.061271660855709,1.181270478138686.912649301375495,2.375752952573748,1.80768435752907,3.55922403022123,2.715931409977202.177246951583584.134310063429439.281832123155255.093575874594535.399629291023302-.070458030790178.439261080297001-.608800684072776.875219161518544-1.218701667898131,1.330993137376936-1.81539170533506.484398567958124-.634121227194555.943475542890155-1.288057299123466,1.466403500558954-1.893556034025096.110090869964552-.12770406528216.125503465769725-.299445318472863.178347251337982-.452470976782934-.022018593954272-.171741253194341-.046237787419159-.343482506385044-.069356681129648-.515223759575747"/>
    <path class="cls-11" d="M17.946615539944105,30.409845254030188c-.049540786494617-.43265560709915-.049540786494617-.423848222013476-.548250600602842-.407334539020667-.354490753454229.01100877202407-.70898255681459.005504386012035-1.062373010512601-.012110121686419-.177244851776777-.008807122609142-.243299583737098.051742435909546-.253207531055523.222382864394604-.028623542197238.496507902214944-.061650383226151.993015804429888-.102384572061055,1.48952370664847-.012109596733353.145319360406575.029724891855949.211373698653915.178347251339801.227887250403001.572469794064091.062751470410149,1.146040937790531.020917113059113,1.718511781760753-.003302736597107.13320976367504-.005504517248482.168438254117063-.085870626593533.157428957139928-.216878215902398-.034128190687625-.418343573524908-.057247084396295-.837788234231994-.088072276008461-1.300168208239484"/>
    <path class="cls-11" d="M9.664510196678748,27.433990074895519c-.036329840102553.030825191613985-.091375275083919.059448733813042-.121099117039194.104585696524737-.26751982710266.408435888683016-.634121227194555.732101975478145-.93576924498484,1.113014621718321-.134310063433077.169539603775775-.122200466699724.292840370228078.061650908177398.424949309195654.413940012218518.293941194937361.816871252411147.602194685921859,1.250627684217761.868613425845979.168438254117063.103485134291986.26311547837031.092476099791384.363298401018255-.079264890926424.249904531978245-.428251783316227.509718061181047-.852100267806236.766229641212703-1.275948227343179.042934788345519-.071558855495823.070458030790178-.138714412161789-.013210946392064-.20036479538976-.42494983414872-.310455140403064-.848797268732596-.622011105511774-1.273747102881316-.932466245914839-.020917244295561-.014311771097709-.055045434983185-.013210946392064-.097980223328705-.023118893710489"/>
    <path class="cls-11" d="M7.010670129753635,27.404265707990817c.050641611202082-.030825191613985.113393344086944-.058347909103759.162933605628496-.102384047109808.363298925971321-.325867736206419.723294327914118-.653937121831405,1.087694078592904-.979804858041462.12219994174302-.108990045257087.128805939893937-.20036479538976.018715069927566-.33577620847791-.274125300300511-.333574034113553-.533938304550247-.679258189909888-.787146360555198-1.029345644536079-.108990045257087-.150824008895142-.213575741781824-.169539603775775-.363298925971321-.071559380448889-.399628241117171.264217877935153-.801458131652907.524031407137954-1.203288547138072.786046585752047-.133209238723794.086971451302816-.175043727314915.184951674633339-.081466802814248.336876508234127.296143369301717.474490095690271.672652716712037.886228458497499,1.015033873434732,1.324388189132151.03522901539327.045136962711695.070458030788359.095778573911957.150824008895142.071558855495823"/>
    <path class="cls-11" d="M4.644385739529753,24.040121779630681c.057247084398114-.015412595806993.126603765527761-.023118893706851.18605302429205-.051742435905908.441462729708292-.206969743634545.880723285052227-.418343836001441,1.322186014764156-.625313579635986.14752153477275-.069356681127829.181649200507309-.154127007968782.114494168792589-.31596031384106-.16513577999649-.399628241120809-.315959788889813-.804761130730185-.457976150222748-1.213195969507979-.061650908179217-.173942902605631-.156328657385529-.223483689100249-.326968560917521-.171741253190703-.459077499883279.137613062503078-.91815447481531.2708228261763-1.37833253692952.406233189361956-.151924833602607.045137487664761-.221281777208787.126604815432984-.173942902605631.299446368379904.146420185115858.539442953038815.388619206618387,1.042556065975077.591185651423075,1.561082824620826.019816419588096.052842735662125.039632314224946.112292519381299.12330129140355.11119116971895"/>
    <path class="cls-11" d="M25.593826926411566,26.112354210009471c.028622492292925.041834488591121.044037187908543.079265153399319.071559380448889.103484871819091.399627191214677.355592103114759.784944186185385.727698151695222,1.210993270187828,1.054666712610924.132109463918823.10018239769488.202568544611495.07596215432568.301648017790285-.038532014470547.358895102188399-.415040836924163.67375511627688-.860906865462312.9864124310443-1.308975068372092.092475574841956-.134310588378867.07596057947012-.217979040608043-.062752782787356-.301648017790285-.418342786097128-.251006406590022-.831181973608182-.511920235545404-1.249526859513935-.76512881650342-.123300766452303-.073759979961324-.258713229446585-.104585171571671-.353389403793699.046238837323472-.244400933395809.388618944143673-.543848351677298.735403399692586-.824578075269528,1.096500151295913-.027522192540346.036329840102553-.052843785568257.074861854573101-.080365978106784.113393344086944"/>
    <path class="cls-11" d="M20.256753670479156,31.543336422694665c.537242353526381-.106787608416198,1.038153817047714-.306051579096675,1.546771578472544-.4766917451052.171741253190703-.058347909103759.228988337588817-.166236342225602.160731956213567-.332472946931375-.18495324948708-.451370939503249-.372107098486595-.901641054300853-.56036124723687-1.350810081912641-.068256381375249-.16513577999649-.202566444804688-.155227307724999-.339079207553368-.113393344086944-.422746084925166.127705115184654-.842191270585317.262015703567158-1.264939455320928.386417819678172-.104585171571671.02972436690834-.178345151529356.052843260618829-.146419660160973.189355498412624.126603765527761.531736917611852.248804232223847,1.063473835223704.368804099411136,1.596311577541201.035228490442023.154126745495887.135410363185656.133209501200326.234491936174891.101283222404163"/>
    <path class="cls-11" d="M28.135265283903209,21.51927099646673c-.121100166939868-.009907947314787-.142016361332935.086971976255882-.164034955287207.166236604702135-.119997767378663.443664379126858-.234491936171253.889530407665916-.441461679805798,1.3034709448375-.070459080692672.139814711918007-.007706297903496.22128203968532.114494168794408.273024475594866.465680873270685.203666744557268.935767145179852.400728540873388,1.400349818502946.607699334410427.149722659236431.06495338230161.22458503875896.028623542199057.284032722667689-.122200466696086.206969743632726-.526232006646751.390820593556782-1.061271660855709.543846251866853-1.606220312286496.023118893710489-.082567627523531.033027890933226-.147521009821503-.075960579468301-.177244851776777-.536142053771982-.144219060650357-1.068979008663518-.292841420134209-1.60291836311626-.439261080297001-.018715594880632-.004403298826219-.038531489517482-.004403298826219-.058347384154331-.005504648488568"/>
    <path class="cls-11" d="M24.273183746083305,27.39920149437512c-.020916194389429.011009296977136-.058347384150693.023118893710489-.08807227601028.046237787420978-.35889510218658.26751982710266-.69136831159085.571369494311512-1.083289204903849.795954008117405-.13320976367504.077063503984391-.214678141344848.190456848071335-.095780673722402.37650934741032.267519827104479.418343836001441.510820460742252.850999443100591.758524393211701,1.281452875831746.056146784641896.097980485803419.12770406528216.113393344086944.212475442027426.067155294193071.529533955816078-.289537896107504.98861093074629-.682560926506994,1.470806799388811-1.039253854331037.084771376745266-.061650908177398.084771376745266-.144218535697291.016514995370017-.224584513805894-.351188804284902-.416142186586512-.702377608569805-.831183023510675-1.053566412854707-1.246223860438477-.029724891859587-.03522901539327-.066053682057827-.071558855495823-.137613062506716-.057247084398114"/>
    <path class="cls-11" d="M14.361409526858552,29.918511542909073c-.009907947318425-.165135779992852-.062751732886682-.223483689096611-.173942902605631-.252107231295668-.444765728785569-.113392819133878-.893934756397357-.210272742708185-1.307874243662809-.421646310122014-.15412700797242-.077063503984391-.231189987005564.020917244295561-.282932422913291.150824008895142-.182750550167839.451370677026716-.362198101262038.903842441239249-.547149250942311,1.354112556036853-.056146784641896.138713887208723-.042935838249832.214676304010936.114493118890096.288436808921688.479994219229411.22568560099171.989713330312952.356693190300575,1.493927792907925.504214200122078.10788817064531.03082545408688.225685338515177.081467065290781.290638720814968-.077063241511496.212474392121294-.515223234619043.256510530127343-1.07338178253849.412839187511054-1.546770791046583"/>
  </g>
  <path class="cls-2" d="M3.676882325997212,10.584331537002072c-.531100413099921-.364459595224616-.646136332537935-1.038548581083887-.273075920908013-1.579324912640004.17739183838421-.258024492195545.419289799818216-.432191024428903.697741230978863-.474120004408178l.028490204345871.141913470706641c-.260174696297327.051604898439109-.454230616467612.197818777349312-.601519597428705.410688983411092-.320380411141741.465519188001053-.218245716314414,1.053600009792717.239747757330406,1.368604910683644.456918371595748.31608000293636,1.042848989289269.201044083500165,1.363229400429191-.264475104500889.147288980962912-.213945308110851.212332655035425-.448317555190442.167178368901659-.709567353536841l.142451021732995-.024727347168664c.060205714846234.275226125009794-.012901224610687.56657878077749-.190293062994897.823528170923964-.373060411629922.541851433608826-1.04392409133834.673013883806561-1.57394940238737.307479186529235Z"/>
  <path class="cls-2" d="M5.294910912469277,8.625495600424983l-.91921225344413-.880508579615707.111273062258988-.116111021488905.913836743189677.876208171412145c.399937962902186.382736330091575.770310619405791.369835105480888,1.089615928498461.036553469730279.318767758064496-.332206533701537.313392247811862-.700966537129716-.086545715092143-1.083702867221291l-.913836743189677-.876208171410326.111273062258988-.116111021488905.91921225344413.881583681666598c.455843269544857.436491432628827.454230616469431.90308572268259.074182041505992,1.299798379430285-.380586125986156.396712656751333-.843955109885428.414989391614654-1.299798379430285-.021502041014173Z"/>
  <path class="cls-2" d="M6.342060309960289,5.84205639087304l.124174286866037-.102134694829147,1.406771033489349,1.705111852590562-.124174286869675.102134694825509-1.406771033485711-1.705111852586924Z"/>
  <path class="cls-2" d="M7.235470114183045,5.11636250657466l.73698245583364-.470894698257325c.5907685769198-.377360819831665,1.237980011508625-.244048165532149,1.585237973920812.298878370125749s.196206124272067,1.1858375620468-.394562452647733,1.563198381882103l-.737520006856357.470894698255506-1.190137970250362-1.862076752006033ZM9.073894621071304,6.391433538836282c.526800004899997-.336506941901462.650974291769671-.886959191917413.348333064463077-1.361079196325591-.303178778327492-.474120004408178-.854706130394334-.593456332047936-1.382043686317047-.255874288093764l-.590768576921619.376285717782594,1.033710621855789,1.619103688522955.5907685769198-.378435921886194Z"/>
  <path class="cls-2" d="M11.5810326035662,4.579886583218467l-1.178311847690566.506373065934895-.012901224608868.682689802262757-.15911510352089.067731429200649.06181836792166-2.431880838936195.147826531985629-.063431020997086,1.806708996389716,1.629854709030042-.159652654545425.067731429204287-.506373065931257-.459068575699348ZM11.471909745408993,4.47882699044203l-1.037473479034816-.942864498560084-.027415102294981,1.399782870157651,1.064888581329797-.456918371597567Z"/>
  <path class="cls-2" d="M12.049777097719925,2.729635953772231l.849330620139881-.208569797858217c.680539598164614-.166640817875304,1.250881236121131.169866124029795,1.404083278361213.79557551760081.152664491215546.625709393574652-.198356328375667,1.18476245999409-.878895926540281,1.351403277873032l-.849868171164417.207494695805508-.524649800796396-2.145903693421133ZM13.377528130471546,4.530431888881139c.607432658709513-.148364083011984.90308572268259-.630009801774577.769235517356719-1.176161643586966s-.617646128190245-.837504497583723-1.225078786901577-.689140414571739l-.681614700213686.166640817875304.456380820567574,1.865302058158704.681077149190969-.166640817875304Z"/>
  <g>
    <path class="cls-2" d="M14.77354814345199,3.243534734061541c-.039778775881132-.639685720234411.418752248790042-1.15035919436923,1.077789805938664-1.191213072299433.65581225099595-.041928979982913,1.17669919461332.404238371105748,1.217015521518988,1.047149397491012.040316326903849.641835924332554-.420902452891823,1.14928409231652-1.076714703887774,1.191213072299433-.659037557148622.040853877930203-1.177774296664211-.40853877930931-1.218090623569879-1.047149397491012ZM16.904400408160654,3.109146977709315c-.034940816651215-.557977964370366-.483258371841657-.945014702665503-1.04392409133834-.909536334987934-.564428576677528.03547836767757-.960603682398869.475195106460887-.925662865749473,1.033173070831253.034940816653034.557977964370366.483258371839838.945014702661865,1.047686948515548.909536334987934.560665719498502-.03547836767757.95684082522348-.475195106460887.921900008572266-1.033173070831253Z"/>
    <path class="cls-2" d="M18.703046139167782,2.100701254046726l.989093886746559.174166532233357c.712792659691331.125786939945101,1.125094296174211.640760822283482,1.008983274688944,1.300873481479357-.116111021488905.659037557150441-.679464496113724,1.001995111357246-1.392257155801417.876208171412145l-.989093886748378-.174166532229719.383273881114292-2.17708165289514ZM19.355633084012879,4.034809843458788c.433266126476155.075257143555064.761709802998666-.132237552250444.834816742453768-.549377147966879s-.163953062748988-.72461878224567-.597219189226962-.800951027853444l-.45906857569571-.080632653811335-.237597553230444,1.349253073767613.459068575699348.081707755864045Z"/>
  </g>
  <path class="cls-2" d="M21.469283715907295,2.684481667638465l.489171433120646.150514287113765-.650974291766033,2.113650631894416-.489171433120646-.150514287113765.650974291766033-2.113650631894416Z"/>
  <path class="cls-2" d="M23.293194345109441,5.234623732165346l-.938564090358341-.414989391614654-.370910207531779.352633472666639-.479495514660812-.21179510400907,1.797570628958056-1.622328994675627.46121877979931.204269389654655.007525714352596,2.42328002252907-.491321637218789-.218245716314414.013976326659758-.5128236782366ZM23.303407814591992,4.81533393234713l.022577143066883-.915986947293277-.663337965350365.631084903827286.640760822283482.284902043465991Z"/>
  <path class="cls-2" d="M25.079476402534056,6.833300481719562l-.022039592042347-.748271027363444-.020426938965102-.013976326659758-.373060411631741-.242973063483078-.335969390878745.516048984387453-.428965718274412-.279526533209719,1.207339603060973-1.851325731498946.802026129907972.522499596696434c.49454694337328.321455513192632.636997965104456.780524088888342.366072248300043,1.195513480502996-.181154695561418.278451431157009-.454768167492148.390262044442352-.762784905049557.336506941901462l.027952653319517.865457150905058-.460143677746601-.299953472178458ZM25.655731101769561,5.069058016339113l-.348333064463077-.22792163477061-.420902452893642.645061230487045.348333064463077.22792163477061c.262324900399108.170941226078867.474120004408178.135462858401297.605282454607732-.065581225098867.13277510327498-.203194287605584.077944898685018-.409613881358382-.184380001714089-.579480005388177Z"/>
  <path class="cls-2" d="M27.192589483403935,5.666814756590611l.393487350598662.326831023445266-1.411071441691092,1.700811444387-.393487350596843-.326831023448904,1.411071441689273-1.700811444383362Z"/>
  <path class="cls-2" d="M27.263546218759075,7.122502933389114c.479495514660812-.449392657237695,1.183687357943199-.40853877930931,1.661032668504049.101059592776437.475195106457249.507448167983966.474657555434533,1.212715113317245-.006988163331698,1.66425797465854-.481645718762593.451542861341295-1.186375113069516.406388575203891-1.661570219528585-.101059592776437-.47734531056085-.509598372085748-.471969800308216-1.214865317419026.007525714356234-1.66425797465854ZM28.56334459818936,8.510459680988788c.306404084481983-.287052247567772.312854696785507-.700966537129716.043004082031985-.989093886746559-.270388165778058-.288127349620481-.682689802266395-.308554288585583-.989093886746559-.021502041017811s-.313392247811862.700966537129716-.043004082031985.989093886746559c.269850614753523.288127349616843.682689802266395.308554288581945.989093886746559.021502041017811Z"/>
</svg>