<?xml version="1.0" encoding="UTF-8"?>
<svg id="Capa_1" data-name="Capa 1" xmlns="http://www.w3.org/2000/svg" viewBox="0 0 34.015748031495605 34.015748031495605">
  <defs>
    <style>
      .cls-1 {
        fill: #d1dbf1;
      }

      .cls-2 {
        fill: #1d3a69;
      }

      .cls-3 {
        fill: #e8edf9;
      }

      .cls-4 {
        fill: #b21d1a;
      }

      .cls-5 {
        fill: #f29cb2;
      }

      .cls-6 {
        fill: #edf2fa;
      }

      .cls-7 {
        fill: #e72c5d;
      }

      .cls-8 {
        fill: #fff;
      }

      .cls-9 {
        fill: #eeeded;
      }

      .cls-10 {
        fill: #b5b2b2;
      }

      .cls-11 {
        fill: #ee728b;
      }

      .cls-12 {
        fill: #e1e9f5;
      }

      .cls-13 {
        fill: #e8465e;
      }
    </style>
  </defs>
  <path class="cls-8" d="M0,17.007874015747802C0,7.614956225133938,7.614956225133938,0,17.007874015747802,0c9.392917790612046,0,17.007874015747802,7.614956225133938,17.007874015747802,17.007874015747802,0,9.392916740707733-7.614956225135757,17.007874015747802-17.007874015747802,17.007874015747802C7.614956225133938,34.015748031495605,0,26.400790756455535,0,17.007874015747802"/>
  <path class="cls-2" d="M5.125959023789619,26.134030846558744c.457455922620284-.488096331069755,1.161647765900852-.487021229018865,1.665870627732147-.013976326662487.281676737313319.263400002449998.419289799816397.583780413592649.39940041187765.912761641141515l-.449930208265869-.003225306152672c.008600816407125-.227921634772429-.067193878176113-.420364901867288-.229534287847855-.571954291031943-.304253880380202-.2849020434669-.719243271993037-.274151022957085-1.005220417509918.032253061523988-.286514696541417.305328982430183-.271463267828949.721393476093908.032790612551253,1.005220417509008.162340409671742.152664491215546.359621635996518.215020410161742.587543270767128.190293062993987l.033865714602143.448317555187714c-.32951877857522.044079184084694-.658500006122267-.073106939455101-.942326947537367-.338657146005062-.502072657729514-.469819596205525-.550452250015951-1.171861235385222-.092458776369313-1.661032668504049Z"/>
  <path class="cls-2" d="M7.628796598079134,26.901653710839128l.418214697765507.301028574226621-1.053600009794536,1.463213891154737.904160824731662.651511842792388-.245123267584859.339732248055952-1.322375522498987-.951465314969028,1.298723277381214-1.804021241260671Z"/>
  <path class="cls-2" d="M8.418996605425491,28.851888831010001c.308554288583764-.58378041358992.992856743925586-.775148578633889,1.612115525193076-.448317555188623.6181836792166.326831023447085.848255518090809.997694703153684.538088576431619,1.584700422898095s-.993931845976476.774073476582998-1.612115525193076.448317555188623c-.61925878126749-.327906125497975-.846642865013564-1.000920009306355-.538088576431619-1.584700422898095ZM10.109057029301766,29.745298635234576c.197281226324776-.373060411631741.068806531251539-.768697966329455-.28275183936239-.95361551906899-.350483268564858-.185992654790425-.749883680442508-.06988163330243-.947164906765465.303178778329311-.197281226324776.373060411631741-.067731429202468.768697966331274.28275183936239.95361551906899.351558370615749.185992654792244.749883680442508.06988163330243.947164906765465-.303178778329311Z"/>
  <path class="cls-2" d="M11.947481536190026,31.649304367223522l-.202119185552874-.72569388429838-.024727347168664-.007525714356234-.422515105969069-.146213878910203-.202119185552874.58485551564263-.487021229017046-.167715919928014.725156333272025-2.099674305234657.909536334987934.313929798836398c.561203270523038.19351836914575.812239599388704.605282454607732.649899189715143,1.077252254913219-.109122858157207.315004900888198-.348870615487613.490246535170627-.662262863299475.51282367823751l.238672655279515.838579599634613-.522499596694615-.180617144536882ZM12.079181537414115,29.787227615217489l-.394562452647733-.136537960454007-.252648981941093.732144496604633.394562452649552.136537960451278c.297803268074858.103209796878218.49454694337328.017201632814249.57356694410737-.21072000195727.079557551760445-.232222042975991-.023114694093238-.419289799817307-.320917962168096-.521424494644634Z"/>
  <g>
    <path class="cls-2" d="M15.439412997227919,30.155987618645668l-.401550615979431,2.186757571351336-.505297963880366-.093533878420203.164490613773523-.895560008326356-.993394294950122-.182767348638663-.164490613773523.896635110377247-.506373065933076-.093533878420203.401550615977612-2.185682469300446.506373065933076.093533878420203-.158577552494535.861156742700587.993394294950122.182767348637753.158577552494535-.862231844750568.505297963882185.092458776369313Z"/>
    <path class="cls-2" d="M17.509521996065814,32.061068452683685l-.015588979737004.412839187512873-1.720163281299392-.065581225100686.083857959964007-2.220085734925306,1.678234301316479.063431020997086-.015588979737004.411764085460163-1.16756082718166-.044079184082875-.018276734863321.482720820816212,1.031022866729472.038703673827513-.015051428712468.399937962902186-1.031022866727653-.039778775879313-.01935183691603.513898780287491,1.209489807164573.046229388184656Z"/>
    <path class="cls-2" d="M19.464595075467514,32.324468455133683l-.605282454607732-.718168169942146-.453693065443076.818152660668602-.587543270768947.054830204588143.712792659689512-1.203039194856501-.878895926538462-1.013821233915223.581630209488139-.054830204591781.575717148209151.669788577655709.432728575453439-.763322456075912.553677556166804-.05268000049-.67193878175749,1.140683275911215.932113478054816,1.067576336456113-.591306127946154.054830204591781Z"/>
    <path class="cls-2" d="M19.955916712688122,30.00009782127745l.504222861829476-.096759184572875.418214697767326,2.182457163147774-.505297963882185.096759184573784-.417139595714616-2.182457163148683Z"/>
  </g>
  <path class="cls-2" d="M20.881579578437595,29.84205781980927l.963291437527005-.298878370125749c.694515924824373-.216095512214451,1.300873481481176.053755102539071,1.499767360881378.696666128926154.199968981451093.641835924334373-.145138776859312,1.209489807162754-.839654701683685,1.425585319375386l-.963291437527005.298878370125749-.660112659197694-2.12225144830154ZM22.355544490099419,31.269793343286437c.421440003918178-.131162450199554.61925878126749-.468744494153725.492396739271499-.875133069362164-.125786939945101-.40531347315391-.480570616711702-.570879188980143-.902010620629881-.439716738780589l-.448317555188623.138688164553969.409613881358382,1.314849808142753.448317555188623-.138688164553969Z"/>
  <path class="cls-2" d="M23.269381233289096,29.029280669395121l.470894698255506-.206419593755527.893409804224575,2.03409308013579-.470894698255506.206419593754617-.893409804224575-2.03409308013488Z"/>
  <path class="cls-2" d="M25.89693064547464,27.652074942306172l1.110580418488098,1.924432670951319-.366609799326397.210720001959999-1.634155117235423-.614958373065747.675164087910161,1.168635929232551-.440791840832389.253724083991983-1.110580418488098-1.924432670952228.368760003428179-.21287020606178,1.630929811080932.617108577165709-.674088985859271-1.168635929232551.440791840834208-.253724083989255Z"/>
  <path class="cls-2" d="M28.471800057168366,27.857419434008989l-.804176334007934.646136332537935.144063674810241.494546943374189-.410688983411092.330056329598847-.61925878126749-2.352323287174841.396712656749514-.31823020703996,2.166330632386234,1.109505316436298-.421440003918178.337582043954171-.451542861341295-.24727347168664ZM28.100889849638406,27.654225146407043l-.807401640160606-.44294204493599.258024492195545.88480898781927.54937714796506-.44186694288328Z"/>
  <g>
    <path class="cls-9" d="M9.518970356357386,17.438108018472121c0-4.136097123116997,3.352254286586685-7.488353509512308,7.488352459607995-7.488353509512308s7.489452759364212,3.352256386395311,7.489452759364212,7.488353509512308c0,4.13609817302131-3.353354586342903,7.488352459607995-7.489452759364212,7.488352459607995s-7.488352459607995-3.352254286586685-7.488352459607995-7.488352459607995"/>
    <path class="cls-4" d="M9.518970356357386,17.47487776849448c0-.110090869964552,3.193723979788047-.990813630065531,7.341932799445203-.954483789964797,4.148207769752844.036329840103463,7.635872419527004.844392920000246,7.635872419527004.954483789964797,0,4.13609817302131-3.353354586342903,7.488352459609814-7.489452759364212,7.488352459609814s-7.488352459607995-3.352254286588504-7.488352459607995-7.488352459609814"/>
    <path class="cls-1" d="M11.201593257841523,13.59550955560826c-.020917244293742-.17944755109329-.053944085322655-.358895102187489-.058348434055006-.539442953036996-.009907947318425-.390820593555873.05174348581204-.77283458945476.197062846218614-1.136132990472106.408434838778703-1.020538521926028,1.16695818208791-1.63594415424177,2.224927893772474-1.894657383688354.097980223328705-.024219193464887.206969743634545-.008806597657895.295042019644825-.073759979957686h.058348434055006c.069356681129648.025319493219286.138713362259296.025319493219286.208070043388943,0h.412839187512873c.059449783715536.033025791122782.124403166015327.007706297903496.184952199582767.015412595806993.350087454626191,0,.683662013689172.089172575764678,1.004024576457596.21907934036426.385316994972527.157428957139928.780541937263479.26972252642372,1.196683073945678.300547718037706.125503465771544.063850982736767.132109463918823.074860279713903.045137487664761.191557147825733-.231188937099432.30715161637545-.442564079370641.626414929294697-.624212229975456.96549203703762-.372106048580463.703477908327841-.616506981974453,1.448790305243165-.701277308815406,2.240340489579467-.17614455202056,1.638146853560102.36109780150764,3.059414966262921,1.342003484256566,4.341967616899638.042935838249832.056146784641896.092476624742631.099081572987416.164033905382894.117797167868048.035229540346336.007706297903496.097981273233017.004403298829857.07376207976813.075962679276927-.050642136153328.036329840102553-.108990570210153.029724891859587-.167337954362665.031925491368384-.308254015939383-.01981589463503-.544948651431696.11999986718638-.724396202525895.353391503605962-.257610829881742.333573509158668-.386417294726925.715587505057556-.39192089331118,1.138334639887034-.012109596733353.755220344235568.053944085322655,1.50383574022726.11119116971895,2.254652785630242.030825191613985.393022242971711.083668977182242.782742536775004.095778573913776,1.175765829651027.009907947318425.361096751602417-.158530306798639.612102633241193-.485498867714341.755220344232839-.293941719888608.129906764601401-.624213279879768.059448733813042-.867512863615048-.189355498411715-.249905581882558-.254308880711505-.448067677953077-.548250600601023-.623111930219238-.858705216051931-.371004698921752-.659441770319972-.594488388020181-1.369525676794183-.736504749353116-2.110434774882378-.171741253190703-.890631757322808-.265318177689551-1.791170412061547-.354491803360361-2.6928114663624-.070458030788359-.724395152621582-.268620126858877-1.410258815725683-.597791387093821-2.058692338974652-.15192430865136-.298345018716645-.292840370229897-.602193636019365-.468984922250456-.888429058004476-.146420710065286-.278529124081615-.312656264864927-.546048951186094-.473389270982807-.815771477609815-.145319360406575-.244398833585365-.237794935246711-.506415062105589-.325867211256991-.773934889210068-.015412595805174-.04844048673931-.009907947316606-.096878873668174-.013210946392064-.145319360409303"/>
    <path class="cls-3" d="M17.231577134854888,18.40349086545757c-.242199283980881-.006604948242966-.323665561842063-.213575741781824-.434857781467144-.367701699846293-.479994219225773-.668249417883999-.852099217901923-1.389341571431942-1.053565362952213-2.190800752990981-.15632865738371-.622009530654395-.206969743632726-1.251727459022732-.144218010746044-1.893554984122602.077062979031325-.782743586676588.306051316620142-1.515946386862197.652835772172693-2.215020996358362.197061796314301-.395223892386639.435958081221543-.768431290625813.714487205303158-1.111913797009038.061650383226151-.07926357854376.001101349658711-.080363878298158-.031926541272696-.110088770155926.060550083471753-.059449783715536.138714412163608-.042936888153235.210272742708185-.040734188834904.299446368377176.005503598584255.592287788509566-.041834488591121.870816912591181-.145319360408394.484396468151317-.181648150603905.96549203703762-.365499000527052,1.492825393343082-.376510397311904h.679258714861135c.214676041538041.061652483033868.440361380051399.075962679275108.653937121833224.147522059724906.394123592630422.13320976367504.754118994575038.322566311991068,1.077785606321413.588983739531614.313757614523638.256510530127343.543846251866853.573571143724621.739806698524262.922557248692101.014312296050775.027524292347152.028624592101551.05174348581204.062752782789175.056146784641896.007706297903496.006605998147279.016512895561391.016514995370017.01431019624215.024221293272603-.066053682054189.191557147828462-.142016361332935.379811296580556-.165135255041605.583478041139642-.2609138289572-.006605998147279-.514121360010904-.060550083469934-.76953159038203-.103484871815454-.024219193464887-.004403298829857-.044037187910362-.022018593956091-.053944085322655-.046237787420978.10788817064531-.24440093339399.033025791122782-.493205165617837.014312296050775-.739806698522443-.007706297903496-.102384572063784-.009908997222738-.204769144123929-.030825191612166-.307153716184985-.02862459210337-.138713362259296-.102384572062874-.202566444804688-.216878740855464-.192657447581951-.11339386904001.009906897412293-.168438254117063.082566577617399-.164034955289026.233391636416854.006605998149098.265317127786147.052843785568257.527333356305462.070456980885865.790447784774187.004405398636663.077065078839951.061650383226151.133211863480938.078165378596168.204769144121201-.015412595806993.064953382299791-.068256381375249.086971976256791-.122200466697905.08807227601028-.202566444804688.006605998149098-.39742659170588.061650383226151-.597792436999953.085871676499664-.067153981810407-.006605998147279-.097979173422573-.058349483962047-.133207663864596-.105687571134695-.148622359482033-.203666744559087-.291741120377992-.408435888683016-.439261080297001-.61320293299832-.093577974403161-.131009164164425-.211375142271208-.164034955287207-.312657314767421-.089174675573304-.095778573913776.069356681129648-.105687571136514.186053549243297-.018715594880632.314860014088481.104585171571671.154125958064469.217979040609862.303848617300901.328069910574413.455773975856573.041834488591121.056144684833271.104585171571671.110090869964552.074860279713903.197062846220433-.296142319399223.144216960843551-.584580440701757.302746217737877-.842191270585317.511918660689844-.721093203450437.585680740457974-1.163655183012452,1.332095536938141-1.314480241811907,2.253552485874934-.119997767378663.734303099940007-.018715594880632,1.437781008266029.307153716184985,2.097222778586001.481093469075859.972099085091031,1.251727459022732,1.613925560287498,2.301990872803799,1.911170279249745.06495338230161.018715594880632.137613062504897.023118893710489.184951149680273.082567627521712.055044385077053.137613062503078.004403298828038.274125825251758-.013209896487751.408435888683016-.08807227601028.634121227196374-.180547850850417,1.268242454392748-.344584905946249,1.889151685292745-.213573641973198.805862480387077-.557056148356423,1.545670228815652-1.084389504661885,2.197405701233947-.191557147825733.235593285832692-.416142186584693.401829890533918-.739808798331069.388619994046167-.398526891460278-.015413645711305-.732100400620766-.340179507307766-.744209997354119-.737606099013647-.00880869746652-.317060613597278.048438386929774-.628617628612119.070456980885865-.942375243136667.033027890931407-.495406815031856.079265678350566-.990813630066441.110090869964552-1.486220445099207.020916194391248-.355592103114759.024219193464887-.70898255681459.025319493219286-1.063474360174951.001102399564843-.369903349261222-.104585171571671-.70788120715406-.297242619153621-1.021638821679517-.131009164164425-.213575741781824-.308254015939383-.369904399165534-.543847301771166-.456875325517103-.045137487664761-.016513945465704-.095778573913776-.028623542196328-.122200466697905-.075962679276927"/>
    <path class="cls-8" d="M19.507808604519596,9.951845918419167c-.175044252266161.034128190684896-.35228910404112.063853082542664-.526233056551064.102384572060146-.274123725444952.060550083471753-.536139953965176.155226257820686-.794853183409941.260913828955381-.400727490970894.162934655532808-.821274026289757.220181739930922-1.252828808683262.199263445731049-.404031539948846.001100299754398-.781642237017877-.115594468548807-1.151545586279099-.265317127785238-.341280856968297-.137613062504897-.696872960083056-.231191036908058-1.064574659931168-.268622226670232-.009908997220919-.006603898337744-.013210946390245-.012109596730625-.009908997220919-.018713495072006.00330299907364-.00660599814637.005505698392881-.0099089972191.008807647562207-.0099089972191h4.791136644513244Z"/>
    <path class="cls-12" d="M14.125925431077121,9.951845918419167c-.069356681129648.046237787418249-.137613062504897.047338087172648-.206969743634545,0h.206969743634545Z"/>
    <path class="cls-6" d="M14.717331299936632,9.951845918419167c0,.008806597656985,0,.018715594879723.001101349658711.028622492291106-.060550083471753-.007706297902587-.126604815430255.024221293274422-.178347251339801-.028622492291106h.17724590168109Z"/>
    <path class="cls-1" d="M20.989845180798511,18.506975737274843c-.028622492294744.263116528274622-.057247084398114.526232006646751-.085869576691039.789348534922283-.530636355380921-.100181872742723-1.009531324756608-.322565262088574-1.433377709436172-.649533823004276-.468985972154769-.362197051357725-.844393969904559-.808064129802005-1.093198202128406-1.349708732255749-.177246951585403-.384215645311997-.280731823400856-.788247185259934-.323666611746376-1.21319596950525-.066053682056008-.642929924664713.056146784641896-1.249526859513935.313757614523638-1.829704001388563.245501233150208-.55155254976944.62201163046484-1.008428925190856,1.106408098616157-1.371727326210021.24770393246763-.186053549240569.500911463521334-.363298401015527.805862480387077-.448067677952167.037431189761264-.012109596733353.062752782790994.013209896487751.090274975329521.031925491368384.170640953436305.115594468548807.280729723592231.073762079766311.341279807063984-.126603765525942.008806597657895-.027522192541255.009908997220919-.058347384152512.031925491366565-.079265678352385.212475442027426-.038531489517482.419445185660152-.101282172498031.638526625834857-.094676174350752.035228490442023.001100299756217.071557280640263-.028624592101551.107888170647129-.044037187908543.08807227601028-.03963178927188.176144552018741-.031925491368384.265317127785238-.004403298829857l.835587372244845.138713362259296c.103484871817273.036330890005956.211373042462583.041834488591121.317060613599097.062752782790994.082566577617399.310454615449999.11119116971895.624212229973637.05944768390691.94347344308153-.056144684833271.02532159302973-.105685471326069-.003300899265014-.153025658310071-.024219193464887-.85760386639231-.37210499867615-1.697594537467012-.337976807988525-2.519969913417299.105687571136514-.092475574838318.047338087175376-.183850849922237.097981273233017-.264216828029021.166235554797822-.011009296977136.00880869746652-.022018593956091.016514995370017-.033027890933226.024221293273513-.079265678350566.05944768390691-.158529256894326.119997767378663-.232291336662456.18715174918907-.052841685757812.049542886303243-.103484871815454.101284272306657-.153025658310071.153025658310071-.063850982736767.060550083471753-.105685471326069.137613062504897-.166235554797822.199265545539674-.015412595806993.020916194391248-.030825191612166.042934788345519-.045137487664761.064953382299791-.086971976254063.111191169719859-.158529256894326.23228923685474-.219079340366079.359995401944616-.058347384152512.11119116971895-.11119116971895.225685338513358-.150825058799455.345683105892022-.027522192538527.092475574839227-.05944768390691.183850849924056-.078163278787542.278529124081615-.03963178927188.146421759971417-.051743485813859.297244718962247-.066053682056008.446967378198678-.02862459210337.127706165090785-.026421892784128.253207531053704-.001102399563024.380913696144489.011009296977136.047338087174467.01211169654016.094676174348933.013211996294558.143116661087333-.005505698392881.100181872743633.033025791124601.194860146901192.049540786494617.291741120377992.022016494145646.099080523084922.041834488591121.198162096072338.079265678352385.292839320325584.029722792049142.070458030788359.051741386003414.145319360406575.086969876445437.212474392121294.030825191613985.068256381376159.066055781864634.134311113335571.099081572987416.20146614505029.091375275083919.197061796314301.227888037832599.362197051357725.367701699848112.525131706890534.067156081619032.073759979959505.138715462067921.143116661089152.209172442951967.212474392123113.060550083471753.070458030788359.138713362259296.118897467622446.210272742708185.17504320236003.102384572061055.073761029863817.210272742706366.139815761822319.318160913353495.202566444804688.053944085322655.038531489515663.114494168792589.064953382299791.176144552018741.090274975328612.074862379522528.030825191613076.148622359482033.06385203264017.226787738078201.086970926350659.031925491368384.012109596733353.066053682056008.022018593955181.100181872743633.031926541272696.057247084396295.028623542199057.131007064355799.025320543124508.168438254117063.090273925425208"/>
    <path class="cls-5" d="M20.244532783881368,13.3274395786284c.896135355907973-.503114162840575,1.804382408357924-.503114162840575,2.722536358220168-.06495338230161.39742659170588.227888037835328.743111797406527.513021060254687,1.000722627288269.896135355907973.531736655135319.788249285071288.647331123684125,1.633743554730245.345683105893841,2.536484908787315-.027522192540346.08476927693664-.052841685759631.167337954362665-.051741386005233.256510530127343-.112291469475167.190456848071335-.208072143197569.390821643461095-.350088504530504.562561846747485-.068254281564805.082568677426025-.129906764599582.171741253192522-.232291336662456.217979040611681-.139813662013694.115595518453119-.260913828955381.252107231297487-.418342786095309.344583856041936-.301648017792104.041834488589302-.464580573516287-.077064028937457-.554855548845808-.402931240194448-.009908997220919-.045137487664761-.012109596731534-.090273925425208-.002202699317422-.135411413089969.00880869746652-.034128190685806.018715594880632-.069356681129648.019817994443656-.105686521230382.001100299754398-.037431189761264.00330299907364-.074861329618216.01431019624215-.110090869965461.0055056983947-.015412595806993.013211996296377-.028623542198147.022018593956091-.0407331389315.221282039683501-.230089687246618.446967378198678-.451370677026716.588983739531614-.749715695745181.528433656061679-1.111912747104725-.23889523500111-2.479236774484889-1.464202901050157-2.612446538159929-.365499000527052-.040734188834904-.70457820808042.023118893710489-1.034850817975894.166235554797822-.337976807988525.148622359482033-.637422126461388-.024219193464887-.672652716712037-.39522389238482,0-.125503465771544-.019815894636849-.254307830809921.067156081619032-.363298401018255"/>
    <path class="cls-13" d="M22.907400978281657,12.31901275324617c-.118897467622446.050641086248106-.22458503875896.0264218927814-.315960313842879-.062750682983278-.063850982736767-.115596568357432-.038531489517482-.223484739002743.018715594880632-.334675908723511.042934788345519-.081466277862091.073762079766311-.169538553871462.11119116971895-.254309930616728.063853082545393-.137613062504897.124403166017146-.276326424762374.190456848073154-.413939487267271.07155938044707-.146419660162792.194860146899373-.200363745485447.322566311990158-.145319360406575.125501365962918.055046484885679.173941852701319.190456848071335.111191169720769.334675908723511-.108990570210153.247703932469449-.22128203968532.491002466300415-.332473209406089.737606099013647-.024221293273513.055044385077053-.062752782789175.097979173422573-.105687571134695.138713362260205"/>
    <path class="cls-13" d="M24.632188038322056,12.34576431599271c.00330299907364.092475574840137-.034128190687625.157428957139928-.102384572061055.206969743635455-.226785638269575.164034955286297-.451370677028535.331372909648962-.682559614126149.491004566106312-.122200466697905.083666877373616-.262016228520224.058347384152512-.339079207553368-.05174348581204-.077062979033144-.108988470401528-.052843785568257-.243300633639592.070456980884046-.334675908723511.22128203968532-.1640328554804.446967378198678-.322564212183352.67045211720324-.483296168396919.082566577617399-.05944768390691.170638853627679-.075962679276927.262014128711598-.026421892784128.080365978106784.042934788345519.123302866260929.111191169720769.121100166941687.198163145974831"/>
    <path class="cls-13" d="M20.743573317857226,12.260554079231952c.018715594880632.12770406528216-.015412595805174.233391636416854-.138713362259296.291739020569366-.145319360406575.069356681129648-.236694635490494-.025319493220195-.325869311063798-.117795068059422-.143116661089152-.203668844368622-.286233322176486-.408435888683016-.429352083074264-.613205032805126-.106787870890912-.15302565831189-.099081572987416-.288436021495727.01981589463503-.374307697995391.121100166943506-.086971976255882.254309930618547-.052843785568257.362198101263857.096880973475891.171741253190703.237794935247621.341279807062165.477792569813573.511920760498469.716687804814683"/>
    <path class="cls-13" d="M21.754864282298513,12.117326128282002c-.08807227601028.040734188836723-.17614455202056.041834488591121-.265317127785238.004403298829857-.075962679278746-.058347384152512-.106787870890912-.138713362259296-.114494168794408-.231188937096704-.023118893710489-.255410230373855-.0484404867384-.509720160990582-.070459080694491-.765128291553992-.015412595805174-.172843652754636.053944085324474-.276328524570999.193759847146794-.293941719887698.15082295899083-.018715594880632.252107231297487.063850982734948.273023425688734.239995534755508.030825191613985.268622226669322.05174348581204.539445052847441.077062979033144.809165479462536.009908997222738.095778573913776-.022016494145646.173943952509944-.093575874594535.236694635490494"/>
    <path class="cls-11" d="M22.732356726015496,17.522546575539309c0,.048439436834087,0,.096879923572487-.001100299754398.145319360406575-.044037187908543.170639903531992-.013211996296377.307152666280672.158529256894326.393023292876023.070459080694491.034128190687625.074862379522528.097980223328705.005505698392881.136511712844367-.081468377669808.044036138006049-.121100166941687.127705115186473-.192659547390576.178346201435488-.007706297903496.005504648488568-.016512895561391.007706297904406-.025319493219286.006605998147279-.106787870890912-.02311889370867-.204769144123929-.018715594880632-.271925225742962.085870626595351-.048438386929774.018715594880632-.097979173422573.038531489517482-.146419660162792.059448733813042-.039631789270061,0-.078163278787542.002201649414928-.117797167868048.00330299907364-.075962679276927-.041834488591121-.148622359480214-.052843785568257-.209170343143342.028623542199057l-.009908997222738.003301949169327-.009908997220919-.003301949169327c-.173941852701319.018714544976319-.346783405648239.018714544976319-.520727358158183,0l-.009906897414112.003301949169327-.011009296977136-.003301949169327c-.060550083469934-.072659680205106-.128806464845184-.085870626595351-.208072143197569-.029724891857768-.058347384150693-.002201649414928-.117797167868048.005504648488568-.172841552945101-.023118893710489-.060550083471753-.019815894636849-.122200466697905-.039632839176193-.183850849924056-.058348434056825-.015412595806993-.051742435907727-.061650383226151-.020916194391248-.090274975329521-.036329840102553-.08807227601028-.002201649413109-.158529256894326-.051742435907727-.233391636416854-.08697092634975-.031925491368384-.082567627521712-.096878873668174-.100181872741814-.175042152455717-.093576924498848-.122200466697905-.048439436834087-.227888037834418-.122200466697905-.326969610821834-.204768094219617.003302999075459-.146420710065286-.124401066206701-.13651276274868-.210272742706366-.177245901679271-.078165378597987-.059448733811223-.146419660162792-.125503465771544-.204769144123929-.205869443878328-.018715594880632-.178346201436398-.153025658310071-.296143369303536-.234491936173072-.442563029465418-.033025791122782-.056146784640987-.101282172496212-.056146784640987-.145319360406575-.09247662474354-.041834488591121-.06385203264108-.080365978106784-.129906764601401-.097981273233017-.204768094219617.046237787420978-.101283222400525.009908997222738-.167336904456533-.089172575764678-.206969743632726-.047338087175376-.094678274157559-.073759979959505-.193758797240662-.080365978106784-.298345018716645.046237787419159-.068256381375249.067156081619032-.13320976367504-.016512895561391-.188254148753913-.039633889080505-.026421892784128-.018715594880632-.073762079766311-.039633889080505-.105687571134695-.001100299754398-.048440486740219-.004403298829857-.096878873669993-.006603898338653-.144219060652176-.020918294199873-.132107364112017-.019817994445475-.26421682803084,0-.395223892386639-.007706297903496-.160731956213567.013209896485932-.317060613598187.066053682054189-.467883572589926.144219060652176-.052843785568257.071559380448889-.172843652755546.083668977182242-.266419527350081.02311889370867-.131007064355799.084769276934821-.243300633639592.151925358553854-.354491803358542.158529256896145-.068256381375249.232289236853831-.188254148753913.225685338515177-.359995401944616.004403298828038-.022018593954272.007706297903496-.046237787419159.03412609087718-.056146784640987.146421759971417.005505698391971.137613062504897-.123300766453212.178347251339801-.208070043389853.039633889080505-.058349483962047.086971976255882-.10788817064531.146421759971417-.145319360406575.12770406528216-.009908997222738.214676041536222-.069356681129648.239995534757327-.201466145048471.005505698392881-.005503598584255.013211996296377-.008806597659714.020918294199873-.008806597659714.134310063429439.006603898340472.186051449432853.095778573913776.213575741780005.210272742708185.033025791124601.329170210330631.319261213109712.489902166544198.615405632317561.345683105892022,1.100904500030083-.539442953038815,2.462722829017366.13320976367504,2.689508467286942,1.339801834841637.121100166943506.644028124610486-.048438386929774,1.216498968580709-.511920760498469,1.690988539319733-.07926357854376.080365978106784-.164034955289026.155227307724999-.246601532904606.233391636416854-.470086271909167-.033026841027095-.675955715787495-.333573509160487-.527333356307281-.768431290627632.148622359482033-.171741253190703.285133022422087-.347885805211263.342380106818382-.57687414279826.137613062504897-.558158547919447-.299445318472863-1.122923093986174-.873016462197484-1.133930291154684-.177244851774958-.004405398638482-.340179507307766.046237787419159-.506417161914214.08807227601028-.41173678794803-.020918294199873-.561459447184461-.200365845294073-.563662146503702-.688065312520848-.131007064355799.049540786494617-.22128203968532.142016361332935-.31265731476924.234491936173072-.350086404721878.353389403795518-.531736655135319.790449884581903-.529533955816078,1.277049052052462.005503598584255.957786789038437.679256615052509,1.700897536540651,1.555578176134077,1.849519896021775.393021193067398.06715503171381.761825292476715.004403298828947,1.119620094910715-.161833305873188.095778573913776-.04513748766567.178345151531175-.125503465771544.295042019644825-.119998817282976-.001102399564843.038531489515663-.003302999075459.078164328691855-.003302999075459.117797167868048-.01981589463503.025320543123598-.031925491368384.053944085322655-.026421892784128.08807227601028"/>
    <path class="cls-11" d="M22.702411354244759,18.375527713093106c.020916194391248-.04403613800423.029724891859587-.11229251937948.063853082545393-.127705115186473.210272742708185-.094677224253246.101282172498031-.15632865738371-.007706297903496-.245501233150208-.122200466696086-.099081572987416-.11999986718547-.186053549241478-.026421892782309-.334674858818289.061650383226151.286234372079889.263116528274622.388618944142763.52843365605986.409536188436505-.172841552945101.124402116112833-.354491803358542.230088637343215-.558158547919447.298345018718464"/>
    <path class="cls-11" d="M22.405828075021418,18.467563378011619c.058347384152512-.165135255044333.117797167868048-.182750550169658.270822826178119-.085870626595351-.084769276934821.046237787419159-.172841552945101.083668977180423-.270822826178119.085870626595351"/>
    <path class="cls-11" d="M21.162907213656581,18.530425350852965c.008806597657895-.06715503171381.058347384152512-.091375275083919.11339386904001-.084769276934821.058347384150693.007706297901677.090272875519076.052842735662125.094676174348933.114494168792589-.070456980884046-.00330299907364-.143116661089152.009907947317515-.208070043388943-.029724891857768"/>
    <path class="cls-11" d="M21.932550093899408,18.559159133008507c.064953382299791-.15192430865136.103484871817273-.157428957139928.209172442951967-.027522192538527-.066055781864634.039631789270061-.138715462067921.02311889370867-.209172442951967.027522192538527"/>
    <path class="cls-11" d="M21.39145459141946,18.559709282886615h.520727358158183c-.173941852701319.0407331389315-.346783405648239.038531489515663-.520727358158183,0"/>
    <path class="cls-11" d="M19.185133102475447,17.108056938393929c.093575874594535-.004403298828038.183850849924056-.005504648488568.189356548316937.123301816356616.001100299754398.029723841955274.024219193464887.03963178927188.044035088099918.055044385078872.11669686811365.090274975329521.17284155294692.206970793537039.146419660162792.357793752529687-.15632865738371-.157428957140837-.28403272266587-.334674858819199-.379811296579646-.536139953965176"/>
    <path class="cls-11" d="M19.381534508956975,14.116898353507167c.08476927693664.172841552944192-.029724891857768.354491803357632-.225685338513358.359995401941887.060550083469934-.129906764599582.124403166015327-.256510530127343.225685338513358-.359995401941887"/>
    <path class="cls-11" d="M20.215799001725827,13.706591535277767c-.050641086249016-.091375275083919-.129906764599582-.151925358555673-.213575741781824-.210272742708185.066053682056008-.078163278787542.158531356704771-.116696868111831.242198234076568-.169538553871462-.029722792049142.125501365962918-.028622492294744.253207531053704-.028622492294744.379811296579646"/>
    <path class="cls-11" d="M19.980866105728637,13.505786829966382c-.001100299756217.216878740855464-.019815894636849.233391636418673-.23889523500111.20146614505029.066053682054189-.082568677426025.153025658310071-.142016361332935.23889523500111-.20146614505029"/>
    <path class="cls-11" d="M18.861907450555009,16.104142601892818c.031925491368384.026421892784128.036330890005047.069356681129648.081466277861182.095778573913776.100183972552259.057247084396295.085871676499664.135410363183837-.026421892784128.198163145974831-.035228490442023-.094678274159378-.056144684833271-.192659547390576-.055044385077053-.293941719888608"/>
    <path class="cls-11" d="M19.769713543179023,17.848744506665753c.028622492292925-.001101349659621.057247084396295-.001101349659621.085869576691039-.001101349659621.157431056948553.002202699318332.176146651829185.02752324244193.124403166015327.17944755109329-.074862379522528-.053944085322655-.155228357629312-.102383522156742-.210272742706366-.178346201433669"/>
    <path class="cls-11" d="M19.595439920703939,13.852240565649481c0,.028622492295654.001100299754398.057247084398114.001100299754398.085869576691039-.002200599510616.156328657385529-.028622492292925.173943952509944-.179447551094199.123302866260929.056146784641896-.072659680204197.102384572061055-.153025658310071.178347251339801-.209172442951967"/>
    <path class="cls-11" d="M19.004914921590171,14.830614929018338c.011009296978955.026421892784128.019815894636849.052843785568257.031925491368384.078163278789361.061650383226151.124403166015327.031927591177009.173943952509944-.115594468548807.18825624856072.017615295126234-.092475574840137.038531489517482-.182750550167839.083668977180423-.266419527350081"/>
    <path class="cls-11" d="M18.998749883268829,16.696318050637274c.057247084396295,0,.125503465771544-.018715594880632.147522059725816.059448733813042.017613195315789.060550083470844.009906897414112.118897467622446-.059449783715536.148622359480214-.0484404867384-.061650383226151-.063853082545393-.13651276274868-.08807227601028-.208071093293256"/>
    <path class="cls-11" d="M20.30651283707266,18.231418892397414c.129906764599582-.079264628448072.165135255043424-.060550083471753.175044252264343.093576924499757-.062752782789175-.023118893711398-.124403166015327-.047339137080598-.175044252264343-.093576924499757"/>
    <path class="cls-11" d="M18.855301452405911,15.564697549045377v.395223892386639c-.038531489515663-.132107364112017-.036330890005047-.263114428465997,0-.395223892386639"/>
    <path class="cls-11" d="M20.715169205666825,18.411857553195659c.041834488591121-.016513945467523.091375275085738-.055045434983185.091375275085738.036329840100734-.030825191613985-.012109596731534-.061650383226151-.02422024337011-.091375275085738-.036329840100734"/>
    <path class="cls-11" d="M22.732356726015496,17.522546575539309c-.100181872741814-.061650383226151.001100299756217-.06385203264017.026421892784128-.08807227601028,0,.031926541272696.005503598584255.064953382299791-.026421892784128.08807227601028"/>
    <path class="cls-13" d="M22.259078744893486,16.548026411026513c-.025321593027911.114494168792589-.045137487662942.230088637343215-.026421892782309.346784455551642.033027890931407.194860146900282.169538553871462.325868261160394.371004698919933.362198101262948.056146784641896.009907947316606.115594468548807.014311246146463.158531356704771.059448733811223-.355592103114759.228988337588817-.740909098087286.371004698921752-1.166960281896536.350087454626191-.936869544742876-.045136437760448-1.663466346779387-.688065312519029-1.812088706259601-1.586403367746243-.126603765527761-.760724992724136.147522059725816-1.389340521527629.767330990869596-1.855023494606939.035228490443842-.026421892783219.072659680205106-.083668977180423.125503465771544-.05174348581204.017613195317608.009908997221828.015412595806993.063853082545393.012109596733353.0968809734768-.038531489515663.41173678794803.099081572987416.581277441629027.507517461670432.623111930219238,0,.067153981810407-.059449783717355.085869576691039-.100181872743633.117795068059422-.32146601223576.25320963086233-.451372776837161.660543119981412-.330272609893655,1.044759815198631.11119116971895.355592103114759.465682973079311.634120177292061.847696968978198.655037421587622.170640953436305.009907947316606.331372909649872-.036329840102553.484398567959943-.110089820062058.050641086249016-.026421892782309.094676174348933-.075962679276927.161832255967965-.052843785566438"/>
    <path class="cls-7" d="M22.259078744893486,16.548026411026513c-.577974442554478.372106048580463-1.21649896857889.203667794463399-1.498331091735963-.393022242971711-.183850849924056-.389720293802384-.038531489515663-.928062947084982.314857914279855-1.17576687955443.040734188834904-.028622492294744.079265678352385-.057247084396295.119999867187289-.085869576691039.232291336662456-.095778573913776.473389270982807-.138715462067921.718890504133014-.069356681129648.389720293800565.110088770155926.633018827631531.371004698921752.706780907399661.768431290625813.072659680203287.386417294729654-.067156081619032.703477908326022-.362198101263857.955584089721015"/>
    <path class="cls-10" d="M31.465500976535623,13.31698253133527c-.199263445731049-.21907934036517-.384216695218129-.451370677025807-.715587505059375-.487701567032673-.432655082147903-.047338087174467-.717790204376797.178347251339801-.95778783894275.4888018667898-.262014128711598.341281906869881-.511920760500288.692468611348886-.802559481313438,1.087694603542332-.146419660162792-.493205165617837-.259813529200983-.921456948935884-.401829890535737-1.338699435276794-.351188804284902-1.037053517295135-.832284373171206-2.006948853162612-1.442184307094067-2.922902203514241-.502011763277551-.751918395064422-1.073382307491556-1.441084007339668-1.731722728152818-2.049883641508131-.702377608571624-.649533823003367-1.447690005488766-1.23851756253498-2.296487274221363-1.708603834444148-.602193636019365-.33577620847791-1.207692370922814-.650636222566391-1.850620195777083-.8895314575675-.805862480388896-.30054561822908-1.632641155167221-.526233056551064-2.490245021559531-.650634122759584-.996319328458412-.144219060652176-1.992638656918643-.18825624856072-2.988956935472743-.083668977180423-.540544302697526.057247084396295-1.08218890515127.123300766452303-1.61172391087166.269720426615095-.440361380051399.122200466697905-.885128158739462.220181739929103-1.318883540641764.371006798730377-.844393969904559.293939620079982-1.644750751898755.678156315296292-2.394466447645755,1.157049184863354-.913752750841013.581277441629936-1.761447620010586,1.252829858587575-2.497953419269834,2.057589939411628-1.04255711587939,1.140538389110588-1.888051385538347,2.410981443013952-2.432997937159598,3.858671448502719-.500911463523153,1.328792537864501-.772836689266114,2.39226584813332-.855403266881694,4.131694874191453-.015412595806993.581277441628117.041834488589302,1.204389371847356.070456980884046,1.41466211455554.105687571134695.24770393246763.299447418281488.390820593556782.575773843043862.475589870493422.527333356305462.16073300611788,1.174664479991407-.246601532906425,1.143839288377421-.791550184337211-.052843785568257-.912649301374586.02862459210337-1.810988406507022.173943952509944-2.708224062168483.106787870890912-.660543119980503.321463912427134-1.290261048348839.564762446258101-1.911170279248836.345685205702466-.881825159665823.822375375950287-1.693191238637155,1.380533923867915-2.451715631850675.374307697995391-.507515361859987.823477775513311-.958886038888522,1.278151451615486-1.400349818502946.520727358158183-.50531476235119,1.124023393742391-.907144652885108,1.728419729080997-1.295764646933094.443664379125039-.286235421985111.940172543816516-.500911463521334,1.439983707583451-.696871910176924,1.000721577385775-.393023292876023,2.033369696042428-.6187086313912,3.099045705630488-.714487205304977,1.26273780590418-.114494168792589,2.494649370291881.023118893710489,3.717754337019869.366601400093714.692468611348886.194860146899373,1.354112031085606.463480273760069,1.979426660624085.788247185260843,1.020538521923299.530636355380921,1.927683174810227,1.235214563461341,2.734645954951702,2.070801935708005.721093203452256.746412696671541,1.300167945761132,1.594109665649739,1.77575991606318,2.502354618289246.329170210330631.627517328857721.579074742310695,1.301270345325975.767328891062789,1.990435957601221.005505698392881.022018593954272-.01100719716851.049540786491889-.028622492292925.115594468547897-.292841420134209-.221282039684411-.569167844896583-.431554782390776-.845494269660776-.63962482577972-.629717928366517-.473389270982807-1.321086239961005-.119997767378663-1.477414897344715.483296168396919-.114492068985783.44366437912322.112293569283793.735405499503031.419445185660152.973200434747923,1.082188905149451.835587372246664,2.176487407034074,1.656861398536421,3.261979311258983,2.489144721803314.161834355776591.123301816356616.258713229444766.08476927693664.365501100335678-.064953382299791.402932290098761-.558158547919447.802559481313438-1.117417395593293,1.219801967654348-1.663466346779387.444766778689882-.581277441628117.865312264104432-1.180170178382468,1.344205133671494-1.735025727227367.101282172498031-.117797167868048.115594468548807-.274125825252668.164034955287207-.415039787022579-.020918294198054-.157431056948553-.041834488589302-.314860014088481-.063853082543574-.472288971229318"/>
    <path class="cls-10" d="M17.845222077581639,27.85233391089605c-.045137487664761-.396325766998416-.045137487664761-.38861946909492-.503113112936262-.37320634833668-.323666611746376.011008772026798-.649533823003367.005504123537321-.973199384845429-.011009296976226-.162934655532808-.00880712261187-.222383389344031.047339137078779-.232291336662456.203667269511243-.026421892784128.454673676102175-.056145734737584.910448176910904-.093576924498848,1.365121853013989-.011009296977136.133209238721975.028623542199057.193758797240662.162933605628496.209171393047654.526233056551064.057247084396295,1.051363713537285.018715594880632,1.575394070769107-.003302474122393.122200466697905-.005504648488568.155228357629312-.078164328691855.145319360408394-.198162621021766-.031925491368384-.384215645313816-.053944085324474-.768431290626722-.081466277863001-1.192279775115821"/>
    <path class="cls-10" d="M10.255035195788878,25.125282963986137c-.034128190685806.028623542198147-.083668977180423.055045434982276-.11119116971895.095778573912867-.24550228305452.374307697995391-.581277441629936.671551892004572-.857604916296623,1.020538521923299-.122200466697905.155227307724999-.11229251937948.267519827104479.057247084396295.388619469095829.378710996825248.270822301225962.748615395990782.55265389942997,1.146041987696663.79705483282396.154125958066288.094677749206312.23999658466164.083668452229176.33247320940427-.073760504910751.228987287684504-.391921943215493.466783272835528-.780541412310413.702376558667311-1.169160881405332.039632839176193-.064953382298881.064953382299791-.126603765525942-.012109596733353-.182750025216592-.389720293800565-.285134072324581-.77723893818802-.570268669604047-1.168059531744802-.854301392269917-.018715594880632-.014312296050775-.049540786494617-.013210946392064-.08917362567081-.022018593953362"/>
    <path class="cls-10" d="M7.823027318427194,25.09798125135967c.046237787419159-.028623542199057.103484871817273-.053944085325384.149723184187678-.094678274159378.332473209406089-.297243669057934.662744244444184-.598891686849129.996318803507165-.897236705566684.112291469475167-.100181872743633.117796117965554-.182750550169658.01651289556321-.307152666280672-.249905056931311-.307151616376359-.488801341838553-.623111930219238-.721092153547943-.943474492987662-.10018239769488-.137613062503988-.195960971608656-.15632865738371-.33247320940427-.064953382299791-.366601400091895.241097934320351-.735404449598718.479994219226683-1.10310614944683.718890504133014-.12109964199044.079264628446253-.160731956213567.169538553871462-.073761029861998.309354315693781.270822826178119.434856731562832.616506981974453.812467428631862.930264596498091,1.21429731916578.031926016321449.04073313893241.06495338230161.086971976255882.137613062504897.06495338230161"/>
    <path class="cls-10" d="M24.853579268059548,23.913957924023634c.025321593027911.037431189761264.03963178927188.072659680203287.064953382299791.094678274159378.366601400091895.325867211256991.719990803887413.667148068223469,1.11081349725464.966593386696331.121098067133062.09247662474445.184951149678454.069356681129648.276326424762374-.036329840100734.328069910576232-.378710996825248.61650593207014-.788247185262662.902741354057071-1.198884723360607.085869576691039-.122200466696086.070456980884046-.19926344572923-.057247084398114-.276327474666687-.383114295653286-.230088637343215-.760724992722317-.470086271909167-1.143839288377421-.700174909252382-.113393869038191-.06825638137343-.237794935246711-.095778573914686-.323666611746376.040733138930591-.22458503875896.356693452775289-.499811163766935.673754066372567-.756321693894279,1.006227275777746-.025319493219286.033026841028004-.048438386929774.06825638137434-.073759979957686.103484871816363"/>
    <path class="cls-10" d="M19.962480180813145,28.891257307830529c.493205165617837-.097980748279952.951181840793652-.280730773494724,1.416864813874781-.437058905927188.158529256894326-.052843785568257.210272742706366-.151924833604426.14751995991719-.303849667207032-.168438254117063-.413940012218518-.340179507309585-.826779199731391-.513021060254687-1.239618387242444-.062750682982369-.149723184189497-.186053549243297-.140916061578537-.310454615449999-.102384572061055-.387519694291768.115595518453119-.77283458945567.238896284906332-1.159251884184414.353390453699831-.0968809734768.028623542197238-.164034955287207.048439961785334-.134312163238064.173942902605631.115596568357432.486599692421805.227888037832599.974300734504141.337978907797151,1.462001251635229.031925491368384.143117710991646.123300766454122.12330129140355.214676041538041.093576924497029"/>
    <path class="cls-10" d="M23.643245337802,25.093357472616844c-.018715594880632.009907947318425-.052843785568257.022018593954272-.080365978106784.041834488591121-.330270510086848.245501758101454-.633020927441976.524030357231823-.993016329386592.731000625817614-.122200466696086.070457505835293-.197060746409988.173942902606541-.08807227601028.344582806135804.245501233150208.383114820606352.468985972154769.780541412312232.694671310668127,1.174665004942653.051741386005233.08917362567081.116694768305024.103485396768519.19596044665559.061650908180127.484398567961762-.266419002397015.904944053376312-.62641440434254,1.347508132745133-.953383490211309.077062979033144-.05614625968883.077062979033144-.13210841401451.015412595806993-.205868918925262-.322566311991977-.380913171192333-.642927824854269-.762926642139064-.966594436600644-1.141637638962493-.026421892784128-.033027890933226-.060550083471753-.066054731960321-.125503465771544-.052843785568257"/>
    <path class="cls-10" d="M14.559571622927251,27.402174298531463c-.008807647562207-.151924833604426-.057247084396295-.204768094219617-.159631656459169-.231189987003745-.407334539022486-.102384047107989-.82017372653354-.192657972533198-1.198884723358788-.385316470018552-.140915011674224-.071558855498552-.211373042462583.018715594879723-.258712179542272.136512237794705-.167337954360846.415040836925982-.33247320940427.82898084914541-.500911463521334,1.241820036658282-.051742435907727.127705115185563-.039632839176193.195960971607747.104585171571671.263116528275532.440362429955712.20807056834019.90604435313071.328069385623166,1.369525676795092.462379449052605.096879923572487.028623542199057.205869443878328.074861854569463.266418477445768-.070457505838021.193759847144975-.471187096615722.234492986075566-.983107857114192.377610697069031-1.416864288920806"/>
  </g>
  <path class="cls-2" d="M7.272937819259823,8.037913127292995l-.939101641382877-.77729878273567.38918694239328,1.103054704131864-.136000409427652.162340409673561-1.133695112581336-.167715919928014.918137151393239.763322456077731-.282214288337855.339732248055952-1.563198381880284-1.300873481482995.248886124762066-.299953472176639,1.458913482952994.223621226568866-.492396739273318-1.384731441445183.24727347168664-.296728166023968,1.56696123905931,1.296573073279433-.282751839364209.338657146005062Z"/>
  <path class="cls-2" d="M8.498016606159581,6.331726172655181l-.720318374043927.610657964860366.144063674810241.448317555188623-.368222452403643.312854696787326-.623559189471052-2.138377979064899.35478367676842-.30102857422753,2.008828181940771.963291437527005-.376823268808948.319305309090851-.418752248791861-.215020410161742ZM8.153446398875531,6.15433433427097l-.749346129416153-.384886534189718.257486941169191.802026129904334.491859188246963-.417139595714616Z"/>
  <path class="cls-2" d="M9.847807230955368,3.533235534392588l1.053600009794536,1.739515118213603-.330056329597937.199968981449274-1.507293075239431-.531100413099921.639685720232592,1.056825315947208-.397787758800405.240822859383115-1.053600009794536-1.739515118213603.332744084726073-.202119185552874,1.505142871135831.533250617201702-.639685720232592-1.056825315947208.397250207775869-.240822859381296Z"/>
  <path class="cls-2" d="M10.874529689479459,3.492381656460566l-.598831842302388.255874288093764-.150514287113765-.352633472666639,1.630929811082751-.694515924824373.150514287113765.352633472666639-.599369393328743.254799186042874.64667388356429,1.51911919779559-.43272857545162.183842450689554-.64667388356429-1.519119197797409Z"/>
  <path class="cls-2" d="M14.014902779901604,3.775133495824775l.102134694827328.363384493173726-1.515893891644737.427890616223522-.551527352066842-1.957760834528017,1.479877972942631-.417139595714616.102672245851863.362309391122835-1.029947764676763.290277553718624.119336327639758.425740412121741.909536334986115-.255874288093764.099446939701011.352633472666639-.909536334987934.255874288093764.127399593022346.453693065443076,1.066501234405223-.30102857422753Z"/>
  <g>
    <path class="cls-2" d="M15.869453817551403,1.83672449821097l.27576367603433,2.015816345272469-.383273881114292.05268000049-1.171861235385222-1.086928173372144.167178368901659,1.224541235875222-.460681228772955.063431020997086-.275226125007975-2.016891447321541.384886534189718-.051604898439109,1.170248582309796,1.085853071319434-.167178368901659-1.223466133824331.460143677746601-.063431020997086Z"/>
    <path class="cls-2" d="M16.388728108093346,1.848550620768947l.470894698255506-.008600816405306.033865714602143,2.03409308013579-.470894698257325.008600816405306-.033865714600324-2.03409308013579Z"/>
    <path class="cls-2" d="M19.01412731617711,4.032082885967611l.132237552248625-1.213790215366316-.705266945331459.934263682156597-.211795104010889-.023652245117773-.484871024915265-1.039623683134778-.131162450199554,1.186912664095871-.438641636730608-.048379592286437.223621226568866-2.021191855526922.38811184034239.043004082031985.617108577165709,1.339577155311417.883733885768379-1.174011439485184.384886534189718.043004082031985-.218245716314414,2.022266957577813-.439716738781499-.048379592288256Z"/>
  </g>
  <path class="cls-2" d="M20.185988551562332,2.205484501639148l.456918371593929.110735511234452-.47842041261174,1.977112671442228-.456918371593929-.110735511234452.47842041261174-1.977112671442228Z"/>
  <path class="cls-2" d="M22.076017956887881,4.519104114986476l-.12471183789421.356933880868382-1.487941238323401-.518199188491053.669788577655709-1.921207364799557,1.452462870647651.506373065931257-.12363673584332.355858778819311-1.009520825711661-.351558370615749-.146213878912022.417139595714616.891259600124613.310704492685545-.120411429692467.345107758310405-.891259600122794-.309629390634655-.154814695317327.445092249035952,1.044999193389231.363384493175545Z"/>
  <path class="cls-2" d="M24.700342062920754,3.999829824444532l-.946089804714575,1.801871037159799-.342957554208624-.180617144535063-.323605717294413-1.564273483932993-.574104495133724,1.093378785675668-.411764085461982-.216095512212632.946089804714575-1.801871037159799.345107758310405.181692246585953.31930530909267,1.564273483931174.575179597182796-1.094453887726559.412839187512873.216095512214451Z"/>
  <path class="cls-2" d="M25.267995945749135,4.858836363042428l-.527875106949068-.380586125986156.223621226568866-.310704492685545,1.438486543986073,1.035323274931216-.223621226568866.311779594736436-.52895020899814-.380586125987975-.964366539579714,1.339577155311417-.381661228037046-.275226125007975.964366539577895-1.339577155311417Z"/>
  <path class="cls-2" d="M25.842100440882859,6.037148210732994c.419289799816397-.434341228528865,1.068651438507004-.430040820325303,1.532020422406276.01720163281243.459068575697529.442942044934171.492396739271499,1.091228581573887.07095673535332,1.528795116255424s-1.071876744659676.427890616221703-1.530945320355386-.015051428712468c-.463368983899272-.446167351086842-.491321637220608-1.095528989777449-.072031837404211-1.530945320355386ZM27.102120044433832,7.252013528150201c.267700410651742-.277376329109757.254799186042874-.656887353046841-.006450612305343-.909536334987934-.262324900397289-.252648981939274-.641835924334373-.251573879888383-.909536334986115.026877551270445-.268775512702632.278451431160647-.255874288093764.657962455097731.006450612305343.910611437038824.261249798346398.251573879890202.640760822283482.250498777839312.909536334986115-.027952653321336Z"/>
  <g>
    <g>
      <path class="cls-2" d="M25.208865332953792,20.008099361031782c0-.737520006856357.292427757822225-1.155734704621864.685915108419067-1.155734704621864.394562452647733,0,.684840006366358.418214697765507.684840006366358,1.155734704621864,0,.737520006858176-.290277553718624,1.155734704623683-.684840006366358,1.155734704623683-.393487350596843,0-.685915108419067-.418214697765507-.685915108419067-1.155734704623683ZM26.207635138158366,20.008099361031782c0-.507448167982147-.127937144046882-.718168169942146-.312854696785507-.718168169942146-.182767348638663,0-.310704492685545.210720001959999-.310704492685545.718168169942146,0,.507448167983966.127937144046882.718168169942146.310704492685545.718168169942146.184917552738625,0,.312854696785507-.21072000195818.312854696785507-.718168169942146Z"/>
      <path class="cls-2" d="M27.191353514652292,20.838078144259271c0,.082782857913116-.009675918458015.142988572757531-.062355918948015.319305309090851l-.130087348148663.459068575697529h-.225771430670648l.099984490725546-.507448167983966c-.075257143556883-.040853877930203-.122561633792429-.139763266604859-.122561633792429-.270925716804413,0-.184917552740444.095684082521984-.306404084481983.221471022467085-.306404084481983.127937144046882,0,.219320818367123.12471183789421.219320818367123.306404084481983Z"/>
    </g>
    <g>
      <path class="cls-2" d="M27.303164127935815,20.008099361031782c0-.737520006856357.292427757820406-1.155734704621864.684840006366358-1.155734704621864.395637554700443,0,.685915108419067.418214697765507.685915108419067,1.155734704621864,0,.737520006858176-.290277553718624,1.155734704623683-.685915108419067,1.155734704623683-.392412248545952,0-.684840006366358-.418214697765507-.684840006366358-1.155734704623683ZM28.300858831089499,20.008099361031782c0-.507448167982147-.127937144046882-.718168169942146-.312854696787326-.718168169942146-.182767348636844,0-.310704492683726.210720001959999-.310704492683726.718168169942146,0,.507448167983966.127937144046882.718168169942146.310704492683726.718168169942146.184917552740444,0,.312854696787326-.21072000195818.312854696787326-.718168169942146Z"/>
      <path class="cls-2" d="M30.061875990319095,20.423088752646436c0,.395637554698624-.208569797858217.740745313009029-.665488169452146.740745313009029-.221471022467085,0-.454768167493967-.087083266116679-.609582862811294-.239747757330406l.146213878910203-.395637554700443c.121486531743358.127937144046882.288127349618662.201044083501984.454768167493967.201044083501984.184917552740444,0,.298878370125749-.108585307130852.298878370125749-.290277553718624,0-.17631673633332-.081707755862226-.290277553718624-.37198530958085-.290277553718624h-.409613881358382l.082782857911297-1.25786939945101h.975117560086801v.414989391614654h-.666563271503037l-.025802449219555.42466531007085h.131162450199554c.471969800306397,0,.660112659197694.296728166023968.660112659197694.692365720722592Z"/>
    </g>
    <path class="cls-2" d="M30.164010685146422,19.481299356135423c0-.376285717784413.164490613773523-.616033475116637.396712656749514-.616033475116637.233297145025062,0,.395637554698624.236522451179553.395637554698624.616033475116637,0,.379511023935265-.162340409673561.616033475115728-.395637554698624.616033475115728-.232222042975991,0-.396712656749514-.239747757333134-.396712656749514-.616033475115728ZM30.727364159771241,19.481299356135423c0-.239747757333134-.065581225098867-.35370857471753-.166640817875304-.35370857471753-.097834286623765,0-.166640817875304.117186123537977-.166640817875304.35370857471753,0,.236522451177734.068806531251539.354783676766601.166640817875304.354783676766601.101059592776437,0,.166640817875304-.115035919436195.166640817875304-.354783676766601ZM31.513263758915855,18.89106833023834h.272000818855304l-1.091228581573887,2.234062061587792h-.272000818857123l1.091228581575706-2.234062061587792ZM31.250938858516747,20.534899365929959c0-.377360819835303.164490613773523-.616033475114818.395637554698624-.616033475114818.232222042975991,0,.396712656749514.238672655279515.396712656749514.616033475114818,0,.376285717784413-.164490613773523.616033475114818-.396712656749514.616033475114818-.2311469409251,0-.395637554698624-.239747757330406-.395637554698624-.616033475114818ZM31.813217231090675,20.534899365929959c0-.236522451176825-.066656327149758-.35478367676842-.166640817875304-.35478367676842-.098909388674656,0-.166640817875304.115035919438014-.166640817875304.35478367676842,0,.238672655281334.067731429200649.35370857471753.166640817875304.35370857471753.099984490725546,0,.166640817875304-.118261225588867.166640817875304-.35370857471753Z"/>
  </g>
  <g>
    <path class="cls-2" d="M2.448417366242211,20.702615285856155c0-.612808168962147.470894698255506-1.052524907743646,1.104129806184574-1.052524907743646.35155837061393,0,.645061230487045.127937144046882.836966946555549.361234289071945l-.302103676276602.278451431160647c-.136537960454007-.156964899419108-.308016737559228-.238672655279515-.511748576187529-.238672655279515-.380586125987975,0-.650974291766033.267700410651742-.650974291766033.651511842790569,0,.383811432140647.270388165778058.650436740741497.650974291766033.650436740741497.2037318386283,0,.375210615733522-.080632653811335.511748576187529-.240822859381296l.302103676276602.279526533211538c-.191905716068504.234372247075953-.485408575941619.362309391122835-.839654701683685.362309391122835-.630547352800932,0-1.101442051056438-.438641636730608-1.101442051056438-1.051449805694574Z"/>
    <path class="cls-2" d="M6.56928352700379,19.685568745789169v2.03409308013488h-.470894698255506v-.834279191429232h-.924050212672228v.834279191429232h-.470894698255506v-2.03409308013488h.470894698255506v.802026129905244h.924050212672228v-.802026129905244h.470894698255506Z"/>
    <path class="cls-2" d="M8.32976313520885,21.719661825924049l-.491321637220608-.70634204738235-.482183269790767.70634204738235h-.540776331557936l.752571435568825-1.034248172880325-.714405312764939-.999844907254555h.534325719254412l.46820694312737.659037557147713.459068575697529-.659037557147713h.508523270033038l-.709029802510486.981568172391235.758484496847814,1.052524907743646h-.543464086684253Z"/>
  </g>
</svg>