<?xml version="1.0" encoding="UTF-8"?>
<svg id="Capa_1" data-name="Capa 1" xmlns="http://www.w3.org/2000/svg" viewBox="0 0 34.015748031495605 34.015748031495605">
  <defs>
    <style>
      .cls-1 {
        fill: #d1dbf1;
      }

      .cls-2 {
        fill: #1d3a69;
      }

      .cls-3 {
        fill: #ebf0f9;
      }

      .cls-4 {
        fill: #ec7089;
      }

      .cls-5 {
        fill: #b21d1a;
      }

      .cls-6 {
        fill: #e7295c;
      }

      .cls-7 {
        fill: #f29bb1;
      }

      .cls-8 {
        fill: #e6edf9;
      }

      .cls-9 {
        fill: #fff;
      }

      .cls-10 {
        fill: #b5b2b2;
      }

      .cls-11 {
        fill: #dee5f5;
      }

      .cls-12 {
        fill: #e8475e;
      }

      .cls-13 {
        fill: #ececec;
      }
    </style>
  </defs>
  <path class="cls-9" d="M0,17.007874015747802C0,7.614956225133938,7.614956225133938,0,17.007874015747802,0c9.392917790612046,0,17.007874015747802,7.614956225133938,17.007874015747802,17.007874015747802,0,9.392916740707733-7.614956225135757,17.007874015747802-17.007874015747802,17.007874015747802C7.614956225133938,34.015748031495605,0,26.400790756455535,0,17.007874015747802"/>
  <g>
    <g>
      <g>
        <circle class="cls-13" cx="16.912764170346236" cy="18.663043461794132" r="7.619381546708837"/>
        <path class="cls-5" d="M9.293382623638536,18.700393371338578c0-.112049728631064,3.249442130212628-1.008447557655927,7.469981908538102-.971097648112845,4.220539778323655.037349909542172,7.768781184879117.859047919481782,7.768781184879117.971097648112845,0,4.208068231153447-3.411313315555162,7.619381546706791-7.619381546710429,7.619381546706791-4.208068231153447,0-7.619381546706791-3.411313315553343-7.619381546706791-7.619381546706791Z"/>
        <g>
          <path class="cls-1" d="M11.005293296391756,14.753338015053487c-.020774274216819-.182860976875418-.054984156833598-.365386132088133-.059561741600191-.548651564031388-.009925292732078-.397347034685481.052705234882524-.786525546065604.200786498187881-1.156258766739484.415895451560573-1.038418418224865,1.186910664782772-1.663692956305567,2.264198481005224-1.927821110761215.099803835128114-.024469732498801.209718664826141-.008768290924309.299203996779397-.074477548797404h.060173823121659c.070202640612479.024761090926404.140405740317874.024761108859821.210608380930353,0h.421216761864343c.060361131774698.032716989112487.125511488733537.007536791805251.187956429281257.015517681505116.356418985898927.000393175170757.695566553040408.089978122163302,1.0209349978104.222788845941977.392839959948105.160351370906028.794231386285901.274848308350556,1.218266959745961.304859069549821.127907478592533.06567012076448.134431145179406.077269281545341.045563289058919.195348182803173-.235241305226737.312564747743636-.450770211033159.637246792593942-.634372632299346.983092258791658-.379737535993627.715296807854429-.627304485169589,1.473273151482317-.713902142042571,2.278629042092689-.179238313276073,1.666910835956514.367803954766714,3.112509000170576,1.365619188387427,4.417346241546511.043950047373073.057473019329336.093406418247469.10138646442374.166368188782144.119903252997574.035982543249702.009131227370744.099807048756702.005230829796346.07572686862477.078320130184693-.052018551257788.036062150448743-.111820511612677.029847039528249-.170127675459298.032074526469842-.314304379697205-.020041873408445-.555330216873699.122561362926717-.738386321234429.359742813210687-.261694979819367.339071991513265-.392065016298147.727802434620571-.39860750556727,1.158961637586799-.011638386458799.767067171399503.0552280483098,1.529672023540115.113749148018542,2.293236366140263.030592369472288.399162721174434.085473345865466.796457879106129.096873464699456,1.196931750877411.01043281654529.366494136976144-.16107626023404.62218135776493-.493861760411164.768203869188255-.299235673976.131300530558292-.634175682760542.059670206569535-.882258648911375-.193000816944732-.254337606091212-.2590403874392-.456796683325592-.558381210448715-.633952565098298-.873532967126266-.377117510293829-.670875728035753-.605081782516208-1.393991809263753-.750213852708839-2.147389225703591-.174609080899245-.906412731039381-.269438218554569-1.822783963042639-.359776998511734-2.739880551470378-.072565576007037-.736662801047714-.273873255930084-1.434856921036953-.608806148820804-2.094888570557487-.154145610504202-.303765038102028-.297888704393699-.612974840236348-.476682159616757-.903555836727719-.149210165211116-.283388949834261-.31789538040357-.55582318134293-.482017013067889-.83062354386675-.14790049668045-.247640355361-.242257116118708-.515336815806222-.331266486678942-.786606345260225-.01619255764308-.04934902740024-.010540014025537-.098747865666155-.013452824268825-.14826882089983Z"/>
          <path class="cls-8" d="M17.140478519997487,19.645207378302985c-.246550065183328-.00719296483021-.329048049814446-.216807198366041-.442807756899128-.374746673088339-.488742449637357-.678551651700218-.866594044582598-1.413405193467952-1.071914169680895-2.228227444485128-.159479545778595-.632904696572041-.209860982675309-1.273664819568694-.145704555216071-1.926851032624654.078132499367712-.795480484279324.310784997007431-1.541882572559189.664033508493958-2.253090183582572.20024626421764-.403163543885967.443593718699049-.78179144769274.725766400702923-1.132617197312356.064053132246045-.0796375358359.00219169488264-.081265398622236-.031762589467689-.110909579373583.062113018595483-.060260017749897.141321624543707-.043776063504083.214197545279603-.042332868199082.304670838555467.006033829197804.602363970680017-.041347152433445.885338682624933-.14737211049669.492835694625683-.184655272808413.983092222544656-.371865601421632,1.51889505319923-.382931264416584h.691998965916355c.218667243931122.062417945931884.447850399672461.077298964343754.664488466523835.150054795892174.401362044589405.134793962435651.767297044632869.328155133462133,1.097308264925232.598524738911692.319577026479237.261819810934867.553722025173556.58471486219787.752174625402404.939630726822543.015159146418227.027110081521641.029535085575844.052337220407026.063594042409022.057129393201649.007814627206244.007102869135451.017606095250812.0167760479344.015088446583832.024121888513946-.066799407650251.194842671349761-.144575653308493.386507317490214-.168046162136307.593793753721911-.264948090407415-.006420552056625-.52334037793662-.061772822024068-.783237561956412-.105464757954906-.024585178955022-.004133154349802-.044203924051544-.022423154269745-.054921835388086-.046921608358389.110030061250654-.248250710653338.033837675533505-.50156560276082.014880937980706-.752138257371371-.007864208910178-.10394162423836-.010177103509704-.209633170847155-.031397153958096-.312438441615086-.029266977113366-.141790883048088-.103432940290077-.206172118902941-.220700093728738-.196407352380447-.115864174898888.009647929048697-.17103300062081.08387381245393-.167172973269771.237776196643608.00675963876165.269574582675887.054510490894245.535724496000512.071530787516167.804548242964302.004889306763289.077223602453159.062842053253917.135193123665886.080124031081141.208418313611219-.015354718691015.065851574639964-.069458455987842.087724054841601-.124197573619313.08932511846433-.20628375466913.006034230898877-.404814400164469.062287687358548-.60787167145827.087015914159565-.068461312861473-.006460722111115-.100596683274489-.059403247861155-.136061373188568-.10785522054357-.150993729230322-.206290677953803-.297562750609359-.415753986856544-.446707265975419-.623367636878356-.096032412118802-.133679401219524-.2150376796817-.166731666829037-.318218120559322-.091574297233819-.097977116665788.071367382285644-.108205638236541.189611382467774-.019187200650777.320308903114892.107199313313686.157391440399806.221195910753522.310087460451541.334003465515707.463581602108206.042391437375045.057683969507707.105492417300411.112991478556069.075601996188198.200378793568234-.301453077887345.147630461339759-.594801383795129.308670146137047-.856408218365686.521593014950668-.733185751560086.596742235760757-1.18439577065692,1.35583783189486-1.337480195006719,2.293248072842289-.121882842659033.746348604724517-.019417663746935,1.4623626202183.312726487929467,2.133446773455034.489599111275311.989217216631005,1.273940325196236,1.642372211813381,2.341700650031271,1.945268199468046.066314608782704.018812440178408.13991221874312.02319212389466.188526159767207.083372834478723.056044769127766.140240778012412.004611098323949.279388012353593-.014061003530514.415396014278485-.08864290209749.645654442503655-.183699289220385,1.290495384007045-.35054814506293,1.922181665426251-.216565530658045.819905255010781-.566958503357455,1.573117200565321-1.103160742168257,2.235182143499514-.194699999898148.240400563728144-.423368056841355.408766807481697-.753152486755425.396092351711559-.404809809264407-.015559354349534-.744791542640087-.346455936260099-.756199006911629-.750831123781609-.009073451537915-.321584474517294.048743404360721-.638870982692424.070735643914304-.958554839749922.034695255346378-.504348584177023.080674020708102-1.007796440946549.112074847384065-1.512548102932669.022440311233368-.360736276060379.025029577916939-.720847276519635.026340738490035-1.081524789526156.001368087716401-.376404892959727-.105857852808185-.72009712943418-.302407984749152-1.039944421228938-.133796223934041-.217725371054257-.313200268639775-.37546743864732-.553251917182934-.464330027624783-.046225755691921-.0171119843626-.097305927321941-.028743395959282-.124551990973487-.077410221049831Z"/>
          <path class="cls-9" d="M19.456520639034352,11.046129096454933c-.178650219193514.034426476016961-.358150672765987.065001110017874-.53575600349177.104166877822536-.278137741421233.061335040154518-.544931372975043.157894283411224-.808646348075854.265225801207635-.408180446851475.166128427374133-.835155113449218.22435004437375-1.274019288650379.203232302119432-.411589188886865.000574489174141-.794925071026228-.117505272868584-1.172082063047128-.269929341645366-.347740810710093-.140535683603957-.708618477108757-.235477881292354-1.083073266347128-.273382266326735-.010153689927392-.006341890483782-.01360237278459-.012793509770745-.010379562127127-.019371277382561.0032448469683-.006622646884352.006525502943987-.009942167525878.009876858754069-.009942167525878,1.624693224330258,0,3.249386448656878,0,4.874079672985317.000000071730938Z"/>
          <path class="cls-11" d="M13.980702734816077,11.046129024723996c-.070202640612479.047003490708448-.140405740317874.047801791647544-.210608380930353,0h.210608380930353Z"/>
          <path class="cls-3" d="M14.582440966049035,11.046129024723996c-.000069781655839.009780709012375.000094113418527.019557508621801.00049719429262.029321920071197-.060620976624705-.008018889854611-.127808315186485.024487145497005-.181018663661234-.029321920071197h.180521469368614Z"/>
          <path class="cls-1" d="M20.964423245175567,19.750555757868824c-.029040186733255.267955844228709-.058081291648705.535910770286137-.087113214762212.803866614514845-.540041148031378-.102634261104868-1.027322773805281-.328943628604975-1.45919776532719-.662453329981872-.476447105620537-.36792924088877-.858299668496329-.82098961695192-1.111847640066117-1.371878079189628-.180356197030051-.39186233014243-.285463897043883-.801985278680149-.329299631046524-1.234921145794033-.066259518001971-.654392691966677.057352256984814-1.271552104220063.319664253547671-1.861451428491819.249637444339896-.561397637267874.632916858425233-1.026406424048218,1.125848961917654-1.395794182250938.25166019416065-.188585783574126.509231629062924-.369928102823906.818963014895417-.455722158679237.039077726929463-.013114949116243.064514976620558.013005686563702.092619538267172.031942539143529.173726021601396.117058754016398.285183852241971.075850016113691.346969998874556-.128717710792444.008440825744401-.027949176584116.009649150195401-.058514456702142.032885523209188-.080276297093405.215260797338487-.039321893030319.426460485979987-.103818244785543.649338501896636-.096341105509964.035835634500472.001202347132676.072732684706352-.029243111446704.109139426964248-.045059095062243.089511500071239-.039733463933771.17980345286378-.032056392557934.270423195803232-.004450153469406.283480628946563.047227130317879.566962176073503.094454260636667.850442805023704.141681390957274.104465892423832.036131472484158.214854043742889.042259586541149.322238829350681.06360365836008.084271448671643.315806872890789.112619327928769.635193012453783.061428056556906.959670649110194-.057591901877458.025750153000445-.108363565137552-.003374973252903-.157196032927459-.024541608201616-.872050327296165-.37799379079479-1.726393559572898-.343503781527943-2.563260159933634.107214795095388-.094302561612494.048852066432119-.187178272008168.100246782575596-.268748436077658.169514189155052-.010751883983176.008678568236974-.022236475348109.016406368655225-.033849611865662.023828417569348-.080310421555623.061619028097084-.161347123235828.122376121586058-.235986867124666.191014120789987-.053742892685477.050489856959757-.105627389710207.102856458895076-.156537698101602.156212391896588-.063766660186957.061006147832813-.107146977070443.13906735331966-.1684005794923.202091185627978-.016284834699036.02148799538827-.030774628135987.044230214671188-.046061401530096.066441730138649-.088640147561819.113125761308766-.160984442265544.236126928952217-.222221517453363.365926247168318-.059723915081122.113846067785744-.114060870015237.229987108199566-.154663693385373.352239965102854-.027542635685677.093974974493904-.059070171153508.186716383985186-.078874388545955.282849982468178-.040356751216677.149096094491142-.052879803793985.30220414453288-.06698120722649.455107901155316-.029082422999636.129049171131555-.027473772208396.258149300845616-.000935625088459.387281566607271.010269839654939.047992886339671.012541416166641.096709292755804.013304423478985.145507875630756-.005606405091385.102579629826323.032998459308146.197931404266456.049576193323446.296794730147667.022742392347936.100843824364347.043355526031519.202306956207394.082015481211783.298768342339827.02917515914487.071917252954336.051228916738182.146755213222605.087908358358618.215646628089416.031301663269915.069344992171864.066856334791737.136632818435828.100917127985667.204634523965979.092132903038873.201052273231653.231806395064268.36897595775099.373453055211939.535431943230833.069030584261782.073952382711468.141678796437191.144333991850544.213772428089214.215236204897337.061014875705951.071642260234512.140455781109267.121282348375644.213829355227062.178142028349612.103529349158634.075370041343376.212585221772315.142050496379852.323056009265201.206511728029.055485597706138.038698224231666.116864990741306.065982643792267.178922000375678.091943976512084.076636784680886.030392434106943.151859572662943.064302387777389.230747733903627.088871770701189.033581503401365.011885745431755.067780023542582.021723047597334.101796744111198.032327023955986.058458663492274.028251255402211.13386876012737.024803516963402.171914453105273.091302173806071Z"/>
          <path class="cls-7" d="M20.206070188747617,14.480566814168924c.911899325150443-.511968269761383,1.836060939849631-.511340010101776,2.770855993354417-.066298265654041.403122195026299.232290803467549.755294599935951.522470328952295,1.017444996870836.911164045153782.540907909642556.802012823858604.658306362778603,1.663461261166958.351824414814473,2.581168434429856-.028697705716695.085932699933437-.054344300375305.170736047458377-.053277375593098.261900036272891-.113876315903326.193346049871252-.210942598332622.397262562801188-.355497133508834.571366926760675-.069726564452139.083982501146238-.133181961729861.175291102156734-.237284255003033.22296630074743-.141699914567653.116686894076338-.264980226693297.25573680211437-.425058425618772.350112099900798-.30660498403995.042257979738679-.472120642996742-.07827513972552-.564130509961615-.410390136790738-.011037437861887-.0455661559281-.012384407444188-.091388482035654-.002649866541105-.137364142981824.008879715631338-.035580109789407.019435109164988-.070918281072409.019853799094562-.108208028397712.002070495167573-.037669411737625.003378901203178-.07542099992861.015213319022223-.111794410919174.005267596790873-.014808289093708.012759942928824-.028367404245728.021911439744144-.041088227733781.225266201248814-.233865469627744.454830401553409-.459331954601112.598965328617851-.762470339844185.537928416599243-1.131358153014844-.2424995155543-2.523359822984276-1.489473821900901-2.658968419789744-.371759013716655-.04042897974341-.717159843528862.023744404769786-1.051882243729779.170342610464104-.344183323562902.150741459941855-.649029993528529-.024952720024885-.685299927015876-.402905193047445.000420526290327-.127398526183242-.020145780228631-.258636161915092.068484267354506-.369533288570892Z"/>
          <path class="cls-12" d="M22.915499043723685,13.454585274529563c-.121791024694176.051616913933685-.228396275757405.026301515698833-.322245256609676-.06360526516346-.064840012226341-.117629627882707-.038801354849056-.228094754288577.01951774533336-.340399669217732.043350935133276-.083482326573176.075942640845824-.172552537348565.113320817199565-.259122563895289.064557212888758-.140298967206945.127070557822663-.281599660813299.19423999188075-.420651060879209.072563739646284-.150218101513929.198300182400999-.204965410452132.328272187991388-.148072102400874.127597592954771.055854051342067.176622878474518.194107215028453.1123594830824.340785760833569-.109978643185968.251024051255627-.225659182147865.499545278535152-.337628438872343.749706706553297-.025145268553388.056180920815677-.064136686594793.100166901550438-.107836530005443.141358194169698Z"/>
          <path class="cls-12" d="M24.670344236858,13.48178086088501c.003460619192992.093625609788432-.034417965081957.160214936182456-.104099538732044.210520240433652-.23114806024023.166868933645674-.46017053453761.336798595942128-.694286151485358.499393665272692-.124080046622112.086175097520027-.266755068003476.058966886293092-.345344820852915-.052335613607283-.078174735632274-.110715328463812-.052964276319472-.248304194212324.072201976856377-.340872528152431.225173465101761-.16652966883521.45404168521236-.328063100999316.681472035954357-.491537320674979.083853676916988-.060272986940618.173828857725312-.077697150017229.267436357320548-.027097112334559.081029356240833.04380096893783.124697063363783.113560975166365.122620140939034.201928669062909Z"/>
          <path class="cls-12" d="M20.713916284685183,13.395150579253823c.018571102087662.130028631845562-.015817481247723.237127737182163-.140848762011956.296660447393151-.148268571956578.070596461543573-.240596129089681-.025339729810185-.33162354380147-.119602780988316-.145622378136977-.207849964717752-.291467873932561-.415536035611694-.436788170954969-.623588686950825-.10892732746106-.155949105880609-.101323881577628-.29377130226203.020174243800284-.381526574977215.122668804460773-.088601024531272.258148051738317-.053873782399023.368286458189687.098779657393607.174775500965552.242244254479374.347314316250049.486102656544062.520799774778425.729277938129599Z"/>
          <path class="cls-12" d="M21.7428174093493,13.24930022521221c-.089488545580025.041766986892981-.179634507805531.043368968687901-.270433295778275.004437758137101-.076779102530054-.059521233049963-.107706148493889-.141340289803338-.116214919533377-.235015251372715-.023564163155243-.25942154387667-.049014267364328-.518675750780858-.071625360018515-.778178438169562-.015400627675263-.176749963785369.054918162666581-.281044166337779.197050539862175-.29908585793055.152757552383264-.019390429884879.25628965607757.063808353484092.277626315346424.244285294975271.032336451762603.273528463811999.05282287665068.54844772969409.079341742000906.822679399010667.009421441636732.09742064704551-.022604665397012.176970899087792-.095745021879338.240877095349788Z"/>
          <path class="cls-4" d="M22.737357496071127,18.748903728542246l-.000410426315284.148413433095811c-.045508657367463.172992915922805-.013638640879435.311884898257631.161133187371888.398947868767209.071382960584742.035559909988478.075458760156835.099509719450907.00479014335906.138455850308674-.082469061972006.045449547998032-.122482413989928.130684436688171-.195992796878272.182123225122268-.007768718223815.005714706801882-.016439088885818.007976166128174-.02601019380927.006784377980694-.108364483319747-.023223341766425-.208320277184612-.019737040075597-.275817501387792.086838936374079-.049867256280777.020099718286474-.099734512561554.040198518402576-.149590750686912.060292727651358-.039862770552645.001486521579864-.079739313800019.002977634024319-.119614938868835.004469664640055-.077680754968242-.042224007347613-.151355492018411-.054555984705985-.212250086186032.028450498874008l-.010196385281233.004112495462323-.010418584763102-.003511092355438c-.176655932942595.01916960935705-.353307274985127.019411088775087-.529954944311612-.000112017064566l-.010490202774236.003863670664941-.010477348261702-.003896724884726c-.061421629303368-.07451154987848-.131431911275286-.087836071909805-.211476060725545-.029686359307561-.059509061040444-.002183414648243-.120262255533817.004772661624884-.176158279558877-.023930334738907-.06244815417449-.02004921878688-.124898144709732-.040133328140655-.187347217066417-.060218355662983-.015082019326655-.051505815038581-.062865925927326-.020717648505524-.092104439467221-.036599281467716-.089526190948163-.001650874491133-.160710824722628-.052211889839782-.237095109994698-.088907579438455-.032209742967098-.083212154259854-.098804396553533-.101450736511651-.178695209997386-.09456444136049-.123386820967426-.049382999786758-.230739470285698-.124348126974837-.332423278297938-.208358173301349.003571718934836-.14865858520352-.126511386397397-.139522766969094-.213711828229862-.181014072514699-.079740231976757-.058995349643737-.149733986716456-.127711393525715-.207773960275517-.208347155229603-.018954901192046-.182536402828191-.156533107205178-.301961287857011-.23961551319735-.450381148160886-.032323597248251-.057747093877879-.102146570567129-.05727790763649-.147354983180776-.095010214198737-.042736672932733-.064623289128576-.082177080834299-.130830885230353-.099723494407954-.207557067631569.04709986274429-.103252191324827.010133949062947-.170709879536844-.0899659990082-.211284848740434-.049081294480857-.095236084680437-.075929786331471-.196531650010002-.082671979676888-.303307788103666.047495598179012-.068466300910586.068282267824543-.135272086517944-.016494179666552-.191623557911043-.040405414742054-.026857928348363-.019245964153015-.074586840039956-.040092315472066-.107560716656735-.002205467577369-.048850459628738-.004410016974361-.097700919257477-.00661548455173-.146551378885306-.020897769381918-.134121616143602-.020796769618755-.268247364059789-.000077127091572-.402376784666558-.007999181319974-.16289622997374.012614870542166-.321713936870765.067789205337249-.475605647303382.145434151305381-.053902245752397.0721689223883-.175886078056465.084439475553154-.271242443361189.022972855445914-.132272875435774.086080262630276-.247431011987828.153784995440219-.360628849854038.161300296069385-.068574186200749.236529511310437-.191180539588458.229430146069717-.365468997173593.005221687808444-.0231733013552.00934982362196-.04702559141333.03551243525726-.057197567523872.148857125126597.004915437478303.13952199238156-.125881934451172.182041974911044-.212192921528185.039353180831313-.059735396832366.088184730439025-.109968624525209.148781834393958-.148406087713738.129831524100155-.009953910098375.217732537023039-.069931474976329.24347003146795-.204072831829762.006014995045916-.006130639029834.013309932555785-.009428026692149.021885730711801-.009892392527945.136082491322668.006808250474933.18870428662558.098184107634552.217025538673624.214182142655773.033920311701877.335164019014883.325133849864869.498510612688733.626216901348016.351256372608077,1.120047902733859-.547797204343624,2.506409229050405.136864657043589,2.736611564227132,1.36372837842282.123085658033233.655980671626821-.049705656658261,1.237542987902088-.521352518942876,1.720275491597931-.080264512573194.082151205722766-.166615638205258.15835540694934-.250154379495143.237306321771939-.478603909674348-.032489999609425-.688888173182931-.338272722190595-.537778753314342-.781532063910163.15235263514478-.173908793176452.291019802250958-.353684250738297.348655776757369-.58670270606126.140464044725377-.567879247807468-.303785254262039-1.141838176061356-.888112044334775-1.153746875809702-.180481987643361-.00367819978328-.345208930259105.046699181021722-.51442577148191.088802907750505-.419159121212942-.020754834500622-.571284047802692-.202508954199402-.573994514199512-.699347803969431-.133165434495822.050019752546177-.225132147015756.145354999875963-.317636912826856.238361302187514-.357365629142805.359302090321762-.542196115722618.804460672242385-.539364449607092,1.29979142337379.005575186978604.975055780194452.69113404066411,1.731016275690308,1.582783831281631,1.882239317205858.400277674394601.067886933947193.775337544038848.0041923764893,1.139345284946103-.165567194316282.09744181791757-.04544266170069.181469030794688-.127281688710355.299859117974847-.122143594354384-.001169760904304.039879912477772-.002338603628232.079759824957364-.003508364534355.119639737438774-.019862980889229.02682762864697-.032121597718287.05589835317187-.026608846954332.090210925563952Z"/>
          <path class="cls-4" d="M22.706877603608518,19.616844105836208c.021007032763009-.044669101216641.030666282933453-.114463079829875.064870312155108-.129910417115752.213914745938382-.096601866551282.103635858000416-.159173498813288-.007874308885221-.249644726335646-.123979965037506-.100585817839601-.121768070202961-.189607250688823-.026937555279801-.339957109981697.062483045005138.289890071541777.268150701109334.394405668484069.538145107004311.41562739379242-.175827734876293.126668349355896-.361575482951594.234796037646447-.568203554994398.303884859640675Z"/>
          <path class="cls-4" d="M22.405049908411456,19.71046742019098c.059691778793422-.16737461725188.120135546741949-.186411091570335.275800974153753-.086849954446734-.086622906816046.045790190063599-.175487090218667.084503105057593-.275800974153753.086849954446734Z"/>
          <path class="cls-4" d="M21.140580606552248,19.774450283871374c.009178124022583-.068503945992234.059313488769476-.093580160239981.1161497287776-.086148470512853.058869089805739.007699796151428.091258795990143.054219933502281.09532541376575.115824729923588-.071419687770685-.003273285627984-.145297342531194.010951045633192-.21147514254335-.029676259410735Z"/>
          <path class="cls-4" d="M21.923594132669677,19.803680311356402c.066108936533055-.154039995321909.10611310675813-.15940579650578.212246413468165-.028457844256081-.066555171857544.040757685568678-.140712871418145.024821880417221-.212246413468165.028457844256081Z"/>
          <path class="cls-4" d="M21.373024218313731,19.80416969739872c.176607269419037.000032136043956.353215457020269.000065190261012.52988883537364.000105589858322-.176594414904685.041679530945657-.353245756945398.038912158466701-.52988883537364-.000105589858322Z"/>
          <path class="cls-4" d="M19.128300787286207,18.327119527797549c.094650551707673-.004669826286772.187250808199678-.005734906601901.193046358304855.125575723856855.001332278705377.030190436114026.024416233893135.040146641645151.044045078968338.055358467629958.119492820967935.092606438109215.176730305493038.211371156975474.149883650003176.364443398285403-.159888135733127-.159864423759245-.289730677990519-.341056621775351-.386975087276369-.545377589772215Z"/>
          <path class="cls-4" d="M19.328104029811584,15.283911447510036c.086486098045498.175253457079634-.029971220921652.360742703269352-.229443000585889.365468997173593.061385820294163-.131304203248874.127096266849549-.25988648357179.229443000585889-.365468997173593Z"/>
          <path class="cls-4" d="M20.176821575227223,14.866331789042306c-.051648524849952-.092328002238901-.132593408559842-.154974236029375-.216995238743038-.214165386005334.066694735167403-.079287425111033.161644613448516-.118053594118464.246255788599228-.171620247754618-.030604764899181.127028732134931-.029371649596214.256449763204728-.02926054985619.385785633759951Z"/>
          <path class="cls-4" d="M19.937910305841797,14.662042038914478c-.001159660929261.221009904295897-.02060854278534.237313437610283-.243460849671465.204076045432885.068067413780227-.083631988722118.156069426468093-.143490191149795.243460849671465-.204076045432885Z"/>
          <path class="cls-4" d="M18.799352819054548,17.305785548754102c.032715659970563.027103539542622.037140367820029.070764487149063.083042006090182.097085284472087.102113516097234.058555544928822.087146269228469.138062413313492-.026459183673069.202099449183152-.03642418767231-.096406295769157-.057061194027483-.195798489117806-.056582822417113-.299184733655238Z"/>
          <path class="cls-4" d="M19.72304524393985,19.080858045386776c.02922014995238-.000517849393873.058449481697608-.001806963843592.087657695310554-.001425922180715.160240716726548.002089761035677.178398637963255.028529461724247.126056887458617.182436322006652-.075947231744067-.054776346150902-.157144614864592-.103355944836949-.213714582769171-.181010399825936Z"/>
          <path class="cls-4" d="M19.545658439979888,15.014520958457979c.00036635368815.029179527988163.00143052392923.058370074045342.000984288608379.087537206701199-.002438685214656.159492563823733-.029129250160622.177572302198314-.183020754440804.124659387517568.057872864859746-.07313842262738.105291335949005-.155246933318267.182036465832425-.212196594218767Z"/>
          <path class="cls-4" d="M18.944888888301648,16.010009294537667c.010814320201462.026303811133403.020194443754008.053310024370148.032683523681044.078792530034661.062464681408528.127449255223837.032044470626715.177827554203759-.117134017389617.192449454241796.016876142412002-.093925393170139.038710455062755-.186304583536185.084450493708573-.271241984276458Z"/>
          <path class="cls-4" d="M18.938611293870053,17.908277611425547c.058565172332237-.000031217871765.128072291843637-.01890058475783.150502503101961.060575524841624.017357268561682.061498288388066.010192712565186.12081775299157-.060512631420352.150696469482682-.048927958474451-.062361370718463-.065266965779301-.138601839767034-.08998987168161-.211271994324306Z"/>
          <path class="cls-4" d="M20.26918035046765,19.470230291202824c.132381309054836-.080981912805328.168496988359038-.061873821018708.178698882717072.094554341463663-.063971414254411-.023192123899207-.127329484490474-.047546654414873-.178698882717072-.094554341463663Z"/>
          <path class="cls-4" d="M18.792660207411245,16.756857385202238c.0000321362877.134096366390622.000064272575401.268192273694694.000086308888058.402332712375937-.039202599366035-.134073871159671-.037052222571219-.268200078164227-.000086308888058-.402332712375937Z"/>
          <path class="cls-4" d="M20.684970670459734,19.653702312001769c.042180256046777-.016761242399298.093292563966315-.056048015321721.092111784904773.036563472731359-.030708519199834-.012163951752882-.061410611144311-.024363712242121-.092111784904773-.036563472731359Z"/>
          <path class="cls-4" d="M22.737357496071127,18.748903728542246c-.101460690351814-.062668499478605.001666496107646-.064907922663224.026629965088432-.090219648204766.001099979248465.033025753371476.005846968164406.067112914367499-.026629965088432.090219648204766Z"/>
          <path class="cls-12" d="M22.255872338577319,17.757391539284981c-.02622688421252.116325134035833-.046601291180195.234167548439473-.026842064593438.352822086583728.033071913680033.198589275000813.172192661544614.330941572371557.376631793247725.36821387442069.057587310981035.010499763757252.117883251999956.01460353658149.162467302436198.060464885030342.00001285451799.000005509036782-.000673025699143.000145530368172-.000663843902657.000152875752065-.361098947700157.23338205170694-.753650140139143.377334083719688-1.186404747786582.356431882504694-.954460625764114-.046101450607239-1.693388673005757-.700295817271581-1.844588992662466-1.614456548530143-.127934564894531-.773500807415985.15025643095214-1.41264127379236.78154627499498-1.887445356341232.035313190266606-.026559981309219.07299252955454-.084569672577345.127095348670991-.052586963377507.01767863144596.010450182436216.015353800512457.065267387270069.012186998816105.098851848721097-.039467035112466.418605027818558.100581074220827.591513471853432.515866395389821.633908718407838.000371862768588.068261548402916-.059372252268076.087554192895368-.100596683276308.120021238189111-.327502753425506.257926643971587-.459667372075273.67253762060318-.337195976242583,1.062799575749523.113420898782351.361421691971373.475019336226978.64480146007827.863379956630524.666979003156484.172846405472228.009870356384454.336578041324174-.037291124588592.492449140981989-.113258437264449.051584252270914-.025139568163468.096807355759665-.076297854842778.1646690972957-.05289868300224Z"/>
          <path class="cls-6" d="M22.255872338577319,17.757391539284981c-.58787004543592.378689306600791-1.237842091310085.207891741573803-1.52461531256813-.400633633822508-.186689800419117-.396151573847419-.039925206770931-.943153870190145.320635687641698-1.195739044555921.040790132021357-.02857491127088.080854902102146-.058185062249322.121265825919181-.08729205459349.237002373844007-.097280396168571.48269807284305-.14052173885284.732060063279278-.070099271034451.396276247376591.111911477931244.644077332366578.376501301092503.719807873711034.781545377411021.073552619151087.393393383098555-.068870821000019.715391953501239-.36915413798306.97221862659535Z"/>
        </g>
      </g>
      <g>
        <g>
          <path class="cls-10" d="M31.622853486576787,14.469966794770698c-.203003060531046-.223339513314386-.391228244625381-.459867510830918-.728102402907098-.496563804458674-.43943604438391-.047867438155663-.730628386632816.181778048328852-.974122967316362.498420082380107-.266748398942582.346881773535642-.520748604365508.703567515783107-.81722127474859,1.106106009737232-.149488957398717-.501808592116504-.264741400447747-.936947322399647-.408688969728246-1.362376814382515-.357076516962479-1.055320494066109-.846633141303755-2.042514336381828-1.467513303534361-2.973246370928791-.510724942147135-.765603541850396-1.091312657612434-1.466402106831083-1.761801278687926-2.086183345771133-.714295016678079-.660274647299048-1.473542859963345-1.260204475222963-2.336246352519083-1.739006311077901-.613227041725622-.340341810988321-1.229268103028517-.661360365915243-1.882857875649279-.904695709538828-.820725237053921-.305560756870364-1.661849060319582-.535640895333927-2.534145147759773-.661624472669246-1.013039000463323-.146310824042303-2.026581682695905-.191288048058595-3.041221289871828-.084484464734487-.5496331994309.057855743437358-1.100626577839648.124235965093249-1.640338120711021.273865122498137-.447217909490064.123986480832173-.899315931934325.224038554410072-1.340289029323685.377268774692311-.859392235981431.29862392567793-1.674208479838853.690399727386648-2.437131809116181,1.176508602688955-.9299012579595.592501240776073-1.792593069727445,1.275168918253257-2.541053901975829,2.094119749255697-1.061162937628978,1.161104894499658-1.921419829852312,2.453528803616791-2.476007247949383,3.926349418933569-.508785775642536,1.351181744569658-.78593447762978,2.434127649536094-.870323708115393,4.203969140086883-.015863353228269.590371697422597.042641006757549,1.225285974346662.071700603568388,1.438806771694544.10786037294929.252688303121431.305169074017613.398370688028081.586699139243137.48404369189393.535097680201943.162837807572032,1.194939671207976-.250498855978549,1.163028580929677-.80601829772877-.053294292456485-.927703941279105.028487144170867-1.84197600398511.176493426346497-2.754242285886903.109139674175822-.672703920189633.327442751344279-1.312814646777042.575239232694003-1.945030378640695.351726251887158-.897375251845915.836570534824205-1.722774575936455,1.404459346280419-2.49386513634272.380898237614019-.517189848821545.837681435881677-.976341006431539,1.300601099503183-1.425441255607439.530344378523296-.51451065816218,1.143583943434351-.923521211606385,1.757831470127712-1.318322810133395.452486755259088-.290830850783095.956715161160901-.509287260469137,1.466241360281856-.709591192762673,1.017745250799635-.40009356093924,2.067956369146486-.629446353013009,3.152121036111566-.72695337191999,1.284920463469462-.115563071351062,2.538230950205616.023992990474653,3.783091331242758.373753921518983.704672282690808.197987003327398,1.377352810279262.470757649301049,2.013861166453353.801536348877562,1.039388825833157.540145554808987,1.961367223915659,1.257352910711234,2.782382568881076,2.106718746926163.734657050888927.76002590094231,1.322929925963763,1.621501139091379,1.807465177056656,2.546397324482314.334537491464289.638576810016275.587855846237289,1.324300077124462.780357861207449,2.025541895742208.005949204094577.021670940647709-.011558425865587.049780533001467-.02925790908921.117403730533624-.297562536250553-.225074577198029-.578683769408599-.438709088518408-.860855798851844-.650945398379008-.640427022353833-.481701631852957-1.343286930788963-.12166277666347-1.50199123380844.491810001627528-.116792465030812.451463818700176.112931609060979.747598097982518.426229575054094.989806976750515,1.100906100667999.851104420065894,2.214553890102252,1.685709437906553,3.318984649447884,2.532291500935571.16444267479892.12605090229863.262496529765485.086880466026741.372526982680938-.065800357214357.40894875795675-.567481038294318.816199928493006-1.136556168532479,1.240551371642141-1.692465743137291.451577755397011-.591577986843731.880362595940824-1.20106779134403,1.367660922715004-1.765160987654781.10342266655789-.119718983524763.117025296363863-.279171808429965.167026813016491-.42227750825532l-.06538409282075-.480421794030917Z"/>
          <path class="cls-10" d="M17.764979690795371,29.259015063641527c-.046249484046712-.403636170998652-.045982947742232-.395618649563403-.511609385292104-.380181028200241-.329836080085443.010932435067843-.661007372571476.006177922262395-.990606060147911-.010660592786735-.165167857572669-.008438790549008-.226601176254917.048291351813532-.235841537107262.206533258408854-.027062383607699.463399915157424-.057691158823218.926684573112652-.095806826268017,1.389282510669545-.011154650766912.135386348445536.028856341612482.19767813398721.166398867646421.212776952463173.534660694058402.058694861118965,1.068708688992047.019355835689566,1.602808836028998-.003373317998012.124075405963595-.005280162639792.157709111690565-.07948960595877.147482605874757-.201750292942961-.032633213959343-.390146610484408-.054257045663689-.781215822576087-.082826500734882-1.212627489613624Z"/>
          <path class="cls-10" d="M10.042327136408858,26.484356007536007c-.034704077113929.029136718562768-.085270537567339.055454639719756-.112587131119653.097043779170235-.250038297554056.380694521812075-.591994975093257.683730876819027-.872484975729094,1.038614448456428-.124906740826191.15803713529931-.114415752401328.272951355865189.05752697402022.395661948663474.385205614260485.2749064687805.761242982471231.561691257323218,1.16545325666084.810326047678245.157503569498658.096883986271678.245764684979804.085884006701235.338869708819402-.074040395535121.232761041414051-.399809969368107.475293049021275-.793939586144916.714760895200016-1.189834037625587.040322455763089-.066659461622294.065955171812675-.129069803591847-.012730419433865-.186705352130957-.395700387131001-.289842928747021-.790961977394545-.580289796812394-1.18759765867253-.868848966510086-.019660300344185-.01430296374383-.05073272185291-.012916315659822-.091210649745335-.022217472166631Z"/>
          <path class="cls-10" d="M7.567835548197763,26.456559699230638c.046730259389733-.029013029261478.10603922100745-.055073951431041.152000188694728-.09609118318258.339217470514996-.302718310289492.674799907827037-.609506384084852,1.013703301416172-.912581818526633.113879126793108-.101838851705907.120669528330836-.186830105506488.017375569555952-.313217412122867-.254811734381292-.311785048406819-.497474721247272-.634005696812892-.733722125518398-.960217140562236-.101236463864552-.139785025586207-.199447356553719-.158272269402914-.338379890648866-.066450029702537-.372653595375596.246286339584003-.747800462477244.488797170451107-1.121958414783876.732807732732908-.123922932723872.080816431628591-.163853961757923.172284195877182-.075581141516523.313871699710035.275964055010263.442640110501998.626531546346087.827167486049802.94631615977778,1.235617289506081.032170942569792.041088903262789.065855064485731.089224265720986.140246353023031.066260862147828Z"/>
          <path class="cls-10" d="M24.895570125532686,25.251946492427123c.026111090450286.038769433150264.040803788386256.073889601581868.066453691128117.096670621592239.373014561322634.33130955105662.731522771389791.6788343603057,1.12933248063564.98247523396094.123572143009369.094319248632019.188340553982925.071621850468546.281325536549048-.035722500672819.334514966792995-.386170299229889.62751154630314-.802499089474622.919349246363709-1.220485333101351.086989824918419-.124592225572087.071804913637607-.202877732353045-.05798826035425-.280889814249349-.390263214547304-.23456472792077-.775302658981673-.477814550988114-1.165238082254291-.712933267307562-.114929783763728-.069299872021475-.241280824960995-.097600987071019-.329111103728792.042330515846515-.227717084260803.362796797624469-.507920793872472.685550661241905-.768795749112542,1.023079027591848-.026146069740207.033829001882623-.049794313081293.069589512357197-.075327759226639.105475516339538Z"/>
          <path class="cls-10" d="M19.919062870596463,30.31600762474136c.500933922514378-.099579569857269.967481002722707-.284801497877197,1.442154555421439-.444363070908366.160475022634273-.053942570932122.213330521210082-.15483983937429.149814949496431-.309982615809531-.172223177401975-.420679479393584-.346633192211812-.840468998885626-.521811503418576-1.259929962241586-.064087117707459-.153453899485612-.189486793122342-.143981542118127-.316660722563029-.105619825921167-.393665656316443.118753833714436-.78531455974553.244279849837767-1.179874819628822.359916662367141-.097747779809652.028645903265897-.166368607020559.049778661701566-.13603495874122.176775895011815.118314445784563.495343658207275.232209418838465.991764987307761.344107379236448,1.488605773894051.03255512792748.144551293981749.125830110908282.124674111758395.218305120197329.094597143607643Z"/>
          <path class="cls-10" d="M23.664168729746962,26.451841405511004c-.019406138251725.009886884302432-.054129937607286.021853482783627-.082198595498994.042756757375173-.335085741695366.24957236899354-.644243912955062.532963182497951-1.009844856786003.74329863506955-.124434757546624.071587887178794-.200244661793477.177507321594931-.089588989572803.350616522802738.249179799980993.389817543841673.476323603041237.793861988089702.707313348009848,1.195065096392682.052261962064222.090772273918446.118802156199308.106110013442958.198392606771449.062525202059987.494065037446489-.270555288531796.921314509725562-.636575480515603,1.371871812634708-.969154058553613.077736877310599-.057381060433727.077828469764427-.134958187937627.014454249618211-.209977130464722-.327303761256189-.387441305975699-.654058731703117-.775348874000883-.982370757392346-1.161932861608875-.027962247302639-.032925964338574-.061569921668706-.066467381071561-.12802881778407-.053198163072921Z"/>
          <path class="cls-10" d="M14.421963438720923,28.801031069332566c-.009010188889079-.153932927716596-.05815490898749-.208079332031957-.16217196301659-.234605019662013-.414554629565828-.105709771379225-.834042498310737-.19657352726972-1.220198903261917-.393102340262885-.1426324812237-.072589541251546-.214875003584893.019182462431672-.263465753985656.139846179699816-.169665599520158.421320887830916-.337651459816698.843329050640932-.509725835841891,1.263665332732671-.052761820510568.128881997230565-.040316152697415.198847716127602.10645146556999.267831488807133.447717266913969.2104337132605.922729821228131.332489858085864,1.393472010171536.469849341767258.099809542854928.029124211536327.210056502990483.076189218874788.270767523026734-.071443550142249.197603658869411-.480507548969399.239327376692017-1.000641767303932.384871457337795-1.442041432939732Z"/>
        </g>
        <g>
          <path class="cls-2" d="M3.864862127613378,14.165188391971242l-.097545985145189-.115006692538373c.213011806235954-.100757715311374.431397163985821-.346393097950568.532717819412937-.649375187435908.151058462601213-.451020442085792.021294187430613-.716477264641981-.223535590032043-.798452297120093-.676530663127778-.226587693899091-.741870417892642,1.317334306290832-1.573151175140083,1.039171983551569-.319034377112985-.107045798246872-.517273295265113-.445731088031607-.331774048696388-.999754150752779.083082976370861-.248080607423617.246574367332869-.480138719435672.430450049103456-.612007869043737l.111717921479794.105617668522427c-.191558287306179.143764525561892-.329198989828001.351797984402765-.397178585762958.554834640448462-.146630796734826.43811394362092-.009458779928536.70272124735402.238617717786838.785901045108403.676538882542445.226394051132047.748372077814565-1.315118418503516,1.566653624922765-1.041484692721497.319046706235895.106755334096306.510706853039665.454181991256519.324289195636084,1.01156092473866-.112185903055433.335014501602018-.345609858939497.615027044607814-.581260943565212.718994627242864Z"/>
          <path class="cls-2" d="M3.732196910097628,11.810900333840436c-.605013697106187-.33015047666413-.80576006199226-1.039369254944177-.466030324108942-1.662114567365279.338444590053768-.619889987409806,1.042049891762872-.839206834472861,1.6501002275254-.507472526413039.608054445468952.3316374866763.804281271395666,1.042216360540806.465836681341898,1.662106347950612-.339923380650362.622737093007345-1.044884668235682.837437579725702-1.649906584758355.507480745827706ZM4.831703049265343,9.796311997113662c-.527465907887745-.287866539686547-1.135769982678539-.101750906908819-1.425422215943399.428937062988552-.291126914151391.533438254110479-.118662609933381,1.145721684565615.408992831013165,1.433693265050351.527461798181321.287963361070979,1.135778202093206.101557264142684,1.426901006538174-.431784168585182.289450371083149-.530502546544994.116990176573381-1.142882798383653-.41047162160794-1.430846159453722Z"/>
          <path class="cls-2" d="M4.392736955329383,8.401502750196414l.103105612912259-.139371363275131,1.91192778218101,1.413488878999487-.103105612912259.139371363274222-1.91192778218101-1.413488878998578Z"/>
          <path class="cls-2" d="M6.495841550267869,6.019415085872424l1.703471631743014,1.658284773830019-.099582838105562.102080503408615-2.609543818354723-.279538165071244,1.479544787538543,1.440335883666194-.120889329336933.124164132692385-1.703277988975969-1.658276554414442.101823870645603-.10460426719419,2.607109143049456.282053709441243-1.479536568123876-1.440529526432329.120881109920447-.123970489926251Z"/>
          <path class="cls-2" d="M9.435043301489713,4.342554921108785l.983040484556113-.446845393758849c.707820159621406-.321445710495937,1.386955383966779-.115418101055184,1.684852313139345.540071433401863.297896929172566.655198808762179.006395965296178,1.302257298054428-.701424194325227,1.624187551376053l-.983040484554294.446748485193893-.983428118815937-2.164162076212961ZM11.189863598643569,5.660026863886742c.429498760604474-.195270758712468.594437138433932-.579707036535183.40604688784515-.994184969544222-.18819643345887-.414090298749215-.585909184703269-.542784873225173-1.015795579565747-.347611023078571l-.457408427357223.207868872178551.609554874592504,1.341602175491062.457602244485315-.20767505504682Z"/>
          <path class="cls-2" d="M12.088399814418153,3.240704535718578l.43279365181661-.128791483041823.238976521579389.935070744822042-.364570021973122.108149958672584-.307200151422876-.914429220452803Z"/>
          <path class="cls-2" d="M15.291809342954366,4.469698958543631l.08469808591326.43347201177221-1.807344739449036.353619354114926-.456826975965669-2.333945882299304,1.763929702276073-.34538212608004.084891903043172.433568920338075-1.227056251522299.240139424361587.099234370680279.506831795566541,1.083631575147592-.212229757607929.082372280350683.420195538350526-1.083825392277504.212035940478017.105824153108188.54036215909764,1.270471288695262-.24866737809225Z"/>
          <path class="cls-2" d="M17.859498684318169,2.45458225548191l.028297301014391,2.377942370862911-.45159391344896.00542687964662-1.202829110243329-1.42949824405423.017055907461327,1.443646894561425-.543463233181683.006492873862953-.028297301014391-2.377942370862911.455276438924557-.005233062516709,1.199146584767732,1.429304426924318-.017055907461327-1.44374380312729.543463233181683-.006395965297088Z"/>
          <path class="cls-2" d="M19.146153703388336,3.072277449543435l-.750847562532726-.12365532909007.072875240966823-.44229069119865,2.044383089729308.336369629524597-.072875240968642.442581416893518-.750847562534545-.123461511961068-.31320848246105,1.90347803604709-.542687964660217-.089252788474369.31320848246105-1.903768761741048Z"/>
          <path class="cls-2" d="M21.754544642102701,5.733192830551161l-.220176259948857-.774880886682695-.025583861190171-.008721770861484-.453532084751714-.15447225279695-.213586477520948.626804599181924-.520980446071917-.177536491295541.767515835732411-2.250507607733198.973737262305804.332105652658356c.601608372251576.204864706659464.871401817539663.645023409425448.699292205890742,1.149917033690144-.115127375360316.337435623740021-.369803084489831.527085685675956-.705106719799005.552766455431083l.257776783213558.895435141689632-.559356237859902-.190909873281271ZM21.888666096225279,3.740365097465656l-.424459515215858-.144587579155086-.26746763972551.784377926064735.424459515215858.144781396284998c.318247727847847.108537592932407.529508399804399.015505370419305.612849765806459-.228898030807613.084116634521706-.247504475311871-.027134398234921-.446942302324715-.345382126080949-.555673712387033Z"/>
          <path class="cls-2" d="M24.402086641122878,6.562730147959883l-.212035940478017.387246626210981-1.615271963384657-.883612296745014,1.141195262829569-2.08605377272761,1.576508537336849.862680046679998-.212035940478017.387343534775937-1.096617322875318-.60015474377542-.247698292439964.453047541926026.968698016919006.529992942630088-.205833792311751.375229964136452-.968310382657364-.529702216934311-.264366565641467.482701562852526,1.13576838318113.621280810970347Z"/>
          <path class="cls-2" d="M26.040229025875306,5.927397595047296l-.602383640771222-.464676569740732.274057422153419-.354782256896215,1.639692921793539,1.265335134743509-.274057422153419.354782256897124-.601996006511399-.464579661174866-1.178408151834446,1.526697534866798-.435700908770741-.33607890382882,1.17879578609427-1.526697534866798Z"/>
          <path class="cls-2" d="M27.7035676375599,6.735615028130269l.39383640863889.384048643561982-1.659849903338909,1.702586580556272-.393836408640709-.384145552126938,1.659849903340728-1.702489671991316Z"/>
          <path class="cls-2" d="M28.287344833830502,10.319681400450463l-.344606857559484.276092502021129-1.150498485079879-1.436088026483048,1.8548299363556-1.48589902895219,1.122976452586954,1.401588577300572-.344606857559484.275995593455264-.781083034849871-.975093982216094-.402751996631196.322705521843091.689988983640433.861129509637067-.334140732526066.26746763972551-.689988983638614-.860935692507155-.429111126342832.343637771908107.808992701604438,1.00939961426775Z"/>
          <path class="cls-2" d="M31.263213051470302,11.665547552808675l-2.094387909328361,1.125980618104222-.213974111780772-.39790656837431.710145965185802-1.728170441747352-1.271828008608281.683593018341526-.257389148953735-.478728311682971,2.094775543588185-1.126077526669178.215524648823703.401298368153221-.712084136486737,1.724778641968442,1.271828008606462-.683593018342435.257389148953735.478825220248837Z"/>
        </g>
      </g>
    </g>
    <g>
      <path class="cls-2" d="M24.583499475023928,21.30504252508581c0-.882837028224458.350421371467746-1.383466675623822.821396997938791-1.383466675623822.473495249167172,0,.821203180810699.500629647399364.821203180810699,1.383466675623822,0,.882837028223548-.347707931643527,1.383660492752824-.821203180810699,1.383660492752824-.470975626471045,0-.821396997938791-.500823464529276-.821396997938791-1.383660492752824ZM25.779932619969259,21.30504252508581c0-.60761670328975-.153309350016571-.859772789726776-.37503614700654-.859772789726776-.21901335716575,0-.372322707180501.252156086437026-.372322707180501.859772789726776,0,.607810520418752.153309350014752.859966606855778.372322707180501.859966606855778.221726796989969,0,.37503614700654-.252156086437026.37503614700654-.859966606855778Z"/>
      <path class="cls-2" d="M26.393557654295364,22.298742951804343c0-.221532979859148.117646998054624-.366895827536609.265529468424575-.366895827536609s.265529468424575.145362847677461.265529468424575.366895827536609c0,.217850454385371-.117646998054624.374648512745807-.265529468424575.374648512745807s-.265529468424575-.156798058360437-.265529468424575-.374648512745807Z"/>
      <path class="cls-2" d="M27.088973517582417,21.30504252508581c0-.882837028224458.350421371465927-1.383466675623822.821396997938791-1.383466675623822.473495249167172,0,.821203180810699.500629647399364.821203180810699,1.383466675623822,0,.882837028223548-.347707931643527,1.383660492752824-.821203180810699,1.383660492752824-.470975626472864,0-.821396997938791-.500823464529276-.821396997938791-1.383660492752824ZM28.285406662529567,21.30504252508581c0-.60761670328975-.15330935001839-.859772789726776-.375036147008359-.859772789726776-.21901335716575,0-.37232270718232.252156086437026-.37232270718232.859772789726776,0,.607810520418752.153309350016571.859966606855778.37232270718232.859966606855778.221726796989969,0,.375036147008359-.252156086437026.375036147008359-.859966606855778Z"/>
      <path class="cls-2" d="M30.396462845055794,21.801989647009577c0,.473882883426995-.249055012351164.886713370829057-.796588405266448.886713370829057-.265529468424575,0-.544819953094702-.103304530415699-.730884398120907-.286655535619502l.175210685732964-.473882883426086c.144975213415819.152727898626836.344800674689395.240720875753141.544626135961153.240720875753141.2219206141217,0,.358755508068498-.130051294388068.358755508068498-.347901748773438,0-.210097769175263-.098652919290544-.347707931642617-.446360850932251-.347707931642617h-.489969705236945l.098652919288725-1.505765284801782h1.168911112452406v.496753304793856h-.799495662222398l-.030041655187233.508382332608562h.15602278984079c.566721288807457,0,.791161525621646.355460616852724.791161525621646.82934350027881Z"/>
      <path class="cls-2" d="M30.517404734324373,20.674555400428289c0-.451012462059225.197112021449357-.737667997677818.476208688987754-.737667997677818.279290484670128,0,.473689066297084.282779193013994.473689066297084.737667997677818,0,.454694987533003-.194398581626956.737667997676908-.473689066297084.737667997676908-.279096667538397,0-.476208688987754-.286655535618593-.476208688987754-.737667997676908ZM31.193632701715615,20.674555400428289c0-.286655535618593-.079465023396551-.424265698085946-.200019278403488-.424265698085946-.117646998052805,0-.199825461271757.141486505071043-.199825461271757.424265698085946,0,.282779193013994.082178463218952.424265698085946.199825461271757.424265698085946.120554255006937,0,.200019278403488-.137610162467354.200019278403488-.424265698085946ZM32.13539013753325,19.967510509328349h.325612778795403l-1.308459446221605,2.675257848644833h-.325806595925314l1.308653263351516-2.675257848644833ZM31.820437300897538,21.935723466872332c0-.451012462059225.197112021451176-.737667997676908.473689066297084-.737667997676908.279290484670128,0,.476402506119484.286655535617683.476402506119484.737667997676908s-.197112021449357.737667997677818-.476402506119484.737667997677818c-.276577044845908,0-.473689066297084-.286655535618593-.473689066297084-.737667997677818ZM32.493951828468198,21.935723466872332c0-.282779193013994-.079465023396551-.424265698085946-.199825461273576-.424265698085946-.117840815182717,0-.199825461273576.137610162467354-.199825461273576.424265698085946s.081984646090859.424265698086856.199825461273576.424265698086856c.120360437877025,0,.199825461273576-.141486505072862.199825461273576-.424265698086856Z"/>
    </g>
    <g>
      <path class="cls-2" d="M1.517516622792755,22.144270699006483c0-.681073395649037.374842329874809-1.168523478191673.879251411313817-1.168523478191673.279968844626637,0,.51361539512618.142067956462597.666343293749378.400232373935978l-.240623967185456.309913591248005c-.108731410062319-.174241600082496-.245275578314249-.2647541999022-.407209790626439-.2647541999022-.303129991687456,0-.518267006249516.297121660651101-.518267006249516.72313171290989,0,.426203869388701.21513701456206.72313171290989.518267006249516.72313171290989.16193421231219,0,.29847838056412-.090318782690701.407209790626439-.267855273986243l.240623967185456.309913591247096c-.152727898623198.261459308688245-.386374449122741.403527265149933-.668669099311956.403527265149933-.50208327587643,0-.876925605751239-.487450082541727-.876925605751239-1.168717295320675Z"/>
      <path class="cls-2" d="M4.799712814770828,21.014510646860799v2.259713921420371h-.374745421313492v-.926445882527332h-.735826734937291v.926445882527332h-.374745421311673v-2.259713921420371h.374745421311673v.890977347695298h.735826734937291v-.890977347695298h.374745421313492Z"/>
      <path class="cls-2" d="M6.203045746242424,23.27422456828117l-.390929151686578-.784377926064735-.384145552126938.784377926064735h-.430274029122302l.599185658124043-1.14933558229859-.569144002938629-1.11037833912178h.425719326563922l.372516524312232.732822569422751.3655391076245-.732822569422751h.404883985063861l-.564492391811655,1.090996626098786.603837269249198,1.168717295321585h-.432696743251654Z"/>
    </g>
  </g>
</svg>