<?xml version="1.0" encoding="UTF-8"?>
<svg id="Capa_1" data-name="Capa 1" xmlns="http://www.w3.org/2000/svg" viewBox="0 0 34.015748031499243 34.015748031498333">
  <defs>
    <style>
      .cls-1 {
        fill: #aeddf1;
      }

      .cls-2 {
        fill: #d1dbf1;
      }

      .cls-3 {
        fill: #1d3a69;
      }

      .cls-4 {
        fill: #e23239;
      }

      .cls-5 {
        fill: #698678;
      }

      .cls-6 {
        fill: #ec7089;
      }

      .cls-7 {
        fill: #43bfef;
      }

      .cls-8 {
        fill: #81cef0;
      }

      .cls-9 {
        fill: #05a249;
      }

      .cls-10 {
        fill: #f29bb1;
      }

      .cls-11 {
        fill: #e6edf9;
      }

      .cls-12 {
        fill: #839ca1;
      }

      .cls-13 {
        fill: #fff;
      }

      .cls-14 {
        fill: #cae3d4;
      }

      .cls-15 {
        fill: #32bada;
      }

      .cls-16 {
        fill: #636786;
      }

      .cls-17 {
        fill: #6a4695;
      }

      .cls-18 {
        fill: #b5b2b2;
      }

      .cls-19 {
        fill: #9f8bc1;
      }

      .cls-20 {
        fill: #e8475e;
      }

      .cls-21 {
        fill: #9e539a;
      }

      .cls-22 {
        fill: #ececec;
      }

      .cls-23 {
        fill: #ef849f;
      }

      .cls-24 {
        fill: #d8a5cc;
      }
    </style>
  </defs>
  <path class="cls-13" d="M0,17.007874015748712C0,7.614956225134847,7.614956225137576,0,17.00787401575144,0s17.007874015747802,7.614956225134847,17.007874015747802,17.007874015748712c0,9.392916740709552-7.614956225133938,17.007874015749621-17.007874015747802,17.007874015749621S0,26.400790756458264,0,17.007874015748712"/>
  <g>
    <circle class="cls-22" cx="16.935134595334603" cy="18.202674920433992" r="7.456386749228272"/>
    <path class="cls-17" d="M9.4787478461094,18.239225835870457c0-.109652746312349,3.179929643052674-.986874716811144,7.310183087478435-.95032380136945,4.130253444422124.036550915437147,7.602590410975608.840671055057101,7.602590410975608.95032380136945,0,4.118048690211253-3.338338059018497,7.45638674923066-7.45638674923066,7.45638674923066-4.118048690206706,0-7.456386749223384-3.338338059019407-7.456386749223384-7.45638674923066Z"/>
    <path class="cls-8" d="M21.509364279945657,10.282556519801801c.188733783385032.055249580169402.384354560053907.080668172729929.570612410487229.150186526092511.311707265911537.116340892627704.59991064381029.270801905527151.871838349550671.462191623704712.159029026157441.11192951087196.305726213913658.233168998715882.427313652244266.384604855519683-.02875834749284.027830700225422-.064411965904583.016894512848921-.098312564929074.018432301010762-.208193586258858.009443127760278-.313715052539919.122493439451318-.310057257094741.331479701698299.000671408266498.038404229919252.015975837788574.079462506970231-.02268348229336.109711423351655-.056749634035441.002074530730169-.090813026568867-.037244737182846-.128018241890459-.070279816638504-.768389971248325-.682261496438514-1.652880227795322-.887587376721058-2.647152174042276-.647155623212711-.087075213969001.021056279987533-.17009346649138.062983026756228-.263230669341283.057072994317423-.035440239347736-.017645182054366-.067944677075502-.0402734002746-.101874707690513-.060488174151033-.226094434321567-.134703183110105-.273368934165774-.321677480739709-.139571982497728-.54963706970284.207853283442091-.117584007048208.44799946501189-.131900074348778.669217451899385-.207417220156458.064583037050397-.022046890828278.146446099455716.030271704654297.206179361461182-.036814591420807h.060275907035248c.010452814995006.011694589221406.023762334203639.016199743539801.03912654665146.015515897657679.009722543540192.000003844760613.019440488393229.000035314284105.02915751349974.000039813007788.014542886998242-.000036780318624.029085773992847-.000028354191272.043614864924166-.000064415865381.015328342695284.000862770851199.0283692985995-.004028138443573.038790842521848-.015491294800086h.241103628153724c.0181013508045.019638081753328.042167198334937.014478916156804.064755947674712.015546882095805.011696299892719-.000028806939554.023365007666143-.000008835756489.035055789137914.0000057815123.017628605810387-.00003032328641.035236977390014-.000036870153053.052851787137115-.000011210884622.017651599244346-.000026065305974.035294920848173-.000026298866032.052932724029233-.000009051352208.022813165256593-.001232377844644.047279098529543.004531144162684.065645333696011-.015532401371274.020091662434425,0,.040184244600823,0,.060275907035248-.000000100610123.01096970738763.011775447712353.021939414773442.023550992444143.032909122159253.035326641380379.047023411547343.025448423572016.102701551568316-.005807672046103.149243940481028.022786528817051Z"/>
    <path class="cls-14" d="M21.266935310270128,10.224443450214494c-.011198721989786.026464154701898-.03450762567627.028801684837163-.05866268772661.029453101804393-.010755408582554-.005975483148177-.014568639640856-.012325596630944-.011476482664875-.01906727534606.003173093859004-.006918109980688.006449198306655-.010385826458332.00986326335078-.010385826458332h.060275907040705Z"/>
    <path class="cls-19" d="M21.206659403229423,10.224443450214494c.000987797917333.009798124676308.001516646894743.019620960004431.001600342997335.029460812879734-.021586235636278-.00107257964828-.043184427850065-.00213746618374-.064783539801283-.003202359913303-.007677967409109-.006757161948372-.009800721212741-.01289558737335-.006387575904228-.018428208316436.003217241255697-.005215363738898.006307558753178-.007830244649995.009294865667471-.007830244649995h.060275907040705Z"/>
    <path class="cls-16" d="M21.146383496188719,10.224443450214494c-.000672328000292.008794545859018-.001643570645683.017556069912644-.002910048975536.026271485618054-.017439139912312-.001508133220341-.034881039040556-.003003179893312-.052322938165162-.004498205008531-.012916791360112-.002105540322191-.017934878345841-.00601671188906-.015167388657574-.0117871329021.003184130713635-.006641542534453.00652553650616-.009986147707423.010124468761205-.009986147707423h.060275907037067Z"/>
    <path class="cls-9" d="M21.056309938450795,10.249690915121391c-.025465687773249.004216944797918-.050810889957575.008145593843437-.060616209855652-.025247464906897h.060275907038886c.007564839712359.005509573955351.010130906919585.011084066828516.007716596375758.016731168128899-.002425347396638.00567519678043-.004878286908934.008516296777998-.007376293558991.008516296777998Z"/>
    <path class="cls-16" d="M20.724072295392034,10.249974367198774c-.016918568566325.000313725052365-.033838056880995.000627442919722-.050756625449139.000941160792536-.020954376072041-.002639584375174-.024003305392398-.011462912018033-.009139430057985-.026472077776816h.060275907035248c.006953214371606.005778272224234.009210249838361.01148484510577.006784902438085.017125748081526-.002407872383628.005601628957265-.004791831595867.008405165310251-.007164753966208.008405168902755Z"/>
    <path class="cls-4" d="M21.056309938450795,10.249690907934564c-.000151756659761-.00841530541129-.000264884354692-.016831124648888-.000340302816767-.02524745772007h.030137953517624c.001257280960999.007364917556515.002898092394389.01464342867348.004982217231372.021804412372148-.0115528208662.00112693086794-.023166344401034.002284986312588-.03477986793223.003443045347922Z"/>
    <path class="cls-21" d="M20.724072295392034,10.249974324079631c.000225335652431-.008508797703144.000352259407009-.017019100971083.000379851528123-.025530873865137.010046291086837,0,.020091662434425,0,.030137953521262-.00000003952573-.010172295103985.00851026374221-.0203455099454.017020570597197-.030517805049385.025530913390867Z"/>
    <path class="cls-15" d="M20.66417623988491,10.224443450214494c.004123182543481.008452858271085.007150957901104.017281737453231.009110918201259.026479364851184-.013583600943093.000692045636242-.027194793996387.001391367567521-.040806906794387.002090675125146-.005911151954933-.006690234419693-.007649455548744-.013152097406419-.005218589729338-.019388115001675.002383959212239-.006120538320829.004640994671718-.009181924974655.006776624801205-.009181924974655h.030137953521262Z"/>
    <path class="cls-12" d="M20.634038286363648,10.224443450214494c-.000012876320397.009559167585394-.000528848975591.019091080509497-.001552516649099.028582691744305-.009532157906506-.009536379313431-.019058797390244-.01905972237455-.028585436870344-.028582878595444.010046291083199.000000186851139.020091662432606.000000186851139.030137953519443.000000186851139Z"/>
    <path class="cls-5" d="M16.565414561266152,25.657255877517855c.01004583122085-.024760988053458.02009212230405-.024760988053458.030137953519443,0h-.030137953519443Z"/>
    <path class="cls-2" d="M17.197399205719194,20.225670342271769c-.640935528352202-.00150674264205-1.012783499912985.318870160717779-1.170788858395099,1.013034222622082-.06161090580099.270674633265116-.067173477300457.546042429506997-.054047905567131.822067011003128.032109410532939.675236872287314.077125495310611,1.349588832238624.140181768363618,2.022680573974867.017270827976972.184354285585869.031316596932811.369127110797308.053843264004172.552848527678179.056742276134173.462781560473559-.190526811347809.79875205434837-.623197933668052.8408332238414-.16688266339952.005000398658012-.332925146725756.007032385530692-.459582637211497-.130100512077661-.08392879249368-.004672925897466-.131253877894778-.061877633713266-.181374504969426-.120035324051969-.553110728436877-.641826371992465-.884954264038242-1.394551026122826-1.082435669371989-2.20791609243679-.194265543683287-.800120816897106-.314351050923506-1.614637557080641-.368068310906892-2.435838972945021-.069801626785193-1.067087465066834-.37220988820809-2.056692667491006-.91989255673252-2.973560742764676-.04146773807588-.069420545596586-.094055560597553-.129313105667279-.139401601152713-.195142949243746-.065167530137842-.208824135637769-.191357564111968-.385877894380428-.303904214222712-.568856058478559-.215124956870568-.349749186199006-.38464335757817-.717673110564647-.452239224263394-1.124281134470039-.137767457810696-.828708912858929.058770756862941-1.574347829155158.592275214257825-2.222770109638986.510245449453578-.620152918542772,1.177049510539291-.94431346607962,1.97348871178292-1.028791549518246.558721586145111-.059263600810482,1.088201042955916.04658277010185,1.607073168897841.23291086095287.202518346932266.072724938911051.410049722295298.132449853170328.606778322604441.221281208619985.07128056444526.136991238037808-.009697710629553.242045833168049-.080647169625081.342624583968245-.220518066762452.312607244187348-.412953792983899.639718726034516-.554248903408734.996427398277774-.128488227677735.324375566525305-.216956843742082.659642361910301-.226193306087225,1.007486042989512-.012588445124493.474047635266288.123757098743226.912151455681851.391868354343387,1.303438629731318.130001195624573.189727230499557.271139950695215.37264146382222.460850955016213.511913972775801.063397955480468.046542065977519.126181066532808.099399940852891.168979204692732.169283179696322.014031972894372.052035513511328-.016505146631971.087070959398261-.046474788216074.122401682693635-.03539195313715.036298423693552-.072193403766505.071346287792949-.106646305070171.108723255894802-.361193274209654.361524867474145-.72278755390289.722653272140633-1.083530616688222,1.084631174260721-.134121618952122.134579345974089-.244798213090689.284488280544792-.230892244211645.486201382000218.014226037479602.206366710134716.113784846515046.363452449402757.312830725080858.438303891556643.197902645040813.074420024379833.386964314788202.051669866251359.546156134460034-.095323088969963.195079051367429-.180131174800408.376981025710847-.373975731346945.565810461781439-.560652681875581.064130526270674-.06340001409535.124218806889985-.131329454792649.193293841171908-.18909252206231.032758285229647-.027394568137424.06543563357809-.08819595710429.122996016089019-.031027124114189.01223480610679.05501450376596-.024625047841255.09488707186847-.042925061916321.14055480396928-.171185654593501.427191894539646-.172417642776054.840033859159121.102253639483024,1.230530407258811.061793013795977.087851006869641.125369858187696.169894891458171.2430796838471.184131677699042.024772205812042.002996927672939.045529758088378.020295952167544.04473234580837.051081151183098Z"/>
    <path class="cls-7" d="M17.465686591021949,12.997315363764756c.122977161470772-.518396277657303.334883727411579-.994966648995614.665950544824227-1.415399818533842.145828035954764-.185191824763933.302193502748196-.360515313107499.482940286976373-.512829240744395.281905016519886-.186729325469969.552889991471602-.389961932723054.860500747223341-.537257351811604.064468069878785-.030868993178046.13591326731148-.022404086802453.193154960825268-.063164815527671-.007756145079838.038463762577521-.015655769188015.076887022250958-.023232565488797.115374097717904-.040450968434016.205506720446465.002256115723867.296104451083011.188038461950782.400613162457375.033425094812628.01880208766579.076979257069979.028745278291353.075949151238092.080402266403325-.01853270761967.04053383770497-.057712599042134.052787907468883-.094215135026388.068492514470563-.464043363364908.199650931436736-.851444093526879.497831551765557-1.157357933856474.900810009264205-.408075506078603.543201879277149-.604742943854944,1.161245312121537-.568914575345843,1.832627020547989.052170261764331.977624390743586.509739593915583,1.738814583660314,1.333795748596458,2.270536978930068.391134863806656.252378932548709.823974298060421.380413882599896,1.290463243039994.410602547668532.786424181225811.050893958187771,1.472035951406724-.181706907490479,2.063463857624811-.699307499929091.033967739851505-.029727351621659.06624684192866-.062424954758171.115887825970276-.063521896516249.056026720476439.011521337963131.066748098781318.057448932581792.067657719022463.101844488208371.003992579839178.19497139399391.100884150559068.314253806659508.286633386240283.366029457655713.02426727000784.006764244207261.042821131592063.024135478285643.052655883089756.048765845180242.007644856857951.064375073437077-.035928619883634.100661078924531-.077466717872085.136287079619251-.436255338770934.374167983617554-.936243877287779.623559187165483-1.493340747409093.761180534308551-.682087336648692.158764957027415-1.353689667495928.126417823332304-2.014216521165508-.108663004589289-.692716741215918-.260857809410481-1.266389117874496-.680107569655775-1.699638754986154-1.284482464290704-.193834646732284-.270394993603986-.33268463541026-.570206883612627-.461790926587128-.875254658309132-.19635472707705-.572486774718527-.256110062775406-1.157062905464045-.157538131912588-1.755913766975027.010652398003003-.064723013248113.022389166335415-.128310220340609.070620193027935-.177771485205085Z"/>
    <path class="cls-11" d="M19.704484578564006,17.044519005926304c.67014914583342.242453104417109,1.352885817055721.262317178881858,2.045038759273666.115682511973318.046204845310058.125317202106089-.072352978189883.193055310401178-.101537164078763.292181130798781-.236608871719.437284678582728-.470707780208613.875115758340144-.650135661078821,1.340713032632266-.191766157427992.497613255756733-.268519159109928,1.017068760611437-.323692363324881,1.542503402938564-.117956315270931,1.123332751280941-.216542042195215,2.250703720019374-.593911197069247,3.327292494450376-.204501760528728.583420317479977-.498282425729485,1.117856781225782-.905494298431222,1.58671866457189-.044278915293035.050984565115868-.091374066354547.093067574342967-.162569095224171.096873985241473-.142229103703357.124024788543466-.304776125227363.171811894913844-.490966834839128.130888838356441-.404399315884802-.07722469978853-.625334943402777-.345079019901277-.596233533877239-.751258385645997.047592728966265-.664271134176488.117377800477698-1.327058522394509.158126763815744-1.991678286274691.030248321998442-.493346911208391.096643241633501-.989515055433003-.012472558217269-1.482347760818811-.046956270723967-.212082765555351-.130659727565217-.408974842478528-.250989884942101-.590977947237661-.15064470046309-.227855730196097-.350879799425456-.381678700141492-.622244625905296-.435436665170528-.283200926447535-.084318716426424-.525456985498749-.440202497668906-.543783671959318-.772048306552279-.016718985569241-.302739367702998.040262882146635-.585102754780564.182672714239743-.851430095167416-.015654849450584-.066617709926504.037849031476071-.097412107613309.073502190020008-.134713646602904.09902812058499-.103603734426542.202603882506082-.202804064073462.302285936348198-.305855878118564.238733465002952-.235197191137559.475143673453204-.472716587282775.710916503921908-.710838496504039.105879244116295-.10693457393063.216586189586451-.207374424770933.339517364189305-.29444032489755.235417811849402-.137426335272721.473928700414035-.092944312118561.712515007433467-.011040707296161.061713456518191.02118546384736.12070265100192.050383891766614.182918284115658.069955908362317.138667880684807.043622867092381.268178856294981.026345459480581.382869184233641-.067679696720006.050370335768093-.041293763084468.096251433522411-.089101106535963.163668181356115-.103063772318819Z"/>
    <path class="cls-8" d="M23.92055967604756,15.5872068135468c-.172541807321977.203614007234137-.306282655014002.439196622772215-.509391013458298.617684914570418-.040988095044668.036019703899001-.080053019297338.074228232046153-.119963182172796.111441923711027-.155350996492416-.060498752623971-.317836395612176-.111154925114533-.362827187616858-.30491163433453-.016279351111734-.070104006997099.025721374760906-.149482116141371-.034957377234605-.211767711004541-.009385919667693-.013286563315887-.011013854780686-.027465397923152-.005058555432697-.042562260089653.188816559748375-.20812273681986.37235566657364-.419773164746402.504177942149909-.671424942190242.117306060965348-.22393847528474.201632179994704-.459080474384791.25806634412038-.705043332496643.068571937943489-.268494547756745.062182522568037-.545464982805242.094402761449601-.817823203201442.036703958465296-.055623455922614.066563231570399-.015394669208945.096951353649274.007733094449577.211058568107546.160627918280625.309085094717375.155234966253374.488587474310407-.027138385096805.027169961085747-.027604297886683.050370335768093-.068398802991396.098466161065517-.03198746558337.01966122534941.593353274582114-.084084228106803,1.163958920666119-.330921498905809,1.704285754690318-.056839768294594.124422631151901-.122688363941052.24553557974923-.177533221924023.371513246575887Z"/>
    <path class="cls-1" d="M24.429014396877392,13.511408042248149c-.017406029368431.007865325372222-.041047877981327.010944811136142-.05129743102043.0243028941386-.203727341679041.265527975702753-.397786404328144.267405194897947-.609207348948985.004415363051521-.058128320326432-.02142922868461-.062036284327405-.07344772464603-.067815913842423-.123111590280132-.067385476766503-.578990006585627-.298295655853508-1.085823322284341-.670735018526102-1.531485692321439-.036253287169529-.043380941995565-.092740796058933-.082008929630319-.075265786384989-.153852635667135-.122310351895067-.293166193698198.155220393788113-.556977811997967.424412800641221-.452140650504589.322678812764934.263946953782579.521685142623028.615948895003385.714877812688428.976680261944239.211300459030099.394543274330317.272253292758251.823860982206497.33503088539328,1.255192049638936Z"/>
    <path class="cls-24" d="M21.509364279945657,10.282556519801801c-.050090735612685-.005498363069819-.105313605645279.02252783770291-.149270612861073-.02282509856559.051321344188182-.002498848274627.105498472850741-.023919410078634.149270612861073.02282509856559Z"/>
    <path class="cls-11" d="M17.465686591021949,12.997315363764756c-.13354678311407.661405747529898-.077480513929913,1.310479753997242.126775676726538,1.949916770671734-.004392665583509.042129462524827-.027020963634641.07510532552169-.054630559176076.104796342382542-.150088259368204.161404516253242-.144845756465656.344691755771237-.068371435201698.532920982368523.074905249346557.184366703792875.118245112804289.372141056009241.097152776128496.57192335599575-.007457230440195.070645348909238-.03135292656043.136529004723343-.056918865706393.201888796109415-.022230971511817.063612963376727-.069086990864889.10933496765665-.11505086498255.155441016533587-.226294017322289.226997953932369-.452479505647716.454110431344816-.680336156732665.679532652589842-.04113939184208.040699988736378-.075672310291338.097038181556854-.14722695646924.090000736759976-.347769247702672-.290020822442784-.666569528064429-.605028460354333-.845189419669623-1.032197818143686-.151538225300101-.362402880814443-.232818634091018-.730337383650294-.189797459632246-1.134777740261598.075718757036157-.711834712788914.378923970865799-1.317751534991658.785111256163873-1.885891936704866.063311040295957-.088553555520775.098397180763641-.184200667747064.097275561061906-.293013380744014.272316754639178.059120101510416.543257122328214.124874286001614.82612924267778.065279762935461.072229733386848-.015217134822706.149904311894716-.004578869466968.225077204811896-.005819540492666Z"/>
    <path class="cls-10" d="M16.567080205608363,17.283736017176125c.31206780294815-.294326261349852.618643854175389-.594100436799636.905674566951348-.913262655384642.225847944715497-.19589908017133.597086130406751-.171654597607812.796020720752495.052362066398928.208621264124304.23492445048214.190775600302004.629434839561327-.015970319363987.768797495506078-.337772622435295.330482105610827-.675544325136798.660964211224382-1.013316947572093.99144631683339-.22674146954887.115631919276893-.450978954158927.109081544215769-.644369827617993-.056782488721183-.187319227341504-.160657584003275-.273111867576517-.36823161997836-.182680991880261-.619222012833234.027627990288238-.048506902533518.062718729443077-.092236934167886.092626748626571-.139425206923079.02067201670252-.027971324940154.041344033405039-.055942649874851.062016050103921-.083913514876258Z"/>
    <path class="cls-6" d="M16.446715098212735,17.489303362623104c-.066294208394538.370537727304509.077960616827113.644685319570272.3796169929592.714262242602672.138539117453547.03195343049083.275935001376638-.001206865901622.413100950961962-.0204854448275-.13434419539044.139709445921653-.268743115158941.279419811709886-.403142034921984.419122818558208-.274427551859844.270215619478222-.54654334388033.542840371424063-.82394118751472.809978114910336-.271460019293954.261419848333389-.691980031604544.206399825361586-.872000683188162-.114846352603308-.109552675097802-.195496638216355-.100585695794507-.395881451286186.030189918679753-.578842137908396.066333297228994-.092801732691441.151106868484931-.1732073336143.232306340391006-.25445461311665.336102379405929-.336297966632628.674022619687094-.670777815539623,1.011275130653303-1.005925488112553.028669592835286-.008214415010116.041226307019315.000414400220507.032594571979644.03119086049719Z"/>
    <path class="cls-23" d="M16.446715098212735,17.489303362623104c-.010863937590329-.010395880318356-.021727875177021-.020791760641259-.032593192374406-.031189020763122.020277449375499-.040246954089525.051141535535862-.069846904085352.090942249666114-.090461590275481-.004293793826946.047819301727941-.021328249304133.089529304764255-.058349057291707.121650611038604Z"/>
    <path class="cls-2" d="M18.642372805310515,12.001054231503986c.053587577016515.056247010969855.122911860116801.031966193649168.184418375733003.030533040390765.568159470971295-.013239305138995,1.132954542721563.006855311074105,1.686651143849303.152300704545269.009889935734464.062608468281724-.042565444608044.087596433589169-.077902673365315.11738012708156-.223787733051722.188616950666983-.285118578833135.423196680876572-.211082481282574.701315800219163.015085532029843.056665205644094.043166033099624.113339379990975.024465013537338.175433182521374-.057646377950732.041850972700558-.104300974819125-.003570694903829-.153511521790278-.02089041641193-.188092726450122-.066200550100803-.383622449122413-.011772691704209-.482005833826406.136004910330485-.119762679432824.17988993959807-.110406191359289.365112349950323.040665267237273.521206012331277.271433806781715.280457192056929.550034206997225.553936960662213.826881587825483.829089507956269.13604295028199.135210374943199.295814204482667.153039702937349.471657868894908.09608013975776.048814140167451-.015811599065273.096781202237253-.06269907521073.151708836583566-.012076937815436.030964797393608.053293891978683.039695864064925.112973042838348.049925182884181.172189040510602.09017656832475.521992038947246.467472144207932.849366372872282.999877745398408.858011285780776.209891421411157.003409028224269.42066671041357.016421471085778.630160805287233-.014047753506929.040066518222375-.005827819299157.080484376116146-.006593148896172.111293737900269.027766654457992-.000838800462589.009431859387405-.001552516650918.018873377382988-.002147586717911.028314435440734-.396106044188855.380975461586786-.863137634203667.634754892107594-1.400691005346744.741662789880138-1.08679476454563.21614030022738-2.19941115522488-.161471206630267-2.907081906028907-1.13034535965744-.389294469370725-.532984453211611-.569234643940945-1.136625293739598-.537518421126151-1.791120998088445.028876073869469-.595889578700735.208838322136216-1.148032798123495.594235864353323-1.618806165723981Z"/>
    <path class="cls-20" d="M18.252805173948218,17.191632923696488c.085885073840473-.150128322924502.152708591080227-.304523910265743.116729385643339-.484381884474715-.06753907289567-.337630854357485-.442315488178792-.530946487202527-.75904911870748-.391653741168739-.045175659208326.019867753932886-.083729209494777.057048790307817-.137731588059978.054876983603208.10145622719574-.25816259821022.070949458997347-.509626722729081-.033874846374601-.759353677841318-.127205194074122-.303045223577101-.095389639627683-.43402374899415.153565786289619-.663878810772076.129759304703839.281930589510921.256840334232038.564840837701922.439329101005569.818985915470876.428109225054868.596212452122927.983464112629008,1.024384465269577,1.672658259791206,1.278234265636456-.221323756681159.257975865150001-.361769489665676.294423767281842-.669386683568518.165386161870629-.259297872433308-.108768329395389-.518322582875044-.147336065722811-.782240296019154-.018215212324321Z"/>
    <path class="cls-11" d="M22.895575860176905,15.77134952965298c-.233171813239096.041872819548189-.468716548843076.031809471260203-.703541130098529.028757811483047-.328984532048707-.004276463089809-.617030634859475-.109667959619401-.845681019283802-.35626368643625-.1923823814559-.207480209505775-.232111356073801-.468314102367913-.262466367606976-.733125501443283-.006818012983786-.077700731120785.055934746740604-.113381463918813.099747355196087-.157593046084003.299051679954573-.301780406035505.595738715182961-.606129081579638.902288094024698-.900157765853692.160624770460345-.154063055314509.301870674938982-.314449048492861.358623987922329-.535029088260671.103659917891491.031770146930285.176290656765559.111634635913106.249431849868415.181135439926038.342946145035967.325879089631599.679295933792673.658804362797127.930347441131744,1.065617977048532.012365868687993.020039309187268.035374018261791.033509386034893.053422944038175.050044920663822-.123825159311309.531162656018751-.363599766991683.995446819732933-.78217315519214,1.356612938956459Z"/>
    <path class="cls-17" d="M22.444546780330711,13.117938253058128c.000286038321065.164729376618197-.066462980197684.295409865031615-.183846299099969.411535293113047-.395110888375712.390878982933828-.784951681729581.787087906984198-1.176811298570101,1.181251046156831-.2733974460225.163283805150968-.449426897379453.142905984795107-.67206863768115-.079112267495475-.238002273807069-.237333582946121-.475392002535955-.475279797515213-.713051214312145-.712958790635639-.23396186762875-.233982966294207-.269474766222629-.452393728993229-.108151915110284-.665179963071751.145120757935729-.191416566802218.37682283088543-.215279304431533.649014501244892-.066842387507677.155576332141209.062113809640323.241569934987638.20459757534536.356228991853641.313017734966706.210725623190228.199257745655814.168252152316199.205776615265677.378781871448155-.003853094162878.216771056790094-.215844332922643.431650213855391-.433596700597263.649605892356703-.648236697257744.067452617591698-.066426377525204.136270125411102-.13579334084352.244847878915607-.122758591202.357409014881341-.012020825906802.476623530850702.069424684999831.575450228954651.393137717096579Z"/>
    <path class="cls-11" d="M21.86909655137606,12.724800535961549c-.106008007347555.04794256394689-.193658976901133.118960919046003-.27515046541339.202104964928367-.241200200580352.246090259732227-.487667736962976.487012934928316-.729164092967039.732817805829654-.054022612788685.054986677779198-.090490198759653.078035102883405-.154766963276415.008709533589354-.152556834415009-.164542413590425-.313077674558372-.321700132475598-.470382193183468-.481821893774395-.05145470610114-.165210007284259-.10699580525943-.328113677275724-.078641222466103-.507632220451342.03568488948622-.225939186669166.190953109613474-.361523487670638.352451630562427-.49509281934661.47517218530993.12192473149571.935530161104907.280984735958555,1.355653306743989.540914629224972Z"/>
    <path class="cls-18" d="M31.32963483088497,14.337163570932717c-.198581579636084-.218475097044575-.382707150392889-.449851428282273-.712244066318817-.485748463214804-.429864966645255-.046824867848045-.714715033198445.177818855964688-.952906212871312.487564310727066-.260938521270873.339326561660528-.509406509339897.688243558007343-.799421896545027,1.082014616364177-.146233033243334-.490879017478619-.258975235938124-.916540267094206-.399787574518996-1.332703749171742-.349299259849431-1.032335227800104-.828193161891249-1.998027627236297-1.435550327145393-2.908487977722871-.499601166147841-.748928416743183-1.067543468860094-1.434463332709129-1.723428602586864-2.040745509627413-.698737410017202-.645893624029668-1.441448557630792-1.232756760923621-2.285362052647542-1.701130117705361-.599870732514319-.332929041891475-1.202494194227256-.646955695299766-1.841848542595471-.88499110615885-.802849541274554-.298905531846685-1.625653380086078-.523974440761776-2.478950539762081-.647214049711692-.990974640591958-.143124120791981-1.982441992571694-.187121724422468-2.974982378071218-.082644362199972-.537661987358661.056595624191687-1.076654528500512.121530060343503-1.60461095660321.267900239986375-.437477339888574.121286009937648-.879728502079161.219158912765124-1.311097044155758.369051722821496-.840674358820252.29211978737203-1.63774360692878.675362568858873-2.384050187107277,1.150883815099405-.909647668519028.579596347085499-1.7535497371573,1.247395272909671-2.485708818783678,2.048509055341128-1.038050420802392,1.135815605306561-1.879570603337925,2.400090049072787-2.422078904668524,3.840832092808341-.497704235394849,1.321752512076273-.768816537305611,2.381111459225394-.85136773949489,4.112405154916814-.015517843594353.577513185964563.04171227004008,1.198598797767772.070138938206583,1.407469034069436.105511134583139.247184659475352.29852237999512.389694028765007.573920617445765.473501043279612.523443057056284.159291140575078,1.168913448205785-.245042899295186,1.137697393141934-.788462924462692-.052133523275188-.907498210193808.027866683754837-1.801857093048056.172649334981543-2.694253881733857.106762572162552-.658052182814572.320310928482286-1.284221063704535.562710311854971-1.902666905738442.3440655254999-.877830090709722.81834972265824-1.68525191569006,1.373869708138955-2.439547841720923.372602134711997-.505925264790676.819436427884284-.955075942287294,1.272273531953033-1.394394623811422.518793284027197-.503304427877083,1.118676266960392-.903406581903255,1.719545257907157-1.289609257245502.442631428268214-.284496448503887.935877555104526-.498194797700307,1.434306087283403-.69413603709927.995578387071873-.39137937687974,2.022915523220945-.615736781272972,3.083466687285181-.711120061652764,1.256934425902728-.113046065397612,2.482947351934854.023470414368603,3.700694218654462.365613424435651.689324262690207.193674773997373,1.347353562403441.460504375555502,1.969998533821126.784078594098901,1.016750557126215.528380987100718,1.918647928552673,1.229967304527236,2.721781259082491,2.060833642234684.718655951670371.743472258890506,1.29411602840446,1.586184251333179,1.768097924545145,2.490935859588717.327251142569366.624668373583518.575052130940094,1.295456337182259.763361381632421,1.981424852557211.005819628251629.021198939637543-.011306679120025.048696294795263-.028620661130844.114846634353853-.291081515399128-.220172370598448-.566079825301131-.429153844142093-.842106044761749-.636767569563744-.626478287613281-.471209994167111-1.31402965021698-.119012916895372-1.469277315489308.481098199946246-.114248682433754.441630771639211.110471917323594.731315138029458.416946139048378.968248618846701,1.076927963216804.832567054567335,2.166320096561321,1.648994069922082,3.246695950107096,2.4771372660407.160861053205736.123305467554019.256779259354516.08498817770942.364413208775659-.064367201373898.400041704455361-.555121093761045.798422795576698-1.111801559566629,1.213531709119707-1.65560322035526.441742226750648-.578693201958231.861187976670408-1.174908095640603,1.337872767695444-1.726715135858285.101170083058605-.11711146028847.114476442617161-.273091344357454.16338890795123-.413080149709458l-.063960003373722-.469958031678289Z"/>
    <path class="cls-18" d="M17.773590593897097,28.804100960480355c-.045242153368235-.394844827595989-.044981422324781-.387001930705992-.500466345794848-.371900546384495-.322652129649214.010694322633753-.646610390282149.006043364859579-.969030297916106-.010428401175886-.161570441236108-.008254990605565-.221665719773227.047239548510333-.230704822184634.202034888518028-.026472954996279.453306895547939-.056434624291796.90650104424094-.093720118560668,1.359023429552508-.010911698394921.13243758426961.02822783994452.19337263194484.162774639460622.208142592631702.523015588629278.057416465577262,1.045431822940373.018934258513582,1.567899073468652-.003299845895526.121372998253719-.00516515876825.154274149568664-.07775829327511.144270380786111-.197356097783995-.031922450623824-.381649074646703-.053075307365361-.764200656290086-.081022509259128-1.186216019462336Z"/>
    <path class="cls-18" d="M10.219140236149542,26.089874993244848c-.033948209627852.028502110179033-.083413314077916.054246817390776-.110134942235163.094930130176181-.244592371995168.372402855912696-.579101108058239.668838968299497-.853481933905641,1.015993045968571-.122186226335543.154595028701806-.111923735474193.267006375525852.056274015487361.387044286741002.376815695119149.268918905360806.744662831941241.549457416337646,1.140069258552103.792676850035605.154073084158881.094773817624628.240411840266461.084013421633244.331489002635863-.072427768642228.227691420825067-.391101962036373.464940992616903-.77664729163007.699193141537762-1.163919017192711.039444217929486-.065207594167987.064518644050622-.126258616068299-.012453146244297-.182638841283733-.387081887998647-.283530043769133-.773734536292977-.567650872842933-1.161731347388923-.849925118303872-.01923209180859-.01399143996241-.049627744618192-.012634993579923-.089224048439064-.021733567498813Z"/>
    <path class="cls-18" d="M7.798543979597525,26.062684098702448c.045712457254922-.028381114871991.103729647998989-.053874420631473.148689569001363-.093998282074608.331829189961354-.296124994794809.660102519073916-.59623111215933.991624472822878-.892705452807604.111398797767833-.099620764274732.118041301873745-.182760877489272.016997123295369-.306395422353489-.249261841627231-.30499425603648-.486639539898533-.620196820893398-.717741389313233-.939303260105589-.099031496665702-.136740456614461-.19510332020036-.154825041499862-.331009852898205-.065002723756152-.364537063798707.240922133042659-.731513094946422.478150989336427-1.097521750227315.71684691234168-.121223845941131.079056220191887-.160285162557557.168531783087019-.073934956621088.307035459308281.26995345697469.432999247037515.612885460155667.809151475728868.925705047771771,1.208705093109529.031470247671677.040193971921326.064420717098983.087280928582913.137191736168461.064817676337952Z"/>
    <path class="cls-18" d="M24.748874161468848,24.884307808042649c.025542381352352.037925020717921.039915066952744.072280259040781.065006305432689.094565100103864.364890167775229.324093507882935.715589937926779.664049099706062,1.104735206232363.961076564096402.120880696547829.092264940904897.184238427844321.070061900375549.275198163490131-.034944451549563.327229108494066-.377759368895568.613844115356187-.785020365845412.899325483593202-1.193902716235243.085095154718147-.121878561342783.070240976358036-.198458981160002-.056725254838966-.274771931382929-.38176313902477-.229455822374803-.758416283557381-.467407575340985-1.139858770719002-.697405320037433-.112426571045944-.067790495470945-.236025640362641-.095475201883346-.321942943543036.041408541727833-.222757322893813.354894950700327-.496858093243645.670619117146089-.752051096565992,1.000795992255917-.02557659878039.033092193846642-.048709774731833.06807382732768-.073687093081389.103178221021153Z"/>
    <path class="cls-18" d="M19.880757054339483,29.838071837078132c.49002339850631-.09741069041138.946408912697734-.278598417105968,1.410743901842579-.434684680726605.156979817958927-.052767682013837.208684104452914-.151467371053513.146551925108724-.303231081085869-.168472093613673-.411516926498734-.339083394526824-.822163276749052-.51044625805298-1.232488226936766-.062691276849364-.150111617439507-.185359701481502-.140845571478167-.309763736233435-.103319387486408-.385091474361616.116167331789256-.76821012145956.238959345379953-1.154176714602727.352077545844622-.095618797420684.028021985019222-.162745037923742.048694464247092-.133072067596004.172925651379046.115737513893691.484554892193046.227151812785451.970163983214661.336612594684993,1.456183395785047.03184606533614.141402913939601.123089485083256.121958664015438.213550354848849.092536783226933Z"/>
    <path class="cls-18" d="M23.544293138376815,26.058068571144759c-.018983465468409.009671544348748-.052950967770812.02137750593738-.080408280027768.041825499568404-.327787451711629.244136591527422-.630212044943619.521355049488193-.987850066530882.72710931898655-.121724523020021.070028676816037-.195883259833863.173641147218405-.087637708616967.342979966721941.243752572818266.381327175188744.46594910078602.776571383692499.691907804639413,1.169036141583092.051123677420037.088795220597603.116214601795946.103798898548121.194071543248356.061163380293692.483304120261892-.26466249540772.901247942798364-.622710633764655,1.341991942890672-.948045528757575.076043739698434-.056131279953661.07613333723566-.132018749251984.014139430779323-.205403751779158-.320174965650949-.379002692650829-.63981309335577-.758461491995149-.960974363064452-1.136625538989392-.027353219331417-.032208824792178-.06022890625718-.065019697202843-.125240303317696-.052039487627553Z"/>
    <path class="cls-18" d="M14.503386458263776,28.356092025042017c-.008813943682981-.150580212261048-.056888273809818-.203547288092523-.158639798364675-.229495236544608-.405525478136042-.103407373902883-.815876747705261-.192292083965185-1.193622524942839-.384540427539832-.139525893633618-.071008514502864-.210194947436321.018764661382193-.257727373527814.136800278763076-.16597022071619.412144364829146-.330297287542635.824961035529668-.498623820740249,1.236142239694345-.051612648765513.126074900201274-.039438052150217.194516740151812.104132913727881.261998021042018.437965821120088.205850390033447.902632428298602.325248107387779,1.363121680222321.459615851288618.097635654519763.02848987555808.205481395545576.074529789821099.264870107368552-.069887483497041.193299778917208-.47004191884389.234114738905191-.978847423700245.376488816256824-1.410633243206576Z"/>
    <g>
      <path class="cls-3" d="M5.298261771402395,11.511764614136155l-.065810209411211-.132858526959353c.227049984428959-.045524283792474.493528951046756-.228097614389299.662102135796886-.492957516525166.250859756284626-.39467077829795.19009721850307-.678483258833694-.023905010946692-.814865632028159-.591720450187495-.376384873512507-1.020105865432924,1.08067792503789-1.747065819765339.618292155577365-.278860047987109-.177430419876146-.387718324918751-.547529513619338-.079524638005751-1.032105990449963.138096676771966-.216954641159646.349146494512752-.399432732669084.555720075140925-.481719304207218l.081429419749838.12704894262788c-.216573684809191.091905719368697-.397337472748404.257812209664735-.510291030437656.435242629543609-.243812063810765.383146848719662-.175620877214897.668102198304041.041238524858272.806008396897596.591815689274881.376384873512507,1.025724971590535-1.076963600628005,1.741446713607729-.621911240900772.278860047987109.177620898052737.379623002487278.554291488828312.069524533822914,1.04162989919223-.186478133182391.293145911102329-.475624002614495.505148119715159-.724864694409916.548196187231952Z"/>
      <path class="cls-3" d="M5.62645566667743,9.36840895158366c-.504100489752091-.452195187103825-.536100823130255-1.175821773376811-.070286446522005-1.694874799856734.463338160332569-.516576810205152,1.18601235573442-.567339243804781,1.692589061760373-.11276307951357.506576706025953.454480925202915.533910324116732,1.178297989649764.070476924696777,1.694874799857644-.465719137520864.519053026479014-1.188679050183055.565148744793987-1.692779539935145.112763079512661ZM7.132852312515752,7.689724796588962c-.439433149389515-.394289821948405-1.063344411126309-.353622731617179-1.46001521026119.088667590396653-.398956537233971.444480821021898-.372194353663872,1.068868278195623.067334034811211,1.463539056496302.439528388476901.394289821948405,1.063534889301081.353622731616269,1.46230094836028-.090858089407448.396670799133062-.442290322011104.370003854653987-1.066868257359602-.069619772910301-1.461348557485508Z"/>
      <path class="cls-3" d="M6.891230747713053,6.376187302792459l.12885848528822-.111334493202776,1.528206396860696,1.767732701738169-.128763246199014.111524971377548-1.528301635949902-1.767923179912941Z"/>
      <path class="cls-3" d="M9.253731550434168,4.641693042565748l1.299346869771398,1.942115470817953-.116382164835159.078096051689499-2.452216023077199-.801341681612939,1.12867842509695,1.686874716512648-.14133480574128.094667652902899-1.299632587029919-1.942210709906249.119334576544134-.079905594350748,2.449358850457429.803436941538166-1.128773664187975-1.686969955602763.14162052300162-.094762891988466Z"/>
      <path class="cls-3" d="M12.646624040033203,3.196820847204435l.525719762597873-.127334659890039.446385602772352,1.843257298068238,1.138964246547403-.275907636276315.103715366205506.428290176161681-1.664684009141638.403242296165445-.550100968981496-2.27154747422901Z"/>
      <path class="cls-3" d="M14.632644730158063,3.898447204283002c-.053333888959969-.692483404685845.446576080945306-1.246870132599724,1.182298031324535-1.3036326287056.732483821399001-.05638153975724,1.314585123756842.411337618596917,1.368109490895222,1.107154391341282.053714845304057.695912011831751-.449814209921897,1.247060610774497-1.182393270413741,1.303632628706509-.735817189464797.056667257019399-1.314775601935253-.414575747571689-1.368014251806017-1.107154391342192ZM16.636951325066548,3.743969404474228c-.034000354213276-.442766517448945-.370289571919784-.72172180452344-.786484383974312-.689530992973232-.416290051145552.032095572462822-.705816876925383.359146598688312-.671816522715744.801913116138167.034095593302482.442671278361559.370480050094557.721817043611736.786674862154541.6898167102363.416194812054528-.032286050640323.705912116009131-.359337076863994.671626044535515-.802198833401235Z"/>
      <path class="cls-3" d="M17.390006789355539,3.722826327066286c.074000770931889-.700102531678567.664483112977905-1.144392874528421,1.387919221077027-1.068106365497442.401527992593401.04238139390327.721340848176624.223811855454187.912390457553556.512481529445722l-.378861089786369.282098176960062c-.136953807719692-.195716324663408-.322860506375946-.309146077790501-.555243879702175-.333813001432645-.434766434103949-.046095718314973-.775627128008637.226764267163162-.821913324494744.664959308416655-.046286196491565.437814084904858.230192874310887.775817606184319.664959308414836.821722846324519.232192895147818.024571684555667.437909323994973-.047619543713154.613149244862143-.21381175127317l.311431815882315.35514655701445c-.247431149135082.245621606476561-.597910990865785.356194186977518-1.00286759060873.313431836723794-.720102740038783-.076096030854387-1.204869695046-.634006605004288-1.130964163197859-1.334109136681946Z"/>
      <path class="cls-3" d="M21.154331719919355,5.074459455834585l-1.044772789076887-.294098301976192-.335051109570486.425718720801342-.533529367767187-.150287279961049,1.63658847834995-1.967639546248392.5142910721097.144953891064688.372384831840463,2.53355020374147-.546481883658998-.153811126194341-.063429232226554-.538386561227526ZM21.101759743660295,4.633026285608139l-.11428690491266-.962105261191027-.599244338092831.760960308546601.713531243005491.201144952644427Z"/>
      <path class="cls-3" d="M22.714157493805033,3.681873519471992l.491433691127895.225907115377595-.792198729222946,1.723065569735809,1.064772997438922.489719387552213-.184001916912166.400099406280788-1.55620668856136-.715531263841513.976200646129655-2.123260215104892Z"/>
      <path class="cls-3" d="M24.534366932715784,4.57712094128965l.465719137520864.274860006314157-1.187059985695669,2.012211439165185-.465719137517226-.274574289051998,1.187059985692031-2.012497156427344Z"/>
      <path class="cls-3" d="M24.087314656329909,6.725714753650209l.390099302105227-.217335597509191c.072381706444503.232478612409977.248764496362128.487814605802669.47352874268654.654959204237457.257336014230532.190859131204888.425528242629298.182573330599553.511052943138566.067429273899506.260574143203485-.350956037169453-1.008962892205091-.919247671849007-.491814647475621-1.615826357292462.236764371345998-.319050942882313.690864340200278-.393242191988065,1.224012751616101.00257145535943.235811980470316.175144681779784.435052151367927.410289988637487.527815022522191.649530576255529l-.378670611607959.23009763522532c-.100572476327216-.228478570738844-.244193020167586-.410004271377147-.410480466816807-.53343412868162-.257145536052121-.190763892117502-.427813980721112-.167906511134788-.515433941152878-.049905281812244-.256574101531442.34543217009832,1.010867673950997.916676216488668.499624252639478,1.604969101325878-.232573851495545.313622314897657-.691245296544366.388670715790795-1.227250880587235-.009238191481018-.297336430949144-.220668965566801-.531815064192415-.531815064193324-.602482467067603-.783817689526586Z"/>
      <path class="cls-3" d="M27.180489737796961,9.128406451267438l-.307431774215729.306669861517548-1.278299031446295-1.280965725899478,1.654302948612894-1.651064819640851,1.247632045296996,1.25029873974654-.307050817866184.306669861516639-.868009042811536-.869913824561081-.359241837775699.358765642338767.76667465378523.768103240101482-.297907865469824.297050713684257-.766484175617734-.768103240100572-.382861131452955.382099218759322.898676028960836.900390332537427ZM28.082022939383023,7.068384990214327l-.287812522205058-.288383956731195.658864006825752-.020762121057487.39619460369795.397146994570903-.767246088318643-.088000916782221Z"/>
    </g>
    <g>
      <path class="cls-3" d="M24.478489717792399,21.238437374006025c0-.86762808646381.344384540136161-1.359633212114204.807246505033618-1.359633212114204.4653381811695,0,.807056026860664.492005125650394.807056026860664,1.359633212114204,0,.867628086461991-.341717845691164,1.359633212111476-.807056026860664,1.359633212111476-.462861964897456,0-.807246505033618-.492005125649484-.807246505033618-1.359633212111476ZM25.654311491171029,21.238437374006025c0-.597149078170332-.150668236308775-.845151661830641-.368575268345012-.845151661830641-.215240337585783,0-.365908573896377.248002583660309-.365908573896377.845151661830641,0,.597149078167604.150668236310594.845151661828822.365908573896377.845151661828822.217907032036237,0,.368575268345012-.248002583661219.368575268345012-.845151661828822Z"/>
      <path class="cls-3" d="M26.25736539276113,22.215018976484316c0-.217907032034418.115620252139706-.360575185000016.260955099549392-.360575185000016.145334847413324,0,.260955099551211.142668152965598.260955099551211.360575185000016,0,.214097468537148-.115620252137887.368194311994557-.260955099551211.368194311994557-.145334847409686,0-.260955099549392-.15409684345741-.260955099549392-.368194311994557Z"/>
      <path class="cls-3" d="M28.40976876861896,22.057303047704409v.495814689146755h-1.423252922513711v-.394480300123178l.726483758897302-.957724263170348c.16685888117172-.221526117355097.196382998274203-.356765621501836.196382998274203-.484576476829716,0-.206478341541697-.102286779896531-.326670069875945-.301336472619369-.326670069875945-.161335014105134,0-.298669778172552.086286613210177-.390099302107046.262859881299846l-.317527117480495-.285526784108697c.145334847415143-.296574518247326.408956641414989-.488195562151304.748007792655699-.488195562151304.419813897380664,0,.699626336239817.300574559921188.699626336239817.777531909758181,0,.255431232478259-.051238629035652.488195562151304-.314860423035498.830103886016332l-.43314736962202.570863090038074h.809722721311118Z"/>
      <path class="cls-3" d="M28.585199167659084,21.238437374006025c0-.86762808646381.344384540136161-1.359633212114204.807056026860664-1.359633212114204.465528659344272,0,.807246505035437.492005125650394.807246505035437,1.359633212114204,0,.867628086461991-.341717845691164,1.359633212111476-.807246505035437,1.359633212111476-.462671486724503,0-.807056026860664-.492005125649484-.807056026860664-1.359633212111476ZM29.760830462861122,21.238437374006025c0-.597149078170332-.150668236310594-.845151661830641-.368575268341374-.845151661830641-.215240337583964,0-.365908573896377.248002583660309-.365908573896377.845151661830641,0,.597149078167604.150668236312413.845151661828822.365908573896377.845151661828822.21790703203078,0,.368575268341374-.248002583661219.368575268341374-.845151661828822Z"/>
      <path class="cls-3" d="M30.380075009315988,20.618811871202524c0-.443242712886786.193716303827387-.724959933497303.468195353794727-.724959933497303.274479049961883,0,.4653381811695.277907657112337.4653381811695.724959933497303,0,.446861798209284-.190859131207617.724769455321621-.4653381811695.724769455321621-.27447904996734,0-.468195353794727-.281717220608698-.468195353794727-.724769455321621ZM31.044653361384917,20.618811871202524c0-.281717220610517-.078096051691318-.416956724757256-.196382998274203-.416956724757256-.11581073031266,0-.196382998277841.138858589469237-.196382998277841.416956724757256,0,.277907657112337.080572267965181.416766246582483.196382998277841.416766246582483.118286946582884,0,.196382998274203-.135049025972876.196382998274203-.416766246582483ZM31.970186813003238,19.923947489331113h.320193811930949l-1.286108636619247,2.629170247520051h-.320193811930949l1.286108636619247-2.629170247520051ZM31.660850257037964,21.85825335498248c0-.443242712886786.193716303825568-.724959933497303.4653381811695-.724959933497303.274479049965521,0,.468195353792908.281717220610517.468195353792908.724959933497303s-.193716303827387.724959933496393-.468195353792908.724959933496393c-.271621877343932,0-.4653381811695-.281717220609607-.4653381811695-.724959933496393ZM32.322571436483486,21.85825335498248c0-.277907657114156-.077905573514727-.416956724757256-.196382998276022-.416956724757256-.115620252134249,0-.196382998274203.13523950414492-.196382998274203.416956724757256,0,.281717220610517.080762746139953.416956724756346.196382998274203.416956724756346.118477424761295,0,.196382998276022-.139049067644009.196382998276022-.416956724756346Z"/>
    </g>
    <g>
      <path class="cls-3" d="M1.421364239497052,21.603584035200583c0-.669340306438244.368384790170239-1.148392916197736.864104240228698-1.148392916197736.275050484491658,0,.504767163365614.139430023992645.65486396515189.393337431074542l-.236478654085658.304574601592321c-.106953495180278-.17143035736899-.241050130276562-.260193186851211-.400194645366355-.260193186851211-.297907865475281,0-.509338639563794.291812563877102-.509338639563794.710674070382083s.211430774088512.710674070383902.509338639563794.710674070383902c.159144515089793,0,.293241150186077-.088762829482221.400194645366355-.263240837648482l.236478654085658.304574601591412c-.150096801786276.256955057879168-.379813480660232.396575560047495-.657149703249161.396575560047495-.493433711961188,0-.861818502131428-.479052609758583-.861818502131428-1.148583394374327Z"/>
      <path class="cls-3" d="M4.647016891573003,20.493096275797143v2.220975518807791h-.368289551079215v-.910676153980603h-.723150390836963v.910676153980603h-.368289551081034v-2.220975518807791h.368289551081034v.875818647983579h.723150390836963v-.875818647983579h.368289551079215Z"/>
      <path class="cls-3" d="M6.026269355697877,22.714071794604934l-.384289717769207-.771055651812276-.377527742562961.771055651812276h-.422861548175206l.58886327755863-1.129535576889793-.559339160456148-1.091439941917997h.418385311066231l.36609905206933.720197979127988.359241837779336-.720197979127988h.397908907270903l-.554767684267063,1.072392124432554.593434753762267,1.148583394375237h-.425147286276115Z"/>
    </g>
  </g>
</svg>