<?xml version="1.0" encoding="UTF-8"?>
<svg id="Capa_1" data-name="Capa 1" xmlns="http://www.w3.org/2000/svg" viewBox="0 0 34.015748031497424 34.015748031499243">
  <defs>
    <style>
      .cls-1 {
        fill: #d0dbf1;
      }

      .cls-2 {
        fill: #1d3a69;
      }

      .cls-3 {
        fill: #a18dc2;
      }

      .cls-4 {
        fill: #afdef3;
      }

      .cls-5 {
        fill: #e33338;
      }

      .cls-6 {
        fill: #d9a5cc;
      }

      .cls-7 {
        fill: #646887;
      }

      .cls-8 {
        fill: #e9465f;
      }

      .cls-9 {
        fill: #09a349;
      }

      .cls-10 {
        fill: #d58694;
      }

      .cls-11 {
        fill: #a0559c;
      }

      .cls-12 {
        fill: #fff;
      }

      .cls-13 {
        fill: #eeeded;
      }

      .cls-14 {
        fill: #6b8777;
      }

      .cls-15 {
        fill: #34bbdb;
      }

      .cls-16 {
        fill: #47c0f0;
      }

      .cls-17 {
        fill: #6a4695;
      }

      .cls-18 {
        fill: #b5b2b2;
      }

      .cls-19 {
        fill: #f0869f;
      }

      .cls-20 {
        fill: #ee718a;
      }

      .cls-21 {
        fill: #82cff1;
      }

      .cls-22 {
        fill: #f29cb3;
      }

      .cls-23 {
        fill: #cbe4d5;
      }

      .cls-24 {
        fill: #859da2;
      }

      .cls-25 {
        fill: #e7effa;
      }
    </style>
  </defs>
  <path class="cls-12" d="M0,17.007874015750531C0,7.614956225136666,7.614956225135757,0,17.007874015749621,0s17.007874015747802,7.614956225136666,17.007874015747802,17.007874015750531c0,9.392916740707733-7.614956225133938,17.007874015748712-17.007874015747802,17.007874015748712S0,26.400790756458264,0,17.007874015750531"/>
  <g>
    <path class="cls-13" d="M8.886506163873491,18.618635351055673c0-4.525323749698146,3.675671409142524-8.200995158840669,8.200995158840669-8.200995158840669,4.525323749694508,0,8.200995158842488,3.675671409142524,8.200995158842488,8.200995158840669,0,4.525323749694508-3.675671409147981,8.200996568044502-8.200995158842488,8.200996568044502-4.525323749698146,0-8.200995158840669-3.675671409146162-8.200995158840669-8.200995158840669"/>
    <path class="cls-10" d="M8.886506163873491,18.655576205738726c0-.129294400594517,3.490964317319595-1.089772123605144,8.034758494357447-1.052829859716439,4.543794177037853.036940854681234,8.348761395982365.923535459121922,8.348761395982365,1.052829859716439,0,4.525323749696327-3.675671409146162,8.200993749638656-8.200995158840669,8.200993749638656-4.525323749698146,0-8.200995158842488-3.675671409146162-8.200995158842488-8.20099515883885"/>
    <path class="cls-21" d="M22.11153365665632,9.918930903367254c.203177519162637.055411986626495.424826874876089.092353545913284.628004394040545.166236664485041.350943756306151.129295105196434.664945248727236.295531065077739.960476313808613.517179716187457.166236664481403.129295105198253.332473328964625.258590210394686.461767729559142.424826170275992-.036940854684872.036941559284969-.073883118571757.018470427339707-.11082397325481.018470427339707-.221647946507801,0-.350943756304332.129295105200072-.332473328966444.369414183647677,0,.036941559288607,0,.092353545913284-.018470427337888.129295105200072-.055412691230231,0-.092353545913284-.036941559286788-.147766237143514-.073883118568119-.849652340553803-.757298794640519-1.810130063560791-.978947445750237-2.918372614507462-.720357939957466-.092353545911465.018470427341526-.18470709182111.073883118569938-.29553106507592.055411986624677-.036940854684872-.018470427341526-.073883118569938-.03694155928315-.11082397325481-.073883118569029-.240119783051341-.147765532537051-.295531065079558-.350943756307061-.147766237139876-.609533262098012.221647946505982-.129295105200072.498708584242195-.147765532541598.738828367297174-.221648651113355.073883118571757-.018470427340617.166236664481403.036941559288607.221647946507801-.036941559281331h.498708584242195c.018470427343345.018470427341526.05541269123205,0,.073883118569938,0h.295532474283391l.036940854686691.036941559281331c.055412691224774.036941559288607.110823973252991,0,.166236664481403.018470427343345"/>
    <path class="cls-23" d="M21.852943446259815,9.845047784796407c0,.036941559287698-.036940854683053.036941559287698-.055412691230231.036941559287698v-.018470427343345h.073883118569938l-.018470427339707-.018471131944352Z"/>
    <path class="cls-3" d="M21.779060327689876,9.845047784796407v.036941559287698h-.073883118573576v-.018470427343345h.073883118573576v-.018471131944352Z"/>
    <path class="cls-7" d="M21.723649045665297,9.845047784796407v.036941559287698h-.055412691230231s-.018470427339707,0,0,0h.073883118571757l-.018470427341526-.036941559287698Z"/>
    <path class="cls-9" d="M21.612825072408668,9.881989344084104c-.036940854681234,0-.055412691226593,0-.073883118569938-.018470427343345h.073883118569938"/>
    <path class="cls-7" d="M21.243410888760991,9.881989344084104h-.055412691228412q-.018470427343345,0,0-.036941559287698h.073883118569938v.018470427346074h0"/>
    <path class="cls-5" d="M21.612825072408668,9.881989344084104v-.018470427343345h.036940854686691v.018470427343345h-.036940854686691"/>
    <path class="cls-11" d="M21.243410888760991,9.881989344084104v-.036941559287698h.036940854683053s-.018470427341526.018470427346074-.036940854683053.036941559287698"/>
    <path class="cls-15" d="M21.187998197532579,9.845047784796407v.036941559287698h-.036940854684872v-.018470427343345h.036940854684872v-.018471131944352Z"/>
    <path class="cls-24" d="M21.151057342847707,9.845047784796407v.036941559287698s-.018470427337888-.018470427343345-.036940854681234-.036941559287698h.036940854681234Z"/>
    <path class="cls-14" d="M16.681144875179598,26.801160082552997c0-.01847183654354.018470427341526-.01847183654354.036940854681234,0h-.036940854681234Z"/>
    <path class="cls-1" d="M17.383032387793719,20.835120452947194c-.701887512614121,0-1.108242550948489.35094375630797-1.292949642769599,1.108242550948489-.073883118571757.295531065077739-.073883118571757.591062130154569-.05541269123205.905065031778577.036940854686691.738828367297174.092353545913284,1.477656734594348.147766237141695,2.216486511095354.018470427341526.203178928368288.036940854683053.406355038332549.055412691230231.609533966700837.055412691226593.517180420789373-.203177519168094.88659460443796-.683415676070581.923535459120103-.184707091824748,0-.369414183649496,0-.498708584242195-.147766237138057-.092353545913284,0-.147766237141695-.073881709367924-.203177519168094-.129294400597246-.609533966702656-.701887512615031-.978947445746599-1.53306942582185-1.182125669514789-2.419662621055977-.221648651109717-.886594604439779-.350943756306151-1.773187799674815-.406355742934466-2.678252831455211-.073883118571757-1.163655242173263-.406355742932647-2.253425956576393-1.015889005035206-3.269316370811794-.036941559284969-.073883118569029-.11082397325481-.147766237141695-.147765532539779-.22164794650962-.073883118569938-.221647946505982-.203177519164456-.424826874876089-.332472624362708-.628004394044183-.240119078449425-.387884610987385-.424826170274173-.794241058525586-.498709288844111-1.237536951539369-.147765532539779-.905065031778577.073883118569938-1.736246944989034.646474821382071-2.438133048399322.554121275474245-.683416380670678,1.292949642773237-1.034359432374913,2.16107241066311-1.126712978288197.609533966702656-.073883118571757,1.200596096859954.055411986624677,1.773187799675725.258590210394686.221647946507801.073883118569938.443297302217616.14776553253796.664945248727236.240119078451244.073883118569938.147765532541598,0,.258590210393777-.092353545911465.369414183649496-.240119783054979.350943051706054-.461767729560961.701886808010386-.609533966704475,1.089771419001409-.147766237138057.350943756306151-.24011978305316.720357939955647-.24011978305316,1.10824255094667,0,.517180420789373.129294400596336.99741857769277.424826874879727,1.440715879911295.147766237139876.203177519166275.29553106507592.406355038333459.498708584242195.554121275474245.073883118569938.055412691226593.147766237139876.11082397325481.184707091826567.184707091825658,0,.055412691226593,0,.092353545912374-.055412691228412.129294400593608l-.11082397325481.110823973251172c-.387884610991023.406355038334368-.794241058525586.794241058525586-1.182125669516608,1.200596096859954-.147766237139876.147766237139876-.277060637738032.314001492421085-.258590210394686.53565084812999,0,.22164794650871.129294400596336.406355038335278.350943756304332.480238156905216.221647946511439.073883118569938.424826874877908.055412691228412.591062130157297-.11082397325481.22164794650962-.203177519166275.406355038332549-.406355038334368.628004394044183-.609533966702656.073883118569938-.073883118568119.129294400596336-.147766237138057.203177519166275-.203177519164456.036940854684872-.036940854686691.073883118569938-.092353545913284.129294400598155-.036940854686691,0,.05541269123205-.018470427345164.110823973256629-.05541269123205.147766237139876-.18470709182111.461767729560961-.18470709182111.923535459123741.11082397325481,1.34836233399983.073883118569938.092353545913284.129294400596336.184707091824748.258590210394686.203177519168094.018470427341526,0,.055412691230231.018470427343345.055412691230231.055412691226593"/>
    <path class="cls-16" d="M17.678563452871458,12.892714799901114c.129294400592698-.572591702814861.369414183645858-1.089772123606963.738828367295355-1.55153914856237.166236664483222-.203177519166275.332473328966444-.387884610991023.535650848130899-.572591702818499.314001492421085-.203177519165365.609533966700837-.424826170273263.942005886465267-.591062834756485.073883118569938-.036941559286788.147766237141695-.018470427339707.203177519164456-.073883118571757,0,.036941559284969,0,.092353545913284-.018470427341526.129295105196434-.036940854681234.221648651109717,0,.332472624366346.203177519166275.443297302221254.036940854684872.018470427341526.092353545911465.03694155928315.092353545911465.092353545910555-.018470427339707.036941559285879-.055412691226593.055411986629224-.110823973252991.073883118570848-.517180420789373.221648651109717-.942005886463448.554121275475154-1.274479215426254.997418577693679-.443297302221254.591062834757395-.664945248729055,1.274479215428073-.628004394046002,2.013307582727066.055412691228412,1.071301696261798.554121275476064,1.902483609468618,1.45918630725464,2.493545739625915.424826874877908.277060637738032.905065031776758.424826874876089,1.422244043362298.443297302221254.868122767897148.055412691226593,1.625422971737862-.203177519169003,2.271897793123571-.775769221980227.036940854683053-.036940854685781.073883118569938-.073883118571757.129294400596336-.073883118571757.055412691230231,0,.073883118568119.055412691228412.073883118568119.110823973252991,0,.221647946507801.110823973252991.350943756306151.314001492419266.406355038334368.018470427345164,0,.055412691230231.018470427339707.055412691230231.055412691224774,0,.073883118570848-.036940854683053.110823973256629-.092353545911465.147766237141695-.480238156902487.406355038334368-1.034359432376732.683415676070581-1.643893399077569.831181913210457-.7572987946387.166236664483222-1.496127161935874.147766237139876-2.21648510189334-.11082397325481-.7572987946387-.295531065077739-1.385303188679245-.738828367295355-1.86554134558537-1.4037736160235-.221647946507801-.29553106507683-.369414183647677-.628004394043273-.498708584244014-.960476313803156-.221647946505982-.628004394045092-.277060637734394-1.274479215432621-.166236664481403-1.920954036815601,0-.073883118570848.018470427341526-.14776553253796.073883118571757-.203177519165365"/>
    <path class="cls-25" d="M20.13516833781614,17.3441561356276c.738828367297174.258590210394686,1.496127161935874.29553106507592,2.253425956572755.129294400594517.05541269123205.129294400596336-.073883118569938.203177519166275-.110823973251172.314001492419266-.258590210394686.480238156906125-.517180420789373.960476313805884-.720357939955647,1.477656734598895-.203177519168094.554121275469697-.295531065079558,1.126712978285468-.350943756306151,1.69930468109942-.129294400598155,1.237536951543007-.24011978305316,2.475075312288027-.646474821387528,3.657199572598984-.221647946505982.646474821385709-.554121275472426,1.237536951541188-.99741857769186,1.736245535788839-.055412691228412.055412691229321-.092353545911465.110825382453186-.184707091824748.110825382453186-.147766237139876.129294400598155-.332473328964625.184707091826567-.53565084812908.147766237143514-.443297302219435-.092353545911465-.683415676070581-.387886020193946-.646474821385709-.831181913208638.055412691228412-.738828367297174.129294400594517-1.459186307253731.166236664481403-2.198014674549995.036940854684872-.535650848130899.11082397325481-1.089772123606963,0-1.625422971737862-.055412691226593-.240119783051341-.147766237139876-.443297302219435-.277060637738032-.64647482138389-.166236664481403-.258590210392867-.387884610989204-.424826874876089-.683415676065124-.480238156901578-.314001492421085-.092353545912374-.572591702815771-.480238156905216-.591062130159116-.849652340554712-.018470427339707-.332473328963715.036940854683053-.646474821382071.203177519166275-.94200588645981,0-.073883118569938.036940854686691-.1108239732539.073883118571757-.147766237139876l.332473328966444-.332473328968263.775769221980227-.775769221979317c.110823973251172-.110823973252991.240119783051341-.221647946506891.369414183647677-.332473328966444.258590210392867-.147766237138967.517180420791192-.110823973252991.775769221980227,0,.073883118569938.018470427344255.129294400596336.05541269123114.203177519168094.073883118572667.147766237139876.055412691227502.29553106507592.036940854683053.424826874876089-.073883118572667.055412691226593-.036940854682143.110823973252991-.092353545910555.184707091824748-.110823973252991"/>
    <path class="cls-21" d="M24.771316060763638,15.737203591234902c-.184707091822929.221647946505982-.332473328964625.480238156902487-.554121275470607.683415676066943-.036940854684872.036940854683053-.092353545913284.073883118569029-.129294400598155.129294400595427-.166236664483222-.073883118569029-.350943756306151-.129294400595427-.40635503833073-.332473328963715,0-.073883118569938.036940854684872-.166236664481403-.036940854684872-.240119783051341v-.055412691230231c.203177519168094-.221647946507801.406355038334368-.461767729560961.554121275476064-.738828367297174.129294400594517-.24011978305316.221647946507801-.498708584245833.277060637734394-.775769221982955.073883118571757-.295531065075011.073883118571757-.591062130156388.110823973256629-.905065031777667.036940854681234-.055412691229321.073883118569938,0,.110823973251172,0,.24011978305316.184707091822929.332473328964625.166236664483222.535650848130899-.036940854685781.036940854684872-.036940854683962.055412691230231-.07388311856721.11082397325481-.036940854683962.018470427343345.646474821387528-.092353545909646,1.274479215430802-.369414183649496,1.86554134558537-.055412691228412.129294400598155-.129294400596336.277060637736213-.203177519164456.406355038334368"/>
    <path class="cls-4" d="M25.325437336236064,13.465307207318801c-.018470427341526,0-.036940854679415,0-.055412691226593.018470427337888-.221647946507801.295531065079558-.443297302221254.295531065079558-.664945248727236,0-.055412691228412-.018470427337888-.073883118571757-.073883118569938-.073883118571757-.129294400594517-.073883118569938-.628004394040545-.332473328964625-1.200596096858135-.738828367295355-1.680834253757894-.036940854684872-.055411986627405-.110823973252991-.092353545914193-.073883118571757-.166236664484131-.129294400594517-.314002197020272.166236664485041-.609533262102559.461767729560961-.49870928884593.350943756306151.29553106507592.572591702815771.683416380668859.794241058527405,1.071300991659882.24011978305316.424826170275992.295531065077739.905065031778577.369414183647677,1.385303188684702"/>
    <path class="cls-6" d="M22.11153365665632,9.918930903367254c-.05541269123205,0-.11082397325481.018470427343345-.166236664483222-.018470427339707.055412691228412,0,.110823973251172-.018470427341526.166236664483222.018470427339707"/>
    <path class="cls-25" d="M17.678563452871458,12.892714799901114c-.147766237141695.720357235351912-.092353545911465,1.440715175309379.147766237141695,2.1426026879235,0,.055412691224774-.036940854686691.073883118568119-.05541269123205.110823973252991-.166236664481403.184707091825658-.166236664481403.387884610991023-.073883118569938.591062130157297.073883118569938.203177519166275.129294400596336.40635503833073.110823973252991.628004394044183,0,.073883118569938-.036940854683053.147766237138057-.055412691226593.221647946505982-.018470427343345.073883118571757-.073883118569938.110823973252991-.129294400596336.166236664483222-.24011978305316.258590210394686-.498708584242195.498708584242195-.738828367297174.738828367295355-.036940854684872.0369408546876-.092353545909646.11082397325481-.166236664483222.092353545911465-.387884610987385-.314001492419266-.738828367295355-.664945248725417-.923535459120103-1.126712978286378-.166236664481403-.406355038332549-.258590210392867-.794241058525586-.203177519168094-1.256008788084728.092353545913284-.775769221981136.424826874879727-1.440715879911295.868122767897148-2.06871956935538.073883118569938-.092353545909646.110823973251172-.203177519164456.110823973251172-.314002197021182.295531065077739.073883118569938.591062130159116.129295105196434.905065031778577.073883118569938h.24011978305316"/>
    <path class="cls-22" d="M16.681144875179598,17.602746346022286c.350943756306151-.332473328966444.683415676066943-.64647482138389.99741857769186-.99741857769186.24011978305316-.221647946505982.664945248723598-.184707091822929.868122767891691.055412691228412.22164794650962.258590210397415.203177519168094.683415676068762,0,.849652340551984-.369414183649496.369414183647677-.738828367298993.720357939955647-1.10824255094667,1.089772123603325-.24011978305316.129294400594517-.498708584244014.110823973250262-.701887512614121-.05541269123114-.203177519162637-.18470709182202-.29553106507592-.406355038329821-.203177519162637-.683415676066033.036940854681234-.055412691230231.073883118569938-.092353545911465.110823973251172-.147766237141695.018470427343345-.036940854684872.036940854683053-.055412691228412.073883118569938-.092353545909646"/>
    <path class="cls-20" d="M16.551850474581443,17.824394292530997c-.073883118569938.40635503833164.092353545911465.701887512613212.424826874876089.775769221981136.147766237143514.036940854683053.295531065079558,0,.461767729560961-.018470427343345-.147766237138057.147766237139876-.295531065074101.314001492421085-.443297302217616.461767729560961-.29553106507592.295531065079558-.609533966702656.591062130157297-.905065031776758.886594604438869-.295531065079558.295531065078649-.757298794642338.221647946507801-.960476313808613-.129294400598155-.129294400594517-.221647946505982-.11082397325481-.443297302217616.036940854686691-.628004394044183.073883118568119-.110823973252991.166236664479584-.18470709182202.258590210392867-.277060637734394l1.10824255094667-1.108242550944851q.036940854681234,0,.036940854681234.036940854683962"/>
    <path class="cls-19" d="M16.551850474581443,17.824394292530997l-.036940854681234-.036940854683962c.018470427341526-.036940854683053.055412691228412-.073883118571757.092353545911465-.092353545911465,0,.055412691228412-.018470427341526.092353545911465-.055412691230231.129294400595427"/>
    <path class="cls-1" d="M18.971513095639239,11.802943380899706c.055412691228412.055411986624677.129294400598155.036941559281331.203177519168094.036941559281331.628004394042364,0,1.237536951543007,0,1.847070918243844.166236664483222,0,.073883118573576-.055412691228412.092353545911465-.092353545915103.129295105199162-.240119783049522.203177519167184-.314001492419266.461767729561871-.240119783049522.775769926579414,0,.055411986630133.055412691226593.129295105199162.018470427337888.184707091824748-.055412691226593.036941559288607-.110823973251172,0-.166236664481403-.018470427341526-.203177519164456-.073883118569938-.424826874877908,0-.535650848130899.147765532541598-.129294400596336.203177519168094-.129294400596336.406355038332549.036940854683053.572591702815771.295531065079558.314001492417447.609533966702656.609533966700837.905065031780396.905065031778577.147766237141695.147766237139876.332473328966444.166236664483222.517180420789373.110823973251172.055412691228412,0,.11082397325481-.073883118569938.166236664481403,0,.036940854686691.05541269123205.036940854686691.129294400597246.055412691230231.184707091826567.092353545913284.572591702815771.517180420791192.942005886463448,1.089772123603325.942005886463448h.701887512614121c.036940854684872,0,.092353545913284,0,.129294400598155.036940854684872v.036940854683053c-.443297302219435.424826874877908-.942005886467086.701887512612302-1.533069425824579.812711485868931-1.200596096858135.240119783051341-2.419662621055977-.184707091826567-3.195431843041661-1.237536951543007-.424826874872451-.591062130157297-.628004394040545-1.256008788086547-.59106213015184-1.97636531884018.036940854681234-.64647482138389.221647946504163-1.256008083486449.646474821382071-1.773187799672087"/>
    <path class="cls-8" d="M18.528215793421623,17.510392800110822c.092353545911465-.166236664483222.166236664481403-.332473328965534.129294400598155-.535650848132718-.073883118569938-.369414183647677-.480238156906125-.591062130153659-.831181913212276-.424826874876089-.055412691226593.018470427339707-.092353545913284.055412691228412-.147766237139876.055412691228412.11082397325481-.277060637736213.073883118569938-.554121275474245-.036940854684872-.831181913208638-.147766237138057-.332473328964625-.110823973252991-.480238156902487.166236664481403-.720357939958376.147766237141695.314001492423813.277060637736213.628004394045092.480238156906125.905065031783124.461767729560961.64647482138389,1.089772123601506,1.126712978285468,1.847070918240206,1.403773616025319-.240119783049522.277060637731665-.406355038332549.332473328963715-.738828367297174.18470709182202-.277060637732575-.110823973252991-.572591702812133-.166236664485041-.868122767891691-.018470427340617"/>
    <path class="cls-25" d="M23.644603082477261,15.94038251960319c-.258590210396505.036940854684872-.517180420791192.036940854684872-.775769221980227.036940854684872-.369414183649496,0-.683415676068762-.129294400596336-.923535459123741-.387884610991023-.203177519162637-.22164794650962-.258590210394686-.517180420789373-.29553106507592-.812711485866203,0-.092353545914193.055412691228412-.129294400599065.11082397325481-.166236664484131.332473328964625-.332473328964625.646474821382071-.664945248729055.997418577688222-.997418577693679.184707091824748-.166236664483222.332473328966444-.35094375630797.387884610992842-.591062834759214.11082397325481.036941559284969.184707091824748.129295105198253.277060637736213.203178223768191.369414183647677.35094375630797.738828367297174.720357939955647,1.015889005033387,1.163655242175082,0,.018470427341526.036940854684872.036940854685781.055412691228412.055412691228412-.129294400594517.591062130159116-.40635503833073,1.089772123605144-.86812276789351,1.496127161937693"/>
    <path class="cls-17" d="M23.145893089029414,13.022009905097548c0,.184707091824748-.073883118568119.332473328964625-.203177519166275.443297302221254-.443297302219435.42482687487427-.868122767891691.868122767891691-1.29294964276778,1.292949642765961-.295531065081377.184707091825658-.498708584247652.166236664483222-.738828367298993-.092353545911465l-.775769221980227-.775769221980227c-.258590210394686-.258590210392867-.295531065079558-.498708584242195-.110823973256629-.738828367297174.166236664483222-.203177519164456.406355038334368-.240119078453063.720357939959285-.073883118569029.166236664481403.073883118569029.258590210394686.22164794650871.387884610991023.35094375630888.240119783051341.221647946503253.18470709182111.221647946503253.42482687487427,0,.240119783054979-.240119078454882.480238156902487-.480238156904306.720357939957466-.720357939959285.073883118569938-.073883118569938.147766237139876-.147765532539779.277060637732575-.129295105198253.387884610991023,0,.517180420791192.073883118571757.628004394044183.42482617027963"/>
    <path class="cls-25" d="M22.517888694985231,12.597183734824284c-.110823973252991.055411986625586-.221647946505982.129295105197343-.295531065077739.221648651106989-.258590210394686.277060637736213-.535650848130899.535650848130899-.794241058523767.812711485868931-.05541269123205.055412691224774-.092353545915103.092353545911465-.166236664485041,0-.166236664481403-.184707091824748-.35094375630797-.350943756309789-.517180420789373-.535650848132718-.055412691228412-.184707091822929-.11082397325481-.369414183645858-.092353545911465-.554121275474245.036940854683053-.240119078451244.203177519166275-.406355742932647.387884610991023-.53565084812908.517180420789373.129295105196434,1.034359432373094.314002197022091,1.496127161934055.591062834760123"/>
    <path class="cls-18" d="M32.916898528377715,14.370372239095559c-.22164794650962-.240119783054979-.424826874876089-.498708584241285-.775769221980227-.53565084812908-.48023956610632-.055412691230231-.794241058527405.203177519165365-1.052829859720077.53565084812908-.295532474279753.369414183647677-.554121275468788.757298794640519-.886594604438869,1.182125669515699-.16623525527757-.535650848131809-.277060637734394-1.015889005030658-.443295893013783-1.459186307253731-.387886020193037-1.126712978284559-.905063622576563-2.198014674547267-1.570010280505812-3.195432547639939-.554121275474245-.831181913206819-1.182124260312776-1.570010280503993-1.902483609472256-2.234956233833145-.775769221982046-.701886808014024-1.588480707849158-1.348361629397914-2.512016166969261-1.865541697885419-.664945248729055-.369414183650406-1.329890497454471-.701886808012205-2.031778010066773-.978947798050285-.886594604438869-.332472624360889-1.791658227015432-.572592055116729-2.733665522684532-.720357587654689-1.089772123601506-.166236312180445-2.17954424720665-.203177871469052-3.269316370809975-.092353545912374-.591062130159116.055411986627405-1.182125669516608.129295105197343-1.754717372334198.295531417380516-.480238156898849.129295105194615-.960477018403253.240119078449425-1.440715175309379.406355742932647-.923535459120103.314002197021182-1.791658931613711.738828367297174-2.622840844824168,1.256008083483721-.99741857769186.628004394043273-1.920953684511915,1.366832761340447-2.733664818080797,2.25342666117831-1.14518411022982,1.25600808348554-2.068719393202628,2.641311272167513-2.659782051809088,4.229792684618587-.554121275474245,1.459186307251002-.849652604776566,2.622840140224071-.942006150689849,4.525323749695417,0,.628004394043273.036941383137673,1.311420070113854.073882854345356,1.551539853163376.110824325554859.277060637736213.332472800513642.424826874877908.628004217893249.517180420791192.572592055114001.166236664483222,1.292949642769599-.277060637738032,1.256008435784679-.868122767891691-.055411986624677-.99741857769186.036941559288607-1.976365318841999.184707091824748-2.955313469192333.110824325556678-.720357939955647.350943404006102-1.403773616024409.60953326210074-2.087190701291547.369414183649496-.960477018412348.905064679478528-1.847070918245663,1.514598293879317-2.67825283145703.406355742932647-.554121275473335.905065031780396-1.052830564317446,1.403773616026228-1.533068721218115.572591702812133-.554121275476064,1.237537656141285-.997418577695498,1.884012477528813-1.422244747969671.480238156900668-.314002197023001,1.034359432373094-.554121275472426,1.570010280503993-.757298794642338,1.089772123605144-.424826170271444,2.216485806495257-.683416380665221,3.380139639468325-.775769926580324,1.385303188681064-.129295105198253,2.733665522677256.018470779643394,4.063556020133547.406355742932647.7572987946387.221648651113355,1.477656734594348.498709288847749,2.161072410661291.868123472497246,1.126712978290016.572591702812133,2.10566112863853,1.348361629397914,2.992255733075581,2.271897088519836.794241058529224.812711485865293,1.422244043367755,1.736246944985396,1.939424464157128,2.733665522679075.350942347104137.683415676070581.62800298484035,1.422244043369574.831181913208638,2.179544247210288,0,.018470427339707,0,.055412691228412-.036940854683053.129294400596336-.314001492421085-.240119783054979-.628002984838531-.480238156904306-.923535459120103-.70188751261594-.683415676068762-.517180420788463-1.440715879911295-.129294400593608-1.606951135192503.535650848132718-.129294400596336.480238156900668.129294400598155.812711485865293.46176772956278,1.07130169625998,1.182124260314595.923535459121922,2.382720357169092,1.810130063558972,3.564847435889533,2.715193686139173.184707091822929.129294400594517.277060637738032.092353545909646.406355038332549-.073883118571757.443295893015602-.609533966700837.886594604438869-1.219066524198752,1.329890497452652-1.828600490902318.480239566108139-.628004394042364.942007295667281-1.292949642771418,1.477656734594348-1.902483609472256.110825382458643-.129294400594517.129294400596336-.295531065077739.184707091824748-.461767729560961-.01847183654354-.166236664483222-.055412691228412-.35094375630797-.073881709366105-.517180420789373"/>
    <path class="cls-18" d="M18.011036781837902,30.273651154125218q-.05541269123205-.424826874877908-.554121275476064-.40635503833073h-1.071301696263617c-.184707091822929,0-.240119783051341.055412691230231-.258590210392867.221647946507801-.036940854681234.498708584245833-.055412691226593.997417168487118-.110823973252991,1.496128571139707,0,.147766237141695.036940854681234.221647946507801.184707091822929.221647946507801.572591702815771.055412691226593,1.145183405627904.018471836545359,1.717776517649327,0,.129294400592698,0,.166236664483222-.092353545909646.166236664483222-.221647946507801-.036940854686691-.424826874877908-.055412691230231-.831181913207729-.092353545915103-1.311421479316778"/>
    <path class="cls-18" d="M9.699216945138687,27.281396830255289c-.036941559284969.036940854683962-.092353545913284.055412691226593-.129295105198253.110825382456824-.277060637736213.406355038332549-.628004394044183.738828367295355-.942005886461629,1.108242550945761-.129295105196434.166235255279389-.129295105196434.295532474280662.055411986626495.42482687487518.406355742932647.295532474283391.812711485867112.609533966700837,1.256008083482811.868122767895329.166236664483222.110825382456824.258590210396505.092353545911465.369414183653134-.073881709367924.258590210392867-.42482687487518.517179716187457-.849653749753998.775769926578505-1.27447780622424.036941559286788-.073881709366105.073883118573576-.147766237141695,0-.203178928370107-.424826170272354-.314001492421085-.849652340550165-.628002984838531-1.274479215428073-.942007295665462-.018470427341526,0-.055411986626495,0-.092353545911465-.018471836545359"/>
    <path class="cls-18" d="M7.039434893329599,27.262927812115777c.055411986626495-.036940854685781.11082432555304-.055412691227502.166236312181354-.110825382455914.369414183647677-.332473328967353.72035758765378-.646474821386619,1.089772123603325-.978948150351243.129295105196434-.110825382456824.129295105196434-.203178928369198.018470427343345-.332473328966444-.277060637738032-.332473328964625-.535650495830851-.683415676066943-.794240353925488-1.034359432373094-.11082432555304-.147766237141695-.221648651111536-.166236664483222-.369414183649496-.073883118572667-.406355742932647.258590210395596-.812711133565244.517180420790282-1.200596096858135.794241058525586-.129295105194615.092353545914193-.184707091822929.184707091825658-.07388276626989.332473328965534.295531417379607.48023956610632.664945601030922.886594604438869,1.015889005037025,1.329890497454471.03694155928315.036940854683053.073882766266252.092353545913284.14776553253796.073881709364287"/>
    <path class="cls-18" d="M25.676381092545853,25.951506332800818c.036940854683053.036940854683053.036940854683053.073881709364287.073883118569938.110825382456824.406356447536382.350942347104137.794239649323572.738828367295355,1.219066524199661,1.052829859716439.129294400594517.092353545914193.203178928368288.073881709367924.295532474279753-.036940854683053.350942347104137-.406355038332549.6834156760724-.86812276789351.997417168489847-1.31142147931314.092353545911465-.129294400596336.073881709367924-.22164794650962-.055412691228412-.295532474282481-.424826874876089-.258588801193582-.831181913210457-.517180420792101-1.256008788088366-.775769221982955-.129294400592698-.07388311856721-.258588801187216-.11082397325481-.350942347100499.036940854683962-.24011978305316.387886020192127-.554121275476064.738828367298993-.831181913212276,1.108242550945761-.036940854681234.036940854684872-.055412691226593.073881709368834-.073883118569938.110825382458643"/>
    <path class="cls-18" d="M20.319875429640888,31.400365541617248c.535650848130899-.110825382455005,1.034359432373094-.314001492419266,1.551539853162467-.480239566104501.166236664483222-.055412691227502.22164794650962-.16623525527848.166236664483222-.332473328964625-.184707091824748-.443295893017421-.369414183647677-.905063622578382-.554121275472426-1.348362334001649-.073883118569938-.16623525527757-.203177519164456-.147766237139876-.332473328966444-.110825382455005-.424826874877908.129294400594517-.849652340550165.258588801192673-1.274479215426254.387886020193037-.110823973256629.036940854685781-.184707091824748.055412691227502-.147766237143514.184707091824748.129294400596336.535649438928886.258590210398324,1.071301696261798.369414183649496,1.606951135191593.036940854683053.147766237138967.129294400596336.129294400593608.240119783054979.110825382457733"/>
    <path class="cls-18" d="M24.346489185889368,27.244455975568599c-.018470427341526,0-.05541269123205.018471836547178-.092353545915103.036940854686691-.369414183645858.277060637736213-.701887512612302.572593112017785-1.089772123601506.794241058525586-.129294400596336.073881709364287-.22164794650962.184707091824748-.092353545911465.369414183647677.277060637736213.424826874877908.517180420787554.849653749756726.757298794635062,1.292949642769599.05541269123205.092353545911465.129294400598155.110825382458643.221647946511439.073881709367924.535650848130899-.295532474281572.99741857769186-.683415676068762,1.477656734592529-1.034360841580565.092353545911465-.055412691227502.092353545911465-.147766237139876,0-.221647946505982-.350943756306151-.424826874876089-.701887512614121-.831181913210457-1.052829859716439-1.256008788086547-.036940854684872-.036940854686691-.073883118568119-.073881709367924-.129294400594517-.055412691228412"/>
    <path class="cls-18" d="M14.409248491259859,29.774942569883024c0-.166235255279389-.055412691228412-.22164794650962-.166236664481403-.258588801190854-.443297302219435-.110825382458643-.905065031778577-.203178928370107-1.311420070112945-.424826874877908-.14776553253796-.073881709366105-.240119078451244.01847183654354-.277060637736213.147766237139876-.184707091824748.461767729560961-.369414183649496.905063622576563-.554121275470607,1.366831352137524-.055411986626495.147766237142605-.036941559286788.22164794650962.110823973251172.295532474281572.480238156904306.221647946507801.99741857769186.350942347105047,1.496127161937693.498708584244014.110823973252991.036940854684872.221648651107898.073881709367924.295531065077739-.073881709366105.221647946507801-.517180420787554.258590210394686-1.071301696263617.406355038332549-1.551538443962272"/>
    <g>
      <polygon class="cls-2" points="2.255521285540453 9.881989344084104 2.569523350446616 9.383280055238174 4.324240678741262 10.491522606184844 5.007656883261006 9.401751187179798 5.414012626195472 9.67881182491783 4.416594224652727 11.248822105425461 2.255521285540453 9.881989344084104"/>
      <path class="cls-2" d="M5.672602484288291,9.1801025360719c-.221648651109717.073883118569938-.461767729560961.11082397325481-.683416204517926.055411986624677-.221648474958783-.036941559281331-.44329712607032-.147765532536141-.628004217893249-.314002197019363-.184707091824748-.166236664483222-.314002020872067-.369414183647677-.387884963291071-.591062834759214-.07388276626989-.221648651107898-.07388276626989-.461767729559142-.018470779643394-.683416380668859.055412162777429-.240119078453063.166236312179535-.443296949919386.350943404006102-.646474821385709.184707091822929-.203177871466323.369414183647677-.332472624362708.609533438251674-.424826170274173.221648474956964-.073882766271709.461767553408208-.110824325556678.683416204517926-.055411986629224.240119078453063.036941559286788.443296949917567.147765532540689.628004041744134.31400219702482.184707091824748.166236312178626.314002197021182.369414183646768.387884963289252.591062834754666.073882766271709.221648651111536.073882766271709.461767729560961.018470779643394.683416380668859-.055411986626495.240119078454882-.166236312183173.443297302221254-.350943404004283.646474821389347-.184707091824748.203177519164456-.38788496329289.332472624362708-.609533262102559.424826170274173M6.097428654566102,8.053388853183606c.036941559284969-.129295105197343.018470779641575-.277060637738032-.018470779643394-.406355742934466-.055411986626495-.129295105198253-.129295105196434-.258590210394686-.240119078454882-.350943404006102-.11082432555304-.110824325555768-.240119078447606-.166236312181354-.387884963289252-.203177871468142-.14776553253796-.03694155928406-.277060637736213-.018470779642485-.406355566781713.018470779643394-.129294929047319.036941559284969-.258589858096457.129295105194615-.350943404007921.240119430751292-.092353545909646.11082397325481-.166236312181354.240119078451244-.203177871468142.369414183647677-.036941383132216.129295105198253-.018470779639756.277060637738032.018470779645213.406355742936285.055412162779248.129295105196434.129294929047319.258590210394686.240119254600359.350943756306151.110824325554859.110823973252991.240119254603997.166236664481403.38788496329289.203177519164456.147765532539779.036941559287698.277060637736213.018470427341526.406355742934466-.018470427339707.129295105196434-.036941559284969.258589858092819-.129295105196434.350943404004283-.240119078453063s.166236312181354-.240119078448515.203177871466323-.369414183649496"/>
      <path class="cls-2" d="M7.630497728086993,7.185265732988228c-.240119078451244.036941559284969-.461767729560961,0-.683416380668859-.073882766268071-.221648651109717-.092353545913284-.406355742934466-.221648651111536-.554121275474245-.424826170276901-.147765532539779-.203177871464504-.240119078451244-.424826170275082-.277060637736213-.646474821385709-.036941559284969-.240119078450334,0-.461767729560961.110824325556678-.683416380669769.092353545911465-.221648651106989.240119078447606-.406355742932647.461767729560961-.57259205511491.166236312179535-.129295105198253.350943404004283-.221648651109717.554121275468788-.277060637737122.184707091824748-.055411986626495.369414183649496-.055411986626495.554121275474245,0l-.092353545913284.517179716188366c-.258589858092819-.055411986627405-.498709288844111,0-.683416380668859.166236312181354-.129295105198253.092353545912374-.221648651109717.203177871468142-.277060637736213.350943404004283-.055411986624677.129295105198253-.07388276626989.258589858095547-.055411986624677.406355742936285.018470779639756.14776553253887.073882766266252.277060637736213.184707091822929.406355742932647.092353545909646.129295105200072.203177871466323.221648651110627.350943404006102.277060637735303.129295105196434.055411986628314.258589858092819.07388276626989.406355742932647.055411986628314.147765532539779-.018470779641575.277060637734394-.073882766270799.406355742934466-.184707091824748.203177871464504-.166236312182264.314001844722952-.369414183646768.314001844722952-.628004041742315l.517179716187457.036941559284969c0,.184707091825658-.055411986628314.369414183649496-.147765532539779.554121275474245-.092353545913284.166236312179535-.221648651109717.332472624362708-.406355742934466.461767729560961-.203177871468142.166236312180445-.424826170277811.258589858092819-.664945601029103.295531417377788"/>
      <path class="cls-2" d="M10.382633325811184,4.894897864824998l-1.052830564320175.554121275474245.055411986626495.591062834758304-.535650848130899.295531417378697-.203177519168094-2.789077157006432.517179716189275-.277060637737122,2.216485101891521,1.717775813045591-.554121275470607.295531417379607-.461767729560961-.369414183649496.018471131943443-.018470779643394ZM10.013219142159869,4.580895667805635l-.812711485867112-.664945601028194.110823973252991,1.052830212017398.720357939957466-.387884963290162-.018470427343345.000000352300958Z"/>
      <polygon class="cls-2" points="10.567340417634114 2.604529908590848 11.121461693106539 2.419822816765191 11.804878073775399 4.37771814864027 13.023944597978698 3.95289162606241 13.171710130518477 4.414659355624281 11.398522330844571 5.024192970025069 10.567340417634114 2.604529908590848"/>
      <rect class="cls-2" x="12.976712361455842" y="1.834908304275265" width=".591062832690559" height="2.567428408839266" transform="translate(-.361409047450017 3.160716328201663) rotate(-13.399999575701425)"/>
      <polygon class="cls-2" points="16.182436290933765 3.435711909875863 16.237847572960163 3.915950242927465 14.021363175670558 4.229952263799532 13.965951189042244 3.842067476656666 15.129605022015312 1.97652582280989 13.762772965274053 2.161232870597814 13.707360978647557 1.680994471487793 15.831492534627614 1.385463120164786 15.886905225857845 1.7733479953813 14.741720411024289 3.638889605191252 16.182436290933765 3.435711909875863"/>
      <polygon class="cls-2" points="18.343508701595056 3.528065455786418 18.325038274255348 3.98983318534647 16.348672955418806 3.93442102256904 16.422554664784911 1.385463120164786 18.343508701595056 1.440875249913006 18.343508701595056 1.921113704070194 16.995147776800877 1.884172276897516 16.976675940257337 2.438293508334027 18.158801609772127 2.456764287976512 18.158801609772127 2.918532017536563 16.958205512915811 2.900061237893169 16.939735085572465 3.491123896501449 18.343508701595056 3.528065455786418"/>
      <path class="cls-2" d="M19.02692578686765,1.496287379664864l1.145183405633361.221648518993788c.277060637734394.055412140759472.498708584242195.147765686671846.683415676066943.295531351323916.184707091824748.147765708690713.314001492417447.332472712439085.40635503833073.535650583905408.073883118569938.203177783392675.092353545913284.443297126068501.036940854683053.701886984163139-.055412691226593.258589858093728-.147766237138057.461767729559142-.314001492419266.628004041742315-.147766237141695.166236312183173-.35094375630797.277060637737122-.572591702812133.332472800513642-.22164794650962.055412162777429-.480238156906125.073882766270799-.7572987946387,0l-1.145183405633361-.221648474960602.498708584245833-2.512016519269309.01847183654354.018470713587703ZM19.728811890277939,3.749713930745202c.258590210398324.055412162777429.46176772956278.018470779643394.646474821385709-.092353545914193.184707091824748-.11082432555304.295531065079558-.277060637732575.332473328968263-.517179892333843.055412691226593-.240119254603997,0-.443297037993943-.11082397325481-.609533438251674-.129294400598155-.166236400256821-.314001492421085-.277060637735303-.554121275472426-.332472800513642l-.535650848132718-.110824237480301-.314001492421085,1.551539412787861.535649438927067.110824501705792Z"/>
      <path class="cls-2" d="M22.499418267643705,4.950309851455131c-.129294400592698-.184707091824748-.221647946505982-.387884963291981-.24011978305316-.628004041744134-.018470427341526-.221648474958783.018470427345164-.461767729559142.129294400598155-.683416204519744.110823973251172-.221648474958783.258590210394686-.406355566783532.443297302217616-.535650671979965.184707091824748-.129294929047319.387884610989204-.203177871467233.628004394044183-.221648474959693.221647946505982,0,.461767729559142.018470779641575.683415676068762.129294929046409.166236664483222.073882766270799.314001492419266.184707091824748.424826874876089.295531417379607.11082397325481.110824325554859.203177519168094.258589858094638.258590210392867.406355566784441l-.147766237138057.055412162777429c-.092353545911465-.277060637738032-.295531065079558-.480238509205265-.591062130157297-.609533438251674-.203177519164456-.092353545910555-.387884610987385-.129294929047319-.591062130155478-.110824325553949-.203177519168094,0-.387884610991023.07388276626898-.554121275474245.184707091823839s-.29553106507592.258589858092819-.369414183647677.461767729560052c-.092353545911465.184707091824748-.129294400594517.387884787140138-.11082397325481.59106265860828,0,.203177871468142.092353545913284.369414183648587.203177519164456.535650495830851.11082397325481.166236312179535.277060637738032.295531417379607.461767729560961.387884963291981.295531065081377.129295105194615.572591702819409.147765532536141.849652340553803.055411986625586l.055412691230231.166236312182264c-.147766237141695.055411986627405-.314001492421085.092353545912374-.480238156906125.07388276626989-.166236664483222,0-.332473328964625-.055411986628314-.498708584242195-.129295105199162-.22164794650962-.110824325553949-.406355038334368-.258589858092819-.535650848130899-.443296949917567"/>
      <path class="cls-2" d="M25.824145920483716,6.20631828724072l-1.237536951543007-.831181913209548-.664945248729055.424826170275082-.166236664481403-.110824325553949,2.401190784512437-1.459185954952773.147766237141695.110824325553949-.443297302219435,2.789077157008251-.166236664483222-.110824325554859.129294400598155-.775769926584871.000001409203833-.036941206981282ZM25.861088184368782,6.021611195416881l.258588801192673-1.606951487493461-1.385303188682883.849652692853851,1.10824255094667.757299146938749.01847183654354-.000000352299139Z"/>
      <path class="cls-2" d="M27.283332227732899,8.441274168774726l.147766237141695-1.034359432376732c-.073881709366105-.055411986625586-.147766237141695-.110823973251172-.184707091822929-.14776553253796l-.535649438925248-.49870928884593-.572593112021423.60953326210074-.129294400594517-.129295105198253,1.75471737233056-1.865541697885419.664946657931068.628004041741406c.240119783051341.221648651108808.369414183647677.443296949918476.387886020193037.683416380670678.036940854683053.240119078452153-.055412691230231.461767729560052-.24011978305316.646474821382981-.129294400594517.147765532543417-.295532474279753.240119078451244-.461767729559142.258590210395596-.166235255281208.036941559287698-.350942347107775,0-.517180420791192-.092353545912374l-.147766237141695,1.089772123603325-.147766237139876-.147765532534322-.018471836547178-.000000704603735ZM27.338744918964949,7.129853746361732c.203178928366469.184706739521062.387886020191218.277060285434345.572593112017785.295531417377788.184707091824748,0,.350942347102318-.073883118569938.517180420789373-.221648651107898.147766237139876-.166236312181354.221647946507801-.332472624364527.203178928370107-.517179716188366-.018471836545359-.184707091823839-.129294400596336-.369414183648587-.332473328964625-.554121275472426l-.535649438932523-.49870928884684-.942007295665462,1.015889005035206.535649438928886.498709288844111-.01847183654354-.018470779641575Z"/>
      <polygon class="cls-2" points="28.871814344785889 10.177520409163662 28.742517125785525 10.269873955075127 27.671218247929573 8.884570766392244 29.684524421450988 7.314560485882794 30.737354281167427 8.662922819884443 30.60805988057291 8.773746793135615 29.666052584905628 7.57315069627748 28.871814344785889 8.182683958380039 29.702996257996347 9.253984950040831 29.573699038994164 9.364809627896648 28.742517125785525 8.275037504292413 27.911335212576887 8.921512325677213 28.871814344785889 10.177520409163662"/>
    </g>
  </g>
</svg>