<?xml version="1.0" encoding="UTF-8"?>
<svg id="Capa_1" data-name="Capa 1" xmlns="http://www.w3.org/2000/svg" viewBox="0 0 34.015748031497424 34.015748031498333">
  <defs>
    <style>
      .cls-1 {
        fill: #d1dbf1;
      }

      .cls-2 {
        fill: #1d3a69;
      }

      .cls-3 {
        fill: #e8edf9;
      }

      .cls-4 {
        fill: #84cff0;
      }

      .cls-5 {
        fill: #0ba347;
      }

      .cls-6 {
        fill: #a18dc2;
      }

      .cls-7 {
        fill: #6d8879;
      }

      .cls-8 {
        fill: #32badb;
      }

      .cls-9 {
        fill: #e43439;
      }

      .cls-10 {
        fill: #46bfef;
      }

      .cls-11 {
        fill: #aedef2;
      }

      .cls-12 {
        fill: #d9a7cd;
      }

      .cls-13 {
        fill: #d58694;
      }

      .cls-14 {
        fill: #f29cb2;
      }

      .cls-15 {
        fill: #879da2;
      }

      .cls-16 {
        fill: #fff;
      }

      .cls-17 {
        fill: #646787;
      }

      .cls-18 {
        fill: #cae3d4;
      }

      .cls-19 {
        fill: #eeeded;
      }

      .cls-20 {
        fill: #6a4695;
      }

      .cls-21 {
        fill: #b5b2b2;
      }

      .cls-22 {
        fill: #a1559c;
      }

      .cls-23 {
        fill: #ee728b;
      }

      .cls-24 {
        fill: #f0869f;
      }

      .cls-25 {
        fill: #e8465e;
      }
    </style>
  </defs>
  <g>
    <path class="cls-16" d="M0,17.007874015749621C0,7.614956225135757,7.614956225135757,0,17.007874015749621,0s17.007874015747802,7.614956225135757,17.007874015747802,17.007874015749621c0,9.392916740707733-7.614956225133938,17.007874015748712-17.007874015747802,17.007874015748712S0,26.400790756457354,0,17.007874015749621"/>
    <path class="cls-21" d="M32.808494520591921,14.549223765689021c-.217979040609862-.239997634565952-.419445185660152-.493205165617837-.780540887359166-.531736655135319-.471186571663566-.05174348581204-.783843886430986.193759847148613-1.044759815198631.533939354456379-.286233322176486.372104998673422-.558158547915809.754118994573219-.876319461271123,1.185673776966723-.160731956215386-.538342653282598-.28403272266587-1.004025626363727-.438158680732158-1.460899901976518-.383116395461911-1.131729691642249-.908247052449951-2.190801802891656-1.574293771014709-3.188219331299479-.548251650505335-.821275076192251-1.170261181159731-1.572093171504093-1.890254084857588-2.237039590312634-.765128291550354-.708981506912096-1.579797369598964-1.351909331766365-2.504557317608487-1.866032791585894-.657240120906863-.364398700772654-1.318883540641764-.708981506910277-2.019058449894146-.969897435674284-.880724859909606-.328069910574413-1.782365914210459-.57357114372644-2.71813305939213-.710083906473301-1.086592203981127-.156326557575085-2.173185457864747-.204767044317123-3.261980361163296-.089170475956053-.588984789435926.061650383224332-1.180169128478155.133207663864596-1.759245970595657.292839320321946-.478892869567062.133209763677769-.963291437527005.239997634565952-1.437781008266029.405132889609376-.920356649181485.319263312918338-1.794473411133367.739808798331069-2.612445488255617,1.261636456247288-.997419628214629.635221526950772-1.92327987598037,1.367324027378345-2.725839357295627,2.244743788407504-1.138335689791347,1.246223860438477-2.060895038292074,2.632263482697454-2.654282076651725,4.210960552543838-.547149250942311,1.449890604995744-.843291570341535,2.611345188499399-.933566545671056,4.509304521354352-.017615295124415.633019877540391.045137487664761,1.314479191907594.075962679278746,1.543467529496411.115594468548807.270822826179938.32696751100957.427151483563648.629717928366517.518526758649386.57357114372644.175044252264343,1.2814523508805-.268621176765009,1.247324160192875-.864209864539589-.057247084398114-.99521797880152.030825191613985-1.976123661548627.188254148753913-2.953727395128226.117797167869867-.721093203450437.351188804284902-1.408056116408261.617608331634983-2.086214531514997.377610697069031-.962189037963981.897235655662371-1.847317196701624,1.50603738963764-2.674095871479949.408435888683016-.554855548845808.898338055229033-1.046960414707428,1.394846219922329-1.529156283351767.569167844894764-.552654949333373,1.226405865993001-.990815729874157,1.885848686219106-1.413561814799323.485498867714341-.311557015014841,1.026042120507555-.546048951186094,1.572091071695468-.760724992724136,1.09099760261779-.429352083072445,2.217221595868978-.674855416029459,3.379777529031344-.780540887358256,1.378332274454806-.123302866260019,2.722535308314036.026421892785038,4.057933844327636.401829890536646.756321693896098.211373042460764,1.477412797537909.504214462594973,2.159974511470864.858704166144889,1.114114396519653.579076842117502,2.102727427078207,1.348608432501351,2.983452286985994,2.260158484023123.788247185262662.81466907804861,1.419065413385397,1.738328726303735,1.938692471787363,2.730242656125483.358893002379773.68476231344539.630818228122735,1.421268112703729.836687672001062,2.172084108202398.006603898340472.024221293275332-.01211169654016.053944085324474-.03192759117519.12660376552958-.318160913355314-.24109793432126-.619808931145599-.471186571668113-.92255724869392-.69797220993496-.686965012764631-.517426458893169-1.439983707581632-.131009164164425-1.610624661019756.527333356305462-.125501365962918.484396468153136.121100166941687.801457081750414.456876375421416,1.061271660855709,1.181270478138686.912649301375495,2.375752952573748,1.80768435752907,3.55922403022123,2.715931409977202.177246951583584.134310063429439.281832123155255.093575874594535.399629291023302-.070458030790178.439261080297001-.608800684072776.875219161518544-1.218701667898131,1.330993137376936-1.81539170533506.484398567958124-.634121227194555.943475542890155-1.288057299123466,1.466403500558954-1.893556034025096.110090869964552-.12770406528216.125503465769725-.299445318472863.178347251337982-.452470976782934-.022018593954272-.171741253193431-.046237787419159-.343482506385044-.069356681129648-.515223759575747"/>
    <path class="cls-21" d="M17.946615539944105,30.409845254029278c-.049540786494617-.43265560709915-.049540786494617-.423848222013476-.548250600602842-.407334539020667-.354490753454229.01100877202407-.70898255681459.005504386012035-1.062373010512601-.012110121686419-.177244851776777-.008807122609142-.243299583737098.051742435909546-.253207531055523.222382864394604-.028623542197238.496507902214944-.061650383226151.993015804429888-.102384572061055,1.48952370664847-.012109596733353.145319360406575.029724891855949.211373698653915.178347251339801.227887250403001.572469794064091.062751470409239,1.146040937790531.020917113059113,1.718511781760753-.003302736597107.13320976367504-.005504517248482.168438254117063-.085870626593533.157428957139928-.216878215902398-.034128190687625-.418343573524908-.057247084396295-.837788234231994-.088072276008461-1.300168208239484"/>
    <path class="cls-21" d="M9.664510196678748,27.433990074894609c-.036329840102553.030825191613985-.091375275083919.059448733813042-.121099117039194.104585696524737-.26751982710266.408435888683016-.634121227194555.732101975478145-.93576924498484,1.113014621718321-.134310063433077.169539603776684-.122200466699724.292840370228078.061650908177398.424949309195654.413940012218518.293941194937361.816871252411147.602194685921859,1.250627684217761.868613425845979.168438254117063.103485134291986.26311547837031.092476099791384.363298401018255-.079264890926424.249904531978245-.428251783316227.509718061181047-.852100267806236.766229641212703-1.275948227343179.042934788345519-.071558855495823.070458030790178-.138714412161789-.013210946392064-.20036479538976-.42494983414872-.310455140403064-.848797268732596-.622011105511774-1.273747102881316-.932466245914839-.020917244295561-.014311771097709-.055045434983185-.013210946392064-.097980223328705-.023118893710489"/>
    <path class="cls-21" d="M7.010670129753635,27.404265707989907c.050641611202082-.030825191613985.113393344086944-.058347909103759.162933605628496-.102384047109808.363298925971321-.325867736206419.723294327914118-.653937121831405,1.087694078592904-.979804858041462.12219994174302-.108990045257087.128805939893937-.20036479538976.018715069927566-.33577620847791-.274125300300511-.333574034113553-.533938304550247-.679258189909888-.787146360555198-1.029345644536079-.108990045257087-.150824008895142-.213575741781824-.169539603775775-.363298925971321-.071559380448889-.399628241117171.264217877935153-.801458131652907.524031407137954-1.203288547138072.786046585752047-.133209238723794.086971451302816-.175043727314915.184951674633339-.081466802814248.336876508234127.296143369301717.474490095690271.672652716712037.886228458498408,1.015033873434732,1.324388189132151.03522901539327.045136962711695.070458030788359.095778573911957.150824008895142.071558855495823"/>
    <path class="cls-21" d="M4.644385739529753,24.040121779629771c.057247084398114-.015412595806993.126603765527761-.023118893706851.18605302429205-.051742435905908.441462729708292-.206969743634545.880723285052227-.418343836000531,1.322186014764156-.625313579635986.14752153477275-.069356681127829.181649200507309-.154127007968782.114494168792589-.31596031384106-.16513577999649-.399628241120809-.315959788889813-.804761130730185-.457976150222748-1.213195969507069-.061650908179217-.173942902605631-.156328657385529-.223483689100249-.326968560917521-.171741253190703-.459077499883279.137613062503078-.91815447481531.2708228261763-1.37833253692952.406233189361956-.151924833602607.045137487664761-.221281777208787.126604815432074-.173942902605631.299446368378995.146420185115858.539442953038815.388619206618387,1.042556065975077.591185651423075,1.561082824620826.019816419588096.052842735662125.039632314224946.112292519381299.12330129140355.11119116971895"/>
    <path class="cls-21" d="M25.593826926411566,26.112354210008561c.028622492292925.041834488591121.044037187908543.079265153399319.071559380448889.103484871819091.399627191214677.35559210311385.784944186185385.727698151695222,1.210993270187828,1.054666712610924.132109463918823.100182397695789.202568544611495.07596215432568.301648017790285-.038532014470547.358895102188399-.415040836924163.67375511627688-.860906865462312.9864124310443-1.308975068372092.092475574841956-.134310588378867.07596057947012-.217979040608043-.062752782787356-.301648017790285-.418342786097128-.251006406590022-.831181973608182-.511920235545404-1.249526859513935-.76512881650342-.123300766452303-.073759979961324-.258713229446585-.104585171571671-.353389403793699.046238837323472-.244400933395809.388618944143673-.543848351677298.735403399692586-.824578075269528,1.096500151295913-.027522192540346.036329840102553-.052843785568257.074861854573101-.080365978106784.113393344086944"/>
    <path class="cls-21" d="M20.256753670479156,31.543336422693756c.537242353526381-.106787608416198,1.038153817047714-.306051579096675,1.546771578472544-.4766917451052.171741253190703-.058347909103759.228988337588817-.166236342225602.160731956213567-.332472946931375-.18495324948708-.451370939503249-.372107098486595-.901641054300853-.56036124723687-1.350810081912641-.068256381375249-.16513577999649-.202566444804688-.155227307724999-.339079207553368-.113393344086944-.422746084925166.127705115184654-.842191270585317.262015703567158-1.264939455320928.386417819678172-.104585171571671.02972436690834-.178345151529356.052843260618829-.146419660160973.189355498412624.126603765527761.531736917611852.248804232223847,1.063473835223704.368804099411136,1.596311577541201.035228490442023.154126745495887.135410363185656.133209501200326.234491936174891.101283222404163"/>
    <path class="cls-21" d="M28.135265283903209,21.51927099646673c-.121100166939868-.009907947314787-.142016361332935.086971976255882-.164034955287207.166236604702135-.119997767378663.443664379126858-.234491936171253.889530407665006-.441461679805798,1.3034709448375-.070459080692672.139814711918007-.007706297903496.221282039684411.114494168794408.273024475593957.465680873270685.203666744557268.935767145179852.400728540873388,1.400349818502946.607699334410427.149722659236431.06495338230161.22458503875896.028623542199057.284032722667689-.122200466696086.206969743632726-.526232006646751.390820593556782-1.061271660855709.543846251866853-1.606220312285586.023118893710489-.082567627523531.033027890933226-.147521009821503-.075960579468301-.177244851776777-.536142053771982-.144219060650357-1.068979008663518-.292841420134209-1.60291836311626-.439261080297001-.018715594880632-.004403298826219-.038531489517482-.004403298826219-.058347384154331-.005504648488568"/>
    <path class="cls-21" d="M24.273183746083305,27.399201494374211c-.020916194389429.011009296977136-.058347384150693.023118893710489-.08807227601028.046237787420978-.35889510218658.26751982710266-.69136831159085.571369494311512-1.083289204903849.795954008117405-.13320976367504.077063503984391-.214678141344848.190456848071335-.095780673722402.37650934741032.267519827104479.418343836001441.510820460742252.850999443100591.758524393211701,1.281452875831746.056146784641896.097980485803419.12770406528216.113393344086944.212475442027426.067155294193071.529533955816078-.289537896107504.98861093074629-.682560926506994,1.470806799388811-1.039253854331037.084771376745266-.061650908177398.084771376745266-.144218535697291.016514995370017-.224584513805894-.351188804284902-.416142186586512-.702377608569805-.831183023510675-1.053566412854707-1.246223860438477-.029724891859587-.03522901539327-.066053682057827-.071558855495823-.137613062506716-.057247084398114"/>
    <path class="cls-21" d="M14.361409526858552,29.918511542908163c-.009907947318425-.165135779992852-.062751732886682-.223483689096611-.173942902605631-.252107231295668-.444765728785569-.113392819133878-.893934756397357-.210272742708185-1.307874243662809-.421646310122014-.15412700797242-.077063503984391-.231189987005564.020917244295561-.282932422913291.150824008895142-.182750550167839.451370677026716-.362198101262038.903842441239249-.547149250942311,1.354112556036853-.056146784641896.138713887208723-.042935838249832.214676304010027.114493118890096.288436808921688.479994219229411.22568560099171.989713330312952.356693190300575,1.493927792907925.504214200122078.10788817064531.03082545408688.225685338515177.081467065290781.290638720814968-.077063241511496.212474392121294-.515223234619043.256510530127343-1.07338178253849.412839187511054-1.546770791046583"/>
    <g>
      <path class="cls-19" d="M8.515881012941463,18.669151427931865c0-4.645522431015706,3.76591064790955-8.41143419740547,8.411434197412746-8.41143419740547,4.645523549497739,0,8.41143531589114,3.765911766389763,8.41143531589114,8.41143419740547,0,4.645522431021163-3.765911766393401,8.411434197412746-8.41143531589114,8.411434197412746-4.645523549503196,0-8.411434197412746-3.765911766391582-8.411434197412746-8.411434197412746"/>
      <path class="cls-13" d="M8.515881012941463,18.710434680540857c0-.123145112762359,3.586469987321834-1.113002530106314,8.247240713726569-1.071953040704102,4.658424146511607.041048370921999,8.575628799577316.948807927941743,8.575628799577316,1.071953040704102,0,4.645522431021163-3.765911766393401,8.411434197412746-8.41143531589114,8.411434197412746-4.645523549503196,0-8.411434197412746-3.765911766391582-8.411434197412746-8.411434197412746"/>
      <path class="cls-4" d="M22.087703890527337,9.734407543977795c.213451528788937.062158642111172.433942797268173.091478587488382.643875574696722.170058814939694.350671646991032.130182615481317.676714271432502.304932353246841.98399320457429.520730461934363.179440660589535.126663864122747.344806315737515.262709573893517.480854262477806.433940560296833-.031666525270339.031666525272158-.072714896194157.018765928264656-.110244515755767.021110271190992-.235736208414892.010556254081166-.354190398353239.137220118202094-.349499475527409.372956326618805,0,.044567122282388.017591519830603.09030641602385-.025801194016822.124319521195503-.064505222011576.002344342927245-.102034841569548-.042222779356962-.144257620924691-.079752398913115-.867883357561368-.769367267355847-1.864777159145888-1.000412552944908-2.98716041642183-.72949106789747-.097343918745537.023456851087758-.191169086130685.070368316295571-.296722679058803.064505222006119-.039876199460195-.019938099729188-.076233647560002-.045741530711894-.114935438583416-.068023973366508-.25450213667682-.152467295109091-.307278933143607-.363572244001261-.157158217931283-.620418723608964.23456403694945-.132529195379902.505483285029186-.148948543750521.755292261914292-.234564036948541.072714896194157-.024629022554109.165367892113863.035185276633456.232217457050865-.041048370922908h.068023973371965c.011728425544788.012900597008411.026975602446328.017591519834241.04456712227875.017591519834241h.082096741843998c.0164193483688.001172171465441.031666525273977-.00469092282583.043394950816946-.017591519834241h.272093656511061c.019938099727369.022282442658252.046911465207813.0164193483688.072714896192338.017591519834241h.159502560860346c.025801194015003-.001172171465441.052776796466787.005865331255336.073887067659598-.017591519834241h.068023973366508c.011726188577086.012900597008411.024629022555018.026973365478625.03752961956161.039876199458377.052776796466787.02931994537721.114935438579778-.007037502720777.167712235042927.025801194016822"/>
      <path class="cls-18" d="M21.81420318086748,9.668846472863152c-.012900597004773.02931994537721-.038704027991116.032838696737599-.065677393475198.032838696737599-.012900597002954-.005863094291271-.016419348365162-.012900597012049-.012900597002954-.02111027119463.002344342925426-.008209674186219.007035265749437-.011728425542969.010554017108007-.011728425542969h.068023973370146Z"/>
      <path class="cls-6" d="M21.746179207497335,9.668846472863152c.001172171465441.011728425542969.001172171465441.022282442656433.001172171465441.032838696737599-.023454614120055,0-.048085873640957-.002346579894947-.072714896194157-.003518751360389-.008209674182581-.007037502720777-.010554017109826-.014072768473852-.007035265751256-.019938099729188.00351875135857-.005863094291271.007035265751256-.009381845648022.010554017113463-.009381845648022h.068023973366508Z"/>
      <path class="cls-17" d="M21.67815747109853,9.668846472863152c-.001172171465441.009381845648022-.001172171465441.01993809972555-.003518751362208.02931994537721-.018763691296044-.001172171465441-.038701791025233-.002344342930883-.058639890752602-.004690922824011-.014075005439736-.002346579896766-.019938099727369-.007037502720777-.016419348366981-.01290059701023.002344342927245-.008209674186219.007035265749437-.011728425542969.010554017109826-.011728425542969h.068023973371965Z"/>
      <path class="cls-5" d="M21.576473833572891,9.697345450820649c-.02931994537721.00469092282583-.057467719290798.009381845648022-.069196144833768-.028147773913588h.069196144833768c.0082096741844.005865331257155.011728425542969.011728425544788.0082096741844.018765928263747-.002346579894947.005863094289452-.005863094289452.009381845649841-.0082096741844.009381845649841"/>
      <path class="cls-17" d="M21.201759249757743,9.697698891835898c-.01993809972555,0-.037529619559791.001172171463622-.05746771928716.001172171463622-.023456851089577-.002344342930883-.026975602448147-.012900597008411-.010556254081166-.030492116839014h.069196144831949c.007037502720777.007037502720777.009384082619363.012900597004773.007037502720777.01993809972555-.002346579893128.005863094287633-.005863094285814.009381845649841-.0082096741844.009381845649841"/>
      <path class="cls-9" d="M21.576473833572891,9.697345450820649v-.028147773913588h.034010868199402c.001174408431325.008209674185309.003518751362208.0164193483688.005865331257155.024629022553199-.014075005439736.001172171465441-.026975602449966.002346579894947-.039876199456558.003518751360389"/>
      <path class="cls-22" d="M21.201759249757743,9.697698891835898c0-.009381845649841,0-.019938099731007.001172171463622-.029319945375391h.034013105172562c-.012902833979751.009381845644384-.023456851089577.01993809972555-.035185276636184.029319945375391"/>
      <path class="cls-8" d="M21.134205039763401,9.668846472863152c.004690922820373.009381845648022.008209674186219.01993809972555.010556254079347.02931994537721-.015247176903358.001172171465441-.030494353808535.002346579898585-.045741530711894.003518751360389-.008209674186219-.0082096741844-.009381845649841-.015247176905177-.007035265754894-.022282442656433.003516514392686-.007037502724415.005863094291271-.010556254081166.008209674186219-.010556254081166h.034010868201221Z"/>
      <path class="cls-15" d="M21.10019417156218,9.668846472863152c0,.010556254081166-.001172171463622.022282442656433-.001172171463622.032838696737599l-.03283869673578-.032838696737599h.034010868199402Z"/>
      <path class="cls-7" d="M16.510378965671407,27.078709368064665c.011728425542969-.028147773915407.022283561138465-.028147773915407.034011986685073,0h-.034011986685073Z"/>
      <path class="cls-1" d="M17.223333244353853,20.951333476652508c-.722454683658725-.001173289945655-1.142322475487163.35888132117725-1.320590964609437,1.143495765434636-.069195026348098.304931234762989-.076232529070694.615727800783134-.060985352165517.926524366804188.036356329614136.762329764630522.08678766466619,1.522314067854495.158329270912873,2.28229837107483.018764809778077.207588434503123.035184158146876.416350158950081.059814299183927.622765862743108.064504103525906.523075923349097-.2146259372239.901895344253717-.702516583933175.949980658651839-.187651453255967.004691482063208-.375301788028082.007036943476123-.51838500051781-.147774694558393-.094998457334441-.005864212774213-.147775253799409-.070368875540225-.204069683142734-.134874097549982-.625110764915007-.724800145073459-.998067091531993-1.573918692853113-1.222074874400278-2.491060095526336-.218142451614767-.903068634195733-.354190398353239-1.821383326814612-.415175750516937-2.747907693616071-.078579108969279-1.203308946136531-.419868910308651-2.319829109124839-1.0379421725047-3.354252530265512-.045740412229861-.078579108965641-.105553592931756-.145429792388313-.15715709944925-.220489031511534-.072714896190519-.235736208413073-.215798108685703-.435114968728158-.342461972808451-.64153123176493-.242773711132031-.394065479326855-.433942797266354-.809242348329462-.510175326337048-1.268987458094671-.154811638032697-.933560751040204.065677393475198-1.775642914588389.667331307298809-2.506306153947662.577026009761539-.700171122522079,1.328800638799294-1.066089946416469,2.227177231688984-1.161087285267058.629802806221051-.066849564935183,1.227939087173581.052776796464968,1.813173652630212.262709573893517.228698705692295.082098978809881.462089452692453.148948543748702.684923945616902.249811213852809.079752398914934.153639466572713-.011727307062756.273265827976502-.091479705975871.387029095089019-.248636805423303.351843818458292-.466780375520102.721281393711251-.625109646429337,1.123557665709086-.145429792388313.365918823896209-.245119172548584.744738244800828-.25567430814408,1.136458262715678-.014073886952247.533631058940955.139564461134796,1.028559208371007.442151352968722,1.470710561336091.146601963848298.213452647270969.306104524708644.419867791824799.519557171981432.57702600975972.072714896195976.052776796466787.143083212493366.112589977165044.191169086134323.191167967645015.0164193483688.058641009240091-.018764809781715.09851720869483-.052776796466787.137220118205732-.039875080972706.042221660867654-.080924570374918.080923451892886-.119627479885821.12314511276054-.40813936628183.4081404847675-.815106561098219.815107679583889-1.222073755916426,1.223247045869357-.151292886677766.152466176619782-.276784579336891.321351701612002-.261537402429894.548878235842494.0164193483688.232217457054503.129009325533843.410484827694745.353017108403947.494928149430052.224007782870103.083270031789652.437460430142892.057467719290798.616901090726969-.107899054341033.220489031511534-.204070801624766.4245598331363-.422214371723385.638011361927056-.632148267635785.072714896192338-.072713777708486.139565579615009-.147774135315558.21814468858247-.213452647271879.036357448096169-.030493235325594.07388706765596-.099689380157542.138392289665717-.035184158147786.014073886957704.06215976060048-.026975602446328.10672688287741-.048085873640957.158330389394905-.193514547545419.482027552421641-.194687837491074.947634637990632.114935438579778,1.388613819493912.069196144831949.098516090214616.141911041027925.191169086132504.274439117922157.207588434501304.028148892393801.003518751360389.051603506517495.022283561142103.050431335050234.057467719290798"/>
      <path class="cls-10" d="M17.525919017707565,12.796980640536276c.138392289665717-.585235683945939.377647249440997-1.122385494243645.750601339088462-1.597374425466114.165367892113863-.207588434499485.341289801346647-.405795023350947.545359484483924-.578198181221524.31783295025707-.209935014394432.623937474967533-.43980589155035.969918199136373-.605173783667851.072714896192338-.035183039664844.153639466572713-.025801194013184.218144688580651-.071540487761013-.008209674182581.043392713847425-.017591519832422.086787664664371-.025801194016822.12900820705363-.045741530715532.232217457049956.002344342929064.335426707053557.212279357325315.452706488558761.037529619559791.021112508162332.08678766466619.032840933706211.085615493202567.090308652995191-.019938099731007.04573929374601-.064505222011576.059812062218953-.105553592928118.077405819017258-.524249213294752.225179954333726-.96053635349017.561778832852724-1.306517077660828,1.016829664342367-.46091616274316.612211286392267-.681405194254694,1.310035829013941-.64153123176402,2.067674670824999.058642127722123,1.102447394516275.575853838294279,1.960948906433259,1.504723666506834,2.561429530311216.440978063021248.28382208205403.930041999681634.428077466011018,1.455463384432733.462089452696091.886649285830572.05746771928807,1.660707476008611-.204069683142734,2.32803990179309-.788132077135742.037529619557972-.034010868201221.075061476090923-.071542724728715.131354786944939-.071542724728715.06215864211299.012902833976113.075061476090923.064505222009757.075061476090923.114937675545661.00469092282583.219315741558603.113763267117974.354189279869388.324870452976029.411658117642219.026973365482263.008209674186219.048085873644595.028146655426099.058639890754421.055121139394032.008209674182581.072714896192338-.04104837092018.113763267112517-.087962073097515.154811638033607-.49140827958945.421041081773183-1.055533692335302.703689873879739-1.684162090126847.858501511917893-.769367267357666.179440660587716-1.527006109166905.141911041026106-2.271744353967733-.123145112762359-.781095692896997-.29320392770569-1.429662190419549-.76702180594657-1.917553955612675-1.448428118685115-.218144688580651-.30493235324866-.375300669544231-.64270340323128-.521902633394348-.987509718965157-.220489031511534-.646222154591669-.288513004881679-1.305344906191749-.17709631766229-1.980887006160629.011728425544788-.072714896192338.025803430986343-.14425538395335.079752398914934-.200550931778707"/>
      <path class="cls-3" d="M20.051579422619398,17.362635468760345c.756466670343798.273265827978321,1.527006109163267.295549389116786,2.306929630596642.131355905432429.052774559497266.140737751080451-.082098978808062.216970280152964-.11493767554748.329560257318008-.266228325250268.492582688018956-.530112307578747.986338665987205-.733009819254221,1.511760050741941-.21579810869116.56060554290525-.302585773351893,1.147013398312993-.365918823898028,1.740458756437874-.131354786948577,1.266640878200633-.242771474166148,2.537972679221639-.668504597248102,3.753010050902958-.231043048621359.65912163311441-.562951004318165,1.260776665423691-1.022694995597703,1.789716801540635-.049258045106399.057467719288979-.102034841571367.105553033688921-.182959411951742.10907178504749-.16067473232215.140737191835797-.343634144273892.194687278250058-.553569158668324.147774694558393-.456225239920968-.086788783148222-.706034216807893-.389375115742951-.672023348606672-.846773086372195.052776796464968-.749429167624839.132529195378083-1.497686163786057.177096317658652-2.247115331412715.035183039666663-.555913501597388.109070107324442-1.116520162984671-.014075005441555-1.672434783066819-.052776796463149-.23925384129052-.146601963851936-.460916162749527-.282647673622705-.666159135836097-.170058814939694-.256846479605883-.396410940735223-.430424045905966-.702517702413388-.491410516553515-.319005121722512-.094997338854228-.592270949693557-.497273610846605-.613381220886367-.871402108927214-.017592638318092-.341288682859158.045739293744191-.65912163311441.206415144552011-.959363063538149-.017592638316273-.075060357606162.043393832331276-.11141668721848.083270031791471-.153638348088862.11141668721757-.116108728526342.228698705690476-.227526534229582.341289801343009-.344807434220456.268574905150672-.265057272274134.5359754018682-.532458887475514.802205964089808-.80220596408617.11845418993471-.11962747988855.243945882599292-.233390747005615.382338172266827-.331906837214774.266228325252087-.154811638036335.534803230402758-.104381421468133.80337813555343-.011728425546607.069196144831949.023455732607545.137220118203913.056295547827176.207588434501304.07857799048179.154811638036335.04925916359025.301413601884633.029321063861062.430421808936444-.076232529067056.057469956258501-.046912583695303.109072344292144-.09968938016209.18530599184669-.116108728530889"/>
      <path class="cls-4" d="M24.807698691922269,15.718582222811165c-.194687837496531.229870877155918-.34598072416884.494929267915722-.574679429864773.696652371159871-.046913702173697.04104837092018-.090306416026579.083270031791471-.134873538308966.125491692660944-.175921909227327-.068023973371965-.358881321169974-.125491692660944-.410485946173139-.343636381241595-.01759151983606-.078577990480881.029319945375391-.16888440650655-.038704027992935-.238080551338498-.010554017115282-.016419348370619-.012900597012049-.031666525277615-.005863094289452-.049258045106399.213451528787118-.233389628519944.419867791824799-.472644588295225.56881633557532-.757638841812877.132526958410381-.252155556781872.227526534225035-.517211710568517.290857347803467-.793996289905408.077405819016349-.303760181783218.070368316299209-.615727800779496.106725764395378-.923006733924922.041048370921999-.063330813580251.075061476092742-.017591519834241.109072344290325.0082096741844.23808278830802.181787240484482.349499475527409.174749737763705.552396987202883-.030492116842652.030492116842652-.030494353806716.056295547827176-.07740581901453.110244515757586-.036357448097988.022282442656433.669676768711724-.09499733885059,1.313552343408446-.372956326618805,1.923417049903946-.064505222007938.139564461131158-.138392289665717.276784579330524-.200550931776888.418695620361177"/>
      <path class="cls-11" d="M25.381205950317963,13.376937078952324c-.019938099727369.009381845649841-.04573929374601.011728425542969-.058639890752602.026975602448147-.228700942663636.300239193455127-.448015565738388.301413601888271-.687270525513668.005863094289452-.064505222006119-.024629022555018-.069196144835587-.083268913305801-.075061476089104-.139564461131158-.076231410586843-.652085248882941-.337771049982621-1.224420335813193-.757638841809239-1.727557040947431-.041048370921999-.0480858736355-.104379184500431-.092652995921526-.084441084771242-.173577566296444-.138392289665717-.330733547266391.174749737765524-.628628397793364.478507682577401-.510174207851378.36357224400308.297894850524244.588754435304509.695477962723999.806896886915638,1.102445157543116.238082788315296.44449905134752.306104524712282.928869828212555.377647249442816,1.415589421945697"/>
      <path class="cls-12" d="M22.087703890527337,9.734407543977795c-.056295547823538-.005863094289452-.118454189936529.02462902255138-.167712235042927-.025801194016822.057467719290798-.002346579896766.118454189941986-.026975602449966.167712235042927.025801194016822"/>
      <path class="cls-3" d="M17.525919017707565,12.796980640536276c-.151292886677766.74591041626627-.08678766466619,1.477748064056868.143083212491547,2.199029457769939-.00469092282583.048085873640957-.030492116840833.085615493204386-.060986470649368.119626361403789-.170058814937875.181787240480844-.164193483684357.388203503520344-.078577990483609.60048286084384.085615493202567.208760605964926.133701366843525.419867791827528.110244515755767.645047746162163-.008209674186219.079752398914934-.035185276634365.154811638034516-.064505222009757.227526534228673-.024629022553199.072714896190519-.077405819018168.124318402709832-.129010444019514.175921909225508-.255672071172739.25567430814317-.510174207853197.511348616284522-.767020687460899.765848515993639-.046912583689846.046913702180973-.085615493200748.110245634240528-.166540063575667.102035960053399-.392893307864142-.327215914383487-.751774629039573-.682578484200349-.954671022231196-1.164606036625628-.170058814939694-.408140484763862-.261538520913746-.823317353764651-.213452647272788-1.279542593689257.085615493198929-.803378135555249.42807746600738-1.487129909706709.885475995883098-2.127486733043042.071541606243045-.099690498642303.11141668721757-.207588434497666.110244515752129-.330733547263662.307277814659756.06684956494064.613382339372038.1407366325966.932388579572944.073887067656869.080924570378556-.017593756799215.168884406508369-.005865331254427.253327728247314-.00703750271623"/>
      <path class="cls-14" d="M16.512255782194188,17.632499986217226c.351844936942143-.331906837207498.697825661109164-.670850058657379,1.021521705652049-1.030904669780284.254502136678639-.220490149993566.674369928503438-.192342376079978.898377711373541.059813180698256.23456403694945.265056153792102.214625937218443.710726258119394-.018765928267385.866711186103203-.379991592368242.372955208131316-.761157593167809.74591041626627-1.142321356999673,1.118865624397586-.256846479609521.131355905428791-.509002036387756.12314623124621-.727145606484555-.063331932062283-.211107185863511-.181786122000631-.308451104609048-.416349040464411-.2064162630395-.698997832570967.031666525273977-.055122257877883.071541606244864-.104380302982463.104380302980644-.157157099447431.023456851089577-.031666525272158.046912583697122-.063331932062283.07036943478488-.094998457338079"/>
      <path class="cls-23" d="M16.37644271714089,17.864365120745788c-.075060357607072.418695620361177.087960954613663.727145606484555.428077466009199.805724715452016.157157099447431.03635744809435.311968737481948-.001173289951112.465608204054661-.023456851093215-.150120715210505.158330389400362-.302586891835745.315487488845974-.453879778511691.472644588295225-.309623276067214.306105643194314-.616901090730607.61338345785407-.930043118160029.914797059738703-.306104524710463.294376099167494-.779922402947705.232217457054503-.983992086090439-.130182615483136-.123146231248029-.220490149991747-.112589977168682-.446843394274765.035184158146876-.653258538828595.073887067657779-.104380302980644.170058814941513-.194687837491074.261538520915565-.287339714928748.378819420902801-.378819420905529.759984303220335-.755293380396324,1.139977014074248-1.134112801300944.034010868201221-.009382964133692.046912583693484,0,.03752961956161.035184158148695"/>
      <path class="cls-24" d="M16.37644271714089,17.864365120745788c-.011728425546607-.011728425544788-.024629022555018-.023456851087758-.03752961956161-.035184158148695.023455732605726-.045740412229861.058639890752602-.078579108969279.103207013034989-.102034841569548-.00469092282583.053948967926772-.023455732605726.100861551622074-.065677393473379.137218999718243"/>
      <path class="cls-1" d="M18.853313721836457,11.6730717707851c.060986470647549.063333050543406.138392289665717.036357448097988.208760605964926.035185276632546.640356823338152-.015247176903358,1.277197132276342.007035265749437,1.902306778707498.171230986403316.010556254082985.070368316295571-.048083636671436.098516090210978-.089134244562956.132526958406743-.250981148346909.212279357327134-.3213494646443.477335511119236-.236908379876695.790477538548657.0164193483688.064505222011576.048085873642776.127838272555891.026975602448147.19820658885692-.064505222007938.046913702175516-.117282018474725-.003518751364027-.173577566298263-.023456851093215-.211107185859873-.075059239119582-.431596217373226-.012900597004773-.543012904588977.153639466574532-.134873538305328.202897511677293-.124319521197322.411658117642219.04573929374601.587580026865908.306104524710463.316660778793448.620420960573028.625111883402496.933562988004269.93590733093879.152465058139569.151292886675037.333077890190907.172403157866938.531284479046008.107900172824884.055123376361735-.017593756801944.109072344290325-.070370553266912.171230986401497-.012902833976113.035185276636184.059814299183927.044567122282388.126663864120928.056295547825357.193515666029271.102034841571367.58875443530269.5277657276838.958189773587947,1.128248588533097.968746027672751.236908379876695.002344342925426.473816759755209.017591519828784.710725139633723-.0164193483688.04573929374601-.007037502724415.090308652992462-.007037502724415.125491692657306.031666525273067-.001172171463622.010554017108916-.002344342927245.021110271186444-.002344342927245.031664288303546-.446843394276584.429251874441434-.973436950494943.715418299421799-1.579782905631873.836219069258732-1.226766915709959.243944764109983-2.481679368363984-.181787240484482-3.279194409629781-1.274850552381395-.439805891553988-.601655032311101-.64270116625994-1.281888055103991-.607518126595096-2.020763205617186.03283869673578-.672023348608491.235736208413073-1.294788652110583.670851177143049-1.826073131152953"/>
      <path class="cls-25" d="M18.413859034326379,17.528588328126716c.097343918747356-.170058814939694.172403157868757-.343635262757743.131354786948577-.546531655949366-.07505923912322-.381166000799567-.498445782308409-.599309570898185-.856154932020218-.442152471450754-.050430216568202.022283561140284-.093825167386967.064505222007938-.154811638038154.062159760598661.113763267117974-.290858466290956.079752398914934-.574679429862954-.038701791025233-.856154932020218-.143085449455612-.342461972807541-.107900172824884-.490238345091711.173575329334199-.749429167624839.146601963850117.317832950253433.289685176341663.636838071972306.494929267913903.924178905388544.48319860540505.67202223012282,1.109482660267531,1.155223072495573,1.887059601807778,1.441389497477758-.249808976888744.292031756239339-.408139366283649.333080127161338-.75412009045067.186478163313041-.293203927703871-.121972941302374-.58523568394412-.165366773637288-.883130534470183-.019938099732826"/>
      <path class="cls-3" d="M23.651418651836138,15.92640553900037c-.263883982326661.048085873639138-.528940136116944.035185276631637-.793996289907227.032838696733961-.370609746722039-.005863094288543-.695480199696249-.124317284225071-.953498850767573-.402276271995106-.216970280147507-.233389628514487-.261537402426256-.527765727681981-.295550507595181-.826834986641188-.0082096741844-.087959836129812.062160879077055-.12783603558637.111418924185273-.177094080692768.337771049982621-.34128980134119.672023348606672-.684923945616902,1.018004072771873-1.016831901311889.181785003520417-.173577566298263.341287564378945-.35419039835142.404620614925079-.602827203774723.117282018474725.035185276636184.199378760316904.125491692661853.281475502159083.204069683140915.387029095089019.367090995359831.765848515993639.743566073339025,1.049670598047669,1.202135656191786.014072768472033.022284679621407.039876199456558.037531856526584.059814299185746.056295547824448-.139566698098861.599308452414334-.409313774713155,1.123557665707267-.881958363004742,1.530524860524565"/>
      <path class="cls-20" d="M23.142651497129918,12.933026350305227c0,.185305991844871-.075059239115944.333080127160429-.207588434497666.464434914105368-.445668985839802.44097806301761-.88547487739379.887821457294194-1.32645517738456,1.332318271674012-.309623276069033.184131583413546-.507827627952793.160676969291671-.758811013271043-.089134244562956-.268574905152491-.267400496719347-.53597763883954-.535975401866381-.804552543986574-.804550307018872-.263881745357139-.263883982326661-.303757944817335-.510176444819081-.121970704332853-.750603576059802.164193483687995-.215798108683884.424558714652449-.241599302698887.731835410826534-.075059239119582.175921909230965.07036831629739.273265827974683.231045285589971.402276271992378.353018226891436.236908379878514.225179954330088.189996914670701.232217457054503.426905294545577-.003518751364027.245118054062914-.243945882595654.486717356767258-.490238345091711.733009819257859-.731837647792418.076233647556364-.075059239119582.15363722960501-.152465058139569.275610170903747-.138392289667536.403450680427341-.014072768472033.538324218729031.07857799048179.649740905946601.443324642914376"/>
      <path class="cls-3" d="M22.493498913883741,12.489585385033934c-.11962636140197.053948967926772-.218144688580651.133701366841706-.309623276072671.227526534228673-.273265827972864.277956750796875-.550050407307936.550050407309755-.823316235282618.826834986641188-.060986470649368.062158642114809-.102034841569548.089134244564775-.174749737761886.010554017115282-.172403157868757-.1864759263417-.353018226891436-.36357224400308-.530112307582385-.544185076056237-.058642127720304-.186478163304855-.120800769835114-.369437575254778-.089134244561137-.572335086932071.039876199456558-.255672071172739.215798108683884-.40813936628183.397583112200664-.558260081490516.535977638835902.137220118198456,1.055535929303005.316660778787991,1.529352689060033.609864706493681"/>
    </g>
  </g>
  <g>
    <path class="cls-2" d="M2.458900420393547,10.76279037180575l.440791840832389-.798800823751662c.353171023692994-.639685720234411,1.013283682890687-.839654701685504,1.60136450468417-.514973882338381.588080821795302.324680819343484.769773068381255.989093886746559.41660204469008,1.628779606977332l-.440791840832389.7988008237553-2.01796654937425-1.113805724642589ZM4.778970646046218,11.016514455797733c.315004900887288-.570879188981053.153739593266437-1.137457969758543-.359084084971983-1.420209809122753-.5128236782366-.283826941413281-1.078327356965019-.118261225587048-1.393332257852308.452617963394005l-.353708574715711.639685720230773,1.752416342822471.967591845732386.35370857471753-.639685720234411Z"/>
    <path class="cls-2" d="M6.174453107998488,8.142766673977349l-.838579599632794,1.040698785188397.321455513192632.635385312027211-.113423266360769.140838368657569-1.130469806428664-2.271690633366234.105360000979999-.131162450197735,2.460908594308421.621408985367452-.113960817385305.140838368657569-.69129061867352-.176316736334229ZM6.025013922937433,8.102987898098945l-1.41590940091919-.363384493175545.657424904069558,1.304098787633848.758484496849633-.940714294458303Z"/>
    <path class="cls-2" d="M5.713771879227352,6.205432778413524l.688065312519029-.598831842300569c.550989801040487-.479495514660812,1.239055113559516-.441866942885099,1.679846954393724.065581225098867.441329391858744.506373065931257.383811432138828,1.194438378453924-.167178368901659,1.673933893114736l-.688065312520848.598831842300569-1.512668585490246-1.739515118213603ZM7.804845368054885,7.239680951297487c.491859188246963-.427890616225341.535400821305302-1.014896335967933.150514287113765-1.456763278852122-.384348983165182-.44186694288237-.972429804958665-.480570616710793-1.464288993205628-.05268000048909l-.551527352066842.479495514660812,1.313774706093682,1.509443279341212.551527352065023-.479495514660812Z"/>
    <path class="cls-2" d="M8.452594353670065,5.40448175056008c-.33758204395599-.578404903335468-.148364083013803-1.267545317907206.446167351085023-1.614803280321212.591306127947973-.345107758308586,1.284746950721456-.175241634278791,1.623404096726517.405313473158458.338657146006881.579480005388177.146213878910203,1.267545317907206-.445092249035952,1.613728178268502-.594531434098826.346182860361296-1.287434705845953.172016328127938-1.624479198775589-.404238371105748ZM10.374876820520512,4.282075209510367c-.294577961922187-.503147759776766-.892334702173684-.653662046890531-1.398707768104941-.359084084968345-.508523270034857.297803268073039-.673013883810199.893409804222756-.378435921886194,1.39655756400316.293502859871296.503147759780404.892334702173684.652586944845098,1.400857972208541.35585877882113.506373065931257-.295653063975806.66978857765389-.890184498075541.376285717782594-1.393332257855945Z"/>
    <path class="cls-2" d="M11.528998872068769,2.558686622061941l.509598372083929-.15911510352089.555290209244049,1.78681960844915,1.104129806182755-.342957554210443.129012246097773.414989391613744-1.613728178268502.502072657728604-.684302455340003-2.201809000060166Z"/>
    <path class="cls-2" d="M13.667914402158203,3.089787035161862c-.094608980471094-.678389394062833.36284694214919-1.253568991248358,1.083702867217653-1.354628584023885.717093067891255-.099984490723728,1.319150216346316.324680819347122,1.413759196817409,1.006295519560808.095684082521984.681614700213686-.367147350350933,1.25464409329652-1.084240418242189,1.354628584023885-.720855925070282.101059592776437-1.31861266532178-.327906125497975-1.413221645792873-1.006295519560808ZM15.631050746938854,2.815636012204777c-.060743265870769-.433266126477974-.409076330332027-.686990210469958-.816540007590447-.630009801774577-.407463677256601.056980408691743-.67301388380838.396712656751333-.612270617937611.82997878322567.060205714846234.433266126477974.40853877930931.686990210469958.816002456565911.630009801775486.40746367725842-.056980408692652.67301388380838-.396712656748605.612808168962147-.829978783226579Z"/>
    <path class="cls-2" d="M16.546500143205776,2.740378868649714c.029565306398581-.694515924824373.58485551564263-1.168635929232551,1.300873481482995-1.137457969758543.398862860851295.017201632810611.725156333272025.175241634278791.931038376003926.448317555186804l-.355321227792956.30102857422753c-.147288980962912-.183842450689554-.338119594980526-.284902043465991-.568191433854736-.294577961922187-.431115922376193-.018276734863321-.749346129416153.270925716802594-.767622864279474.70526694532964-.018814285889675.434341228530684.27361347193073.749346129417972.704729394306923.767622864281293.230071838872391.009675918459834.428965718272593-.073106939453282.591306127946154-.24727347168664l.328443676522511.330056329599756c-.228459185796964.256949390142836-.567116331802026.388111840344209-.969204498805993.37091020752996-.712792659689512-.031177959474007-1.225616337926112-.550452250015951-1.19605103152935-1.243893072787614Z"/>
    <path class="cls-2" d="M20.50986385352553,3.860635205594008l-1.046074295440121-.223621226567047-.302103676278421.440791840832389-.535400821305302-.115035919436195,1.487941238323401-2.038393488339352.5149738823402.110735511233543.525724902845468,2.469509410714636-.548302045912351-.117186123541615-.096759184572875-.526800004896359ZM20.431381403815976,3.430594385270524l-.173091430180648-.939639192409231-.541851433610645.785899599140976.714942863791293.153739593268256Z"/>
    <path class="cls-2" d="M22.105315296928893,2.435049886218621l.497772249525951.191368165043968-.67193878175749,1.745965730518947,1.0783273569632.414989391611016-.155889797366399.405313473158458-1.576099606489151-.606357556658622.827828579123889-2.151279203673766Z"/>
    <path class="cls-2" d="M24.121669193227717,3.281155200205831l.474120004408178.242973063483078-1.054675111847246,2.049144508848258-.474120004408178-.242973063483078,1.054675111847246-2.049144508848258Z"/>
    <path class="cls-2" d="M25.763887575842091,6.468832780865341l-.241897961432187.360159187021054-1.673933893114736-1.122406541049713.192443267094859-.287052247564134,1.899705323785383-.562278372573928-1.027797560576801-.689140414571739.241897961434006-.361234289073764,1.610502872115831,1.081552663115872-.192443267096678.2859771455187-1.896480017630893.564428576675709,1.088003275421215.729994292501942Z"/>
    <path class="cls-2" d="M27.159907588820715,7.671871975722752l-.778373884786561-.734294700705505-.4875587800434.219320818367123-.397787758800405-.376285717786232,2.329208593082512-.970817151879601.382736330089756.362309391122835-.831591436302915,2.383501246647938-.407463677256601-.383811432140647.190830614017614-.499922453625913ZM27.315259835164397,7.26225809436437l.340269799080488-.892334702173684-.871370212182228.390262044442352.53110041310174.502072657731333Z"/>
    <path class="cls-2" d="M29.31011169044541,7.306337278446335l.619796332292026.842880007838176c.446704902113197.607432658708603.387036738293318,1.293347767125852-.175241634282429,1.707262056687796-.562278372573928.412839187512873-1.235292256382309.26555020654996-1.681459607469151-.341882452157733l-.620333883318381-.842880007836357,1.857238792777935-1.365379604531881ZM28.410788824940028,9.233995255552145c.270388165779877.367684901379107.668713475606637.448317555186804,1.024034703399593.187067756840406s.397787758800405-.665488169452146.127399593020527-1.033173070831253l-.289202451667734-.393487350595933-1.151434296420121.846105313989938.289202451667734.393487350596843Z"/>
    <path class="cls-2" d="M2.042298375703467,17.526257373465342c-.669788577655709-.052680000491819-1.125631847200566-.599906944353279-1.071876744659676-1.282596746619674.025264898195019-.325755921396194.153739593266437-.609582862809475.38219877906522-.792350211449957l.100522041750082.113960817387124c-.210182450933644.180617144535063-.306404084481983.413914289561944-.32736857447162.683764904315467-.046229388184656.587005719742592.35155837061393,1.064351030305261.929963273951216,1.110580418488098.577329801286396.045154286133766,1.044999193389231-.364459595224616,1.091228581573887-.95254041701628.020964489991457-.268775512704451-.041928979981094-.514973882342019-.219858369391659-.72676898635109l.115573470464369-.096759184572875c.198356328373848.217170614265342.28275183936239.517124086440163.257486941167372.842880007836357-.05375510254089.682689802266395-.588080821793483,1.152509398471011-1.257869399449191,1.09982939798283Z"/>
    <path class="cls-2" d="M2.479864910383185,14.934186328955548l-1.284746950719637-.328981227547047.041391428956558-.162340409671742,1.278296338414293.326831023445266c.559053066423076.14298857275935.889109396022832-.059130612793524,1.007908172636235-.524649800793668.118798776617041-.465519188005601-.074719592530528-.796650619654429-.633772658951784-.939639192413779l-1.278296338416112-.325755921392556.041928979981094-.163415511724452,1.284746950719637.327906125497975c.63861061818352.163415511720814.875670620387609.588080821795302.734294700705505,1.142833480011177-.141913470706641.554752658219513-.553140005142268.810626946313278-1.191750623325788.647211434588826Z"/>
    <path class="cls-2" d="M2.010582865204924,11.875520994395629l.06181836792166-.155889797366399,2.144828591370242.842880007836357-.06181836792166.156964899419108-2.144828591370242-.843955109889066Z"/>
    <path class="cls-2" d="M29.950334961704357,10.174709550011357c.618721230241135-.292427757821315,1.305173889684738-.026877551267717,1.616415933394819.630009801777305.309629390632836.654737148943241.084395510988543,1.355703686072957-.538088576431619,1.650281647995143-.621946536393807.294577961922187-1.306786542761984.024727347168664-1.616415933394819-.630009801774577-.311242043710081-.656887353045022-.08117020483769-1.356778788125666.538088576431619-1.650281647997872ZM30.798590479793347,11.96690466871587c.395637554698624-.187067756839497.533250617203521-.595606536149717.358008982921092-.967591845732386-.17631673633332-.37091020752996-.579480005388177-.522499596692796-.975117560086801-.33543183985239-.39617510572316.188142858893116-.534325719252593.595606536149717-.358008982919273.966516743679676.175241634282429.371985309583579.578942454361822.524649800798215.975117560084982.3365069419051Z"/>
  </g>
</svg>