<?xml version="1.0" encoding="UTF-8"?>
<svg id="Capa_1" data-name="Capa 1" xmlns="http://www.w3.org/2000/svg" viewBox="0 0 34.015748031499243 34.015748031499243">
  <defs>
    <style>
      .cls-1 {
        fill: #d0dbf1;
      }

      .cls-2 {
        fill: #1d3a69;
      }

      .cls-3 {
        fill: #b21d1a;
      }

      .cls-4 {
        fill: #dfe6f6;
      }

      .cls-5 {
        fill: #e9465f;
      }

      .cls-6 {
        fill: #e72c5c;
      }

      .cls-7 {
        fill: #fff;
      }

      .cls-8 {
        fill: #eeeded;
      }

      .cls-9 {
        fill: #b5b2b2;
      }

      .cls-10 {
        fill: #ecf1fa;
      }

      .cls-11 {
        fill: #ee718a;
      }

      .cls-12 {
        fill: #f29cb3;
      }

      .cls-13 {
        fill: #e7effa;
      }
    </style>
  </defs>
  <path class="cls-7" d="M0,17.007874015749621C0,7.614956225135757,7.614956225137576,0,17.00787401575144,0s17.007874015747802,7.614956225135757,17.007874015747802,17.007874015749621c0,9.392916740709552-7.614956225133938,17.007874015749621-17.007874015747802,17.007874015749621S0,26.400790756459173,0,17.007874015749621"/>
  <g>
    <path class="cls-8" d="M9.982476491501075,17.259517325646812c0-3.933835553702011,3.18892326876994-7.122760237960392,7.12275882247377-7.122760237960392,3.933835553700192,0,7.12276023796403,3.188924684258382,7.12276023796403,7.122760237960392,0,3.933835553705649-3.188924684263839,7.122758822470132-7.12276023796403,7.122758822470132-3.93383555370383,0-7.12275882247377-3.188923268764484-7.12275882247377-7.122758822470132"/>
    <path class="cls-3" d="M9.982476491501075,17.294434801484385c0-.104826033336394,3.037714235266321-.942686917700485,6.983052116220279-.907809075775731,3.945524726534131.034880672914369,7.262466944217522.802983042439337,7.262466944217522.907809075775731,0,3.933835553700192-3.188924684263839,7.122758822464675-7.12276023796403,7.122758822464675-3.93383555370383,0-7.12275882247377-3.188923268764484-7.12275882247377-7.122758822464675"/>
    <path class="cls-1" d="M11.582801821510657,13.604647887450483c-.019481482888295-.170875946475462-.051392443450823-.34156504737075-.055660166395683-.512809023022783-.009275750735469-.371437692498148.049165866934345-.735265674033144.18775857717992-1.080910183271044.388691183374249-.970705261974217,1.109481986810351-1.555316777263215,2.116548531388617-1.802258692456235.093323706083538-.022820639915153.19610859299064-.008164585724444.279597427090266-.069574500254021h.056401886740787c.065492207386342.023191500085886.131171260356496.023191500085886.196850313330287,0h.393697795665503c.056401886738968.030614365471592.117440941094173.00704917422263.175699959676422.014472039605607.333213616067951.000370860168914.650287737265899.084046539854171.954376090530786.208352640582234.367352568642673.149909607411246.742498862839057.256960801767491,1.138979525278046.284976315049789.119484918521266.061409914527758.125605526820436.072173352435129.042487552887906.182565119310311-.219854967832362.292212334852593-.421342448782525.595742982366573-.592960115600363.918937711863691-.355108521051079.668658055135893-.586465816135387,1.377391656564214-.667358629047158,2.130093420562844-.167535373953797,1.558283658619985.343790208389692,2.909698117340668,1.276645085099517,4.129570455530484.041004112206792.053619019969119.087200266791115.09462313217864.155475340950943.112062053138288.033581246823815.008535445891539.093323706087176.004824013201869.070689911754016.073099087359878-.04861099217851.033768092405808-.104455173166571.028015513284117-.159002759055511.030056659717957-.293695775531887-.01873834705475-.519116476905765.114474059734675-.69017926896413.336370173999967-.244716754177716.316887275614135-.366610848304845.680347227969833-.372731456600377,1.083322189870159-.010763437907372.717079370740976.05176188812402,1.429893849535802.106309474014779,2.14382090883737.028757233623764.373105147764363.079964246991949.744540009267439.090724853902429,1.118944583124176.009648026401919.342490782299137-.150651327750893.581456372849061-.46178885523841.718007936668073-.279784272672259.12282266004695-.592776101007985.05584559648014-.8246911018432-.180337127299936-.237851594542008-.242119317492325-.427095027904215-.522086189253969-.592589255425992-.816711946206851-.352509668871789-.627097652675729-.565686322654074-1.302991727616245-.701310736047162-2.007270760514075-.163269066502835-.847323480678824-.251952773975063-1.704109557678748-.336370173999967-2.561453340425942-.067904213987276-.688508982699204-.256032235844032-1.341211557557472-.569210909759931-1.958291739159904-.143973013704453-.283863734541228-.278484846585343-.572922342455058-.445462514788233-.844542029404693-.139519860671498-.264938541909942-.297221778138919-.519674182656672-.450657388155378-.776634984424163-.13822185007848-.231360126075742-.226534697378156-.481642613793156-.309652671310687-.735265674029506-.015213759941616-.046196154586141-.009833456490014-.092208294583543-.012616323258044-.138591294751677"/>
    <path class="cls-13" d="M17.318077910502325,18.17765952829177c-.230431560154102-.006678314050077-.307612940376202-.202600061455087-.4139224143928-.35028450784921-.456964842034722-.634335087977888-.810219062239412-1.321357799004545-1.002058516787656-2.082968700062338-.14916788706978-.591660689504351-.196105761995568-1.1907442443935-.136179288147105-1.801330126532775.072912241779704-.743611443349437.290542048587668-1.441397592283465.620788783300668-2.106157369150424.187202286926549-.377000595045502.414664134730629-.730812521001099.678306081539631-1.058831263696447.059926473846645-.074398513452252.00204114643202-.075884785124799-.029685799541767-.103713452826923.058072172994798-.056215041158794.132099826276317-.040817266624799.200374900436145-.039517840536064.284792300464687.005565733539697.563090301464399-.038589274614424.827473968614868-.137849574408392.460860289318589-.172546232737659.919124557445684-.347501641084818,1.420060393049425-.357891387822747h.646765981146018c.204454362306933.058256187585357.418743596597778.072170521438238.621159643471401.140261581009327.375333139774739.125976386987531.717266216326607.306684374454562,1.025807722620812.559562883358012.298706634315749.244716754177716.517633036226471.546579946425481.703165036893552.878310121813229.014101179433055.025416661103918.027644653113384.048981852348334.05955561367773.053432174386217.007236019804623.00668114504515.016326340451997.015584620114169.014101179434874.022449779746239-.062525326031391.182191428142687-.135253553220537.361415974930424-.157145627214049.555112561321948-.247686466527739-.00593659371043-.489249493764873-.057701312829522-.732295961679483-.098518579453412-.022820639913334-.003895447282957-.041188126797351-.020963508072782-.051207013368185-.043784147989754.102784886907102-.23210184641357.031542931388685-.469024875035757.013917164844315-.703167867882257-.007422865382978-.097216322373242-.009648026401919-.195921747411376-.029501784954846-.292025489271509-.027270961953036-.132657532032681-.096661447614679-.192768020468066-.206311494150214-.183677699820691-.108163774864806.009090320652831-.159741648403724.078480806314474-.156217061292409.222266974434206.006307453879344.251952773975972.051020167786191.500751821015911.066975648067455.752146889239157.004453153031136.072170521439148.058629878749343.126347247159174.074772204614419.194809166902814-.014288025015048.061596760107932-.064937332632326.08200539342397-.116144345996872.083488834097807-.192768020469885.005565733541516-.378300021140603.058256187588995-.568098329253189.08126367308796-.064008766712504-.005936593714068-.094065426426823-.055473320819146-.127275813083543-.100743740476901-.141190146927329-.192768020469885-.278111155419538-.388689767878532-.417631016089217-.582757214438971-.089799118975861-.124860975482079-.20093260619069-.155846201121676-.297410039216629-.085529980531646-.091650588830817.066604787898541-.101114600645815.177183400355716-.017996626709646.299448354651759.10018886571379.147126740645035.206869199897483.289803159246731.31225010799244.433218467198458.039704686116238.053989880136214.098705425039952.105751768265691.070689911754016.187386301517108-.281825419106099.138036419990385-.556041127243589.288503733150719-.800571035839312.487579207501767-.685355255760442.557895428093616-1.107255410290236,1.267554764450324-1.250299858073049,2.143820908835551-.113916353986497.697602134347107-.018183472295277,1.366999078830304.292396349437695,1.99428499259011.457709393373079.924877136561918,1.190931089979131,1.535463018704831,2.189094159488377,1.818585032906412.061967620280484.017625766546189.130800400189401.02170522841152.176067988853902.077923100563567.05250643945692.130984414774503.004453153031136.261227109212996-.012985767927603.38831890770598-.08293395934561.603533876927031-.171801681406578,1.20632744901377-.327834728110247,1.796876973505277-.202416046871804.766432083262771-.529879914811318,1.470525686076144-1.031186610582154,2.089460168526784-.182007413555766.224678981034231-.395741773092595.382195468415375-.704093602813373.370322280998153-.378300021138784-.014657469688245-.696118693669632-.323939280831837-.706879300580113-.701867026298714-.008532614896467-.300747780745951.045641279830306-.597227838547042.066049913144525-.896119902945429.032468666313434-.471436881640329.075511093958994-.942132042937374.104826033331847-1.413939784748436.020966339066945-.337297324427709.02337834566606-.673851513012778.024674940765181-1.011150252938023.001299426092373-.351767948528504-.098886608631801-.673108377175595-.282751154030848-.972001857071518-.125047821069529-.203528627380365-.292767209612066-.351026228192495-.517075330473745-.434144202123207-.043229273229372-.015955480283083-.091098545066416-.026902932777375-.116515206171243-.07235736702205"/>
    <path class="cls-7" d="M19.483162412738238,10.139095488446401c-.166977668204709.032097806148158-.334883902329238.060855039771923-.500751821015001.097403167954326-.260114528708073.057330452660608-.509471281497099.147500431806293-.756042336523024.247870481118298-.381637762664468.155291326364022-.780717277280928.209838912252962-1.190928258984059.189985153696398-.384794320594665.000557705752726-.743056568589964-.109834061126094-1.095753083043746-.252323634145796-.32505186133676-.131355274948874-.662350601258368-.220038982421102-1.012448263527403-.255477361085468-.009461180823564-.00593659371134-.01261773875558-.012060033005582-.009648026403738-.018180641301115.002969712353661-.006123439292423.006123439292423-.009277166236643.009277166231186-.009277166236643h4.556294623265785Z"/>
    <path class="cls-4" d="M14.364261587927103,10.139095488446401c-.065679052970154.043970993569019-.131171260361953.044712713907757-.196850313332106,0h.196850313332106Z"/>
    <path class="cls-10" d="M14.926774366682366,10.139095488446401c0,.00909032065465,0,.018367486885836.000557705750907.027457807537758-.056772746907882-.007606879974446-.119484918521266.022820639912425-.169392505795258-.027457807537758h.168834800044351Z"/>
    <path class="cls-1" d="M20.892779270163373,18.276141304830162c-.027086947362477.250469333301226-.054360740305128.500935835602832-.081447687669424.751405168903148-.504834113879042-.095919727271394-.960315515236289-.3074260947933-1.364032197472625-.619121328032634-.445462514784595-.343977053971685-.802425336691158-.767544663773151-1.039351196306598-1.282581678809947-.168647954462358-.366239988132293-.266979688336505-.749734882636403-.307980969551863-1.154380130799836-.061783605691744-.611698462647837.053616188974047-1.188703097965117.29889064890267-1.740104226593758.233398441512691-.524871887022528.591660689507989-.959570963903388,1.052523809816194-1.304847443967446.235252742362718-.176254834435895.476074049262024-.345831354819893.765503517341131-.425982447392016.036550959179294-.012244047593413.060300165010631.012060033001035.086645392033461.029872645125579.162340500588471.109463200953542.266608828171229.070871095346774.324310140998932-.120410653447834.007977740142451-.026161212435909.009090320651012-.054731600479499.030798380057604-.074956219204978.201116620781249-.036734973766215.398705823454293-.097032307781774.607058464034708-.090167148149703.033397232238713.001112580508561.067907044985986-.027273792946289.101859151978715-.042116692718992.083672848690185-.037105833935129.16809024871327-.029869814132326.252878508907088-.004082292860403.264941372899557.044157839149193.530066760389673.088312847303314.795005302297795.132470686450688.0975900135345.033768092405808.200929775197437.039517840536973.301302655499967.059371599092628.078667651894648.295179216207544.105196893508037.593885850523293.057330452660608.89723248345399-.05380303455604.023933220418257-.101301446225989-.00315372694422-.146942726050838-.023007485498965-.81522709003184-.353438234789792-1.613756979439131-.321156414056532-2.396144542983166.100186034724175-.088126001721321.045641279828487-.174955408347159.09369456625609-.251211053639054.158445053302785-.010018886570833.008164585722625-.020779493481314.01540060552361-.031724114982353.022265765157499-.074956219203159.05769848183445-.150838173334705.114471228742332-.220599519165262.17866684103501-.050278447446544.047124720504144-.098702594046699.096103741862862-.146385020303569.146014160131017-.05955561367773.056956761498441-.099999189140362.1300558488565-.15732964180097.188869742194584-.015213759941616.020037773145305-.028757233621945.041374972377525-.043042427643741.062154465864296-.082933959343791.105751768263872-.150467313163972.220783533752183-.20779776582458.342119922126585-.055844180986242.106309474014779-.106493488603519.214846940045391-.144527888460289.329134154200801-.025790352265176.087941987132581-.05528930622495.174587379166042-.073656793108967.264567681739209-.037847554274776.139335846082759-.049536727108716.282380293860115-.062709340618312.42542474163929-.027086947364296.120597499029827-.025603506685002.24119216706822-.000928565923459.361973680686788.009648026401919.044899559487021.01187318742268.090353993733515.012430893171768.135995273560184-.005194873370783.095919727275032.030985225639597.184974294914355.046383000166315.277556280661884.021337199235859.094249441011925.040630421048263.189056587776577.076623674471193.279226566923171.027273792946289.067162493649448.048053286427603.137107854068745.082192239004144.201671495535265.029312108383238.064750487050333.0625224950345.127646673252457.094436286593918.191284579792409.0860848552893.187944007266196.216701240893599.344902788898253.348985081760475.500378129851015.064563641468339.069203640082378.132470686450688.135069538631797.200004040272688.201303466359604.056956761494803.066978479062527.131171260358315.113361479227024.199817194687057.166606808033976.096848293196672.07031622059003.198704614180315.132657532032681.302047206836505.192954866052787.051761888127658.03617726801258.109276355373368.061596760107022.167161682793449.085900840699651.071615646680584.028386373451212.141934698262048.060113319431366.215775505961574.08311797393435.031353254815258.011131467079394.063267046372857.020408633310581.095178006935384.03024067430124.054544754895687.026348058016083.12504782106771.023191500082248.160670214321726.085345965942906"/>
    <path class="cls-12" d="M20.183841837197178,13.349671612242673c.852519769543505-.478672901441314,1.716357851753855-.477931181101667,2.590211989539966-.061967620276846.376816580457671.217072101060694.706134749241755.488320927839595.951222363590205.851778049205677.50557583421687.749734882638222.615409895341145,1.554943086099229.328763294031887,2.412841743602257-.026716087197201.080335107160863-.050649307617277.159744479396977-.049723572690709.24490359975789-.106493488603519.180707987467031-.197221173499202.371434861506714-.332287881139564.53414622226137-.065305361806168.078480806311745-.124490115314984.163823941261398-.221896114262563.208352640579506-.132467855457435.109092340786447-.247683635532667.2391510206362-.397409228356992.327279853353502-.286459755730903.039517840531516-.441193376344017-.07310191835586-.527281062626571-.383494894510477-.010389746741566-.04267439846808-.011502327251947-.085532811524899-.002412006600935-.12857523916955.008164585722625-.03321038665581.018180641302024-.066233927728717.01855433246601-.101114600643996.00185430084457-.03525153308783.003153726936944-.070503066173842.014098348436164-.104455173169299.005010858785681-.013914333849243.012060033002854-.026529241609751.020595478894393-.038405260025684.210577801602994-.218555541738169.425053881475833-.429320188923157.559933743532383-.712813063295471.502792967445203-1.057531837604984-.226720127464432-2.358854694459296-1.392415739936041-2.485572801784656-.34750164108118-.037847554276595-.670512355987739.022078919573687-.983320169732906.159186773640613-.321714119811077.141003301353521-.606690434862685-.023375514669169-.640642541857233-.37662973487204.000370860168914-.11911122735728-.018925192633105-.241747041825874.064008766712504-.345460494652798"/>
    <path class="cls-5" d="M22.71666958519927,12.390564931303743c-.113916353990135.048237301014524-.213547513953017.024674940761543-.301302655503605-.059371599091719-.06048417960119-.110018075712105-.036180099008561-.213360668370115.018367486882198-.31837071629252.040443575460813-.077923100564476.070871095345865-.161227920074452.105938613844046-.24212073299168.060297334019197-.131171260358315.118740367190185-.263268255645016.181449707808497-.393326935492951.067904213989095-.140448426594958.185345155083269-.19146859437933.306868389039664-.138407280162937.119298072941092.052319593876746.165123367358319.181449707806678.105196893508037.318557561875423-.102968901492204.234697867606883-.211135507353902.466983728607374-.315774695105574.700939875872791-.023375514672807.052506439462377-.059926473846645.093510551665531-.100743740473263.132099826283593"/>
    <path class="cls-5" d="M24.357125665866988,12.415981592404933c.003153726940582.087571126963667-.032097806146339.149725592824325-.097403167950688.196850313328468-.215959520555771.156030215712235-.430064740257876.314846129183934-.648991142166778.4667968830272-.115957500418517.080521952747404-.249356752789026.055102460648413-.322826700321457-.04897902135599-.073099087359878-.103526607243111-.049536727106897-.232101846417208.067533353818362-.318560392866857.210580632594429-.155659355541502.424496175723107-.306684374456381.637117954747737-.459560863226216.078293960730662-.056401886738968.162524515169935-.072544212604043.249911627548499-.02523264651154.075695108545915.04081726662389.116512375176171.106122628431876.114658074324325.188685727604934"/>
    <path class="cls-5" d="M20.658582488436878,12.334998187694509c.017438920964196.121523233958214-.014842899774521.221712099675642-.131728966107403.277369435079891-.138591294749858.065865898553966-.22486299562479-.023746374841721-.310022115983884-.111875207555386-.135995273560184-.194251461150088-.2723614072911-.388502922295629-.40816983527111-.582941229024982-.101859151978715-.145827314550843-.094807146762832-.27458656831368.018738347051112-.356591961732192.114658074327963-.08293395934561.241376181653322-.050465293030356.344347914142418.092208294579905.163453081093394.226536112877511.324681001166027.454552835439245.486834656168867.681830668652765"/>
    <path class="cls-5" d="M21.620435233233366,12.198649039924931c-.083675679683438.03896296577841-.167906234128168.040630421044625-.252881339900341.004082292862222-.071612815685512-.055660166397502-.100556894893089-.132099826283593-.10853463503372-.219670953243622-.022078919571868-.242488762163703-.045828125412299-.484793509740484-.066978479062527-.727471948478524-.014469208608716-.165123367351953.051393858950178-.262710549895019.184235405571599-.279594596097013.142673587610261-.017996626717832.239521880805114.059739628263742.259556822953527.228390413722991.030243505296312.255661375676937.049352712518157.512809023022783.074027653281519.769028104448807.008906306062272.091095714076801-.020963508070054.165494227527233-.089425427810056.225236686785138"/>
    <path class="cls-11" d="M22.550136382998971,17.339778826977636c-.000186845580174.046196154584322-.000186845580174.092579154750638-.000370860170733.138778140331851-.042487552886087.161598780239729-.012801753338863.291470614507489.150651327750893.372918302178732.066607618893613.033210386658538.070503066172023.092952845918262.004453153031136.129500974098846-.077181380220281.042487552887906-.114474059735585.122080939707303-.18330683964632.170134226138543-.007233188807731.005378887959523-.015210928948363.007420034389725-.024304080592628.006307453882982-.101298615232736-.021708059406592-.194622321319912-.018367486887655-.257702522107138.081263673080684-.04675386033523.01873834705475-.093323706085357.037476694105862-.139890720836775.056401886740787-.037292679518941.001299426088735-.074585359036064.002782866766211-.111878038553186.004082292856765-.072541381607152-.039517840534245-.141374161519707-.051022998777626-.198333754007763.026716087195382l-.009645195408666.003711432691489-.0096480264001-.003156557933835c-.1651233673565.017812612124544-.330246734711181.017996626713284-.495370102065863-.00018401458783l-.009834871982093.003711432692398-.009832040990659-.003711432692398c-.057330452658789-.069761345831466-.12282266004695-.082192239003234-.197592033669935-.027831498698106-.055660166397502-.002038315435129-.112432913305383.004453153031136-.164752507185767-.022262934158789-.05844303316735-.018738347051112-.116699220756345-.037663539685127-.175142253923696-.056401886738968-.014101179434874-.048053286429422-.058813893341721-.019293221810585-.086087686286191-.034136121585107-.083675679683438-.001486271672547-.150280467581979-.04879500676725-.22170926868057-.083120804923055-.0300566597125-.077736254978845-.092395140163717-.094804315770489-.166980499194324-.088496861889325-.115399794665791-.046012139997401-.215772674971959-.116144346002329-.310766667316784-.194622321318093.003340572520756-.138964985912025-.118182661437459-.130429540019577-.199817194690695-.169205660215084-.074582528040992-.055289306232225-.139890720838594-.119482087528013-.19425146114736-.194809166901905-.017625766546189-.170689100896197-.146198174719757-.282380293863753-.223937260692765-.420971588609973-.030240674303059-.053989880139852-.09554886710248-.053619019972757-.13784957441203-.08887055305604-.039888700703159-.060484179597552-.076810520049548-.122264954297862-.093136860499726-.194067446562258.043970993565381-.096474602029048.009461180819926-.159557633813165-.08404653985599-.197589202673043-.046012139997401-.088870553054221-.071057940927858-.183677699817054-.077365394807202-.283495705363748.044339022741042-.064005935716523.063821921125054-.126347247163721-.015400605525429-.179037701209381-.037847554274776-.025232646514269-.017996626711465-.069758514835485-.037476694104043-.100556894889451-.002041146428382-.045641279828487-.004082292864041-.091469405238968-.006123439292423-.137107854074202-.019666912974571-.125234666649703-.019480067390759-.250653347886328-.000184014586921-.376074860113476-.007422865382978-.152321614016728.011873187417223-.300747780748679.063451060957959-.444533948865683.135995273560184-.050465293028537.067533353816543-.164568492597027.07885166647975-.253623060239988.021521213824599-.123748394975337.080519121751422-.23135729508067.14378616812246-.337111894339614.150838173332886-.064192781297606.221154393922916-.17866684103501.214476079872838-.34174906195949.00500802778879-.02152121382278.00871946047846-.0439709935672.033207555663466-.053432174386217.139149000498946.004637167617147.130429540018667-.117627786678895.170134226133086-.198333754008672.036921819348208-.055847011983133.082563099176696-.102784886907102.139149000502584-.138778140331851.121339219367655-.009277166233005.203528627380365-.065308192798511.227648693384253-.190726874039683.005565733539697-.005752579119871.012430893171768-.008722291475351.020408633314219-.009277166231186.127272982084833.006307453881163.176438849020997.09183743441281.20297092162582.200188054855971.031540100395432.313365519499712.303901507686533.466057993684444.585353235628645.328392433862973,1.046958076276496-.512067302686773,2.343083228764954.128017533417733,2.558117014392337,1.27479078424858.11521294908016.613368748910034-.046383000168134,1.15697615199042-.487208347334672,1.608191245896705-.075140233791899.076810520051367-.155846201123495.148055306563037-.233956147267236.221896114264382-.447316815634622-.030427519886871-.643980283382916-.316332400856481-.50279013645013-.730625675420015.14248674202463-.162524515171754.272174561709107-.330617594878277.325977596265147-.548431416280437.131358105940308-.53080848072932-.283863734543047-1.067366709588896-.830254004389644-1.078498176670109-.168650785461068-.003524587111315-.322639854739464.043600133398286-.480900893455328.082933959341972-.391843494820932-.019296052802019-.533959376676648-.18924343335766-.536558228861395-.65381515536501-.124490115314984.04675386033523-.210393787010617.135995273560184-.29684950247065.222821849189131-.334145012979207.335999313832872-.506875260307424.752146889242795-.504276408122678,1.215051155984838.005194873370783.911517677472148.646208275395111,1.618210132466629,1.479616006725337,1.759584293986336.374220559267997.063451060957959.724875927289759.00389544727841,1.065141548571773-.154733620611296.091095714073163-.042487552889725.169573689390745-.118924381775287.28033631643666-.114103199566671-.00111258051038.037292679513484-.002225161018941.074585359030607-.003337741527503.111691192967555-.018554332464191.02523264651245-.030056659714319.052319593874927-.024861786345355.084417400023085"/>
    <path class="cls-11" d="M22.521639600794515,18.151147272643357c.019666912970933-.041745832547349.028757233621945-.107051194355336.060668194186292-.121523233956395.200004040270869-.090169979144775.096848293194853-.148797026904504-.007420034389725-.233214426927589-.115773485829777-.094065426423185-.113732339399576-.177367414944456-.025232646514269-.317815841535776.058443033170988.270877966611806.250840193468321.368651994733227.503163827617755.38850292229472-.164381647015034.118369507021271-.338040460263073.219484107665266-.531179340900053.28405058012504"/>
    <path class="cls-11" d="M22.239499941390022,18.238661779734684c.055844180988061-.156403906871674.112246067727028-.174213688005693.25788936769095-.081263673086141-.081076827502329.042858413060458-.164194801433041.0790385120672-.25788936769095.081263673086141"/>
    <path class="cls-11" d="M21.057438354559054,18.298477844829904c.008535445891539-.064008766708866.055473320815508-.087571126963667.108537466026974-.080521952746494.055102460650232.007236019804623.085343134951472.050652138614169.089238582228063.108350620446799-.066791633478715-.003153726936944-.135995273556546.010205732156464-.197776048255037-.027828667700305"/>
    <path class="cls-11" d="M21.78941724494689,18.325808257646713c.061780774698491-.143973013700815.099260299799425-.148981041487787.198333754009582-.026532072604823-.062154465858839.03803439985677-.131542120529048.023191500084067-.198333754009582.026532072604823"/>
    <path class="cls-11" d="M21.274734104119489,18.326252723652033c.165123367354681,0,.330246734707544,0,.495370102060406.000186845582903-.165123367352862.038960134781519-.330246734705725.036364113593663-.495370102060406-.000186845582903"/>
    <path class="cls-11" d="M19.176330826610865,16.945486522641659c.088499692887126-.004453153032955.17495540834534-.005381718954595.18052397288011.117440941094173.00111258051038.028202358867929.022817808920081.037479525097297.041188126797351.051764719120911.111688361970664.086458546451468.165123367352862.197592033668116.140074735427334.34063648144911-.149538747242332-.149538747244151-.270875135618553-.318928422047975-.361786835104795-.509842141664194"/>
    <path class="cls-11" d="M19.363105633496161,14.100649301102749c.08089281291177.163823941260489-.028015513282298.337295908926535-.214476079871019.341565047368931.057330452658789-.122638645460029.118740367184728-.24286245332587.214476079871019-.341565047368931"/>
    <path class="cls-11" d="M20.156514255368165,13.71028924696293c-.048237301014524-.086271700873112-.12393524055733-.144901579624275-.202786907038899-.200188054859609.062338480447579-.074214498861693.151022187921626-.110391766877001.230060699987007-.160486199732986-.028573219038663.118740367186547-.027460638528282.239708726387107-.027273792948108.360674254592595"/>
    <path class="cls-11" d="M19.933171503345875,13.51930475250083c-.00111258051038.206682354322766-.019296052803838.221896114262563-.227648693386072.190726874039683.063637906538133-.078109946141922.146014160132836-.134140972711975.227648693386072-.190726874039683"/>
    <path class="cls-11" d="M18.868828294987907,15.990719754983729c.030611534473792.02541666110119.034693827334195.066233927727808.077552240391014.090724853904248.095548867104299.054731600475861.081447687671243.129130113929023-.024674940761543.188872573186018-.033952106996367-.089983133560963-.053248159798386-.182935979477406-.052877299629472-.279597427090266"/>
    <path class="cls-11" d="M19.732312502990681,17.650101028288191c.027273792942651-.000557705750907.054731600474042-.001670286261287.082005393420332-.001299426092373.149722761831072.001857131841462.166793653617788.026716087191744.117811801270364.170505086305639-.071057940931496-.051207013368185-.146939895063042-.096661447614679-.199817194690695-.169205660213265"/>
    <path class="cls-11" d="M19.566484218215919,13.848809766872364c.000370860167095.027273792942651.001299426088735.054547585885302.000928565919821.081818547838338-.002227992015833.149167887074327-.02727379294447.166051933274503-.171062792058365.116515206170334.053989880138033-.068275074160738.0983345648674-.145085594210286.170134226138543-.198333754008672"/>
    <path class="cls-11" d="M19.004880188422248,14.779419665605019c.010018886570833.024674940763362.018925192634924.049907587275811.030611534471973.073656793112605.058259018582248.11911122735728.029872645127398.166235947861423-.109647215542282.179966267125565.015955480283083-.087941987130762.036364113591844-.174216518998946.079035681070309-.253623060238169"/>
    <path class="cls-11" d="M18.998997383592723,16.553940282157782c.05473160047768,0,.119668933106368-.017625766542551.140632441178241.056585901325889.016326340453816.057517298242601.009648026401919.11299061905811-.056585901327708.141006132342227-.045641279826668-.05844303316735-.060855039768285-.129687819682658-.084046539850533-.197592033668116"/>
    <path class="cls-11" d="M20.242842576117255,18.014096038446951c.123751225970409-.075697939540987.157516487381145-.057885327416443.166977668201071.088312847301495-.05973962826647-.021521213820961-.118924381773468-.044341853734295-.166977668201071-.088312847301495"/>
    <path class="cls-11" d="M18.862577460980901,15.477576674707962v.376072029122042c-.036550959175656-.125231835655541-.034509812747274-.250653347883599,0-.376072029122042"/>
    <path class="cls-11" d="M20.631532343995787,18.18560046552102c.039517840532426-.015584620115987.087200266791115-.052319593879474.086087686278915.034138952571993-.028757233621945-.011318312665026-.05733045265697-.022820639913334-.086087686278915-.034138952571993"/>
    <path class="cls-11" d="M22.550136382998971,17.339778826977636c-.094807146762832-.058627047759728.001483440681113-.060668194191749.024861786345355-.084417400023085.001112580508561.030985225635959.005565733539697.062896186198486-.024861786345355.084417400023085"/>
    <path class="cls-5" d="M22.100036700594501,16.412897346895988c-.024490926176441.108721480613895-.043600133396467.218926401908902-.025045800932276.329875874538629.030798380053966.185532000667081.160854228912285.309283226638399.351951963120882.344161068562244.053989880138033.009834871982093.110207752286442.013730319262322.151950753839628.056588732319142h-.000554874755835c-.33766960009234.218184681570165-.704651308566099.352880529040704-1.10910971114572.333213616062494-.892224455663381-.043042427641922-1.58296143037478-.654556875702838-1.724335591898125-1.509114960686929-.119668933106368-.72320564103029.140448426593139-1.320618909658151.730625675421834-1.764411138183277.033023541074726-.024861786343536.068091059571088-.079035681070309.118740367188366-.049165866934345.016513186032171.009648026398281.014285194019976.06104188534664.011315481666315.092395140161898-.036734973764396.391288620061459.094065426426823.552884569311573.482384334132803.592589255424173.000370860172552.063824752123764-.055473320817327.081818547845614-.094065426425004.112246067728847-.306126668700017.241008152475843-.429691049090252.628582508850741-.315216989352848.993525901887551.105938613847684.337853614679261.443976243113866.602608142000463.807062504307396.623387635483596.161598780245185.009274335237933.314662114595194-.034880672916188.460305414557297-.105754599255306.048237301018162-.0235623602548.090540839315508-.071428801102229.153991900275287-.049536727108716"/>
    <path class="cls-6" d="M22.100036700594501,16.412897346895988c-.549546827782251.353995940546156-1.157162997571504.19425146114736-1.425258097411643-.374588588445476-.174584548174607-.370322280996334-.037289848523869-.881647863339822.299822045815745-1.11764515703635.038031568861697-.026716087194472.075511093962632-.05454758588985.113358648233771-.081634533254146.221525254095468-.090911699482604.451215093909923-.131355274945236.684242675250061-.065492207386342.370506295585074.104455173166571.602050436251375.351954794112316.672924362594131.730438829836203.068832779908917.367910274395399-.064379626883238.668842069728271-.345089634482065.908921656286111"/>
    <path class="cls-9" d="M30.85645863444006,13.339746148461927c-.189798308118043-.208723500752967-.365682282383204-.429877894675883-.680718088142385-.464200861837526-.410765856458966-.044712713906847-.682943249161326.169947380554731-.910589111552326.465871148096994-.249356752790845.324310141000751-.486837487163939.657710602651605-.763836062074915,1.034153491942561-.139890720840413-.469208889628135-.247499620945746-.875895284216313-.382195468415375-1.273675372744947-.333771321817039-.986473896678035-.791293869606307-1.909309886815208-1.371823092033083-2.779455422903084-.477373475348941-.715595930065319-1.02005514350094-1.370710511522702-1.646967366094032-1.950127153440917-.667732320211144-.617264196191172-1.377391656564214-1.178129336632992-2.183899286113956-1.625630166856354-.573293202625791-.318186701708328-1.149185257432691-.618379607692987-1.7601419997427-.845841455497066-.767173803602418-.285534020800696-1.553456814423043-.500748990019929-2.36905759561887-.618376776699733-.946953225147809-.136923839481824-1.894466987039777-.178853686615184-2.842906483858314-.079038512063562-.513737588946242.053989880136214-1.028961449565031.116144345998691-1.533421872276449.256035066837285-.418001876261769.115957500419427-.840646582126283.209465221090795-1.252895879262724.352696514453783-.803356733602413.279039721339359-1.56515023375141.64527970947529-2.278334157219433,1.099832544910896-.869218385661952.553813135229575-1.675726015211694,1.192043670487692-2.375366464992112,1.957550018822076-.992039630215004,1.085360505308927-1.796135253167449,2.293546501659876-2.314696855313741,3.670377621479929-.475519174498913,1.263101611417369-.734707968280418,2.275549874946591-.813559634761987,3.929940106423601-.014842899772702.551956003388113.039891531698231,1.145473824735745.066978479058889,1.34510700483952.100927755065641.236181308282539.28534717522416.372363427426535.548618261864249.452511689005405.500194115262275.152137599425259,1.116902021200076-.234140161854157,1.087217637150388-.753443484338277-.04990758727763-.867362669319846.026529241613389-1.721923585297191.164937937270224-2.574814215013248.1020417510681-.628769354434553.306126668705474-1.227295203572794.537670809368137-1.818214172739317.328763294030068-.838976295866814.782018118872656-1.610416406916556,1.313010614190716-2.331394055931924.356035671477002-.483496914644093.782945269296761-.912633088978509,1.215791460823311-1.332492097079012.495740962234777-.480898062461165,1.069034164858749-.863280376460352,1.643255933400724-1.232303231362494.423014150541348-.271990547120367.894264186601504-.476074049262024,1.370711927023876-.663463181770567.951406378177126-.374030882690931,1.933056261652382-.588320116983596,2.946617105690166-.679415831056758,1.201133991142342-.10816660585624,2.372769028312177.022262934162427,3.536426325348657.349355941929389.6588231831538.184974294914355,1.287592537588353.440080795833637,1.882593799617098.749177176892772.971630996902604.505018128462325,1.833611947269674,1.175530484450064,2.601156611039187,1.969423206241117.686654681852815.71058790227471,1.236572369807618,1.515796105732079,1.68964176456393,2.380375908282076.31262096816863.597039577465694.549543996788998,1.238052979490021.729326249327642,1.893538421119956.005565733541516.020221787730407-.010760606908661.04656984574649-.027273792942651.109834061122456-.278111155419538-.210390956017363-.541011381890712-.410210981697674-.80465049770828-.608544735710893-.598712694720234-.450286527984645-1.255868422606-.113729508402685-1.404107743761415.459747708810937-.109279186364802.422087000110878.105567753675132.698901560434933.39833779428227.925250827730451,1.029145464148314.795744191646008,2.070166946716199,1.575906594169282,3.102650152397473,2.367200463777408.153807885686547.11781463225816.245461305506979.081263673078865.348243361419009-.061409914529577.382382314001006-.530434789567153.763094341735268-1.062542696388846,1.159761849752613-1.582216879043699.422084169123991-.552884569311573.82302081558737-1.12265318482423,1.278502216942798-1.650121093036432.09666144761286-.111875207554476.10946320095718-.260859080039154.156030215710416-.394626361585324-.020221787730407-.149725592824325-.040630421046444-.299448354653578-.061039054357025-.449173947477902"/>
    <path class="cls-9" d="M17.90187409961618,27.164810276628486c-.043229273229372-.377371455217144-.043042427647379-.36976740623868-.4783020412724-.355479381223631-.308354660717669.010389746741566-.61782190194026.00593659371043-.925989717074117-.009832040990659-.154362760447839-.007977740140632-.21187722769173.045086405069014-.220412673585088.192954866051878-.02541666110119.433215636201567-.053989880139852.866434103396386-.089612273393868,1.298724004671385-.010389746743385.126718107328998.026902932773737.184790280331072.155475340952762.198888628769055.49982325509518.054918446057854.999091635427249.018180641300205,1.49835718477334-.003153726942401.115957500416698-.004824013198231.147497600810311-.07421166786844.137852405401645-.18849888202385-.030427519885052-.364756547454817-.050652138610531-.730254815249282-.077368225802275-1.133600637320342"/>
    <path class="cls-9" d="M10.68260104120418,24.571018495598764c-.032468666317072.02727379294447-.079778816905673.051763303621556-.105196893506218.090724853906067-.23377071718096.355850241388907-.553442275064299.639157685676764-.815597950198935.970889276559319-.116886066340157.147683030896587-.107052609853781.255105085421746.053617604471583.369952836323137.360117964337405.256960801765672.711701898282627.525053070616195,1.089629643749504.757528608193752.147126740645035.09054083931369.229688424320557.080151092573942.316703261027214-.069203640081469.217629806811601-.373846868102191.444349934277852-.742312017255244.668287194970617-1.112450283662838.037662124190319-.06215305036676.06159676011157-.12059608353411-.012060033001035-.174400533587686-.369765990742962-.271061981196908-.739345135900294-.542494822570006-1.110038277063722-.812258793173896-.018367486884017-.013358043597691-.047495580676696-.012060033001035-.085344550449008-.020779493483133"/>
    <path class="cls-9" d="M8.369406028030426,24.545025727284155c.043600133396467-.027088362856375.099073454211975-.051392443450823.142117297355071-.089797703476506.317074121197948-.282936584115305.630809085367218-.569768615514477.947512346396252-.853076059800514.106494904099236-.095178006935384.112803773477935-.174771393754781.016326340451997-.2927700406035-.23822245471456-.291470614514765-.465128012265268-.592773270016551-.68591154601927-.897788773709181-.094621716676556-.130614970103125-.186459151089366-.147868460979225-.316332400854662-.061967620280484-.348243361420828.230244714577566-.699084159528866.456779411955722-1.048812377124705.684984395595166-.115772070332241.075511093958994-.153063334353646.16104107449064-.070687080760763.293326330856871.258074797773588.413920998895264.58572409579574.773297242894841.884616160195947,1.155121851139484.0300566597125.038405260027503.061596760107932.083488834103264.131171260360134.061967620278665"/>
    <path class="cls-9" d="M24.567666664552235,23.418938547147263c.024490926170984.036178683511025.038218414441872.069018209997012.062154465858839.090353993735334.348614221591561.309652671310687.683868984087894.634519102564809,1.055674705761703.918382837102399.115586640247784.08831426280085.176070819847155.06697706356681.263084241061733-.033394401241821.312623799158246-.360861100174589.58646864712864-.750107158306491.859384929173757-1.140836657117688.081263673086141-.116513790671888.067162493649448-.189614293529303-.054173894723135-.262527950802905-.36494339303681-.219298677580809-.724873096298325-.44676052538307-1.089445629164402-.666616908711148-.10742205452334-.064750487050333-.225420701372059-.091095714074982-.307610109382949.039704686118057-.212805793611551.339151625272279-.474777454162904.640826556440516-.718565642417161.956417236960988-.024490926174622.031540100395432-.046569845748309.06493591713479-.070503066168385.098517163956785"/>
    <path class="cls-9" d="M19.915545736803324,28.152900670685995c.468283154699748-.093136860505183.904468503253156-.266237968000496,1.348076717191361-.415405855072095.150093621999986-.050465293026718.199446334514505-.144714734042282.140074735425515-.289800328251658-.160854228910466-.393140089914596-.323939280828199-.785728136066609-.487763222088688-1.177755645474463-.059926473848464-.143415307948089-.177183400357535-.13469584746781-.295923767544082-.098702594041242-.368094288984139.110949472626089-.734150262529511.228390413723901-1.102986271853297.336370174001786-.09146940523533.026902932771918-.155662186531117.046569845748309-.127275813079905.165310212933036.110575781465741.463085450335711.217072101060694.927102297589954.321711288816005,1.391490005007654.030427519885052.135250722227283.117627786679805.116699220758164.204086333133091.088499692881669"/>
    <path class="cls-9" d="M23.416533683479429,24.540609377174405c-.018183472295277.009277166229367-.050649307615458.0204086333124-.076810520053186.039888700703159-.31336268850464.233399857010227-.60223728182973.498339814414066-.94398634378922.69500328216418-.116328360585612.066791633480534-.187202286926549.165866503188226-.083859694270359.327649298022152.233027581343777.364387102783439.44527566920442.742126587172606.661235189756553,1.117272881370809.04879500676725.084788260188361.111133487214829.099073454211975.185532000670719.05844303316735.461788855234772-.253068185480515.861239230023784-.595188107610738,1.282397664217569-.905951943930631.072728227190964-.053804450055395.072728227190964-.126161817075626.013543473683967-.19629260757938-.305942654116734-.362344540853883-.611514448064554-.724873096298325-.918382837106037-1.086290486726284-.026161212437728-.030798380053966-.057514467249348-.06215305036676-.119668933110006-.049722157191354"/>
    <path class="cls-9" d="M14.776771336481033,26.736679105044459c-.008348600313184-.143973013702634-.054360740310585-.194438306731172-.151579893672533-.219300093074708-.38757718736997-.098886608631801-.779791542357998-.183861714407612-1.140649811539333-.367539414226485-.133399252370509-.067720199398536-.200932606194328.017996626711465-.246387040435366.13080040019122-.158629067893344.393884641249315-.315590680520472.788324157254465-.476447740424192,1.181283063577212-.049349881523085.120410653446015-.037660708689145.185905691829248.0994471453796.250282487715594.418559582009038.196850313330287.862722670704898.310950681903705,1.302806297533607.43933907549399.093136860499726.02727379294447.196292607577561.071244786509851.253065354485443-.066791633478715.184603434745441-.449171116484649.223750415110771-.935450897897681.359745688672774-1.348073886198108"/>
    <rect class="cls-2" x="4.536911281914247" y="9.720662799342303" width=".514363952718974" height="2.222825476743376" transform="translate(-7.042643375821481 10.375067355253524) rotate(-63.915577749314863)"/>
    <polygon class="cls-2" points="5.384716304064568 7.739296132649542 7.227049127312057 8.982546816501781 6.990680973447525 9.333015338943369 5.252247033113235 9.496284405448023 6.370633910488323 10.251214161460666 6.086397900278826 10.67237259565627 4.244250507115794 9.428751051627842 4.482288947243433 9.076054537177697 6.21905401681579 8.915384322854152 5.100481709354426 8.160267721257696 5.384716304064568 7.739296132649542"/>
    <polygon class="cls-2" points="6.54130319442811 7.078522394856918 6.047601963125999 7.590589697541873 5.745927031959582 7.299676788779834 7.090292316457635 5.905217071423976 7.391967247625871 6.196132811177449 6.898267431824934 6.708386959444397 8.196806006411862 7.96017025819674 7.839656338926943 8.3303056936129 6.54130319442811 7.078522394856918"/>
    <polygon class="cls-2" points="9.96739295727275 5.964421641889203 10.216005158725238 6.293739810676016 8.84232635034823 7.330679000380769 7.503342784802953 5.556435821208652 8.844367496780251 4.544545263427608 9.092981113730275 4.874234292385154 8.160126237022268 5.577959866022866 8.450853715701669 5.963309061378823 9.274616251623229 5.341591712160152 9.515622988603354 5.660890994373403 8.691860452679975 6.282795189175886 9.001698554078757 6.693190185462299 9.96739295727275 5.964421641889203"/>
    <polygon class="cls-2" points="11.30188798236486 3.221219923826538 12.298193920030826 5.207895205452587 11.920822464815501 5.397138638811157 10.32524754217593 4.68766614803917 10.930267690775509 5.894179027136488 10.476084300014918 6.121827720518922 9.479592932264495 4.1349655933127 9.860119529912481 3.944051873692842 11.452539310117572 4.655197481720279 10.847706007098168 3.448868617212611 11.30188798236486 3.221219923826538"/>
    <path class="cls-2" d="M12.914605987130926,4.975702767236726c-.170875946476372.000928565919821-.314848960179006-.021150353650228-.431732195522272-.066233927725989l.057885327418262-.420974419608683c.111133487214829.040075546287881.235626433523066.061967620277755.373660022520198.065495038384142.137665559821471.003524587107677.269578540519433-.013359459096137.395370912921862-.050465293028537.140261581011146-.041374972381163.237664748965472-.092766000336269.292396349441333-.153991900275287.054734431470933-.061409914525939.071986506847679-.12671810732536.051577873538918-.195734901826654-.015026914363261-.050652138608712-.047124720505963-.086829406620382-.09666144761286-.108724311610786-.049536727106897-.021892073990784-.108163774864806-.033765261410736-.176070819848974-.03599325342293-.067904213990914-.002038315437858-.15825820772443.000370860170733-.270875135618553.007052005212245-.174029673415134.009277166236643-.318373547286683.010018886572652-.43321846719482.001854300848208-.114842088914884-.007977740138813-.222080128853122-.043600133394648-.321153583063278-.107051194350788-.099447145377781-.063451060959778-.16994738055655-.166422793447055-.211880058686802-.308354660721307-.036548128184222-.12393524055733-.035993253424749-.246016180266452.001486271672547-.366239988130474.03728984852205-.12003979327892.114844919908137-.229689839814455.232469875592869-.328392433859335.117627786676167-.098886608631801.273844847972214-.176996554775542.468840860452474-.23432700743615.135995273558365-.040072715293718.273844847968576-.063080200789045.413364708638255-.068832779910736.139519860671498-.00593659371043.267166533922136.007236019800985.382382314001006.039520671529317l-.041929847138817.419488147930679c-.229689839814455-.0536190199673-.443237353765653-.051393858948359-.640087667099579.006862328638817-.138033588995313.040633252039697-.233582456101431.092952845916443-.286459755727265.156961612625309-.052690454047479.064192781297606-.068461919740002.132841546619602-.046753860337049.205753788400216.02152121382278.073285932942781.075511093962632.116328360586522.162153655004659.129500974097937.086645392033461.013172613513234.213176653778646.013730319265051.379783461812622.002227992013104.173845658828213-.009277166233005.318189532699762-.009834871983912.433031621614646-.00185713184419.115031765488311.008351431306437.221712099677461.042858413058639.320414693720522.104271158577831.098518579452502.061225899939018.168834800044351.16308222092448.210764647177712.305384948365827.035993253426568.121710079538389.034693827336014.242862453327689-.003711432691489.363457121366082-.038405260025684.120594668032936-.116883235345085.23024471457029-.235623602529813.329318168785903-.118743198181619.099076285205228-.27551513423532.176999385767886-.47051114671558.234697867604154-.168461108878546.04972357268889-.338224474846356.074956219204978-.508913575740735.075327079372073"/>
    <rect class="cls-2" x="14.41298789486935" y="2.321258761157531" width=".514392253759832" height="2.222768022218373" transform="translate(-.368577510588285 2.51996144372604) rotate(-9.696633435242827)"/>
    <polygon class="cls-2" points="17.593593044734007 2.088009963635159 16.722334928135751 4.347788372887408 16.214904793068854 4.36856786637054 15.166463276114882 2.186528543094028 15.72175985202739 2.164078763344151 16.461846708263693 3.72310414230833 17.082822337144535 2.108789457116472 17.593593044734007 2.088009963635159"/>
    <polygon class="cls-2" points="19.536874855497445 4.160662522789607 19.483626695700877 4.569944938565641 17.777103715927296 4.347864809716157 18.064121177409106 2.143743735869975 19.729642875967329 2.360631822341929 19.676394716167124 2.769914238121601 18.517561432332514 2.618892050201794 18.455409797470566 3.097748966231848 19.478618667910268 3.230777358431624 19.426853948787539 3.627444866452606 18.403645078346017 3.494232459658633 18.337224305038035 4.004445461497198 19.536874855497445 4.160662522789607"/>
    <path class="cls-2" d="M21.114341327176589,4.91700211364514c-.127646673250638-.153805054692384-.207424074660594-.328763294029159-.239151020638019-.525055901608539-.031726945973787-.19629260757938-.009090320651012-.394068655838055.068275074159828-.593330975766548.0771813802221-.199446334520871.193509740809532-.361045114764238.349171927344287-.484422649570661.155662186534755-.123751225972228.332658741306659-.199262319933041.530808480731139-.227093818629328.197776048256856-.027641822119222.398521808867372-.00203831543422.601863590665744.076626505465356.149909607409427.058256187585357.278855706750619.135995273560184.38646460685959.2333984415136.107608900101695.097219153364676.187573147095463.210206941429533.239521880801476.339523900941458l-.132654701037609.060855039768285c-.102230012147629-.227832707971174-.282751154032667-.391843494817294-.541198227469067-.492403220702727-.173658813248039-.066975648068365-.347130780915904-.08887055305604-.519674182656672-.064934501638163-.172730247326399.023746374841721-.326538133011127.089796287980789-.461233980482575.197589202676681-.135066707636724.107608900105333-.235623602529813.247502451940818-.302231221421607.419304133341939-.066604787898541.171617666817838-.086458546455106.342861642471689-.059184753508816.513366728775509.026902932775556.170505086307458.096106572855206.322826700317819.20779493482587.456780827448711.111320332798641.133954127131801.253993920410721.23451102202489.427836748245682.30204437584689.256592772590011.099444314380889.500938666596994.098702594043061.732853667432209-.00204114643202l.056956761494803.134324987298896c-.125605526818617.06030016501245-.261600800378801.090353993733515-.407982989687298.090540839315508-.14638502030175,0-.29369860652514-.028757233625583-.441753913086359-.085900840702379-.203341781800191-.078851666483388-.368836009327424-.195366872650993-.496482682572605-.349171927342468"/>
    <path class="cls-2" d="M24.201556902124139,5.898504785451223l-1.106326844375872-.661422035340365-.563648007211668.391843494819113-.149722761831072-.089612273397506,2.018215382013295-1.38314140469447.138964985913844.082933959346519-.263084241056276,2.432695502159731-.150096452993239-.089612273395687.075697939540987-.683684969497335ZM24.219924389004518,5.750449478886367l.156958781633875-1.400767171237931-1.157162997571504.802612182270423,1.000204215937629.598154988967508Z"/>
    <path class="cls-2" d="M25.675740232010867,7.884659164237746l.08404653985599-.909105670871213c-.06623675872288-.043042427647379-.124122086142961-.086271700874931-.173845658830032-.129130113931751l-.480898062458436-.414664134726991-.474961468751644.550472562707-.122635814464957-.105938613845865,1.452158199193946-1.682589759346229.603349862338291.520602748576493c.211506367519178.182565119306673.334142181987772.375888014534212.36809428898232.57960348749657.033581246823815.203899487549279-.026158381440837.394626361587143-.179779421545391.572735496869427-.114658074326144.133028392205233-.24508761434663.215588660385038-.39165664923712.247128760778651-.146201005711191.031726945977425-.29852261972519.01168917283394-.456780827447801-.060852208775032l-.087571126961848.952148098516773-.139519860673317-.120410653447834ZM25.679264819122182,6.738443619162354c.179595406956651.15492046619147.350655368019943.233398441510872.513737588944423.235626433523066.162898206337559.002412006600935.307426094796028-.069390485661643.433218467196639-.215217800212486.125976386987531-.145827314549024.175883974265162-.299264340066657.149722761831072-.460118568977123-.026158381442656-.160857059905538-.128943268349758-.31893125303759-.30835466071585-.473848888239445l-.480711216876443-.414850980312622-.788326988253175.913745669485252.480714047873334.414664134733357Z"/>
    <polygon class="cls-2" points="27.212259211355558 9.445688886713469 27.099642283461435 9.538641732624455 26.123742148112797 8.355501537207601 27.83824286802701 6.941006877699692 28.783899498075698 8.087409268360716 28.671098555592835 8.180359283285725 27.828597672618343 7.159007544685664 27.152516752095835 7.716716127197287 27.906333927598098 8.630090936510896 27.795942160721097 8.721186650584059 27.042311830800827 7.807627826679891 26.339330808497834 8.387415328765201 27.212259211355558 9.445688886713469"/>
    <path class="cls-2" d="M25.91134684858298,20.86911775968656c-.116144345998691-.102414026736369-.207056045484933-.250469333297588-.272732267460015-.444720794444947-.065679052971973-.194066031064722-.098518579457959-.425610171729204-.098518579457959-.694817852082451,0-.26920768034779.032839526485986-.500751821015001.098518579457959-.694816436581277.065676221975082-.193880600975717.156587921461323-.342306767710397.272732267460015-.444720794443128.115957500416698-.102414026736369.248241341285393-.153621040106373.396667508017345-.153621040106373.148610181320691,0,.280710007602465.051207013370004.396851522609722.153621040106373.115957500414879.102414026732731.206869199897483.250840193467411.272545421878021.444720794443128.065679052970154.194064615566276.098518579454321.425608756233487.098518579454321.694816436581277,0,.269207680353247-.032839526484167.50075182101773-.098518579454321.694817852082451-.065676221980539.19425146114736-.156587921463142.342306767708578-.272545421878021.444720794444947-.116141515007257.102412611237014-.248241341289031.153619624607018-.396851522609722.153619624607018-.148426166731952,0-.280710007600646-.051207013370004-.396667508017345-.153619624607018M26.565346018538548,20.336825838274308c.062154465860658-.130985830272039.093323706083538-.333401877143842.093323706083538-.607246725115147,0-.273844847969485-.03116924022288-.476260894837651-.093323706083538-.60724530961761-.062338480447579-.130987245771394-.148055306563037-.196479453161373-.257331661938224-.196479453161373-.107424885518412,0-.19239716030097.06549220738998-.254735640744912.196479453161373-.062154465862477.130984414779959-.093323706087176.333400461648125-.093323706087176.60724530961761,0,.273844847971304.031169240224699.476260894843108.093323706087176.607246725115147.062338480443941.130985830277496.147310755226499.196663467748294.254735640744912.196663467748294.109276355375187,0,.194993181490645-.065677637470799.257331661938224-.196663467748294"/>
    <path class="cls-2" d="M27.30385601130547,20.908450170136348c-.04786644084561-.066606203392439-.071615646678765-.150095037495703-.071615646678765-.250097057632956,0-.102228596647365.023749205833155-.185161140498167.071615646678765-.24842677136985.047682426258689-.062896186198486.106680334185512-.094436286595737.176625694606628-.094436286595737s.128759253761018.031540100397251.176628525599881.094436286595737c.047679595261798.063265630871683.071612815687331.146198174722485.071612815687331.24842677136985,0,.100002020137254-.023933220425533.183490854240517-.071612815687331.250097057632956-.047869271838863.066606203396077-.106683165178765.100002020135435-.176628525599881.100002020135435s-.128943268347939-.033395816739358-.176625694606628-.100002020135435"/>
    <polygon class="cls-2" points="28.56578842234012 18.479316058001132 28.56578842234012 20.979915774150868 28.15112428761131 20.979915774150868 28.15112428761131 18.943703765427927 27.792675194035837 18.943703765427927 27.792675194035837 18.479316058001132 28.56578842234012 18.479316058001132"/>
    <path class="cls-2" d="M30.216818264339963,20.508405286678681v.47143688163851h-1.354197325486894v-.374960864111927l.691291849469053-.911148232798951c.073285932941872-.097403167954326.122822660048769-.181449707806678.148426166733771-.251765928394889.025603506685002-.070132206003109.038405260023865-.139890720842232.038405260023865-.208907515339888,0-.100002020137254-.024306911585882-.176812540186802-.072915072771139-.230431560155921-.04879500676725-.053435005380379-.120039793277101-.080335107160863-.213734359533191-.080335107160863-.078664820897757,0-.149538747242332.020779493483133-.212618948027739.06252249503541-.063080200792683.041745832549168-.115957500422155.104271158580559-.158629067895163.187573147100011l-.302047206836505-.2716168559582c.069945360421116-.145088425204449.166422793443417-.259004779190946.289245453494004-.341010172611277.122822660048769-.08218940801089.263641946809003-.123377534806423.422271014702346-.123377534806423.133212406788516,0,.249540767375947.030427519883233.349542787513201.091095714069525.099815174551622.060668194188111.177367414944456.14638502030175.232840735759964.257334492929658.055476151814219.110762627047734.083304819514524.241005321486227.083304819514524.391098943482575,0,.135811258973263-.02059264790114.263087072056805-.061409914525939.382198299412266-.041004112208611.119295241944201-.120410653447834.254919655337289-.238225285709632.407241269351289l-.412065282547701.543052528319095h.770514376123174Z"/>
    <path class="cls-2" d="M30.507436749761837,19.642044789115971c-.082933959343791-.12504782106771-.124122086139323-.292212334852593-.124122086139323-.501861570532128,0-.209468052082229.041188126795532-.377003426037845.124122086139323-.501864401523562.08274711375816-.125050652060963.189798308114405-.187573147097282.32115641405835-.187573147097282.131539289535795,0,.238035609132567.062522495036319.320041002554717.187573147097282.082005393422151.124860975485717.12282266004695.292396349441333.12282266004695.501864401523562,0,.209649235679535-.040817266624799.376813749464418-.12282266004695.501861570532128-.082005393422151.125234666651522-.188501713018923.187573147098192-.320041002554717.187573147098192-.131358105943946,0-.238409300300191-.06233848044667-.32115641405835-.187573147098192M30.965514172306939,19.436661860887398c.033397232236894-.066604787898541.049907587273992-.165494227523595.049907587273992-.296478642303555,0-.130800400186672-.016510355037099-.229876685396448-.049907587273992-.296481473296808-.033210386654901-.066604787896722-.078851666483388-.100002020133616-.136921008486752-.100002020133616-.056217872152047,0-.101488291809801.033952106994548-.135624413393089.101856320985462-.034138952576541.067720199402174-.051207013364547.166051933274503-.051207013364547.294627172444962,0,.128572408179025.017068060788006.226720127464432.051207013364547.294624341455346.034136121583288.068088228576016.079406541241042.101856320983643.135624413393089.101856320983643.058069342003364,0,.103710621831851-.03321038665581.136921008486752-.100002020135435M31.89595704241583,18.479316058001132h.304830073604535l-1.223770616461479,2.500601131649091h-.304456382444187l1.223396925301131-2.500601131649091ZM31.815435089671155,20.924443868832896c-.067346508240007-.055845596482868-.119852947698746-.136366133729098-.157329641799151-.241006736981944-.037663539686037-.104826033335485-.056401886738968-.226349267293699-.056401886738968-.364384271790186,0-.138221850074842.018738347052931-.259561069442498.056401886738968-.364384271786548.037476694100405-.104826033337304.089983133559144-.185161140498167.157329641799151-.24119216706822.06734933923326-.055844180984423.143788999113895-.084046539850533.229132134061729-.084046539850533.131358105942127,0,.238409300298372.062525326031391.321156414060169.187757161687841.082747113763617.125050652060963.124306100728063.292215165844027.124306100728063.50186581701746,0,.209465221094433-.041558986964446.376815164961954-.124306100728063.501862986029664-.082747113761798.125049236567065-.189798308118043.187573147099101-.321156414060169.187573147099101-.085343134947834,0-.161782794828468-.028015513285936-.229132134061729-.084045124356635M32.181491063216527,20.613677201517021c.033210386654901-.067718783905548.04990758727763-.166237363361688.04990758727763-.294624341456256,0-.128573823671104-.01669720062273-.22690555754707-.04990758727763-.294809771536165-.033210386654901-.067907044984167-.079035681070309-.101859151976896-.136923839483643-.101859151976896-.05640188673533,0-.10166947540165.033397232236894-.135621582396197.100002020137254-.034138952574722.066791633476896-.051207013366366.165681073103769-.051207013366366.296666903375808,0,.130984414781778.017068060791644.229688424320557.051207013366366.296480057799272.033952106994548.066606203396987.079219695660868.100002020137254.135621582396197.100002020137254.057888158413334,0,.103713452828742-.033953522492084.136923839483643-.10185773648027"/>
    <path class="cls-2" d="M3.114471711243823,21.466140351190916c-.124676960898796-.093693150758554-.222637834600391-.223195540356755-.293882621112061-.389246058133722-.071430216596127-.165865087692509-.107052609853781-.35343823479343-.107052609853781-.562532595713492,0-.209281206502055.035622393257654-.396854353599338.107052609853781-.562532595713492.07124478651167-.166051933272684.169205660213265-.295739752953523.293882621112061-.389247473629439.124676960895158-.093507720672278.264754527319383-.140261581011146.420415298356602-.140261581011146.131171260358315,0,.249726197462223.032097806146339.355664811308088.096477433025939.105753183759589.064563641468339.194809166896448.156958781633875.26698110383586.27755344966863l-.224865826616224.289616313666556c-.102412611237014-.164936521774507-.22913071856965-.247312775365572-.380525182155907-.247312775365572-.09369456625609,0-.177183400359354.028570388041771-.250653347884509.085900840702379-.073471363028148.057327621663717-.130800400189401.137294699648919-.171803096902295.239705895392035-.041188126797351.102600872318362-.061596760107932.219300093074708-.061596760107932.350100493264108,0,.130613554605588.020408633310581.247314190861289.061596760107932.349912232187307.041002696712894.102599456819917.098331733874147.18237827372559.171803096902295.239894156468836.073469947525155.057143607078615.156958781628418.085900840704198.250653347884509.085900840704198.151394463586257,0,.278112570918893-.083303404018807.380525182155907-.25046791780187l.224865826616224.289800328249839c-.072171936939412.122637229966131-.161598780247004.216144950640228-.26809368434624.280339147433551-.106681749683048.0643796268796-.225607546955871.096661447614679-.356778807314186.096661447614679-.154177330357925,0-.293511760944966-.046753860337049-.418188721840124-.140261581009327"/>
    <polygon class="cls-2" points="5.780956332038841 19.458443526124029 5.780956332038841 21.570169459810131 5.43067182419145 21.570169459810131 5.43067182419145 20.704477076751573 4.743275421998987 20.704477076751573 4.743275421998987 21.570169459810131 4.393176344230596 21.570169459810131 4.393176344230596 19.458443526124029 4.743275421998987 19.458443526124029 4.743275421998987 20.291110952612144 5.43067182419145 20.291110952612144 5.43067182419145 19.458443526124029 5.780956332038841 19.458443526124029"/>
    <polygon class="cls-2" points="7.093095000183894 21.570131241396666 6.727782162475705 20.837094974873253 6.368963624227035 21.570131241396666 5.966915812752632 21.570131241396666 6.526665541692637 20.496271647838512 5.994931326036749 19.458406723209009 6.392711414564474 19.458406723209009 6.740769345899025 20.143391118799627 7.082148963188956 19.458406723209009 7.460448984324103 19.458406723209009 6.933166506199996 20.478089591044409 7.497369388174775 21.570131241396666 7.093095000183894 21.570131241396666"/>
    <path class="cls-2" d="M3.46306753137651,25.533520953436891c-.044156423653476-.181635137891135-.039332410453426-.360117964337405.01447203960015-.535445648347377.053989880139852-.175142253929153.154548190528658-.328947308616989.302045791340788-.461417995065858.147312170727673-.132469270958609.310952097401241-.215959520555771.490916949031089-.25102420805888.179966267127384-.034695242831731.357891387824566-.020594063398676.533962207668083.042856997557465.176069404351438.063452476457314.332844171394754.171617666816019.470322885636051.324681001167846.115957500418517.128944683845475.197962893840668.26586852332548.246201610354547.410768687452219.048237301014524.144900164126739.061595344610396.290914324255937.040259560873892.438226494985429l-.402604101729594-.037663539684218c.025603506683183-.205197498142297-.028200943370393-.382010038332737-.1619696404141-.530621635149146-.082747113763617-.092209710081079-.176811124691085-.156217061294228-.282008018195484-.192395744803434-.105382323594313-.035993253424749-.21224950335818-.041558986964446-.320785553889436-.01706947628918-.108721480615714.024489510678904-.209094360920062.078293960728843-.301118640914865.160855644408002-.092208294581724.082748529261153-.156217061292409.176812540188621-.192210314717158.282194863775658-.035993253426568.105382323596132-.041744417048903.212248087860644-.017069476285542.320784138393719.024490926172803.10872289611325.078108530644386.208910346333141.160857059903719.301118640916684.133768697043706.148797026904504.304457797938085.220599519163443.512623592940145.215588660383219l-.005565733541516.404458402575983c-.15009503750116.006865159632071-.29499520162608-.021708059404773-.43451506229394-.085900840704198-.139519860671498-.064379626874143-.267351964006593-.16067304531316-.383124034337015-.289800328251658-.13618070364646-.151579893670714-.226534697379975-.318372131789147-.270691121029813-.500194115262275"/>
    <polygon class="cls-2" points="7.328720018213062 26.608491712006071 6.027954867111475 28.128186096009813 5.676186918577514 27.827251469685507 6.209591420496508 27.204234694370825 5.519041291365284 26.613131710617381 4.985822219534384 27.236519346099158 4.634052855502887 26.935400705187931 5.934818006604473 25.415522306588173 6.286400525052159 25.716455517418581 5.773591502025738 26.315908516984564 6.464141631158782 26.906643471560528 6.976950654183383 26.307375902084459 7.328720018213062 26.608491712006071"/>
    <polygon class="cls-2" points="7.619615941010125 26.807068931468166 8.004779706285262 27.063845718646917 7.104578925973328 28.414518457026134 7.939102068809007 28.970930444440455 7.730007707888944 29.284663993115828 6.510133954203411 28.471662064104748 7.619615941010125 26.807068931468166"/>
    <path class="cls-2" d="M8.436977600264072,29.56108787631274c-.108721480615714-.154920466196927-.169761950470274-.323752435249844-.183490854240517-.506504400136691-.013544889174227-.182749133897232.023747790341076-.361786835102976.111875207559933-.537113103619049.088312847299676-.175329099505689.20983608125789-.312066093407338.364756547452998-.410026967110753.154919050697572-.097960873705233.326906162186788-.149538747240513.516149595548995-.154546775032941.189056587774758-.005194873368964.376258874703126.038960134786976.561790875370207.132467855461073.1855320006689.093320875088466.332287881141383.217256115647615.440082211329354.371618876089997.107792914697711.154549606022556.16901881463491.323384406072364.183490854238698.50650440013851.014285194021795.183119994064327-.022449779746239.362528555442623-.110577196963277.537854823956877-.088312847301495.175329099505689-.210208356926159.311692402243352-.366054558049655.409282415777852-.155662186532936.097590013532681-.327649298022152.148983872484678-.5159641654609.154733620613115-.188500297517749.005381718950957-.375331724279022-.038405260025684-.560678294861646-.131728966111041-.185532000667081-.093507720674097-.332658741308478-.21762980681342-.441380221924192-.372547442011637M9.377995647195348,29.652370435967896c.109463200955361-.005752579125328.210393787016073-.039888700706797.302602081597797-.102227181154376.092024279992984-.062338480451217.166051933274503-.148981041491425.221710684174468-.259556822955346.055660166402959-.110578612455356.081078242999865-.22152525409183.076254229797996-.332658741310297-.005009443286326-.111320332796822-.037663539686037-.212618948029558-.098331733872328-.303901507684714-.060669609687466-.091282559655156-.143787583618177-.163455912084828-.249355337295128-.216514395311606-.105567753671494-.053064145207827-.212991223694189-.076810520047729-.322454424651369-.071057940926039s-.210393787010617.039701855121166-.302602081594159.102043166565636c-.092024279992984.062522495036319-.166051933274503.148981041487787-.221710684178106.25974366853734-.055660166397502.110391766873363-.081078242996227.221341239504909-.076254229794358.332658741306659.005009443284507.111136318209901.037663539686037.212434933442637.098331733872328.303717493097793.060669609685647.091282559655156.143787583616358.163455912086647.24935533729149.216514395309787.10556775367877.053064145209646.212991223697827.076810520053186.322454424651369.071244786513489"/>
    <path class="cls-2" d="M11.532986241527396,30.979274151555728l-.184232574576527-.652144869105541-.021522629316678-.00723318880955-.38126831799309-.130800400187582-.180707987465212.527094217044578-.437855634814696-.150093622001805.648805712080502-1.892241826019017.819123952805967.280710007602465c.167535373953797.05751446724571.303529232016444.135437567811096.407800390594275.233585287092865.104268327588215.098147719287226.172172541577311.210022926843521.203528627382184.335628453663958.031540100395432.125789541405538.023191500082248.258631088026959-.025048631925529.399263529207019-.048237301016343.14063244118006-.123564380386597.250282487713775-.225978407122966.328947308616989-.10259804132329.078480806312655-.225235271287602.123564380386597-.368094288980501.135069538631797l.215774090464038.75381434450901-.470324301131768-.161598780245185ZM11.91944943289127,29.491122698937033c-.048980436853526-.080335107162682-.139334430585222-.143044447780994-.270691121029813-.188130852850009l-.356964237398643-.122264954294224-.226162421713525.659564903491628.356777391818468.122451799879855c.131542120527229.045086405070833.241563027237135.050465293030356.329690444454172.016326340453816.088312847301495-.034138952576541.150465897662798-.103526607246749.186273721004909-.207978949418248.036364113597301-.106309474016598.030056659716138-.199633180101955-.018923777135569-.279968287262818"/>
    <polygon class="cls-2" points="14.642743603513736 29.657452069592182 14.250158388358614 31.618897535694487 13.796347273259016 31.528169850798804 13.957201502171301 30.723890213259438 13.066092458011553 30.54559423239516 12.905051383520913 31.349689855342149 12.451053422839323 31.2589650014379 12.843825483578257 29.297519535337415 13.297636598677855 29.388244389239844 13.14290297806474 30.161728477713041 14.034012022224488 30.340024458582775 14.188745642835784 29.566727215689752 14.642743603513736 29.657452069592182"/>
    <polygon class="cls-2" points="16.420327355210247 31.426704206936847 16.393795282603605 31.797213333513355 14.848871083077029 31.687005581228732 14.991173810520195 29.691608008130061 16.498992176113461 29.799403753817387 16.472646949086993 30.169910049402461 15.423650557377186 30.094956661190736 15.392665331737589 30.528172297394121 16.319212754566252 30.594406225123748 16.29360924788125 30.953413024448309 15.3672486706364 30.887549956891235 15.33422229856842 31.349151966547652 16.420327355210247 31.426704206936847"/>
    <polygon class="cls-2" points="18.115939685409103 31.745408980483262 17.60294381679887 31.072855478065321 17.159522448446296 31.787525673202254 16.628529953128236 31.810901187873242 17.323346389708604 30.761904796157978 16.577693799930785 29.810682432569592 17.103120561707328 29.787490932485525 17.591254643968568 30.415518566580431 18.013712504252908 29.747418217195445 18.513535759346269 29.72552331220686 17.859162898230352 30.721087529534998 18.649715047495192 31.722033465812274 18.115939685409103 31.745408980483262"/>
    <rect class="cls-2" x="18.773286717296912" y="29.64567423120841" width=".462966543888459" height="2.000436721457891" transform="translate(-3.750476292927051 2.6717834597703) rotate(-7.321527501040605)"/>
    <path class="cls-2" d="M19.478114751036628,29.593406499963749l.88535929603313-.204273178711446c.211693213101171-.048795006769069.407985820680551-.051393858951997.589248682905236-.008348600311365.180894833049024.043229273225734.333403292643197.127833518830812.457151687618534.25380707482509.12393524055733.125976386991169.208352640582234.286275741142163.253436214656176.481268922632808.044899559487021.194993181487007.039333825947324.376074860116205-.017068060788006.543607403076749-.056031026571873.167351359365057-.156217061296047.310024946975318-.300006060404485.428391622999698-.143786168124279.118182661437459-.321527274230903.201674326532157-.533033641751899.2506561788814l-.885543310623689.204086333133091-.449544807644997-1.949198587517458v.000002830991434ZM20.705409954611241,30.973210163130716c.194993181485188-.044899559487021.337853614677442-.135253553220537.428949328754243-.270507106441073.090911699482604-.13544039880253.115031765486492-.295923767545901.072173352431491-.481642613793156-.042858413058639-.1855320006689-.134695847469629-.319115267628149-.275885994402415-.401120661052119-.141006132344046-.081818547838338-.309096381053678-.100186034722356-.503905547955583-.055286475235334l-.412252128129694.094991161351572.278855706750619,1.208556856523501.412065282551339-.094991161353391Z"/>
    <rect class="cls-2" x="21.967318337947162" y="28.90926015599582" width=".462912759059943" height="2.000439569950096" transform="translate(-8.399991861049109 8.670881277935063) rotate(-18.65273808749162)"/>
    <polygon class="cls-2" points="24.131314287369605 28.028778584544852 24.952664816692049 29.852742505414426 24.606091741528871 30.008775552118095 23.197901704908872 29.310805388595327 23.696612379495491 30.418244813477941 23.279723083744102 30.606188820747775 22.458372554421658 28.782038054298027 22.807544481764126 28.6247084124916 24.212948820622842 29.323793987518002 23.714424991616397 28.216535746232694 24.131314287369605 28.028778584544852"/>
    <polygon class="cls-2" points="26.605384761905952 28.434462807379532 26.799452208470029 28.751166068404928 25.47883329880824 29.560456564726337 24.433548339788103 27.854859319881143 25.722624318057569 27.065051721947384 25.916688933624755 27.381754982974599 25.020014155921672 27.931301810755031 25.246918297974844 28.301621260758111 26.038956718914051 27.81627004526672 26.226900726183885 28.123325279892015 25.435049150823033 28.608492480796485 25.676983038230901 29.003305687965621 26.605384761905952 28.434462807379532"/>
    <path class="cls-2" d="M26.553339774412962,26.466432450019056l.680718088144204-.602050436249556c.162527346168645-.143787583616358.33377132181522-.240078171056666.513553574355683-.288502317653183.179779421547209-.048237301018162.354179955133077-.046753860338868.523014755179247.004824013198231.16901881463491.051392443452642.319670142387622.152136183925904.452324843423412.30204579133715.132470686450688.149725592824325.213918374121931.311508387660069.244532739588976.485538061073385.030427519885052.173842827836779.010760606914118.347130780912266-.059184753510635.519861028240484-.069945360417478.172359387152028-.186273721006728.330620425869711-.348985081758656.474406593990352l-.680531242560392.602237281827911-1.325442922861839-1.498354353778268v-.000005661986506ZM28.290477119653588,27.093157827030154c.149725592824325-.132654701041247.232285861004129-.280155132842992.247686466531377-.442495633429644.015213759939797-.162340500583014-.04007554628879-.314846129182115-.166422793447055-.457522547787448-.126163232569525-.142676418605333-.270691121031632-.216330380722866-.433773341954293-.220970379334176-.163085051919552-.004453153032955-.319486127798882.05937159908899-.469395735210128.192026300128418l-.316703261027214.280152301851558.821721389494996.928959429429597.316887275612316-.28015513284663v.000005661988325Z"/>
    <path class="cls-2" d="M29.818667315645143,24.577066913559975l.275885994396958-.320598708307443.615039035170412.529693069229324c-.00871946047846.135624413385813-.043229273223915.272175977201186-.103155747072378.408912971102836-.060113319434095.13673699390165-.137294699652557.26011594420379-.231730986246475.369950005328064-.135621582398016.157331057300325-.290912908762039.269763970607528-.466242008269546.33785361468108-.175142253925515.067720199400355-.353251389211437.085903671697452-.533959376676648.054918446057854-.18052397288011-.03116924022288-.345831354821712-.111317501799931-.496111822403691-.240450446726754-.15009645299142-.129500974097027-.253993920408902-.281080867771379-.311508387652793-.45510912568534-.05770131283316-.17402967342241-.06530819280124-.353438234795249-.023007485497146-.538228515124501.042116692718992-.184790280327434.131728966111041-.356777391816649.268465960009053-.51540787520571.114287214159049-.132841546621421.240634461317313-.234141577349874.378484035725705-.303901507684714.138036419990385-.069759930336659.281267713353373-.104826033337304.429877894672245-.105011463421761l.013914333852881.404088957904605c-.20705321449168.010204316658928-.376629734875678.091653419827708-.50854271557364.244716754175897-.083304819514524.096662863112215-.136921008488571.200189470357145-.161227920074452.310023531483239-.024117235012454.109650046533716-.017438920960558.217258946640868.020037773141667.322641270233362.037476694104043.105195478008682.104084312997657.198890044264772.199446334518143.280895437686922.09369456625609.080891397414234.195550887241552.131912980697962.305200933777087.153619624607018.109650046537354.021522629318497.217072101060694.012801753342501.322268994568731-.026159796940192.105196893504399-.038961550282693.198704614176677-.105938613845865.280896853182639-.201302050863887.086829406622201-.101114600643996.143415307953546-.210764647184988.169947380552912-.328763294031887l-.443979074101662-.382380898498013Z"/>
  </g>
</svg>