<?xml version="1.0" encoding="UTF-8"?>
<svg id="Capa_1" data-name="Capa 1" xmlns="http://www.w3.org/2000/svg" viewBox="0 0 34.015748031499243 34.015748031499243">
  <defs>
    <style>
      .cls-1 {
        fill: #d1dbf1;
      }

      .cls-2 {
        fill: #1d3a69;
      }

      .cls-3 {
        fill: #ebf0f9;
      }

      .cls-4 {
        fill: #ec7089;
      }

      .cls-5 {
        fill: #b21d1a;
      }

      .cls-6 {
        fill: #e7295c;
      }

      .cls-7 {
        fill: #f29bb1;
      }

      .cls-8 {
        fill: #e6edf9;
      }

      .cls-9 {
        fill: #fff;
      }

      .cls-10 {
        fill: #b5b2b2;
      }

      .cls-11 {
        fill: #dee5f5;
      }

      .cls-12 {
        fill: #e8475e;
      }

      .cls-13 {
        fill: #ececec;
      }
    </style>
  </defs>
  <path class="cls-9" d="M0,17.007874015749621C0,7.614956225135757,7.614956225137576,0,17.00787401575144,0s17.007874015747802,7.614956225135757,17.007874015747802,17.007874015749621c0,9.392916740709552-7.614956225133938,17.007874015749621-17.007874015747802,17.007874015749621S0,26.400790756459173,0,17.007874015749621"/>
  <g>
    <g>
      <g>
        <g>
          <circle class="cls-13" cx="16.907103378797729" cy="18.360145133834067" r="7.466772562971755"/>
          <path class="cls-5" d="M9.440330815823472,18.396746960124801c0-.109805478869021,3.184358887152484-.988249309808452,7.320365257817684-.951647483518173,4.136006370667019.036601826288461,7.613179868129009.841842004649152,7.613179868129009.951647483518173,0,4.123784616753255-3.342987946218273,7.466772562973347-7.466772562971528,7.466772562973347-4.123784616756893,0-7.466772562975166-3.342987946220092-7.466772562975166-7.466772562973347Z"/>
          <g>
            <path class="cls-1" d="M11.117953541923271,14.528747377984473c-.020358185212899-.179198444991016-.053882876336502-.358067794512863-.058368776421048-.537662593720597-.009726498534292-.389388550551303.051649599028678-.770772185567694.196764935117244-1.133100000604827.407565460232945-1.017619882475628,1.1631379702103-1.630370764765757,2.218848733517007-1.889208682872777.097804858995005-.023979626970686.205518198934442-.008592670374128.293211224581682-.07298583415286h.058968598536012c.068796548323007.024265149768326.137593546542121.024265167341582.206390094866947,0h.412780189737532c.059152155574338.032061698859252.122997612690597.007385837016045.184191840322455.015206877067612.349280251753953.000385300245398.681635014880158.088175945740659,1.000486638386064.218326596721454.384971748240787.15713968507589.778323685119176.269343357487742,1.193866228331899.298753031611341.125345613145328.064354810547229.131738616879375.075721651142885.044650699604972.191435544033084-.230529645057686.306304372381419-.44174171136001.624483343906832-.621666750312215.963401853525284-.372131753412759.700970091407726-.614740171467929,1.443764887980251-.69960335943324,2.232990264155887-.175648339904001,1.633524193341145.360437190500306,3.050168397790912,1.338267131635803,4.32887098714491.043069769617432.05632188927666.091535576304523.099355789727269.163035991794459.117501704593451.035261847047877.008948337550464.097808008260472.005126061239935.074210131289874.076751452281314-.050976669026568.035339859789019-.10958085285165.029249231643917-.166720179522599.031432104133273-.308009161157315-.019640453696411-.544207479480974.120106575102909-.723597143740335.352537505958026-.256453477648392.3322807012064-.384212325980116.713225242334374-.390623775394488,1.135748735512607-.011405280622057.751703543686745.054121882894833,1.499034144137113.11147086049823,2.247305017363033.029979633334733.391167870559002.083761395835609.780505583399645.094933181106171,1.172958343458959.010223857128949.359153607110784-.157850055555173.609719655440131-.483970177885567.752817474494805-.2932422673166.128670705498735-.621473745488402.058475068941334-.864587845187998-.189135193684706-.249243465133986-.253852054232993-.447647479131774-.547197364550811-.621255096662935-.856036930532355-.369564204342169-.657438723674204-.592962568463918-1.366071475827994-.735187780977867-2.104379056778271-.171111826666674-.888258143966596-.264041626660401-1.786275329572163-.352571006560538-2.685003343397511-.071112156363597-.72190814402984-.268387834441455-1.40611809818347-.59661233924453-2.052929939950445-.151058220166306-.297680912573924-.291922276259356-.600697535724976-.467134668197104-.885458470536832-.14622162716114-.277712938024706-.311528237527455-.544690570339299-.472362669594077-.813986942310294-.144938190047469-.242680353983815-.237404935916857-.505015108294174-.324631533230786-.770851366431089-.015868236074311-.048360613200202-.010328907543226-.096770039601324-.013183376961024-.145299137082475Z"/>
            <path class="cls-8" d="M17.130256826059849,19.322637238892639c-.241611901281431-.007048896568449-.322457529548046-.212464755872134-.433938737627614-.367240852756368-.478953402047409-.664960905871339-.849236988020493-1.385096028365297-1.05044474580427-2.18359816273005-.156285321776522-.620228215950192-.205657666292609-1.248154521585093-.142786231208447-1.888258034481623.076567579531911-.779547764865129.304560268365094-1.511000127442458.650733547297932-2.207962924752792.196235521525523-.395088560590011.434708957360272-.766132906693201.711229988246487-1.10993194938419.062770208773145-.078042471544904.002147797311409-.079637729786555-.031126414933169-.108688165722015.060868953756653-.059053066762317.138491086476279-.04289927048103.209907371658119-.04148498100858.298568570704447.005912977321714.590299191819213-.040519008198316.867606188752688-.144420386939601.482964663222447-.180956802880246.96340181800042-.364417486220191,1.488473026283827-.375261514484009h.678138883140491c.214287546490596.061167773692432.438880381050694.075750739422801.651179392951235.147049340690501.393323143614907.132094167249306.751928812778715.321582497466807,1.075330221414333.586536856224484.313176201827446.256575808512935.54263149833605.573003578236239.737109281259109.920810814808647.014855523098959.026567092307232.028943525832801.051288955533892.062320314069439.055985145654631.007658107639145.006960605405766.017253461866858.016440039609734.014786239316891.023638749971724-.065461478890938.190940157493969-.141679940135873.37876594260706-.164680356940153.5819006281763-.259641431515774-.006291954490734-.512858366670116-.06053557100131-.767550056660184-.103352398909919-.024092761143038-.004050371187986-.043318561389242-.021974039760607-.053821803128812-.045981813058461.107826263509196-.243278484436814.033159938991957-.491519719580538.014582886908102-.737073641641473-.007706696265814-.101859772115859-.009973265781809-.205434417319339-.030768298749535-.306180596046033-.028680787328994-.138950946180557-.101361276625539-.20204268696034-.216279680234948-.192473499446351-.1135435253982.009454690183702-.167607371879058.082193899561389-.163824657214718.233013765006035.006624249610468.264175259535477.053418697478264.524994442597745.070098093701745.788433904948761.004791378589289.075676886957808.061583386548591.132485333658224.078519222755858.204243892520026-.015047178243549.064532630074609-.068067269010498.085967025248465-.121710014047494.087536021084816-.202152086769274.005913370978305-.396706351782996.061040124071951-.595696578575371.085273067952585-.067090097716573-.006331319977107-.098581827151065-.05821345716322-.13333619297191-.105694982801651-.14796946808201-.202158871385109-.291602851015341-.407426828933239-.437760143235209-.610882174509243-.094108974009941-.131001929637932-.210730678967593-.163392189724618-.311844513504184-.089740150939178-.096014727972943.069937961325195-.10603838195857.185813646361566-.018802899223374.313893419668602.105052212767987.154239039167805.216765566512549.303876702802881.327313692976531.454296502424768.041542377100996.056528614324634.103379504262193.110728366440526.074087759929171.196365396437614-.295415258733556.144673563258038-.582888076376548.302487775950794-.83925517424359.511146001705129-.718500736540591.584790054917903-1.160673447027875,1.328681686429263-1.310691735592627,2.247316489589139-.119441644950712.731399950247578-.019028746362892,1.433072884306966.306462873066266,2.090715858623298.479792905567592.969404134268188,1.248424509094548,1.609477054556919,2.294798607623306,1.906306322942328.064986390085323.018435644849887.137109909741412.022727607656634.184750159647592.081702955701985.054922245573835.137431888277206.004518742398432.273792135525582-.01377937496909.407076026205687-.08686746886633.632722596566964-.180019966737746,1.264647985783085-.343526998291054,1.883682190275067-.212227928535867.803483330613744-.5556028624178,1.541609155483457-1.081065479091194,2.190413565724157-.190800343614683.235585568509123-.41488839631711.400579596132957-.738067556972965.388158997688151-.396701852834667-.015247715244186-.729874074637337-.339516752546842-.741053058221951-.735792688701622-.008891718915038-.315143442583576.047767120215212-.626075003016012.069318876076068-.939355895707195.034000342295258-.494246960521195.079058196608457-.987611234348151.109830094517747-1.482253199414117.021990853088937-.353511070687091.024528259215003-.706409389451437.025813158485107-1.059862874053579.001340686219919-.36886586005312-.103737620444008-.705674267097493-.296351039713045-1.019115321085337-.131116412503616-.213364538431051-.306927164398076-.367947182065109-.542170806160357-.455029937689687-.045299897663426-.016769247549746-.095356981917575-.028167693006253-.122057332762779-.075859767761358Z"/>
            <path class="cls-9" d="M19.399910818725402,10.895790336928258c-.175072024791007.033736946361387-.3509772545749.063699199450639-.525025319022461.102080514085173-.272566906336579.060106557490144-.534016914560198.154731810711382-.792449928901988.259913580033754-.40000497975052.162801032582138-.818427748854447.219856525829528-1.248501890984699.199161751917927-.403345447914035.000562982701013-.779003476012804-.115151753732789-1.148606371300048-.264522913016663-.340775892178499-.13772088719179-.694425521292942-.230761482734124-1.061380336353977-.267906678897816-.009950321149518-.006214868433744-.01332993016149-.012537267906737-.010171669346164-.018983289071912.003179855762937-.006490001549537.006394803314834-.009743035345309.009679034646979-.009743035345309,1.592152160421392,0,3.184304320842784,0,4.776456481262358.000000070294846Z"/>
            <path class="cls-11" d="M14.033768352121115,10.895790266633412c-.068796548324826.046062055384027-.13759354654394.046844367112499-.206390094866947,0h.206390094866947Z"/>
            <path class="cls-3" d="M14.623454337463045,10.895790266633412c-.000068383995313.009584810688466.00009222841436.019165790277839.000487235962282.028734629831888-.059406795975519-.007858279101129-.125248435888352.023996691204957-.17739303156668-.028734629831888h.176905795604398Z"/>
            <path class="cls-1" d="M20.877611566240375,19.425875590361102c-.028458539345593.262588942883667-.05691797847976.525176985984217-.08536841971727.787765928869703-.529224636182335-.100578594227045-1.006746473283783-.322355199799858-1.429971418454443-.649185018264689-.466904322109258-.36055996725554-.841108740421987-.8045459738114-1.089578386663561-1.344400662788757-.176743833510045-.384013699436764-.279746326012173-.785922274406403-.322704071850239-1.210186846836223-.064932402719933-.641285827179672.056203545687822-1.246084121916283.313261681816584-1.824168322373225.244637443167449-.550153375199443.620240134214328-1.005848477141626,1.103299275324389-1.367837748994134.246619679228388-.184808589241584.499032202651506-.362518793883282.802559962674422-.446594476192331.038295037133139-.012852269128416.063222802844393.012745194999297.09076445678329.031302760387916.17024645420679.114714178231225.279471890242348.074330812252811.340020518975507-.126139617161243.008271764014353-.02738938109178.009455886873184-.057342467647686.032226857376372-.078668439022294.210949327791241-.038534312818228.417918887038468-.101738863837454.636332867747115-.094411484566081.035117880737744.001178265258204.07127591803328-.0286573996691.10695346778266-.044156604139062.087718669647074-.038937640345466.176202160286266-.031414333425346.265006875746622-.004361021115983.277802780892671.046281215704767.555606461573916.092562431405895.833409242470225.13884364711339.102373539706605.035407793367995.210550721083564.041413167115024.315784691312729.06232973742226.082583571504074.309481560838321.110363669635262.622470699034238.060197710861758.940449356468889-.056438390720359.025234401864509-.106193145735233-.003307375742224-.154047545522189-.024050063075265-.854583986569196-.370422933772716-1.691815534435591-.33662372667095-2.511920490742341.105067384467475-.092413770767962.047873605888526-.183429268801774.098238934624533-.263365659868214.166118980767351-.010536533949562.008504744748279-.02179109984354.016077764656075-.033171636254337.02335115697133-.07870188000561.060384857424651-.158115493430159.119925043971307-.231260274060332.187188289168262-.052666473533463.049478593025924-.103511773306309.100796341608657-.153402396519596.15308360589006-.0624894744833.059784252569443-.105000924773776.13628196616628-.1650276756518.198043490907367-.015958664909704.021057611227661-.030158241530444.043344325431462-.045138835355829.065110965317217-.086864769500608.110859959633672-.157760076614068.231397530582399-.217770631283202.358597091599222-.058527701725325.111565839055402-.111776339001153.225380684616539-.151565926340481.345184932779375-.026990982822099.092092744909678-.057887051667421.182976631955171-.077294609374803.27718476566406-.039548443774038.146109841167345-.051820671489622.296151282222127-.065639637188724.445992521663356-.02849992965821.126464438662879-.026923498618999.252978815260576-.000916885408515.37952468425101.010064144511489.047031634358063.012290223503442.094772297370582.013037948501733.142593490925719-.005494114117027.100525057161576.032337531474695.193967026019891.048583229203359.290850213279555.022286883806373.098824018232335.042487155978961.198254939803519.080372788932436.29278429588885.028590808387889.070476818606039.050202850139613.143815845531208.086147637341128.211327430715755.030674720654133.067956077766212.065517265835297.133896192708562.09889585365454.200535888590821.090287568398708.197025386942187.227163532888881.361585719370851.365973144818781.524707749384106.067647967149242.072471186644179.138841104557287.141443118924144.209490769164404.210925227911503.059792805628604.070207333728831.137642585064896.118853177998972.209546556105124.174574012526136.101455754514973.07386045092062.208327341462791.139205359702828.316585503887836.202375494040098.054374273826397.037923135511846.114524295851879.06466107403503.175338362456387.090102425891018.075101822589204.029783702486384.148817969495212.063014471954375.226126075707725.087091753448476.032908897746893.011647685227217.066422453974155.021287955562002.099757851903632.03167954433593.057287791922136.027685409557307.131187495862832.024306726047143.168471169707118.089473477883075Z"/>
            <path class="cls-7" d="M20.134447602067667,14.261439525467722c.893634846803252-.501714031030133,1.799286381130514-.50109835481453,2.715358376568474-.06497037428926.395048039908943.227638239051885.740166765661343.512005743939881.997066538855506.892914293766808.530074037378654.785949267881733.645121110876062,1.630143710262928.344777705564411,2.529470079491148-.028122917898145.084211549477914-.053255835595337.16731636640543-.05221028030428.256654427013927-.111595481332188.189473511924007-.206717618213588.389305770559076-.348376863190424.559922989285042-.068330007517943.082300411322649-.130514453388969.171780187682089-.232531676490908.218500497272544-.138861799710867.114349766294254-.25967292414316.250614636590399-.416544908614014.343099686700953-.300463977091567.041411592494114-.462664514427161-.076707362939487-.552831511047771-.402170411696716-.010816368452652-.044653509054115-.012136359511715-.089558057443355-.002596792226541-.134612869516786.008701863349415-.034867473947088.019045842365813-.069497855183727.019456146332232-.106040724249397.002029025114098-.03691492915641.003311225018479-.073910388853619.014908610675775-.109555274927516.005162091822058-.014511693113491.01250437338058-.02779923205253.021472574391737-.040265269514748.22075433295322-.229181366142257.445720580117268-.450131971325391.586968621335473-.747198782306441.527154220759257-1.108698122548958-.237642480320574-2.472819319686096-1.459641074337924-2.605711804953899-.364313033369399-.039619225633942-.702795812247132.023268826869753-1.030814040326732.166930809584301-.337289658125883.147722251511368-.63603053850602-.02445294071731-.671574019635955-.394835384273392.000412103549024-.124846854569114-.019742279362617-.253455924965238.06711259245094-.362131887386568Z"/>
            <path class="cls-12" d="M22.789609167564777,13.25600742270035c-.119351666015064.050583076119437-.223821715038866.025774721292692-.315790989841844-.06233131204317-.063541328296196-.115273618033825-.038024200521249-.223526232759468.01912682341208-.333581786788272.042482657032451-.081810254770971.074421581797651-.169096473728132.111051108742686-.253932584775612.063264193160649-.137488911996115.124525455099501-.275959486763895.190349549122402-.412225819207379.07111035678281-.147209375454622.194328417877841-.200860147735511.32169720750062-.145106358668272.125041934223191.054735347683163.173085289785377.190219431666264.110109029232262.333960145353558-.107775875299922.245996277659287-.221139442814092.489539860533114-.330866061551205.734690792480251-.024641632680868.05505567027285-.062852089611624.098160653542436-.105676666617001.138526923648897Z"/>
            <path class="cls-12" d="M24.509306476333222,13.282658307263773c.003391306274352.091750377649078-.033728605894794.157005983008276-.102014523732578.206303719742209-.226518383888106.163526707216079-.450953755300361.330052839592099-.680380258552759.489391283942496-.121594841006299.084449092072646-.261412217067118.057785835501818-.338427891725587-.051287380921167-.076608969846347-.108497805471416-.051903452114857-.243330896772022.07075583976075-.334045174804487.220663454219903-.163194237557036.444947661011611-.321492308325105.667822797597182-.48169229447376.082174167322592-.059065776193165.170347230618063-.076140949811816.262079860805898-.026554382880931.079406415110498.042923677085128.122199499486669.111286456571179.120164175847094.19788422939564Z"/>
            <path class="cls-12" d="M20.632122022505428,13.197763147985825c.018199140533397.127424281710773-.015500672101552.232378293574584-.138027694931225.290718620079133-.145298893126892.069182481394819-.235777216881615-.024832199060256-.324981438834584-.117207250754291-.142705700060105-.203686927115996-.28563004894022-.407213243042861-.428039718282889-.611098797162413-.106745616430999-.152825593240777-.099294460356759-.287887341783062.019770172835706-.373884959639327.120211864687008-.086826430067958.252977591173476-.05279474164945.360910029832667.096801194569707.171274913494926.237392331882802.340357940000104.476366481505465.510368649380325.71467119290719Z"/>
            <path class="cls-12" d="M21.640415233781823,13.054834038164699c-.08769617490907.040930433771791-.176036599035797.042500329389441-.265016773428215.004348874052084-.075241289947371-.058329079221949-.105548896523032-.138509377889932-.113887244951911-.230308118851099-.023092195322533-.254225576469253-.04803255808838-.508287167569506-.070190772008573-.762592262324688-.015092167714101-.173209829696134.053818203970877-.275415118318051.193103804493148-.293095451943373.149697963533981-.019002057970283.251156417414677.06253033269968.27206572364048.239392492274419.031688783312347.268049948181215.051764884547083.537462841988599.077752602179316.806201911140306.009232739099389.095469403908282-.022151915392897.173426339872094-.093827339924246.23605255565235Z"/>
            <path class="cls-4" d="M22.615035626104145,18.444285700896216l-.000402205865612.145440852833417c-.044597162135688.169528031938171-.013365471841098.305638139638177.157905842499531.390957321445967.069953227604856.034847678727601.07394739278061.097516634175008.004694201332313.135682710983019-.080817284901059.044539236669152-.120029207437256.128066951403525-.192067247100567.178475469703699-.007613118164954.0056002466481-.01610982953207.007816411090971-.025489234301858.006648493328612-.106194045527445-.022758200264434-.204147819669743-.019341725886989-.270293138506531.085099634862672-.048868462448809.019697139997334-.097736924897617.039393380217007-.146594589874439.059085121517455-.039064357075404.001456747962948-.078142210992155.002917994842392-.117219165120332.004380141497677-.076124883144075-.041378300536962-.148323985109528-.053463280087271-.207998918327576.027880662373718l-.009992161356422.00403012607967-.010209910395133-.003440768507062c-.173117682201337.018785660267895-.346230865454345.019022303084057-.519340449553056-.000109773467557l-.010280093967594.003786285007664-.010267496914821-.003818677183517c-.060191412339918-.073019154222493-.128799454783803-.086076798721479-.207240395859117-.029091769694787-.058317151006122-.00213968292519-.117853516652758.004677069743593-.172629996344767-.023451032836419-.061197376891869-.019647651954983-.122396553362705-.039329495652964-.183594830046786-.059012239130425-.014779940789595-.050474202425903-.06160678107517-.020302693659687-.090259674929257-.035866232581611-.087733066275177-.001617809040908-.157491939371539-.051166135221138-.232346319877252-.087126844970044-.031564612370858-.081545493756494-.096825438224187-.099418774507285-.175116114471166-.092670405316312-.120915500003321-.048393905150078-.22611797760328-.12185755196333-.325765155410409-.204184956763129.003500180793708-.14568109477932-.123977483350245-.136728258314179-.20943138306211-.177388532370969-.078143110782548-.057813728762994-.146734957015724-.12515345547763-.203612444971441-.204174159376635-.018575252504888-.178880371851847-.153397897573086-.295913289734017-.23481624179658-.441360441045617-.031676186259574-.056590474374389-.100100671663313-.056130685487005-.14440360266417-.093107249747845-.041880697919623-.063328945954709-.080531151868854-.128210466720702-.097726127423812-.203399896478004.046156497177435-.101184147889398.00993097567698-.167290722607504-.088164065400633-.207053013671612-.048098242716151-.09332859625647-.074408984746697-.192595307513329-.081016138357882-.297232820861609.046544306409487-.067094985857693.066914638780872-.132562714959022-.016163816893823-.187785519841782-.039596132617589-.026319989523472-.018860485750338-.073092936395369-.039289304431804-.105406377546387-.002161294152756-.047872031269435-.004321688516939-.095744062537051-.006482982671514-.143616093802848-.020479206887103-.131435287416025-.020380230052979-.262874623849711-.000075582309364-.394317559412229-.00783896530811-.159633573030078.012362206654871-.315270311930362.066431451867174-.466079717403773.142521243233205-.052822634906988.070723447341152-.172363246780151.082748232967788-.265809714552233.022512730945891-.129623575230653.084356156634385-.242475203560389.150704827879963-.353405796126935.158069604169214-.067200710308498.231792049600699-.187351374758691.224834877908506-.358148999889636.005117102356962-.022709162110914.009162555525108-.046083713428743.034801154870365-.056051954508803.145875658135992.00481698592921.136727499242625-.123360638729537.178395846858621-.207942898619876.038564973956454-.058538953506286.086418473953017-.107766057306435.145801875403777-.145433654575754.127231121847217-.009754542719747.213371560874293-.068530813874531.238593557724016-.199985446613937.005894520401853-.006007848147419.013043347233179-.009239192262612.021447380289828-.009694257289993.133356888121853.006671887676021.184924718791081.096217573108333.212678723028148.209892277533982.033240920038224.328451001692883.318621727312348.488525918064624.61367437091576.344221040712,1.097614405853164-.536825346049227,2.456208230069024.134123387808359,2.681799830872478,1.336414192795928.120620369076278.642842001114332-.048710099512391,1.212756175931645-.510910322605923,1.685820005557616-.078656890536877.080505795011049-.163278485042611.155183698381734-.245144024600449.232553301282678-.469017927425739-.031839255741943-.675090396636733-.331497440492967-.527007555087039-.765878718122622.149301156405272-.170425565040205.285190951708501-.346600290744391.341672532324083-.574951607475668.137650683172978-.556505165232011-.297700723824164-1.118968240676622-.870324002653433-1.130638420467221-.176867104657504-.003604528930737-.338294722892897.045763840729705-.504122311322135.087024269756512-.410763761679846-.020339134855021-.559841770313142-.198452891970192-.562497948640157-.685340530939357-.130498257181898.049017904359062-.220622963699498.14244367712854-.311274946809135.233587151440588-.350207934630816.352105610332728-.531336441919848.788348088186467-.528561491390064,1.27375783430216.005463521276397.955526337967967.67729128152132,1.696345661934174,1.551082172756651,1.844539849396824.392260492328205.066527223063531.759808268610868.004108407163585,1.11652527980732-.162251040490446.095490150750265-.04453248830032.177834378269836-.124732357242465.293853224324266-.119697174040994-.001146331704149.039081155666281-.002291763616086.078162311334381-.003438095322053.1172434670043-.019465144225251.026290296693332-.031478232589507.054778762187198-.026075896994371.088404086307492Z"/>
            <path class="cls-4" d="M22.58516621696981,19.294842055862318c.02058628182931-.043774421495982.030052066382268-.112170492931909.063571021348253-.127308434708539.209630236522571-.094667022811336.101560130084181-.155985404640887-.007716593949226-.244644579308442-.121496763960749-.098571179336432-.119329171278878-.185809597342086-.02639802160229-.333148091593102.061231568890435.284083848433511.262779896964275.386506097122037.527366571057428.407302771409377-.172306072156061.124131302489332-.354333469060293.230093295765982-.556822976854164.297798334200706Z"/>
            <path class="cls-4" d="M22.289383844161421,19.386590184053603c.058496209092482-.164022262458275.117729345713087-.182677454256009.270276942295823-.085110432256442-.084887932171114.044873056000142-.171972250285762.082810588033681-.270276942295823.085110432256442Z"/>
            <path class="cls-4" d="M21.05024066279293,19.449291531676863c.008994294905278-.067131876943677.058125495859713-.091705838412963.113823359901289-.084422998379523.057689997787747.007545576539997.089430968886518.053133959672778.093416136167434.113504870469114-.069989219184208-.003207724823369-.142387174606483.010731706579463-.207239496068723-.029081872089591Z"/>
            <path class="cls-4" d="M21.817571170839074,19.477936109442453c.064784837255502-.150954720356822.103987761902317-.156213049633152.20799531916964-.0278878606332-.065222134906435.039941347791682-.137894526100354.024324721700395-.20799531916964.0278878606332Z"/>
            <path class="cls-4" d="M21.278028649534463,19.478415693547504c.173069993363242.000031492389098.346140886515059.000063884561314.519275664715678.000103474992102-.173057396312288.040844729483979-.346170579565296.03813278484904-.519275664715678-.000103474992102Z"/>
            <path class="cls-4" d="M19.078264899218993,18.030949437537856c.092754790954132-.004576294095386.183500352160991-.00562004186213.189179822895312.123060561245438.001305594429141.029585750320621.023927199892569.03934254250089.043162897822185.054249690041615.117099493132628.090751619012735.17319056514134.207137593233711.146881622691581.357143942772382-.156685728063167-.156662491017414-.28392764738237-.334225581207647-.379224343409078-.534454194059435Z"/>
            <path class="cls-4" d="M19.274066272353593,15.048693927950808c.084753863553487.171743296601562-.029370925800322.353517369167093-.22484747496128.358148999889636.060156320550959-.128674304630295.124550649206867-.254681203864493.22484747496128-.358148999889636Z"/>
            <path class="cls-4" d="M20.105784810528348,14.639477993876426c-.050614053896425-.090478759944745-.129937688381688-.151870249106651-.212649029977911-.209875856504368.065358902895241-.077699373206997.158407025195629-.115689092626781.241323518781428-.168182857012653-.029991780493219.12448446714734-.028783363321054.25131331774719-.028674488803517.378058713517021Z"/>
            <path class="cls-4" d="M19.871658707210372,14.439279973632438c-.001136434020736.216583285588058-.020195773226078.232560274596835-.238584559829178.199988595853029.066704088059851-.081956919330878.15294350392287-.140616218751347.238584559829178-.199988595853029Z"/>
            <path class="cls-4" d="M18.75590544671104,17.030071809138462c.032060396340967.026560681359115.036396481491465.069347141605249.081378753491663.095140758330672.100068279247353.057382732915357.085400812136868.135297154157342-.02592923132579.198051588949966-.035694645748663-.094475369127395-.055918312444192-.19187683113887-.055449522165873-.293192347280637Z"/>
            <path class="cls-4" d="M19.661097188651183,18.769591287707954c.028634898069868-.000507477363499.057278794029116-.001770772074451.085901994834785-.001397362314492.157031247195846.0020479051027.17482548249609.027958043671788.123532087596686.17878229555663-.07442608074598-.053679227902649-.153997157314734-.101285823317085-.209434082431471-.177384933242138Z"/>
            <path class="cls-4" d="M19.487263274082579,14.784699074822129c.000359015972208.028595089725059.001401871895723.05720097683934.00096457424479.085783919497771-.002389840665273.156298079084081-.028545818917337.174015697451978-.179355022366508.122162578249117.056713726280577-.071673529406326.1031824503807-.152137484526975.178390448121718-.207946497746889Z"/>
            <path class="cls-4" d="M18.898526566565124,15.760248723967379c.010597719627185.025776970749575.01978996820435.052242275156459.032028903709943.077214390408699.061213573102577.124896567556789.031402650280143.174265837002167-.114787934147898.188594874252885.016538129289984-.092044156652264.037935121372357-.182573079477152.082759030437956-.265809264661584Z"/>
            <path class="cls-4" d="M18.892374706394548,17.620496527388241c.057392167494982-.000030592605981.125507125345393-.018522023976402.147488080749099.059362254549342.017009618941302.060266536012023.009988562202125.118397888019899-.059300620821887.147678162165903-.047947977884178-.061112331624827-.063959730372517-.135825776409547-.088187459927212-.207040416715245Z"/>
            <path class="cls-4" d="M20.196293727123702,19.151164776842052c.129729837028208-.079359921921423.165122153535776-.060634547084192.17511971363092.092660507711116-.06269012751909-.022727607660272-.124779195713927-.046594340035881-.17511971363092-.092660507711116Z"/>
            <path class="cls-4" d="M18.749346881730162,16.492138155923385c.000031492631024.131410543390302.000062985260229.262820636891774.000084580206021.394274369846244-.038417408495661-.13138849871757-.036310101704657-.262828285043724-.000084580206021-.394274369846244Z"/>
            <path class="cls-4" d="M20.60375616147212,19.330962027128407c.041335425537909-.016425530617198.091424002421263-.054925426748014.090266873243309.035831141061863-.030093456693066-.011920319340788-.060180614864294-.023875730199507-.090266873243309-.035831141061863Z"/>
            <path class="cls-4" d="M22.615035626104145,18.444285700896216c-.099428528981662-.061413308889314.001633117772144-.063607878550101.026096592151589-.088412634244378.001077947708836.032364278862588.005729858938139.065768706364906-.026096592151589.088412634244378Z"/>
            <path class="cls-12" d="M22.143194159521954,17.472632560124111c-.025701584603667.113995251962479-.045667911528653.229477394605055-.026304443505069.345755394918342.032409514626124.194611720226931.168743805897975.324313126647212.369088215744341.360838899848204.056433891777488.010289463451045.115522162303023.014311041597466.159213236504002.059253830746457.000012597054592.000005398696885-.000659545630697.000142615532241-.000650547739497.000149813797179-.353866478357304.228707630622011-.738555242831353.369776440005808-1.162642186249286.349292890050492-.93534368494511-.045178082289567-1.659471704433599-.686269556435946-1.807643625134006-1.582120515526185-.125372156933736-.758008320079171.147246937189266-1.384347409277325.765892644574706-1.849641616507142.034605900566021-.026028010082882.071530558434461-.082875822268761.124549749412836-.051533696392653.017324545231531.010240875197269.015046278454975.063960143424993.011942904791795.096871939975244-.038676547841533.41022076624904.098566530727112.579666018189528.50553408090127.621212128176921.00036441471093.066894334351673-.05818308238122.085800565477257-.098581827147427.117617326655818-.320943183982308.252760617991953-.450460670706889.659067330108883-.330442260743439,1.04151270854527.111149185786417.354182758366733.465505149584715.631886698565722.846087275203899.653620046496144.169384455957697.009672662510638.329836702474495-.036544218741255.482585851885233-.110989978216821.050551068636196-.024636046462547.094868396266975-.074769681192265.161370931500642-.05183917256727Z"/>
            <path class="cls-6" d="M22.143194159521954,17.472632560124111c-.57609556614625.371104519059372-1.213049288582624.203727867222369-1.494078714285934-.392609322225326-.182950580834586-.388217033660112-.039125542758484-.924263392957073.31421365901042-1.171789525911663.039973144374017-.028002582908812.079235455119488-.057019670655791.118836986472161-.085543677556416.232255441145753-.095331962125783.473030088389351-.13770722173831.717397594731665-.068695249141456.388339210096092.109669997204037.631177074446896.368960337225872.705390804892886.765891764969638.072079429968653.385514086854528-.067491403793611.701063331377554-.361760330821198.952746009865223Z"/>
          </g>
        </g>
        <g>
          <path class="cls-10" d="M31.32256356175094,14.251051814402672c-.198937101820775-.21886623474893-.38339231405007-.450656800872821-.713519202539828-.486618102553621-.430634557316807-.046908698781408-.715994593208961.178137206477913-.95461220845209.488437200991029-.261405681578253.339934060704763-.510318503862436.689475725928787-.800853107924922,1.083951755746966-.146494835405974-.491757842095467-.259438881363167-.918181156434002-.400503317394396-1.335089699305172-.349924613094117-1.034183425770607-.82967588270003-2.001604711993423-1.438120404322035-2.913695066890796-.500495606092954-.75026922924917-1.069454700427741-1.437031463832682-1.726514070527628-2.04439907255437-.699988365160607-.647049972527384-1.444029194455652-1.234963775164942-2.289453554518332-1.704175664495779-.600944685860668-.33352508740245-1.204647029151602-.648113945229852-1.845146018700689-.886575512777199-.804286889193463-.299440664801295-1.62856380026642-.524912516370023-2.483388624637882-.648372762176223-.992748790375117-.143380357045316-1.985991174247829-.187456729934638-2.980308512698684-.08279232105815-.538624567892839.056696947784076-1.078582071671917.12174763657822-1.607483704372498.26837986391547-.438260559047194.121503149250202-.88130348701452.219551274714831-1.313444311623243.369712439056457-.842179424817004.292642771757528-1.640675672340876.676571675841842-2.388318371129571,1.152944251552981-.911276217975683.58063400303763-1.756689131208987,1.249628494593708-2.490159003062217,2.052176517405314-1.039908850734719,1.137849065025875-1.882935613546579,2.404386949388027-2.426415171807093,3.847708365072322-.498595279252186,1.324118856116911-.770192955673338,2.385374382018199-.85289194993311,4.119767626592875-.015545625314189.578547112419983.041786947846049,1.200744658732219.070264508500259,1.409988837078345.105700032010645.247627196140456.299056826986998.390391701090266.574948112098355.474348755966275.524380181324887.15957632077334,1.171006163254788-.24548160154518,1.139734221838808-.789874515907286-.052226858337235-.909122911466511.027916573701077-1.805082972141463.172958430461222-2.699077425901123.106953710042944-.659230298873808.320884383683733-1.286520214893244.563717736600665-1.906073265441592.34468150875-.879401676907946.819814820681131-1.688269035608755,1.37632935801048-2.443915383637432.373269207279009-.506831026817963.820903471447309-.9567858223445,1.274551293383411-1.396891019599934.51972208377083-.504205497803923,1.120679041987387-.905023957897356,1.722623773468513-1.29191805496157.44342387483448-.285005784759051.937553064137319-.499086719812112,1.436873936883785-.695378754373451.997360778981601-.392080066492781,2.026537164980255-.616839139733202,3.088987042232475-.712393185554902,1.259184725615341-.113248452669723,2.487392592340257.023512433637734,3.707319600967821.366267985058585.690558365402467.194021511484607,1.349765740207658.461328820199924,1.973525437872013.78548233624133,1.018570853741039.529326951792427,1.922082899209272,1.232169324783172,2.726654085725386,2.064523169106906.719942567144244.744803303196022,1.296432894636382,1.589024009621426,1.771263364335027,2.495395401887436.327837022892709.625786722341218.576081651348431,1.297775602966794.764728033589563,1.984972213236688.005830047177369.021236892265733-.011326921561704.048783476153403-.028671900929112.115052245195329-.291602640951169-.220566546950067-.567093282514179-.4299221616875-.843613673911022-.637907579612147-.627599876679596-.472053605166366-1.316382167964548-.119225986671154-1.471907774361171.48195951388152-.114453222760858.44242142672374.110669696074183.732624417341867.417692601036833.969982082055139,1.078855995921913.834057605990893,2.170198476673249,1.651946277128445,3.252508535701054,2.481572104601582.161149044033664.123526222312648.25723897331045.085140332719675.365065620640962-.064482438485356.400757902310943-.556114931476259.799852218269734-1.113792026748342,1.215704304602696-1.658567259974006.442533081375586-.579729241007954.862729768357894-1.177011542959008,1.340267971956564-1.729806487714086.101351208662891-.117321125862873.114681390699843-.273580261960888.16368142441388-.413819690384116l-.064074511474246-.470799401284239Z"/>
          <path class="cls-10" d="M17.742249830884248,28.743889477085759c-.045323150759941-.39555172143082-.045061952923788-.387694783341431-.501362334678561-.372566362888392-.323229776322478.010713468762333-.647768022005039.0060541843377-.970765160569499-.010447071228555-.161859702080619-.008269769579783-.222062569673653.047324121851489-.231117854867989.202396593187586-.026520349738348.454118454490526-.056535659641668.908123960274679-.093887906426971,1.361456500015265-.010931233697193.132674688331463.028278376465096.193718828504643.163066056189564.208515231972342.523951947601745.057519258733009,1.047303467854363.018968156662595,1.570706095659261-.003305753638415.121590293294503-.005174405992875.154550347806435-.077897504566863.144528669197825-.197709425981884-.031979601644707-.382332344013776-.053170328512351-.765568810802506-.08116756450363-1.188339711437948Z"/>
          <path class="cls-10" d="M10.174274680539384,26.024804209504509c-.034008987371635.02855313773216-.083562649593659.054343935898942-.110332117692451.095100084341539-.245030267671609.373069571713131-.580137877381276.670036396024443-.855009929409789,1.017811986406741-.122404977308179.154871801410991-.112124113429672.267484399160821.056374763307758.387737215200104.377490311258953.269400353023229.745996007737631.55044111433017,1.142110333617893.794095985715103.154348922427744.094943491945742.240842251498179.084163831528713.332082470042224-.072557436655188.228099058580483-.391802154988909.465773380168685-.778037729458447.700444912576131-1.166002790669154.039514835230875-.065324335842888.064634152293365-.126484657876063-.012475441209972-.182965821057223-.387774883784004-.284037649864331-.775119759387962-.568667142713821-1.163811204265585-.851446746004513-.019266523180704-.014016488947163-.049716593564881-.012657614111959-.089383786966209-.021772477277409Z"/>
          <path class="cls-10" d="M7.749344811247283,25.997564634884839c.045794296627719-.028431925811674.103915356012294-.053970872433638.14895576912204-.094166567947468.332423266399928-.296655149728394.661284305866502-.597298549460902.993399786006194-.894303670484078.111598235924248-.099799116120266.118252632159056-.183088075742489.017027553383741-.306943964511447-.249708097086113-.305540289686178-.487510774544717-.621307164201426-.719026367440165-.940984902214041-.099208793539219-.136985264140094-.195452615222166-.155102226002782-.331602462469164-.06511909865003-.365189697400638.241353457857258-.732822728665269.479007026859108-1.099486652155974.718130289076726-.121440873948814.079197755172572-.160572122353187.168833506881128-.07406732295749.307585147336795.270436756800336.433774449031262.613982713875885.810600106055062.927362344886205,1.210869047450615.03152658910949.040265931511385.064536050020251.087437188327385.137437351624612.064933719942928Z"/>
          <path class="cls-10" d="M24.730021304134425,24.817078687774483c.025588110082026.03799291818541.039986527213841.072409662963764.065122686741233.094734400754533.36554343354328.324673735069155.716871064285442.665237952092866,1.106713022465556.962797187117758.121097110219125.092430123562735.184568271368335.070187332754358.275690852948173-.035007012875212.327814949370804-.378435674503635.614943085363848-.786425794058232.900935553165255-1.196040169776097.085247501252525-.122096761495413.070366729338275-.198814283847241-.056826810516213-.275263857754908-.382446612609783-.229866618956294-.759774082262084-.468244378842428-1.141899468948395-.698653890336573-.112627849228375-.067911861329776-.236448198944345-.095646131894682-.32251932055442.041482675775114-.223156127101902.355530321956394-.497747622242969.671819731891446-.753397499627681,1.002587725282865-.025622388769989.033151439069115-.048796980230691.068195700443539-.073819015673507.10336294181252Z"/>
          <path class="cls-10" d="M19.853188768211112,29.779711479975958c.490900691291245-.097585085546598.94810327610503-.279097194072165,1.413269567874522-.43546290017548.157260860178212-.052862152409944.209057713260336-.151738544289401.146814298190293-.303773958099555-.168773710549431-.412253668526319-.339690458227778-.823635202204969-.511360114058334-1.234694760414641-.062803513537801-.150380363464137-.185691552425851-.141097728428576-.31031830871143-.103504361011801-.3857809066958.116375307088674-.769585454154367.239387156198063-1.156243046360032.352707873078543-.09578998451434.028072152999812-.163036401660065.04878164233196-.133310307575812.173235241547445.115944719684194.485422394671332.227558484481051.971900875514621.3372152348893,1.458790412507369.031903079601761.141656068701195.123309853166575.122177007580831.213932675751494.092702452568119Z"/>
          <path class="cls-10" d="M23.523283710052056,25.992940844111217c-.019017451713808.009688859390735-.053045766311698.021415778257506-.080552235613141.041900380090738-.328374292192166.244573671216131-.631340318584989.522288435584414-.989618622363196.728411068588684-.121942447405672.070154049715711-.196233951195609.173952018347336-.087794607106844.343594006486455.244188964989007.382009868268142.46678329317001.77796168561872.693146532690662,1.171129076292345.051215204546679.088954191389348.116422661720208.103984730541924.194418991075509.061272881581317.484169383475091-.265136322783292.90286145416394-.62382547757079,1.344394521747745-.94974282221483.076179881409189-.056231772230603.076269639352176-.132255103468196.014164744710797-.205771487750098-.320748177437054-.379681224188971-.640958555824909-.759819371642152-.962694803112754-1.138660448737937-.027402190016801-.032266488509777-.060336734552038-.065136102488395-.125464522028778-.052132654336674Z"/>
          <path class="cls-10" d="M14.466191022758721,28.295078467685016c-.00882972335603-.150849797211777-.056990121333001-.203911700418757-.158923812450666-.229906103691974-.406251493634045-.103592504947301-.817337418344323-.192636346011568-1.195759476855528-.385228873330561-.139775687945075-.071135641608635-.210571261119185.018798255907313-.258188784890081.137045193394442-.166267358526966.412882230164541-.33088862141085.82643796983939-.499516510933972,1.238355314981163-.051705051304452.126300613099374-.039508658406703.194864985025561.104319343705356.262467078182453.438749914816071.206218925626672.904248418321004.32583040166719,1.365562087821672.460438705205888.097810452400154.028540881212393.205849270520048.074663221103037.265344306420957-.070012603611758.193645845052743-.470883438631063.234533876393471-.98059986203225.377162847182262-1.413158711129654Z"/>
        </g>
      </g>
      <g>
        <path class="cls-2" d="M25.749431041413118,20.949227462400813c0-.865154640112451.343402763846825-1.355757150631689.804755260187449-1.355757150631689.46420152369501,0,.804945195344771.490602510519238.804945195344771,1.355757150631689s-.340743671649761,1.355947085785374-.804945195344771,1.355947085785374c-.461352496340623,0-.804755260187449-.490792445672923-.804755260187449-1.355947085785374ZM26.921710830385564,20.949227462400813c0-.595446717179584-.150238709184123-.842552356431042-.367524528784998-.842552356431042-.21462672740563,0-.364865436587934.247105639251458-.364865436587934.842552356431042,0,.595636652335088.150238709182304.842742291584727.364865436587934.842742291584727.217285819600875,0,.367524528784998-.247105639249639.367524528784998-.842742291584727Z"/>
        <path class="cls-2" d="M27.523045537431244,21.923025012312792c0-.217095884445371.115480575454058-.359547252190168.260401100240415-.359547252190168.144730589630854,0,.260211165083092.142451367744798.260211165083092.359547252190168,0,.213487116463511-.115480575452239.367144658472171-.260211165083092.367144658472171-.144920524786357,0-.260401100240415-.153657542008659-.260401100240415-.367144658472171Z"/>
        <path class="cls-2" d="M28.920968292915859,19.638484943976437v2.621674972002438h-.434571639207206v-2.134871164624201h-.375501805378008v-.486803807378237h.810073444585214Z"/>
        <path class="cls-2" d="M30.651657443453587,21.765758702320454v.494401213658421h-1.419195493068401v-.393165774979934l.72441268878174-.955183904527075c.166193262368324-.220894587586372.195823146859766-.355748549052805.195823146859766-.483005104239055,0-.206079645337013-.101995179305959-.325928729402222-.300477418364608-.325928729402222-.161065013133339,0-.297818326169363.086230561275443-.388987201526106.262110516652683l-.316621906713408-.284522865178587c.144920524789995-.295918974597953.407790782070151-.48699374253556.745875361522849-.48699374253556.418427150860225,0,.697441896485543.299717677738954.697441896485543.77531531085333,0,.254703045531642-.050902622075228.486803807378237-.313962814514525.827737414185322l-.431912547008324.569235665512679h.807604287545473Z"/>
        <path class="cls-2" d="M30.826397787888709,20.331368396695325c0-.441979110328248.193164054662702-.722893207523157.466860615893893-.722893207523157s.464011588537687.277115394053908.464011588537687.722893207523157c0,.445587878311926-.190315027306497.722893207521338-.464011588537687.722893207521338s-.466860615893893-.28091409719309-.466860615893893-.722893207521338ZM31.489081550644187,20.331368396695325c0-.280914097194909-.077873414367787-.415768058661342-.195823146861585-.415768058661342-.115480575452239,0-.195823146861585.138652664607434-.195823146861585.415768058661342,0,.277115394055727.080342571409346.415768058661342.195823146861585.415768058661342.117949732493798,0,.195823146861585-.134853961466433.195823146861585-.415768058661342ZM32.411976478484576,19.638484943976437h.319280998906834l-1.282442180030557,2.621674972002438h-.319280998908653l1.282442180032376-2.621674972002438ZM32.10352178352332,21.567276463261805c0-.441979110328248.193164054664521-.722893207523157.464011588537687-.722893207523157.273696561231191,0,.466860615895712.280914097194909.466860615895712.722893207523157s-.193164054664521.722893207523157-.466860615895712.722893207523157c-.270847533873166,0-.464011588537687-.280914097194909-.464011588537687-.722893207523157ZM32.763356518922592,21.567276463261805c0-.277115394055727-.077683479210464-.415768058663161-.195823146861585-.415768058663161-.115290640294916,0-.195823146859766.134853961466433-.195823146859766.415768058663161s.08053250656485.415768058663161.195823146859766.415768058663161c.118139667651121,0,.195823146861585-.138652664607434.195823146861585-.415768058663161Z"/>
      </g>
      <g>
        <path class="cls-2" d="M1.820260352240439,21.77164669218655c0-.667432141679456.367334593629494-1.145119061520745.861640839708343-1.145119061520745.274361334280911,0,.503328166038045.139222470077584.652997069750199.392216099195139l-.235804497409845.303706316035459c-.106553623072614-.170751706140436-.2403629411765-.259451424455619-.39905376484603-.259451424455619-.297058585538252,0-.5078866098047.291170595673975-.5078866098047.708648070745767,0,.417667410234571.210828024266448.708648070749405.5078866098047.708648070749405.158690823669531,0,.292500141773417-.08850978315968.39905376484603-.26249038696551l.235804497409845.30370631603364c-.149668903712154.256222526784768-.378635735469288.395444996864171-.655276291632617.395444996864171-.492027024196432,0-.859361617825925-.47768691984129-.859361617825925-1.145308996681706Z"/>
        <path class="cls-2" d="M5.036717268374559,20.664514662064903v2.214453995402437h-.367239626049923v-.907890050435526h-.721088823531318v.907890050435526h-.367239626051742v-2.214453995402437h.367239626051742v.873131916705461h.721088823531318v-.873131916705461h.367239626049923Z"/>
        <path class="cls-2" d="M6.411942772596376,22.87896865746734l-.38309921166001-.768667580356123-.376451481162803.768667580356123h-.421656048529258l.58718453784968-1.126315480978519-.557744588513742-1.088138514423918h.417192572336717l.365055371747076.718144828599179.358217706090727-.718144828599179h.396774542961793l-.553186144747087,1.069144998724369.591742981618154,1.145308996678068h-.424030237991246Z"/>
      </g>
    </g>
    <g>
      <path class="cls-2" d="M6.073415402532191,10.132311399604077l-.052223722648705-.138548773296861c.229581156685526-.022809755260823.512197391895825-.177784511077334.705410039379785-.423906823822108.287930825841613-.366432758039082.255643414686347-.654418603962768.056564961118056-.810611436789259-.549767592698117-.431772628509862-1.118486177665545.971599688239621-1.794109222859333.441035456364261-.259106901617997-.203722281641603-.330660507188441-.581650596897816.022922206129806-1.031895600723146.158374948106939-.201583934414884.385743000853836-.361567015732362.598946979918765-.422981054220145l.068261010301285.134071656359083c-.224003702967821.069524033689959-.419720373440214.216426277673236-.549309526995785.381462098848715-.279730081556409.356124009647829-.240149765972092.64540761263379-.038472332786114.803799198651177.549861091474668.43178926642031,1.123750688546352-.967576176963121,1.788877987803062-.445245965192953.259140177440713.203535284093959.321916123964911.587425470894232-.033755205859052,1.040192593472966-.213891196523036.272345039684296-.521626356392517.454102799287284-.77311317350177.47262865034827Z"/>
      <path class="cls-2" d="M6.727656420895073,7.911712513934617c-.450078886478877-.504126364168769-.402307532771374-1.224666121608607.116581843625681-1.688323149632197.516266714375888-.460844103723502,1.238230802713588-.43191826563816,1.690534673711227.074340300076074.452270595178561.506445563261877.399751422395639,1.22710505080795-.116548567802965,1.688136152080915-.51885610057434.463470030475037-1.240609508959096.429565790720517-1.690567949533943-.074153302524792ZM8.405728052161066,6.4130892574276c-.392457322646806-.439276675421752-1.015503172782701-.467384165646763-1.457439766571042-.072988683498806-.444305706620071.396867687168196-.486567135820223,1.019227603186664-.094109813177056,1.458504278605687.392550821419718.43929331333311,1.015469896959985.467571163197135,1.459869102352968.070720113937568.441909646659042-.394786115157331.48401102544085-1.016788673987321.09168047739513-1.456235709044449Z"/>
      <path class="cls-2" d="M8.46009515966216,4.982238251837771l.140870434061071-.094542127064415,1.299406269761676,1.933543105684294-.140870434059252.094542127064415-1.299406269763494-1.933543105684294Z"/>
      <path class="cls-2" d="M11.188649775260274,3.473093734628492l1.026158182305153,2.092789309082946-.125491304088428.061781731150404-2.317560248549853-1.118681128544267.891258000126982,1.81770013989626-.152428143108409.074929835931471-1.026235043167617-2.092899445769945.128629025552073-.063152569311569,2.314389251265311,1.120238964256714-.891241362218352-1.817793638672811.152521641883141-.074913198019203Z"/>
      <path class="cls-2" d="M13.916558012275345,2.723525818286362l.532652240532116-.085398647109287.368739419800477,2.301624971006277-.532652240528478.085398647111106-.368739419804115-2.301624971008096Z"/>
      <path class="cls-2" d="M17.371257968867212,2.469296427415429l.048830155710675,2.328531836009461-.44243464813735.009359312974993-1.190767683536251-1.389499339320537.029652983019332,1.413957159962592-.532244729200102.010938760966383-.048901856989687-2.328731718803283.44587439377392-.009329828734735,1.187305345803907,1.389658441827123-.029558689646365-1.413945863915615.532244729201921-.010938760966383Z"/>
      <path class="cls-2" d="M18.634363608363856,3.05695230089259l-.737416781988941-.112730084729264.066399525037923-.434506737953598,2.007869984950958.306915223768556-.066399525036104.434506737952688-.737228195246644-.11270749263349-.285750062826992,1.869518056299967-.533236303766898-.081383353032834.285761358876698-1.869612349672025Z"/>
      <path class="cls-2" d="M21.664322176597125,5.319090738348677l-.132230469183924.412369054802184-1.717992561993015-.550998675746087.711540217382208-2.218982073050938,1.676920473666542.537757114760097-.132173988942668.41189758793189-1.166455962165855-.374071919313792-.154514522047975.481817035279164,1.030121143325232.330480156548219-.128008807978404.399484271880283-1.030309730072986-.330502748645813-.164635021323193.513602709905172,1.207739229334038.387147485649621Z"/>
      <path class="cls-2" d="M24.8228251793862,4.809199405250183l-1.102183795836027,2.053104184278709-.390018662390503-.209417877338637-.354332293121843-1.79593708495122-.669254966323933,1.246443770476617-.469099694319084-.251889613573439,1.101983913042204-2.053032483005154.393077788457958.211027756831754.351473049848209,1.794255504183639.669066379579817-1.24646636257512.4692882810632.251912205672852Z"/>
      <path class="cls-2" d="M24.082510240959891,6.835641021025367l.395502565235802-.205222724085615c.065503765126778.234051363158869.233469487457114.494246102683974.452961119195606.667644984032449.25078612089419.197998821999136.418533167949136.194947910016708.507340472066062.082776504608773.270350834131023-.34216492647829-.978592038582065-.947444759300197-.441751515814758-1.626689662245553.245539714635015-.310704442676069.700799021473358-.371228681002322,1.220693089353517.039493565032899.229959632926693.181826410134818.421535647570636.422181342873955.50681938683374.66357590786356l-.384611248531655.218100708527345c-.093450980031776-.230704088908169-.231171975201505-.416018885507583-.393348165394855-.544101623136157-.25075223274871-.198281702118038-.421781453349467-.18060746728861-.51245892498082-.065599410707364-.266478392592035.336985683090461.980628200750289.944819286969505.45009604727602,1.616116071638316-.241512574491935.305830671501099-.701422219783126.366849926619579-1.223907871850315-.046191361700039-.289934434949828-.228895835902222-.514358056991114-.54635546047939-.577334953388345-.799902959828614Z"/>
      <path class="cls-2" d="M27.31057921403044,6.805334290518658l.381054014578694.381655587756541-1.648916150235891,1.646053351818409-.380876723880647-.38153870228598,1.648738859537843-1.64617023728897Z"/>
      <path class="cls-2" d="M28.210916061911121,8.425173320320027l-.484089684799983.381025498731105.666679699805172.84771706061747-.340020529574758.267439973736145-.666868286552926-.847739652714154-.667136557625781.524565687052018-.333551028747024-.423692535659939,1.831855653916136-1.440591943712207,1.088494698320574,1.38413391433096-.340231708420106.267605968383577-.755132256321303-.960463970764977Z"/>
    </g>
  </g>
</svg>