<?xml version="1.0" encoding="UTF-8"?>
<svg id="Capa_1" data-name="Capa 1" xmlns="http://www.w3.org/2000/svg" viewBox="0 0 34.015748031495605 34.015748031495605">
  <defs>
    <style>
      .cls-1 {
        fill: #eb5c94;
      }

      .cls-2 {
        fill: #d0dbf1;
      }

      .cls-3 {
        fill: #1d3a69;
      }

      .cls-4 {
        fill: #c47db3;
      }

      .cls-5 {
        fill: #6e4696;
      }

      .cls-6 {
        fill: #d56f6f;
      }

      .cls-7 {
        fill: #b0dbd3;
      }

      .cls-8 {
        fill: #8c60a5;
      }

      .cls-9 {
        fill: #84a47c;
      }

      .cls-10 {
        fill: #7d3667;
      }

      .cls-11 {
        fill: #b1d7b3;
      }

      .cls-12 {
        fill: #61ac42;
      }

      .cls-13 {
        fill: #4ab58f;
      }

      .cls-14 {
        fill: #fff;
      }

      .cls-15 {
        fill: #b69f51;
      }

      .cls-16 {
        fill: #da7cb1;
      }

      .cls-17 {
        fill: #613e91;
      }

      .cls-18 {
        fill: #de8cbb;
      }

      .cls-19 {
        fill: #b5b2b2;
      }

      .cls-20 {
        fill: #bbc7e7;
      }

      .cls-21 {
        fill: #ededed;
      }

      .cls-22 {
        fill: #d8ece9;
      }

      .cls-23 {
        fill: #edf2fb;
      }
    </style>
  </defs>
  <path class="cls-14" d="M0,17.007874015747802C0,7.614956225133938,7.614956225133938,0,17.007874015747802,0s17.007874015747802,7.614956225133938,17.007874015747802,17.007874015747802c0,9.392916740707733-7.614956225133938,17.007874015747802-17.007874015747802,17.007874015747802S0,26.400790756455535,0,17.007874015747802"/>
  <g>
    <g>
      <g>
        <path class="cls-19" d="M32.46090164051202,14.175518634965556c-.210934032782461-.232064994979737-.406512843510427-.477833725028177-.756548082197696-.515963678255503-.456604037151919-.049737534711312-.759172751659207.188879796713081-1.012180237019493.51789247769193-.277169789360414.360433833851857-.541093335727055.731054660216614-.849148671493822,1.149319624590134-.155329227838592-.521413370539449-.275084380973567-.973552205090527-.424655728411381-1.415602478495202-.371026867962428-1.096550008214763-.87970960790517-2.122311776311108-1.524846465215887-3.089405873190117-.530678066670589-.795514324630858-1.133948322238211-1.52369185601674-1.8306317535571-2.167686857033914-.742201265693438-.686070415566064-1.531111585802137-1.309438445881824-2.427519385300911-1.806946226686705-.637184742856334-.353638366481391-1.277293444079987-.687198551300753-1.956417818681075-.940040578485423-.852789527443747-.317498477799745-1.72677457795362-.556567442290543-2.633149738130669-.687472976238496-1.052616651082644-.152026930405555-2.105756661892883-.198761335394011-3.160036452572967-.087785124063885-.571106401079305.060116065496914-1.143626120934641.129089645572094-1.704423243796555.284564550782306-.464689926029678.128830414401818-.934450622440636.232791346383237-1.392651762551395.392008001657814-.892967177956962.310290636822174-1.739616858238151.717372429509851-2.532346259105907,1.222472722931343-.966230863314195.615649221343119-1.862626525678934,1.324987523361415-2.640328405215769,2.175933321828779-1.10262070576573,1.206467218979014-1.996486320562326,2.549383855324777-2.57274049291118,4.079744979653697-.52866314034145,1.403970037008548-.816639554283029,2.529224732301373-.904325723464353,4.368210814647682-.016483106517626.613436480482051.044306915837296,1.273155740644142.07450181994318,1.495018419705957.112074287866562.262560390348881.317091492590407.413934329604672.609620441919105.502954426932774.556003004698141.16919959408915,1.241623860854816-.260285405356626,1.208466060445062-.837508013883053-.055376406653522-.963947701338839.029600086754726-1.913938764251725.183388713856402-2.861845684034051.113403569139336-.69898527827354.340235363280954-1.364104004240289.597712816992498-2.021019291931225.365467577445088-.932434123396888.869253873102934-1.790080346227114,1.45932910083684-2.591296057569707.395779261307325-.537395545867184.87040817511479-1.014484931016341,1.351413295167731-1.481130736432533.551063999891994-.534611683942785,1.188261755192798-.959601559778093,1.82650685157023-1.36982736183927.470164616326656-.302193100209479.994092338514747-.52918421729737,1.523524829375674-.737313671654192,1.057506766333972-.4157245121296,2.148747784514853-.65403771408819,3.275268856694311-.755354160593924,1.335120044286668-.120077917135859,2.63739516568603.024930354380558,3.930890050634844.38835582936008.732202588422297.205722007051008,1.431163560186178.489149322040248,2.092539177465369.832850963179226,1.079995917749329.561248090882145,2.037994388996594,1.306475475765183,2.891085358354758,2.189024540162791.763358808741032.789718775111396,1.374614469579683,1.684850334462681,1.878079660064031,2.645880585832856.347607282408717.663524881974809.6108223394167,1.376038150134264.810845069274365,2.104676252292847.006181629023558.022517586152389-.012009993219181.05172537080216-.030400964100409.121990487634321-.309187780776483-.233867844759516-.60129192569002-.455848680399868-.89448791965151-.676376689312747-.665447378849422-.500520866728039-1.395766786747117-.12641592719956-1.560671387538605.511024152716345-.121355341065282.469101715438228.117343648247697.776805439763848.442881614308135,1.028476993091317,1.143916564231404.884355571664855,2.301072612577627,1.751567138497194,3.448651537695696,2.631223672591659.170867160655689.130975489179036.272751807142413.090274732910984.387080956179489-.068371061350263.424925666105992-.589651523590874.848087423039033-1.180959417493796,1.289017530139972-1.758587400676333.469220103439511-.61468989750756.914756812966516-1.247991395855934,1.421093027634925-1.834122720441883.107463208096306-.124396193485154.121597268705955-.290078559593894.173552256605035-.43877514722044l-.067938534240966-.499191027894994Z"/>
        <path class="cls-19" d="M18.061625107877262,29.542348988319645c-.048056369980259-.419405525726688-.047779420570805-.411074773843211-.531597063452864-.395034031784235-.342722195160604.011359546060703-.686831767121475.006419282808565-1.029307295269973-.011077083381679-.171620675042504-.008768479245191-.235454085352103.05017800992573-.245055450839573.214602149277198-.028119663300458.481504134175339-.059945050850729.962888508252945-.099549830334581,1.443559332974473-.0115904433369.140675654774896.029983708089276.205401070732478.172899778515784.22108977346943.555548946276758.060987966031462,1.11046125635221.020112034122576,1.665427756022837-.003505107591991.128922813677491-.005486449301316.163870529086125-.082595124949876.153244491686564-.209632321773825-.033908136187165-.405388951827263-.056376772934527-.811736549683701-.086062386328194-1.260002711189372Z"/>
        <path class="cls-19" d="M10.03726211144749,26.659288886790819c-.036059904321519.030275038869149-.088601907378688.057621154883236-.116985712160385.100835108805768-.259806853724513.39556758668914-.615123176748966.710443038689846-.906571427998642,1.079191286811692-.129786627330759.164211368002725-.11888577445643.283615084896155.059774451638077.411119764559771.400254919577492.285646580632601.790983405870065.583635546070582,1.210985463991165.841984060041796.163656956723571.100669073082827.255366278628571.089239343673398.35210875186749-.076933023465244.241854605603294-.415429841132209.493861911849308-.82495740829836.742685345270729-1.236318759152709.041897783135937-.069263729454178.06853192428207-.134112333633311-.013227774512416-.193999601600808-.411159704750389-.301166581797588-.821863469616801-.602960697764502-1.233995008811689-.90279336630374-.020428393670954-.01486175536229-.052714759996888-.013420933377347-.094774089284329-.023085469696525Z"/>
        <path class="cls-19" d="M7.466096492435099,26.630406625645264c.04855592837157-.030146517245157.110181986727184-.057225593773182.157938568519967-.099845296572312.352470100002392-.314544981834842.701163152458321-.633318725669596,1.053306905103454-.94823478386752.118328183827543-.105817516387106.12538387440145-.194129228875681.018054402473354-.325454265093867-.2647667803285-.323965941453935-.516910182959691-.65877518342495-.762387357481202-.997731134089918-.10519159431351-.145246180489266-.207239413708521-.164455688382077-.351599797366362-.069046115400852-.387212515410283.255908313363761-.777015710282285.50789361553143-1.165791355200781.761437240978921-.128764383578527.083973787359355-.170255447630552.179015036155761-.078533963678638.326134114546221.286745484894709.459933280493715.651009031054855.859483463764263.983287066454068,1.28389068209799.033427804668463.042694174391727.068427905938734.092710100732802.14572553117614.068849557401336Z"/>
        <path class="cls-19" d="M25.4707951597793,25.378731301188964c.027131204795296.040284086660904.042397920577059.076776338255513.069049919871759.100447372618873.387587583660206.344253232053234.76010207845502.705355223892184,1.17345351282529,1.02085881201856.128399889128559.098004135657902.195698687914046.074419990100068.292316430077335-.037118115897101.347583877743091-.401257293089657.652027317886677-.833851316356231.95526660320138-1.26816754679021.090388364256796-.129459824520382.074610205223507-.210803808256969-.060253759618718-.291863684877171-.405510111406329-.243728758963698-.805592369195438-.496481924452382-1.210761883099622-.740786315169316-.119419888116681-.072007296039374-.250707242093995-.101414085840588-.341968895254467.043984294592519-.236613589921035.376970629917196-.527764365258918.712333918881995-.798831245812835,1.063048924395844-.027167550662853.03515064144085-.05173968924646.072308252114453-.078270682190123.109596259108002Z"/>
        <path class="cls-19" d="M20.299864525941302,30.640636388283383c.520504529131358-.103469968373247,1.005278782555251-.295928191097119,1.498496995451205-.461723553929914.166744499301785-.056050012228297.221664969172707-.160889159351427.15566795587074-.322093090982889-.178951633799443-.437114686183122-.360175540896307-.873304643295342-.542197760376439-1.309153208161661-.066590888591236-.159449073233191-.196889708598974-.149606647537439-.32903209961114-.109746206611817-.409045480588247.123393336969457-.815995417302474.253823433593425-1.22597045204202.373977972845751-.101566613509931.029765048286208-.172868335659587.051723426397075-.141349605133655.183682218075774.122936782929173.514695863037559.241281432103278,1.030511499673594.357551048853566,1.546762981264692.033826999473604.150198658600857.130746071859903.129544909857941.226833916987744.098292887500065Z"/>
        <path class="cls-19" d="M24.191285078948567,26.625503996496263c-.020164301915429.010273147468979-.056244698991577.022707259888193-.085409949941095.044427188624468-.348176951811183.259322722160505-.669413388646717.553785115927894-1.049297717830996.772338004404446-.129296204495404.07438469992303-.208067868265061.184442220202982-.093089073705414.364314493201164.258914816165998.405047029127672.494932727799096.824876778622638.734946835516894,1.241754186177786.054303744936988.094318586883674.123443547332499.110255544896063.206143456714926.064967951650033.513367288815061-.281125407429499.957308645940429-.661445364054089,1.425468429613829-1.007017201740382.080773920275533-.059622837463394.080869091087152-.140230766784953.015018951708043-.218180567353556-.340090943096584-.402577955830566-.679611655090412-.805640389753535-1.020750253732331-1.207327533298667-.029054683085633-.034212323807878-.063975350136388-.069064144656295-.133030678343857-.055276521665292Z"/>
        <path class="cls-19" d="M14.588003095144813,29.066472365486334c-.00936220110998-.159946816251249-.060426918918893-.216208625275613-.168507736159881-.243770624832905-.43075054925248-.109839666078187-.866627070658069-.204253308978878-1.267869926643471-.408460156766523-.148204881208585-.075425486860695-.223269791755229.019931887472922-.273758897248626.145309723784521-.176294135850185.43778115331952-.350842908022969.876276432240047-.529639927037351,1.313034513006642-.054823131968078.133917190007196-.041891233820934.206616346389637.110610336956597.278295193642407.46520879246782.218654988037088.958779251172018.345479651599817,1.447912508845548.488205528530671.103708926011677.030262043219409.218263040827878.079165797549649.281345933552075-.074234723890186.205323686004704-.499280133128195.248677476043667-1.03973507984665.39990770773511-1.498379453474627Z"/>
      </g>
      <g>
        <path class="cls-3" d="M5.704853496778014,9.82702548151974l-.055373081866492-.146903977292823c.243426081848156-.024185300879253.54308553037481-.188505831967632.7479498947705-.44947058670914.305294536317888-.388530538995838.27106002812252-.693883413392541.05997611935345-.859495477803648-.582921407623871-.457810739892011-1.185936649866562,1.030192149257346-1.902303241418849.467632163938106-.274732381141803-.216007783574241-.350601037338492-.616727121043368.024304533115355-1.09412421554407.167925772468152-.213740483002766.409005288827757-.38337136739392.635066564969748-.44848898843702l.072377500489893.142156867168524c-.237512278969007.073716690689253-.445031671824836.229477895936725-.582435718200941.404466226395016-.296599244953541.377600120034913-.254632032661902.684329012923627-.040792412428345.852272426653144.583020544854662.457828381157015,1.191518637844638-1.025925999541869,1.896756535965324-.472096588115164.274767663668172.215809509110841.341329322811362.622850249661496-.035790818472378,1.102921559653623-.226789936352361.288768847056417-.553083109954969.481487534883854-.819735876277264.501130590093453Z"/>
        <path class="cls-3" d="M6.398548615246909,7.472513055923628c-.477220959421174-.534527778143456-.42656874725435-1.298519790827413.123612328723539-1.7901377235994.547400253943124-.488635374667865,1.312902492007197-.457965159692321,1.792482613966058.078823402722264.479544839434311.536986836876167.423858490268685,1.301105800008372-.12357704619717,1.789939449136-.55014579345152.491419658310406-1.315424646480096.455470818433241-1.792517896492427-.078625128258864ZM8.177816601173618,5.883515105189872c-.416124518771539-.465767319450606-1.076743239842472-.495569835977221-1.54533088442804-.077390276708684-.471099627107833.42080085096859-.515909637964796,1.080692272566012-.099785119195076,1.546459592014799.416223656004149.465784960711972,1.076707957314284.495768110440622,1.547906721656545.07498490072976.468559072405696-.418593749454885.51319938098095-1.078106263383233.09720928196657-1.544054216035875Z"/>
        <path class="cls-3" d="M8.235462325028493,4.366376420855886l.149365646149818-.100243503837191,1.377767154528556,2.050145704901297-.149365646151637.100243503835372-1.377767154526737-2.050145704899478Z"/>
        <path class="cls-3" d="M11.128562824989785,2.766222723255851l1.088040801269017,2.218995273839028-.133059075496931.065507487463037-2.457321057618174-1.186143357284891.94500544391849,1.927316812149002-.161620344531912.079448490625509-1.088122297236623-2.219112052331184.136386017713448-.066960994225155,2.453958832878925,1.187795138508591-.944987802655305-1.927415949379792.161719481759064-.079430849364144Z"/>
        <path class="cls-3" d="M14.020977966412829,1.971452004308958l.564773911641169-.090548624984876.390976304335709,2.440424800835899-.564773911641169.090548624988514-.390976304335709-2.440424800839537Z"/>
        <path class="cls-3" d="M17.684014108144765,1.701891272916328l.05177486537832,2.468954288258828-.469115734173101.009923727713613-1.262577102501382-1.473293299799479.03144121049263,1.499226052881568-.564341825283918.011598424545809-.051850890611604-2.469166225017034.472762914170744-.009892465417579,1.258905967984902,1.473461996998594-.03134123073869-1.499214075622149.564341825282099-.011598424542171Z"/>
        <path class="cls-3" d="M19.023291517598409,2.324985819617723l-.781886808661511-.119528288942092.070403758085376-.460709730206872,2.128954877471188.325423791135108-.070403758087195.460709730206872-.781686849166363-.119504334428711-.302982262075602,1.982259615566363-.565393196899095-.086291188015821.302994239333202-1.982359595314847Z"/>
        <path class="cls-3" d="M22.235972179552846,4.72354284573521l-.140204646932034.437237030841061-1.821596354206122-.584226731310991.754449754051166-2.352798110854565,1.778047407598933.57018663605777-.140144760640396.436737132095004-1.236799259220788-.396630381008436-.163832542852106.510873081915634,1.092242749233264.350409810629571-.135728397828643.42357522920247-1.092442708735689-.350433765142952-.174563360313186.544575596293726,1.280572119845601.410494471281709Z"/>
        <path class="cls-3" d="M25.584949166950537,4.182902441367332l-1.168651150524965,2.176916931790402-.413538794755368-.222046852997664-.375700353773937-1.904241333000755-.709614484754638,1.321610743989368-.497388819858315-.267079853487303,1.168439213768579-2.176840906555299.41678240186593.22375381650636.372668683417942,1.902458344256956.709414525261309-1.321634698508205.497588779353464.267103808006141Z"/>
        <path class="cls-3" d="M24.799989428101981,6.331548914567975l.419353405164657-.217598710414677c.069453979242098.248165864777548.247548898971218.524051686048551.480277005601238.707907412244822.265909814521365.209939169859354.443772871733017.206704272184652.53793571328606.087768353800129.286654380644904-.362799232312682-1.037606174308166-1.004580553801134-.468391405453076-1.724787419761924.260347022964197-.329441519443208.743060808754308-.393615680795847,1.294307164280326.041875230237565.243827382157178.192791478335494.446956416326429.44764105037757.53738320393677.703592949843369l-.40780528601681.231253303591075c-.099086555021131-.244616732663417-.245112834907559-.441106965123254-.417069083921888-.57691375093782-.265873882744927-.210239109106624-.447217045455545-.191499026966994-.543362835252992-.069555392745315-.282548410952586.357307653897806,1.039765127536157,1.001796751979782.477239155106872,1.713576187230501-.25607702554953.324273834787164-.743721589131383.388972864991956-1.297715814705953-.048976938509441-.307418973372478-.242699432696099-.545376494697848-.579303506270662-.612151222025204-.848141224578285Z"/>
        <path class="cls-3" d="M28.222727571774158,6.299414532255469l.404033532549875.404671383685127-1.748354279359773,1.745318839461106-.403845550306869-.404547449415986,1.748166297116768-1.745442773730247Z"/>
        <path class="cls-3" d="M29.177359364681251,8.016938191183726l-.51328278390065.404003297051531.706883916414881.898838761693696-.360525517244241.28356798038476-.707083875911849-.898862716208896-.707368325107382.556199697377451-.353665872224155-.449243375864171,1.942325976506254-1.52746705114987,1.154136529987227,1.467604312063486-.360749431256409.283743985368346-.800670617263677-1.018384890716334Z"/>
      </g>
    </g>
    <g>
      <path class="cls-3" d="M24.551625076623168,21.277628743102468c0-.917327916964496.364111717644846-1.437516283487639.853487532840518-1.437516283487639.491993875117259,0,.853286143621517.520188366523143.853286143621517,1.437516283487639,0,.917327916962677-.361292268504258,1.437717672713916-.853286143621517,1.437717672713916-.489375815195672,0-.853487532840518-.520389755751239-.853487532840518-1.437717672713916ZM25.794800758603742,21.277628743102468c0-.631355218372846-.159298876467801-.893362599266766-.389688149140056-.893362599266766-.22756982352621,0-.38686869999583.26200738089392-.38686869999583.893362599266766,0,.631556607597304.15929887646962.893563988489404.38686869999583.893563988489404.230389272672255,0,.389688149140056-.262007380892101.389688149140056-.893563988489404Z"/>
      <path class="cls-3" d="M26.432399042932957,22.310151296402182c0-.23018788344416.12224325918578-.381229801716472.275903237372404-.381229801716472.153659978190262,0,.275903237377861.151041918272313.275903237377861.381229801716472,0,.226361488183102-.122243259187599.389285370689322-.275903237377861.389285370689322-.153659978186624,0-.275903237372404-.16292388250622-.275903237372404-.389285370689322Z"/>
      <path class="cls-3" d="M28.708298667435884,22.143401018631266v.524216151010478h-1.504981673648217v-.416875694425471l.768098501710483-1.012786409313776c.176416960541246-.234215667931494.207632290317633-.377202017227319.207632290317633-.512132797548475,0-.218507308432891-.10794462425838-.345583909007473-.31859775293924-.345583909007473-.170576673033793,0-.315778303795014.091430707861946-.41244513149104.277917129620619l-.335715837009047-.301681058092072c.153659978186624-.313764411555894.432382664705074-.516361971260267.790855484065105-.516361971260267.443861850490066,0,.739702621078322.31779219604141.739702621078322.822070813839673,0,.270062949870407-.054173701351829.516160582035809-.332896387870278.877654239766343l-.457959096194827.60356350541042h.856306981981106Z"/>
      <path class="cls-3" d="M28.893576753849629,21.277628743102468c0-.917327916964496.364111717644846-1.437516283487639.853286143617879-1.437516283487639.492195264338079,0,.853487532842337.520188366523143.853487532842337,1.437516283487639,0,.917327916962677-.361292268504258,1.437717672713916-.853487532842337,1.437717672713916-.489174425973033,0-.853286143617879-.520389755751239-.853286143617879-1.437717672713916ZM30.136551046609384,21.277628743102468c0-.631355218372846-.159298876473258-.893362599266766-.389688149141875-.893362599266766-.227569823529848,0-.38686869999583.26200738089392-.38686869999583.893362599266766,0,.631556607597304.159298876465982.893563988489404.38686869999583.893563988489404.230389272668617,0,.389688149141875-.262007380892101.389688149141875-.893563988489404Z"/>
      <path class="cls-3" d="M30.791267415004768,20.622509596254531c0-.468632725087446.204812841175226-.76648738791846.495014713478668-.76648738791846.290201872305261,0,.492195264339898.293826878345499.492195264339898.76648738791846,0,.472459120352141-.201993392034638.766487387920279-.492195264339898.766487387920279-.290201872303442,0-.495014713478668-.297854662831014-.495014713478668-.766487387920279ZM31.493914418802888,20.622509596254531c0-.297854662827376-.082569581991265-.44084101212502-.207632290319452-.44084101212502-.122243259187599,0-.207632290317633.147014133784978-.207632290317633.44084101212502,0,.293826878345499.085389031130035.440841012128658.207632290317633.440841012128658.125062708328187,0,.207632290319452-.142986349297644.207632290319452-.440841012128658ZM32.472464659969773,19.887841705785831h.338535286153274l-1.359780042886996,2.779775463855913h-.338535286151455l1.359780042885177-2.779775463855913ZM32.145408559608768,21.932949279174863c0-.468632725087446.204812841175226-.76648738791846.49199387511544-.76648738791846.290201872303442,0,.495014713476849.297854662831014.495014713476849.76648738791846s-.204812841173407.766487387916641-.495014713476849.766487387916641c-.287181033940215,0-.49199387511544-.297854662829195-.49199387511544-.766487387916641ZM32.845030747817873,21.932949279174863c0-.293826878345499-.082364215542839-.440841012128658-.207628313093664-.440841012128658-.122243259187599,0-.207632290315814.142986349295825-.207632290315814.440841012128658,0,.297854662827376.085389031128216.44084101212502.207632290315814.44084101212502.125264097550826,0,.207628313093664-.147014133783159.207628313093664-.44084101212502Z"/>
    </g>
    <g>
      <path class="cls-3" d="M1.179402256264439,22.149644084583997c0-.707681734402286.389486759911961-1.214175633671402.913602216312938-1.214175633671402.290906734588134,0,.53368144455635.147618301456532.692376153352598.415868748303183l-.250024722045055.32202136975684c-.112979354866184-.181048912701954-.254858063428401-.275097680478211-.423118760380021-.275097680478211-.31497274690264,0-.538514785943335.308729680946271-.538514785943335.751383196089591,0,.442854904373235.223542039040694.751383196093229.538514785943335.751383196093229.16826069695162,0,.310139405513837-.0938473785518.423118760380021-.278319908067715l.250024722045055.322021369753202c-.158694708796247.27167406366425-.401469418764464.419292365122601-.694792824044271.419292365122601-.521698785709305,0-.911185545621265-.506493899269117-.911185545621265-1.214377022901317Z"/>
      <path class="cls-3" d="M4.589828076204867,20.97574629578412v2.347996966829669h-.389386065300641v-.962640492449282h-.764574190287021v.962640492449282h-.38938606530246v-2.347996966829669h.38938606530246v.925786264389899h.764574190287021v-.925786264389899h.389386065300641Z"/>
      <path class="cls-3" d="M6.047986755193051,23.323743262613789l-.406202065538309-.815022190990931-.399153442682291.815022190990931h-.44708407807957l.622594787111666-1.194238100462826-.591379457338917-1.153758866366843h.442351431311181l.387070089222107.761452657310656.37982007714163-.761452657310656h.420702089693805l-.586546115951933,1.133619943930171.627428128496831,1.214377022899498h-.4496014433862Z"/>
    </g>
    <g>
      <path class="cls-21" d="M9.239597192796282,18.352424667291416c0-4.282500108483873,3.471652171603637-7.753709163511303,7.753702239820996-7.753709163511303,4.282507032177818,0,7.75370223981372,3.47120905502743,7.75370223981372,7.753709163511303s-3.471195207635901,7.753709163511303-7.75370223981372,7.753709163511303c-4.282050068217359,0-7.753702239820996-3.47120905502743-7.753702239820996-7.753709163511303"/>
      <path class="cls-16" d="M9.239597192796282,18.390449608112249c0-.113894806356257,3.306937433415442-1.026382606902189,7.601699408289278-.988274581724909,4.295205091442767.038121872570628,7.905705071345437.874379775368652,7.905705071345437.988274581724909,0,4.282500108483873-3.471195207635901,7.753709163513122-7.75370223981372,7.753709163513122-4.282050068217359,0-7.753702239820996-3.471209055029249-7.753702239820996-7.753709163513122"/>
      <path class="cls-2" d="M17.194903625406369,20.064114747317944c-.651589071490889.012711906656477-1.049071560122684.367994465515949-1.192004349322815,1.066318487939498-.063524914792652.311275544319869-.063524914792652.624808213678989-.040385921303823.940625702858597.027680938346748.378878516312398.039478917071392.758670960551171.068066859650571,1.137092512897652.036750980678335.489145305731654.077586942254129.978290611463308.127956833817734,1.466535836661933.032665999773599.316717569716275-.127049829581665.614824243417388-.421535410048818.743244964893165-.289493595337262.126135901649832-.608482137486135.045821023006283-.818567858405004-.195566729498751-.675185028940177-.774110803602525-1.032281596271787-1.692954557478515-1.226941321536287-2.686214200635732-.163350769988028-.832172921902384-.259091644289583-1.673886697493799-.335778506003408-2.517871445514174-.062160946588847-.684698187840695-.240037631701853-1.338101267794627-.540872241799661-1.95792442003949-.253192654923623-.522268269476626-.537244224866299-1.026396454293717-.838985839192901-1.521440749387693-.165164778449252-.270425735356184-.300384569829475-.553120260792639-.388862486568541-.85803985178427-.011347938456311-.039021953107294-.010890974492213-.086213868009509-.064888882992818-.095740874301555-.054904912722122-.045377906437352-.034936972206197-.111166869959561-.044920942465978-.168342755117919-.081675384994014-.457379386491084-.045827946702047-.907959703079541.094833870069124-1.348542202020326.144746797668631-.452851289019236.405202410154743-.831729805329815.748236950021237-1.162973290167429.361638512189529-.349383569500787.786351898899738-.579444154636803,1.259157281045191-.726905041306964.152459795495815-.047648878866312.316717569719913-.041292925538073.474626314309717-.065345846953278h.138847808302671c.007256033866724.007712997829003.016332999894075.012254942688742.026316970150219.013611987191325h.030851991312375c.010440934227518-.001357044502583.019060936287133-.006342105934891.026316970150219-.013611987191325h.278152580576716c.007262957558851.007269881256434.015882959622104.011797978724644.025866929878248.013168870618756.009527006299322.000443116572569.019510976559104.000900080536667.029488023115846.000900080536667h.029044906546915c.009983970259782,0,.019961016820162-.000456963964098.02949494681161-.000900080536667.009977046564018-.001370891894112.018603972323035-.005898989362322.025409965917788-.013168870618756h.139297848574643c.064431919021445.034036891674987.136126795605378.016796887550299.202829687063058.019067859981078.397482488628157.011341014760546.748686990285933.184668831312592,1.113960443104588.308090643960895.254549699428026.085756904041773.51454834795004.143846717131964.783173922231072.159715829358902.068059935954807.00408498089746.1438397934362-.005442025396405.170606803851115.083942895576911-.021775025288662.146117689562743-.150188823063218.21826260641501-.231867669906933.319902470080706-.6443261139284.804505830947164-1.038637549590931,1.710180714202579-1.149804419546854,2.737934213000699-.098461887002486.911587720009265.078043906210951,1.777340569622538.424713386706571,2.614969364316494.225511716580513.545407262961817.524989282177557,1.049978564351477.867573781775718,1.530953908291849.052176976329065.07351580874456.161079797555431.07760078964202.180590774110897.176512716909201"/>
      <path class="cls-10" d="M14.637650194572416,12.136800819398559l-.013161946928449.002727936394876-.013155023221771-.002727936394876c-.019967940519564-.007256033864905-.019967940519564-.015425995656187-.000907004232431-.023595957451107h.02768093834311c.019054012591369.00816996179492.019054012591369.016339923586202-.00045696396046.023595957451107"/>
      <path class="cls-18" d="M14.637650194572416,12.136800819398559c.00045696396046-.007712997829003.00045696396046-.015882959622104.00045696396046-.023595957451107h.027674014650984c.00816996179492.004998908827474.01044093422388.010440934225699.00816996179492.015882959622104-.002721012700931.004985061434127-.004991985129891.007712997829003-.007712997830822.007712997829003h-.028587942575541"/>
      <path class="cls-4" d="M14.666238137147957,12.136939293326577c0-.008169961791282,0-.015882959622104-.000456963964098-.024052921415205h.028137902314484c-.009076966027351.008169961793101-.018603972323035.015882959623923-.027680938350386.024052921415205"/>
      <path class="cls-17" d="M14.582018293715009,12.136579261112274c-.017696968086966.002270972430779-.024953001953691-.007712997827184-.027223974379012-.023595957451107h.02768093834311c.009070042327949.005442025398224.01179105502888.010884050796449.008620002063253.015882959623923-.003177976661391.004985061432308-.00589898936596.007712997827184-.009076966027351.007712997827184"/>
      <path class="cls-6" d="M14.27646172265122,12.113066388019433c-.002721012700931.015425995656187-.009983970259782.025409965915969-.02722397438265.023595957451107-.019510976551828-.007256033863086-.019510976551828-.015425995658006-.000456963964098-.023595957451107h.027680938346748Z"/>
      <path class="cls-18" d="M14.248649234070399,12.113066388019433c0,.007712997829003.000456963964098.015882959620285.000456963964098.023595957451107-.009533929987811.000456963964098-.019517900247592.000456963964098-.029044906543277.000456963964098-.007256033863086-.005455872789753-.009527006292046-.010897898187977-.006805993594753-.016339923586202.00227097242896-.004985061434127.004991985126253-.007712997829003.007712997827184-.007712997829003h.027680938346748Z"/>
      <path class="cls-8" d="M14.220788279619228,12.113066388019433c0,.008169961793101-.000456963967736.016339923588021-.000907004236069.024052921415205-.009076966027351-.007712997827184-.018153932047426-.015882959622104-.026773934114317-.024052921415205h.027680938350386Z"/>
      <path class="cls-1" d="M14.582018293715009,12.136579261112274c.000456963964098-.007712997827184.000456963964098-.015425995656187.000456963964098-.023595957451107h.027674014650984c0,.00816996179492.000456963964098.015882959623923.000907004232431.023595957451107h-.029037982847512"/>
      <path class="cls-23" d="M22.26257860439182,14.673130839608348c.268168610316934.061260866055818.398846456831961.158815748824054.378428476040426.318074614220677-.024502961678081.189667740136429-.012248018989339.384791353064429-.073051921084698.5699171483393-.169706723314448.674271101011982-.594870150289353,1.219678363973799-.916579705139156,1.817276450663485-.365723493083351.680170090368847-.701501999086759,1.369867187037016-.823102879570797,2.143521026671806-.082585851076146.526353250374086-.110716829694866,1.059048606681245-.180597697810299,1.587215865520193-.126142825349234.960593643378161-.25228565069483,1.921187286756322-.642055141499441,2.821890955970957-.205550699753076.475976435114717-.472812305841217.913401728477766-.816753849940142,1.302264215048126-.212806733623438.240487671968367-.542686250260886.306733599458312-.837171830728039.168785871688669-.279052661109745-.130220882547292-.421078446081083-.416086460951192-.391133459004777-.732804030671105.058989893630496-.618009143778181.108445857262268-1.23647525152046.154730767932051-1.855384475835308.030851991312375-.406559454659146.057625925426692-.814032837242848.052633940296801-1.221963183794287-.004991985129891-.387491594676248-.097104842501722-.752315007222933-.315353601519746-1.078559583234892-.158815748825873-.237773582968657-.369358433712478-.401117429260921-.657488060853211-.449209424697983-.119336831747205-.011797978724644-.189217699869914-.083942895575092-.257277635821083-.179240653307716-.573995205544634-.804491983555636-1.009142602782958-1.674343661457897-1.203345364083361-2.647635364095549-.210542684886605-1.054063545250756-.093476825564721-2.07727509918368.347119520763954-3.062821744513712.250014678262232-.559476214119059.590328205427795-1.055877553713799,1.004150617649429-1.503729933909199.257277635821083-.030851991316013.514555271645804-.060346938125804.764569949915312-.130677846513208.112980878424423-.031308955278291.226418720812944-.065345846951459.332600529338379-.113894806352619.08122188287598-.037207944640613.159715829358902-.025409965915969.205093735792616.026310046452636.164714738188195.1869536511349.422899378245347.283151489400552.515919239845971.538608193064647.020417980787897.054447948763482.078493946482922.036294016710599.122964848687843.040378997608059.141568820999964.012254942688742.285858654704498-.026767010420372.425163426974905.023152840878538-.061253942356416.093469901868957-.157901820897678.060346938125804-.240944635934284.061703982624749-.256820671856985.005898989362322-.256820671856985.003171052969265-.256820671856985.260912576453848,0,.134762827408849-.004991985133529.269068690853601.000907004232431.403374554298352.007712997827184.170156763582781-.072601880820002.279966589039759-.215534670020133.357110414717681-.285408614439802.153816839998399-.566275284014409.315360525217329-.853047866650741.466449428819033-.202372723098961.107095736455449-.300841533793573.264083629421293-.29584954866732.491416278162433.002727936396695.129777765976542-.004078057198058.259541684559736.001820932164264.389319450536277.006799069895351.154273803960677.056261957230163.288579667405429.194652801568736.378421552344662.135219791376585.087584759901802.199201670126058.214177625519369.193302680767374.377078355237245-.002270972432598.059889974161706-.004084980893822.120693876253426.009076966027351.180140733844382.013155023225409.059433010195789.046277986970381.100725935735682.112523914460326.103896988701308.068516899918905.002727936396695.11480181058505-.028581018883415.137940804066602-.093469901868957.075779857485031-.214620742091938-.018603972315759-.573088201310384-.202372723091685-.711022081688498-.132948818943987-.099368891233098-.167428827189724-.220519731450622-.181047738074994-.380249408202872-.024953001957329-.296749629200349.066252851182071-.487774413839361.353018510122638-.611196226487664.244572652867646-.10526788059542.475990282506245-.247300589262522.707857952416816-.383420461172136.068516899918905-.040392845001406.12840687408243-.089841884939233.186489763473219-.143389753166048.074415889281227-.068516899918905.153823763692344-.0712448363156.242758644399146-.024052921413386.199194746433932.106638772489532.32715158024439.25002852565558.304919590995269.495958223022171-.011347938456311.128863838046527-.002270972432598.259541684559736-.000907004236069.389319450534458.001357044504402.107981969598768.05308398057241.156544776395094.161986801795138.163800810258181.152459795492177.009983970259782.27361063571152-.027680938346748.385691433602915-.14293278920195.206000740021409-.21234976965934.40428848222291-.434240393004075.636156152129843-.620737080176696.041292925539892-.049449039936007.078043906214589-.102539944198725.127956833814096-.144746797664993.142482748935436-.121593956791912.296756552899751-.121593956791912.434697356973629.004084980893822.047641955163272.043563897968852.101182899696141.084399859544646.135219791369309.137947727771461.085756904041773.13657683587553.211442765426909.157001740355554.3584605355245.156544776391456.124778857149067,0,.26045561248975-.04402086193295.371622482445673.056261957230163"/>
      <path class="cls-20" d="M20.869925532389971,14.505466606740811c-.227782689013111.224147748383984-.45556537802986.4478523801954-.68380503100343.672000128577565-.100275895467348.098011846732334-.36481648885092.15110275099687-.491866318428947.095297757730805-.07667993801806-.03357992770907-.105724844561337-.09665480222975-.104360876364808-.179240653305897.002270972432598-.162443765755597.001363968196529-.324430567547097,0-.486874333302694-.001363968196529-.169699799618684-.181954742311063-.387948558640346-.343941544102563-.420171441848652-.033122963737696-.006799069898989-.054454872457427.007712997830822-.072151840544393.029037982847512-.174234820788115.205093735796254-.430605452376767.28359460597494-.65022510329436.41791431681122-.14610384216212.089384920975135-.299020601625671.167428827189724-.453294405586348.242301680435048-.109809825458797.053534020835286-.161536761526804.129763918583194-.148374814605631.253185731231497.006349029634293.059446857590956.008163038099156.121607804183441-.00045696396046.18059769780848-.024045997717622.168342755119738.03130895528011.284051569937219.179683769878466.380235560811343.132948818943987.085770751436939.187403691405052.240501519363534.20464369552792.396132367826795.011797978724644.109809825456978.009076966023713.222333739917303.002270972425322.333057493302476-.007262957558851.115251850857021-.078957834139146.171056844123086-.19375272103207.175598788982825-.122057844451774.004541944863377-.176962757177535-.065345846951459-.190574744370679-.175155672410256-.006805993594753-.054904912727579-.005898989362322-.11162383392184-.00227097242896-.166514899257891.010434010528115-.153373723427649-.041292925539892-.270439582747713-.180140733842563-.346212516531523-.124328816884372-.068516899918905-.186032799512759-.188767659601581-.199194746433932-.318988542148873-.021781948984426-.215991633982412-.021324985020328-.434697356968172.001363968200167-.651589071487251.01724000411923-.166071782687141.121150840215705-.278152580576716.259998648522014-.355739522823569.299020601629309-.16744267458489.598948207491048-.333057493306114.902053790021455-.492330206096085.132948818940349-.069873944419669.201922682823351-.158801901428888.191938712567207-.317617650252942-.011797978724644-.198294665895446-.000456963964098-.398389492864226-.003628016933362-.597598086689686-.001363968200167-.08212888711023.029037982847512-.117522823284162.113437842392159-.115694967425952.148374814598355.002714089001529.296749629196711-.001370891894112.444674403530371-.002270972430779.176505793213437.020411057090314.299020601629309.106167961133906.373893454874633.272696707785144.077136901982158.171527655478712.187396767709288.324430567545278.315353601519746.463735339815685.135219791372947.146560806135312.299477565593406.20373669129367.495494335365947.167442674583071.034943895905599-.006812917292336.06307487452068.006799069898989.091662817099859.022225065555176.005442025398224.017696968088785.006805993598391-.006799069898989.006805993598391.011341014760546.001357044497126.169713647012031-.004541944865196.34077049113148.145653801897424.464649267745699.010890974492213.00861307836567.003628016937.034480008245737-.010890974488575.04854895940116"/>
      <path class="cls-2" d="M20.869925532389971,14.505466606740811c-.004991985129891-.012711906654658-.00635595332642-.029037982847512-.015425995661644-.037207944642432-.212813657315564-.195109765534653-.221433659378818-.226875684777042-.126142825345596-.487331297264973.258634680329124-.001357044502583.517276284350373-.000900080534848.776367928639957-.004084980895641.255006663392123-.002714089003348.438325373899715.132505702369599.57762322247072.323987450974528.079864838378853.10979597806363.140661816774809.238216699537588.180140733849839.37252256298234-.161079797562707,0-.322616559082235-.002270972430779-.484153320609039.000913927930014-.10436087636117.001814008463043-.186039723204885-.028137902312665-.246843625292968-.11979379571676-.037657984910766-.057175885160177-.091198929443635-.103910836096475-.139754812542378-.152916759459913-.160622833591333-.162900729721514-.272703631479089-.162443765757416-.430155412108434.000913927928195-.031758995544806.033122963743153-.061253942352778.068516899918905-.091655893400457.102996908164641"/>
      <path class="cls-16" d="M22.565684186922226,17.665538591378208h-.03947891707503c-.004078057198058-.004985061432308-.008620002059615-.004985061432308-.013155023225409,0h-.117979787253716c-.120693876247969-.009070042329768-.208271712457645-.077143825677922-.288579667405429-.160629757288916-.070787872347864-.074415889283046-.146567729829258-.143832869740436-.216441674248927-.219162686949858-.037207944642432-.040378997608059-.071237912623474-.040378997608059-.114344846620952-.014969031693909-.249107674033439.144746797668631-.518183288582804.240487671970186-.795878905191785.310818580355772-.153823763695982.039021953105475-.311275544321688.061703982626568-.471448337648326.065788963524028-.215984710284829.004998908825655-.431519380301324.009083889723115-.64659708635736-.008613078363851-.186946727437316-.015882959622104-.367994465515949-.062174793985832-.547221271426679-.118893715181912-.137490763805545-.043550050573685-.269075614553003-.100725935732044-.401574393225019-.155173884497344-.063067950824916-.025866929881886-.121150840219343-.059903821555054-.180140733842563-.093026785300026-.042193006072921-.023595957449288-.0725949571206-.021324985020328-.109802901763032.013611987189506-.096197838265653.088941804404385-.196473733733001.174241744483879-.282237561470538.273167519146227-.064881959289778.074415889281227-.147467810369562.093926865833055-.236402691076364.107081889060282h-.144746797664993c-.176505793217075-.01044093422388-.287222622904665-.10935286149288-.336228546271741-.27133966328438-.044920942473254-.149288742530189-.014975955389673-.286322542367998.094376906105026-.406559454655508.067609895682835-.074872853248962.142482748935436-.141575744703005.209635680650536-.215991633984231.05943993389883-.065788963524028.061710906331427-.072601880816364-.001363968192891-.139761736234504-.084392935848882-.089384920975135-.158808825130109-.186025875813357-.230953741978738-.284951650475705-.254106582859094-.349383569497149-.425170350674307-.736432047600829-.517733248310833-1.156603489447662-.072144916852267-.328072431871988-.0930198616079-.66203000571295-.055354952997732-.995987579553912.030851991312375-.277238652644883.092562897636526-.548135199358512.197830778233765-.809947856347208.081221882879618-.201465718862892.178783689341799-.392947467466001.290400599566055-.577630146170122.039478917071392-.064888882987361.088484840438468-.12432189318497.135219791376585-.184668831312592.101189823391906-.130677846511389.204643695524283-.259998648522014.32533757177589-.373893454876452.270439582749532-.255013587089707.57763014617376-.45420833352.916129664870823-.608939101448414.197830778237403-.090298848903331.402931437729421-.155173884500982.613924162887997-.201922682828808.258634680321848-.057619001732746.52271830974496-.078487022785339.7863518988961-.068960016489655.210535761194478.007712997827184.419264437612583.045377906433714.626172181877337.093012937904859.28178059750644.06488888298918.539515197295259.182868670239259.790436879789922.321716478545568.20464369552792.112980878422604.389769490804611.251828686728913.564011235284852.409273543658855.172427736015379.155644695856608.328065508176223.325344495477111.461464367384906.514555271647623.106631848797406.151102750995051.200558714630461.309918499819105.278609544540814.479618299439608.096647878533986.211449689120855.172420812319615.429255331569948.222333739915484.655217088420613.034486931945139.155187731890692.063981878756749.311732508283967.065338923253876.472362265572883.001363968203805.130677846511389.012254942696018.260441765094583.002270972436236.392033539537806-.019510976551828.255913667626373-.058082889390789.507299237784537-.138390844342211.750957962722168-.093926865836693.284951650472067-.214170701819967.558119169614656-.384784429366846.807219919950512-.093926865840331.136590683267059-.191938712570845.270439582747713-.311275544321688.387062325497027-.046277986970381.045364059040367-.040835961572157.061247018662471,0,.108895897526963.073058844776824.084399859541008.163350769988028.150188823066856.235952650808031.235488763144531.162443765751959.190581668066443.124328816877096.397946376291657-.007712997830822.56764617591034-.055811916961829.072144916852267-.14156882100724.088027876474371-.225968680544611.102096827629794"/>
      <path class="cls-16" d="M22.067060340768876,10.945606542560199c.077593865942617.024496037987774.158815748822235.033579927707251.237766659269255.056261957230163.118879867786745.034036891674987.229596697477973.083499779006161.334864578075212.144746797666812.211906653086771.122964848684205.379792444240593.28995055930136.510470290751982.499586239959172.174698708444339.279966589039759.240037631701853.58261520760243.20918564038584.905688730646943-.011797978724644.129320802010625-.040385921303823.259541684557917-.101646787359641.398389492864226-.486874333302694-.883449817702058-1.212872370379046-1.451095993612398-2.189348973373853-1.722435656894959.09256982133229-.059903821555054.16516477845289-.117979787250079.254099659159692-.152916759459913.140211776502838-.055361876695315.281780597510078-.104367800060572.432883348497853-.118879867788564.00771299783446-.000913927930014.015425995658006-.006812917292336.023138993488828-.01044093422388h.065338923257514c.00454194485792.004985061432308.009076966023713.004985061432308.013161946924811,0h.105267880597239c.003177976661391.003628016931543.007262957558851.005442025396405.011797978721006.00635595332642h.028587942579179c.004535021169431-.000913927930014.008620002063253-.002727936394876.011797978728282-.00635595332642h.052633940296801Z"/>
      <path class="cls-16" d="M18.747140976536684,10.945606542560199c.08303589134448.035850900139849.174691784748575.034480008247556.259548608257319.063974955059166.13794080407024.047648878864493.271339663282561.102096827627975.39022645476507.186953651133081.011341014760546.00816996179492.029944987083582.016783040158771.024496037989593.034480008247556-.004985061434127.017240004121049-.024045997721259.014525915119521-.039021953107294.018153932052883-.191024784639012.047191914898576-.372979526950076.120693876251607-.552663296828541.199651710394392-.142932789203769.063061027129152-.280423553002038.137033799841447-.408380386819772.22279070388322-.162893806023931.109809825456978-.321709554849804.226418720812944-.465549348282366.362538592722558-.187853731669748.177426644841034-.353925514355069.372536410377506-.499122352295672.585800107965042-.054454872461065.080314878645368-.112080797887756.157444856929942-.152916759459913.246386661332508-.010434010528115.022682029521093-.02768093834311.052633940296801-.051276895796036.051720012368605-.02540996591415-.001357044500764-.024045997717622-.035837052746501-.031758995548444-.058532929662761-.076229897746089-.22097669541472-.092562897640164-.446938452263566-.057625925426692-.677442153973971.03539393617757-.234588682606045.124328816880734-.44376739929794.264533669687808-.63706315636955.119336831750843-.164257774220459.266354601852072-.290864487227736.435604361202422-.394775323322392.154730767924775-.09482694637336.320345586649637-.161529837827402.502300328957062-.18285482284773.026773934114317-.003184900358974.056718921197898-.00227097242896.079864838378853-.021781948982607h.026316970150219c.005442025394586.00635595332642.013155023225409.00635595332642.020868021052593.00635595332642h.044920942469616c.004991985129891-.000456963962279.009076966023713-.002727936394876.012704982957075-.00635595332642h.196930697697098Z"/>
      <path class="cls-14" d="M18.104171907109048,17.665538591378208c.188303771941719-.048091995437062.282230637778412-.215991633982412.418357433387428-.3303295569076.006355953322782-.005442025398224.011797978724644-.012254942690561.017246927814995-.01905401258955.07667993801806-.098011846732334.153366799731884-.118436751215995.269068690853601-.04174988950399.172427736011741.11343784239034.371622482449311.177412797449506.568096216182312.236859655038643.198294665893627.060346938127623.402481397453812.097554882770055.610296145947359.116151931391869.137490763801907.011797978726463.274974603911687.012254942690561.412008403753134.009083889723115.16607178268896-.00408498089746.331693525105948-.029951910777527.494137290861545-.066245927489945.328515548444557-.073515808746379.64296214573551-.185139642668219.931098696564732-.363009404080003.025860006186122-.015882959622104.02903798285115.000913927928195.039928957339725.011354862152075.080314878647187.079400950715353.163350769991666.156530928999928.240030708006088.239573744040172.08303589134448.089841884939233.176055752945103.163357693685612.290857563533791.207364708225214h-4.29112703424471Z"/>
      <path class="cls-9" d="M18.497894828577046,10.956642914678014c-.008620002059615-.003628016933362-.017696968083328-.007256033863086-.026316970146581-.010884050798268h.026316970146581c.009076966027351.003628016935181.009076966027351.007256033864905,0,.010884050798268"/>
      <path class="cls-7" d="M18.497894828577046,10.956642914678014v-.010884050798268h.013161946924811c.009070042327949.003628016935181.009070042327949.007256033864905,0,.010884050798268h-.013161946924811"/>
      <path class="cls-13" d="M18.510959843750243,10.956545982928219v-.010884050796449h.013161946924811c.009070042327949.003628016929724.009527006292046.007256033863086,0,.010884050796449h-.013161946924811"/>
      <polygon class="cls-12" points="18.524211798727265 10.956587525106443 18.524211798727265 10.945703474309994 18.537373745648438 10.945703474309994 18.5410017625818 10.953416472140816 18.53691678168434 10.95704448907054 18.530567752053685 10.957944569607207 18.524211798727265 10.956587525106443"/>
      <path class="cls-5" d="M18.537055255614177,10.956906015140703v-.011341014760546h.013161946921173c-.004084980893822.003628016933362-.008626925751742.007712997829003-.013161946921173.011341014760546"/>
      <path class="cls-22" d="M21.857106170076804,10.945606542560199c-.004535021165793.011341014760546-.008620002063253.011341014760546-.013161946924811,0h.013161946924811Z"/>
      <path class="cls-5" d="M21.975355981490793,10.956906015140703c-.004535021169431-.003628016931543-.009076966027351-.007712997827184-.013161946924811-.011341014760546h.013161946924811c.009076966020075.003628016933362.009076966020075.007256033864905,0,.011341014760546"/>
      <path class="cls-12" d="M21.975355981490793,10.956906015140703v-.011341014760546h.013161946921173c.009070042327949.003628016933362.009070042327949.007256033864905-.000456963967736.010884050796449l-.006349029630655.001370891894112-.006355953322782-.000913927930014Z"/>
      <path class="cls-13" d="M21.988192514678303,10.956587525106443v-.010884050796449h.013161946924811c.003628016929724.002257125037431.004985061426851.004985061434127.003628016929724.007256033863086-.000907004236069.002270972432598-.002270972432598.003628016933362-.003628016929724.003628016933362h-.013161946924811"/>
      <path class="cls-7" d="M22.001402927473464,10.956642914678014v-.010884050798268h.013161946928449c-.004541944865196.003628016935181-.008626925759017.007256033864905-.013161946928449.010884050798268"/>
      <path class="cls-15" d="M22.513188720547987,17.665538591378208c.004535021165793-.01044093422388.008620002063253-.01044093422388.013161946924811,0h-.013161946924811Z"/>
      <path class="cls-14" d="M20.036160160301733,16.820653762821166c-.243665648631577-.015882959622104-.47553331853851-.079857914679451-.699687990618258-.174241744480241-.229139733513875-.096640954838222-.431062416340865-.233674754679669-.619823152246681-.397489412327559-.229139733510237-.198737782469834-.403381477990479-.436497518043325-.538601269363426-.702852119891759-.11661581905355-.230503701714042-.187396767709288-.477347327008829-.220519731450622-.734174922563398-.012704982960713-.095740874303374-.013161946924811-.095740874303374.083035891340842-.095740874303374.058982969927456-.000456963962279.11842982752205,0,.177412797449506-.001814008464862.11480181058505-.002727936398514.203279727327754-.08621386800769.201465718859254-.187853731671566-.002264048729558-.112523914462145-.093019861600624-.206007663724449-.206000740025047-.208721752729616-.067609895690111-.001814008464862-.135669831644918-.001370891892293-.203279727327754,0-.042656893740059.000443116574388-.06307487452068.000443116574388-.055811916961829-.059903821551416.037207944638794-.311718660894257.13158485074382-.602583148121994.284501610207371-.876636900407902.161986801787862-.290407523265458.37887851630876-.532252239738227.643869149960665-.72918986113109.20691466795688-.154273803962496.432883348505129-.273610635715158.683805030999793-.344841624637411.142932789200131-.040835961572157.285408614439802-.077143825677922.43379035273756-.090298848903331.05172693606437-.004541944861558.058982969927456.013611987191325.05762592543033.05671892119426-.002270972432598.072144916850448-.002270972432598.144289833700896.000450040264695.216434750553162.004541944861558.120707723646774.115251850853383.209178716693714.231867669906933.1887676596034.101189823395543-.018153932052883.160629757290735-.097554882768236.162900729719695-.220076614879872.001357044500764-.070330908385586.000907004232431-.140204852807074,0-.210078797226743-.000456963964098-.029951910779346.003628016929724-.036307864105765.039928957343363-.033122963744972.231410705942835.021768101589259.456922422523348.073958925317129.667922071374051.167428827186086.371622482449311.164257774224097.687883088201488.404288482230186.935633717734163.730990022206242.197837701929529.26091257645021.332600529338379.551306252324139.412915407981927.867123741505566.024502961685357.097554882768236.050362967864203.197380737967251.047641955170548.302191654596754-.000907004236069.038578836534725-.016332999894075.033122963744972-.036300940406363.033579927710889-.069873944423307.000913927926376-.139754812542378-.000900080538486-.209635680661449.000913927926376-.112073874188354.002714089005167-.201915759127587.076673014322296-.214163778124203.173784780519782-.016339923582564.129320802010625.081214959180215.232317710175266.213256773891771.22733264874114.06307487452068-.002727936394876.126599789313332,0,.190124704102345-.003641864324891.05535495300137-.002714089001529.073508885052433.029951910779346.063524914792652.073515808748198-.036300940406363.161529837823764-.059439933895192.326244576011959-.118429827518412.482332388439318-.061710906324151.162900729719695-.12251480841951.32624457601014-.222333739919122.469634329178007-.069423904151336.100282819164931-.124328816884372.211906653086771-.221433659378818.291307603802125-.025409965921426.020881868447759-.029494946815248.055361876693496-.054447948765301.078957834144603-.139304772270407.13067784650957-.2858655784039.249557714299954-.444681327226135.356196486789486-.211442765430547.141118780735269-.439232378135785.240030708006088-.685619039468293.297206593164447-.094833870065486.021781948984426-.191024784639012.03810802517728-.286315618672234.056261957230163-.05172693606437.009983970257963-.082578927380382-.001357044500764-.07667993801806-.06488888298918.004991985133529-.056261957228344-.00454194485792-.114337922925188.002264048736834-.170156763582781.014518991425575-.110709905995463-.076229897749727-.2164347505568-.185582759240788-.230046737746306-.090748889171664-.010897898187977-.203279727331392.059889974163525-.2146207420883.180140733842563-.007262957562489.07577293378381-.000907004239707.151088903603522-.003634940629127.226875684778861-.000907004236069.020411057090314.008620002063253.044463978505519-.016332999894075.058075965696844"/>
      <path class="cls-11" d="M20.036160160301733,16.820653762821166c.023138993488828-.061703982628387.00589898936596-.125692785079082.011341014764184-.188310695637483.002727936396695-.032209035813139-.007256033866724-.065331999558111.008626925759017-.096640954838222.000907004232431.07985791468127.002264048733196.159715829360721.0018140084685.239573744040172,0,.017240004124687.009070042324311.041749889502171-.021781948991702.045377906435533"/>
      <path class="cls-16" d="M21.456985753104163,14.214851372582416c.094376906105026.028581018883415.176962757177535.070787872349683.22506167631218.165614818723043.048098919134645.09438382980079.046284910666145.186953651136719.001357044504402.27769561660898-.046277986974019.093483749264124-.124778857152705.151559714962787-.230503701714042.153830687393565-.22914665720964.004985061432308-.458286390723515.004985061432308-.687433047929517.00452809746821-.046284910669783,0-.075772933785629.012711906652839-.109352861494699.050376815259369-.256370631588652.288579667407248-.720105971406156.222333739917303-.878914796536264-.11979379571676-.058082889394427-.125235821114984-.061710906320513-.248200669799189-.032672923476639-.377064507843897.006805993598391-.029494946813429.001363968196529-.050819931831938-.017240004122868-.076686861713824-.212356693351467-.297206593164447-.420178365544416-.59714112272377-.634349067368021-.892990671387452-.102089903928572-.140204852805255-.039021953100018-.384777505672901.138847808309947-.443310435332023.1438397934362-.047191914900395.271803550942423-.007256033864905.372079446413409.129320802010625.182404782575759.24820066979737.350297497425345.505928345890425.539058233327523.749143954255487.01587603592634.020424904483662.025860006186122.044920942469616.038564989143197.067602971990709.029951910775708.05219082372605.063524914789014.083499779004342.134312787140516.088027876472552.14156882100724.009540853689032.253649618894997.088941804402566.348026525000023.191938712569026.012254942685104.012711906652839.019967940515926.028594866274943.038571912835323.032679847172403.180133810146799.010427086830532.360274543993.002714089001529.540415277831926.004071133502293.071237912619836.000456963964098.142932789203769.007269881258253.214170701823605-.004985061432308"/>
      <path class="cls-12" d="M21.456985753104163,14.214851372582416c-.016789963858173.013155023227228-.037207944642432.011797978726463-.05671892119426.011797978726463h-.655674052384711c-.014518991425575,0-.03130895528011.004084980893822-.042193006076559-.010884050796449.251378646462399-.000456963964098.503207333193131-.000456963964098.754585979655531-.000913927930014"/>
    </g>
  </g>
</svg>